<?xml version="1.0" encoding="utf-8"?>
<!-- Generator: Adobe Illustrator 21.1.0, SVG Export Plug-In . SVG Version: 6.00 Build 0)  -->
<svg version="1.1" id="Layer_1" xmlns="http://www.w3.org/2000/svg" xmlns:xlink="http://www.w3.org/1999/xlink" x="0px" y="0px"
	 viewBox="0 0 631.4 1046.9" style="enable-background:new 0 0 631.4 1046.9;" xml:space="preserve">
<style type="text/css">
	.st0{fill-rule:evenodd;clip-rule:evenodd;fill:#3B454E;}
	.st1{fill-rule:evenodd;clip-rule:evenodd;fill:#539EA1;}
	.st2{fill-rule:evenodd;clip-rule:evenodd;fill:#3C9BD6;}
	.st3{fill-rule:evenodd;clip-rule:evenodd;fill:#E94E3E;}
</style>
<g>
	<path class="st0" d="M274.7,274.8c-12.3-6.5-23.7-12.3-34.9-18.4c-35.2-19.1-69.6-39.4-100.5-65C107.7,165.2,81,135.2,66,96.2
		c-6.8-17.7-11.2-35.9-11.8-54.9c-0.2-6.1-0.7-12.4,0.2-18.3c1.4-8.7,7.9-14.2,16.7-15.5c8.4-1.3,16.8,2.4,21,9.5
		c1,1.8,1.5,4,1.8,6.1c1.3,12,2.2,24.1,3.9,36c0.8,5.5,3.3,10.7,5.3,16c2,5.3,4.2,10.5,6.6,15.6c8.2,17.1,19.4,31.9,32.4,45.8
		c28.2,30.4,62.7,51.9,98.1,72c24.8,14,50.3,26.6,75.5,39.9c3.7,1.9,6.9,2.3,10.8,0.3c22.7-11.9,45.6-23.5,68.3-35.5
		c28.7-15.3,56.1-32.7,81.3-53.3c23.8-19.5,44.4-41.7,57.7-70c9-19.1,13.5-39.3,13.6-60.4c0-10.8,5.4-18.6,14.6-21.5
		c13.2-4.3,27.4,5.5,27.4,19.4c0,31.1-6.5,60.8-21.2,88.4c-16.8,31.6-41,56.8-68.6,79c-36.8,29.6-77.9,52.3-119.7,73.8
		c-3.5,1.8-7.1,3.7-11.3,5.8c1.6,1.1,2.7,2,3.9,2.6c17.8,9.5,35.6,18.8,53.3,28.4c5.5,3,10.5,6.9,15.8,10.3
		c17,11.1,34.5,21.4,50.8,33.4c25.9,19,48.8,41.3,66.3,68.6c17.8,27.7,28.1,57.8,30.2,90.9c2.3,36.8-4.9,71.2-22.2,103.6
		c-11.8,22-27.7,40.7-45.6,57.8c-29.3,27.9-63.1,49.4-98.1,69.2c-17.2,9.7-34.8,18.8-52.3,28.2c-0.4,0.2-0.7,0.6-1.6,1.4
		c2.1,1.1,3.9,2.2,5.7,3.1c39.5,20.4,78.5,41.8,114.2,68.5c23.4,17.5,45,37.1,62.4,60.8c20,27.2,32.9,57.3,36.3,91.2
		c0.7,7,1.5,13.9,1.7,20.9c0.3,13.3-8.8,23.2-20.8,23.2c-11.9,0-21.1-9.7-21.1-22.6c-0.2-38.3-14.8-70.8-39.3-99.5
		c-22.3-26.1-49.6-45.7-78.4-63.7c-33.2-20.8-68.1-38.5-103.1-56.1c-3.9-2-6.9-1.8-10.7,0.2c-27.5,14.6-55.6,28.2-82.6,43.7
		c-19.6,11.2-38,24.5-56.5,37.4c-15.7,11-29.3,24.5-42.2,38.7c-10.4,11.5-19,24.2-25.6,38c-9,19.1-13.3,39.4-13.8,60.7
		c-0.1,4.9-1.5,10.4-4.1,14.5c-5.1,8.2-14.4,10.6-24.3,7.5c-7.4-2.3-13.5-11.4-13.4-21c0.4-32.2,7.9-62.6,23.7-90.8
		c18.2-32.4,44-57.9,73.3-80.2c31.1-23.8,64.8-43.2,99.3-61.5c7.1-3.7,14.2-7.4,21.2-11.1c1-0.5,1.8-1.2,3.4-2.3
		c-6.6-3.4-12.6-6.5-18.6-9.7c-37.8-19.8-74.9-40.7-108.6-67.2c-10.9-8.6-21.7-17.7-31.4-27.7c-9.7-10.1-18-21.7-26.8-32.6
		c-16-19.7-25.5-42.6-30.7-67C45.4,504.5,58,450.1,96,401.8c20.4-25.9,45.5-46.7,72.4-65.4c32.1-22.2,66.4-40.7,101-58.7
		C270.9,277,272.3,276.2,274.7,274.8z M95.2,522.4c0.4,5.8,0.8,11.6,1.3,17.4c2.5,29,15.3,54,32.2,76.7
		c8.8,11.8,20.2,21.9,31.3,31.7c24,21.3,51,38.5,79,53.9c25.5,14,51.4,27.4,77.3,40.8c2.4,1.2,6.5,1.5,8.8,0.3
		c30-15.6,60.1-31,89.5-47.6c29.8-16.8,57.9-36.2,82.1-60.6c35.3-35.6,54.8-77.2,49.7-128.6c-2.4-23.9-10.2-45.7-23.3-65.6
		c-12.4-18.7-27.4-35.3-45.1-49c-15.3-11.8-31.2-22.7-47.1-33.8c-7.5-5.3-15.3-10.3-23.3-14.8c-8.9-5.1-18.1-9.5-27.2-14.2
		c-18.2-9.4-36.4-18.7-54.6-28.3c-3.3-1.7-6.2-1.7-9.4,0c-2.9,1.5-6.1,2.7-9,4.3c-24.6,13.2-49.5,26-73.8,39.9
		C198,365.2,164,388,136.4,419C110.2,448.5,95.3,482.4,95.2,522.4z"/>
	<path class="st1" d="M480.4,52.1c-9.2,0-18.3,0.1-27.5-0.1c-3.2-0.1-5.4,0.7-7.6,3.4c-11.3,14-31.3,14-42.3,0
		c-2.2-2.9-4.5-3.3-7.6-3.3c-32.3,0-64.6,0-96.9,0c-17.3,0-34.6-0.1-52,0.1c-2.3,0-5.2,1.4-6.7,3.1c-12.6,14.4-31,14.2-43.2-0.5
		c-1.2-1.4-3.6-2.5-5.4-2.5c-19.1-0.2-38.2-0.1-57.4-0.1c-4.9,0-9.9,0.5-14.8,0c-4.2-0.5-7.8-5.8-7.6-10c0.3-4.3,4.9-10,9-10.1
		c9.1-0.3,18.2-0.2,27.3-0.3c8.3-0.2,16.6-0.6,24.9-0.7c5.5-0.1,11,0.2,16.5-0.2c1.9-0.1,4.4-1.6,5.3-3.2c5.3-9,12.5-14.6,23.3-14.7
		c11.2,0,19.6,4.8,24.5,14.9c1.5,3.1,3.9,3.1,6.6,3.1c25.5,0,51,0,76.5,0c22.7,0,45.3-0.1,68,0.1c3.7,0,6-0.8,7.8-4.4
		c6.4-12.9,24.9-19.9,40.6-7.4c2.6,2.1,4.4,5.4,6.1,8.4c1.6,3,3.9,3.5,7,3.4c16.5-0.1,33,0,49.5,0c2.5,0,5,0,7.5,0.4
		c5.6,0.9,9.2,5.5,8.8,10.9c-0.4,5.6-4.4,9.7-10.1,9.8C500.4,52.3,490.4,52.1,480.4,52.1C480.4,52.1,480.4,52.1,480.4,52.1z"/>
	<path class="st1" d="M381.1,1013c-41.8,0-83.6,0-125.4-0.1c-4,0-6.6,1-8.9,4.6c-11.2,17.1-34.2,16.7-45.7-0.9c-2-3-4-3.8-7.2-3.8
		c-23.5,0.1-47,0.2-70.5,0.1c-6.7,0-11.7-4.5-11.8-10.3c-0.1-6.6,4.7-11,12-11.1c23.7-0.1,47.3-0.1,71,0c3.7,0,6-1,8.2-4.2
		c10.5-14.7,33.2-14.4,43.1,0.4c2,2.9,4,3.8,7.3,3.8c55.3-0.1,110.6,0,165.9,0c30,0,60,0,90,0.1c8.4,0,13.5,6.9,10.9,14.3
		c-1.8,5.1-5.8,7-10.9,7c-20,0-40,0-60,0C426.4,1012.9,403.8,1012.9,381.1,1013C381.1,1013,381.1,1013,381.1,1013z"/>
	<path class="st2" d="M259.9,99.9c34,0,67.9,0,101.9-0.1c1.7,0,4-1.5,5.1-2.9c12.4-17.7,33.4-17.8,46.1-0.3c1.2,1.6,4,3,6,3
		c18.2,0.2,36.3,0.1,54.5,0.2c8,0,12.9,4.1,12.9,10.7c0,6.3-5.2,10.5-13.2,10.5c-17.5,0-35,0.1-52.5-0.1c-4.2,0-6.8,1.1-9.3,4.8
		c-9.6,14.3-31.4,15.2-41.7,1.5c-3.7-5-7.4-6.3-13.2-6.3c-52,0.2-103.9,0.1-155.9,0.1c-14.2,0-28.3,0.2-42.5,0.1
		c-7.8,0-12.8-4.6-12.7-11.1c0.2-7.2,5.5-10.9,13.9-10.7c24.8,0.3,49.6,0.3,74.4,0.4c8.7,0,17.3,0,26,0
		C259.9,99.7,259.9,99.8,259.9,99.9z"/>
	<path class="st3" d="M270.4,922.8c37,0,74,0,111,0.1c4,0,6.6-1.2,9.2-4.4c11.1-13.3,26.2-14.4,38.8-2.4c7.1,6.8,14.1,8.3,23.4,7.1
		c8.2-1.1,16.6-0.5,24.9-0.1c5.1,0.3,9,5.8,8.8,11.1c-0.2,5.1-4.3,9.8-9.5,9.9c-10.8,0.2-21.6,0.2-32.4-0.2c-4.4-0.1-7.5,0-10.1,4.6
		c-6.2,10.8-18.4,15.9-30,11.6c-5.5-2-10.2-7.1-14.4-11.6c-2.5-2.7-4.1-4.5-8.3-4.5c-74.6,0.2-149.3,0.2-223.9,0.1
		c-7.1,0-11.6-4.1-11.7-10.2c0-7,4.3-11.2,11.8-11.2C195.4,922.7,232.9,922.7,270.4,922.8C270.4,922.7,270.4,922.8,270.4,922.8z"/>
	<path class="st2" d="M372.9,875.9c-11,0-22,0.2-33-0.1c-3-0.1-4.7,0.7-5.9,3.2c-9,18.7-37,17.8-46.6,0c-0.9-1.7-4.3-2.9-6.5-2.9
		c-17.8-0.2-35.6-0.1-53.5-0.2c-7.8,0-11.5-3.1-12.3-9.6c-0.9-7.2,3.5-12,11.7-12.2c10.5-0.2,21-0.1,31.4-0.1
		c8.2,0,16.3,0.2,24.5-0.2c2.3-0.1,5.3-1.5,6.5-3.3c9.3-14,32.8-15.7,43.7,0c2,2.9,4.4,3.5,7.6,3.5c21-0.1,41.9,0,62.9,0
		c9.6,0,14.6,3.7,14.6,10.6c0,7.6-4.7,11.3-14.4,11.3C393.2,875.9,383,875.9,372.9,875.9C372.9,875.9,372.9,875.9,372.9,875.9z"/>
	<path class="st2" d="M361.1,189.3c-15,0-30,0.1-45-0.1c-3.3,0-5.6,0.9-7.4,3.8c-8.1,13-31.4,16.4-42.5,1.2
		c-2.7-3.7-5.9-4.6-10.2-4.5c-9.8,0.3-19.6,0.1-29.4,0.1c-7.4,0-12.2-4.5-12.1-11c0-6.6,4.7-11,12.2-11c10.2-0.1,20.3,0,30.5,0.3
		c3.4,0.1,5.7-0.8,7.3-3.9c9-17.4,36-17.8,45.9,0.8c1.6,3,3.9,3.1,6.6,3.1c25,0,50,0,75,0c4.7,0,9.3,0,14,0.2
		c7,0.2,11.9,4.9,11.7,11c-0.2,6-5.1,10-12,10C390.7,189.3,375.9,189.3,361.1,189.3C361.1,189.3,361.1,189.3,361.1,189.3z"/>
	<path class="st3" d="M377.9,532.9c-44.7,0-89.3,0.1-134-0.1c-4.6,0-7.5,1.2-10.4,5c-10,13.2-31.6,12.9-41.7-0.5
		c-2.5-3.3-5.1-4.5-9.1-4.5c-18,0.2-36,0.1-53.9,0.1c-5.2,0-9-2.1-11.2-6.9c-1.9-4.1-1.2-8.5,2-11c2.9-2.2,7.1-3.7,10.8-3.8
		c16.8-0.4,33.6-0.3,50.4-0.1c4.2,0,6.9-1,9.4-4.7c12.4-18.5,36.7-15.2,45.6,1c1.7,3.2,4.2,3.7,7.5,3.7c48.6,0,97.3,0,145.9,0
		c40.6,0,81.3,0,121.9,0c2.2,0,4.4,0.1,6.5,0.5c5.4,1.1,8.3,4.8,8.2,10.2c-0.1,6-2.8,9.6-8.4,10.7c-2.3,0.4-4.6,0.4-7,0.4
		C466.2,532.9,422,532.9,377.9,532.9C377.9,532.9,377.9,532.9,377.9,532.9z"/>
	<path class="st1" d="M271.4,442.6c40.8,0,81.6,0,122.4,0.1c5.1,0,8.7-1.1,12.2-5.6c10.4-13.1,31.7-12.4,41.7,1.1
		c2.6,3.6,5.3,4.6,9.5,4.5c13.3-0.3,26.6-0.2,40-0.1c7.3,0.1,11.5,4.2,11.4,11c0,6.2-4.4,10.3-11.5,10.4c-13.3,0.1-26.7,0.2-40,0
		c-3.6,0-5.7,1-7.6,4.2c-10.4,17.2-35.5,17.3-45.7,0.2c-2.4-3.9-5.2-4.5-8.9-4.5c-29,0.1-58,0.1-86.9,0.1
		c-51.6,0-103.2,0.1-154.9,0.1c-2.7,0-5.3-0.1-8-0.2c-7.3-0.3-11.2-4.2-11-11.3c0.1-5.9,4.7-10,11.3-10
		C187.5,442.6,229.5,442.6,271.4,442.6C271.4,442.6,271.4,442.6,271.4,442.6z"/>
	<path class="st3" d="M431.3,601.1c-10.7,20.5-37,18.5-46.7,3.1c-1.1-1.7-4.4-2.9-6.6-2.9c-51.6-0.2-103.3-0.1-154.9-0.1
		c-26,0-52,0-77.9,0c-5.5,0-10.1-3.5-11.2-8.2c-1.1-4.6,1.7-10.3,6.3-12.4c1.5-0.6,3.2-0.9,4.8-0.9c62.6,0,125.3,0.1,187.9,0.1
		c15.2,0,30.3,0,45.5-0.3c1.7,0,4.1-1.3,5-2.8c10.7-18.8,35.8-19.3,47.1-0.6c1.6,2.7,3.3,3.6,6.3,3.6c19.8-0.1,39.6-0.1,59.4-0.1
		c7.9,0,11.9,3.3,12.4,10.1c0.5,6.9-3.7,11.4-10.8,11.3c-8.6-0.1-17.3-0.7-25.9-0.6c-10.3,0-20.5,0.4-30.8,0.6
		C437.8,601.1,434.5,601.1,431.3,601.1z"/>
	<path class="st3" d="M392,395.8c-13.8,0-27.7,0.1-41.5,0c-3.3,0-5.5,0.9-7.6,3.6c-10.8,14.3-31.4,14.7-42.7,0.6
		c-2.6-3.3-5.3-4.3-9.3-4.3c-24.6,0-49.3-0.2-73.9-0.3c-3.3,0-6.7,0.5-10,0.3c-6.7-0.4-11.7-5.5-11.6-11.5c0.1-6,5.3-10.5,12.3-10.5
		c27.7,0,55.3,0,83,0.1c3.4,0,5.7-0.6,7.7-3.9c10.8-17.6,34.3-18,45.6-0.6c2.4,3.7,5,4.6,8.9,4.6c15.7-0.1,31.3-0.1,47-0.1
		c11.6,0,23.2,0,34.9,0c7.3,0,12.6,4.6,12.5,10.7c0,6.2-5.1,11.1-12.3,11.2C420.6,395.9,406.3,395.8,392,395.8z"/>
	<path class="st2" d="M418.5,669.1c-10.4,0-20.8-0.1-31.2,0c-12.3,0.2-24.6,0.4-36.9,0.9c-1.7,0.1-3.7,1.4-4.9,2.7
		c-12.4,13.1-29.3,13-41.6-0.2c-1.5-1.6-4.6-2.5-7-2.6c-27.3-0.2-54.6-0.1-81.9-0.1c-6.9,0-10.7-2.6-12.2-8.1
		c-1.5-5.5,1.2-11,6.7-12.6c2.8-0.8,5.9-1.2,8.8-1.2c25-0.1,49.9-0.1,74.9,0c3.8,0,6-1.1,7.8-4.6c4.7-9.1,12.3-14.4,22.8-14.4
		c10.9,0,19.8,4.2,24.8,14.5c1.6,3.3,3.7,4.5,7.4,4.5c15-0.1,30,0,45,0.1c8.9,0,17.8-0.1,26.7,0c8,0,12.1,4.1,12.2,11.8
		c0.1,6-4.5,9.9-11.8,10c-3.2,0-6.3,0-9.5,0C418.5,669.7,418.5,669.4,418.5,669.1z"/>
</g>
</svg>
