<?xml version="1.0" encoding="UTF-8" standalone="no"?>
<!-- Created with Inkscape (http://www.inkscape.org/) -->

<svg
   width="258.76083mm"
   height="256.4874mm"
   viewBox="0 0 258.76083 256.4874"
   version="1.1"
   id="svg5"
   inkscape:export-filename="C:\Users\Pavel\spermegg.png"
   inkscape:export-xdpi="99.988503"
   inkscape:export-ydpi="99.988503"
   inkscape:version="1.1 (c68e22c387, 2021-05-23)"
   sodipodi:docname="spermegg.svg"
   xmlns:inkscape="http://www.inkscape.org/namespaces/inkscape"
   xmlns:sodipodi="http://sodipodi.sourceforge.net/DTD/sodipodi-0.dtd"
   xmlns="http://www.w3.org/2000/svg"
   xmlns:svg="http://www.w3.org/2000/svg">
  <sodipodi:namedview
     id="namedview7"
     pagecolor="#ffffff"
     bordercolor="#666666"
     borderopacity="1.0"
     inkscape:pageshadow="2"
     inkscape:pageopacity="0.0"
     inkscape:pagecheckerboard="0"
     inkscape:document-units="mm"
     showgrid="false"
     fit-margin-top="0"
     fit-margin-left="0"
     fit-margin-right="0"
     fit-margin-bottom="0"
     inkscape:zoom="0.34207978"
     inkscape:cx="-456.03397"
     inkscape:cy="244.09511"
     inkscape:window-width="1920"
     inkscape:window-height="991"
     inkscape:window-x="-9"
     inkscape:window-y="-9"
     inkscape:window-maximized="1"
     inkscape:current-layer="layer1" />
  <defs
     id="defs2" />
  <g
     inkscape:label="Layer 1"
     inkscape:groupmode="layer"
     id="layer1"
     transform="translate(19.074149,-15.858332)">
    <g
       id="g1598"
       transform="translate(336.92529,96.264371)">
      <path
         style="fill:#000000;fill-opacity:1;stroke-width:0.264583"
         d="m -293.03716,175.86495 c 0,-1.25973 2.11808,-8.20742 3.11217,-10.20849 1.75182,-3.52636 3.57048,-5.11665 9.80924,-8.57754 4.31665,-2.39462 6.02199,-3.80443 7.04579,-5.82481 0.3396,-0.67016 1.21265,-3.0106 1.94011,-5.20097 1.49483,-4.5009 2.72689,-7.09776 5.02378,-10.58881 2.3926,-3.63653 2.29247,-3.34457 2.43978,-7.11412 0.12732,-3.25836 0.18217,-3.53503 1.04109,-5.25109 1.04269,-2.08323 3.88628,-5.27177 5.79211,-6.49474 2.93765,-1.88509 6.77734,-2.46055 8.53123,-1.27861 1.97532,1.33117 2.71739,3.75527 2.104,6.87309 -0.92779,4.71588 -3.76249,8.8127 -7.46215,10.78459 -1.17191,0.62464 -2.08432,0.87925 -3.77634,1.05382 -2.60142,0.26839 -2.90509,0.40231 -4.22489,1.86317 -2.26859,2.51106 -4.51295,6.6295 -6.55177,12.02261 -2.57083,6.80041 -4.73984,8.96064 -11.81501,11.76722 -1.50346,0.5964 -3.30573,1.37429 -4.00504,1.72866 -2.50558,1.26968 -4.50226,4.28177 -7.28912,10.99599 -1.48779,3.58446 -1.71498,4.0415 -1.71498,3.45003 z m -54.76875,-5.68646 c 0,-0.0595 1.51805,-1.0312 3.37344,-2.15932 5.31375,-3.23091 8.25243,-5.68121 9.31761,-7.76912 0.26988,-0.52902 1.09692,-3.43467 1.83786,-6.45701 0.74094,-3.02233 1.51704,-5.82365 1.72467,-6.22515 1.08783,-2.10364 3.97982,-4.61489 8.81804,-7.65713 3.48049,-2.1885 6.12228,-4.29879 8.55417,-6.83316 2.30204,-2.39905 2.44508,-2.69021 2.06442,-4.20195 -0.48527,-1.9272 -0.18271,-4.76593 0.69952,-6.56316 2.16026,-4.40073 7.92439,-8.46061 12.02902,-8.47247 2.91231,-0.008 4.64718,1.25775 5.30548,3.8721 0.87478,3.47406 -2.12762,9.72091 -6.17166,12.84086 -1.93159,1.49021 -3.67686,2.20842 -5.73221,2.35891 -2.19552,0.16075 -2.88752,0.56224 -6.08061,3.52786 -3.59804,3.34172 -5.86874,4.95782 -9.85832,7.01634 -3.71449,1.91657 -6.08271,3.80896 -7.22059,5.76978 -0.34622,0.59661 -1.12371,2.74441 -1.72775,4.77287 -1.70923,5.73989 -3.20731,8.49545 -5.69218,10.47018 -2.3792,1.89075 -11.24091,6.39185 -11.24091,5.70957 z m 185.17185,-2.20693 c -5.10607,-3.83026 -8.37212,-7.37194 -9.38658,-10.17872 -0.22507,-0.62272 -0.69816,-3.63253 -1.05131,-6.68847 -0.35315,-3.05594 -0.82935,-6.20277 -1.05822,-6.99296 -0.44285,-1.52893 -0.84799,-1.97585 -7.69186,-8.48516 -1.79451,-1.70679 -3.51025,-3.71894 -5.34559,-6.2691 -3.0171,-4.19218 -3.78289,-4.9578 -5.23051,-5.22937 -3.09608,-0.58083 -6.88624,-4.44335 -8.31877,-8.47757 -0.70556,-1.98699 -0.96431,-6.01295 -0.52305,-8.13847 0.76993,-3.70873 4.10476,-4.78942 8.27389,-2.68126 2.2574,1.14148 5.20528,4.30881 6.55475,7.04272 1.06105,2.1496 1.14825,2.49143 1.26753,4.96852 0.12486,2.5928 0.10639,2.70286 -0.72979,4.35028 l -0.85789,1.69018 1.48144,2.51718 c 1.87825,3.19142 3.67976,5.42259 8.27406,10.24742 3.89424,4.08965 5.09216,5.87771 5.61623,8.38302 0.16016,0.76565 0.41463,3.68269 0.56549,6.48229 0.15086,2.79961 0.39236,5.68551 0.53666,6.41312 0.45351,2.28659 1.69474,3.99592 6.2894,8.66133 2.40255,2.43955 4.30062,4.43554 4.21795,4.43554 -0.0827,0 -1.38039,-0.92273 -2.88383,-2.05052 z m 58.61342,-40.86166 c -2.81196,-3.92723 -5.8515,-7.02915 -7.8136,-7.97395 -1.00042,-0.48172 -2.54936,-0.84834 -5.25501,-1.24381 -6.03785,-0.88251 -8.23701,-1.46739 -10.03701,-2.66938 -1.99586,-1.33278 -4.04659,-3.55319 -6.13978,-6.64778 -2.76969,-4.09475 -9.38338,-10.261776 -10.99462,-10.252116 -0.26265,0.002 -1.06201,0.18017 -1.77636,0.39688 -2.632,0.79844 -5.62681,0.19317 -8.62167,-1.7425 -3.32108,-2.14652 -5.60837,-5.21364 -6.50862,-8.72768 -0.79114,-3.0881 -0.12588,-5.08787 2.05393,-6.17412 2.34411,-1.16811 6.19621,-0.87832 9.34809,0.70326 4.56129,2.28881 7.39632,5.90919 7.781,9.93648 0.1636,1.71267 0.2802,2.04772 0.83479,2.39862 1.03493,0.65483 5.70816,5.280206 7.51649,7.439526 0.914,1.09141 2.61076,3.41313 3.77057,5.15938 2.0889,3.14512 3.80481,5.02195 5.26846,5.76254 1.23407,0.62443 3.22126,1.21064 7.40056,2.18313 6.25716,1.45599 8.42721,2.82437 11.41472,7.19788 1.90836,2.79371 4.42411,7.17769 4.2302,7.3716 -0.0768,0.0768 -1.18927,-1.32628 -2.47214,-3.11796 z m -244.8091,-14.35165 c 0.0917,-0.0966 1.92252,-0.93673 4.06843,-1.86695 2.1459,-0.93022 4.83526,-2.2557 5.97635,-2.94552 3.3851,-2.04638 3.94072,-2.77503 6.17105,-8.092866 1.07341,-2.55936 2.27352,-5.2026 2.66691,-5.87387 1.47658,-2.5196 5.12635,-5.03088 9.6756,-6.65744 2.92994,-1.04759 7.27568,-3.3428 9.65269,-5.09809 3.17374,-2.343631 3.21807,-2.412591 3.34426,-5.202474 0.13719,-3.03326 0.86953,-4.49733 3.64857,-7.29417 3.37336,-3.39497 6.33599,-4.63399 10.5936,-4.43043 2.75922,0.13192 3.91493,0.72342 4.73885,2.4254 1.07361,2.21779 0.4388,5.26374 -1.81727,8.7197 -1.52486,2.335843 -2.8717,3.524043 -5.60859,4.947924 -2.5648,1.33435 -5.19674,1.94354 -6.71058,1.55321 -1.91322,-0.4933 -1.57994,-0.62751 -6.14783,2.47572 -3.20188,2.17522 -7.03572,3.99984 -11.51843,5.4819 -3.87774,1.28206 -5.94355,2.52245 -7.36666,4.42324 -0.52572,0.70217 -1.89417,3.12215 -3.041,5.377716 -3.3599,6.60816 -5.41619,8.27342 -13.33337,10.79783 -3.43832,1.09632 -5.27869,1.56047 -4.99258,1.25917 z m 186.28852,-79.799999 c -3.66226,-0.384456 -6.40636,-2.433034 -6.40636,-4.782608 0,-2.024269 0.98169,-3.915328 3.1491,-6.066243 3.26761,-3.24273 6.81129,-4.621916 11.40949,-4.440523 2.02921,0.08005 2.69914,0.212871 3.43958,0.681948 2.24998,1.425384 2.51314,1.50037 4.05478,1.155369 2.14602,-0.480258 7.38019,-3.203292 10.22622,-5.320104 3.99469,-2.971157 6.62486,-4.6466679 8.33437,-5.3092929 2.16022,-0.837319 6.59535,-0.850437 11.1419,-0.03296 1.76241,0.316888 3.67406,0.576159 4.2481,0.576159 2.52347,0 7.10643,-2.418972 12.28126,-6.482292 3.554449,-2.79098305 3.993779,-3.07561905 2.888119,-1.87118 -1.37121,1.49371 -6.255939,5.886042 -7.880849,7.086433 -0.77834,0.574992 -2.3064,1.468686 -3.39568,1.9859859 l -1.98053,0.940546 -7.59767,0.03015 -7.59767,0.03015 -1.71495,0.853175 c -0.94322,0.469246 -2.90557,1.877975 -4.36078,3.13051 -3.41016,2.935211 -5.72333,4.45203 -10.45104,6.853063 -3.93566,1.998784 -4.8387,2.681089 -5.11793,3.866928 -0.23134,0.982432 -1.84225,2.991291 -3.27758,4.087251 -1.71279,1.307809 -4.23741,2.465377 -6.35614,2.914367 -1.9351,0.410075 -2.1594,0.415115 -5.03574,0.113165 z M -302.56216,14.264296 c -4.52608,-0.75765 -9.12162,-4.074216 -11.04895,-7.9739489 -0.83906,-1.697733 -0.99482,-2.286143 -1.02397,-3.868105 -0.0189,-1.026181 -0.0487,-2.06341105 -0.0661,-2.30495505 -0.0175,-0.241546 -0.53778,-0.920641 -1.15625,-1.50910095 -2.76028,-2.626368 -6.54543,-4.963784 -11.37654,-7.02528 -4.06424,-1.7342541 -6.38598,-3.1938811 -8.20424,-5.1578161 -1.55363,-1.678112 -2.37684,-3.225782 -3.92613,-7.381306 -1.35054,-3.622437 -2.18249,-5.093325 -3.79016,-6.700991 -1.73198,-1.731976 -3.8841,-2.983288 -8.62012,-5.012007 -5.90198,-2.528176 -5.64482,-2.689461 0.92605,-0.580787 5.03189,1.614799 7.51028,2.919735 9.65729,5.084828 1.7382,1.752841 1.98728,2.176328 4.9025,8.335275 2.07112,4.375631 4.31132,6.185945 10.1848,8.230369 3.90182,1.358136 6.20361,2.4906321 9.12207,4.4881191 1.45521,0.995993 3.22115,2.204498 3.92431,2.685571 1.23883,0.847561 1.35777,0.873914 3.83646,0.850033 1.97111,-0.019 2.91982,0.103076 4.13513,0.53204 3.99353,1.409594 7.76108,5.173953 9.15898,9.151225 0.62072,1.766049 0.74105,4.4883179 0.24125,5.4576259 -1.14119,2.213216 -3.72371,3.226946 -6.87633,2.699211 z m 117.1824,-24.1071207 c -0.83295,-0.5368853 -1.41,-1.1807933 -1.82326,-2.0344773 -0.53678,-1.108839 -0.58713,-1.505571 -0.44866,-3.535735 0.26072,-3.822684 1.56731,-6.757326 4.25771,-9.562896 2.35537,-2.456206 5.21993,-3.968649 7.51659,-3.968649 1.1693,0 1.75362,-0.486244 5.15488,-4.289666 2.53836,-2.83849 5.55258,-5.29073 9.1318,-7.42923 5.43387,-3.24662 6.21319,-4.512336 8.26073,-13.416521 1.12683,-4.900256 3.13165,-7.966569 7.00427,-10.712819 2.07803,-1.473624 8.5758,-5.273532 8.73884,-5.110491 0.0698,0.06976 -1.51075,1.298394 -3.51225,2.730292 -2.01465,1.441309 -4.71354,3.678998 -6.04608,5.01291 -2.94574,2.948771 -3.1949,3.533677 -4.31355,10.126375 -0.93483,5.509374 -1.46484,7.123289 -3.0435,9.267748 -1.29097,1.753666 -2.72352,3.015348 -7.037,6.197682 -3.27857,2.41881 -6.0235,5.139153 -8.04722,7.975142 -1.36191,1.908543 -1.3291,1.67768 -0.65906,4.637458 0.73956,3.266905 -0.78353,7.159998 -4.11467,10.517301 -2.65936,2.680247 -5.30886,4.0830131 -8.05618,4.2653001 -1.58663,0.105275 -1.85519,0.04458 -2.96339,-0.6697238 z m -64.83597,-1.2384913 c -3.37218,-1.240276 -6.81913,-5.044016 -8.19732,-9.045797 -0.90216,-2.619541 -0.89959,-6.704232 0.005,-8.362465 l 0.6304,-1.15529 -1.05639,-2.361835 c -1.96857,-4.401166 -2.88501,-7.903567 -3.76804,-14.400379 -0.66478,-4.891061 -1.26388,-6.857481 -2.59072,-8.50353 -0.98445,-1.221282 -1.69925,-1.867571 -5.3269,-4.816319 -3.50348,-2.847813 -5.58307,-5.948008 -6.52163,-9.722237 -0.27636,-1.111333 -0.45681,-3.293453 -0.52319,-6.326663 l -0.10133,-4.630208 0.53456,3.307291 c 1.52931,9.461809 2.69575,11.854908 7.40868,15.199836 4.55277,3.231258 6.61806,4.969381 7.51317,6.323001 1.32936,2.010313 2.14743,4.449985 2.91489,8.692783 0.80014,4.423505 1.64183,7.54657 2.96677,11.008095 1.19275,3.116199 2.0895,4.136419 3.84227,4.371303 1.49841,0.200795 2.48532,0.67016 4.37803,2.082152 2.42825,1.811514 4.19797,5.254048 4.83279,9.400918 0.56983,3.722399 -0.44585,7.458149 -2.37534,8.736631 -1.04253,0.690782 -3.00241,0.777793 -4.566,0.202713 z"
         id="path836"
         sodipodi:nodetypes="sssssssssssssssssssssssssssscsssssssssssssssssssssscssssssssssssscsssssssssssssssssssssssssssssssssssssssssssssssscccssssssssssscsssssssssssssssssssssssssssssssssssssscsccsssssscssssssssscc" />
      <circle
         style="fill:#000000;fill-opacity:1;stroke:#66c2a3;stroke-width:0;stroke-linejoin:round;paint-order:markers fill stroke"
         id="path1425"
         cx="-226.61902"
         cy="47.837666"
         r="52.817841" />
    </g>
    <path
       id="path2289"
       style="fill:#000000;fill-opacity:1;stroke:#66c2a3;stroke-width:0;stroke-linejoin:round;paint-order:markers fill stroke"
       d="m -130.73993,45.207821 a 75.445256,75.445256 0 0 0 -75.44494,75.446049 75.445256,75.445256 0 0 0 12.00897,40.74707 c 0.32404,-0.35117 0.65085,-0.70366 1.00121,-1.06964 0.44244,-0.46217 0.90577,-0.93688 1.39198,-1.4262 0.59019,-0.59397 1.17608,-1.16479 1.75846,-1.7121 0.58238,-0.54731 1.1617,-1.07139 1.73859,-1.57301 0.57689,-0.50163 1.15161,-0.98033 1.72535,-1.43724 0.57373,-0.45691 1.14581,-0.8916 1.71872,-1.30477 0.57291,-0.41317 1.14651,-0.80521 1.72093,-1.17562 0.28721,-0.18521 0.5752,-0.36509 0.86322,-0.53979 0.28803,-0.1747 0.57631,-0.34346 0.86543,-0.50778 0.28914,-0.16431 0.57822,-0.32393 0.86875,-0.47797 0.29053,-0.15405 0.58205,-0.30316 0.87426,-0.44707 0.29222,-0.14391 0.58559,-0.28227 0.87979,-0.41616 0.2942,-0.13389 0.58993,-0.26346 0.8864,-0.38745 0.29647,-0.12399 0.594,-0.24234 0.89303,-0.35655 0.29903,-0.11422 0.59887,-0.2244 0.90076,-0.32896 0.30188,-0.10455 0.60566,-0.20412 0.91069,-0.29915 0.30503,-0.095 0.61105,-0.18483 0.91952,-0.27044 0.30847,-0.0856 0.61947,-0.16653 0.93167,-0.24285 0.31219,-0.0763 0.62648,-0.1481 0.94269,-0.21526 0.31622,-0.0672 0.63432,-0.12954 0.95485,-0.18765 0.32054,-0.0581 0.64296,-0.11198 0.9681,-0.16117 0.65026,-0.0984 1.30991,-0.17943 1.98033,-0.24285 0.67043,-0.0634 1.35145,-0.10965 2.04437,-0.13909 0.69291,-0.0294 1.39837,-0.0422 2.11611,-0.0386 0.71774,0.004 1.44849,0.024 2.19339,0.0596 0.48274,0.0231 0.94784,0.0514 1.39639,0.085 0.44855,0.0336 0.87986,0.072 1.29594,0.11701 0.41608,0.045 0.81675,0.0962 1.20211,0.15344 0.38536,0.0572 0.75522,0.12057 1.11159,0.19097 0.35638,0.0704 0.69858,0.14736 1.02771,0.23181 0.32913,0.0845 0.6457,0.17657 0.94932,0.27597 0.30362,0.0994 0.59442,0.20599 0.87427,0.32122 0.27985,0.11524 0.5491,0.23895 0.80692,0.3709 0.25783,0.13196 0.50428,0.27211 0.7418,0.42168 0.23753,0.14957 0.46543,0.3088 0.6844,0.47687 0.21898,0.16807 0.42926,0.34571 0.63141,0.53317 0.20216,0.18747 0.39687,0.38503 0.58395,0.59278 0.18708,0.20774 0.36715,0.42567 0.5409,0.65459 0.17374,0.22892 0.34122,0.46874 0.50336,0.71972 0.16214,0.25099 0.31797,0.51313 0.47025,0.78706 0.15227,0.27393 0.3007,0.55883 0.44485,0.8566 0.0939,0.19401 0.18256,0.39097 0.26714,0.58947 0.0846,0.1985 0.16538,0.39868 0.24064,0.60161 0.0753,0.20292 0.14598,0.40868 0.21195,0.61595 0.066,0.20728 0.12656,0.41656 0.18324,0.6281 0.0567,0.21155 0.10935,0.4256 0.15675,0.64135 0.0474,0.21576 0.0899,0.4325 0.12805,0.65239 0.0381,0.21988 0.0716,0.44278 0.10045,0.66673 0.0289,0.22396 0.0532,0.44984 0.0729,0.67778 0.0393,0.45589 0.0604,0.91944 0.0629,1.39087 0.002,0.47143 -0.0133,0.95084 -0.0475,1.43724 -0.0342,0.48639 -0.0871,0.97949 -0.15785,1.48029 -0.0708,0.50079 -0.15989,1.00871 -0.26714,1.52333 -0.10725,0.51462 -0.23282,1.03631 -0.37642,1.56418 -0.1436,0.52788 -0.30476,1.06227 -0.4846,1.60282 -0.17983,0.54055 -0.37793,1.08768 -0.59388,1.64035 -0.21594,0.55266 -0.45012,1.11036 -0.70206,1.67456 -0.25193,0.56421 -0.52132,1.13472 -0.80913,1.70989 -0.28781,0.57518 -0.59375,1.15523 -0.91732,1.7408 -0.32356,0.58557 -0.66519,1.17632 -1.02439,1.77171 -0.35919,0.59539 -0.73675,1.19576 -1.13146,1.80041 -0.26678,0.40867 -0.53083,0.80435 -0.79479,1.18887 -0.26396,0.38451 -0.52708,0.75816 -0.79037,1.12042 -0.26328,0.36225 -0.52672,0.71342 -0.79147,1.0553 -0.26475,0.34188 -0.53084,0.67449 -0.7992,0.99789 -0.26836,0.32341 -0.53944,0.637 -0.81355,0.94381 -0.27411,0.30681 -0.55142,0.60644 -0.83342,0.89855 -0.282,0.29212 -0.56898,0.57729 -0.86102,0.8566 -0.29204,0.27931 -0.5888,0.55289 -0.89303,0.82128 -0.30422,0.26839 -0.61532,0.53101 -0.93387,0.79037 -0.31854,0.25936 -0.64521,0.51496 -0.98023,0.76719 -0.33502,0.25222 -0.67849,0.50144 -1.03212,0.74842 -0.1989,0.13892 -0.40843,0.27622 -0.61375,0.41395 a 75.445256,75.445256 0 0 0 33.34674,7.79441 75.445256,75.445256 0 0 0 75.446051,-75.44495 75.445256,75.445256 0 0 0 -75.446051,-75.446049 z"
       inkscape:export-filename="C:\Users\Pavel\spermegg.png"
       inkscape:export-xdpi="99.988503"
       inkscape:export-ydpi="99.988503" />
    <path
       d="m -281.64146,251.51835 c 0.19588,-0.20635 4.10672,-2.00097 8.69063,-3.98802 4.58389,-1.98706 10.32867,-4.81844 12.76617,-6.29197 7.23096,-4.3713 8.41783,-5.92778 13.18207,-17.2873 2.29292,-5.46708 4.8565,-11.11335 5.69682,-12.54726 3.15417,-5.38215 10.95047,-10.74653 20.66819,-14.22105 6.25869,-2.23777 15.54169,-7.14061 20.61925,-10.89011 6.77947,-5.00626 6.87417,-5.15356 7.14372,-11.11307 0.29306,-6.47939 1.85742,-9.60681 7.79377,-15.58117 7.20588,-7.25205 13.5344,-9.89874 22.62914,-9.46391 5.89401,0.2818 8.36274,1.54531 10.12273,5.18093 2.29335,4.73745 0.93732,11.24395 -3.8819,18.62627 -3.25728,4.98963 -6.13428,7.52776 -11.98059,10.56933 -5.47871,2.85032 -11.10083,4.15162 -14.33457,3.31783 -4.08685,-1.05374 -3.37493,-1.34043 -13.13247,5.28842 -6.83958,4.64652 -15.0291,8.54412 -24.60468,11.70997 -8.2833,2.73863 -12.69611,5.38824 -15.73603,9.44855 -1.123,1.49991 -4.04617,6.66927 -6.49593,11.48742 -7.17713,14.11579 -11.5696,17.67298 -28.4816,23.0654 -7.34465,2.34187 -11.27589,3.33335 -10.66472,2.68974 z"
       style="fill:#000000;fill-opacity:1;stroke-width:0.149537"
       id="path1625-2"
       inkscape:export-filename="C:\Users\Pavel\spermegg.png"
       inkscape:export-xdpi="99.988503"
       inkscape:export-ydpi="99.988503" />
  </g>
</svg>
