<?xml version="1.0" encoding="UTF-8" standalone="no"?>
<!-- Created with Inkscape (http://www.inkscape.org/) -->

<svg
   xmlns:dc="http://purl.org/dc/elements/1.1/"
   xmlns:cc="http://creativecommons.org/ns#"
   xmlns:rdf="http://www.w3.org/1999/02/22-rdf-syntax-ns#"
   xmlns:svg="http://www.w3.org/2000/svg"
   xmlns="http://www.w3.org/2000/svg"
   xmlns:sodipodi="http://sodipodi.sourceforge.net/DTD/sodipodi-0.dtd"
   xmlns:inkscape="http://www.inkscape.org/namespaces/inkscape"
   width="324.8999mm"
   height="401.13434mm"
   viewBox="0 0 324.89991 401.13434"
   version="1.1"
   id="svg14178"
   inkscape:version="0.92.4 (5da689c313, 2019-01-14)"
   sodipodi:docname="vial.svg">
  <defs
     id="defs14172" />
  <sodipodi:namedview
     id="base"
     pagecolor="#ffffff"
     bordercolor="#666666"
     borderopacity="1.0"
     inkscape:pageopacity="0.0"
     inkscape:pageshadow="2"
     inkscape:zoom="0.35355339"
     inkscape:cx="1408.8188"
     inkscape:cy="1099.5059"
     inkscape:document-units="mm"
     inkscape:current-layer="layer1"
     showgrid="false"
     inkscape:window-width="1920"
     inkscape:window-height="1017"
     inkscape:window-x="-8"
     inkscape:window-y="32"
     inkscape:window-maximized="1"
     fit-margin-top="0"
     fit-margin-left="0"
     fit-margin-right="0"
     fit-margin-bottom="0" />
  <metadata
     id="metadata14175">
    <rdf:RDF>
      <cc:Work
         rdf:about="">
        <dc:format>image/svg+xml</dc:format>
        <dc:type
           rdf:resource="http://purl.org/dc/dcmitype/StillImage" />
        <dc:title></dc:title>
      </cc:Work>
    </rdf:RDF>
  </metadata>
  <g
     inkscape:label="Layer 1"
     inkscape:groupmode="layer"
     id="layer1"
     transform="translate(-3.580318,133.07286)">
    <g
       id="g4780"
       transform="matrix(1.1609549,0,0,-1.1609549,73.954542,65.252939)">
      <path
         style="fill:#c7c6c6;fill-opacity:1;fill-rule:evenodd;stroke:none;stroke-width:1.33333325"
         d="m 422.03125,464.85742 c -0.0548,0.0238 -0.0349,0.0187 -0.0918,0.043 -1.23805,0.52881 -2.96372,1.16377 -4.91015,1.58203 -0.97322,0.20913 -2.00175,0.36416 -3.05274,0.42578 -1.05099,0.0616 -2.12299,0.0291 -3.18554,-0.13672 -1.06256,-0.16581 -2.11514,-0.46433 -3.12305,-0.9375 -1.00792,-0.47316 -1.97232,-1.12003 -2.85938,-1.98046 -1.17896,-1.14357 -2.34719,-2.91044 -3.49023,-5.125 -1.14304,-2.21457 -2.26066,-4.87768 -3.33594,-7.81641 -1.07527,-2.93873 -2.10831,-6.1527 -3.08398,-9.46875 -0.97567,-3.31605 -1.89406,-6.73355 -2.73828,-10.08008 -1.68844,-6.69306 -3.08115,-13.10008 -4.05274,-17.83398 -0.55505,-2.70441 -0.61336,-3.09959 -0.86914,-4.45313 2.74788,17.41779 5.43981,34.84379 8.27344,52.24805 2.29655,12.05239 21.01858,13.61736 26.51953,3.5332 z"
         id="path14917"
         transform="matrix(0.75000002,0,0,-0.75000002,-330.90628,181.21432)"
         inkscape:connector-curvature="0" />
      <path
         style="fill:#e2e2e2;fill-opacity:1;fill-rule:evenodd;stroke:none;stroke-width:1.33333325"
         d="m 373.64258,239.7168 -0.60156,21.57617 c -0.58822,36.91586 0.29981,74.30692 8.31445,110.63281 1.89317,12.39368 3.92896,24.76566 5.88281,37.15039 0.25578,1.35354 0.31409,1.74872 0.86914,4.45313 0.97159,4.7339 2.3643,11.14092 4.05274,17.83398 0.84422,3.34653 1.76261,6.76403 2.73828,10.08008 0.97567,3.31605 2.00871,6.53002 3.08398,9.46875 1.07528,2.93873 2.1929,5.60184 3.33594,7.81641 1.14304,2.21456 2.31127,3.98143 3.49023,5.125 0.88706,0.86043 1.85146,1.5073 2.85938,1.98046 1.00791,0.47317 2.06049,0.77169 3.12305,0.9375 1.06255,0.16582 2.13455,0.19834 3.18554,0.13672 1.05099,-0.0616 2.07952,-0.21665 3.05274,-0.42578 1.94643,-0.41826 3.6721,-1.05322 4.91015,-1.58203 0.0569,-0.0243 0.0369,-0.0191 0.0918,-0.043 0.41948,-0.76897 0.94109,-1.4505 1.19141,-2.35742 6.09671,-28.45353 8.86831,-62.01229 14.54687,-90.57422 8.05711,-39.05415 6.49864,-72.91615 5.63867,-110.63281 l -0.29297,-20.85352 -24.59179,-0.17187 c -13.10157,-0.66822 -31.74346,-0.15641 -44.88086,-0.55078 z"
         id="path4782"
         transform="matrix(0.75000002,0,0,-0.75000002,-330.90628,181.21432)"
         inkscape:connector-curvature="0"
         sodipodi:nodetypes="cccccsscccccccccccccccc" />
    </g>
    <rect
       style="opacity:1;fill:#c7c6c6;fill-opacity:1;stroke:none;stroke-width:9.42841625;stroke-linecap:round;stroke-linejoin:round;stroke-miterlimit:4;stroke-dasharray:none;stroke-opacity:1;paint-order:stroke fill markers"
       id="rect14928"
       width="76.961205"
       height="8.69662"
       x="6.7553182"
       y="55.786869"
       ry="4.34831"
       rx="3.3093302" />
    <g
       id="g4784"
       transform="matrix(0.35277777,0,0,-0.35277777,116.73638,63.928383)" />
    <g
       id="g4788"
       transform="matrix(1.1609549,0,0,-1.1609549,68.432872,55.910853)">
      <path
         d="M 0.07614882,0.10679924 -2.2465,-6.167 C -13.4695,-6.19 -26.919063,-6.195 -38.141063,-6.168 L -40.038,0.09943689 Z"
         style="fill:#dbdddd;fill-opacity:1;fill-rule:evenodd;stroke:none"
         id="path4790"
         inkscape:connector-curvature="0"
         sodipodi:nodetypes="ccccc" />
    </g>
    <g
       id="g4792"
       transform="matrix(0.35277777,0,0,-0.35277777,100.13963,96.757386)" />
    <g
       id="g4796"
       transform="matrix(0.35277777,0,0,-0.35277777,101.12646,103.50205)" />
    <g
       id="g4800"
       transform="matrix(0.35277777,0,0,-0.35277777,106.36249,106.28771)" />
    <g
       id="g4804"
       transform="matrix(0.35277777,0,0,-0.35277777,107.78221,110.91654)" />
    <g
       id="g4808"
       transform="matrix(0.35277777,0,0,-0.35277777,110.34726,114.65554)" />
    <g
       id="g4812"
       transform="matrix(0.35277777,0,0,-0.35277777,106.0609,114.4736)" />
    <g
       id="g4816"
       transform="matrix(0.35277777,0,0,-0.35277777,107.14573,107.44875)" />
    <g
       id="g4820"
       transform="matrix(0.35277777,0,0,-0.35277777,102.42288,103.13756)" />
    <g
       id="g4824"
       transform="matrix(0.35277777,0,0,-0.35277777,109.4493,100.09791)" />
    <g
       id="g4880"
       transform="matrix(0.35277777,0,0,-0.35277777,109.97691,104.03395)" />
    <g
       id="g4884"
       transform="matrix(0.35277777,0,0,-0.35277777,107.80496,107.57344)" />
    <g
       id="g4888"
       transform="matrix(0.35277777,0,0,-0.35277777,106.67876,119.4387)" />
    <path
       style="opacity:1;fill:#c7c6c6;fill-opacity:1;stroke:none;stroke-width:10.82834625;stroke-linecap:round;stroke-linejoin:round;stroke-miterlimit:4;stroke-dasharray:none;stroke-opacity:1;paint-order:stroke fill markers"
       d="m 718.88867,1472.4766 c -0.36693,0.2457 -0.7032,0.5198 -1.07422,0.7617 -2.27751,1.4848 -4.63141,2.8968 -7.05468,4.2363 -2.42328,1.3395 -4.91539,2.6055 -7.47071,3.8008 -2.55532,1.1953 -5.17401,2.3188 -7.84765,3.3711 -5.3473,2.1046 -10.91795,3.9252 -16.65625,5.4648 -5.73831,1.5397 -11.64449,2.7992 -17.66407,3.7832 -6.01957,0.984 -12.15264,1.6932 -18.34375,2.1309 -6.1911,0.4376 -12.44046,0.6033 -18.69336,0.5039 -6.25289,-0.099 -12.50794,-0.4647 -18.71289,-1.0918 -6.20494,-0.6271 -12.35899,-1.5147 -18.40625,-2.6602 -6.04725,-1.1454 -11.98776,-2.5485 -17.76757,-4.2031 -5.77982,-1.6546 -11.40009,-3.5605 -16.80274,-5.7148 -5.40264,-2.1544 -10.58817,-4.5564 -15.50391,-7.2012 -2.45786,-1.3224 -4.8485,-2.7052 -7.16406,-4.1484 -0.6059,-0.3777 -1.16224,-0.7938 -1.75781,-1.1797 v 7.5332 c 0,14.1045 11.35446,25.459 25.45898,25.459 h 140 c 14.10453,0 25.46094,-11.3545 25.46094,-25.459 z"
       id="path15024"
       transform="matrix(0.26458333,0,0,0.26458333,3.580318,-133.07286)"
       inkscape:connector-curvature="0" />
    <path
       style="opacity:1;fill:#e2e2e2;fill-opacity:1;stroke:none;stroke-width:10.82834625;stroke-linecap:round;stroke-linejoin:round;stroke-miterlimit:4;stroke-dasharray:none;stroke-opacity:1;paint-order:stroke fill markers"
       d="m 553.42773,739.64844 c -14.10452,0 -25.45898,11.35446 -25.45898,25.45898 v 705.22268 c 0.59557,0.3859 1.15191,0.802 1.75781,1.1797 2.31556,1.4432 4.7062,2.826 7.16406,4.1484 4.91574,2.6448 10.10127,5.0468 15.50391,7.2012 5.40265,2.1543 11.02292,4.0602 16.80274,5.7148 5.77981,1.6546 11.72032,3.0577 17.76757,4.2031 6.04726,1.1455 12.20131,2.0331 18.40625,2.6602 6.20495,0.6271 12.46,0.9924 18.71289,1.0918 6.2529,0.099 12.50226,-0.066 18.69336,-0.5039 6.19111,-0.4377 12.32418,-1.1469 18.34375,-2.1309 6.01958,-0.984 11.92576,-2.2435 17.66407,-3.7832 5.7383,-1.5396 11.30895,-3.3602 16.65625,-5.4648 2.67364,-1.0523 5.29233,-2.1758 7.84765,-3.3711 2.55532,-1.1953 5.04743,-2.4613 7.47071,-3.8008 2.42327,-1.3395 4.77717,-2.7515 7.05468,-4.2363 0.37102,-0.2419 0.70729,-0.516 1.07422,-0.7617 V 765.10742 c 0,-14.10452 -11.35641,-25.45898 -25.46094,-25.45898 z"
       id="rect14939"
       transform="matrix(0.26458333,0,0,0.26458333,3.580318,-133.07286)"
       inkscape:connector-curvature="0" />
    <rect
       style="opacity:1;fill:#e7a96a;fill-opacity:1;stroke:none;stroke-width:2.28552628;stroke-linecap:round;stroke-linejoin:round;stroke-miterlimit:4;stroke-dasharray:none;stroke-opacity:1;paint-order:stroke fill markers"
       id="rect14941"
       width="61.118752"
       height="54.289192"
       x="137.71547"
       y="40.593941"
       rx="0"
       ry="5.7660823" />
    <path
       style="opacity:1;fill:#ededed;fill-opacity:1;stroke:none;stroke-width:2.86500001;stroke-linecap:round;stroke-linejoin:round;stroke-miterlimit:4;stroke-dasharray:none;stroke-opacity:1;paint-order:stroke fill markers"
       d="m 172.3654,108.08748 h 20.3944 v 44.45 h -20.3944 c -3.73182,0 -6.73614,-3.00431 -6.73614,-6.73613 v -30.97773 c 0,-3.73182 3.00432,-6.73614 6.73614,-6.73614 z"
       id="rect14943"
       inkscape:connector-curvature="0"
       sodipodi:nodetypes="sccssss" />
    <path
       style="opacity:1;fill:#ededed;fill-opacity:1;stroke:none;stroke-width:2.86500001;stroke-linecap:round;stroke-linejoin:round;stroke-miterlimit:4;stroke-dasharray:none;stroke-opacity:1;paint-order:stroke fill markers"
       d="m 173.25909,175.55625 h 20.22757 v 4.7625 h -20.22757 c -0.85561,0 -1.54442,-0.68881 -1.54442,-1.54442 v -1.67366 c 0,-0.85561 0.68881,-1.54442 1.54442,-1.54442 z"
       id="rect14946"
       inkscape:connector-curvature="0"
       sodipodi:nodetypes="sccssss" />
    <path
       style="opacity:1;fill:#ededed;fill-opacity:1;stroke:none;stroke-width:2.86500001;stroke-linecap:round;stroke-linejoin:round;stroke-miterlimit:4;stroke-dasharray:none;stroke-opacity:1;paint-order:stroke fill markers"
       d="m 173.25909,195.13541 h 20.22757 v 4.7625 h -20.22757 c -0.85561,0 -1.54442,-0.68881 -1.54442,-1.54442 v -1.67366 c 0,-0.85561 0.68881,-1.54442 1.54442,-1.54442 z"
       id="rect14946-8"
       inkscape:connector-curvature="0"
       sodipodi:nodetypes="sccssss" />
    <path
       style="opacity:1;fill:#ededed;fill-opacity:1;stroke:none;stroke-width:2.86500001;stroke-linecap:round;stroke-linejoin:round;stroke-miterlimit:4;stroke-dasharray:none;stroke-opacity:1;paint-order:stroke fill markers"
       d="m 173.25909,214.71457 h 20.22757 v 4.7625 h -20.22757 c -0.85561,0 -1.54442,-0.68881 -1.54442,-1.54442 v -1.67366 c 0,-0.85561 0.68881,-1.54442 1.54442,-1.54442 z"
       id="rect14946-9"
       inkscape:connector-curvature="0"
       sodipodi:nodetypes="sccssss" />
    <path
       style="opacity:1;fill:#c7c6c6;fill-opacity:1;stroke:none;stroke-width:10.82834625;stroke-linecap:round;stroke-linejoin:round;stroke-miterlimit:4;stroke-dasharray:none;stroke-opacity:1;paint-order:stroke fill markers"
       d="m 1178.8887,1470.4414 c -0.3669,0.2457 -0.7033,0.5199 -1.0742,0.7617 -2.2776,1.4848 -4.6315,2.8969 -7.0547,4.2364 -2.4233,1.3394 -4.9154,2.6074 -7.4707,3.8027 -2.5554,1.1953 -5.174,2.3188 -7.8477,3.3711 -5.3473,2.1046 -10.9179,3.9232 -16.6562,5.4629 -5.7384,1.5396 -11.6445,2.7992 -17.6641,3.7832 -6.0196,0.984 -12.1527,1.6932 -18.3438,2.1308 -6.1911,0.4377 -12.4404,0.6053 -18.6933,0.5059 -6.2529,-0.099 -12.508,-0.4647 -18.7129,-1.0918 -6.2049,-0.6271 -12.359,-1.5166 -18.4063,-2.6621 -6.0472,-1.1455 -11.9877,-2.5486 -17.7675,-4.2031 -5.7799,-1.6546 -11.3982,-3.5605 -16.8008,-5.7149 -5.4027,-2.1543 -10.5901,-4.5564 -15.50588,-7.2012 -2.45786,-1.3223 -4.8485,-2.7051 -7.16406,-4.1484 -0.60603,-0.3777 -1.16212,-0.7937 -1.75781,-1.1797 v 5.1895 c 0,14.1045 11.35641,25.4609 25.46095,25.4609 h 140 c 14.1045,0 25.459,-11.3564 25.459,-25.4609 z"
       id="path15027"
       transform="matrix(0.26458333,0,0,0.26458333,3.580318,-133.07286)"
       inkscape:connector-curvature="0" />
    <path
       style="opacity:1;fill:#e2e2e2;fill-opacity:1;stroke:none;stroke-width:10.82834625;stroke-linecap:round;stroke-linejoin:round;stroke-miterlimit:4;stroke-dasharray:none;stroke-opacity:1;paint-order:stroke fill markers"
       d="m 1013.4297,107.26953 c -14.10454,0 -25.46095,11.35446 -25.46095,25.45899 V 1468.2949 c 0.59569,0.386 1.15178,0.802 1.75781,1.1797 2.31556,1.4433 4.7062,2.8261 7.16406,4.1484 4.91578,2.6448 10.10318,5.0469 15.50588,7.2012 5.4026,2.1544 11.0209,4.0603 16.8008,5.7149 5.7798,1.6545 11.7203,3.0576 17.7675,4.2031 6.0473,1.1455 12.2014,2.035 18.4063,2.6621 6.2049,0.6271 12.46,0.9924 18.7129,1.0918 6.2529,0.099 12.5022,-0.068 18.6933,-0.5059 6.1911,-0.4376 12.3242,-1.1468 18.3438,-2.1308 6.0196,-0.984 11.9257,-2.2436 17.6641,-3.7832 5.7383,-1.5397 11.3089,-3.3583 16.6562,-5.4629 2.6737,-1.0523 5.2923,-2.1758 7.8477,-3.3711 2.5553,-1.1953 5.0474,-2.4633 7.4707,-3.8027 2.4232,-1.3395 4.7771,-2.7516 7.0547,-4.2364 0.3709,-0.2418 0.7073,-0.516 1.0742,-0.7617 V 132.72852 c 0,-14.10453 -11.3545,-25.45899 -25.459,-25.45899 z"
       id="rect14939-3"
       transform="matrix(0.26458333,0,0,0.26458333,3.580318,-133.07286)"
       inkscape:connector-curvature="0" />
    <rect
       style="opacity:1;fill:#b1d2e3;fill-opacity:1;stroke:none;stroke-width:2.28552628;stroke-linecap:round;stroke-linejoin:round;stroke-miterlimit:4;stroke-dasharray:none;stroke-opacity:1;paint-order:stroke fill markers"
       id="rect14941-4"
       width="61.118755"
       height="54.289192"
       x="259.42383"
       y="-126.72292"
       rx="0"
       ry="5.7660828" />
    <path
       style="opacity:1;fill:#ededed;fill-opacity:1;stroke:none;stroke-width:2.86500001;stroke-linecap:round;stroke-linejoin:round;stroke-miterlimit:4;stroke-dasharray:none;stroke-opacity:1;paint-order:stroke fill markers"
       d="m 294.07359,-59.229298 h 20.3944 v 44.44999 h -20.3944 c -3.73182,0 -6.73614,-3.00431 -6.73614,-6.73613 v -30.97773 c 0,-3.73181 3.00432,-6.73613 6.73614,-6.73613 z"
       id="rect14943-3"
       inkscape:connector-curvature="0"
       sodipodi:nodetypes="sccssss" />
    <path
       style="opacity:1;fill:#ededed;fill-opacity:1;stroke:none;stroke-width:2.86500001;stroke-linecap:round;stroke-linejoin:round;stroke-miterlimit:4;stroke-dasharray:none;stroke-opacity:1;paint-order:stroke fill markers"
       d="m 294.96728,8.2394615 h 20.22757 v 4.7625015 h -20.22757 c -0.85561,0 -1.54442,-0.68881 -1.54442,-1.544421 V 9.7838815 c 0,-0.85561 0.68881,-1.54442 1.54442,-1.54442 z"
       id="rect14946-93"
       inkscape:connector-curvature="0"
       sodipodi:nodetypes="sccssss" />
    <path
       style="opacity:1;fill:#ededed;fill-opacity:1;stroke:none;stroke-width:2.86500001;stroke-linecap:round;stroke-linejoin:round;stroke-miterlimit:4;stroke-dasharray:none;stroke-opacity:1;paint-order:stroke fill markers"
       d="m 294.96728,79.147778 h 20.22757 v 4.7625 h -20.22757 c -0.85561,0 -1.54442,-0.68881 -1.54442,-1.54442 v -1.67366 c 0,-0.85561 0.68881,-1.54442 1.54442,-1.54442 z"
       id="rect14946-8-7"
       inkscape:connector-curvature="0"
       sodipodi:nodetypes="sccssss" />
    <path
       style="opacity:1;fill:#ededed;fill-opacity:1;stroke:none;stroke-width:2.86500001;stroke-linecap:round;stroke-linejoin:round;stroke-miterlimit:4;stroke-dasharray:none;stroke-opacity:1;paint-order:stroke fill markers"
       d="m 294.96728,150.05614 h 20.22757 v 4.7625 h -20.22757 c -0.85561,0 -1.54442,-0.68881 -1.54442,-1.54442 v -1.67366 c 0,-0.85561 0.68881,-1.54442 1.54442,-1.54442 z"
       id="rect14946-9-4"
       inkscape:connector-curvature="0"
       sodipodi:nodetypes="sccssss" />
  </g>
</svg>
