<?xml version="1.0" encoding="UTF-8" standalone="no"?>
<svg
   sodipodi:docname="hero.2.svg"
   inkscape:version="1.3.2 (091e20ef0f, 2023-11-25, custom)"
   id="svg6"
   version="1.1"
   viewBox="0 0 791.41956 791.41956"
   height="791.41956mm"
   width="791.41956mm"
   xml:space="preserve"
   xmlns:inkscape="http://www.inkscape.org/namespaces/inkscape"
   xmlns:sodipodi="http://sodipodi.sourceforge.net/DTD/sodipodi-0.dtd"
   xmlns:xlink="http://www.w3.org/1999/xlink"
   xmlns="http://www.w3.org/2000/svg"
   xmlns:svg="http://www.w3.org/2000/svg"><defs
     id="defs2"><linearGradient
       id="linearGradient13"
       inkscape:collect="always"><stop
         style="stop-color:#cc6794;stop-opacity:1;"
         offset="0"
         id="stop13" /><stop
         style="stop-color:#ac80bf;stop-opacity:1;"
         offset="1"
         id="stop14" /></linearGradient><linearGradient
       id="linearGradient9"
       inkscape:collect="always"><stop
         style="stop-color:#cc6794;stop-opacity:1"
         offset="0"
         id="stop9" /><stop
         style="stop-color:#ac7fbf;stop-opacity:1;"
         offset="1"
         id="stop10" /></linearGradient><linearGradient
       id="linearGradient3"
       inkscape:collect="always"><stop
         style="stop-color:#ab80c0;stop-opacity:1;"
         offset="0"
         id="stop3" /><stop
         style="stop-color:#cc6794;stop-opacity:1"
         offset="1"
         id="stop4" /></linearGradient><linearGradient
       id="linearGradient1"
       inkscape:collect="always"><stop
         style="stop-color:#cc6794;stop-opacity:1;"
         offset="0"
         id="stop1" /><stop
         style="stop-color:#ab80c0;stop-opacity:1;"
         offset="1"
         id="stop2" /></linearGradient><linearGradient
       inkscape:collect="always"
       xlink:href="#linearGradient1"
       id="linearGradient2"
       x1="-2.2944102"
       y1="558.20703"
       x2="-2.2944102"
       y2="-249.66508"
       gradientUnits="userSpaceOnUse" /><linearGradient
       inkscape:collect="always"
       xlink:href="#linearGradient3"
       id="linearGradient4"
       x1="-2167.0869"
       y1="-275.14725"
       x2="-1947.3563"
       y2="-576.08716"
       gradientUnits="userSpaceOnUse" /><linearGradient
       inkscape:collect="always"
       xlink:href="#linearGradient9"
       id="linearGradient10"
       x1="-2314.0553"
       y1="-320.97176"
       x2="-1778.3739"
       y2="-320.97176"
       gradientUnits="userSpaceOnUse" /><linearGradient
       inkscape:collect="always"
       xlink:href="#linearGradient13"
       id="linearGradient14"
       x1="-8349.2021"
       y1="-1957.9717"
       x2="-7275.9189"
       y2="-526.677"
       gradientUnits="userSpaceOnUse" /></defs><sodipodi:namedview
     fit-margin-bottom="0"
     fit-margin-right="0"
     fit-margin-left="0"
     fit-margin-top="0"
     inkscape:window-maximized="0"
     inkscape:window-y="0"
     inkscape:window-x="0"
     inkscape:window-height="990"
     inkscape:window-width="1888"
     showgrid="false"
     inkscape:current-layer="g979"
     inkscape:document-units="mm"
     inkscape:cy="1577.1429"
     inkscape:cx="1217.1429"
     inkscape:zoom="0.175"
     inkscape:pageshadow="2"
     inkscape:pageopacity="0.0"
     borderopacity="1.0"
     bordercolor="#666666"
     pagecolor="#ffffff"
     id="base"
     inkscape:showpageshadow="2"
     inkscape:pagecheckerboard="0"
     inkscape:deskcolor="#d1d1d1" /><g
     transform="translate(378.28742,252.92927)"
     id="layer1"
     inkscape:groupmode="layer"
     inkscape:label="Layer 1"><g
       transform="translate(2037.7532,464.10583)"
       id="g979"><path
         sodipodi:nodetypes="ccczccazcscc"
         id="path841-7-2"
         d="m -2262.2895,-55.61901 c 0,0 175.7208,-61.66311 261.5625,-97.59643 59.6424,-26.45574 209.7011,-62.28276 189.0509,-137.39789 -30.4143,-122.98297 -356.085,-99.2663 -358.1146,-183.66924 -2.0295,-84.40295 224.8336,-86.92299 243.1965,-156.98304 3.7397,-37.39541 -57.6293,-30.97731 -57.6293,-30.97731 27.9127,-6.6785 81.2917,-8.82537 87.1365,20.42962 18.4025,92.11079 -244.812,104.21388 -228.5773,164.80254 16.2347,60.58866 403.7624,52.16484 399.0146,204.68151 -12.9553,82.54434 -122.5711,106.02844 -205.2116,143.94747 -81.1859,37.25156 -154.2481,66.01044 -220.575,152.171496 -24.9119,-7.53409 -109.8532,-79.408726 -109.8532,-79.408726 z"
         style="fill:url(#linearGradient4);fill-opacity:1;stroke:none;stroke-width:2.565;stroke-linecap:butt;stroke-linejoin:miter;stroke-miterlimit:4;stroke-dasharray:none;stroke-opacity:1" /><g
         id="g9"
         style="fill:url(#linearGradient10)"><path
           id="path988"
           style="fill:url(#linearGradient14);fill-opacity:1;stroke:none;stroke-width:9.69449;stroke-linecap:butt;stroke-linejoin:miter;stroke-miterlimit:4;stroke-dasharray:none;stroke-opacity:1"
           transform="matrix(0.26458333,0,0,0.26458333,-4.8082977,-4.8057041)"
           d="m -7872.4551,-2497.9941 c -94.6371,-0.1507 -193.2255,24.6248 -206.914,100.5625 -62.4295,346.3331 859.2246,347.6902 859.75,612.7187 0.1624,81.9732 -146.3339,133.0709 -347.5454,180.2879 l 199.5578,44.0881 c 181.4031,-50.5211 312.2656,-110.1282 314.7649,-214.0635 7.6706,-319.0033 -849.7653,-328.5284 -919.168,-593.3223 -14.1343,-141.3369 217.8106,-117.08 217.8106,-117.08 -33.0388,-7.905 -75.239,-13.123 -118.2559,-13.1914 z m 254.3109,999.3358 -208.1469,-49.9826 c -424.0344,90.8102 -911.6239,209.54 -901.414,537.5276 48.9653,311.97863 463.2595,400.73869 775.6016,544.05471 306.8443,140.79329 582.9856,249.48863 833.6699,575.13671 94.1552,-28.475296 415.1934,-300.1289 415.1934,-300.1289 0,0 -664.141,-233.05622 -988.5821,-368.86719 -225.4204,-99.9902 -792.5714,-235.39912 -714.5234,-519.29883 61.726,-249.5946 445.112,-339.4733 788.2015,-418.4415 z" /></g></g><circle
       r="376.78427"
       cy="142.7805"
       cx="17.422356"
       id="path975"
       style="fill:none;fill-opacity:1;stroke:url(#linearGradient2);stroke-width:37.851;stroke-linecap:round;stroke-linejoin:round;stroke-miterlimit:4;stroke-dasharray:none;stroke-opacity:1" /><circle
       r="55.494968"
       cy="192.46803"
       cx="17.422356"
       id="path998"
       style="fill:#bc73a9;fill-opacity:1;stroke:none;stroke-width:40.0521;stroke-linecap:round;stroke-linejoin:round;stroke-miterlimit:4;stroke-dasharray:none;stroke-opacity:1" /><path
       id="path2652"
       style="fill:#cc6794;fill-opacity:1;stroke:none;stroke-width:40.0521;stroke-linecap:round;stroke-linejoin:round;stroke-miterlimit:4;stroke-dasharray:none;stroke-opacity:1"
       d="m 17.422614,461.65251 a 55.494968,55.494968 0 0 0 -55.495321,55.49532 55.494968,55.494968 0 0 0 1.294495,11.69851 H 71.622923 a 55.494968,55.494968 0 0 0 1.294495,-11.69851 55.494968,55.494968 0 0 0 -55.494804,-55.49532 z" /><circle
       r="25.095476"
       cy="-27.438919"
       cx="17.422356"
       id="path998-3"
       style="fill:#b479b4;fill-opacity:1;stroke:none;stroke-width:18.112;stroke-linecap:round;stroke-linejoin:round;stroke-miterlimit:4;stroke-dasharray:none;stroke-opacity:1" /><circle
       r="19.856085"
       cy="-157.70541"
       cx="17.422356"
       id="path998-3-7"
       style="fill:#ac7fbf;fill-opacity:1;stroke:none;stroke-width:14.3306;stroke-linecap:round;stroke-linejoin:round;stroke-miterlimit:4;stroke-dasharray:none;stroke-opacity:1" /></g></svg>
