<?xml version="1.0" encoding="UTF-8" standalone="no"?>
<!-- Created with Inkscape (http://www.inkscape.org/) -->

<svg
   width="238.77007mm"
   height="302.29535mm"
   viewBox="0 0 238.77007 302.29535"
   version="1.1"
   id="svg1"
   xml:space="preserve"
   inkscape:version="1.4 (e7c3feb100, 2024-10-09)"
   sodipodi:docname="octopus_dna.svg"
   inkscape:export-filename="octopus_dna.png"
   inkscape:export-xdpi="96"
   inkscape:export-ydpi="96"
   xmlns:inkscape="http://www.inkscape.org/namespaces/inkscape"
   xmlns:sodipodi="http://sodipodi.sourceforge.net/DTD/sodipodi-0.dtd"
   xmlns:xlink="http://www.w3.org/1999/xlink"
   xmlns="http://www.w3.org/2000/svg"
   xmlns:svg="http://www.w3.org/2000/svg"><sodipodi:namedview
     id="namedview1"
     pagecolor="#ffffff"
     bordercolor="#000000"
     borderopacity="0.25"
     inkscape:showpageshadow="2"
     inkscape:pageopacity="0.0"
     inkscape:pagecheckerboard="0"
     inkscape:deskcolor="#d1d1d1"
     inkscape:document-units="mm"
     inkscape:zoom="0.41335578"
     inkscape:cx="358.04507"
     inkscape:cy="679.80179"
     inkscape:window-width="1920"
     inkscape:window-height="1020"
     inkscape:window-x="0"
     inkscape:window-y="0"
     inkscape:window-maximized="1"
     inkscape:current-layer="layer1" /><defs
     id="defs1"><linearGradient
       id="linearGradient42"><stop
         style="stop-color:#1089b4;stop-opacity:1;"
         offset="0"
         id="stop41" /><stop
         style="stop-color:#ef4572;stop-opacity:1;"
         offset="1"
         id="stop42" /></linearGradient><linearGradient
       id="linearGradient38"><stop
         style="stop-color:#00394a;stop-opacity:1;"
         offset="0"
         id="stop38" /><stop
         style="stop-color:#ef4572;stop-opacity:1;"
         offset="1"
         id="stop37" /></linearGradient><linearGradient
       id="linearGradient36"><stop
         style="stop-color:#00394a;stop-opacity:1;"
         offset="0"
         id="stop36" /><stop
         style="stop-color:#ef4572;stop-opacity:1;"
         offset="1"
         id="stop35" /></linearGradient><linearGradient
       id="linearGradient34"><stop
         style="stop-color:#00394a;stop-opacity:1;"
         offset="0"
         id="stop34" /><stop
         style="stop-color:#ef4572;stop-opacity:1;"
         offset="1"
         id="stop33" /></linearGradient><linearGradient
       id="linearGradient20"><stop
         style="stop-color:#1089b4;stop-opacity:1;"
         offset="0"
         id="stop20" /><stop
         style="stop-color:#d7a18b;stop-opacity:1;"
         offset="1"
         id="stop19" /></linearGradient><linearGradient
       id="linearGradient14-1"><stop
         style="stop-color:#ef4572;stop-opacity:1;"
         offset="0"
         id="stop14" /><stop
         style="stop-color:#00394a;stop-opacity:1;"
         offset="1"
         id="stop15" /></linearGradient><inkscape:path-effect
       effect="mirror_symmetry"
       start_point="103.74,94.07895"
       end_point="101.4394,396.53339"
       center_point="102.5897,245.30617"
       id="path-effect1"
       is_visible="true"
       lpeversion="1.2"
       lpesatellites="#path2"
       mode="free"
       discard_orig_path="false"
       fuse_paths="false"
       oposite_fuse="false"
       split_items="true"
       split_open="false"
       link_styles="false" /><inkscape:path-effect
       effect="mirror_symmetry"
       start_point="103.74,94.07895"
       end_point="101.4394,396.53339"
       center_point="102.5897,245.30617"
       id="path-effect1-8"
       is_visible="true"
       lpeversion="1.2"
       lpesatellites="#path2-0"
       mode="free"
       discard_orig_path="false"
       fuse_paths="false"
       oposite_fuse="false"
       split_items="true"
       split_open="false"
       link_styles="false" /><inkscape:path-effect
       effect="mirror_symmetry"
       start_point="103.74,94.07895"
       end_point="101.4394,396.53339"
       center_point="102.5897,245.30617"
       id="path-effect1-8-9"
       is_visible="true"
       lpeversion="1.2"
       lpesatellites="#path2-0-6"
       mode="free"
       discard_orig_path="false"
       fuse_paths="false"
       oposite_fuse="false"
       split_items="true"
       split_open="false"
       link_styles="false" /><linearGradient
       inkscape:collect="always"
       xlink:href="#linearGradient14-1"
       id="linearGradient15"
       x1="607.39056"
       y1="94.684456"
       x2="605.60175"
       y2="396.12238"
       gradientUnits="userSpaceOnUse" /><linearGradient
       inkscape:collect="always"
       xlink:href="#linearGradient20"
       id="linearGradient19"
       x1="19.67502"
       y1="86.120834"
       x2="19.67502"
       y2="-24.869192"
       gradientUnits="userSpaceOnUse" /><linearGradient
       inkscape:collect="always"
       xlink:href="#linearGradient34"
       id="linearGradient24"
       x1="19.674988"
       y1="247.96301"
       x2="19.674988"
       y2="136.97305"
       gradientUnits="userSpaceOnUse"
       gradientTransform="matrix(1.2820501,0,0,1.2820501,-5.5493338,-54.285627)" /><linearGradient
       inkscape:collect="always"
       xlink:href="#linearGradient36"
       id="linearGradient25"
       x1="19.674994"
       y1="-2.3434429"
       x2="19.674994"
       y2="-52.534393"
       gradientUnits="userSpaceOnUse"
       gradientTransform="matrix(1.49897,0,0,1.49897,-9.8172309,13.691197)" /><linearGradient
       inkscape:collect="always"
       xlink:href="#linearGradient38"
       id="linearGradient33"
       x1="19.674994"
       y1="-146.99927"
       x2="19.674994"
       y2="-186.71143"
       gradientUnits="userSpaceOnUse"
       gradientTransform="matrix(1.1393514,0,0,1.1393514,-2.7417374,23.251522)" /><linearGradient
       inkscape:collect="always"
       xlink:href="#linearGradient20"
       id="linearGradient43"
       gradientUnits="userSpaceOnUse"
       x1="19.67502"
       y1="86.120834"
       x2="19.67502"
       y2="-24.869192" /><linearGradient
       inkscape:collect="always"
       xlink:href="#linearGradient14-1"
       id="linearGradient44"
       gradientUnits="userSpaceOnUse"
       x1="607.39056"
       y1="94.684456"
       x2="605.60175"
       y2="396.12238" /></defs><g
     inkscape:label="Layer 1"
     inkscape:groupmode="layer"
     id="layer1"
     transform="translate(-486.41436,-94.231901)"><g
       transform="matrix(0.28916359,0,0,0.28916359,600.5933,152.95567)"
       id="layer1-5-7-4"
       inkscape:label="Layer 1"
       style="fill:url(#linearGradient19)"><g
         transform="translate(2037.7532,464.10583)"
         id="g979-7-0"
         style="fill:url(#linearGradient43);fill-opacity:1" /><circle
         r="71.147331"
         cy="192.46803"
         cx="19.674994"
         id="path998-6-5"
         style="fill:url(#linearGradient24);stroke:none;stroke-width:51.3488;stroke-linecap:round;stroke-linejoin:round;stroke-miterlimit:4;stroke-dasharray:none;stroke-opacity:1" /><circle
         r="37.617367"
         cy="-27.438919"
         cx="19.674994"
         id="path998-3-4-9"
         style="fill:url(#linearGradient25);stroke:none;stroke-width:27.1493;stroke-linecap:round;stroke-linejoin:round;stroke-miterlimit:4;stroke-dasharray:none;stroke-opacity:1" /><circle
         r="22.623058"
         cy="-166.85535"
         cx="19.674994"
         id="path998-3-7-3-4"
         style="fill:url(#linearGradient33);stroke:none;stroke-width:16.3276;stroke-linecap:round;stroke-linejoin:round;stroke-miterlimit:4;stroke-dasharray:none;stroke-opacity:1"
         inkscape:export-filename="path998-3-7.png"
         inkscape:export-xdpi="3.2094231"
         inkscape:export-ydpi="3.2094231" /></g><g
       id="g7"
       style="fill:url(#linearGradient15);fill-opacity:1"><path
         style="fill:url(#linearGradient44);fill-opacity:1;stroke:none;stroke-width:0.7;stroke-linecap:round;stroke-linejoin:round;stroke-miterlimit:1.5;stroke-dasharray:none;stroke-opacity:1;paint-order:markers fill stroke"
         d="M 50.732408,202.75446 C 59.527118,167.19226 157.93256,174.05026 158.51945,149.644 159.1063,125.23774 93.505752,124.50904 88.195872,104.25022 87.114492,93.436828 102.7435,95.292708 102.7435,95.292708 c -8.071335,-1.93118 -21.603259,-1.89533 -23.080038,5.907512 -5.050955,26.68768 70.790718,30.13486 66.096238,47.65489 -4.69449,17.52004 -114.636721,15.08417 -113.263831,59.18644 3.763718,23.60605 57.078402,40.95888 56.556124,48.79304 -19.702016,-17.33105 -43.551951,-14.17694 -54.967401,-22.243 -26.7702061,-18.91563 0.628732,-41.96772 -4.640625,-60.80819 -2.199164,-7.86306 -14.952672,-10.74361 -15.602101,-18.88254 -0.558298,-6.99684 8.541439,-11.4655 10.668889,-18.15441 1.306946,-4.10916 3.068017,-9.05683 1.092695,-12.88977 -1.774752,-3.44376 -9.088466,-7.21841 -10.001347,-5.9208 -1.023114,1.4543 4.291927,7.47621 3.691866,12.02241 -1.137466,8.61772 -15.1157719,11.89855 -16.0684379,20.53865 -1.5790172,14.32073 12.9161879,13.53227 15.1438059,27.67235 1.945895,12.3518 -14.7521145,29.50759 -5.807645,49.7014 11.52336,26.01613 42.927417,20.80211 54.504397,27.81629 3.365185,2.03888 7.743985,8.90865 7.743985,8.90865 0,0 -5.627125,-2.41154 -8.533696,-2.84156 -15.650241,-2.31541 -34.857435,4.13259 -47.71583,-5.40052 C 7.1029422,247.85898 1.8488853,232.33001 1.6002155,217.06923 1.0129384,201.80529 14.726968,184.05582 6.0808189,171.46309 c -2.7505676,-4.00608 -9.400473,-5.28768 -14.0520858,-3.8817 -3.9926801,1.20682 -7.5393371,5.33603 -8.1965961,9.455 -1.216945,7.62647 6.7100467,10.9142 8.5963711,8.87931 0.7013211,-0.75656 0.7355155,-2.18687 -0.1895531,-3.65115 -2.442644,-3.86642 0.2149391,-7.55057 2.4722924,-6.74836 9.3838361,3.33477 -3.4821001,28.79942 -4.3757011,44.42775 -0.7141933,12.49064 2.3036684,25.3037 9.31114656,35.22191 6.26222524,8.8634 16.56766114,15.00153 26.88805014,18.35784 14.827562,4.8221 48.446943,-1.26523 46.755128,1.39334 -6.361553,-2.02413 -30.264935,8.03074 -37.195995,20.34685 -8.481511,18.33189 6.617116,30.9421 14.796307,44.12104 2.330516,3.75511 4.485542,9.00681 2.595844,13.00195 -2.126006,4.49474 -8.207999,7.46241 -13.160596,7.02154 -19.23526,-1.71228 -10.228779,-23.63016 -14.260905,-23.30656 -3.701837,0.2971 -12.241569,18.45064 -2.568814,26.71055 9.891766,8.44693 32.353295,8.90602 38.95485,-2.30188 5.937451,-10.08041 2.373494,-19.70749 -2.001244,-27.96632 -4.83755,-9.13255 -17.316504,-19.63317 -13.532217,-29.89658 4.134965,-11.21449 32.923257,-19.71078 32.453588,-15.24893 h 2e-6 c 1.961514,6.13369 -12.937414,8.99779 -14.92563,16.02036 -3.63184,12.82802 7.811873,25.88126 7.87721,39.21333 0.03761,7.67471 -4.042162,14.94679 -4.31311,22.61681 -0.232291,6.57572 -1.727615,14.4153 2.320313,19.60263 6.740556,8.63787 20.034291,11.5893 31.109986,11.67355 11.07569,0.0842 24.41279,-2.66462 31.28396,-11.19895 4.12637,-5.12516 2.75048,-12.98658 2.61824,-19.56507 -0.15424,-7.67325 -4.29553,-15.01197 -3.96856,-22.6798 0.58924,-13.81851 12.42137,-25.79648 8.48866,-39.05665 -2.14943,-7.24738 -16.75065,-10.17473 -14.69605,-16.27787 v 0 c -0.40174,-4.46848 28.25397,4.46475 32.21787,15.74085 3.62772,10.31978 -9.00953,20.62936 -13.98544,29.68726 -4.49987,8.19133 -8.20986,17.76308 -2.42644,27.93265 6.4303,11.30702 28.89621,11.18967 38.91533,2.89419 9.79728,-8.11181 1.53469,-26.39316 -2.1622,-26.74654 -4.02673,-0.3849 4.64529,21.66746 -14.61379,23.08693 -4.95873,0.36548 -10.99488,-2.69437 -13.05226,-7.22093 -1.82871,-4.02342 0.40596,-9.24173 2.79333,-12.96095 8.37872,-13.053 23.66742,-25.43207 15.46576,-43.89086 -6.74291,-12.42012 -30.49057,-22.83744 -36.88218,-20.91032 -1.65117,-2.684 31.87172,3.91405 46.77092,-0.68194 10.37025,-3.19893 20.76787,-9.17958 27.1642,-17.94669 7.15754,-9.81047 10.36996,-22.57614 9.84586,-35.0762 -0.65576,-15.64011 -13.13284,-41.29753 -3.69936,-44.48917 2.2693,-0.76778 4.87053,2.95637 2.36935,6.78519 -0.94724,1.45004 -0.9348,2.8807 -0.24507,3.64784 1.85515,2.06335 9.83124,-1.10341 8.73045,-8.74751 -0.59453,-4.12849 -4.07796,-8.31118 -8.05182,-9.57859 -4.62969,-1.47658 -11.29832,-0.29629 -14.10951,3.66749 -8.83671,12.45974 4.60573,30.41578 3.78632,45.66902 -0.48078,15.25523 -5.97046,30.70248 -17.55596,39.02177 -13.00192,9.33641 -32.10881,2.59697 -47.79246,4.67404 -2.91278,0.38576 -8.57593,2.71142 -8.57593,2.71142 0,0 4.48279,-6.80236 7.8786,-8.78982 11.68234,-6.83726 43.00345,-1.14612 54.92123,-26.98395 9.25063,-20.05541 -7.18448,-37.46322 -5.05091,-49.78399 2.44246,-14.10456 16.92399,-13.09569 15.563,-27.43878 -0.82112,-8.6536 -14.7479,-12.14668 -15.75414,-20.78071 -0.53084,-4.5548 4.8752,-10.49516 3.87432,-11.96486 -0.89303,-1.31134 -8.26332,2.35161 -10.09025,5.76798 -2.0334,3.80244 -0.3478,8.77633 0.89649,12.9049 2.02545,6.7205 11.05615,11.32706 10.39149,18.3146 -0.77317,8.12811 -13.56902,10.81432 -15.88754,18.64302 -5.55535,18.75813 21.48975,42.22435 -5.5651,60.73056 -11.53683,7.89147 -35.33603,4.37492 -55.2994,21.40426 -0.40305,-7.8412 53.16919,-24.3488 57.29157,-47.89486 2.04361,-44.07628 -107.922704,-43.34534 -112.350137,-60.93476 -4.427422,-17.58942 71.457917,-19.8825 66.813517,-46.64392 -1.35791,-7.824406 -14.88773,-8.066099 -22.9875,-6.257924 0,0 15.65543,-1.617917 14.40968,9.177774 -5.61744,20.1757 -71.221485,19.9064 -71.005971,44.31877 0.215555,24.41236 96.597761,18.9877 104.850481,54.67957 5.37673,20.9572 -51.53265,39.67984 -51.53265,53.63432 0,-13.95432 -56.401962,-33.49071 -50.707052,-54.3637 z"
         id="path1-9-5"
         sodipodi:nodetypes="czccazccaaaaasaaaaacsaaaasssssaacasaasassaccaaaaassssssssssssssccssssssssscsscsssssssssssccssccsccc"
         transform="translate(502.70859)" /></g></g></svg>
