<?xml version="1.0" encoding="UTF-8" standalone="no"?>
<!-- Created with Inkscape (http://www.inkscape.org/) -->

<svg
   xmlns:dc="http://purl.org/dc/elements/1.1/"
   xmlns:cc="http://creativecommons.org/ns#"
   xmlns:rdf="http://www.w3.org/1999/02/22-rdf-syntax-ns#"
   xmlns:svg="http://www.w3.org/2000/svg"
   xmlns="http://www.w3.org/2000/svg"
   xmlns:sodipodi="http://sodipodi.sourceforge.net/DTD/sodipodi-0.dtd"
   xmlns:inkscape="http://www.inkscape.org/namespaces/inkscape"
   width="205.11737mm"
   height="86.360352mm"
   viewBox="0 0 205.11737 86.360352"
   version="1.1"
   id="svg8"
   inkscape:version="0.92.1 r"
   sodipodi:docname="bullshark.svg"
   inkscape:export-filename="/run/media/pdimens/OS/Users/pdime/Documents/MEGA/Graphics/bullshark.png"
   inkscape:export-xdpi="200"
   inkscape:export-ydpi="200">
  <defs
     id="defs2" />
  <sodipodi:namedview
     id="base"
     pagecolor="#ffffff"
     bordercolor="#666666"
     borderopacity="1.0"
     inkscape:pageopacity="0.0"
     inkscape:pageshadow="2"
     inkscape:zoom="1.5875"
     inkscape:cx="52.950174"
     inkscape:cy="178.26999"
     inkscape:document-units="mm"
     inkscape:current-layer="layer1"
     showgrid="false"
     inkscape:window-width="1920"
     inkscape:window-height="1016"
     inkscape:window-x="0"
     inkscape:window-y="30"
     inkscape:window-maximized="1"
     fit-margin-top="0"
     fit-margin-left="0"
     fit-margin-right="0"
     fit-margin-bottom="0" />
  <metadata
     id="metadata5">
    <rdf:RDF>
      <cc:Work
         rdf:about="">
        <dc:format>image/svg+xml</dc:format>
        <dc:type
           rdf:resource="http://purl.org/dc/dcmitype/StillImage" />
        <dc:title></dc:title>
      </cc:Work>
    </rdf:RDF>
  </metadata>
  <g
     inkscape:label="Layer 1"
     inkscape:groupmode="layer"
     id="layer1"
     transform="translate(-2.7083684,-25.850654)">
    <path
       style="fill:#aab2b4;fill-opacity:1;stroke:#000000;stroke-width:0;stroke-linecap:butt;stroke-linejoin:miter;stroke-miterlimit:4;stroke-dasharray:none;stroke-opacity:1"
       d="m 125.63407,68.810921 c -0.34361,0.318723 -0.36007,0.333251 -0.75588,0.687565 -0.80804,0.72332 -1.70252,1.489359 -2.59357,2.171751 -0.89105,0.682392 -1.77875,1.28106 -2.57225,1.668457 -0.56417,0.27543 -1.30499,0.520505 -2.09842,0.733316 -0.79344,0.212812 -1.63974,0.392987 -2.41557,0.539022 -0.4537,0.0854 -0.44403,0.06956 -0.82483,0.130993 0.89198,0.655917 1.82067,1.365021 2.58793,1.80572 1.47426,0.846782 3.96067,2.792295 4.52715,2.349125 0,0 0.15401,-1.819837 0.40113,-2.693222 0.54288,-1.918656 1.39219,-3.752132 2.34975,-5.501142 0.32066,-0.585693 0.87433,-1.257662 1.39456,-1.891585 z"
       id="path8048"
       inkscape:connector-curvature="0"
       sodipodi:nodetypes="cccccccccscc" />
    <path
       style="fill:#aab2b4;fill-opacity:1;stroke:#000000;stroke-width:0;stroke-linecap:butt;stroke-linejoin:miter;stroke-miterlimit:4;stroke-dasharray:none;stroke-opacity:1"
       d="m 153.12116,63.038203 c -0.29332,0.06013 -0.34586,0.02201 -0.61818,0.136812 -0.27232,0.11479 -0.53566,0.253662 -0.79285,0.408024 -0.51442,0.308724 -1.00441,0.681471 -1.4936,1.057986 -0.85083,1.246774 -1.70898,1.470112 -3.11253,1.820761 -0.44382,0.114922 -0.86123,0.152328 -1.27484,0.147289 -0.41361,-0.005 -0.82324,-0.05243 -1.25165,-0.105295 -0.42842,-0.05286 -0.8756,-0.111213 -1.36385,-0.13977 -0.10317,-0.0061 -0.23329,0.01178 -0.34034,0.0087 0.56803,0.302921 1.13516,0.610142 1.7092,0.891265 2.20599,1.080343 5.3987,3.561245 6.5328,3.409618 0.42547,-0.05689 0.27268,-0.558533 0.19542,-1.017812 -0.0867,-0.514662 -0.46477,-1.157723 -0.71125,-1.617748 -0.21861,-0.408018 -0.52881,-0.826554 -0.51583,-1.289261 0.0178,-0.632125 0.36593,-1.261501 0.80227,-1.719224 0.84894,-0.890575 3.21836,-1.892458 3.21836,-1.892458 0,0 -0.50507,-0.218697 -0.98313,-0.09895 z"
       id="path8053"
       inkscape:connector-curvature="0"
       sodipodi:nodetypes="cscccsccccccccccc" />
    <path
       style="fill:#eeefef;fill-opacity:1;stroke:#000000;stroke-width:0;stroke-linecap:butt;stroke-linejoin:miter;stroke-miterlimit:4;stroke-dasharray:none;stroke-opacity:1"
       d="m 206.85692,34.696572 c -5.07694,1.020318 -30.93387,15.975102 -44.87595,20.101698 -20.47783,6.061061 -42.53618,2.768732 -63.814379,3.983739 -31.788173,1.81514 -70.454604,-11.009332 -94.9204773,4.719325 -0.2320451,0.149178 -0.429746,0.65565 -0.2579303,0.871472 0.5148869,0.646752 1.3730253,1.224468 2.0576252,1.687858 1.8610109,1.259669 3.8034304,2.519866 5.9599374,3.152014 1.094489,0.320835 2.218883,0.21103 3.409617,0.286434 0.182096,0.01152 -0.175074,0.60319 0.02883,0.745228 1.077713,0.750716 1.930388,1.143562 2.950823,1.604526 1.621843,0.732642 3.292529,1.382536 5.014143,1.833296 2.527523,0.661761 5.142003,0.950466 7.736198,1.261058 4.945739,0.592118 9.934251,0.749476 14.899527,1.145731 7.393998,0.590073 14.767618,1.472188 22.176298,1.833921 3.797092,0.1854 7.60415,0.286071 11.404042,0.171735 3.810258,-0.114649 7.632117,-0.30389 11.403417,-0.859299 7.015239,-1.033152 14.127669,-2.972138 20.772969,-4.584179 0.53772,-0.130442 2.01452,0.945633 3.57194,2.090896 0.3808,-0.06144 1.18154,1.129496 1.63524,1.044097 0.77584,-0.146034 1.79634,0.214461 2.69921,0.230869 0.57851,0.01052 1.16957,0.190441 1.73374,-0.08499 0.7935,-0.387396 1.55607,-2.398003 2.36965,-3.572919 0.66969,-0.967138 1.25876,-2.137277 2.0668,-2.860598 0.39581,-0.354313 0.41227,-0.368841 0.75588,-0.687564 0.69539,-0.847369 1.32809,-1.620911 1.241,-1.976198 -0.22722,-0.92696 -7.79323,-0.65936 -7.79323,-0.65936 0,0 4.31504,-0.553797 6.47577,-0.802263 2.9674,-0.341229 5.92432,-0.889168 8.91076,-0.945166 1.54099,-0.02888 3.11928,-0.06454 4.613,0.315263 1.33551,0.339573 2.56734,0.976524 3.79195,1.629596 0.10705,0.0029 0.23717,-0.01479 0.34034,-0.0087 0.48825,0.02856 0.90847,0.123388 1.34865,0.246137 0.65789,0.183461 1.27208,0.498289 1.91518,0.728295 0.73371,0.26241 1.50554,1.062472 2.21637,0.743245 0.78038,-0.35046 0.49122,-1.677943 1.00659,-2.360742 0.67978,-0.90063 1.62231,-1.623964 2.63062,-2.130474 0.54517,-0.273857 1.34292,-0.367076 1.77322,-0.453342 -0.5123,-0.20433 -1.91435,-0.452461 -3.70537,-0.915417 2.54049,-0.323376 5.4499,-0.04926 7.9938,-0.515829 0.16163,-0.02965 0.62391,-0.168396 0.88813,-0.114702 0.56368,0.114566 0.45503,0.301228 0.54466,0.515833 0.3284,0.786041 1.0952,1.311029 1.71923,1.890956 1.7242,1.602379 3.64703,2.98135 5.55817,4.355412 0.0141,0.01016 0.0285,0.01993 0.0426,0.03007 0.14347,0.01428 0.28261,0.04492 0.42683,0.05265 0.48787,0.02615 0.97782,0.0114 1.45785,-0.06832 0.48004,-0.0797 0.95001,-0.224271 1.39707,-0.457539 0.44705,-0.23327 0.8715,-0.555118 1.26043,-0.989666 0.20952,-0.234097 0.33913,-0.514889 0.41241,-0.831722 0.0733,-0.316833 0.0901,-0.670056 0.0733,-1.047957 -0.0336,-0.755802 -0.20126,-1.61193 -0.3184,-2.482 -0.0586,-0.435038 -0.10445,-0.873202 -0.1147,-1.304305 -0.0103,-0.431102 0.0148,-0.854931 0.0991,-1.260429 0.0842,-0.4055 0.22771,-0.793146 0.45252,-1.151373 0.22483,-0.358226 0.5311,-0.687218 0.94266,-0.976505 7.34613,-5.163611 16.50058,-11.467016 23.81843,-16.479606 5.60533,-3.839541 7.9917,-5.45783 9.80391,-6.690122 z"
       id="path8058"
       inkscape:connector-curvature="0"
       sodipodi:nodetypes="csscccscccccscsscccacaccccsccccaaaaaccccccccccccscsccscscc" />
    <path
       style="fill:#cad4d7;fill-opacity:1;stroke:#000000;stroke-width:0;stroke-linecap:butt;stroke-linejoin:miter;stroke-miterlimit:4;stroke-dasharray:none;stroke-opacity:1"
       d="m 206.85692,34.696572 c -1.81221,1.232292 -4.19858,2.850581 -9.80391,6.690121 -7.31785,5.012591 -15.84681,9.8551 -23.3636,15.367808 -1.78808,1.311356 -3.49827,3.71177 -5.15686,4.202247 -3.07,0.910305 -9.3167,0.504893 -9.58652,0.616959 0.33788,0.07682 0.77679,0.186244 0.77679,0.186244 -0.50283,1.387433 11.09206,9.309831 12.99593,10.289481 1.55662,0.80096 3.20346,1.459502 4.90008,1.890959 1.28816,0.327577 3.53028,1.11372 3.95365,0.515829 0.12053,-0.802776 -1.12837,-2.277855 -1.74743,-3.32375 -0.97817,-1.431933 -2.35633,-2.546642 -3.20906,-4.040147 -0.83308,-1.459101 -1.62852,-3.03496 -1.80571,-4.705773 -0.0923,-0.870044 -0.24155,-2.004669 0.40552,-2.593565 7.83277,-7.128599 15.69981,-11.716664 22.37123,-17.437938 1.01291,-0.868648 2.37727,2.076863 3.40334,1.534329 0.7985,-0.422203 0.29458,-2.869737 1.48294,-4.012567 1.91085,-1.837628 5.81746,-3.730352 5.30684,-5.101891 -0.0493,-0.132291 -0.21168,-0.187448 -0.47634,-0.173616 -0.11023,0.0057 -0.3019,0.06613 -0.44689,0.09527 z"
       id="path7993"
       inkscape:connector-curvature="0"
       sodipodi:nodetypes="csaccccccccccsccccc" />
    <path
       style="fill:#cad4d7;fill-opacity:1;stroke:#000000;stroke-width:0;stroke-linecap:butt;stroke-linejoin:miter;stroke-miterlimit:4;stroke-dasharray:none;stroke-opacity:1"
       d="m 88.318819,25.859146 c -1.22243,-0.160389 -3.915921,1.992542 -5.570714,2.975891 -2.521994,1.498682 -4.78313,3.406408 -7.050511,5.267986 -1.846042,1.515644 -3.590197,3.152963 -5.324395,4.795401 -2.04061,1.932635 -3.600908,4.661931 -5.974978,5.949279 -1.050774,0.569791 -11.28039,1.245228 -17.577079,2.302746 -4.766763,0.800572 -10.583289,1.54469 -14.287801,2.473855 -5.482591,1.375139 -13.547883,3.636051 -19.399092,6.764706 -3.7992365,2.031458 -6.4170593,3.598499 -9.9274901,6.845562 -0.2909271,0.2691 -0.4445064,1.251282 -0.051908,1.221567 3.3449123,-0.253172 6.1292592,-0.24513 9.1884172,-0.09276 2.200628,0.109608 4.449396,0.469647 6.570408,0.723291 2.215706,0.264968 4.239981,0.157413 6.757185,0.07019 4.515498,-0.156451 7.671783,-0.821487 10.804225,0.468824 2.860099,1.248154 5.894873,3.136861 7.578878,4.253245 0.685678,0.454565 0.29677,1.62284 0.475088,2.4281 1.255041,5.667612 2.57026,11.328818 4.18305,16.905185 0.736515,2.546568 2.562973,10.744369 5.128841,15.568286 1.471641,2.76673 3.291462,7.46347 5.759997,7.43033 1.473336,-0.0197 0.531697,-2.60155 0.745229,-4.69887 -0.757555,-8.910871 -0.04526,-5.34619 -0.41555,-12.446363 0.255661,-2.132074 2.772186,-7.966012 3.942996,-10.005095 0.806839,-1.780484 1.680831,-3.534025 2.373572,-5.361372 0.245187,-0.646775 0.69638,-1.28828 0.630528,-1.976827 -0.03418,-0.357379 -0.283463,-0.671497 -0.51583,-0.945164 -0.462469,-0.54467 -1.054574,-0.992095 -1.690393,-1.318093 -0.664265,-0.340583 -1.414223,-0.499861 -2.149186,-0.63053 -0.56545,-0.100534 -1.152489,-0.02169 -1.719227,-0.114699 -0.662948,-0.108806 -1.348251,-0.213093 -1.947994,-0.515829 -0.940075,-0.474532 -1.934926,-1.066593 -2.464452,-1.976827 -0.393985,-0.677247 -0.948434,-1.839858 -0.372298,-2.320921 0.866457,-0.72347 3.99249,0.181821 5.988139,0.286433 3.687511,0.193298 7.367495,0.600732 11.059948,0.630528 3.746889,0.03023 7.291067,-0.3714 11.231681,-0.458791 3.475156,-0.07706 5.166653,-0.326073 10.48708,-0.629903 4.374151,-0.249799 8.680437,-1.032111 10.228847,-1.432792 -2.86407,-0.630669 -13.674716,-0.678246 -21.088229,-1.489829 -1.360297,-0.148916 -3.65305,-0.207141 -3.868413,-1.375126 0,0 3.727205,-1.368035 8.110378,-1.8615 6.768667,-0.762034 13.195094,-1.079375 19.788944,-1.66219 5.13322,-0.453715 10.25162,-1.085301 15.39342,-1.428403 7.29645,-0.486881 14.62693,-0.357517 21.91996,-0.893146 4.866,-0.357376 9.88424,-0.138324 14.55542,-1.547489 10.45342,-3.153502 19.24568,-10.334215 29.11651,-15.00169 3.99412,-1.888646 16.36489,-8.670408 11.64847,-4.143563 -1.81966,1.746533 6.71635,-3.458789 7.17399,-4.015701 0.55337,-0.673397 -9.1203,1.36282 -13.54884,2.602339 -5.04192,1.411199 -9.82943,3.45362 -14.67765,5.430319 -4.35511,1.775657 -8.81694,3.384516 -12.89324,5.730537 -2.781,1.600541 -6.03673,3.122436 -7.82457,5.389577 -1.19196,-1.190109 -6.18573,-0.71446 -10.18624,-0.963341 1.07854,-0.297168 1.66025,-0.300823 2.23568,-0.284553 -0.20532,-0.09039 -0.4093,-0.188484 -0.61172,-0.277657 -0.94355,-0.415675 -1.97231,-0.749715 -2.93452,-1.174564 -0.48111,-0.212426 -0.94547,-0.44757 -1.37388,-0.727049 -0.42842,-0.279483 -0.82142,-0.60309 -1.15889,-0.9928 -0.28365,-0.327539 -0.53479,-0.797091 -0.75213,-1.317467 -0.21734,-0.52038 -0.40046,-1.09138 -0.54842,-1.62145 -0.10143,-0.363335 -0.0865,-0.375271 -0.15419,-0.670641 -0.12648,-0.119499 -0.23619,-0.286305 -0.38107,-0.356632 -0.26814,-0.11567 -0.59089,0.0624 -0.85742,0.181764 -1.72307,0.771678 -3.17936,2.156152 -4.86936,2.997829 -1.11523,0.555426 -2.05624,1.302441 -3.30181,1.274222 -3.88025,-0.08791 -11.34268,-0.967443 -17.02176,-1.571936 -4.61568,-0.491302 -9.2118,-1.180131 -13.83903,-1.546861 -3.955008,-0.313455 -7.331128,-0.406324 -11.889168,-0.557824 2.10423,-0.833494 5.420916,-1.568173 5.420916,-1.568173 0,0 -5.735824,-0.837586 -7.44663,-2.726442 -0.884325,-0.976361 -0.796394,-1.582426 -1.053595,-3.808869 -0.468766,-4.057788 1.261756,-11.508375 0.648077,-12.237641 -0.107282,-0.12749 -0.251574,-0.197709 -0.426201,-0.220622 z"
       id="path7995"
       inkscape:connector-curvature="0"
       sodipodi:nodetypes="cssscssssccssccssscccccscscccccscsccscssssssscsccccccccccccccccssccssccc" />
    <circle
       style="opacity:1;fill:#ffffff;fill-opacity:1;stroke:#dedede;stroke-width:0;stroke-linecap:round;stroke-linejoin:round;stroke-miterlimit:4;stroke-dasharray:none;stroke-opacity:1;paint-order:markers stroke fill"
       id="path7997"
       cx="13.928277"
       cy="64.399063"
       r="1.2893511"
       inkscape:transform-center-y="0.061398465" />
    <path
       style="fill:#c7c8ca;fill-opacity:1;stroke:#000000;stroke-width:0;stroke-linecap:butt;stroke-linejoin:miter;stroke-miterlimit:4;stroke-dasharray:none;stroke-opacity:1"
       d="m 10.962363,69.187229 c 7.603483,-0.334241 7.806012,-0.459989 11.848108,-0.490333 0.555655,-0.0041 2.047881,0.518547 1.518569,0.687655 -0.647198,0.206771 -1.623417,-0.05253 -2.435441,-0.05731 -2.435567,-0.01432 -4.871419,0.02733 -7.306323,0.08595 -1.279977,0.11096 -2.429877,0.0498 -3.624913,-0.225962 z"
       id="path7999"
       inkscape:connector-curvature="0"
       sodipodi:nodetypes="cssacc" />
    <path
       style="fill:none;stroke:#bac3c6;stroke-width:0.60764784;stroke-linecap:butt;stroke-linejoin:miter;stroke-miterlimit:4;stroke-dasharray:none;stroke-opacity:1"
       d="m 40.728376,59.144602 c -3.066043,3.484754 -2.606813,6.361702 -1.782898,8.995527"
       id="path8001"
       inkscape:connector-curvature="0"
       sodipodi:nodetypes="cc" />
    <path
       style="fill:none;stroke:#bac3c6;stroke-width:0.60764784;stroke-linecap:butt;stroke-linejoin:miter;stroke-miterlimit:4;stroke-dasharray:none;stroke-opacity:1"
       d="m 42.999211,59.33573 c -3.066043,3.484753 -2.768895,6.037538 -1.94498,8.671363"
       id="path8001-3"
       inkscape:connector-curvature="0"
       sodipodi:nodetypes="cc" />
    <path
       style="fill:none;stroke:#bac3c6;stroke-width:0.60764784;stroke-linecap:butt;stroke-linejoin:miter;stroke-miterlimit:4;stroke-dasharray:none;stroke-opacity:1"
       d="m 44.782108,59.821973 c -3.066044,3.484755 -2.404212,5.510773 -1.580297,8.144599"
       id="path8001-6"
       inkscape:connector-curvature="0"
       sodipodi:nodetypes="cc" />
    <path
       style="fill:none;stroke:#bac3c6;stroke-width:0.60764784;stroke-linecap:butt;stroke-linejoin:miter;stroke-miterlimit:4;stroke-dasharray:none;stroke-opacity:1"
       d="m 46.605525,60.105616 c -1.967944,2.935705 -2.039969,4.862667 -1.215614,7.455753"
       id="path8001-7"
       inkscape:connector-curvature="0"
       sodipodi:nodetypes="cc" />
    <path
       style="fill:none;stroke:#bac3c6;stroke-width:0.60764784;stroke-linecap:butt;stroke-linejoin:miter;stroke-miterlimit:4;stroke-dasharray:none;stroke-opacity:1"
       d="m 48.712585,61.081702 c -1.85043,2.603593 -1.553282,3.808382 -1.296653,6.196024"
       id="path8001-5"
       inkscape:connector-curvature="0"
       sodipodi:nodetypes="cc" />
    <path
       style="fill:#9fa4a5;fill-opacity:1;stroke:#000000;stroke-width:0;stroke-linecap:butt;stroke-linejoin:miter;stroke-miterlimit:4;stroke-dasharray:none;stroke-opacity:1"
       d="m 13.949216,63.390948 c 0,0 -0.329207,0.720731 -0.308325,1.132603 0.01848,0.364385 0.369952,0.914796 0.369952,0.914796 0,0 0.284444,-0.635447 0.277448,-1.001918 -0.0075,-0.394322 -0.339075,-1.045481 -0.339075,-1.045481 z"
       id="path8071"
       inkscape:connector-curvature="0"
       sodipodi:nodetypes="cacac" />
    <path
       style="fill:#9fa4a5;fill-opacity:1;stroke:#000000;stroke-width:0;stroke-linecap:butt;stroke-linejoin:miter;stroke-miterlimit:4;stroke-dasharray:none;stroke-opacity:1"
       d="m 65.088588,82.201745 c -1.599645,2.049999 -2.149323,3.21433 -2.987631,4.94956 -0.677067,1.401479 -1.240943,3.537707 -1.631853,4.374952 -1.046873,3.241287 -1.211276,6.388012 -1.003923,10.891163 0.1458,3.16638 1.051468,6.56431 0.650336,9.48692 0.560589,-0.80785 0.347262,-1.94078 0.401132,-2.92261 0.117246,-2.13692 -0.143082,-4.27817 -0.171735,-6.41811 -0.02991,-2.23467 -0.325197,-4.493442 0,-6.704531 0.444061,-3.019281 1.578112,-5.90476 2.636184,-8.767228 0.256451,-0.693794 1.802107,-4.216216 2.10749,-4.890116 z"
       id="path8043"
       inkscape:connector-curvature="0"
       sodipodi:nodetypes="cacscscssc" />
    <path
       style="fill:#aab2b4;fill-opacity:1;stroke:#000000;stroke-width:0;stroke-linecap:butt;stroke-linejoin:miter;stroke-miterlimit:4;stroke-dasharray:none;stroke-opacity:1"
       d="m 206.85692,34.696574 c -0.48028,0.119407 -2.50399,0.403015 -5.21677,0.961222 -3.21243,0.661016 -7.28952,1.651199 -9.46809,2.414401 -0.17473,0.06121 8.20284,-1.345042 8.80596,-0.474504 0.57884,0.835469 -0.0622,1.353742 -3.28179,3.789002 -7.07423,5.350918 -18.77277,12.644786 -23.79241,18.190835 -0.49598,0.548001 -0.60578,1.609995 0.38604,4.42035 1.01411,2.873566 3.75928,7.270769 7.28262,10.458344 0.12055,-0.802777 -1.12838,-2.27786 -1.74743,-3.323754 -0.97817,-1.431933 -2.35633,-2.546639 -3.20906,-4.040143 -0.83308,-1.459104 -1.62853,-3.034962 -1.80572,-4.705775 -0.0923,-0.870044 -0.24154,-2.004669 0.40553,-2.593565 7.83277,-7.128599 15.69981,-11.716664 22.37123,-17.437938 1.0129,-0.868648 2.37727,2.076863 3.40334,1.534329 0.79851,-0.422203 0.29458,-2.869738 1.48293,-4.012568 1.91085,-1.837628 5.81747,-3.730352 5.30685,-5.101891 -0.0493,-0.13229 -0.21168,-0.187448 -0.47634,-0.173616 -0.11025,0.0059 -0.30189,0.06613 -0.44689,0.09527 z"
       id="path7993-3"
       inkscape:connector-curvature="0"
       sodipodi:nodetypes="csssssscccccsccccc" />
    <path
       style="fill:#aab2b4;fill-opacity:1;stroke:#000000;stroke-width:0;stroke-linecap:butt;stroke-linejoin:miter;stroke-miterlimit:4;stroke-dasharray:none;stroke-opacity:1"
       d="m 142.89369,45.659212 c 0.0677,0.295371 0.44441,0.661058 0.54583,1.024393 0.14797,0.530072 0.38162,1.088437 0.59896,1.608817 0.21734,0.520376 0.46848,0.989928 0.75213,1.317467 0.33747,0.38971 0.73047,0.713317 1.15889,0.9928 0.42841,0.279479 0.89277,0.514623 1.37388,0.727049 0.96221,0.424849 1.99097,0.758889 2.93452,1.174564 0.20242,0.08917 0.4064,0.187265 0.61172,0.277657 0.42671,0.01206 0.82972,0.04303 1.53559,-0.06832 -1.77155,-0.89585 -4.60725,-1.406114 -6.44256,-2.925754 -1.1755,-0.973334 -1.94784,-3.437386 -3.06896,-4.128676 z"
       id="path8100"
       inkscape:connector-curvature="0"
       sodipodi:nodetypes="ccccccccccc" />
  </g>
</svg>
