<?xml version="1.0" encoding="UTF-8" standalone="no"?>
<!-- Created with Inkscape (http://www.inkscape.org/) -->

<svg
   width="77.19545mm"
   height="22.377998mm"
   viewBox="0 0 77.19545 22.377998"
   version="1.1"
   id="svg5"
   inkscape:version="1.1 (c68e22c387, 2021-05-23)"
   sodipodi:docname="medaka.svg"
   xmlns:inkscape="http://www.inkscape.org/namespaces/inkscape"
   xmlns:sodipodi="http://sodipodi.sourceforge.net/DTD/sodipodi-0.dtd"
   xmlns="http://www.w3.org/2000/svg"
   xmlns:svg="http://www.w3.org/2000/svg">
  <sodipodi:namedview
     id="namedview7"
     pagecolor="#ffffff"
     bordercolor="#666666"
     borderopacity="1.0"
     inkscape:pageshadow="2"
     inkscape:pageopacity="0.0"
     inkscape:pagecheckerboard="0"
     inkscape:document-units="mm"
     showgrid="false"
     inkscape:zoom="6.5923118"
     inkscape:cx="63.179657"
     inkscape:cy="35.875123"
     inkscape:window-width="1920"
     inkscape:window-height="991"
     inkscape:window-x="-9"
     inkscape:window-y="-9"
     inkscape:window-maximized="1"
     inkscape:current-layer="layer1"
     fit-margin-top="0"
     fit-margin-left="0"
     fit-margin-right="0"
     fit-margin-bottom="0" />
  <defs
     id="defs2" />
  <g
     inkscape:label="Layer 1"
     inkscape:groupmode="layer"
     id="layer1"
     transform="translate(-0.33762967,-88.6552)">
    <ellipse
       style="fill:#ffffff;fill-opacity:1;stroke:none;stroke-width:0;stroke-linejoin:round;paint-order:markers fill stroke"
       id="path869"
       cx="7.3010755"
       cy="97.464859"
       rx="3.8329055"
       ry="3.1506081" />
    <g
       id="g1170"
       transform="translate(-87.561741,-18.578696)">
      <path
         style="fill:#bcbcbc;fill-opacity:1;stroke-width:0.264583"
         d="m 122.58828,128.94924 c -1.2269,-0.8337 -2.56462,-2.63141 -2.56462,-3.44649 v -0.60552 l -3.24115,0.14986 c -5.15912,0.23854 -11.49859,-0.64279 -16.850766,-2.34265 -3.527617,-1.12037 -9.085308,-4.01066 -10.703556,-5.5664 l -1.053615,-1.95682 -0.06833,-0.54603 c -0.08674,-0.6932 0.276763,-1.3627 0.404211,-1.49015 0.127448,-0.12745 1.584821,-0.46247 3.238606,-0.74449 1.653785,-0.28203 4.852351,-0.92564 7.107924,-1.43024 9.542236,-2.13476 14.529096,-2.64151 23.937926,-2.43252 4.522,0.10045 7.5023,0.29675 9.39957,0.61913 3.58453,0.60908 4.37765,0.58299 7.40833,-0.24372 4.3347,-1.18241 10.83199,-2.03756 11.62457,-1.53 l 0.37978,0.24321 -0.90894,1.06458 c -0.49992,0.58551 -1.17472,1.41456 -1.49956,1.84232 -0.32484,0.42776 -1.09022,1.02494 -1.70088,1.32707 -1.22959,0.60835 -1.1644,0.66659 1.21561,1.08603 3.93227,0.69301 7.14082,0.0486 12.57534,-2.5258 l 2.51292,-1.19038 0.30019,0.41052 c 0.54185,1.24079 0.94202,2.39531 0.98921,3.65735 0.0595,1.59002 -0.59913,3.12536 -0.89869,4.68804 0.19936,1.90409 0.87612,3.81807 0.59811,5.71228 -0.0516,0.35163 -0.41105,0.98377 -0.41105,0.98377 -0.61853,1.48035 -1.02687,1.47873 -3.16564,-0.0126 -1.04472,-0.72847 -3.26872,-2.01392 -4.94221,-2.85657 l -3.04271,-1.53207 -4.36562,-0.10182 c -3.23012,-0.0753 -4.24559,-0.0266 -3.90415,0.18752 0.25381,0.15914 1.08725,0.35341 1.85208,0.4317 2.13532,0.2186 2.22398,0.27744 1.53042,1.0157 -0.95893,1.02073 -2.14734,1.44637 -6.70508,2.40147 -3.16108,0.66243 -4.76262,1.14205 -6.11542,1.83142 l -1.83278,0.93396 -0.68076,-0.44194 c -0.37443,-0.24307 -1.35939,-1.13284 -2.18883,-1.97726 l -1.50805,-1.53532 -2.3284,0.48198 -2.32841,0.48199 0.71305,0.34075 c 0.99593,0.47594 1.07502,0.90117 0.32895,1.76867 -0.35446,0.41215 -0.65347,0.92796 -0.66446,1.14624 -0.0279,0.55389 -0.22792,1.65556 -0.37231,2.05052 -0.19093,0.52227 -0.98781,0.38863 -2.07081,-0.34729 z M 96.499344,116.96132 c 0.768803,-0.62254 0.831471,-2.14584 0.120596,-2.93134 -0.622261,-0.6876 -1.994395,-0.71064 -2.813639,-0.0472 -1.369923,1.10929 -0.453405,3.47367 1.346521,3.47367 0.40432,0 1.010255,-0.22279 1.346522,-0.49508 z"
         id="path1186"
         sodipodi:nodetypes="sscssscssscsssscsssssccacasssccssssscsccccssssscscscc" />
      <path
         style="fill:#bcbcbc;fill-opacity:1;stroke-width:0.264583"
         d="m 123.46867,129.33207 c -0.90854,-0.3625 -1.61347,-1.04495 -1.41353,-1.36846 0.0918,-0.14856 0.039,-0.19104 -0.11734,-0.0944 -0.37817,0.23372 -1.31447,-0.98758 -1.67149,-2.18028 l -0.28627,-0.95636 -4.11833,0.0906 c -5.36942,0.11817 -10.30093,-0.5563 -15.48311,-2.11757 -0.982125,-0.29589 -1.720082,-0.64412 -1.639908,-0.77385 0.08017,-0.12972 -0.04864,-0.16125 -0.286245,-0.0701 -0.67805,0.26019 -7.950222,-3.51309 -9.343364,-4.84796 -0.524302,-0.78155 -1.197713,-1.29276 -1.024284,-2.22884 0.111741,-0.60312 0.30765,-1.26473 0.502461,-1.45955 0.194812,-0.19481 1.75905,-0.59437 3.476084,-0.88791 1.717034,-0.29354 4.656617,-0.88836 6.532406,-1.32182 8.58571,-1.98398 13.12244,-2.49989 21.95706,-2.49694 6.95861,0.002 12.17784,0.40813 14.75479,1.14718 0.53846,0.15443 1.70216,-0.0336 4.17454,-0.67438 5.20185,-1.34827 12.02692,-2.16196 12.02692,-1.43384 0,0.33623 -1.08277,0.92707 -1.5875,0.86626 -0.21828,-0.0263 -0.26148,0.0137 -0.096,0.0889 0.21005,0.0954 0.15286,0.44304 -0.18941,1.15147 -0.51483,1.06558 -1.88269,2.05371 -3.21055,2.31928 -1.31194,0.26239 -0.46403,0.56943 2.72811,0.98788 4.38883,0.57533 6.55683,0.12668 12.09107,-2.50215 1.83869,-0.8734 2.76164,-1.18993 2.83924,-0.97371 0.0632,0.17619 0.28346,1.05677 0.48941,1.95684 l 0.37444,1.63649 -0.38622,1.93538 c -0.28346,1.42041 -0.34181,2.83519 -0.21929,5.317 0.1919,3.88744 -0.0683,5.21735 -1.02099,5.21735 -0.75557,0 -1.81824,-0.74704 -1.58939,-1.11731 0.10571,-0.17106 0.0546,-0.21135 -0.12631,-0.0995 -0.16715,0.1033 -0.69156,-0.10332 -1.16536,-0.45915 -0.4738,-0.35584 -2.16292,-1.31377 -3.7536,-2.12874 l -2.89215,-1.48176 -2.9028,-0.2902 c -2.31572,-0.23151 -4.51789,-0.22998 -6.24863,0.004 -0.0655,0.009 0.004,0.139 0.154,0.28919 0.15019,0.15019 1.09452,0.42468 2.09851,0.60998 l 1.82544,0.3369 -0.74179,0.6468 c -0.99217,0.8651 -1.99475,1.19122 -6.52439,2.12229 -2.64259,0.54319 -4.4243,1.07441 -5.72545,1.70706 -1.03894,0.50517 -2.02085,0.91848 -2.18201,0.91848 -0.16117,0 -1.19439,-0.8562 -2.29605,-1.90267 l -2.00302,-1.90268 -2.29726,0.47172 c -1.26349,0.25945 -2.38754,0.57888 -2.4979,0.70985 -0.11035,0.13096 -0.12502,0.18433 -0.0326,0.11859 0.25545,-0.18171 1.68845,0.62664 1.68845,0.95244 0,0.15715 -0.29765,0.63948 -0.66146,1.07184 -0.41675,0.49528 -0.66145,1.11317 -0.66145,1.6702 0,0.96157 -0.22179,1.73093 -0.49133,1.70436 -0.0936,-0.009 -0.46534,-0.13456 -0.82615,-0.27852 z M 96.674177,116.7588 c 0.763956,-0.84033 0.755753,-1.7322 -0.02427,-2.63904 -0.442716,-0.51468 -0.870079,-0.72031 -1.497083,-0.72031 -0.627004,0 -1.054367,0.20563 -1.497082,0.72031 -0.724788,0.84262 -0.787931,1.65563 -0.194399,2.50302 0.860612,1.22869 2.169116,1.28409 3.212836,0.13602 z m 47.884073,-6.606 c -0.0879,-0.0879 -0.31613,-0.0973 -0.50712,-0.0209 -0.21107,0.0845 -0.14837,0.14715 0.15985,0.15985 0.27892,0.0115 0.43519,-0.051 0.34727,-0.13897 z"
         id="path1184"
         sodipodi:nodetypes="cscsccsscccssscscsscsssscscsssscsscsccscssssscsssssscccsssssssccscc" />
      <path
         style="fill:#a8a8a8;stroke-width:0.264583"
         d="m 121.86741,127.31221 c -1.02063,-1.2172 -1.70463,-2.71494 -1.23568,-2.70574 0.17488,0.003 0.58133,0.56897 0.90322,1.25677 0.3219,0.68779 0.7829,1.51842 1.02446,1.84584 0.71415,0.96801 0.21002,0.67888 -0.692,-0.39687 z m 1.27425,0 c -0.22197,-0.25466 -0.72226,-1.04279 -1.11175,-1.7514 l -0.70815,-1.28838 0.40927,-0.45225 c 0.51109,-0.56474 0.52977,-2.1906 0.036,-3.13569 -0.77582,-1.48504 -3.03128,-3.03876 -5.31529,-3.66153 -1.83639,-0.50072 -6.12102,-0.73466 -9.21154,-0.50296 l -2.59311,0.19441 0.16846,0.76699 c 0.0927,0.42185 0.0321,1.18023 -0.13461,1.68529 -0.33192,1.00574 -1.63861,2.26321 -2.33856,2.25049 l -0.44272,-0.008 0.48813,-0.28374 c 1.07937,-0.62741 2.03423,-4.19809 1.12264,-4.19809 -0.98048,0 -4.385322,0.80992 -5.447231,1.29575 -0.947165,0.43333 -1.735897,0.5459 -3.857243,0.55052 l -2.666618,0.006 -1.267888,-0.83982 c -1.273749,-0.8437 -2.259587,-2.10348 -2.261429,-2.88985 -5.55e-4,-0.2323 0.179187,-0.78354 0.399402,-1.22497 l 0.40039,-0.8026 2.179297,-0.32342 c 1.198614,-0.17789 4.501016,-0.8377 7.338672,-1.46625 8.338588,-1.84703 11.976418,-2.35251 19.049998,-2.64703 4.78136,-0.19907 11.51547,0.18641 15.96184,0.91371 l 3.12955,0.51191 2.82358,-0.64271 c 1.55297,-0.35349 3.65701,-0.70014 4.67566,-0.77033 l 1.85208,-0.12762 -0.99219,0.2597 c -0.5457,0.14283 -1.43867,0.36063 -1.98437,0.484 -0.69372,0.15684 -0.11668,0.20035 1.91823,0.14463 l 2.91041,-0.0797 -2.38125,0.38652 c -4.42339,0.71799 -4.79587,0.89499 -1.71979,0.8172 l 2.77813,-0.0702 -1.71979,0.41187 -1.7198,0.41186 1.7198,0.15402 c 0.94588,0.0847 1.3626,0.17638 0.92604,0.20373 -2.86671,0.17956 0.28237,1.20588 5.29166,1.72461 1.60073,0.16576 3.04659,0.38988 3.21301,0.49804 0.33076,0.21497 5.09704,-0.68631 6.79201,-1.28433 0.58176,-0.20525 1.1015,-0.32943 1.15499,-0.27594 0.30096,0.30097 -5.87341,2.28965 -7.1088,2.28965 -0.26762,0 -0.47933,0.19141 -0.47933,0.43337 v 0.43337 l 2.0429,-0.18512 c 1.1236,-0.10182 2.82024,-0.34754 3.77031,-0.54605 1.29387,-0.27034 1.61698,-0.27975 1.2874,-0.0375 -0.46614,0.34267 -3.43496,1.06661 -5.6454,1.37662 l -1.32292,0.18553 0.66146,0.18641 c 0.3638,0.10252 1.73302,0.26693 3.04271,0.36534 4.23495,0.31823 4.36094,0.69104 0.19844,0.58716 -2.07368,-0.0517 -3.77032,-0.0147 -3.77032,0.0822 0,0.097 0.74414,0.38815 1.65365,0.64704 1.88855,0.53758 5.4421,2.00068 5.64105,2.32259 0.0733,0.11857 -0.28326,0.0416 -0.79232,-0.17114 -0.96886,-0.40481 -5.86456,-1.70454 -6.43623,-1.70872 -0.1819,-10e-4 -0.33073,0.17157 -0.33073,0.38422 0,0.2345 0.51379,0.5392 1.30582,0.77441 1.38022,0.40988 4.99349,2.132 5.44105,2.59326 0.14553,0.14997 -0.21166,0.0346 -0.79375,-0.25636 -1.60418,-0.8019 -6.30028,-2.20494 -6.46859,-1.9326 -0.0877,0.1419 -0.95764,0.1461 -2.13146,0.0103 -2.74003,-0.31703 -7.07605,-0.30995 -7.27495,0.0119 -0.0899,0.14552 -0.0672,0.26833 0.0505,0.2729 0.11773,0.005 0.44119,0.332 0.71879,0.7276 l 0.50474,0.71929 -0.91421,-0.85989 c -0.85974,-0.80867 -1.81505,-1.14078 -1.81505,-0.631 0,0.1259 0.25899,0.57238 0.57555,0.99219 l 0.57555,0.76329 -0.91888,-0.8599 c -0.8755,-0.8193 -1.81972,-1.13874 -1.81972,-0.61561 0,0.13436 0.30824,0.61061 0.68497,1.05833 0.37674,0.44773 0.59772,0.81405 0.49106,0.81405 -0.10665,0 -0.56457,-0.42879 -1.0176,-0.95286 -0.58613,-0.67805 -0.99654,-0.92605 -1.42303,-0.8599 l -0.59935,0.093 0.68875,1.05833 0.68875,1.05834 -0.95096,-0.99219 c -1.47039,-1.53413 -2.64932,-1.32406 -1.71268,0.30517 l 0.54707,0.9516 -0.82496,-0.92604 c -0.57156,-0.64159 -1.00481,-0.89778 -1.41047,-0.83403 -0.83565,0.13133 -0.84125,0.16929 -0.18909,1.28313 l 0.58908,1.00611 -0.9076,-1.03296 -0.9076,-1.03297 -0.73276,0.18392 -0.73276,0.18391 0.63719,0.84905 c 1.08536,1.44623 1.09044,1.69582 0.0105,0.51832 -0.61081,-0.66602 -1.26727,-1.12448 -1.61012,-1.12448 -0.73953,0 -0.72767,0.17501 0.099,1.45994 l 0.67783,1.0536 -1.04391,-1.1238 -1.0439,-1.12381 -2.21361,0.38994 c -1.21748,0.21447 -2.86845,0.57853 -3.66881,0.80902 -0.80037,0.2305 -1.66357,0.4193 -1.91823,0.41958 -0.55999,5.3e-4 -0.5574,-0.0583 -0.0507,1.15452 0.56501,1.35226 0.28664,1.49255 -0.30422,0.15332 -0.261,-0.5916 -0.63024,-1.07564 -0.82052,-1.07564 -0.48527,0 -0.44106,0.19614 0.43234,1.91822 0.82461,1.6259 0.85868,1.78758 0.22305,1.05834 z M 95.84164,117.446 c 0.95523,-0.36318 1.409144,-0.99963 1.419435,-1.99023 0.01554,-1.4957 -1.682606,-2.61918 -2.943505,-1.9474 -1.533338,0.81693 -1.749534,2.44876 -0.467364,3.52763 0.920499,0.77455 0.993207,0.78952 1.991434,0.41 z m 28.41004,7.54463 c -0.18407,-0.2218 -0.26783,-0.47012 -0.18612,-0.55183 0.0817,-0.0817 0.28145,0.0998 0.44388,0.40327 0.34657,0.64756 0.21791,0.72171 -0.25776,0.14856 z"
         id="path1182"
         sodipodi:nodetypes="scssscscscsscccccsssccssscsssscsscssscsccccscsssssscsscscsscsssccssscscccscssscsssssccccsscssscccccsssscccssccsssccssssssscs" />
      <path
         style="fill:#8a8a8a;stroke-width:0.264583"
         d="m 91.923298,118.58727 c -0.7053,-0.0742 -1.355601,-0.44029 -2.316541,-1.30425 -1.554161,-1.39733 -2.138437,-2.563 -1.371845,-3.7701 l 0.241511,-0.38029 1.972369,-0.33263 c 0.908326,-0.15318 2.792416,-0.17907 4.174864,-0.13855 2.541368,0.0745 4.625766,-0.0985 12.303124,-1.02121 7.30544,-0.87798 11.92171,-1.15078 16.40417,-0.96941 4.17028,0.16873 5.25273,0.32513 17.59479,2.54219 5.78616,1.0394 9.96317,1.59755 11.95557,1.59755 1.03807,0 1.54799,0.10753 1.56835,0.33072 0.0166,0.18191 0.0701,0.67296 0.11897,1.09125 l 0.0888,0.76051 -1.24345,-0.15605 c -8.46281,-1.06206 -19.19074,-1.4189 -21.74866,-0.72344 -1.78421,0.48511 -13.71089,0.67959 -18.4283,0.3005 -2.16094,-0.17365 -5.35755,-0.60547 -7.10356,-0.95961 -1.74601,-0.35414 -3.7227,-0.64388 -4.39264,-0.64388 -1.58464,0 -2.821996,0.82475 -3.641451,2.4272 -0.480144,0.93891 -0.810327,1.25982 -1.422136,1.38218 -0.820457,0.1641 -3.026566,0.14893 -4.753935,-0.0327 z m 3.229524,-5.3642 c -1.152293,0 -2.116666,1.02464 -2.116666,2.24895 0,1.22432 0.964373,2.24896 2.116666,2.24896 1.670286,-0.23266 2.349573,-1.75082 1.976533,-2.9534 -0.259598,-0.83687 -1.189809,-1.50627 -1.976533,-1.54451 z"
         id="path1178"
         sodipodi:nodetypes="csscsscssssccssssssscccscsc" />
      <path
         style="fill:#787878;stroke-width:0.264583"
         d="m 90.738358,116.3381 c -0.700742,-0.64453 -1.519735,-1.3412 -1.819983,-1.54815 -0.417066,-0.28746 -0.501346,-0.53237 -0.357102,-1.03772 0.103841,-0.3638 0.20067,-0.47322 0.215176,-0.24315 0.0145,0.23008 0.320981,0.57599 0.681057,0.76869 0.754899,0.40401 2.913114,2.87402 2.698632,3.08851 -0.07904,0.079 -0.717037,-0.38365 -1.41778,-1.02818 z m 27.970792,-2.35508 0.008,-1.95062 0.38846,0.51359 c 0.5117,0.67653 0.50632,2.63109 -0.008,3.05829 l -0.39687,0.32937 0.008,-1.95063 z m -2.0987,-0.14907 c 0.0191,-1.30457 0.0848,-1.61908 0.23821,-1.14009 0.30754,0.96032 0.30754,2.58805 0,2.77812 -0.1674,0.10346 -0.2549,-0.4982 -0.23821,-1.63803 z m 4.22555,0 c 0.0129,-1.25188 0.088,-1.6401 0.24599,-1.27238 0.31845,0.74108 0.31845,2.7136 0,2.91041 -0.16713,0.1033 -0.25773,-0.50003 -0.24599,-1.63803 z m 3.95016,0.35278 c 0,-1.53897 0.40238,-2.22242 0.67319,-1.14343 0.23483,0.93562 0.0378,2.37166 -0.34247,2.4965 -0.23777,0.0781 -0.33072,-0.30224 -0.33072,-1.35307 z m -11.65546,0.009 c -0.069,-0.70203 -0.0512,-1.39663 0.0396,-1.54354 0.27903,-0.45147 0.39677,0.36032 0.23633,1.62933 l -0.15053,1.19063 z m 1.79339,-0.24494 c 0.15766,-1.91392 0.23834,-2.07505 0.46458,-0.92778 0.20693,1.04938 0.0109,2.31685 -0.3583,2.31685 -0.12139,0 -0.16921,-0.62508 -0.10628,-1.38907 z m 7.7454,0.0818 c 0,-1.3198 0.33866,-1.95203 0.63373,-1.18308 0.088,0.22935 0.16002,0.88351 0.16002,1.45369 0,0.74512 -0.11163,1.03669 -0.39688,1.03669 -0.29922,0 -0.39687,-0.32164 -0.39687,-1.3073 z m 3.9728,-0.0818 c 0.003,-0.99442 0.0769,-1.27631 0.26053,-0.99219 0.33839,0.52361 0.33839,2.38125 0,2.38125 -0.14552,0 -0.26276,-0.62508 -0.26053,-1.38906 z m 1.85208,0 c 0.003,-0.99442 0.0769,-1.27631 0.26054,-0.99219 0.33838,0.52361 0.33838,2.38125 0,2.38125 -0.14552,0 -0.26276,-0.62508 -0.26054,-1.38906 z m 3.43554,0.34634 c 0,-0.59067 0.11906,-1.07394 0.26458,-1.07394 0.14552,0 0.26458,0.40969 0.26458,0.91042 0,0.50074 -0.11906,0.98401 -0.26458,1.07395 -0.15979,0.0988 -0.26458,-0.26184 -0.26458,-0.91043 z m 1.85208,0 c 0,-0.59067 0.11906,-1.07394 0.26458,-1.07394 0.14552,0 0.26459,0.40969 0.26459,0.91042 0,0.50074 -0.11907,0.98401 -0.26459,1.07395 -0.15979,0.0988 -0.26458,-0.26184 -0.26458,-0.91043 z m 1.88287,-0.0156 0.0147,-1.19062 0.23061,0.77117 c 0.13599,0.45476 0.12996,0.94326 -0.0147,1.19062 -0.17546,0.30003 -0.24112,0.0805 -0.23061,-0.77117 z m 3.2056,0.26459 c 0,-0.50933 0.0545,-0.71769 0.121,-0.46302 0.0666,0.25466 0.0666,0.67138 0,0.92604 -0.0665,0.25466 -0.121,0.0463 -0.121,-0.46302 z m 1.26153,0.13229 c 0,-0.3638 0.11906,-0.66146 0.26458,-0.66146 0.14552,0 0.26459,0.29766 0.26459,0.66146 0,0.3638 -0.11907,0.66146 -0.26459,0.66146 -0.14552,0 -0.26458,-0.29766 -0.26458,-0.66146 z m 1.63908,0 c 0.005,-0.43656 0.0647,-0.58313 0.13177,-0.3257 0.0671,0.25744 0.0627,0.61462 -0.01,0.79375 -0.0725,0.17914 -0.12737,-0.0315 -0.12197,-0.46805 z m -33.9142,-0.74322 c -0.002,-0.78178 0.098,-1.20933 0.26054,-1.10886 0.33645,0.20793 0.33645,1.46374 0,1.98437 -0.18526,0.28667 -0.25761,0.0435 -0.26054,-0.87551 z m 1.72407,-0.0438 c 0.0123,-0.65113 0.0933,-1.25495 0.18022,-1.34184 0.24848,-0.24848 0.53136,1.39556 0.34251,1.99059 -0.28907,0.91077 -0.54604,0.59184 -0.52273,-0.64875 z m 1.71552,-0.18958 c 0.003,-1.00451 0.0771,-1.29162 0.26053,-1.00781 0.33705,0.52155 0.33705,2.04065 0,2.24896 -0.16387,0.10128 -0.26304,-0.37116 -0.26053,-1.24115 z m 19.05,0.51355 c -0.002,-0.54571 0.0416,-0.99219 0.0974,-0.99219 0.22929,0 0.33148,1.31445 0.12723,1.63654 -0.1406,0.22172 -0.22204,-0.0119 -0.22462,-0.64435 z m 6.61053,0.0505 c 0,-0.4722 0.11022,-0.74124 0.26458,-0.64584 0.14552,0.0899 0.26459,0.45415 0.26459,0.80937 0,0.35521 -0.11907,0.64584 -0.26459,0.64584 -0.14552,0 -0.26458,-0.36422 -0.26458,-0.80937 z"
         id="path1176"
         sodipodi:nodetypes="ssssscsccsccccscssscsssscscssccsssssssssccscccscssscsssscsscssssccsssssscccccccscccscccscsssssscsss" />
    </g>
    <ellipse
       style="fill:#787878;fill-opacity:1;stroke:#ffffff;stroke-width:0;stroke-linejoin:round;stroke-miterlimit:4;stroke-dasharray:none;paint-order:markers fill stroke"
       id="path1342"
       cx="7.5763922"
       cy="96.861115"
       rx="1.3044508"
       ry="1.2920456" />
  </g>
</svg>
