<?xml version="1.0" encoding="UTF-8" standalone="no"?>
<!-- Created with Inkscape (http://www.inkscape.org/) -->

<svg
   xmlns:dc="http://purl.org/dc/elements/1.1/"
   xmlns:cc="http://creativecommons.org/ns#"
   xmlns:rdf="http://www.w3.org/1999/02/22-rdf-syntax-ns#"
   xmlns:svg="http://www.w3.org/2000/svg"
   xmlns="http://www.w3.org/2000/svg"
   xmlns:sodipodi="http://sodipodi.sourceforge.net/DTD/sodipodi-0.dtd"
   xmlns:inkscape="http://www.inkscape.org/namespaces/inkscape"
   width="296.79398mm"
   height="129.3105mm"
   viewBox="0 0 296.79398 129.3105"
   version="1.1"
   id="svg8425"
   inkscape:version="0.92.2 5c3e80d, 2017-08-06"
   sodipodi:docname="peacock bass.svg"
   inkscape:export-filename="/mnt/826CA0866CA07717/MEGASync/Graphics/Species/peacock bass.png"
   inkscape:export-xdpi="200"
   inkscape:export-ydpi="200">
  <defs
     id="defs8419" />
  <sodipodi:namedview
     id="base"
     pagecolor="#ffffff"
     bordercolor="#666666"
     borderopacity="1.0"
     inkscape:pageopacity="0.0"
     inkscape:pageshadow="2"
     inkscape:zoom="1.1641073"
     inkscape:cx="442.85138"
     inkscape:cy="361.67457"
     inkscape:document-units="mm"
     inkscape:current-layer="layer1"
     showgrid="false"
     inkscape:window-width="1920"
     inkscape:window-height="1018"
     inkscape:window-x="0"
     inkscape:window-y="34"
     inkscape:window-maximized="1"
     inkscape:snap-others="true"
     inkscape:snap-global="false"
     fit-margin-top="0"
     fit-margin-left="0"
     fit-margin-right="0"
     fit-margin-bottom="0" />
  <metadata
     id="metadata8422">
    <rdf:RDF>
      <cc:Work
         rdf:about="">
        <dc:format>image/svg+xml</dc:format>
        <dc:type
           rdf:resource="http://purl.org/dc/dcmitype/StillImage" />
        <dc:title></dc:title>
      </cc:Work>
    </rdf:RDF>
  </metadata>
  <g
     inkscape:label="Layer 1"
     inkscape:groupmode="layer"
     id="layer1"
     transform="translate(95.311066,-54.315314)">
    <path
       style="fill:#72b3c1;fill-opacity:1;stroke:none;stroke-width:0.4843879px;stroke-linecap:butt;stroke-linejoin:miter;stroke-opacity:1"
       d="m -12.86323,72.915191 c 0,0 3.9032887,-5.927804 6.3752433,-8.442895 1.7537614,-1.784364 3.2290004,-3.711051 5.91079104,-4.625934 0.65139084,-0.222219 -2.05599374,1.272871 -1.16873914,1.875979 0.88725468,0.60311 6.0099101,-5.632276 6.0099101,-5.632276 0,0 -0.5476235,1.875375 0.3165599,2.200204 0.8641835,0.324828 2.5820345,-2.856322 2.5820345,-2.856322 0,0 0.1349268,1.663838 1.3433055,1.855409 1.2083787,0.19157 4.0816008,-2.974042 4.0816008,-2.974042 0,0 0.08632,2.187929 1.355262,2.605942 1.268942,0.418012 4.562636,-2.230983 4.562636,-2.230983 0,0 0.464426,1.857952 1.347785,2.136859 0.883359,0.278908 2.796555,-1.170618 2.796555,-1.170618 0,0 -0.08897,2.210682 0.604736,2.617892 0.693729,0.40721 2.054989,-0.595767 2.054989,-0.595767 0,0 -0.544467,1.227616 0.02838,1.78251 0.572844,0.554893 3.002112,-0.0478 3.002112,-0.0478 0,0 0.231408,1.546396 0.875725,1.956697 0.644317,0.410298 2.439228,-0.03885 2.439228,-0.03885 0,0 0.868768,2.316011 1.733526,2.787597 0.86474,0.471587 2.626844,-0.04183 2.626844,-0.04183 0,0 -0.405915,0.899976 0.02087,1.313425 0.426823,0.413449 2.251575,-0.03585 2.251575,-0.03585 0,0 0.977826,1.500214 1.621777,1.663291 0.64395,0.163084 1.587395,-0.494477 1.587395,-0.494477 0,0 1.151564,1.454067 1.807909,1.566492 0.656345,0.112426 1.492104,-0.586804 1.492104,-0.586804 0,0 1.84469,1.112762 2.550978,1.085458 0.706288,-0.02735 1.30295,-0.677633 1.30295,-0.677633 0,0 1.05805,1.166811 1.989576,1.188239 0.931526,0.02142 2.884395,-1.547375 2.884395,-1.547375 0,0 -1.235963,1.372471 1.621776,1.663294 2.857721,0.290824 7.681785,-6.646792 12.347562,-8.360721 3.479264,-1.27807 7.362502,-0.873142 11.053895,-1.208273 4.43003,-0.402188 8.951964,-1.85411 13.309973,-0.962683 6.360857,1.301106 11.825811,5.452969 17.314791,8.920593 5.07555,3.206454 10.85791,6.015283 14.32562,10.916061 0.9909,1.400378 1.79132,3.195758 1.57945,4.898119 -0.39193,3.149121 -2.21198,5.865707 -5.05355,8.068265 -5.46968,4.239658 -13.4034,3.484531 -20.192575,4.82589 -5.657315,1.117729 -17.091202,2.679815 -17.091202,2.679815 l -95.382418,-20.25194 z"
       id="path816"
       inkscape:connector-curvature="0"
       sodipodi:nodetypes="caszczczczczczczczczczczczczczczaaaaaasaccc"
       inkscape:export-xdpi="200"
       inkscape:export-ydpi="200" />
    <path
       style="fill:#ea8c6e;fill-opacity:1;stroke:none;stroke-width:0.4843879px;stroke-linecap:butt;stroke-linejoin:miter;stroke-opacity:1"
       d="m 71.510966,162.74322 4.982956,4.56551 c 0,0 -0.767527,-1.62147 0.76436,-2.00283 1.531904,-0.38137 5.517921,4.82239 5.517921,4.82239 0,0 -0.423161,-1.78304 1.096056,-2.0081 1.519218,-0.22505 6.108597,4.41485 6.108597,4.41485 0,0 0.892549,-0.81752 1.446775,-0.8193 1.942122,-0.005 3.175851,2.49945 5.088169,2.83859 2.054897,-1.29544 6.13941,-1.40364 9.26621,-1.47465 2.76436,-0.0628 5.53673,1.49834 8.24283,0.93041 5.40701,-1.13478 11.13184,-3.82054 14.33281,-8.32354 2.30447,-3.24182 3.5484,-7.94873 2.26859,-11.71462 -1.82946,-5.38334 -5.06425,-10.81512 -9.96932,-13.51035 -6.41,-0.85577 -17.0058,-1.18898 -17.0058,-1.18898 0,0 -37.75527,12.54512 -32.140154,23.47062 z"
       id="path818"
       inkscape:connector-curvature="0"
       sodipodi:nodetypes="cczczcacaaasccc"
       inkscape:export-xdpi="200"
       inkscape:export-ydpi="200" />
    <path
       sodipodi:nodetypes="cassaaazacc"
       inkscape:connector-curvature="0"
       id="path1011"
       d="m 146.52662,98.245992 c 0,0 17.56262,-8.332468 26.61889,-11.836955 8.12797,-3.145262 17.27268,-6.763088 24.81846,-8.22512 0.9902,-0.191856 1.8299,1.352106 1.89551,2.358595 0.71974,11.041117 1.44939,16.865948 1.59765,25.322148 0.15909,9.0747 -0.45832,18.1466 -0.76096,27.21764 -0.14847,4.4494 0.47309,9.00531 -0.51737,13.34559 -1.10761,4.85362 -0.70955,13.81437 -5.95287,13.69755 -5.24331,-0.1168 -12.24528,-1.36145 -18.09891,-3.16221 -7.94289,-2.44352 -22.72398,-10.25492 -22.72398,-10.25492 z"
       style="fill:#85a883;fill-opacity:1;stroke:none;stroke-width:0.4843879px;stroke-linecap:butt;stroke-linejoin:miter;stroke-opacity:1"
       inkscape:export-xdpi="200"
       inkscape:export-ydpi="200" />
    <path
       style="fill:#ea8c6e;fill-opacity:1;stroke:none;stroke-width:0.4843879px;stroke-linecap:butt;stroke-linejoin:miter;stroke-opacity:1"
       d="m 158.97735,122.4718 42.15919,-0.17822 c -0.15085,3.59645 -0.3204,7.19266 -0.44037,10.78873 -0.14847,4.44939 0.47309,9.0053 -0.51737,13.34558 -1.10761,4.85362 -0.70955,13.81437 -5.95287,13.69755 -5.24331,-0.1168 -12.24528,-1.36145 -18.09891,-3.16221 -7.94289,-2.44352 -22.72398,-10.25492 -22.72398,-10.25492 z"
       id="path820"
       inkscape:connector-curvature="0"
       sodipodi:nodetypes="ccsazacc"
       inkscape:export-xdpi="200"
       inkscape:export-ydpi="200" />
    <path
       style="opacity:1;fill:#e1cb7f;fill-opacity:1;stroke:none;stroke-width:0.4843879px;stroke-linecap:butt;stroke-linejoin:miter;stroke-opacity:1"
       d="m -92.40723,125.80397 8.16364,5.87641 4.961928,5.17612 c 0,0 -15.515567,-5.05098 -16.029404,-4.81252 0,0 0.542926,4.54088 1.791059,6.35258 1.408341,2.04424 3.841583,3.1773 5.977801,4.44179 6.594104,3.90324 13.474887,7.67199 20.895909,9.58141 5.413269,1.39288 11.223834,0.23271 16.722768,1.23529 4.126233,0.75231 7.960066,2.71766 12.068596,3.56135 5.502698,1.12996 11.132953,1.56491 16.734714,1.98542 13.6943097,1.02804 27.447317,1.54002 41.178222,1.30853 8.18484,-0.13749 16.322155,-1.8157 24.505384,-1.60324 9.038029,0.23461 17.949717,4.15358 26.937473,3.17316 7.382347,-0.80532 14.122098,-4.42998 21.043148,-7.31516 16.210062,-6.75755 12.525732,-12.98522 20.671032,-16.18544 6.38908,-2.51023 13.78007,-3.03571 20.52074,-1.73756 7.20216,1.38703 12.4042,4.85119 19.66755,9.86591 5.5238,-1.23421 9.09533,-7.86486 10.49355,-13.34944 1.43803,-5.64062 -0.50984,-11.91296 -2.90178,-17.21986 -2.2886,-5.07761 -4.94702,-11.34123 -9.0927,-15.01979 l 0.65552,0.87992 c 0,0 -0.97927,0.74269 -2.59486,1.87505 -1.61559,1.13236 -3.86676,2.65425 -6.40963,4.21043 -1.27142,0.77808 -2.61591,1.56428 -3.9901,2.31547 -1.3742,0.75119 -2.77859,1.46688 -4.16949,2.1026 -1.39092,0.63572 -2.76849,1.19183 -4.09008,1.62351 -1.32158,0.43168 -2.58658,0.73914 -3.75279,0.87822 -1.41952,0.16929 -2.83574,0.22453 -4.24736,0.18402 -1.41163,-0.0405 -2.81869,-0.17625 -4.22241,-0.38882 -1.40373,-0.21257 -2.80367,-0.50215 -4.19948,-0.84904 -1.3958,-0.34689 -2.78775,-0.7513 -4.17563,-1.19477 -2.77577,-0.88696 -5.53619,-1.92948 -8.2802,-2.97638 -2.743996,-1.04689 -5.471953,-2.09851 -8.184111,-3.00345 -1.33129,-0.44419 -2.644254,-0.93812 -3.944403,-1.46812 -1.300131,-0.53 -2.586714,-1.09586 -3.865516,-1.68416 -2.557587,-1.17659 -5.083062,-2.44247 -7.614048,-3.687162 -2.530967,-1.244688 -5.068104,-2.468043 -7.650809,-3.560732 -1.291361,-0.546344 -2.594201,-1.06021 -3.91317,-1.527284 C 65.934863,94.38116 64.600278,93.960963 63.243888,93.600671 61.313757,93.087982 59.368614,92.65415 57.412339,92.28277 55.456065,91.911389 53.488495,91.601874 51.512009,91.338761 47.559019,90.812534 43.571684,90.470102 39.57342,90.178669 35.575174,89.887234 31.565833,89.647173 27.569729,89.326182 25.571677,89.16568 23.577103,88.98507 21.588479,88.767616 19.599874,88.550157 17.617639,88.295453 15.644403,87.987994 14.293326,87.777479 12.946385,87.503473 11.602777,87.187537 10.259164,86.871607 8.9184254,86.513577 7.5798487,86.135097 4.9026881,85.378146 2.2330171,84.539361 -0.43862013,83.789453 -1.7744378,83.414496 -3.1109055,83.061784 -4.4489951,82.752897 c -1.3380897,-0.308887 -2.6776,-0.574349 -4.0203929,-0.774301 -1.3427929,-0.199946 -2.688823,-0.334144 -4.038752,-0.382282 -1.349929,-0.04815 -2.704102,-0.0099 -4.063604,0.136629 -1.414861,0.152502 -2.7956,0.470699 -4.147839,0.907212 -1.352244,0.436519 -2.675594,0.991123 -3.97569,1.616956 -1.300096,0.625841 -2.577058,1.322878 -3.835483,2.043351 -1.258422,0.720476 -2.498132,1.464988 -3.725357,2.185414 -2.221924,1.304346 -4.25853,2.543357 -6.215315,3.815617 -1.956787,1.272257 -3.833705,2.577276 -5.736207,4.015199 -1.902495,1.437922 -3.831021,3.008268 -5.890079,4.809608 -2.059062,1.80134 -4.248626,3.83442 -6.675092,6.19693 -0.353721,0.3444 -0.595853,0.74075 -0.754281,1.17772 -0.158434,0.43696 -0.233557,0.91387 -0.251821,1.41761 -0.03652,1.00749 0.15252,2.12296 0.345909,3.24276 0.193383,1.11981 0.391505,2.24399 0.373775,3.26976 -0.009,0.51289 -0.07193,1.00137 -0.216262,1.45207 -0.144337,0.45068 -0.37032,0.86344 -0.705254,1.22613 -0.53048,0.57445 -1.121163,1.03969 -1.760072,1.41609 -0.638914,0.3764 -1.325675,0.66445 -2.050507,0.88423 -0.72483,0.21977 -1.487348,0.37165 -2.275571,0.47622 -0.788231,0.10457 -1.602385,0.16121 -2.431489,0.192 -1.658211,0.0616 -3.375948,0.0174 -5.062548,0.0324 -0.843302,0.007 -1.678975,0.0301 -2.495596,0.088 -0.816618,0.058 -1.61408,0.15112 -2.381498,0.30097 -5.335115,1.04185 -15.969209,3.30483 -15.969209,3.30483 z"
       id="path943"
       inkscape:connector-curvature="0"
       inkscape:export-xdpi="200"
       inkscape:export-ydpi="200" />
    <path
       style="fill:#dedede;fill-opacity:1;stroke:none;stroke-width:0.71204662px;stroke-linecap:butt;stroke-linejoin:miter;stroke-opacity:1"
       d="m -57.796086,122.85678 1.754801,4.86439 c 0,0 6.964656,-0.81995 4.941077,-1.49676 0,0 -1.481645,-0.19573 -2.02358,-0.6768 -0.536492,-0.47623 -0.970677,-1.96984 -0.970677,-1.96984 0,0 -1.869838,0.10054 -2.753516,-0.16887 -0.346606,-0.10567 -0.948105,-0.55212 -0.948105,-0.55212 z"
       id="path844"
       inkscape:connector-curvature="0"
       sodipodi:nodetypes="ccsacac"
       inkscape:export-xdpi="200"
       inkscape:export-ydpi="200" />
    <path
       style="fill:#dedede;fill-opacity:1;stroke:none;stroke-width:0.64935803px;stroke-linecap:butt;stroke-linejoin:miter;stroke-opacity:1"
       d="m -38.099552,118.29336 c 0,0 -1.413462,-1.71434 -2.28785,-1.47317 -2.230458,0.6152 -2.277321,4.73863 -2.277321,4.73863 l 4.783178,0.50744 c 0,0 -1.445504,-1.15626 -1.458759,-1.97444 -0.01172,-0.72821 1.240752,-1.79846 1.240752,-1.79846 z"
       id="path848"
       inkscape:connector-curvature="0"
       sodipodi:nodetypes="csccac"
       inkscape:export-xdpi="200"
       inkscape:export-ydpi="200" />
    <path
       style="fill:#dedede;fill-opacity:1;stroke:none;stroke-width:0.66944629px;stroke-linecap:butt;stroke-linejoin:miter;stroke-opacity:1"
       d="m -46.039615,121.40447 0.641613,2.79168 c 0,0 -1.721295,-0.13926 -2.544477,-0.37958 -0.871142,-0.25432 -2.485903,-1.11014 -2.485903,-1.11014 0,0 0.93837,-2.15485 4.388767,-1.30196 z"
       id="path850"
       inkscape:connector-curvature="0"
       sodipodi:nodetypes="ccacc"
       inkscape:export-xdpi="200"
       inkscape:export-ydpi="200" />
    <path
       style="fill:#dedede;fill-opacity:1;stroke:none;stroke-width:0.77565998px;stroke-linecap:butt;stroke-linejoin:miter;stroke-opacity:1"
       d="m -52.807006,118.06387 2.553901,-0.0407 1.920937,2.67423 z"
       id="path852"
       inkscape:connector-curvature="0"
       inkscape:export-xdpi="200"
       inkscape:export-ydpi="200" />
    <path
       style="fill:#dedede;fill-opacity:1;stroke:none;stroke-width:0.71043432px;stroke-linecap:butt;stroke-linejoin:miter;stroke-opacity:1"
       d="m -54.446049,119.48732 c 0,0 -1.631441,1.26467 -0.176796,1.86085 1.454619,0.59617 1.454619,0.59617 1.454619,0.59617 0,0 1.292934,-0.91519 -1.277812,-2.45702 z"
       id="path854"
       inkscape:connector-curvature="0"
       inkscape:export-xdpi="200"
       inkscape:export-ydpi="200" />
    <path
       style="fill:#dedede;fill-opacity:1;stroke:none;stroke-width:0.76934338px;stroke-linecap:butt;stroke-linejoin:miter;stroke-opacity:1"
       d="m -41.875627,130.79391 1.499076,-4.71602 c 0,0 0.974259,1.68536 1.285382,2.60106 0.451254,1.32814 0.819833,4.12749 0.819833,4.12749 0,0 -0.947391,-1.47288 -1.695991,-1.84183 -0.572846,-0.28232 -1.9083,-0.17071 -1.9083,-0.17071 z"
       id="path858"
       inkscape:connector-curvature="0"
       sodipodi:nodetypes="ccacacc"
       inkscape:export-xdpi="200"
       inkscape:export-ydpi="200" />
    <path
       style="fill:#c6b57c;fill-opacity:1;stroke:none;stroke-width:0.4843879px;stroke-linecap:butt;stroke-linejoin:miter;stroke-opacity:1"
       d="m -92.40723,125.80397 c 0,0 10.634094,-2.26298 15.969209,-3.30482 0.767418,-0.14987 1.56488,-0.24301 2.381498,-0.30097 0.816619,-0.058 1.652294,-0.0805 2.495596,-0.088 1.6866,-0.015 3.404337,0.0292 5.062548,-0.0324 0.829104,-0.0308 1.643258,-0.0874 2.431489,-0.19201 0.788223,-0.10457 1.550741,-0.25644 2.275571,-0.47621 0.724832,-0.21978 1.411593,-0.50783 2.050507,-0.88423 0.638909,-0.3764 1.229592,-0.84165 1.760072,-1.41609 0.334934,-0.36269 0.560915,-0.77545 0.705254,-1.22614 0.144337,-0.45069 0.207395,-0.93917 0.216262,-1.45206 0.01776,-1.02578 -0.180385,-2.14995 -0.373775,-3.26976 -0.193387,-1.11981 -0.382429,-2.23528 -0.345909,-3.24276 0.01831,-0.50374 0.09339,-0.98065 0.251821,-1.41762 0.158433,-0.43697 0.40056,-0.83332 0.754281,-1.17772 2.426466,-2.36251 4.61603,-4.39559 6.675092,-6.19692 2.059058,-1.801345 3.987584,-3.37169 5.890079,-4.809613 1.902502,-1.437922 3.77942,-2.742941 5.736207,-4.015199 1.956785,-1.272259 3.993391,-2.51127 6.215315,-3.815617 1.227225,-0.720425 2.466935,-1.464937 3.725357,-2.185414 1.258425,-0.720472 2.535387,-1.417509 3.835483,-2.04335 1.300096,-0.625834 2.623446,-1.180438 3.97569,-1.616956 1.352239,-0.436513 2.732978,-0.754708 4.147839,-0.907212 1.359502,-0.146534 2.713675,-0.184767 4.063604,-0.13663 1.349929,0.04813 2.6959591,0.182344 4.038752,0.382283 1.3427929,0.199951 2.6823032,0.465413 4.0203929,0.7743 1.3380896,0.308888 2.6745573,0.661599 4.01037497,1.036557 2.67163723,0.749907 5.34130823,1.588693 8.01846883,2.345643 1.3385767,0.37848 2.6793153,0.73651 4.0229283,1.052441 1.343608,0.315935 2.690549,0.589941 4.041626,0.800456 1.973236,0.307459 3.955471,0.562164 5.944076,0.779623 1.988624,0.217453 3.983198,0.398069 5.98125,0.558566 3.996104,0.32099 8.005445,0.561052 12.003691,0.852486 3.998264,0.291433 7.985599,0.633865 11.938589,1.160093 1.976486,0.263113 3.944056,0.572628 5.90033,0.944008 1.956275,0.37138 3.901418,0.805213 5.831549,1.317902 1.35639,0.360291 2.690975,0.780488 4.009945,1.24756 1.318969,0.467074 2.621809,0.98094 3.91317,1.527284 2.582705,1.09269 5.119842,2.316044 7.650809,3.560732 2.530986,1.244687 5.056461,2.510577 7.614048,3.687167 1.278802,0.58829 2.565385,1.15416 3.865516,1.68416 1.300149,0.53 2.613113,1.02392 3.944403,1.46812 2.712158,0.90494 5.440115,1.95656 8.184111,3.00345 2.74401,1.04689 5.50443,2.08942 8.2802,2.97637 1.38788,0.44348 2.77983,0.84789 4.17563,1.19478 1.39581,0.34689 2.79575,0.63646 4.19948,0.84903 1.40372,0.21257 2.81078,0.34831 4.22241,0.38882 1.41162,0.0405 2.82784,-0.0148 4.24736,-0.18402 1.16621,-0.13906 2.43121,-0.44653 3.75279,-0.87821 1.32159,-0.43168 2.69916,-0.98779 4.09008,-1.62351 1.3909,-0.63572 2.79529,-1.35142 4.16949,-2.1026 1.37419,-0.75119 2.71868,-1.53739 3.9901,-2.31548 2.54287,-1.55617 4.79404,-3.07807 6.40963,-4.21043 1.61559,-1.13236 2.59486,-1.87504 2.59486,-1.87504 l -0.65552,-0.87992 c -1.56354,-1.387364 -3.32088,-2.437021 -5.37565,-2.873133 -4.50355,2.339133 -8.84765,5.732553 -13.8558,7.083373 -3.1428,0.84769 -6.50645,0.78569 -9.75151,0.52998 -6.08086,-0.47918 -12.52818,-0.93564 -17.89027,-3.84333 C 98.885295,98.6842 96.169,90.797304 90.154375,87.237625 79.496145,80.929673 66.71462,78.868859 54.515367,76.731907 40.735585,74.318097 26.584909,75.077492 12.622348,74.208497 2.4759605,73.577016 -7.8471996,70.244733 -17.812708,72.253894 c -5.625777,1.134224 -10.619961,4.516091 -15.411377,7.674913 -5.81607,3.834337 -10.411804,8.301039 -15.934235,13.522174 -3.796961,3.58981 -8.995141,5.348796 -13.226194,8.415039 -5.046737,3.65738 -9.577737,7.97901 -14.449537,11.86636 -5.133902,4.09649 -15.573179,12.07159 -15.573179,12.07159 z"
       id="path822-6"
       inkscape:connector-curvature="0"
       inkscape:export-xdpi="200"
       inkscape:export-ydpi="200" />
    <circle
       style="opacity:1;fill:#dedede;fill-opacity:1;stroke:none;stroke-width:0.4843879;stroke-opacity:1"
       id="path860"
       cx="-67.141548"
       cy="112.82307"
       r="5.0667214"
       transform="rotate(-0.91235584)"
       inkscape:export-xdpi="200"
       inkscape:export-ydpi="200" />
    <circle
       style="opacity:1;fill:#303030;fill-opacity:1;stroke:none;stroke-width:0.28480217;stroke-opacity:1"
       id="path860-3"
       cx="-67.071182"
       cy="112.9873"
       r="2.9790444"
       transform="rotate(-0.91235584)"
       inkscape:export-xdpi="200"
       inkscape:export-ydpi="200" />
    <path
       style="fill:#dedede;fill-opacity:1;stroke:none;stroke-width:0.70223969px;stroke-linecap:butt;stroke-linejoin:miter;stroke-opacity:1"
       d="m -59.814134,117.037 c 0.878235,-0.36053 2.559987,1.23974 2.559987,1.23974 l 0.30137,1.68007 -3.547001,-0.89411 c 0,0 0.01684,-1.75117 0.685644,-2.0257 z"
       id="path856"
       inkscape:connector-curvature="0"
       sodipodi:nodetypes="accca"
       inkscape:export-xdpi="200"
       inkscape:export-ydpi="200" />
    <path
       style="fill:#dedede;fill-opacity:1;stroke:none;stroke-width:0.53537607px;stroke-linecap:butt;stroke-linejoin:miter;stroke-opacity:1"
       d="m -58.644386,113.31356 c 0,0 1.379578,-1.16108 2.227724,-1.28073 0.761273,-0.10739 1.519694,0.82156 2.23952,0.55152 0.43967,-0.16495 0.808813,-1.15345 0.808813,-1.15345 0,0 1.93449,1.45094 2.763515,0.94131 0.416858,-0.25626 0.205034,-1.45359 0.205034,-1.45359 l 0.48752,-0.64822 3.639868,-1.61373 c 0,0 0.12656,2.27538 0.992465,2.47229 1.057754,0.24055 1.489033,-0.73218 2.399145,-2.19873 l 0.910106,-1.46655 c 0,0 2.838987,2.58958 4.605371,2.62333 1.545658,0.0296 2.704802,-1.50562 4.114637,-2.13988 0.520179,-0.23402 1.597878,-0.61232 1.597878,-0.61232 l 1.762761,-0.0281 c 0,0 -2.750631,0.0126 -0.514893,0.23205 l 0.176814,-0.72884 0.738228,0.76613 1.024781,-5.16678 4.907596,4.22614 c 0,0 0.464249,3.2271 1.112054,4.70146 0.939142,2.13742 3.929889,5.79748 3.929889,5.79748 l 0.673433,4.24171 c 0,0 -3.677446,0.6455 -5.473569,1.14366 -1.727152,0.47903 -5.077925,1.76844 -5.077925,1.76844 0,0 0.68048,-2.22694 -0.07924,-2.72638 -0.725234,-0.47679 -1.308349,-2.46952 -1.308349,-2.46952 0,0 1.917865,1.2382 2.761203,0.78593 0.642616,-0.34463 0.665226,-2.08399 0.665226,-2.08399 -0.013,0.26584 -0.02611,0.53168 -0.03916,0.79753 l -0.667556,-2.84162 c 0,0 -0.784216,0.35678 -1.022299,0.69253 -0.332343,0.46867 -0.440191,1.66649 -0.440191,1.66649 l -2.873207,-1.29972 c 0,0 -0.473326,-1.57717 -0.872521,-2.28977 -0.253428,-0.45239 -0.950348,-1.23157 -0.950348,-1.23157 v 0 c 0,0 -0.547015,0.12946 -0.716789,0.33043 -0.122221,0.14468 -0.146168,0.35914 -0.148273,0.54853 -0.01465,1.31226 0.942479,3.82256 0.942479,3.82256 l -0.02547,1.65908 -0.574855,1.09354 -2.469345,-0.62107 -1.631443,-3.05843 -1.918301,0.0306 c 0,0 -0.46246,-0.73217 -0.842181,-0.7809 -0.135531,1.7305 -1.406507,0.79342 -2.038937,0.4089 -0.992772,-0.60361 -0.908577,-1.74934 -1.991967,-0.84784 0.40111,1.46945 1.542847,2.59521 2.343895,3.7988 l -3.41309,0.83464 c 0,0 -1.410357,-1.3921 -1.799801,-2.27802 -0.196873,-0.44785 -0.227003,-0.9598 -0.233349,-1.44898 -0.0046,-0.35816 0.485711,-0.95991 0.143275,-1.06499 -0.371836,-0.11409 -0.519821,1.04466 -0.519821,1.04466 l 0.01574,0.98507 -0.931575,0.11854 c 0,0 -1.072456,-1.37423 -1.819654,-1.31936 -0.45513,0.4963 -1.052546,0.73293 -1.747894,0.96133 l -1.668153,-0.54389 c 0,0 -1.425587,0.34636 -2.021988,0.0322 -0.453899,-0.23909 -0.432045,-0.98568 -0.85017,-1.28293 -0.428086,-0.30434 -1.526554,-0.39057 -1.526554,-0.39057 z"
       id="path842"
       inkscape:connector-curvature="0"
       sodipodi:nodetypes="caacacccascaaccsccccaccacscacccaccaccaacccccccscccaaaccccccaacc"
       inkscape:export-xdpi="200"
       inkscape:export-ydpi="200" />
    <path
       style="fill:#303030;fill-opacity:1;stroke:none;stroke-width:0.4843879px;stroke-linecap:butt;stroke-linejoin:miter;stroke-opacity:1"
       d="m -58.208019,113.67049 c 0,0 1.526332,-1.07433 2.37737,-0.97626 0.73329,0.0845 1.065435,1.29992 1.803426,1.28504 0.625396,-0.0125 1.483134,-1.1497 1.483134,-1.1497 0,0 1.675013,1.15838 2.500325,0.85166 0.789385,-0.29336 1.279063,-2.17869 1.279063,-2.17869 l -0.666425,-0.59935 2.416814,-1.44608 c 0,0 0.01263,2.20915 0.838525,2.56724 1.053255,0.45665 2.297004,-0.13042 3.120433,-1.45729 l 0.823429,-1.32687 c 0,0 2.568606,2.34295 4.166766,2.37349 1.398451,0.0267 2.59443,-1.10951 3.722766,-1.93609 0.544213,-0.39867 1.431742,-1.4304 1.431742,-1.4304 l 1.594878,-0.0254 c 0,0 -2.364676,1.7737 -0.451899,1.08636 l 1.912774,-0.68734 0.667918,0.69316 1.319096,-5.55757 3.15794,3.84408 c 0,0 0.420032,2.91976 1.006142,4.2537 0.849698,1.93385 3.555613,5.24534 3.555613,5.24534 l -0.267102,3.85169 c 0,0 -3.178111,0.42511 -4.628216,1.05903 -0.858409,0.37526 -2.320759,1.58532 -2.320759,1.58532 0,0 0.167734,-1.12995 -0.02614,-1.64179 -0.29505,-0.77892 -1.625504,-1.89783 -1.625504,-1.89783 0,0 1.677809,1.01023 2.450429,0.66477 0.740703,-0.33118 1.091435,-2.1757 1.091435,-2.1757 l 2.174953,1.04453 c 0,0 -0.161839,-2.25562 -1.026899,-2.61117 -0.408334,-0.16783 -1.211394,0.53541 -1.211394,0.53541 l -0.603985,-2.57098 c 0,0 -1.522178,-0.3913 -2.063958,0.0329 -0.409308,0.32045 -0.398268,1.50778 -0.398268,1.50778 l -1.824936,0.31059 c 0,0 0.712512,-1.29791 0.39304,-1.83614 -0.292839,-0.49337 -1.650002,-0.48985 -1.650002,-0.48985 l 0.02147,-1.59563 c 0,0 -1.279558,-0.60882 -1.883047,-0.39229 -0.783997,0.28131 -1.384643,1.1353 -1.564251,1.94864 -0.256029,1.15942 0.852718,3.4585 0.852718,3.4585 l -0.0193,1.73635 -1.319405,-0.35435 -1.175842,-3.12492 -1.735604,0.0276 c 0,0 -0.216551,-1.40293 -0.775932,-1.58293 -0.519314,-0.16709 -1.077843,0.36766 -1.442199,0.77369 -0.294856,0.32858 -0.496566,1.22783 -0.496566,1.22783 l -1.609069,-0.86586 c 0,0 0.317249,-0.73478 0.07887,-0.93965 -0.656039,-0.56386 -1.993599,-0.0801 -2.524072,0.60323 -0.163011,0.21 -0.05404,0.54011 0.01263,0.79744 0.29148,1.12383 1.644181,3.07054 1.644181,3.07054 l -2.01705,0.0321 c 0,0 -1.50897,-1.42736 -1.539156,-2.36841 -0.01391,-0.43428 0.714501,-0.7084 0.638784,-1.13625 -0.09461,-0.53454 -0.696759,-1.11465 -1.236794,-1.05947 -0.498066,0.0509 -0.919488,1.18765 -0.919488,1.18765 l 0.01428,0.89125 -0.842856,0.10726 c 0,0 -0.343077,-0.99389 -0.769953,-1.20766 -0.238121,-0.11923 -0.555527,-0.0533 -0.796691,0.0596 -0.340471,0.15946 -0.784736,0.81014 -0.784736,0.81014 l -1.509276,-0.49209 c 0,0 -1.289816,0.31337 -1.829418,0.0291 -0.41067,-0.21632 -0.377773,-0.91129 -0.769201,-1.16075 -0.641738,-0.40898 -2.257568,-0.33941 -2.257568,-0.33941 z"
       id="path842-2"
       inkscape:connector-curvature="0"
       sodipodi:nodetypes="caacacccascaaccsccccaccacacaccaccaccaccaacccccaaccaaaccaaacccaaccaacc"
       inkscape:export-xdpi="200"
       inkscape:export-ydpi="200" />
    <path
       style="fill:none;stroke:#c6b57c;stroke-width:0.66822648;stroke-linecap:round;stroke-linejoin:miter;stroke-miterlimit:4;stroke-dasharray:none;stroke-opacity:1"
       d="m -28.476501,97.948008 c 0,0 40.929808,-3.304565 61.346987,-1.986005 14.646627,0.94589 20.972975,-0.510795 43.459547,7.073447 5.31229,1.88966 11.140049,4.4359 14.221836,9.15753 1.208776,1.85197 -1.081959,5.9385 1.042745,6.5522 14.058866,4.06074 23.381506,3.15273 35.150856,3.43249 11.57551,0.27514 34.69327,-1.72956 34.69327,-1.72956"
       id="path824"
       inkscape:connector-curvature="0"
       sodipodi:nodetypes="cacasac"
       inkscape:export-xdpi="200"
       inkscape:export-ydpi="200" />
    <path
       style="fill:#e3e3e3;fill-opacity:1;stroke:none;stroke-width:0.62376189px;stroke-linecap:butt;stroke-linejoin:miter;stroke-opacity:1"
       d="m 161.40056,100.84868 -5.06104,0.86527 -1.06794,5.46678 c 0,0 0.46137,1.69033 0.37972,2.54373 -0.0611,0.63967 -0.64102,1.81806 -0.64102,1.81806 l -1.41858,0.86007 -0.36072,2.83438 c 0,0 1.90326,2.17522 2.17143,3.53057 0.11112,0.56209 -0.27515,1.6968 -0.27515,1.6968 0,0 0.9063,0.64269 1.4043,0.88293 1.99112,0.96053 6.25757,2.19711 6.25757,2.19711 l 0.2819,-1.2741 2.34335,-0.822 c 0,0 0.32948,-2.62835 1.08978,-3.6422 0.68382,-0.91194 2.87026,-1.85875 2.87026,-1.85875 l 0.005,-3.50432 -2.014,-1.29724 v 0 c 0,0 1.09696,-1.13291 1.42069,-1.83567 0.42312,-0.91854 0.61675,-2.97062 0.61675,-2.97062 0,0 -1.66052,-1.06064 -2.3238,-1.77482 -0.74519,-0.80234 -1.79594,-2.75066 -1.79594,-2.75066 0,0 -1.75928,1.56554 -2.69963,1.25047 -0.79391,-0.266 -1.18308,-2.21579 -1.18308,-2.21579 z"
       id="path924"
       inkscape:connector-curvature="0"
       sodipodi:nodetypes="cccacccacacccaccccacacacc"
       inkscape:export-xdpi="200"
       inkscape:export-ydpi="200" />
    <path
       style="fill:#303030;fill-opacity:1;stroke:none;stroke-width:0.4843879px;stroke-linecap:butt;stroke-linejoin:miter;stroke-opacity:1"
       d="m 161.30596,103.27788 -3.9302,0.67194 -0.82931,4.24527 c 0,0 0.2877,1.30965 0.29488,1.97536 0.007,0.68426 -0.25933,2.03645 -0.25933,2.03645 l -1.34009,0.0433 -0.28011,2.20106 c 0,0 1.47801,1.68919 1.68624,2.7417 0.0864,0.43649 -0.21365,1.31766 -0.21365,1.31766 0,0 0.70378,0.49909 1.09051,0.68565 1.54622,0.74591 4.85936,1.70618 4.85936,1.70618 l 0.2189,-0.98941 1.81977,-0.63833 c 0,0 0.25587,-2.04107 0.84625,-2.82839 0.53105,-0.70817 2.22897,-1.44343 2.22897,-1.44343 l 0.004,-2.7213 -1.55506,-0.44455 -0.009,-0.56284 c 0,0 0.85187,-0.87977 1.10325,-1.4255 0.32861,-0.71331 0.47895,-2.30687 0.47895,-2.30687 0,0 -1.28948,-0.82365 -1.80456,-1.37825 -0.57868,-0.62306 -1.39463,-2.13605 -1.39463,-2.13605 0,0 -1.36621,1.21573 -2.09644,0.97106 -0.61651,-0.20656 -0.91873,-1.72069 -0.91873,-1.72069 z"
       id="path924-5"
       inkscape:connector-curvature="0"
       sodipodi:nodetypes="cccacccacacccaccccacacac"
       inkscape:export-xdpi="200"
       inkscape:export-ydpi="200" />
    <path
       style="fill:#303030;fill-opacity:1;stroke:none;stroke-width:0.4843879px;stroke-linecap:butt;stroke-linejoin:miter;stroke-opacity:1"
       d="m -56.918633,123.92545 1.224247,3.21798 c 0,0 4.870976,-0.54677 3.456262,-0.99344 0,0 -1.036017,-0.12865 -1.414714,-0.44667 -0.374892,-0.31482 -0.67763,-1.30297 -0.67763,-1.30297 0,0 -1.307664,0.0677 -1.925471,-0.1101 -0.242323,-0.0697 -0.662694,-0.3648 -0.662694,-0.3648 z"
       id="path844-3"
       inkscape:connector-curvature="0"
       sodipodi:nodetypes="ccsacac"
       inkscape:export-xdpi="200"
       inkscape:export-ydpi="200" />
    <path
       style="fill:#303030;fill-opacity:1;stroke:none;stroke-width:0.4843879px;stroke-linecap:butt;stroke-linejoin:miter;stroke-opacity:1"
       d="m -54.357305,119.91002 c 0,0 -1.112348,0.86228 -0.120537,1.26876 0.991789,0.40649 0.991789,0.40649 0.991789,0.40649 0,0 0.881547,-0.624 -0.871237,-1.67525 z"
       id="path854-6"
       inkscape:connector-curvature="0"
       inkscape:export-xdpi="200"
       inkscape:export-ydpi="200" />
    <path
       style="fill:#303030;fill-opacity:1;stroke:none;stroke-width:0.4843879px;stroke-linecap:butt;stroke-linejoin:miter;stroke-opacity:1"
       d="m -46.376595,121.66646 0.311333,1.87184 c 0,0 -1.158921,-0.004 -1.714607,-0.14649 -0.625698,-0.16023 -1.772285,-0.7833 -1.772285,-0.7833 0,0 0.678969,-1.55918 3.175559,-0.94205 z"
       id="path850-7"
       inkscape:connector-curvature="0"
       sodipodi:nodetypes="ccacc"
       inkscape:export-xdpi="200"
       inkscape:export-ydpi="200" />
    <path
       style="fill:#303030;fill-opacity:1;stroke:none;stroke-width:0.4843879px;stroke-linecap:butt;stroke-linejoin:miter;stroke-opacity:1"
       d="m -38.746346,118.51003 c 0,0 -1.070669,-1.3299 -1.706619,-1.0989 -1.175963,0.42715 -1.115931,3.5837 -1.115931,3.5837 l 2.542748,0.56946 c 0,0 -1.277632,-0.87241 -1.244263,-1.52855 0.03652,-0.71791 1.524065,-1.52571 1.524065,-1.52571 z"
       id="path848-5"
       inkscape:connector-curvature="0"
       sodipodi:nodetypes="caccac"
       inkscape:export-xdpi="200"
       inkscape:export-ydpi="200" />
    <path
       style="fill:#303030;fill-opacity:1;stroke:none;stroke-width:0.4843879px;stroke-linecap:butt;stroke-linejoin:miter;stroke-opacity:1"
       d="m -41.098331,130.33615 0.838967,-3.29776 1.292071,4.53067 c 0,0 -0.594452,-0.88181 -1.049906,-1.10937 -0.324478,-0.16211 -1.081134,-0.12356 -1.081134,-0.12356 z"
       id="path858-3"
       inkscape:connector-curvature="0"
       sodipodi:nodetypes="cccac"
       inkscape:export-xdpi="200"
       inkscape:export-ydpi="200" />
    <path
       style="fill:#303030;fill-opacity:1;stroke:none;stroke-width:0.4843879px;stroke-linecap:butt;stroke-linejoin:miter;stroke-opacity:1"
       d="m -59.542144,117.35609 c 0.60013,-0.25083 1.749796,0.86361 1.749796,0.86361 l 0.206303,1.16972 -2.424269,-0.6232 c 0,0 0.01117,-1.21914 0.46817,-1.41013 z"
       id="path856-5"
       inkscape:connector-curvature="0"
       sodipodi:nodetypes="accca"
       inkscape:export-xdpi="200"
       inkscape:export-ydpi="200" />
    <path
       style="fill:#303030;fill-opacity:1;stroke:none;stroke-width:0.4843879px;stroke-linecap:butt;stroke-linejoin:miter;stroke-opacity:1"
       d="m -52.049285,118.27972 1.594872,-0.0254 1.199596,1.67002 z"
       id="path852-2"
       inkscape:connector-curvature="0"
       inkscape:export-xdpi="200"
       inkscape:export-ydpi="200" />
    <path
       style="fill:#dedede;fill-opacity:1;stroke:none;stroke-width:0.56100601px;stroke-linecap:butt;stroke-linejoin:miter;stroke-opacity:1"
       d="m 69.05614,147.06657 3.278447,-3.56099 -0.03057,-1.9237 6.18785,-10.58877 c 0,0 -0.986998,0.32944 -1.282445,0.0204 -1.542688,-1.61345 0.406647,-6.68451 0.406647,-6.68451 l 1.501112,-2.40084 -2.699708,-3.96833 c 0,0 -0.475613,-0.47555 -0.324594,-0.67396 0.131998,-0.17339 0.643255,0.11655 0.643255,0.11655 l 1.061583,-1.37515 1.189132,-2.28268 -1.41069,0.0225 1.386835,-5.11551 c 0,0 -0.485663,-0.798 -0.461808,-1.2377 0.06225,-1.1475 1.547521,-3.08069 1.547521,-3.08069 l -1.470117,-3.71177 c 0,0 1.089026,-1.066992 1.383614,-1.719836 0.721245,-1.59837 1.126703,-3.411391 0.816627,-5.106422 -0.173739,-0.948922 -1.621026,-1.629391 -1.45212,-2.580174 0.131265,-0.738363 1.770159,-1.612812 1.770159,-1.612812 l -1.173991,-1.226364 -1.468323,-3.598597 -1.553342,-0.880763 -3.760486,-2.543418 -4.904526,2.568219 -2.929762,1.291717 0.657462,1.008213 -4.051539,3.346945 c 0,0 0.144446,0.912993 0.27811,1.353814 0.258759,0.852124 1.022185,1.583622 1.008308,2.474058 -0.01465,0.914678 -0.459063,1.869742 -1.114547,2.507865 -0.212258,0.206652 -0.821534,0.339029 -0.821534,0.339029 l 0.169711,2.6006 -1.806189,-0.65036 c 0,0 1.547613,5.172136 1.336014,7.802246 -0.07085,0.8794 -1.023979,1.63728 -0.858058,2.50378 0.156713,0.81846 1.616632,1.065 1.626848,1.89827 0.01098,0.95874 -1.523483,1.31674 -1.817686,2.22929 -0.29618,0.91862 -0.274247,2.03572 0.174288,2.8903 0.613414,1.16847 1.891594,1.95176 3.117469,2.44047 0.279703,0.11151 0.797753,-0.19822 0.899268,0.0853 0.220075,0.61454 -1.389032,1.38036 -1.389032,1.38036 l 0.04137,2.60264 -2.902739,2.98909 c 0,0 1.09428,1.87787 1.329276,2.9217 0.779866,3.46391 0.169711,10.6505 0.169711,10.6505 l 0.794677,1.57198 1.986683,3.92989 z"
       id="path956"
       inkscape:connector-curvature="0"
       sodipodi:nodetypes="ccccacccacccccaccaaacccccccccaaacccaaaaaaacccacccc"
       inkscape:export-xdpi="200"
       inkscape:export-ydpi="200" />
    <path
       style="fill:#303030;fill-opacity:1;stroke:none;stroke-width:0.4843879px;stroke-linecap:butt;stroke-linejoin:miter;stroke-opacity:1"
       d="m 69.358545,143.00425 2.652969,-3.26745 -0.02819,-1.76821 4.257555,-7.0384 c 0,0 -0.799364,0.26611 -1.040127,0.0165 -1.423725,-1.4757 0.318332,-6.14336 0.318332,-6.14336 l 1.213371,-2.20413 -1.425061,-4.55502 c 0,0 -0.900202,-0.23193 -1.05005,-0.60751 -0.215425,-0.53987 0.493554,-1.67248 0.493554,-1.67248 l 1.644314,-1.27465 0.174837,-2.08356 -1.14415,0.0183 1.901699,-4.71203 c 0,0 -1.113961,-0.58868 -1.162348,-1.12592 -0.104536,-1.16041 2.035528,-2.84146 2.035528,-2.84146 l -1.198799,-3.4142 c 0,0 0.881455,-0.97885 1.119289,-1.578405 0.582217,-1.467895 0.907964,-3.133634 0.653544,-4.692154 -0.142433,-0.872497 -1.317596,-1.50044 -1.18223,-2.374062 0.105085,-0.678437 1.43297,-1.479364 1.43297,-1.479364 l -0.9543,-1.129233 -1.197151,-3.310173 -1.26141,-0.812225 -3.054454,-2.344252 -3.187935,2.339622 -2.374071,1.182236 0.534965,0.927828 -3.280369,3.069367 c 0,0 0.186353,0.825039 0.227911,1.244835 0.07506,0.759156 0.171725,1.537503 0.03643,2.288273 -0.146095,0.811165 -0.516439,1.573477 -0.899671,2.303182 -0.393613,0.749456 -1.42303,2.103438 -1.42303,2.103438 l 0.142067,2.390637 -1.466107,-0.60089 c 0,0 1.816624,3.48384 1.854338,5.38049 0.01648,0.80037 -0.924441,1.53392 -0.691642,2.29986 0.264672,0.87086 2.002995,0.83103 2.10841,1.73509 0.142982,1.22644 -1.891557,1.76478 -2.241909,2.94879 -0.167514,0.56623 -0.129801,1.23736 0.132181,1.76655 0.500913,1.01174 1.880645,1.32695 2.532724,2.24852 0.38684,0.54668 0.870965,1.20055 0.757916,1.86063 -0.09538,0.55637 -1.12425,1.26637 -1.12425,1.26637 l 0.03808,2.39229 -2.349228,2.74242 c 0,0 0.891743,1.74098 1.083186,2.68776 0.529143,2.61703 0.127603,8.00895 0.127603,8.00895 l 0.647283,1.44624 1.618152,3.61558 z"
       id="path956-9"
       inkscape:connector-curvature="0"
       sodipodi:nodetypes="ccccacccacccccaccaaacccccccccaaacccaaaaaaacccacccc"
       inkscape:export-xdpi="200"
       inkscape:export-ydpi="200" />
    <path
       style="fill:#c6b57c;fill-opacity:1;stroke:none;stroke-width:0.4843879px;stroke-linecap:butt;stroke-linejoin:miter;stroke-opacity:1"
       d="m -95.310693,132.04404 c 0,0 2.522488,4.04792 4.402954,5.41953 3.875891,2.82707 13.408561,5.22918 13.408561,5.22918 l 5.524855,2.21111 -7.306922,-8.04773 c 0,0 -6.136056,-2.04108 -9.237563,-2.95247 -5.594851,-1.64407 -6.791885,-1.85962 -6.791885,-1.85962 z"
       id="path840"
       inkscape:connector-curvature="0"
       sodipodi:nodetypes="cacccsc"
       inkscape:export-xdpi="200"
       inkscape:export-ydpi="200" />
    <path
       style="fill:#b1a068;fill-opacity:1;stroke:none;stroke-width:0.4917877px;stroke-linecap:butt;stroke-linejoin:miter;stroke-opacity:1"
       d="m -80.883542,128.58834 c 1.966968,1.56068 2.750613,4.32685 4.775961,5.81199 1.475679,1.08208 3.314874,1.63078 5.098466,2.05559 0.677433,0.16137 1.439167,-0.0893 2.082371,0.17645 1.69887,0.70196 1.350806,2.66305 0.666167,3.78252 -1.307653,2.13822 -1.115479,2.84257 -3.333018,4.33533 -1.673776,1.12672 -4.766077,-0.23598 -6.336814,-1.76602 -1.475406,-1.43718 -0.261892,-4.54376 -1.814497,-5.90663 0.212113,-3.13657 -2.347432,-6.73596 -1.138636,-8.48924 z"
       id="path838"
       inkscape:connector-curvature="0"
       sodipodi:nodetypes="caasssacc"
       inkscape:export-xdpi="200"
       inkscape:export-ydpi="200" />
    <path
       style="fill:#dedede;fill-opacity:1;stroke:none;stroke-width:0.55930769px;stroke-linecap:butt;stroke-linejoin:miter;stroke-opacity:1"
       d="m 23.451659,147.07805 c 0,0 1.533718,-1.53335 2.531938,-1.62015 1.310841,-0.11387 3.642201,1.52184 3.642201,1.52184 l 1.738359,-2.08146 c 0,0 0.255226,-0.84318 0.364668,-1.26971 0.121197,-0.47239 0.323202,-1.427 0.323202,-1.427 l 1.821183,-3.84159 -0.656894,-1.0954 c 0,0 -1.015576,-0.20301 -1.197279,-0.61288 -0.196843,-0.44399 0.140968,-0.98349 0.378894,-1.40688 0.361721,-0.64366 1.527364,-1.60415 1.527364,-1.60415 l 1.917792,-0.0305 c 0,0 -2.864788,-3.19274 -2.912772,-5.08807 -0.02343,-1.01289 1.417153,-2.78727 1.417153,-2.78727 l -0.03021,-1.89532 c 0,0 -0.459868,-2.31781 -0.05401,-3.39578 0.524768,-1.39398 3.049676,-3.52419 3.049676,-3.52419 l -1.276478,-5.58808 c 1.037015,-3.50472 0.744569,-1.11466 1.478886,-4.64205 0,0 -1.522,-0.93633 -1.854136,-1.70829 -0.405952,-0.94359 -0.594374,-2.27524 0.04229,-3.08135 0.213265,-0.27001 1.000784,-0.25291 1.000784,-0.25291 l -0.865857,-2.750912 c 0,0 -0.482606,-1.23813 -0.486798,-1.888049 -0.0055,-0.843478 0.600269,-2.458294 0.600269,-2.458294 l 1.706229,-1.843981 c 0,0 -1.335483,-0.231624 -1.565078,-0.764988 -0.306945,-0.7131 0.683312,-1.446576 0.695413,-2.222843 0.02252,-1.442203 -1.162567,-4.16804 -1.162567,-4.16804 l 0.796764,-1.592517 -3.304573,-3.265023 -4.627825,-3.796886 -5.506644,4.116262 -4.24159,3.248212 c 0,0 1.024601,0.767523 1.025974,1.326516 9.89e-4,0.637869 -1.163336,1.519362 -1.163336,1.519362 0,0 1.454042,1.629041 1.503601,2.640773 0.110944,2.262333 -2.768856,6.205435 -2.768856,6.205435 0,0 1.565572,0.995203 1.581427,1.791623 0.0073,0.378328 -0.716742,0.880318 -0.716742,0.880318 l 0.316062,2.638682 0.844236,1.3874 -0.341437,1.50628 0.661929,1.41131 -1.524838,1.7621 -1.66522,-1.31634 -0.619126,1.27372 c 0,0 1.022203,4.09265 0.828729,6.15316 -0.08605,0.91656 -0.871733,2.6206 -0.871733,2.6206 l 1.553782,0.0543 0.762016,1.96266 c 0,0 -0.762968,1.54651 -0.784168,2.38223 -0.0073,0.24457 0.212587,0.46393 0.193822,0.70784 -0.07177,0.93288 -1.146695,2.56199 -1.146695,2.56199 0,0 3.113478,4.63598 2.395033,6.99211 -0.170443,0.55897 -1.442325,1.20784 -1.442325,1.20784 l 1.566341,0.84397 1.407596,2.34733 -0.985716,1.20056 c 0,0 1.503107,0.79951 1.613245,1.53314 0.116619,0.77595 -1.15486,2.05115 -1.15486,2.05115 l 0.08,1.54157 c 0,0 1.006715,1.41528 0.94846,2.19669 -0.04906,0.65859 -1.06821,1.75481 -1.06821,1.75481 l 2.39205,1.06781 z"
       id="path973"
       inkscape:connector-curvature="0"
       sodipodi:nodetypes="caccacccaaccaccacccaaccaccaaccccccacacaccccccccacccaacaccccaccaccc"
       inkscape:export-xdpi="200"
       inkscape:export-ydpi="200" />
    <path
       style="fill:#dedede;fill-opacity:1;stroke:none;stroke-width:0.56666785px;stroke-linecap:butt;stroke-linejoin:miter;stroke-opacity:1"
       d="m -15.386967,150.16214 6.0586187,-5.40013 c 0,0 0.7783868,-2.3631 1.6121669,-3.23127 0.869315,-0.90518 3.2983384,-1.81561 3.2983384,-1.81561 0,0 -0.7686801,-1.53729 -0.6292588,-2.3294 0.2669336,-1.51654 2.6550982,-3.78032 2.6550982,-3.78032 0,0 -2.2924983,-2.65777 -2.7906493,-4.28908 -0.2106213,-0.68972 -0.022976,-1.44215 -0.034455,-2.16322 -0.017026,-1.06827 -0.1194936,-2.13859 -0.051042,-3.20479 0.086668,-1.35001 0.5830029,-4.01628 0.5830029,-4.01628 l -0.6096752,-0.46391 c 0,0 -0.1727319,-0.73142 -0.01666,-1.04155 0.1859647,-0.36937 0.5952782,-0.70114 1.0082421,-0.72288 0.8927598,-0.047 2.3316931,1.32525 2.3316931,1.32525 l 0.8497625,-7.48099 c 0,0 -0.8796991,-3.78878 -0.644985,-5.67966 0.1550102,-1.24875 1.33008927,-3.5329 1.33008927,-3.5329 0,0 -1.23150477,-1.75392 -1.05978157,-2.707879 0.1287755,-0.715331 1.45288548,-1.625934 1.45288548,-1.625934 0,0 -2.52880518,-1.736942 -3.09896528,-3.07611 -0.3138926,-0.737257 -0.038281,-2.403587 -0.038281,-2.403587 l 0.6238325,-1.452455 c 0,0 -0.7319113,-0.887645 -0.8545629,-1.428904 -0.3706039,-1.635462 0.4687142,-5.0089 0.4687142,-5.0089 l -0.5357254,-2.202626 -2.0769486,-4.770758 -3.6846979,-4.582895 -5.5366403,5.291742 c 0,0 0.851908,1.833406 0.273217,2.387048 -0.30004,0.28705 -1.230149,-0.19625 -1.230149,-0.19625 l -1.065488,4.925592 c 0,0 0.652257,0.743599 0.850739,1.188556 0.444993,1.410556 0.855253,3.537085 -0.0547,3.6824 0,0 0.217973,1.565631 -0.0193,2.291817 -0.350561,1.072908 -1.976261,2.749657 -1.976261,2.749657 -0.219189,3.566837 -2.584546,6.382336 -2.862675,6.791136 -0.104042,-0.0178 -0.191949,-0.25181 -0.191949,-0.25181 0,0 2.526379,4.66383 1.210755,6.3847 -0.445429,0.58263 -2.193508,0.17131 -2.193508,0.17131 l -0.0772,2.76391 c 0,0 1.854367,0.85796 2.252304,1.71318 0.993721,2.13564 -0.34972,7.05788 -0.34972,7.05788 0,0 0.927936,1.7558 0.688905,2.63365 -0.296667,1.08953 -2.453972,2.60356 -2.453972,2.60356 0,0 0.468184,2.83813 0.806824,4.23457 0.541174,2.23161 1.953673,6.60606 1.953673,6.60606 l -0.522507,2.01181 c 0,0 1.356326,2.07319 1.530716,3.26137 0.27517,1.87482 -0.834686,5.62309 -0.834686,5.62309 z"
       id="path975"
       inkscape:connector-curvature="0"
       sodipodi:nodetypes="ccacacaaaccaaccacacaccacccccaccccacccaccacacaccacc"
       inkscape:export-xdpi="200"
       inkscape:export-ydpi="200" />
    <path
       style="fill:#303030;fill-opacity:1;stroke:none;stroke-width:0.4843879px;stroke-linecap:butt;stroke-linejoin:miter;stroke-opacity:1"
       d="m 24.15013,145.63351 c 0,0 1.192482,-1.48337 2.035912,-1.50375 0.863514,-0.0211 2.156321,1.43698 2.156321,1.43698 l 2.175984,-1.94738 c 0,0 -1.297458,-0.58516 -1.269063,-1.15685 0.03735,-0.75442 1.817631,-1.35315 1.817631,-1.35315 l 0.693308,-2.65945 -0.531249,-1.02146 c 0,0 -0.857143,-0.21491 -0.965487,-0.57315 -0.238053,-0.78719 0.625588,-1.53081 1.068082,-2.22401 0.346306,-0.54248 1.226882,-1.49087 1.226882,-1.49087 l 1.544501,-0.0246 c 0,0 -2.313657,-2.9791 -2.356094,-4.7443 -0.02233,-0.94331 1.135747,-2.59291 1.135747,-2.59291 l -0.02801,-1.76516 c 0,0 -0.375031,-2.15946 -0.05035,-3.16255 0.419848,-1.29715 2.449114,-3.27593 2.449114,-3.27593 l -1.039303,-5.20668 0.503129,-0.74368 -1.116103,-0.79145 -0.387644,-1.24446 1.681056,-0.68887 0.472665,-2.65593 c 0,0 -1.231734,-0.91548 -1.496717,-1.59462 -0.34768,-0.89113 -0.550363,-2.10756 0.02783,-2.86954 0.168979,-0.22269 0.805497,-0.23353 0.805497,-0.23353 l -0.702938,-2.563634 c 0,0 -0.391288,-1.15822 -0.395828,-1.759296 -0.0055,-0.779218 0.478523,-2.288181 0.478523,-2.288181 l 1.370469,-1.713857 c 0,0 -1.075351,-0.26946 -1.262015,-0.715566 -0.27562,-0.658664 0.547086,-1.354757 0.55558,-2.068712 0.01648,-1.33231 -0.94467,-3.883983 -0.94467,-3.883983 l 0.638513,-1.481499 -1.887877,-3.05973 -3.734782,-3.545286 -4.426699,3.82239 -3.423956,2.114389 c 0,0 0.82743,0.740957 0.828949,1.237429 0.0017,0.56447 -0.933869,1.412635 -0.933869,1.412635 0,0 1.30663,2.172728 1.230635,3.364465 -0.138405,2.167718 -2.997664,5.785928 -2.997664,5.785928 0,0 1.263387,0.970563 1.277265,1.67169 0.0073,0.333431 -0.575499,0.818395 -0.575499,0.818395 l 0.288582,4.262263 0.697061,2.1959 -0.271941,1.4021 0.535918,1.31566 -1.224557,1.63796 -1.343758,-1.22923 -0.496098,1.18496 c 0,0 0.619839,1.38592 0.622329,2.12352 0.0018,0.84547 -0.696805,2.4388 -0.696805,2.4388 l 1.251488,0.0536 0.617643,1.82933 c 0,0 -0.610997,1.44918 -0.626779,2.21697 -0.0055,0.22602 0.150306,0.43367 0.157629,0.6596 0.05529,1.72069 -0.875304,5.09002 -0.875304,5.09002 0,0 2.516852,4.32369 1.942946,6.51649 -0.136208,0.52023 -1.159199,1.12196 -1.159199,1.12196 l 1.263205,0.78912 1.138365,2.18887 -0.791473,1.11609 c 0,0 1.878961,1.3012 2.096821,2.32074 0.205777,0.963 -0.911607,2.81003 -0.911607,2.81003 l -0.741347,-0.35601 c 0,0 0.813625,1.32003 0.768277,2.04763 -0.03826,0.61325 -0.856794,1.6321 -0.856794,1.6321 l 1.92863,0.99923 z"
       id="path973-1"
       inkscape:connector-curvature="0"
       sodipodi:nodetypes="caccacccaaccaccacccccccaaccaccaaccccccacacaccccccccacccaacaccccaccaccc"
       inkscape:export-xdpi="200"
       inkscape:export-ydpi="200" />
    <path
       style="fill:#303030;fill-opacity:1;stroke:none;stroke-width:0.4843879px;stroke-linecap:butt;stroke-linejoin:miter;stroke-opacity:1"
       d="m -14.663254,147.50222 4.069492,-3.15458 c 0,0 0.578726,-2.14503 1.2770097,-2.96301 0.6716482,-0.78677 2.6219615,-1.66022 2.6219615,-1.66022 0,0 -0.5830066,-2.39181 -0.2445471,-3.51727 0.3704592,-1.23189 2.34674,-3.06363 2.34674,-3.06363 0,0 -1.6246929,-2.46298 -1.97432,-3.86758 -0.1599167,-0.64241 -0.02109,-1.32386 -0.031617,-1.98579 -0.015561,-0.98064 -0.099428,-1.96256 -0.046849,-2.94192 0.066347,-1.23613 0.4562705,-3.68559 0.4562705,-3.68559 l -1.2714025,-1.30395 c 0,0 -0.1302217,-0.65884 -0.015195,-0.95613 0.4066039,-1.05117 1.1956054,-2.33218 2.3148811,-2.46456 0.7361403,-0.0871 1.858607,1.22104 1.858607,1.22104 l -0.08081,-5.07481 c 0,0 -0.6125953,-3.47004 -0.5244443,-5.21487 0.086155,-1.70521 1.0235729,-5.01883 1.0235729,-5.01883 0,0 -0.9927631,-1.62345 -0.8488509,-2.487739 0.1031449,-0.619466 1.1533443,-1.489696 1.1533443,-1.489696 0,0 -2.0232342,-1.660523 -2.4727602,-2.829722 -0.2639715,-0.686574 -0.035132,-2.206436 -0.035132,-2.206436 l 0.4937517,-1.332063 c 0,0 -0.6065501,-0.82584 -0.6830117,-1.313316 -0.22803,-1.453777 0.7399208,-4.352212 0.7399208,-4.352212 l -0.036304,-2.279985 -1.6625255,-4.38333 -2.9419321,-4.214002 -4.3821952,4.470523 c 0,0 1.228832,2.892468 0.221566,3.457164 -0.581798,0.326169 -1.636798,-1.151001 -1.636798,-1.151001 l -0.601023,3.83503 c 0,0 0.528748,0.691137 0.679497,1.092682 0.296152,0.788856 0.407563,2.49477 0.407563,2.49477 0,0 0.848896,-0.06931 1.106731,0.203075 0.15263,0.161235 0.192303,0.466883 0.08409,0.660757 -0.299702,0.536957 -1.679889,0.762419 -1.679889,0.762419 0,0 1.311734,1.30836 1.210735,2.114151 -0.142305,1.135398 -2.388432,2.465732 -2.388432,2.465732 0,0 0.513608,1.121021 0.394679,1.685742 -0.172842,0.820681 -1.512885,2.010393 -1.512885,2.010393 l -0.742504,-0.429576 c 0,0 0.624647,1.4408 0.401705,2.12703 -0.235948,0.72628 -1.667002,1.57145 -1.667002,1.57145 0,0 2.399603,4.96659 0.990328,6.75235 -0.624435,0.79125 -3.011951,0.26866 -3.011951,0.26866 l -0.203077,1.10673 c 0,0 2.650908,1.56432 3.209411,2.89155 0.838227,1.99199 -0.26467,6.47808 -0.26467,6.47808 0,0 0.742048,1.61353 0.553485,2.41888 -0.234029,0.99955 -1.948312,2.38516 -1.948312,2.38516 0,0 0.411009,2.59644 0.650461,3.88867 0.486282,2.6243 1.596281,7.8462 1.596281,7.8462 l -0.412008,1.84572 c 0,0 1.083819,1.92686 1.224789,2.99673 0.226491,1.71888 -0.65349,5.16007 -0.65349,5.16007 z"
       id="path975-2"
       inkscape:connector-curvature="0"
       sodipodi:nodetypes="ccacacaaaccaaccacacaccacccccaccacaacacaccacaccacacaccacc"
       inkscape:export-xdpi="200"
       inkscape:export-ydpi="200" />
    <path
       style="fill:#ea8c6e;fill-opacity:1;stroke:none;stroke-width:0.4843879px;stroke-linecap:butt;stroke-linejoin:miter;stroke-opacity:1"
       d="m -26.413691,133.19902 c 3.942886,-3.41755 8.96437,-5.41171 13.769768,-7.44497 4.4473636,-1.88177 9.0612149,-3.52266 13.8190717,-4.34903 5.3323741,-0.92616 16.2242463,-0.63373 16.2242463,-0.63373 0,0 -9.6173849,6.90796 -14.2833706,10.54987 -5.7718456,4.50506 -15.0745634,13.99636 -16.9502494,13.97058 -1.875686,-0.0258 -7.908214,-2.52311 -11.15249,-4.98361 -1.471116,-1.1157 -3.489017,-2.41462 -3.539925,-4.26026 -0.03255,-1.18185 1.219541,-2.07447 2.112949,-2.84885 z"
       id="path834"
       inkscape:connector-curvature="0"
       sodipodi:nodetypes="aaacazaaa"
       inkscape:export-xdpi="200"
       inkscape:export-ydpi="200" />
    <path
       style="fill:#c6b57c;fill-opacity:1;stroke:none;stroke-width:0.4843879px;stroke-linecap:butt;stroke-linejoin:miter;stroke-opacity:1"
       d="m -90.045485,123.84303 c 3.480687,-0.40445 6.673528,2.49624 9.411662,4.68288 1.931327,1.54233 2.700988,4.2757 4.689625,5.7434 1.448929,1.06937 3.254707,1.61174 5.00588,2.03168 0.66512,0.15952 1.412966,-0.0881 2.044491,0.17456 1.668022,0.6938 2.374101,2.65121 1.702035,3.75733 -1.283637,2.11266 -2.439554,3.41162 -4.78253,4.67098 -1.747227,0.93912 -4.182605,-0.75057 -5.524854,-2.21111 -1.376472,-1.49777 -0.257584,-4.48979 -1.782067,-5.83662 -1.275835,-1.12714 -2.034198,-2.35757 -3.83869,-3.92488 -0.826809,-0.71813 -3.235143,-2.75115 -4.41932,-3.60511 -2.44125,-1.76048 -4.867922,-3.52178 -4.867922,-3.52178 0,0 1.345222,-1.84322 2.36169,-1.96133 z"
       id="path838-7"
       inkscape:connector-curvature="0"
       sodipodi:nodetypes="saaasssassscs"
       inkscape:export-xdpi="200"
       inkscape:export-ydpi="200" />
    <ellipse
       style="opacity:1;fill:#dedede;fill-opacity:1;stroke:none;stroke-width:0.09273078;stroke-opacity:1"
       id="path860-3-0"
       cx="-67.123192"
       cy="111.08882"
       rx="1.6787241"
       ry="0.56044871"
       transform="rotate(-0.91235584)"
       inkscape:export-xdpi="200"
       inkscape:export-ydpi="200" />
    <path
       style="fill:#ea8c6e;fill-opacity:1;stroke:none;stroke-width:0.4843879px;stroke-linecap:butt;stroke-linejoin:miter;stroke-opacity:1"
       d="m -20.217599,156.93573 c 0,0 5.967448,-0.97041 8.906568,-0.51719 3.8585848,0.59499 8.3276067,1.32402 10.94518348,4.1698 0.9248639,1.00551 -0.62602753,2.6888 -0.39861083,4.014 0.87223512,5.08267 3.95633655,8.04555 4.02067855,10.68728 0.026528,1.09102 1.6071853,2.13816 1.8309094,3.2017 0.1030167,0.48969 -0.086027,1.01287 0.02391,1.50106 0.2922676,1.29812 1.6531447,3.63343 1.6531447,3.63343 0,0 -5.0297481,-1.23688 -7.17336372,-2.60713 C -5.198972,177.95692 -8.85457,173.34003 -12.425747,168.91701 c -2.992774,-3.70666 -7.791846,-11.98128 -7.791846,-11.98128 z"
       id="path832"
       inkscape:connector-curvature="0"
       sodipodi:nodetypes="cassssacaac"
       inkscape:export-xdpi="200"
       inkscape:export-ydpi="200" />
  </g>
</svg>
