<?xml version="1.0" encoding="UTF-8" standalone="no"?>
<!-- Generator: Adobe Illustrator 21.1.0, SVG Export Plug-In . SVG Version: 6.00 Build 0)  -->

<svg
   xmlns:dc="http://purl.org/dc/elements/1.1/"
   xmlns:cc="http://creativecommons.org/ns#"
   xmlns:rdf="http://www.w3.org/1999/02/22-rdf-syntax-ns#"
   xmlns:svg="http://www.w3.org/2000/svg"
   xmlns="http://www.w3.org/2000/svg"
   xmlns:sodipodi="http://sodipodi.sourceforge.net/DTD/sodipodi-0.dtd"
   xmlns:inkscape="http://www.inkscape.org/namespaces/inkscape"
   version="1.1"
   id="svg8"
   inkscape:version="0.92.2 5c3e80d, 2017-08-06"
   sodipodi:docname="red drum.svg"
   x="0px"
   y="0px"
   viewBox="0 0 816.9 341"
   style="enable-background:new 0 0 816.9 341;"
   xml:space="preserve"
   inkscape:export-filename="/mnt/826CA0866CA07717/MEGASync/Graphics/Species/red drum.png"
   inkscape:export-xdpi="180"
   inkscape:export-ydpi="180"><metadata
     id="metadata41"><rdf:RDF><cc:Work
         rdf:about=""><dc:format>image/svg+xml</dc:format><dc:type
           rdf:resource="http://purl.org/dc/dcmitype/StillImage" /><dc:title></dc:title></cc:Work></rdf:RDF></metadata><defs
     id="defs39" /><style
     type="text/css"
     id="style2">
	.st0{fill:#9EB4C6;}
	.st1{fill:#90A5B2;}
	.st2{fill:#C9C9C9;}
	.st3{fill:#EAEAEA;}
	.st4{fill:#D8D6D6;}
	.st5{fill:none;stroke:#9E9E9E;stroke-width:3;stroke-linecap:round;stroke-miterlimit:10;}
	.st6{fill:#EFEF89;}
	.st7{fill:#D6D37F;}
	.st8{fill:#DBD561;}
</style><sodipodi:namedview
     bordercolor="#666666"
     borderopacity="1.0"
     fit-margin-bottom="0"
     fit-margin-left="0"
     fit-margin-right="0"
     fit-margin-top="0"
     id="base"
     inkscape:current-layer="layer1"
     inkscape:cx="408.45001"
     inkscape:cy="170.5"
     inkscape:document-units="mm"
     inkscape:pageopacity="0.0"
     inkscape:pageshadow="2"
     inkscape:window-height="1044"
     inkscape:window-maximized="1"
     inkscape:window-width="1920"
     inkscape:window-x="0"
     inkscape:window-y="0"
     inkscape:zoom="1.7211408"
     pagecolor="#ffffff"
     showgrid="false"
     showguides="false" /><g
     id="g28"
     transform="rotate(11.188959,421.61517,182.68834)"><g
       id="layer1"
       transform="translate(23.529415,-65.90831)"
       inkscape:groupmode="layer"
       inkscape:label="Layer 1"><path
         id="path8189"
         inkscape:connector-curvature="0"
         sodipodi:nodetypes="sccaassass"
         class="st2"
         d="m 678.73372,151.85669 c 16.70915,-13.782 34.15008,-23.66112 50.00548,-34.27204 6.46412,-4.39073 29.2715,-19.880232 34.02812,-15.48951 0,0 -1.95143,12.44039 -2.31733,18.66059 -1.09768,18.05075 -2.80518,36.34544 0.24392,54.0303 4.1468,24.39292 10.24503,43.66332 24.51489,69.88571 1.34161,2.56126 -15.61147,2.68322 -18.41666,2.43929 -25.97845,-2.0734 -40.00437,-3.04911 -59.51871,-7.31787 -12.68432,-2.80519 -25.61256,-2.4393 -37.19919,-11.70861 -20.0022,-15.97736 -11.46468,-59.64068 8.65948,-76.22786 z"
         style="fill:#d5bf9b;fill-opacity:1;stroke-width:1.21964574" /><path
         id="path8168"
         inkscape:connector-curvature="0"
         sodipodi:nodetypes="cassasscc"
         class="st2"
         d="m 226.00119,343.70698 c 0,0 18.17272,29.14953 30.24722,41.10207 13.29414,13.29413 29.63739,24.02702 45.61475,33.17436 5.12252,2.92715 14.63575,6.09823 17.31897,4.14679 1.7075,-1.21964 -3.53697,-9.87913 -4.26875,-15.00164 -0.60983,-4.63465 1.46356,-9.75716 0.48785,-13.90396 -4.87858,-19.14844 -5.00055,-26.22239 -9.51324,-40.61421 -2.68322,-8.41555 -45.37082,-15.61146 -45.37082,-15.61146 z"
         style="fill:#d5bf9b;fill-opacity:1;stroke-width:1.21964574" /><path
         id="path8170"
         inkscape:connector-curvature="0"
         sodipodi:nodetypes="caasaasaacc"
         class="st2"
         d="m 463.71016,299.67776 c 0,0 26.83221,7.80574 40.37027,11.46468 22.44149,6.09822 44.39512,14.75771 67.44643,17.19701 6.83001,0.73178 20.00218,2.31732 20.73397,-0.7318 1.09769,-5.12251 -3.04911,-21.70969 -5.8543,-32.32061 -1.09769,-4.26876 -3.29304,-8.17163 -4.51269,-12.44039 -1.34161,-4.51268 -1.58554,-8.90341 -3.29304,-13.78199 -1.21965,-3.53698 -6.70805,-4.75662 -10.61092,-5.73234 -5.12251,-1.34161 -10.85485,0.60982 -16.09933,-0.36589 -5.73234,-0.97572 -16.58718,-5.61038 -16.58718,-5.61038 z"
         style="fill:#d5bf9b;fill-opacity:1;stroke-width:1.21964574" /><path
         id="path8212"
         inkscape:connector-curvature="0"
         sodipodi:nodetypes="ccscscscaacaacaacaacaacacacc"
         class="st2"
         d="m 196.60773,186.73856 2.43928,-10.61092 c 0,0 2.4393,4.26876 3.29306,3.04912 2.68321,-4.39073 13.41609,-42.80957 13.41609,-42.80957 0,0 0.85376,10.00109 1.82947,7.68377 l 17.31897,-39.88242 c 0,0 1.58554,10.0011 3.78091,10.0011 2.68322,0 13.66003,-22.197557 13.66003,-22.197557 0,0 -0.24393,6.464123 1.70751,8.781447 2.19536,2.56126 6.34216,4.26876 9.51323,3.17108 2.68322,-0.97572 4.75662,-7.073944 4.75662,-7.073944 0,0 -1.09768,5.976264 0.36589,8.415554 1.34162,2.43929 4.26877,5.00055 6.95198,4.63466 2.68322,-0.36589 5.61038,-6.09823 5.61038,-6.09823 0,0 -0.3659,9.39127 1.82946,13.17217 1.21965,1.95144 3.29305,4.26876 5.48841,4.1468 2.80518,-0.12197 6.2202,-5.85431 6.2202,-5.85431 0,0 -0.60983,7.56181 1.09767,10.73289 0.24394,0.48785 0.73179,1.09768 1.34161,1.09768 2.4393,-0.12196 5.12251,-5.48841 5.12251,-5.48841 0,0 0.3659,11.09878 3.78091,14.87969 0.48786,0.48785 1.21965,0.85374 1.82947,0.60981 1.95143,-0.60981 3.78091,-4.87858 3.78091,-4.87858 0,0 -1.34162,11.22074 2.68321,12.31843 2.31733,0.60982 4.75662,-5.36644 4.75662,-5.36644 0,0 0.48786,5.00055 1.95144,6.95198 2.92714,3.78089 12.31841,7.43984 12.31841,7.43984 z"
         style="fill:#d5bf9b;fill-opacity:1;stroke-width:1.21964574" /><path
         id="path8210"
         inkscape:connector-curvature="0"
         sodipodi:nodetypes="accaaaaasaa"
         class="st2"
         d="m 334.30574,169.29763 c -10.61092,-15.61147 7.43984,-32.07669 19.75827,-52.93263 1.58554,0.36589 -0.60983,4.1468 0.85374,4.63465 10.61092,-6.46412 13.782,-18.05076 23.78309,-21.831659 14.63576,-5.488404 31.3449,-0.609824 46.8344,0.975719 21.83166,2.19536 43.4194,6.95198 64.88517,11.95253 20.36808,4.63465 40.6142,9.75717 60.2505,16.58718 14.02592,4.87858 28.17381,10.00109 41.22403,17.31897 5.36644,3.04912 15.36753,4.75662 14.87967,10.85485 -0.85374,8.78144 -19.2704,15.12361 -30.73506,18.05075 -77.93537,20.12416 -196.48495,61.10427 -241.73381,-5.61036 z"
         style="fill:#d5bf9b;fill-opacity:1;stroke-width:1.21964574" /><path
         id="path8164"
         inkscape:connector-curvature="0"
         sodipodi:nodetypes="assaaaaaaaaaasssssca"
         class="st3"
         d="m 57.324176,340.77982 c -7.561805,3.17108 -22.441484,10.367 -22.441484,10.367 0.487858,12.44039 23.539165,10.12306 35.979552,10.00109 32.808476,-0.12196 51.591026,0.24394 77.325546,-1.21964 30.73508,-1.7075 61.47014,-4.63465 91.96129,-8.90342 25.73453,-3.65893 51.10316,-8.78145 76.4718,-14.14789 44.51707,-9.39127 88.30235,-21.70969 132.81943,-31.46686 4.87858,-1.09768 10.00109,-1.46357 14.87967,-2.92715 12.80628,-4.02483 25.12471,-9.87913 36.95528,-16.22129 14.39181,-7.5618 26.8322,-18.41665 41.22402,-25.97846 18.53862,-9.75716 37.68706,-18.41665 57.56729,-24.75881 11.70859,-3.78089 23.66112,-6.70805 35.85758,-7.80573 8.41556,-0.73178 16.95308,0.24393 25.24667,1.21965 9.26931,0.97572 19.2704,8.78145 27.68596,4.75662 17.07505,-8.04966 21.22183,-18.29469 20.00219,-28.90562 -0.36589,-2.80517 -1.95143,-6.22018 -2.92714,-8.9034 -10.24503,-28.90561 -59.64069,10.48894 -89.40005,16.34325 -81.83823,16.22129 -237.58701,2.0734 -336.01242,23.17327 -84.0336,18.05076 -123.55012,66.34874 -123.55012,66.34874 0,0 -66.714628,25.00274 -99.645064,39.02865 z"
         style="fill:#eaeaea;stroke-width:1.21964574" /><path
         id="path8162"
         inkscape:connector-curvature="0"
         sodipodi:nodetypes="csacaaassssscacc"
         class="st4"
         d="m 27.320888,340.04804 c 2.683221,2.56126 8.171627,2.0734 11.952529,1.7075 7.683768,-0.73178 16.709148,0 25.002739,-0.12196 8.415557,-0.12196 21.465768,-0.97572 25.124705,-0.73178 75.740009,-5.36645 144.406069,-25.12472 216.243209,-39.6385 58.42103,-11.95252 116.84206,-24.51487 174.65327,-39.15063 41.10207,-10.36698 80.98449,-25.49059 122.45245,-34.27205 25.36863,-5.36643 64.03372,-12.2232 76.83768,-11.09877 14.85693,1.30471 27.97677,0.19282 28.67087,-2.1666 2.7244,-9.26118 -1.67551,-17.62534 -3.91205,-28.56847 -5.60867,-27.44239 -36.34546,-9.87914 -67.93428,-3.90287 -35.73563,6.70805 -79.64287,5.61037 -111.35366,6.22019 -104.64562,2.0734 -313.81488,8.65949 -313.81488,8.65949 0,0 -106.84097,71.95909 -157.578232,111.71955 -9.025379,7.07394 -21.587731,12.0745 -26.10042,22.68541 1.951433,2.19537 -2.195364,2.56126 -0.24393,8.65949 z"
         style="fill:#e3d5b7;fill-opacity:1;stroke-width:1.21964574" /><path
         id="path8159"
         inkscape:connector-curvature="0"
         sodipodi:nodetypes="caccssccsaac"
         class="st4"
         d="M 27.320888,340.04804 C 22.32034,318.94816 49.762371,289.9206 69.154739,271.50394 125.01451,218.20542 195.14415,175.63979 272.22576,160.27225 c 95.49827,-18.17273 195.87512,-19.88023 289.78786,7.68377 29.63738,6.95197 61.958,13.17217 89.76593,2.92715 14.02592,-5.12251 35.49169,-37.32117 42.56563,-14.51378 3.04912,10.00109 8.22607,23.45129 9.51324,27.19809 -49.63959,13.90397 -100.25488,25.85649 -151.96787,25.85649 -65.12909,2.92715 -130.01424,-3.7809 -194.8994,-5.12251 -73.78857,-1.46358 -146.96731,16.83111 -213.43802,46.46851 -29.02757,12.92824 -52.3228,36.10151 -77.32554,55.85978 -13.538069,10.61091 -18.416652,13.05021 -38.906702,33.41829 z"
         style="fill:#e0cca1;fill-opacity:1;stroke-width:1.21964574" /><path
         id="path8166-3"
         inkscape:connector-curvature="0"
         sodipodi:nodetypes="casaasac"
         class="st2"
         d="m 201.12042,298.94598 c 25.00274,-14.26985 35.61366,-22.56345 55.24995,-29.88132 14.63576,-5.36645 40.24831,-16.2213 45.61475,-10.0011 5.48841,6.46412 -3.415,17.07504 -7.80573,24.39292 -8.29359,13.782 -19.39237,26.95417 -33.41829,34.7599 -12.19646,6.83001 -22.31952,8.53753 -40.9801,8.53753 -2.68322,0 0.85375,-5.73234 -0.12196,-8.17164 -3.41502,-8.29359 -12.80628,-9.26931 -18.53862,-19.63629 z"
         style="fill:#d5bf9b;fill-opacity:1;stroke-width:1.21964574" /><path
         style="opacity:1;fill:#eaeaea;fill-opacity:1;stroke:none;stroke-width:3.98737764;stroke-linecap:round;stroke-linejoin:round;stroke-miterlimit:4;stroke-dasharray:none;stroke-opacity:1"
         d="m 685.17991,170.69144 c 1.24059,6.27188 -2.36471,14.75491 -8.63662,15.99552 -6.27188,1.24061 -12.36197,-2.83804 -13.60258,-9.10994 -1.24061,-6.27189 2.83806,-12.36198 9.10994,-13.60259 6.27187,-1.24061 11.88864,0.44513 13.12926,6.71701 z"
         id="path898"
         inkscape:connector-curvature="0"
         sodipodi:nodetypes="sssss" /><path
         style="opacity:1;fill:#454545;fill-opacity:1;stroke:none;stroke-width:3.05156446;stroke-linecap:round;stroke-linejoin:round;stroke-miterlimit:4;stroke-dasharray:none;stroke-opacity:1"
         d="m 682.39877,171.24155 c 0.94944,4.79993 -1.69865,11.85362 -6.49856,12.80308 -4.79993,0.94945 -9.46071,-2.17196 -10.41015,-6.97189 -0.94946,-4.79992 2.17197,-9.46069 6.97189,-10.41014 4.79992,-0.94945 8.98737,-0.22096 9.93682,4.57895 z"
         id="path898-3"
         inkscape:connector-curvature="0"
         sodipodi:nodetypes="sssss" /><path
         style="opacity:1;fill:#eaeaea;fill-opacity:1;stroke:none;stroke-width:2.03437614;stroke-linecap:round;stroke-linejoin:round;stroke-miterlimit:4;stroke-dasharray:none;stroke-opacity:1"
         d="m 695.00967,188.50331 c 0.78164,3.1669 -0.85376,7.57612 -4.02067,8.35778 -3.16689,0.78163 -6.36784,-1.15199 -7.14949,-4.3189 -0.78166,-3.1669 1.15198,-6.36784 4.31889,-7.1495 3.1669,-0.78164 6.06962,-0.0564 6.85127,3.11062 z"
         id="path898-6"
         inkscape:connector-curvature="0"
         sodipodi:nodetypes="sssss" /><path
         style="opacity:1;fill:#454545;fill-opacity:1;stroke:none;stroke-width:1.55692053;stroke-linecap:round;stroke-linejoin:round;stroke-miterlimit:4;stroke-dasharray:none;stroke-opacity:1"
         d="m 693.60537,188.84992 c 0.5982,2.42364 -0.58339,6.08161 -3.00703,6.67983 -2.42367,0.59819 -4.87338,-0.88162 -5.47157,-3.30529 -0.59821,-2.42366 0.88161,-4.87334 3.30526,-5.47154 2.42367,-0.59822 4.57515,-0.32663 5.17334,2.097 z"
         id="path898-3-7"
         inkscape:connector-curvature="0"
         sodipodi:nodetypes="sssss" /><circle
         style="opacity:1;fill:#eaeaea;fill-opacity:1;stroke:none;stroke-width:3.98737764;stroke-linecap:round;stroke-linejoin:round;stroke-miterlimit:4;stroke-dasharray:none;stroke-opacity:1"
         id="path935"
         cx="24.781879"
         cy="305.32291"
         r="8.9775381"
         transform="rotate(-11.188959)" /><circle
         style="opacity:1;fill:#454545;fill-opacity:1;stroke:none;stroke-width:2.88991451;stroke-linecap:round;stroke-linejoin:round;stroke-miterlimit:4;stroke-dasharray:none;stroke-opacity:1"
         id="path935-5"
         cx="24.735245"
         cy="305.31085"
         r="6.5066123"
         transform="rotate(-11.188959)" /><path
         style="opacity:1;fill:#eaeaea;fill-opacity:1;stroke:none;stroke-width:0.82017517;stroke-linecap:round;stroke-linejoin:round;stroke-miterlimit:4;stroke-dasharray:none;stroke-opacity:1"
         d="m 86.393841,290.25126 c 0.106783,0.53975 -1.763528,0.52289 -3.618048,0.88973 -1.854521,0.36683 -3.786518,1.14423 -3.89327,0.60448 -0.106783,-0.53976 1.709235,-1.86404 3.563756,-2.23087 1.85452,-0.36684 3.840797,0.19684 3.947561,0.7366 z"
         id="path935-3"
         inkscape:connector-curvature="0"
         sodipodi:nodetypes="cscscc" /></g><g
       id="g26" /></g></svg>