<?xml version="1.0" encoding="UTF-8" standalone="no"?>
<!-- Created with Inkscape (http://www.inkscape.org/) -->

<svg
   xmlns:dc="http://purl.org/dc/elements/1.1/"
   xmlns:cc="http://creativecommons.org/ns#"
   xmlns:rdf="http://www.w3.org/1999/02/22-rdf-syntax-ns#"
   xmlns:svg="http://www.w3.org/2000/svg"
   xmlns="http://www.w3.org/2000/svg"
   xmlns:sodipodi="http://sodipodi.sourceforge.net/DTD/sodipodi-0.dtd"
   xmlns:inkscape="http://www.inkscape.org/namespaces/inkscape"
   width="1197.3674mm"
   height="1197.3674mm"
   viewBox="0 0 1197.3674 1197.3674"
   version="1.1"
   id="svg8215"
   inkscape:version="0.92.1 r"
   sodipodi:docname="round thresher.svg">
  <defs
     id="defs8209" />
  <sodipodi:namedview
     id="base"
     pagecolor="#ffffff"
     bordercolor="#666666"
     borderopacity="1.0"
     inkscape:pageopacity="0.0"
     inkscape:pageshadow="2"
     inkscape:zoom="0.175"
     inkscape:cx="1677.4604"
     inkscape:cy="2349.9629"
     inkscape:document-units="mm"
     inkscape:current-layer="layer1"
     showgrid="false"
     inkscape:window-width="1920"
     inkscape:window-height="1016"
     inkscape:window-x="0"
     inkscape:window-y="30"
     inkscape:window-maximized="1"
     fit-margin-top="0"
     fit-margin-left="0"
     fit-margin-right="0"
     fit-margin-bottom="0"
     inkscape:pagecheckerboard="true" />
  <metadata
     id="metadata8212">
    <rdf:RDF>
      <cc:Work
         rdf:about="">
        <dc:format>image/svg+xml</dc:format>
        <dc:type
           rdf:resource="http://purl.org/dc/dcmitype/StillImage" />
        <dc:title></dc:title>
      </cc:Work>
    </rdf:RDF>
  </metadata>
  <g
     inkscape:label="Layer 1"
     inkscape:groupmode="layer"
     id="layer1"
     transform="translate(313.3859,506.1863)">
    <path
       style="fill:#b6c4b9;fill-opacity:1;stroke:#24ff01;stroke-width:0;stroke-linecap:butt;stroke-linejoin:miter;stroke-miterlimit:4;stroke-dasharray:none;stroke-opacity:1"
       d="m 507.14393,-37.354179 c 2.8216,-1.269865 5.12208,-3.587615 8.01807,-4.677217 8.5363,-3.211742 13.8845,-3.518664 26.86058,-5.211755 40.79949,-5.323428 110.90347,-16.207707 117.52477,0.258532 -0.56626,11.148528 -15.45478,9.69868 -31.98805,15.025621 -58.83488,18.956322 -70.68924,27.1302863 -100.5038,53.136845 -4.46608,2.671537 -7.72334,7.550068 -12.69529,9.087163 -5.91688,1.829223 -15.14098,0.196431 -18.57524,-0.400903 -4.32902,-1.697622 -5.07812,-8.953529 -5.07812,-8.953529 l -3.4745,-51.716653 c 0,0 13.54022,-3.680661 19.91158,-6.548104 z"
       id="path8792"
       inkscape:connector-curvature="0"
       sodipodi:nodetypes="aascscaccca" />
    <path
       style="fill:#b6c4b9;fill-opacity:1;stroke:#36ff00;stroke-width:0;stroke-linecap:butt;stroke-linejoin:miter;stroke-miterlimit:4;stroke-dasharray:none;stroke-opacity:1"
       d="m 354.16368,191.92262 c -13.00321,10.11483 -29.79594,15.75412 -53.67261,18.89881 -30.33337,3.99507 -76.51526,-4.60434 -90.71429,13.98511 -2.09531,3.00386 -1.45765,8.04352 0.75595,10.96132 7.27384,9.58778 23.94482,5.50978 34.01786,12.09523 11.20055,7.32259 17.38509,13.64396 19.08779,23.6235 1.51809,8.89747 -11.48587,16.8163 -9.07142,25.51341 5.73502,20.6582 42.31856,20.69411 49.70387,40.82142 1.45571,3.96727 -4.36202,8.80271 -2.26785,12.47323 1.53095,2.68336 5.62692,3.58784 8.69344,3.21279 9.22674,-1.12849 16.10295,-9.51725 23.05655,-15.68601 13.6275,-12.08938 18.92977,-24.6946 35.90775,-41.19941 17.03882,-16.56395 -37.77479,-35.98529 -38.93156,-59.72024 -0.82296,-16.88591 33.04396,-52.45407 23.43452,-44.97916 z"
       id="path8796"
       inkscape:connector-curvature="0"
       sodipodi:nodetypes="sscasaaaaaasas" />
    <path
       style="opacity:1;fill:#f8fdfc;fill-opacity:1;stroke:#e36433;stroke-width:0;stroke-linecap:butt;stroke-linejoin:miter;stroke-miterlimit:4;stroke-dasharray:none;stroke-opacity:1"
       d="m 178.00151,-84.393614 c -5.03311,5.590233 3.14713,15.055032 7.21627,21.381562 5.28482,8.216632 13.67722,14.038085 21.38156,20.045214 3.50795,2.735178 7.58305,4.66269 11.22532,7.216278 5.41289,3.794964 14.16351,5.61434 15.7689,12.027127 0.19244,0.768703 -1.35985,1.462474 -0.98801,2.162237 6.72154,12.6490431 22.56669,24.9237878 37.0694,30.4446451 5.6757,2.1606099 9.67366,2.9178709 14.16529,5.1753969 6.76185,3.398555 13.69216,7.046606 18.97613,12.464392 2.70996,2.778587 4.28597,6.483054 6.14719,9.888971 16.6061,30.388133 33.03137,61.183702 44.63402,93.811601 3.77914,10.62734 8.09568,21.59514 8.01809,32.87415 -0.0683,9.92388 -3.20036,19.8574 -7.45199,28.82466 -6.91603,14.58684 -39.86463,27.46969 -28.6294,39.0618 14.74052,15.20875 41.76452,-17.62389 52.39787,-35.94111 12.56582,-21.64614 9.2185,-49.98921 6.17675,-74.83277 -1.5443,-12.61303 -12.20921,-36.113649 -12.20921,-36.113649 0,0 -18.83932,-66.9155 -39.41639,-93.9223086 -18.26506,-23.9723634 -43.86947,-42.9315434 -71.09371,-55.8593304 -25.73305,-12.219678 -64.3273,-39.879532 -83.38808,-18.708866 z"
       id="path8798"
       inkscape:connector-curvature="0"
       sodipodi:nodetypes="aaaaassaaaaaaaaacaaa" />
    <path
       style="fill:#c3d0c5;fill-opacity:1;stroke:#23fb00;stroke-width:0;stroke-linecap:butt;stroke-linejoin:miter;stroke-miterlimit:4;stroke-dasharray:none;stroke-opacity:1"
       d="m 381.75594,-81.354167 c 13.06449,7.847577 28.40435,9.075929 42.33333,6.047621 10.09063,-2.193809 17.93403,-10.372811 26.08037,-16.718732 14.66592,-11.424612 26.42442,-26.438382 40.67273,-38.160532 16.62632,-13.67854 41.53151,-33.62589 54.13445,-25.42724 11.33803,7.37577 -2.69455,30.99213 -8.16679,45.05188 -5.07512,13.039417 -9.92593,26.170627 -14.44695,39.41236 -5.12418,15.008344 -9.79038,30.171689 -14.36309,45.357143 -3.96707,13.174208 -10.87883,30.7295178 -11.33927,39.6875 0,0 -20.91627,-16.6176989 -23.9003,-13.45057981 -4.1784,4.43478331 10.39033,32.23841381 7.64732,28.19165081 -13.06546,-19.2754652 -21.47578,-40.07725 -36.28573,-57.074405 -17.91027,-20.555344 -34.15432,-34.615708 -62.36607,-52.916666 z"
       id="path8790"
       inkscape:connector-curvature="0"
       sodipodi:nodetypes="caasssaasssac" />
    <path
       style="opacity:1;fill:#c3d0c5;fill-opacity:1;stroke:#29ff06;stroke-width:0;stroke-linecap:butt;stroke-linejoin:miter;stroke-miterlimit:4;stroke-dasharray:none;stroke-opacity:1"
       d="m 176.04241,-96.756695 c 7.04958,-7.254125 32.76077,-14.997635 50.36533,-17.103425 28.07119,-3.35777 56.74253,-2.54613 84.95014,1.32292 28.0355,3.84544 55.67528,13.254632 80.60343,26.647321 13.12067,7.049099 26.64333,11.995906 37.79761,21.166666 26.58025,21.853597 51.98169,47.611309 66.9018,78.619046 9.73883,20.239732 11.5229,43.724252 12.85118,66.145831 1.4195,23.961376 0.89741,48.623706 -5.29166,71.815476 -4.64958,17.42298 -13.9229,33.43875 -23.43452,48.75893 -10.79461,17.38667 -24.06525,33.20724 -37.79763,48.38095 -20.79789,25.47208 -48.86374,38.90638 -74.83928,53.29465 -22.54952,12.56433 -44.15045,27.47449 -68.41371,36.2857 -27.96485,10.15544 -57.65479,16.1571 -87.31248,18.52083 -12.57507,1.00224 -25.45082,0.69729 -37.79762,-1.88987 -6.59586,-1.3821 -12.17645,-7.65634 -18.89881,-7.18156 -4.16262,0.29399 -6.80243,5.70484 -10.96131,6.04764 -17.71241,1.45997 -34.6471,-9.29378 -50.270833,-17.76489 C 67.002081,321.40351 42.168566,301.32588 20.032738,279.23511 2.9265713,262.16376 -11.332766,242.24566 -24.190476,221.78274 c -12.830425,-20.4195 -25.074637,-41.69158 -32.50595,-64.63393 -8.259309,-25.49858 -12.161185,-52.58102 -12.851191,-79.375001 -0.655838,-25.467202 2.35457,-51.204764 8.315475,-75.9732139 6.055505,-25.1615291 14.479553,-50.2593571 27.592261,-72.5714291 8.925538,-15.187348 21.205859,-28.353224 34.01785718,-40.443446 9.64903782,-9.10545 27.87418782,-25.0791 31.89173982,-23.8125 1.729783,0.54534 -18.054261,22.88128 -21.26116,39.876485 -1.4963161,7.929841 0.317865,18.187665 3.165551,24.001487 1.1973,2.444402 -2.919737,4.343144 -5.8113843,5.764135 -4.5856352,2.253438 -8.81487905,5.477661 -12.1424845,9.354912 -5.4354795,6.333298 -9.6494732,13.94306 -12.0952382,21.922618 -4.89376,15.966388 -4.374128,33.19410491 -4.535714,49.892857 -0.222443,22.987901 0.863497,46.162282 4.91369,68.791665 3.975973,22.214701 10.2303846,44.175401 18.8988097,65.011901 9.2928773,22.33751 20.8747543,43.96827 35.1517863,63.5 12.885818,17.62847 26.421252,36.118 44.979166,47.625 6.605081,4.09554 14.596715,7.82867 22.300592,6.80357 6.34123,-0.84378 12.34968,-5.13708 16.25298,-10.20535 10.06636,-13.07074 9.08784,-31.74811 14.74107,-47.24703 1.45129,-3.97887 1.82982,-8.81427 4.91369,-11.71726 1.94392,-1.82991 5.03031,-3.50053 7.55952,-2.64583 5.85963,1.98016 7.72825,9.82954 10.20536,15.49702 3.79381,8.68002 5.16801,18.26163 6.80357,27.59226 2.69057,15.34931 3.05505,31.01898 4.91369,46.49108 0.78846,6.56349 -0.28662,13.73008 2.64584,19.65476 1.81791,3.67286 4.84336,7.28935 8.69345,8.69344 6.89071,2.51298 14.73127,-0.44714 21.92262,-1.88986 16.60328,-3.33092 33.48588,-7.44095 48.38095,-15.49705 22.69052,-12.27232 40.74624,-31.70103 60.0982,-48.75891 18.18292,-16.02743 39.74847,-29.68185 52.53871,-50.27084 8.43198,-13.57332 12.62833,-29.85041 14.36309,-45.73512 1.89472,-17.34936 -0.62082,-35.15295 -4.53573,-52.160709 -1.42241,-6.17945 -1.57914,-14.171258 -6.80357,-17.764881 -1.24567,-0.85683 -4.72486,-1.50002 -4.5357,0 0.67103,5.321046 1.58518,10.554686 1.88987,15.875 0.20516,3.58242 0.39991,7.20404 -0.0439,10.76479 -0.44741,3.58983 -0.96937,7.31298 -2.62094,10.53157 -1.86108,3.62687 -4.02623,8.10819 -7.91853,9.31971 -6.47831,2.01644 -12.89987,-4.65436 -19.65475,-5.29166 -10.06299,-0.9494 -20.26694,0.61223 -30.2381,2.26785 -16.30906,2.70798 -32.15146,7.77768 -48.00297,12.47322 -14.51653,4.30009 -29.04486,8.70847 -43.08928,14.36309 -23.68204,9.53496 -62.26672,38.22396 -69.16964,32.88393 -8.24754,-24.96088 29.56628,-61.19592 45.73511,-74.83929 11.10635,-9.28705 24.3992,-15.623909 37.04167,-22.678567 19.97678,-11.147294 42.70675,-17.572262 61.23213,-30.994048 9.52313,-6.899588 19.26306,-17.054256 24.94645,-24.946427 1.97274,-2.739418 9.4093,8.925832 18.14285,5.669642 3.30761,-1.233199 6.05485,-5.163434 6.04761,-8.693452 -0.036,-17.546816 -18.383,-30.1529459 -30.23809,-43.089285 -12.56659,-13.712728 -26.69261,-26.454751 -42.71132,-35.907738 -10.57932,-6.243085 -22.79475,-9.190205 -34.39582,-13.229166 -7.97834,-2.777692 -16.00788,-5.458418 -24.19048,-7.559524 -9.91414,-2.545727 -27.60309,0.175146 -30.09635,-6.094866 -2.18972,-5.506665 -4.59481,-15.038956 -0.61421,-19.135044 z"
       id="path8794"
       inkscape:connector-curvature="0"
       sodipodi:nodetypes="csssaaaaaccaaaaaaaaaaaaassssaaaaaaaaaaaaaaaaaaaaaaaasaaaaaaaaccaassaaaaassc" />
    <ellipse
       style="opacity:1;fill:#5a5a5a;fill-opacity:1;fill-rule:evenodd;stroke:#e36433;stroke-width:0;stroke-linecap:round;stroke-linejoin:round;stroke-miterlimit:4;stroke-dasharray:none;stroke-opacity:1;paint-order:markers stroke fill"
       id="path8802"
       cx="224.61234"
       cy="-77.668892"
       rx="10.48884"
       ry="12.000742" />
    <path
       style="opacity:1;fill:#dbd9d9;fill-opacity:1;fill-rule:evenodd;stroke:#e36433;stroke-width:0;stroke-linecap:round;stroke-linejoin:round;stroke-miterlimit:4;stroke-dasharray:none;stroke-opacity:1;paint-order:markers stroke fill"
       d="m 226.76854,-87.018081 c 0,0.561887 -1.886,0.03947 -4.13007,0.770096 -2.24407,0.730626 -3.99643,2.437626 -3.99643,1.87574 0,-0.561886 1.38487,-2.043989 3.62894,-2.774615 2.24406,-0.730627 4.49756,-0.433108 4.49756,0.128779 z"
       id="path8802-5"
       inkscape:connector-curvature="0"
       sodipodi:nodetypes="sssss" />
  </g>
</svg>
