<?xml version="1.0" encoding="UTF-8" standalone="no"?>
<!-- Created with Inkscape (http://www.inkscape.org/) -->

<svg
   xmlns:dc="http://purl.org/dc/elements/1.1/"
   xmlns:cc="http://creativecommons.org/ns#"
   xmlns:rdf="http://www.w3.org/1999/02/22-rdf-syntax-ns#"
   xmlns:svg="http://www.w3.org/2000/svg"
   xmlns="http://www.w3.org/2000/svg"
   xmlns:sodipodi="http://sodipodi.sourceforge.net/DTD/sodipodi-0.dtd"
   xmlns:inkscape="http://www.inkscape.org/namespaces/inkscape"
   width="374.18976mm"
   height="113.78349mm"
   viewBox="0 0 374.18976 113.78349"
   version="1.1"
   id="svg8"
   inkscape:version="0.92.3 (2405546, 2018-03-11)"
   sodipodi:docname="tuna larvae.svg">
  <defs
     id="defs2" />
  <sodipodi:namedview
     id="base"
     pagecolor="#ffffff"
     bordercolor="#666666"
     borderopacity="1.0"
     inkscape:pageopacity="0.0"
     inkscape:pageshadow="2"
     inkscape:zoom="0.35"
     inkscape:cx="974.72529"
     inkscape:cy="158.66362"
     inkscape:document-units="mm"
     inkscape:current-layer="layer1"
     showgrid="false"
     inkscape:window-width="2400"
     inkscape:window-height="1284"
     inkscape:window-x="2391"
     inkscape:window-y="-9"
     inkscape:window-maximized="1"
     fit-margin-top="0"
     fit-margin-left="0"
     fit-margin-right="0"
     fit-margin-bottom="0" />
  <metadata
     id="metadata5">
    <rdf:RDF>
      <cc:Work
         rdf:about="">
        <dc:format>image/svg+xml</dc:format>
        <dc:type
           rdf:resource="http://purl.org/dc/dcmitype/StillImage" />
        <dc:title></dc:title>
      </cc:Work>
    </rdf:RDF>
  </metadata>
  <g
     inkscape:label="Layer 1"
     inkscape:groupmode="layer"
     id="layer1"
     transform="translate(82.999754,-114.32593)">
    <g
       id="g1089">
      <path
         sodipodi:nodetypes="caaaaaaac"
         inkscape:connector-curvature="0"
         id="path1046"
         d="m 232.39085,177.89801 c 0,0 8.8786,14.03341 16.03617,17.2723 2.96369,1.34111 6.60637,-0.54882 9.75534,0.26727 5.97882,1.54948 10.34432,9.56536 16.43707,8.55262 7.83229,-1.30188 15.40166,-9.36693 16.43708,-17.23888 1.357,-10.31684 -7.9133,-19.74512 -14.96709,-27.39513 -4.84079,-5.24995 -10.76813,-11.93593 -17.90706,-11.75986 -4.07942,0.10062 -7.043,4.29185 -9.88897,7.21628 -6.5169,6.69657 -15.90254,23.0854 -15.90254,23.0854 z"
         style="fill:#e5e5e5;fill-opacity:1;stroke:none;stroke-width:0.26458332px;stroke-linecap:butt;stroke-linejoin:miter;stroke-opacity:1" />
      <path
         sodipodi:nodetypes="aasasaassaa"
         inkscape:connector-curvature="0"
         id="path857"
         d="m 237.74702,177.74851 c -12.84218,2.68772 -26.00806,-3.89 -39.12053,-4.34673 -33.77382,-1.1764 -69.85792,-0.62701 -101.297621,4.15774 -8.444712,1.28519 -2.535781,19.69487 -10.205359,20.97768 -37.564117,6.28294 -118.359669,-75.21852 -80.6979149,-80.8869 13.7504629,-2.06955 17.8392029,-2.72576 26.8363099,-3.02381 26.0306,-0.86232 52.246291,0.0699 78.052085,3.59077 26.8307,3.66073 53.63665,9.16969 79.18601,18.14286 20.44063,7.17894 40.39053,23.55687 60.85417,17.57589 5.29796,-1.54845 11.44216,4.79682 10.96131,9.63839 -0.93443,9.40837 -15.31431,12.23732 -24.56846,14.17411 z"
         style="opacity:1;fill:#d7d7d7;fill-opacity:1;stroke:none;stroke-width:0.26458332px;stroke-linecap:butt;stroke-linejoin:miter;stroke-opacity:1" />
      <path
         sodipodi:nodetypes="caaacsaacc"
         inkscape:connector-curvature="0"
         id="path859"
         d="m 42.711309,142.59673 c 0,0 45.324814,-5.44048 68.035711,-4.53572 28.94932,1.15328 57.74797,6.19658 85.98959,12.6622 14.15848,3.24144 27.06322,12.48461 41.57738,13.04018 7.81822,0.29926 22.86756,-5.29166 22.86756,-5.29166 0,0 -16.46444,11.29527 -25.70239,10.58333 -26.70627,-2.05816 -52.01745,-10.1009 -78.24107,-13.79613 -17.18752,-2.42193 -34.42979,-5.09089 -51.78273,-5.48066 -18.739426,-0.42091 -56.129468,3.40179 -56.129468,3.40179 z"
         style="fill:#ebebeb;fill-opacity:1;stroke:none;stroke-width:0.26458332px;stroke-linecap:butt;stroke-linejoin:miter;stroke-opacity:1" />
      <path
         sodipodi:nodetypes="saaascssssassccss"
         inkscape:connector-curvature="0"
         id="path878"
         d="m 2.6458333,118.97321 c -9.3750146,2.12967 -19.2530693,3.31044 -27.7812493,7.74852 -10.124506,5.26881 -18.749035,13.3174 -26.458333,21.73362 -5.877624,6.41658 -9.224807,14.81488 -14.741073,21.54465 -4.63145,5.65031 -21.523699,11.8465 -15.308034,15.68601 12.47124,7.70367 44.412201,15.49702 44.412201,15.49702 0,0 -22.379067,-1.4664 -42.52232,-2.83482 -1.433228,-0.0974 -3.787124,2.52939 -2.645833,3.40179 15.344542,11.72931 29.849813,15.64306 46.869048,18.89881 16.818139,3.21728 34.67106574,4.03488 50.837796,7.37053 5.097337,1.05172 7.581922,-7.4074 12.284224,-9.63839 9.099477,-4.31722 15.377487,-0.0705 29.482145,-6.61458 6.678379,-3.09855 15.415766,-5.68489 22.48958,-8.59897 4.378356,-1.80367 9.382411,5.93515 11.575522,4.016 3.445559,-4.224 -0.171955,-10.12968 -0.257933,-15.19452 C 84.548904,157.49409 63.121386,156.34261 40.244902,140.74256 27.147677,131.81124 29.657593,112.8371 2.6458333,118.97321 Z"
         style="fill:#c5c5c5;fill-opacity:1;stroke:none;stroke-width:0.26458332px;stroke-linecap:butt;stroke-linejoin:miter;stroke-opacity:1" />
      <ellipse
         transform="matrix(-0.10864341,-0.99408079,0.99887893,-0.04733794,0,0)"
         ry="23.104166"
         rx="23.975847"
         cy="-31.548998"
         cx="-172.64679"
         id="path861"
         style="opacity:1;fill:#476373;fill-opacity:1;stroke:none;stroke-width:5.75772429;stroke-linecap:round;stroke-miterlimit:4;stroke-dasharray:none;stroke-opacity:1;paint-order:fill markers stroke" />
      <ellipse
         transform="matrix(-0.10864341,-0.99408079,0.99887893,-0.04733794,0,0)"
         ry="8.3719454"
         rx="8.6878052"
         cy="-33.419338"
         cx="-176.16986"
         id="path861-0"
         style="opacity:1;fill:#2b2b2b;fill-opacity:1;stroke:none;stroke-width:2.08634901;stroke-linecap:round;stroke-miterlimit:4;stroke-dasharray:none;stroke-opacity:1;paint-order:fill markers stroke" />
      <path
         sodipodi:nodetypes="aaasaaaaaaasaaa"
         inkscape:connector-curvature="0"
         id="path880"
         d="m 49.325892,148.26637 c 7.159826,4.12123 17.602462,2.28331 23.398164,8.17037 1.85173,1.88092 1.370253,5.12697 2.493204,7.51564 2.528445,5.37835 7.969214,10.67441 9.449406,15.11905 0.719053,2.15913 -4.981123,-0.79597 -6.803573,0.56696 -4.328314,3.23695 -4.154456,9.98992 -5.858629,15.11905 -0.682116,2.053 -0.293952,4.64515 -1.742816,6.25166 -7.017777,7.78136 -18.772846,11.4665 -29.251232,11.51322 -4.047915,0.018 -8.91071,-1.10822 -11.339285,-4.34673 -5.862985,-7.81831 2.266071,-20.6349 -2.405426,-29.21847 -1.796577,-3.30109 -7.36764,-3.46184 -8.93386,-6.87825 -1.390306,-3.03269 -2.718973,-8.58291 0.549937,-9.99345 7.997393,-3.45086 15.135991,-2.39506 20.049766,-7.58244 2.863547,-3.02299 -0.225008,-10.76599 3.779761,-11.90625 2.792967,-0.79523 4.097769,4.22095 6.614583,5.66964 z"
         style="opacity:0.72000002;fill:#938f99;fill-opacity:1;stroke:none;stroke-width:0.26458332px;stroke-linecap:butt;stroke-linejoin:miter;stroke-opacity:1" />
      <ellipse
         ry="0.73499119"
         rx="1.3363476"
         cy="133.89877"
         cx="-17.238884"
         id="path882"
         style="opacity:1;fill:#2e2e2e;fill-opacity:1;stroke:none;stroke-width:5.46500015;stroke-linecap:round;stroke-miterlimit:4;stroke-dasharray:none;stroke-opacity:1;paint-order:fill markers stroke" />
      <ellipse
         ry="0.73499119"
         rx="1.3363476"
         cy="127.61942"
         cx="-9.8746281"
         id="path882-4"
         style="opacity:1;fill:#2e2e2e;fill-opacity:1;stroke:none;stroke-width:5.46500015;stroke-linecap:round;stroke-miterlimit:4;stroke-dasharray:none;stroke-opacity:1;paint-order:fill markers stroke" />
      <ellipse
         ry="0.82948524"
         rx="1.0528654"
         cy="130.35976"
         cx="5.5279021"
         id="path882-9"
         style="opacity:1;fill:#2e2e2e;fill-opacity:1;stroke:none;stroke-width:5.15323734;stroke-linecap:round;stroke-miterlimit:4;stroke-dasharray:none;stroke-opacity:1;paint-order:fill markers stroke" />
      <ellipse
         ry="0.8294853"
         rx="1.0528654"
         cy="134.75372"
         cx="4.4884672"
         id="path882-9-8"
         style="opacity:1;fill:#2e2e2e;fill-opacity:1;stroke:none;stroke-width:5.15323734;stroke-linecap:round;stroke-miterlimit:4;stroke-dasharray:none;stroke-opacity:1;paint-order:fill markers stroke" />
      <ellipse
         ry="0.8294853"
         rx="1.0528654"
         cy="126.57999"
         cx="9.0241814"
         id="path882-9-1"
         style="opacity:1;fill:#2e2e2e;fill-opacity:1;stroke:none;stroke-width:5.15323734;stroke-linecap:round;stroke-miterlimit:4;stroke-dasharray:none;stroke-opacity:1;paint-order:fill markers stroke" />
      <ellipse
         inkscape:transform-center-y="4.4412202"
         inkscape:transform-center-x="-4.8664435"
         ry="0.8294853"
         rx="1.0528654"
         cy="123.69791"
         cx="5.1971731"
         id="path882-9-0"
         style="opacity:1;fill:#2e2e2e;fill-opacity:1;stroke:none;stroke-width:5.15323734;stroke-linecap:round;stroke-miterlimit:4;stroke-dasharray:none;stroke-opacity:1;paint-order:fill markers stroke" />
      <ellipse
         ry="0.8294853"
         rx="1.0528654"
         cy="130.69048"
         cx="10.536086"
         id="path882-9-81"
         style="opacity:1;fill:#2e2e2e;fill-opacity:1;stroke:none;stroke-width:5.15323734;stroke-linecap:round;stroke-miterlimit:4;stroke-dasharray:none;stroke-opacity:1;paint-order:fill markers stroke" />
      <ellipse
         inkscape:transform-center-y="-2.5040923"
         inkscape:transform-center-x="-1.6063988"
         ry="0.8294853"
         rx="1.0528654"
         cy="134.09227"
         cx="10.063617"
         id="path882-9-6"
         style="opacity:1;fill:#2e2e2e;fill-opacity:1;stroke:none;stroke-width:5.15323734;stroke-linecap:round;stroke-miterlimit:4;stroke-dasharray:none;stroke-opacity:1;paint-order:fill markers stroke" />
      <ellipse
         inkscape:transform-center-y="6.6618304"
         inkscape:transform-center-x="-8.5517113"
         ry="0.8294853"
         rx="1.0528654"
         cy="120.43788"
         cx="15.308036"
         id="path882-9-61"
         style="opacity:1;fill:#2e2e2e;fill-opacity:1;stroke:none;stroke-width:5.15323734;stroke-linecap:round;stroke-miterlimit:4;stroke-dasharray:none;stroke-opacity:1;paint-order:fill markers stroke" />
      <ellipse
         inkscape:transform-center-y="-3.0238095"
         inkscape:transform-center-x="5.3861607"
         ry="0.8294853"
         rx="1.0528654"
         cy="123.08369"
         cx="19.513021"
         id="path882-9-9"
         style="opacity:1;fill:#2e2e2e;fill-opacity:1;stroke:none;stroke-width:5.15323734;stroke-linecap:round;stroke-miterlimit:4;stroke-dasharray:none;stroke-opacity:1;paint-order:fill markers stroke" />
      <ellipse
         ry="0.8294853"
         rx="1.0528654"
         cy="126.95796"
         cx="19.182293"
         id="path882-9-7"
         style="opacity:1;fill:#2e2e2e;fill-opacity:1;stroke:none;stroke-width:5.15323734;stroke-linecap:round;stroke-miterlimit:4;stroke-dasharray:none;stroke-opacity:1;paint-order:fill markers stroke" />
      <ellipse
         ry="0.8294853"
         rx="1.0528654"
         cy="122.75298"
         cx="13.370909"
         id="path882-9-5"
         style="opacity:1;fill:#2e2e2e;fill-opacity:1;stroke:none;stroke-width:5.15323734;stroke-linecap:round;stroke-miterlimit:4;stroke-dasharray:none;stroke-opacity:1;paint-order:fill markers stroke" />
      <ellipse
         ry="0.8294853"
         rx="1.0528654"
         cy="139.10045"
         cx="-3.6380208"
         id="path882-9-4"
         style="opacity:1;fill:#2e2e2e;fill-opacity:1;stroke:none;stroke-width:5.15323734;stroke-linecap:round;stroke-miterlimit:4;stroke-dasharray:none;stroke-opacity:1;paint-order:fill markers stroke" />
      <ellipse
         ry="0.8294853"
         rx="1.0528654"
         cy="132.15514"
         cx="-4.6774554"
         id="path882-9-03"
         style="opacity:1;fill:#2e2e2e;fill-opacity:1;stroke:none;stroke-width:5.15323734;stroke-linecap:round;stroke-miterlimit:4;stroke-dasharray:none;stroke-opacity:1;paint-order:fill markers stroke" />
      <ellipse
         ry="0.8294853"
         rx="1.0528654"
         cy="138.20276"
         cx="-7.8430061"
         id="path882-9-88"
         style="opacity:1;fill:#2e2e2e;fill-opacity:1;stroke:none;stroke-width:5.15323734;stroke-linecap:round;stroke-miterlimit:4;stroke-dasharray:none;stroke-opacity:1;paint-order:fill markers stroke" />
      <ellipse
         ry="0.8294853"
         rx="1.0528654"
         cy="135.50967"
         cx="-4.9609375"
         id="path882-9-04"
         style="opacity:1;fill:#2e2e2e;fill-opacity:1;stroke:none;stroke-width:5.15323734;stroke-linecap:round;stroke-miterlimit:4;stroke-dasharray:none;stroke-opacity:1;paint-order:fill markers stroke" />
      <ellipse
         ry="0.8294853"
         rx="1.0528654"
         cy="128.46988"
         cx="-20.694197"
         id="path882-9-96"
         style="opacity:1;fill:#2e2e2e;fill-opacity:1;stroke:none;stroke-width:5.15323734;stroke-linecap:round;stroke-miterlimit:4;stroke-dasharray:none;stroke-opacity:1;paint-order:fill markers stroke" />
      <ellipse
         ry="0.8294853"
         rx="1.0528654"
         cy="131.06845"
         cx="-18.757067"
         id="path882-9-92"
         style="opacity:1;fill:#2e2e2e;fill-opacity:1;stroke:none;stroke-width:5.15323734;stroke-linecap:round;stroke-miterlimit:4;stroke-dasharray:none;stroke-opacity:1;paint-order:fill markers stroke" />
      <ellipse
         ry="0.8294853"
         rx="1.0528654"
         cy="138.061"
         cx="-18.804316"
         id="path882-9-97"
         style="opacity:1;fill:#2e2e2e;fill-opacity:1;stroke:none;stroke-width:5.15323734;stroke-linecap:round;stroke-miterlimit:4;stroke-dasharray:none;stroke-opacity:1;paint-order:fill markers stroke" />
      <ellipse
         ry="0.8294853"
         rx="1.0528654"
         cy="140.42336"
         cx="-14.835566"
         id="path882-9-3"
         style="opacity:1;fill:#2e2e2e;fill-opacity:1;stroke:none;stroke-width:5.15323734;stroke-linecap:round;stroke-miterlimit:4;stroke-dasharray:none;stroke-opacity:1;paint-order:fill markers stroke" />
      <ellipse
         ry="0.8294853"
         rx="1.0528654"
         cy="142.40773"
         cx="-9.921875"
         id="path882-9-978"
         style="opacity:1;fill:#2e2e2e;fill-opacity:1;stroke:none;stroke-width:5.15323734;stroke-linecap:round;stroke-miterlimit:4;stroke-dasharray:none;stroke-opacity:1;paint-order:fill markers stroke" />
      <ellipse
         ry="0.8294853"
         rx="1.0528654"
         cy="139.57292"
         cx="-25.702381"
         id="path882-9-60"
         style="opacity:1;fill:#2e2e2e;fill-opacity:1;stroke:none;stroke-width:5.15323734;stroke-linecap:round;stroke-miterlimit:4;stroke-dasharray:none;stroke-opacity:1;paint-order:fill markers stroke" />
      <ellipse
         ry="0.8294853"
         rx="1.0528654"
         cy="136.6436"
         cx="-24.143229"
         id="path882-9-50"
         style="opacity:1;fill:#2e2e2e;fill-opacity:1;stroke:none;stroke-width:5.15323734;stroke-linecap:round;stroke-miterlimit:4;stroke-dasharray:none;stroke-opacity:1;paint-order:fill markers stroke" />
      <ellipse
         ry="0.8294853"
         rx="1.0528654"
         cy="143.68341"
         cx="-20.977678"
         id="path882-9-51"
         style="opacity:1;fill:#2e2e2e;fill-opacity:1;stroke:none;stroke-width:5.15323734;stroke-linecap:round;stroke-miterlimit:4;stroke-dasharray:none;stroke-opacity:1;paint-order:fill markers stroke" />
      <ellipse
         ry="0.8294853"
         rx="1.0528654"
         cy="131.16295"
         cx="-24.332218"
         id="path882-9-73"
         style="opacity:1;fill:#2e2e2e;fill-opacity:1;stroke:none;stroke-width:5.15323734;stroke-linecap:round;stroke-miterlimit:4;stroke-dasharray:none;stroke-opacity:1;paint-order:fill markers stroke" />
    </g>
  </g>
</svg>
