<?xml version="1.0" encoding="UTF-8" standalone="no"?>
<!-- Created with Inkscape (http://www.inkscape.org/) -->

<svg
   xmlns:dc="http://purl.org/dc/elements/1.1/"
   xmlns:cc="http://creativecommons.org/ns#"
   xmlns:rdf="http://www.w3.org/1999/02/22-rdf-syntax-ns#"
   xmlns:svg="http://www.w3.org/2000/svg"
   xmlns="http://www.w3.org/2000/svg"
   xmlns:sodipodi="http://sodipodi.sourceforge.net/DTD/sodipodi-0.dtd"
   xmlns:inkscape="http://www.inkscape.org/namespaces/inkscape"
   version="1.1"
   id="svg2"
   xml:space="preserve"
   width="802.53064"
   height="393.40799"
   viewBox="0 0 802.53064 393.40799"
   sodipodi:docname="gafftop.ai.svg"
   inkscape:version="0.92.2 5c3e80d, 2017-08-06"><metadata
     id="metadata8"><rdf:RDF><cc:Work
         rdf:about=""><dc:format>image/svg+xml</dc:format><dc:type
           rdf:resource="http://purl.org/dc/dcmitype/StillImage" /><dc:title></dc:title></cc:Work></rdf:RDF></metadata><defs
     id="defs6"><clipPath
       clipPathUnits="userSpaceOnUse"
       id="clipPath18"><path
         d="M 0,295.056 H 601.898 V 0 H 0 Z"
         id="path16"
         inkscape:connector-curvature="0" /></clipPath></defs><sodipodi:namedview
     pagecolor="#ffffff"
     bordercolor="#666666"
     borderopacity="1"
     objecttolerance="10"
     gridtolerance="10"
     guidetolerance="10"
     inkscape:pageopacity="0"
     inkscape:pageshadow="2"
     inkscape:window-width="1920"
     inkscape:window-height="1018"
     id="namedview4"
     showgrid="false"
     inkscape:zoom="2.7253864"
     inkscape:cx="206.82911"
     inkscape:cy="92.262046"
     inkscape:window-x="0"
     inkscape:window-y="34"
     inkscape:window-maximized="1"
     inkscape:current-layer="g10" /><g
     id="g10"
     inkscape:groupmode="layer"
     inkscape:label="gafftop"
     transform="matrix(1.3333333,0,0,-1.3333333,0,393.408)"><g
       id="g12"><g
         id="g14"
         clip-path="url(#clipPath18)"><g
           id="g20"
           transform="translate(11.3317,87.1137)"><path
             d="m 0,0 c -0.33,-0.511 -0.595,-1.773 -0.524,-2.377 0.234,-1.999 4.313,-5.562 3.375,-6.875 -0.368,-0.515 -7.542,2.137 -10.125,2.875 -0.875,0.25 -2.917,-1.875 -2.917,-1.875 l 9.542,-6.125 23.625,-3.5 L 3.351,2.498 C 3.351,2.498 0.567,0.878 0,0"
             style="fill:#94a3af;fill-opacity:1;fill-rule:nonzero;stroke:none"
             id="path22"
             inkscape:connector-curvature="0" /></g><g
           id="g24"
           transform="translate(591.8077,41.7785)"><path
             d="m 0,0 c 2,6.333 -73.946,40.551 -72,64.667 2.011,24.922 89.793,49.362 81.543,57.362 -12.334,11.96 -56.471,-0.317 -73.043,-6.946 -8.504,-3.401 -34.737,-13.364 -55.865,-21.356 0,0 5.95,-6.398 7.24,-8.644 1.794,-3.123 6.538,-8.172 6.958,-11.75 0.378,-3.218 -4.222,-9.2 -4.458,-12.432 -0.216,-2.955 5.544,-7.163 4.958,-10.068 -0.994,-4.936 -17.905,-16.306 -17.905,-16.306 h 0.001 C -78.788,15.499 -5.771,-18.274 0,0"
             style="fill:#94a3af;fill-opacity:1;fill-rule:nonzero;stroke:none"
             id="path26"
             inkscape:connector-curvature="0" /></g><g
           id="g28"
           transform="translate(231.3078,61.7785)"><path
             d="m 0,0 c 0,0 16.751,-45.815 27.167,-58.167 1.612,-1.912 3.333,-5.5 7.501,-2.392 8.644,6.445 10.326,14.918 12.165,21.059 1.35,4.505 4.261,14.377 2.334,18.667 C 45.396,-12.442 18.833,0 18.833,0 Z"
             style="fill:#94a3af;fill-opacity:1;fill-rule:nonzero;stroke:none"
             id="path30"
             inkscape:connector-curvature="0" /></g><g
           id="g32"
           transform="translate(319.4744,64.4451)"><path
             d="m 0,0 c 0,0 17.321,-9.474 22.5,-13.5 6.647,-5.168 18.111,-17.963 25.5,-22 4.5,-2.459 15.677,-9.056 19.667,-5.833 4.333,3.5 0.985,22.478 4.333,29 4.131,8.047 25.455,23.666 25.333,25.833 -0.103,1.844 -21.666,2.833 -21.666,2.833 z"
             style="fill:#94a3af;fill-opacity:1;fill-rule:nonzero;stroke:none"
             id="path34"
             inkscape:connector-curvature="0" /></g><g
           id="g36"
           transform="translate(354.6411,136.2785)"><path
             d="m 0,0 c 0,0 11.873,3.815 15.667,5.5 3.808777,1.7223333 7.617555,3.4446667 11.426332,5.167 5.74,1.072 15.078668,2.427 19.073668,-1.834 5,-5.333 5.049,-8.792 3.25,-10.5 C 46.666,-4.276 37.711,-0.151 34.5,-2.167 33.364,-2.88 34.042,-7 34.042,-7 Z"
             style="fill:#94a3af;fill-opacity:1;fill-rule:nonzero;stroke:none"
             id="path38"
             inkscape:connector-curvature="0"
             sodipodi:nodetypes="cccccccc" /></g><g
           id="g40"
           transform="translate(147.5578,152.8618)"><path
             d="m 0,0 c 0,0 18.496,33.658 26,44 9.779,13.477 31.672,38.807 44,50 8.617,7.824 27.786,21.234 37.75,27.25 9.499,5.735 48.894,26.036 39.75,19.75 -4,-2.75 -58.015,-32.61 -71.083,-49.917 -5.396,-7.145 -10.662,-24.002 -9.834,-32.916 0.583,-6.263 3.642,-16.373 4.667,-22.042 0.589,-3.26 1.753,-8.385 0.625,-11.5 C 70.712,21.412 59.638,10.081 57.368,7.527 54.282,4.053 48.971,-1.248 48.971,-1.248 L 44,-9 Z"
             style="fill:#94a3af;fill-opacity:1;fill-rule:nonzero;stroke:none"
             id="path42"
             inkscape:connector-curvature="0" /></g><g
           id="g44"
           transform="translate(9.3078,70.3618)"><path
             d="m 0,0 c 0,0 8.345,-11.101 11.083,-14.833 2.931,-3.996 8.189,-12.474 11.584,-16.084 2.028,-2.157 8.932,-7.778 9.166,-7.5 0.563,0.667 -6.351,7.293 -8.333,9.834 C 18.09,-21.65 3,0 3,0 Z"
             style="fill:#94a3af;fill-opacity:1;fill-rule:nonzero;stroke:none"
             id="path46"
             inkscape:connector-curvature="0" /></g><g
           id="g48"
           transform="translate(484.0309,101.7881)"><path
             d="m 0,0 c -0.049,0.307 -0.077,0.607 -0.056,0.892 0.235,3.232 3.044,9.213 2.666,12.432 -0.42,3.577 -0.701,9.936 -3.5,16 -2,4.333 -10.698,4.393 -10.698,4.393 -16.14,-6.105 -29.302,-11.06 -29.302,-11.06 0,0 -16.671,1.035 -42.333,4.917 -12.418,1.878 -27.484,6.162 -42.75,8 -50.419,6.069 -110.48,10.574 -135.5,12 -41.773,2.381 -71.305,10.197 -76,9.25 -16.451,-3.318 -41.75,-12.625 -62.625,-21 -31.569,-12.666 -64.298,-26.725 -82,-37.167 -2.119,-1.25 -2.19,-3.459 -1.647,-3.958 18.522,-17 24.094,-16.426 23.397,-18.75 -0.375,-1.25 -8.154,-2.99 -14.25,-1.875 -4.427,0.809 -6.688,3.687 -8.292,3 -1.379,-0.591 -1.152,-3.863 -0.174,-5 7.065,-8.217 35.753,-6.202 47.091,-7.5 9.496,-1.087 26.79,-1.963 40.25,-4.75 7.206,-1.492 14.582,-2.581 22.036,-3.368 34.84,23.727 71.617,47.011 84.964,49.357 C -225.18,16.98 -78.391,6.735 0,0"
             style="fill:#bccbd2;fill-opacity:1;fill-rule:nonzero;stroke:none"
             id="path50"
             inkscape:connector-curvature="0" /></g><g
           id="g52"
           transform="translate(232.5578,59.8618)"><path
             d="m 0,0 c 22.488,0.097 67.629,1.15 89.917,2.583 19.447,1.251 50.583,6.917 76,17.334 12.343,5.058 39.321,9.333 51.333,4.666 5.296,-2.057 11.938,-4.884 19.429,-8.14 l -0.001,10e-4 c 0,0 5.188,-0.357 9.239,2.806 4.59,3.585 9.06,10.854 8.666,13.5 -0.465,3.125 -2.648,6.309 -3.11,9.176 -78.39,6.735 -225.18,16.98 -288.723,5.813 C -50.597,45.393 -87.374,22.11 -122.214,-1.617 -78.461,-6.236 -31.917,-0.138 0,0"
             style="fill:#d4dcde;fill-opacity:1;fill-rule:nonzero;stroke:none"
             id="path54"
             inkscape:connector-curvature="0" /></g><g
           id="g56"
           transform="translate(53.3243,91.0625)"><path
             d="M -3.3959423,-0.20937055 C -3.7180437,-3.3472444 -7.7209109,-5.345117 -12.336322,-4.6717781 c -4.614721,0.6733388 -8.095206,3.76364424 -7.772417,6.901518 0.322102,3.1370536 4.324968,5.1349262 8.94038,4.4615874 4.6147216,-0.6733389 8.0945181,-3.7628241 7.7724167,-6.90069785"
             style="fill:#dfe6e8;fill-opacity:1;fill-rule:nonzero;stroke:none;stroke-width:0.75130916"
             id="path58"
             inkscape:connector-curvature="0" /></g><g
           id="g60"
           transform="translate(47.0578,92.0502)"><path
             d="m 0,0 c 0,-2.726 -2.434,-4.937 -5.437,-4.937 -3.004,0 -5.438,2.211 -5.438,4.937 0,2.726 2.434,4.937 5.438,4.937 C -2.434,4.937 0,2.726 0,0"
             style="fill:#61686c;fill-opacity:1;fill-rule:nonzero;stroke:none"
             id="path62"
             inkscape:connector-curvature="0" /></g><g
           id="g64"
           transform="translate(118.4744,82.2785)"><path
             d="m 0,0 c 17.394,12.988 65.544,4.242 86.833,0 6.516,-1.298 19.378,-4.968 26,-5.5 12.199,-0.979 74.5,1.021 74.5,0 0,-3.042 -75.171,-1.265 -96.337,-2.577 -1.098,-0.069 -1.741,-2.688 -2.788,-3.027 -4.816,-1.563 -14.044,-2.179 -18.625,-3.396 -4.526,-1.203 -12.691,-6.151 -17.25,-7.167 -7.646,-1.703 -23.591,-1.195 -31.333,0 -7.293,1.126 -17.883,8.059 -26.333,13.334 -0.818,0.51 3.391,2.589 4,3.833 C -0.818,-3.446 -0.94,-0.702 0,0"
             style="fill:#94a3af;fill-opacity:1;fill-rule:nonzero;stroke:none"
             id="path66"
             inkscape:connector-curvature="0" /></g><g
           id="g68"
           transform="translate(81.2703,62.8623)"><path
             d="m 0,0 c 0,0 13.864,15.709 20.037,20.083 5.152,3.65 18.566,8.803 20.993,14.041 2.344,5.06 -1.326,17.125 -4.826,19.792 -1.09,0.831 -6.332,-1.112 -5.167,-1.833 C 50.704,39.916 4.084,11.637 0.371,8.583 -2.174,6.49 -9.61,1.332 -9.61,1.332 Z"
             style="fill:#aebec6;fill-opacity:1;fill-rule:nonzero;stroke:none"
             id="path70"
             inkscape:connector-curvature="0" /></g><g
           id="g72"
           transform="translate(21.4328,86.6743)"><path
             d="m 0,0 c 0.584,1.223 6.607,-0.534 9.063,-1.212 11.19,-3.09 31.236,-15.043 41.645,-20.184 7.737,-3.821 23.309,-11.268 31.167,-14.833 7.251,-3.29 21.948,-9.478 29.5,-12 13.612,-4.547 41.784,-10.444 55.5,-14.667 5.869,-1.807 26.139,-8.715 23.167,-8.167 -2.552,0.471 -18.104,5.286 -34.25,8.834 -11.008,2.418 -18.667,3.041 -29.042,5.541 -18.971,4.572 -56.127,16.723 -74.042,24.459 C 39.21,-26.4 9.188,-10.167 1.25,-5.312 -0.019,-4.536 -0.529,-1.106 0,0"
             style="fill:#94a3af;fill-opacity:1;fill-rule:nonzero;stroke:none"
             id="path74"
             inkscape:connector-curvature="0" /></g></g></g><path
       d="m 45.230942,94.553983 c 0,-0.550265 -1.907187,0.641305 -3.539986,0.641305 -1.633342,0 -3.491882,-1.19157 -3.491882,-0.641305 0,0.550266 1.85854,1.937131 3.491882,1.937131 1.632799,0 3.539986,-1.386865 3.539986,-1.937131"
       style="fill:#dfe6e8;fill-opacity:1;fill-rule:nonzero;stroke:none;stroke-width:0.33129257"
       id="path62-4"
       inkscape:connector-curvature="0"
       sodipodi:nodetypes="csssc" /></g></svg>