<?xml version="1.0" encoding="UTF-8" standalone="no"?>
<!-- Created with Inkscape (http://www.inkscape.org/) -->

<svg
   xmlns:dc="http://purl.org/dc/elements/1.1/"
   xmlns:cc="http://creativecommons.org/ns#"
   xmlns:rdf="http://www.w3.org/1999/02/22-rdf-syntax-ns#"
   xmlns:svg="http://www.w3.org/2000/svg"
   xmlns="http://www.w3.org/2000/svg"
   xmlns:sodipodi="http://sodipodi.sourceforge.net/DTD/sodipodi-0.dtd"
   xmlns:inkscape="http://www.inkscape.org/namespaces/inkscape"
   width="276.13422mm"
   height="129.95506mm"
   viewBox="0 0 276.13422 129.95506"
   version="1.1"
   id="svg13758"
   sodipodi:docname="grey snapper.svg"
   inkscape:version="0.92.2 5c3e80d, 2017-08-06"
   inkscape:export-filename="/home/pdimens/Omega/Graphics/Species/red snapper.png"
   inkscape:export-xdpi="96"
   inkscape:export-ydpi="96">
  <defs
     id="defs13752" />
  <sodipodi:namedview
     id="base"
     pagecolor="#ffffff"
     bordercolor="#666666"
     borderopacity="1.0"
     inkscape:pageopacity="0.0"
     inkscape:pageshadow="2"
     inkscape:zoom="0.90721002"
     inkscape:cx="459.47403"
     inkscape:cy="432.64759"
     inkscape:document-units="mm"
     inkscape:current-layer="layer1"
     showgrid="false"
     inkscape:window-width="1920"
     inkscape:window-height="1044"
     inkscape:window-x="0"
     inkscape:window-y="0"
     inkscape:window-maximized="1"
     fit-margin-top="0"
     fit-margin-left="0"
     fit-margin-right="0"
     fit-margin-bottom="0"
     inkscape:pagecheckerboard="true" />
  <metadata
     id="metadata13755">
    <rdf:RDF>
      <cc:Work
         rdf:about="">
        <dc:format>image/svg+xml</dc:format>
        <dc:type
           rdf:resource="http://purl.org/dc/dcmitype/StillImage" />
        <dc:title></dc:title>
      </cc:Work>
    </rdf:RDF>
  </metadata>
  <g
     inkscape:label="Layer 1"
     inkscape:groupmode="layer"
     id="layer1"
     transform="translate(116.23109,-39.532421)">
    <path
       style="fill:#d6d2cd;fill-opacity:1;stroke:none;stroke-width:0.26458332px;stroke-linecap:butt;stroke-linejoin:miter;stroke-opacity:1"
       d="m -37.731917,130.57146 c 2.940108,8.85518 10.479527,20.12514 10.479527,20.12514 0,0 -0.04792,-1.50173 0.47255,-1.8902 0.341894,-0.25518 0.889202,-0.11854 1.278671,0.0556 2.978863,1.33189 3.900014,5.5853 6.8381,7.00488 1.627107,0.78616 4.691788,1.27096 5.392648,0.55595 0.823135,-0.83976 0.512019,-4.5475 0.166783,-6.78251 -0.09572,-0.61971 -0.730351,-1.16331 -0.611537,-1.77901 0.102069,-0.52893 0.83126,-0.73364 1.056293,-1.22308 0.650476,-2.61601 0.876597,-6.38146 0.444754,-8.95069 -0.380242,-1.05677 -1.122797,-2.04511 -2.05699,-2.66852 -3.352136,-2.23697 -7.662059,-2.7119 -11.674805,-3.14108 -1.799874,-0.1925 -3.524357,-0.27124 -5.39265,-0.63934 -1.333737,-0.26278 -2.255024,-1.84437 -3.613629,-1.8902 -1.011721,-0.0341 -3.098697,0.26233 -2.779715,1.22306 z"
       id="path912"
       inkscape:connector-curvature="0"
       sodipodi:nodetypes="scaaasaaccassas"
       inkscape:export-xdpi="200.06673"
       inkscape:export-ydpi="200.06673" />
    <path
       style="fill:#d6d2cd;fill-opacity:1;stroke:none;stroke-width:0.26458332px;stroke-linecap:butt;stroke-linejoin:miter;stroke-opacity:1"
       d="m 35.588442,129.66532 5.267689,6.25047 c 0,0 0.194572,-1.42416 0.746911,-1.49382 3.72181,4.43566 5.6608,6.52564 5.6608,6.52564 0,0 -0.485781,-2.32424 0.66829,-2.90902 1.268678,1.3031 2.083491,2.1228 2.083491,2.1228 0,0 0.216744,-1.16297 0.668287,-1.17933 4.11958,-0.1493 7.773132,0.48992 11.59678,-0.0786 3.690876,-0.54878 7.616797,-1.13002 10.731934,-3.1842 1.934295,-1.27551 3.906618,-3.09207 4.442158,-5.34631 0.404084,-1.70091 -0.530262,-3.48715 -1.179335,-5.11044 -0.774287,-1.93645 -1.725991,-3.89467 -3.1842,-5.38563 -0.798325,-0.81626 -1.806311,-1.51229 -2.909022,-1.80831 -4.00118,-1.07411 -12.422314,0.39311 -12.422314,0.39311 z"
       id="path914"
       inkscape:connector-curvature="0"
       sodipodi:nodetypes="ccccccsaaaaaacc"
       inkscape:export-xdpi="200.06673"
       inkscape:export-ydpi="200.06673" />
    <path
       style="fill:#e6e2dc;fill-opacity:1;stroke:none;stroke-width:0.59919417px;stroke-linecap:butt;stroke-linejoin:miter;stroke-opacity:1"
       d="m -112.992,116.45462 c -0.70309,-0.12075 -1.40178,0.0125 -1.52759,0.53747 -0.37303,1.55631 1.8613,2.80314 3.31453,3.47349 2.70489,1.24772 4.64066,2.01651 7.03959,2.80899 6.308195,2.0839 12.741817,3.85365 19.268496,5.09395 6.802967,1.29281 13.723976,1.94432 20.631786,2.42792 9.48196,0.6638 19.069964,0.3503 28.508189,0.64573 24.171446,0.7566 47.455752,4.80894 70.551971,0.37668 5.395583,-1.03544 10.305945,-3.84658 15.278455,-6.18294 3.492511,-1.64098 6.780296,-3.68678 10.192683,-5.48846 2.08105,-1.09876 4.039684,-2.41461 6.269859,-3.24518 5.819769,-2.16744 11.993509,-2.99292 17.962612,-2.13918 4.461131,0.63806 9.161009,3.10821 12.43833,5.29785 2.184973,1.45982 5.816029,-3.3813 5.816029,-3.3813 l 6.48367,-16.06257 -21.502762,5.14706 -101.276268,-3.44699 -62.824691,1.95805 -36.711299,4.93611 19.53682,8.38177 c 0,0 -9.96574,0.4905 -19.45041,-1.13845 z"
       id="path14552"
       inkscape:connector-curvature="0"
       sodipodi:nodetypes="sasaaasaaasascccccccs"
       inkscape:export-xdpi="200.06673"
       inkscape:export-ydpi="200.06673" />
    <path
       style="fill:#b0a07e;fill-opacity:1;stroke:none;stroke-width:0.26458332px;stroke-linecap:butt;stroke-linejoin:miter;stroke-opacity:1"
       d="m -28.724546,57.450801 c 0,0 -1.43741,-3.282467 -1.729687,-5.031824 -0.263446,-1.576796 0,-4.795956 0,-4.795956 0,0 1.159782,3.994478 2.594533,3.616623 -0.145704,-5.747265 1.100712,-10.22089 1.100712,-10.22089 0,0 1.773765,3.952237 4.324221,3.262822 0.266915,-3.713998 1.651068,-7.901534 1.651068,-7.901534 0,0 1.666453,3.950836 3.616623,3.616623 -0.06953,-1.826706 1.808312,-5.739423 1.808312,-5.739423 0,0 1.472031,5.438405 6.3290877,3.538 0.1579718,-1.273659 1.5331354,-3.302134 1.5331354,-3.302134 0,0 0.4005227,3.984182 4.4814674,5.031823 0.4098601,-1.352033 1.7296871,-2.987645 1.7296871,-2.987645 0,0 0.50810529,4.617444 3.3021349,4.481468 0.160859,-1.052368 1.3365771,-2.515912 1.3365771,-2.515912 0,0 1.5919021,5.493427 3.4593794,4.874579 1.5701722,-1.466588 2.7124653,-2.633845 2.7124653,-2.633845 0,0 0.7725097,6.245597 4.1669787,4.678023 0.761312,-0.02782 1.611757,-2.1228 1.611757,-2.1228 0,0 -0.236272,5.090677 2.437289,4.913889 1.120699,-0.415961 2.044179,-2.319356 2.044179,-2.319356 0,0 -0.175798,2.041173 0.471733,2.673156 0.625986,0.610956 1.721686,0.450245 2.594532,0.393109 5.788593,-0.378918 15.412271,-1.998598 23.036314,-1.022089 6.17507,0.79092 12.688262,2.019034 17.847249,5.503557 4.307605,2.909476 8.193906,7.173153 9.827779,12.107823 0.972898,2.938373 0.774705,6.410932 -0.393113,9.277423 -0.518148,1.271831 -1.452686,2.620855 -2.751778,3.066267 -2.090964,0.716916 -4.362757,-0.723255 -6.525646,-1.179333 C 61.597387,76.229297 59.341471,75.573299 57.052312,75.062179 28.565053,68.701584 -28.724546,57.450801 -28.724546,57.450801 Z"
       id="path892"
       inkscape:connector-curvature="0"
       sodipodi:nodetypes="cacccccccccccccccccccasaaaaaaac"
       inkscape:export-xdpi="200.06673"
       inkscape:export-ydpi="200.06673" />
    <path
       style="fill:#d1c19f;fill-opacity:1;stroke:none;stroke-width:0.59919417px;stroke-linecap:butt;stroke-linejoin:miter;stroke-opacity:1"
       d="m 102.25537,80.198613 c -1.188,0.354149 -5.762941,0.763114 -9.850973,1.887495 C 85.938963,83.864375 78.341366,85.411777 71.677096,81.891074 60.093712,75.771639 65.753806,78.846518 54.625724,72.036285 44.946853,66.11295 24.411779,54.630603 7.0691423,53.29388 -6.3576834,52.258977 -20.183395,52.622833 -33.24717,55.892152 c -12.765804,3.19475 -25.318409,8.154674 -35.948725,16.316826 -6.91893,5.312482 -14.52321,10.054688 -21.314804,15.683637 -7.839275,6.497279 -18.258771,14.008755 -22.354501,20.815765 -1.85072,3.07586 22.670496,-1.41618 34.022278,-1.56812 53.410699,-0.71487 38.319893,-1.159 68.350207,2.28155 62.718558,7.18562 101.889272,-3.24326 101.889272,-3.24326 16.260003,-3.00226 17.394503,-2.22049 17.429693,-5.42086 0,0 1.51183,-7.251155 0.50525,-10.664743 -1.14682,-3.889197 -7.07613,-9.894334 -7.07613,-9.894334 z"
       id="path13792"
       inkscape:connector-curvature="0"
       sodipodi:nodetypes="cssssasasssccac"
       inkscape:export-xdpi="200.06673"
       inkscape:export-ydpi="200.06673" />
    <path
       style="fill:#d6d2cd;fill-opacity:1;stroke:none;stroke-width:0.26458332px;stroke-linecap:butt;stroke-linejoin:miter;stroke-opacity:1"
       d="m -90.52162,120.62376 c 0,0 -4.423198,-0.46267 -6.643579,-0.55035 -3.522181,-0.13908 -7.051511,0.15006 -10.574691,0.0393 -1.77205,-0.0557 -3.74165,0.47864 -5.307,-0.3538 -0.84931,-0.45166 -1.76114,-1.31813 -1.769,-2.28004 -0.004,-0.52413 0.94347,-1.25796 0.94347,-1.25796 l 11.47884,1.4152 11.596782,-0.0393 z"
       id="path918"
       inkscape:connector-curvature="0"
       sodipodi:nodetypes="caaaacccc"
       inkscape:export-xdpi="200.06673"
       inkscape:export-ydpi="200.06673" />
    <path
       style="fill:#c0ab90;fill-opacity:1;stroke:none;stroke-width:0.59919417px;stroke-linecap:butt;stroke-linejoin:miter;stroke-opacity:1"
       d="M 92.404395,82.086108 C 85.93896,83.864375 78.341364,85.411778 71.677092,81.891073 60.093708,75.771639 65.753804,78.846518 54.625721,72.036285 44.946849,66.11295 24.411775,54.630603 7.0691392,53.29388 -6.3576871,52.258977 -20.183399,52.622833 -33.247175,55.892152 c -12.765802,3.19475 -25.318408,8.154674 -35.948723,16.316826 -6.918931,5.312482 -14.523212,10.054689 -21.314805,15.683636 -7.839277,6.497281 -18.258777,14.008756 -22.354497,20.815766 -1.00263,1.66634 6.16325,0.97087 15.721257,-3.78293 8.084868,-4.02112 18.260913,-11.831698 22.748561,-14.463484 8.883549,-5.209767 7.896336,-5.481497 18.873428,-8.127405 6.347193,-1.529921 19.34209,13.08667 20.904638,21.481589 0.574436,3.08621 13.752465,1.90943 14.072833,0.21779 2.650733,-13.996671 3.23207,-19.026818 5.834474,-30.695911 9.9451906,0.750785 -0.824658,32.109731 -0.223452,36.233511 6.2246279,-1.23302 7.6643385,2.39809 10.9902785,-1.55741 C 6.4671931,95.633229 -0.09575653,78.206436 9.5212363,66.614188 10.803584,65.068456 0.97812606,110.31635 5.4326083,110.25709 13.531693,110.14935 17.945096,97.373845 18.860332,93.655009 22.800683,77.644381 24.251167,63.7388 27.523983,63.405118 c 11.376424,-1.159893 0.06796,36.46469 3.160874,46.216272 0.881148,2.77815 10.938353,2.24593 13.060211,-1.80887 6.069742,-11.599101 3.384868,-26.825724 9.365191,-27.825501 5.622535,-0.939963 7.652544,30.801531 12.156383,30.191961 7.662319,-1.03706 6.636961,-19.584195 9.417997,-20.290232 5.044727,-1.280734 8.191219,23.710092 13.049209,15.875382 4.746801,-9.613728 3.176962,-15.225896 7.970957,-17.231211 1.54398,-0.645843 1.930862,-7.184864 -3.30041,-6.446811 z"
       id="path13792-3"
       inkscape:connector-curvature="0"
       sodipodi:nodetypes="csssasassssssccsssssssssscsc"
       inkscape:export-xdpi="200.06673"
       inkscape:export-ydpi="200.06673" />
    <path
       style="fill:#b0a07e;fill-opacity:1;stroke:none;stroke-width:0.60019892px;stroke-linecap:butt;stroke-linejoin:miter;stroke-opacity:1"
       d="m -40.874879,105.93932 c 0,0 4.240317,3.15119 5.187863,5.47767 0.704773,1.7304 0.793428,3.87416 0.08235,5.60199 -0.368769,0.89606 -2.077296,2.03857 -2.077296,2.03857 0,0 9.541351,2.33978 14.102452,1.14364 3.595093,-0.9428 5.571225,-3.24013 9.230972,-6.23726 4.214067,-3.45109 8.4089787,-6.95413 12.235189,-10.8281 3.4657083,-3.508969 6.6262061,-6.595281 10.3172949,-9.446766 3.3623441,-2.597519 10.7051131,-6.925213 10.7051131,-6.925213 0,0 -8.152711,-0.431252 -12.1873599,0.04185 -5.1246269,0.600915 -10.1500977,1.9771 -15.0695033,3.52906 -5.3308968,1.681777 -10.4391668,4.007494 -15.5635878,6.237451 -3.169388,1.379199 -6.365117,2.72929 -9.382262,4.413848 -2.636201,1.47187 -7.58122,4.95326 -7.581219,4.95326 z"
       id="path22"
       inkscape:connector-curvature="0"
       sodipodi:nodetypes="caacassacaaaacc"
       inkscape:export-xdpi="200.06673"
       inkscape:export-ydpi="200.06673" />
    <circle
       id="path24"
       cx="-83.86232"
       cy="93.619942"
       r="5.0480504"
       style="opacity:1;fill:#dae0e1;fill-opacity:1;stroke:none;stroke-width:0.43615997"
       inkscape:export-xdpi="200.06673"
       inkscape:export-ydpi="200.06673" />
    <circle
       id="path24-3"
       cx="-83.996063"
       cy="93.523682"
       r="3.0929959"
       style="opacity:1;fill:#533432;fill-opacity:1;stroke:none;stroke-width:0.26723999"
       inkscape:export-xdpi="200.06673"
       inkscape:export-ydpi="200.06673" />
    <path
       transform="rotate(-12.060729)"
       style="opacity:1;fill:#dbdbdb;fill-opacity:1;stroke:none;stroke-width:0.07963151"
       d="m -99.693265,72.197054 c 0,0.275189 -0.444805,-0.138022 -1.951165,-0.135691 -1.50636,0.0023 -1.98403,0.519642 -1.98403,0.244455 0,-0.275189 1.04253,-1.241002 1.98403,-1.241001 0.9415,0 1.951165,0.857048 1.951165,1.132237 z"
       id="path24-3-7"
       inkscape:connector-curvature="0"
       sodipodi:nodetypes="szsss"
       inkscape:export-xdpi="200.06673"
       inkscape:export-ydpi="200.06673" />
    <path
       style="fill:#d6d2cd;fill-opacity:1;stroke:none;stroke-width:0.26458332px;stroke-linecap:butt;stroke-linejoin:miter;stroke-opacity:1"
       d="m -86.433263,114.45192 c -0.944517,-1.30574 -2.755791,-1.79185 -4.324223,-2.16211 -1.53038,-0.36127 -3.160854,0.2235 -4.717334,0 -3.595474,-0.51629 -7.48464,-2.6279 -10.45676,-3.06627 -2.97212,-0.43838 -6.35522,-0.88859 -7.14683,-0.0123 -0.79161,0.87631 -0.72694,1.99129 -0.59746,2.80333 4.619,-0.45913 6.39967,0.18978 9.47398,0.98278 2.46746,0.63646 4.69924,1.97287 7.036691,2.98764 1.212156,0.52625 2.627576,0.73959 3.623609,1.60802 0.953632,0.83146 0.956623,2.50855 1.997881,3.22725 1.131529,0.781 2.844831,1.44969 4.049046,0.78622 1.231899,-0.67872 1.374157,-2.53363 1.533134,-3.93111 0.122743,-1.07898 0.164727,-2.3436 -0.471734,-3.22347 z"
       id="path916"
       inkscape:connector-curvature="0"
       sodipodi:nodetypes="aaazzcaaaaaaa"
       inkscape:export-xdpi="200.06673"
       inkscape:export-ydpi="200.06673" />
    <path
       style="fill:#b0a07e;fill-opacity:1;stroke:none;stroke-width:0.59919417px;stroke-linecap:butt;stroke-linejoin:miter;stroke-opacity:1"
       d="m 93.565496,80.985397 c 10.201644,-6.556653 16.807444,-11.56487 25.557074,-16.795734 6.66835,-3.9866 13.18949,-9.130544 20.49603,-11.097381 -4.31925,29.771675 -3.73209,36.090457 -3.51998,54.190918 0.1541,13.15091 -0.14035,29.86654 3.47937,39.30173 -10.6074,-3.38047 -15.04053,-7.90443 -22.22221,-12.42674 -4.58711,-2.88851 -9.09132,-5.83317 -13.29148,-9.37027 -2.03099,-1.71038 -2.757,-1.59398 -7.330689,-4.82189 5.189149,-6.11953 5.725609,-7.63986 6.019329,-12.15011 0.61432,-9.433331 -3.063705,-23.24659 -9.187444,-26.830523 z"
       id="path13796"
       inkscape:connector-curvature="0"
       sodipodi:nodetypes="cacacascac"
       inkscape:export-xdpi="200.06673"
       inkscape:export-ydpi="200.06673" />
  </g>
</svg>
