<?xml version="1.0" encoding="UTF-8" standalone="no"?>
<!-- Created with Inkscape (http://www.inkscape.org/) -->

<svg
   width="157.45126mm"
   height="70.750908mm"
   viewBox="0 0 157.45126 70.750908"
   version="1.1"
   id="svg1167"
   inkscape:version="1.1 (c68e22c387, 2021-05-23)"
   sodipodi:docname="kawakawa.svg"
   xmlns:inkscape="http://www.inkscape.org/namespaces/inkscape"
   xmlns:sodipodi="http://sodipodi.sourceforge.net/DTD/sodipodi-0.dtd"
   xmlns="http://www.w3.org/2000/svg"
   xmlns:svg="http://www.w3.org/2000/svg">
  <sodipodi:namedview
     id="namedview1169"
     pagecolor="#ffffff"
     bordercolor="#666666"
     borderopacity="1.0"
     inkscape:pageshadow="2"
     inkscape:pageopacity="0.0"
     inkscape:pagecheckerboard="0"
     inkscape:document-units="mm"
     showgrid="false"
     inkscape:zoom="2.2668787"
     inkscape:cx="297.54569"
     inkscape:cy="133.88453"
     inkscape:window-width="1920"
     inkscape:window-height="1051"
     inkscape:window-x="-9"
     inkscape:window-y="-9"
     inkscape:window-maximized="1"
     inkscape:current-layer="layer1"
     fit-margin-top="0"
     fit-margin-left="0"
     fit-margin-right="0"
     fit-margin-bottom="0" />
  <defs
     id="defs1164" />
  <g
     inkscape:label="Layer 1"
     inkscape:groupmode="layer"
     id="layer1"
     transform="translate(-17.822531,-79.889209)">
    <path
       style="fill:#587386;fill-opacity:1;stroke:none;stroke-width:0.264583px;stroke-linecap:butt;stroke-linejoin:miter;stroke-opacity:1"
       d="m 153.02402,117.83304 c 0,0 3.69594,-2.95098 4.54077,-5.05161 3.88604,-9.66243 15.82014,-16.603542 17.70901,-14.87103 -2.7153,0.225997 -11.81416,12.00266 -11.23841,20.14968 0.55262,7.8197 2.77076,14.28808 11.06814,21.5119 0,0 -4.70726,-0.48483 -6.64088,-1.70278 -3.9439,-2.48419 -7.79556,-8.81118 -11.37821,-13.62116 -1.02282,-1.37321 -3.32254,-3.91758 -3.32254,-3.91758 z"
       id="path8911"
       sodipodi:nodetypes="cscscsscc" />
    <g
       id="g34638"
       style="fill:#8ba6b9;fill-opacity:1;stroke:none">
      <path
         style="fill:#8ba6b9;fill-opacity:1;stroke:none;stroke-width:0.264583px;stroke-linecap:butt;stroke-linejoin:miter;stroke-opacity:1"
         d="m 112.38411,107.64468 c 1.18259,-0.21419 2.22264,-0.761 3.17854,-1.50413 0.44299,0.92557 1.19756,1.41492 2.01497,1.81631 l -2.97988,0.62436 z"
         id="path17201"
         sodipodi:nodetypes="ccccc" />
      <path
         style="fill:#8ba6b9;fill-opacity:1;stroke:none;stroke-width:0.264583px;stroke-linecap:butt;stroke-linejoin:miter;stroke-opacity:1"
         d="m 118.33983,109.92031 c 1.18259,-0.21419 2.22264,-0.761 3.17854,-1.50413 0.44299,0.92557 1.19756,1.41492 2.01497,1.81631 l -2.97988,0.62436 z"
         id="path17201-2"
         sodipodi:nodetypes="ccccc" />
      <path
         style="fill:#8ba6b9;fill-opacity:1;stroke:none;stroke-width:0.264583px;stroke-linecap:butt;stroke-linejoin:miter;stroke-opacity:1"
         d="m 124.11926,112.0488 c 1.18259,-0.21419 2.22264,-0.761 3.17854,-1.50413 0.44299,0.92557 1.19756,1.41492 2.01497,1.81631 l -2.97988,0.62436 z"
         id="path17201-2-6"
         sodipodi:nodetypes="ccccc" />
      <path
         style="fill:#8ba6b9;fill-opacity:1;stroke:none;stroke-width:0.264583px;stroke-linecap:butt;stroke-linejoin:miter;stroke-opacity:1"
         d="m 128.26272,113.69483 c 1.18259,-0.21419 2.22264,-0.761 3.17854,-1.50413 0.44299,0.92557 1.19756,1.41492 2.01497,1.81631 l -2.97988,0.62436 z"
         id="path17201-2-8"
         sodipodi:nodetypes="ccccc" />
      <path
         style="fill:#8ba6b9;fill-opacity:1;stroke:none;stroke-width:0.264583px;stroke-linecap:butt;stroke-linejoin:miter;stroke-opacity:1"
         d="m 132.43455,114.8584 c 1.18259,-0.21419 2.22264,-0.761 3.17854,-1.50413 0.44299,0.92557 1.19756,1.41492 2.01497,1.81631 l -2.97988,0.62436 z"
         id="path17201-2-0"
         sodipodi:nodetypes="ccccc" />
      <path
         style="fill:#8ba6b9;fill-opacity:1;stroke:none;stroke-width:0.264583px;stroke-linecap:butt;stroke-linejoin:miter;stroke-opacity:1"
         d="m 136.54963,115.73818 c 1.18259,-0.21419 2.22264,-0.761 3.17854,-1.50413 0.44299,0.92557 1.19756,1.41492 2.01497,1.81631 l -2.97988,0.62436 z"
         id="path17201-2-62"
         sodipodi:nodetypes="ccccc" />
      <path
         style="fill:#8ba6b9;fill-opacity:1;stroke:none;stroke-width:0.264583px;stroke-linecap:butt;stroke-linejoin:miter;stroke-opacity:1"
         d="m 140.80661,116.49438 c 1.18259,-0.21419 2.22264,-0.761 3.17854,-1.50413 0.44299,0.92557 1.19756,1.41492 2.01497,1.81631 l -2.97988,0.62436 z"
         id="path17201-2-7"
         sodipodi:nodetypes="ccccc" />
      <path
         style="fill:#8ba6b9;fill-opacity:1;stroke:none;stroke-width:0.264583px;stroke-linecap:butt;stroke-linejoin:miter;stroke-opacity:1"
         d="m 144.73307,117.34578 c 1.18259,-0.21419 2.22264,-0.761 3.17854,-1.50413 0.44299,0.92557 1.19756,1.41492 2.01497,1.81631 l -2.97988,0.62436 z"
         id="path17201-2-68"
         sodipodi:nodetypes="ccccc" />
      <path
         style="fill:#8ba6b9;fill-opacity:1;stroke:none;stroke-width:0.264583px;stroke-linecap:butt;stroke-linejoin:miter;stroke-opacity:1"
         d="m 148.44482,117.52086 c 1.18259,-0.21419 2.22264,-0.761 3.17854,-1.50413 0.44299,0.92557 1.19756,1.41492 2.01497,1.81631 l -2.97988,0.62436 z"
         id="path17201-2-69"
         sodipodi:nodetypes="ccccc" />
      <path
         style="fill:#8ba6b9;fill-opacity:1;stroke:none;stroke-width:0.264583px;stroke-linecap:butt;stroke-linejoin:miter;stroke-opacity:1"
         d="m 126.26312,127.38052 c -0.92081,0.77235 -1.5529,1.76288 -2.01459,2.88218 -0.84361,-0.58416 -1.74153,-0.635 -2.6504,-0.5783 l 2.27826,-2.01967 z"
         id="path17201-2-08"
         sodipodi:nodetypes="ccccc" />
      <path
         style="fill:#8ba6b9;fill-opacity:1;stroke:none;stroke-width:0.264583px;stroke-linecap:butt;stroke-linejoin:miter;stroke-opacity:1"
         d="m 130.38582,125.49267 c -0.92081,0.77235 -1.5529,1.76288 -2.01459,2.88218 -0.84361,-0.58416 -1.74153,-0.635 -2.6504,-0.5783 l 2.27826,-2.01967 z"
         id="path17201-2-08-6"
         sodipodi:nodetypes="ccccc" />
      <path
         style="fill:#8ba6b9;fill-opacity:1;stroke:none;stroke-width:0.264583px;stroke-linecap:butt;stroke-linejoin:miter;stroke-opacity:1"
         d="m 135.21884,123.56605 c -0.97917,0.69688 -1.68783,1.63416 -2.23684,2.71331 -0.79462,-0.64923 -1.68568,-0.77112 -2.59618,-0.78669 l 2.43126,-1.83261 z"
         id="path17201-2-08-6-6"
         sodipodi:nodetypes="ccccc" />
      <path
         style="fill:#8ba6b9;fill-opacity:1;stroke:none;stroke-width:0.264583px;stroke-linecap:butt;stroke-linejoin:miter;stroke-opacity:1"
         d="m 139.39581,122.07392 c -1.04539,0.59294 -1.84631,1.45272 -2.50294,2.46998 -0.72396,-0.72719 -1.59785,-0.93969 -2.50197,-1.04842 l 2.60615,-1.574 z"
         id="path17201-2-08-6-6-4"
         sodipodi:nodetypes="ccccc" />
      <path
         style="fill:#8ba6b9;fill-opacity:1;stroke:none;stroke-width:0.264583px;stroke-linecap:butt;stroke-linejoin:miter;stroke-opacity:1"
         d="m 144.16913,121.03072 c -1.05355,0.57832 -1.86638,1.42685 -2.53713,2.43485 -0.71375,-0.73721 -1.5846,-0.96187 -2.48711,-1.08319 l 2.62783,-1.53752 z"
         id="path17201-2-08-6-6-8"
         sodipodi:nodetypes="ccccc" />
      <path
         style="fill:#8ba6b9;fill-opacity:1;stroke:none;stroke-width:0.264583px;stroke-linecap:butt;stroke-linejoin:miter;stroke-opacity:1"
         d="m 148.68873,120.10468 c -1.08235,0.52244 -1.93842,1.32732 -2.66095,2.29888 -0.67424,-0.77352 -1.53215,-1.0434 -2.42708,-1.21174 l 2.70462,-1.39803 z"
         id="path17201-2-08-6-6-9"
         sodipodi:nodetypes="ccccc" />
      <path
         style="fill:#8ba6b9;fill-opacity:1;stroke:none;stroke-width:0.264583px;stroke-linecap:butt;stroke-linejoin:miter;stroke-opacity:1"
         d="m 153.3608,119.88142 c -1.124,0.4255 -2.04736,1.1522 -2.85232,2.05665 -0.60379,-0.82967 -1.43473,-1.17376 -2.31146,-1.41993 l 2.81682,-1.15545 z"
         id="path17201-2-08-6-6-3"
         sodipodi:nodetypes="ccccc" />
    </g>
    <path
       style="fill:#8ba6b9;fill-opacity:1;stroke:none;stroke-width:0.264583px;stroke-linecap:butt;stroke-linejoin:miter;stroke-opacity:1"
       d="m 99.61319,103.75664 c 4.83151,-3.907871 9.92217,-7.767145 12.45875,-8.343667 -6.75606,7.472557 -2.74504,9.309627 1.22032,10.443777 l -6.07328,0.5676 z"
       id="path7056"
       sodipodi:nodetypes="ccccc" />
    <path
       style="fill:#8ba6b9;fill-opacity:1;stroke:none;stroke-width:0.264583px;stroke-linecap:butt;stroke-linejoin:miter;stroke-opacity:1"
       d="m 58.77462,103.27419 c 1.897248,-8.256877 4.124112,-16.325402 8.116631,-23.384981 -0.382791,1.271011 -0.221556,2.541149 0.227039,3.660999 -0.183815,0.704634 0.04718,1.326307 0.227036,1.958207 -0.61074,2.331159 -0.692321,4.620934 -0.397317,6.271941 0.262357,0.589879 0.645821,1.018281 1.135193,1.305473 -0.473979,1.435756 -0.155501,2.277109 1.106813,2.667702 0.390936,0.743504 0.893782,1.519528 2.327147,1.532512 0.705855,0.774265 1.61186,1.23177 2.696083,1.173624 1.453499,0.784907 2.150048,0.434389 3.036642,0.368937 0.824572,0.62714 1.822897,1.037087 3.547478,0.539216 0.954979,0.65559 2.016033,0.67473 3.121781,0.425702 0.851203,0.483508 1.778661,0.849748 2.781223,0.500778 0.765154,0.49465 1.445005,1.04415 3.235299,0.87978 1.280146,0.48114 2.347987,0.39614 3.405579,0.2838 0.823016,0.35226 1.646031,0.47075 2.469047,0.36894 0.333509,0.89508 1.060088,1.20055 1.674407,1.67441 z"
       id="path7368"
       sodipodi:nodetypes="cccccccccccccccccc" />
    <path
       style="fill:#8ba6b9;fill-opacity:1;stroke:none;stroke-width:0.264583px;stroke-linecap:butt;stroke-linejoin:miter;stroke-opacity:1"
       d="m 103.8134,135.62719 c -0.003,-0.14067 6.86109,-1.8442 10.07484,2.44067 1.46728,1.95631 5.02323,2.99602 6.49898,2.58256 -5.95686,-7.74815 -1.0563,-7.91523 1.36223,-10.01808 l -1.73117,-1.75955 -16.51705,5.98814 z"
       id="path6517"
       sodipodi:nodetypes="csccccc" />
    <path
       style="fill:#8ba6b9;fill-opacity:1;stroke:none;stroke-width:0.264583px;stroke-linecap:butt;stroke-linejoin:miter;stroke-opacity:1"
       d="m 56.731272,136.0245 c 4.549955,10.79629 7.097565,12.30171 9.819421,14.61562 0,0 1.36939,-2.03345 1.53251,-3.20693 0.486275,-3.49827 -1.787929,-10.44377 -1.787929,-10.44377 z"
       id="path6216"
       sodipodi:nodetypes="ccacc" />
    <path
       style="fill:#e3e3e3;fill-opacity:1;stroke:none;stroke-width:0.264583px;stroke-linecap:butt;stroke-linejoin:miter;stroke-opacity:1"
       d="m 19.298282,115.90321 5.448926,4.65429 c -2.308226,-0.35832 -4.616451,-0.46399 -6.924677,-0.34056 10.454276,10.65102 51.356773,28.43054 98.761789,11.69249 8.92196,-3.15022 16.75254,-10.3587 38.15508,-11.71315 2.31689,-0.14662 6.79259,-0.18719 7.02561,-1.90917 0.23302,-1.72198 -5.06368,-2.02593 -7.57255,-1.59616 -2.52494,0.43252 -8.63504,0.59554 -16.36634,-1.1342 -11.49323,-2.57141 -22.21911,-7.44905 -33.67216,-10.72344 -7.564982,-2.16281 -24.599478,-3.02875 -36.888067,-2.18441 -15.509477,1.06564 -36.99381,5.73294 -47.967611,13.25431 z"
       id="path40"
       sodipodi:nodetypes="cccsszssssc" />
    <path
       style="fill:#d3eae5;fill-opacity:1;stroke:none;stroke-width:0.264583px;stroke-linecap:butt;stroke-linejoin:miter;stroke-opacity:1"
       d="m 68.667364,104.28962 c 1.051839,0.59787 2.27897,0.94398 3.412087,1.54228 9.880462,5.21703 28.152409,7.76309 49.206429,10.5769 8.31473,1.11123 15.34149,1.64708 20.54286,1.51854 -4.16552,-1.90153 -11.22274,-4.08754 -18.02127,-6.27668 -7.62128,-2.45408 -15.11421,-4.91211 -21.73326,-6.97779 -15.259382,-4.762156 -33.406846,-0.38325 -33.406846,-0.38325 z"
       id="path78843"
       sodipodi:nodetypes="csscssc" />
    <path
       id="path43999"
       style="fill:#5d849f;fill-opacity:1;stroke:none;stroke-width:0.999999px;stroke-linecap:butt;stroke-linejoin:miter;stroke-opacity:1"
       d="m 288.95508,383.76367 c -83.05482,-0.081 -165.87641,17.91378 -216.01758,54.29492 60.225,-31.05701 164.28022,-52.94009 199.55664,-37.91406 0.20399,-0.24252 0.40755,-0.4876 0.61719,-0.7207 0.32076,-0.35665 0.64681,-0.70197 0.98047,-1.03711 0.33366,-0.33515 0.67337,-0.66029 1.01953,-0.97461 0.69231,-0.62864 1.41055,-1.21621 2.15039,-1.76563 0.73984,-0.54942 1.50299,-1.06152 2.28711,-1.5371 0.78411,-0.47564 1.58893,-0.915 2.41406,-1.32227 0.82513,-0.40727 1.67032,-0.78065 2.5332,-1.125 0.86289,-0.34435 1.74325,-0.66041 2.64063,-0.94727 0.89738,-0.28685 1.81161,-0.5445 2.74023,-0.77929 0.92862,-0.2348 1.87153,-0.4466 2.82813,-0.63477 0.95659,-0.18816 1.92689,-0.35303 2.9082,-0.5 0.98132,-0.14697 1.97379,-0.27551 2.97656,-0.38672 1.00278,-0.1112 2.01614,-0.20624 3.03711,-0.28711 1.02097,-0.0809 2.05003,-0.14715 3.08594,-0.20312 1.03591,-0.056 2.07741,-0.10022 3.125,-0.13672 2.09519,-0.073 4.21163,-0.11289 6.33399,-0.14063 -1.06181,0.68429 -2.09381,1.3277 -3.09961,1.9336 -1.00581,0.6059 -1.98609,1.17376 -2.94141,1.70898 -0.95532,0.53522 -1.88653,1.03752 -2.79688,1.50977 -0.91034,0.47225 -1.79904,0.91504 -2.66992,1.33203 -0.87087,0.41699 -1.72363,0.80829 -2.56054,1.17773 -0.83692,0.36945 -1.65835,0.71727 -2.4668,1.04688 -1.61691,0.65921 -3.18262,1.24489 -4.71875,1.79101 -1.53613,0.54612 -3.04355,1.05216 -4.54297,1.54688 -1.49942,0.49472 -2.99129,0.97938 -4.49805,1.48437 -1.50676,0.505 -3.02777,1.03046 -4.58593,1.60743 -0.17737,0.0657 -0.36853,0.15169 -0.54688,0.21875 2.59109,1.14442 5.23064,2.25503 7.91211,3.33593 0.25972,-0.26759 0.26465,-0.29018 0.61328,-0.62695 0.46393,-0.44814 0.9851,-0.92733 1.50195,-1.35547 0.51686,-0.42813 1.03006,-0.80537 1.48047,-1.05078 1.01509,-0.55309 2.06512,-1.02125 3.14063,-1.42383 1.0755,-0.40257 2.1756,-0.7394 3.29492,-1.0332 2.23865,-0.58761 4.54901,-0.99931 6.86328,-1.40234 2.31427,-0.40304 4.6336,-0.79716 6.89063,-1.34961 1.12851,-0.27623 2.24078,-0.59255 3.33007,-0.96875 1.0893,-0.37621 2.15599,-0.81214 3.18946,-1.33008 0.82634,-0.41413 1.56842,-0.97247 2.27344,-1.59375 0.70497,-0.62129 1.37167,-1.30536 2.04492,-1.97461 0.67325,-0.66925 1.35293,-1.32283 2.08398,-1.88086 0.73105,-0.55803 1.51416,-1.02096 2.39258,-1.30859 0.76471,-0.2504 2.19366,-0.56042 3.32031,-0.63868 0.56333,-0.0391 1.05044,-0.0203 1.3418,0.0918 0.14568,0.056 0.24301,0.13679 0.27539,0.24414 0.0324,0.10736 -2e-4,0.24247 -0.11133,0.41016 -0.93248,1.40712 -1.93552,2.71965 -3.00391,3.9414 -1.06834,1.22175 -2.20147,2.3525 -3.39648,3.39454 -1.19501,1.04199 -2.45132,1.9953 -3.76367,2.86328 -1.31236,0.86798 -2.68114,1.65002 -4.10156,2.34961 -0.87438,0.43063 -1.78458,0.76087 -2.72071,1.01757 -0.93613,0.25671 -1.8981,0.4392 -2.87695,0.57422 -1.95771,0.27005 -3.98172,0.35049 -5.99609,0.44727 -2.01438,0.0968 -4.01876,0.21126 -5.9375,0.55273 -0.95938,0.17074 -1.89778,0.39871 -2.80469,0.70899 -0.90691,0.31027 -1.78178,0.70305 -2.61719,1.20507 -0.31589,0.18985 -0.64807,0.49809 -0.96875,0.85547 -0.32068,0.35739 -0.63076,0.76298 -0.90039,1.14453 -0.0112,0.0158 -0.009,0.0136 -0.0195,0.0293 3.17143,1.21236 6.39763,2.37945 9.66601,3.50781 0.10257,-0.15458 0.19352,-0.3152 0.33399,-0.44921 0.43446,-0.41449 1.03541,-0.73914 1.70703,-1.01758 1.34324,-0.5569 2.97046,-0.93242 4.125,-1.4961 0.72502,-0.35397 1.49088,-0.54935 2.27734,-0.66015 0.78647,-0.1108 1.59253,-0.13698 2.40235,-0.1543 0.80981,-0.0173 1.62289,-0.0261 2.41797,-0.0996 0.79507,-0.0735 1.57221,-0.21274 2.31445,-0.49219 3.41207,-1.28473 6.74141,-2.53725 10.29102,-4.10156 1.7748,-0.78216 3.60575,-1.64241 5.52929,-2.62305 1.92355,-0.98063 3.93937,-2.0828 6.08789,-3.34765 0.27193,-0.16009 0.47449,-0.37332 0.62305,-0.62891 0.14856,-0.25558 0.24413,-0.55335 0.30469,-0.87695 0.1211,-0.6472 0.10078,-1.40187 0.082,-2.15625 -0.0188,-0.75438 -0.0364,-1.50868 0.0879,-2.15039 0.0621,-0.32086 0.15962,-0.61377 0.31055,-0.86524 0.15092,-0.25147 0.35577,-0.46063 0.63086,-0.61523 0.50761,-0.28529 1.36599,-0.43491 2.32226,-0.46875 0.95627,-0.0338 2.00992,0.0488 2.9082,0.23047 0.44915,0.0908 0.85957,0.20577 1.19922,0.34375 0.33965,0.13798 0.60857,0.29788 0.77539,0.47851 0.16683,0.18064 0.23145,0.38278 0.16211,0.60157 -0.0693,0.21879 -0.27375,0.45457 -0.64258,0.70703 -1.34002,0.91726 -2.22897,1.68429 -2.84374,2.34961 -0.61481,0.66531 -0.95535,1.22975 -1.19922,1.74023 -0.24387,0.51048 -0.38996,0.96715 -0.61719,1.41992 -0.22724,0.45277 -0.53471,0.9004 -1.09961,1.39258 -1.43803,1.25291 -2.91163,2.28059 -4.42774,3.20508 -1.51607,0.92449 -3.0752,1.74538 -4.68359,2.58984 -1.60839,0.84447 -3.26556,1.7118 -4.98047,2.72461 -1.7149,1.01282 -3.48662,2.17201 -5.32226,3.60157 -0.4302,0.335 -0.89443,0.55834 -1.38477,0.69726 -0.49034,0.13892 -1.00697,0.19335 -1.54297,0.1875 -1.072,-0.0117 -2.22093,-0.26217 -3.38867,-0.54492 -1.16774,-0.28275 -2.35433,-0.59714 -3.50195,-0.74024 -0.57381,-0.0715 -1.13849,-0.10091 -1.68555,-0.0605 -0.54706,0.0404 -1.07621,0.14989 -1.58203,0.35351 -0.49841,0.20065 -0.90299,0.56985 -1.26172,1.01367 -0.35873,0.44386 -0.672,0.96282 -0.99023,1.4629 -0.0709,0.11141 -0.15467,0.19225 -0.22657,0.30078 3.87235,1.26394 7.79983,2.46904 11.76563,3.62109 1.01518,-0.13016 2.0345,-0.23918 3.02539,-0.44141 0.75836,-0.15477 1.49099,-0.33207 2.16602,-0.5371 0.675,-0.20506 1.29245,-0.43689 1.82421,-0.69922 0.81655,-0.40283 1.51619,-0.97331 2.15821,-1.62696 0.64202,-0.65365 1.22668,-1.39169 1.81054,-2.1289 0.58387,-0.73721 1.16846,-1.47345 1.81055,-2.12696 0.64209,-0.6535 1.34151,-1.22442 2.1582,-1.62695 0.76319,-0.37616 1.586,-0.56746 2.4375,-0.66797 0.85151,-0.10051 1.73127,-0.10875 2.61133,-0.11914 0.88007,-0.0104 1.76052,-0.0231 2.60938,-0.1289 0.84885,-0.10581 1.66596,-0.30662 2.42382,-0.69336 0.60804,-0.31026 1.12166,-0.77032 1.58594,-1.30079 0.46429,-0.53046 0.88101,-1.13082 1.29883,-1.7207 0.41782,-0.58988 0.83604,-1.16971 1.30469,-1.6582 0.46864,-0.4885 0.98676,-0.88501 1.60351,-1.11133 1.2419,-0.45571 2.56256,-0.84007 3.92579,-1.20312 1.3632,-0.36308 2.76921,-0.70521 4.18359,-1.07618 1.41438,-0.37096 2.83707,-0.7706 4.23242,-1.25 1.39536,-0.47939 2.76416,-1.03821 4.07031,-1.72656 0.53129,-0.27999 1.38672,-0.43812 2.33594,-0.50586 0.94922,-0.0677 1.99225,-0.0456 2.89844,0.0391 0.90619,0.0846 1.67397,0.23112 2.07617,0.40821 0.2011,0.0885 0.31016,0.18472 0.29883,0.28515 -0.0113,0.10044 -0.14245,0.20572 -0.42383,0.31055 -1.81441,0.67602 -3.18882,1.35217 -4.29687,2.00781 -1.10808,0.65564 -1.95054,1.28888 -2.70118,1.88086 -0.75063,0.59198 -1.40828,1.14191 -2.15039,1.62696 -0.7421,0.48502 -1.56791,0.9054 -2.65039,1.24023 -0.6425,0.19873 -1.31946,0.25917 -2.00976,0.25586 -0.6903,-0.003 -1.39433,-0.0692 -2.0918,-0.11914 -0.69748,-0.05 -1.38871,-0.0842 -2.05274,-0.0254 -0.664,0.0588 -1.30068,0.2103 -1.89062,0.5332 -0.28541,0.15622 -0.50941,0.38238 -0.70117,0.64453 -0.19176,0.26216 -0.35058,0.56052 -0.50781,0.86328 -0.15724,0.30277 -0.31234,0.60867 -0.49414,0.88672 -0.18183,0.27805 -0.39071,0.52683 -0.65626,0.71485 -0.40602,0.28749 -0.85492,0.48768 -1.32617,0.64062 -0.47125,0.15294 -0.96406,0.25889 -1.46289,0.35742 -0.49883,0.0985 -1.00343,0.1902 -1.49218,0.31446 -0.48878,0.12426 -0.96321,0.28158 -1.4043,0.51171 -1.00648,0.52511 -1.93778,1.16674 -2.83203,1.86719 -0.89425,0.70046 -1.75099,1.45938 -2.60547,2.22266 -0.85448,0.76328 -1.70657,1.53056 -2.59375,2.24414 -0.88718,0.71358 -1.80845,1.37441 -2.80078,1.92578 -1.32055,0.73372 -3.44022,1.53716 -5.22852,2.1582 -1.35028,0.46893 -1.96292,0.64848 -2.45117,0.79883 4.11502,1.10552 8.26337,2.14935 12.42773,3.14063 -0.0997,-0.12771 -0.11058,-0.10733 -0.20898,-0.24219 -0.44552,-0.61058 -0.86223,-1.28343 -1.11133,-1.93164 -0.12455,-0.32411 -0.20742,-0.64331 -0.23047,-0.94336 -0.0231,-0.30006 0.0136,-0.58224 0.12696,-0.83594 0.0977,-0.21871 0.2312,-0.38914 0.39453,-0.52344 0.16332,-0.13429 0.35613,-0.23242 0.57031,-0.30273 0.42835,-0.14062 0.94491,-0.17244 1.48828,-0.17969 0.54337,-0.007 1.11376,0.01 1.6543,-0.0273 0.54053,-0.0373 1.05084,-0.13054 1.4707,-0.36133 0.65934,-0.36242 1.22787,-0.84903 1.75391,-1.39648 0.52603,-0.54746 1.00989,-1.15571 1.49414,-1.75977 0.48424,-0.60406 0.96994,-1.2041 1.5039,-1.73633 0.53396,-0.53222 1.11583,-0.99617 1.79102,-1.32812 0.57632,-0.28335 1.18543,-0.45573 1.81445,-0.56446 0.62903,-0.10872 1.27817,-0.15291 1.93164,-0.18554 0.65348,-0.0326 1.31127,-0.0524 1.96094,-0.10742 0.64967,-0.0551 1.2906,-0.14622 1.9082,-0.32227 2.11072,-0.60168 4.27082,-1.22061 6.33789,-2.02344 1.03354,-0.40141 2.04389,-0.8494 3.01368,-1.36328 0.96978,-0.51388 1.89871,-1.09391 2.76953,-1.76172 0.41431,-0.31772 0.66481,-0.81515 0.92773,-1.29297 0.13147,-0.2389 0.26595,-0.47378 0.42578,-0.67773 0.15984,-0.20395 0.34382,-0.37709 0.57618,-0.49609 0.39808,-0.20392 0.82811,-0.28417 1.27343,-0.29688 0.44533,-0.0127 0.90592,0.0409 1.3711,0.10156 0.46517,0.0607 0.93492,0.12833 1.39257,0.14453 0.45766,0.0162 0.90343,-0.018 1.32618,-0.16406 0.37516,-0.12966 0.71114,-0.33394 1.02734,-0.57617 0.3162,-0.24223 0.61224,-0.52332 0.9082,-0.80469 0.29597,-0.28136 0.59179,-0.56349 0.90625,-0.81055 0.31446,-0.24704 0.64785,-0.45835 1.01953,-0.59765 0.73127,-0.27407 1.6181,-0.64908 2.55079,-1.01172 0.93269,-0.36264 1.91179,-0.71411 2.83203,-0.9375 0.46012,-0.11169 0.90536,-0.19044 1.32226,-0.22461 0.41691,-0.0342 0.80539,-0.023 1.15235,0.0488 0.34695,0.0718 0.65207,0.20384 0.90234,0.41015 0.25027,0.20633 0.44542,0.48814 0.57227,0.85743 0.20178,0.58743 0.23104,1.12776 0.11718,1.62695 -0.11385,0.49919 -0.37085,0.95634 -0.73828,1.37891 -0.36742,0.42256 -0.84535,0.81039 -1.4043,1.16797 -0.55893,0.35756 -1.19832,0.68408 -1.88671,0.98828 -1.37679,0.60839 -2.9504,1.12323 -4.47266,1.58789 -1.52226,0.46465 -2.99281,0.87907 -4.16406,1.29297 -0.69523,0.24567 -1.42663,0.34987 -2.17383,0.38671 -0.7472,0.0369 -1.51009,0.007 -2.26953,-0.0137 -0.75945,-0.0205 -1.51609,-0.0306 -2.24805,0.043 -0.73196,0.0736 -1.44072,0.23168 -2.10547,0.55078 -0.99891,0.47952 -2.03942,1.08265 -3.0625,1.76758 -1.02307,0.68493 -2.02814,1.45068 -2.95117,2.25195 -0.92303,0.80128 -1.76412,1.63825 -2.46289,2.4668 -0.69877,0.82855 -1.25517,1.64924 -1.60547,2.41602 -0.15269,0.33423 -0.11185,0.68801 0.0566,1.02929 0.16849,0.34129 0.46405,0.66899 0.82617,0.95313 0.36213,0.28414 0.79054,0.5247 1.21875,0.6875 0.42822,0.1628 0.85786,0.2493 1.22461,0.22656 0.45012,-0.0279 0.87569,-0.14567 1.28711,-0.33008 0.41142,-0.18441 0.80716,-0.43602 1.19532,-0.73242 0.77629,-0.59279 1.52301,-1.36499 2.29882,-2.13867 0.77581,-0.77368 1.58172,-1.54797 2.48047,-2.14649 0.44938,-0.29926 0.92058,-0.55543 1.42383,-0.74414 0.50325,-0.18871 1.03877,-0.31009 1.61133,-0.34375 1.42781,-0.0839 2.88687,0.0889 4.33203,0.1836 0.72258,0.0473 1.44034,0.0757 2.15039,0.041 0.71005,-0.0347 1.41139,-0.13089 2.09766,-0.33203 1.02106,-0.29927 1.96307,-0.77039 2.86328,-1.33203 0.9002,-0.56164 1.75987,-1.21533 2.61328,-1.88281 0.85341,-0.66748 1.70134,-1.34805 2.58203,-1.96485 0.88069,-0.61679 1.79336,-1.16854 2.77539,-1.57812 1.28865,-0.53745 2.991,-1.6327 4.53906,-2.28711 0.77403,-0.32721 1.50896,-0.5451 2.13477,-0.52734 0.3129,0.009 0.59844,0.0768 0.84766,0.21875 0.2492,0.14189 0.46309,0.35796 0.63085,0.66406 0.29926,0.54601 0.42326,1.08161 0.4043,1.60351 -0.0189,0.52191 -0.18063,1.0314 -0.45703,1.52735 -0.2764,0.49594 -0.66757,0.97718 -1.14062,1.44531 -0.47307,0.46813 -1.0297,0.92287 -1.63868,1.36133 -1.21794,0.87692 -2.64601,1.69232 -4.04297,2.43945 -1.39696,0.74713 -2.76173,1.42485 -3.85156,2.02735 -0.7409,0.40959 -1.51511,0.73834 -2.3125,1.00586 -0.79738,0.2675 -1.61788,0.47367 -2.45508,0.64062 -1.67439,0.3339 -3.41287,0.50867 -5.14648,0.68945 -1.73361,0.18079 -3.46165,0.36868 -5.12109,0.72852 -0.82973,0.17992 -1.64352,0.40248 -2.42969,0.68945 -0.78618,0.28697 -1.54553,0.63869 -2.27149,1.07422 -0.39083,0.23448 -0.68264,0.58546 -0.95898,0.95703 -0.27634,0.37158 -0.53796,0.76286 -0.86524,1.08008 -0.4191,0.40622 -0.81801,0.86192 -1.24804,1.26953 -0.43003,0.40761 -0.89128,0.76661 -1.4336,0.98242 -0.28286,0.11257 -0.59365,0.13356 -0.91601,0.11328 -0.32236,-0.0203 -0.65533,-0.0803 -0.98242,-0.13086 -0.32709,-0.0505 -0.64827,-0.0922 -0.94532,-0.0703 -0.29705,0.0219 -0.57049,0.1059 -0.80273,0.30274 -0.30769,0.26077 -0.56744,0.69272 -0.6875,1.13867 -0.06,0.22297 -0.0858,0.45012 -0.0645,0.66016 0.0214,0.21002 0.091,0.40489 0.21679,0.5625 0.25651,0.32133 0.55204,0.55048 0.88086,0.70703 0.32883,0.15655 0.69056,0.2388 1.07618,0.26953 0.77121,0.0615 1.63974,-0.089 2.54492,-0.29688 0.90517,-0.20791 1.84683,-0.47325 2.76172,-0.63867 0.45744,-0.0827 0.90717,-0.14069 1.34375,-0.1543 0.43657,-0.0136 0.85959,0.0188 1.25976,0.11329 0.60303,0.14234 1.16903,0.45438 1.7168,0.83593 0.54777,0.38155 1.0779,0.83154 1.60742,1.2461 0.52952,0.41455 1.05915,0.79379 1.60742,1.03515 0.27414,0.12069 0.55213,0.20737 0.83789,0.2461 0.28577,0.0387 0.57884,0.0299 0.88086,-0.0391 0.48455,-0.11074 1.00333,-0.4604 1.36914,-0.90234 0.18291,-0.22097 0.32657,-0.46385 0.41016,-0.71289 0.0836,-0.24904 0.10708,-0.50353 0.0449,-0.74414 -0.0455,-0.17596 -0.16893,-0.32703 -0.34766,-0.46094 -0.17873,-0.13391 -0.41421,-0.25117 -0.68164,-0.36328 -0.53485,-0.22423 -1.20208,-0.42509 -1.82422,-0.68359 -0.31105,-0.12926 -0.61093,-0.27322 -0.87695,-0.44141 -0.26601,-0.16819 -0.49745,-0.36052 -0.67383,-0.58789 -0.17637,-0.22737 -0.29769,-0.49007 -0.33984,-0.79688 -0.0421,-0.3068 -0.006,-0.65797 0.13086,-1.06445 0.20255,-0.6025 0.51631,-1.04558 0.91992,-1.36133 0.40362,-0.31575 0.89725,-0.50365 1.45899,-0.59961 0.56173,-0.0959 1.19223,-0.0999 1.86914,-0.043 0.67691,0.0569 1.39929,0.17361 2.14843,0.3164 1.49829,0.28558 3.09932,0.67687 4.62891,0.9043 0.76479,0.11371 1.5125,0.1868 2.2207,0.18554 0.70821,-0.001 1.3757,-0.0766 1.98438,-0.25976 1.1546,-0.34745 2.26671,-0.79565 3.3457,-1.31836 1.079,-0.52271 2.12518,-1.12045 3.15039,-1.76758 2.05043,-1.29426 4.01616,-2.78661 5.98242,-4.27344 1.96627,-1.48682 3.93352,-2.96762 5.99024,-4.24023 1.02836,-0.63631 2.07839,-1.22008 3.16211,-1.72656 1.08371,-0.50648 2.20043,-0.93592 3.36133,-1.26172 0.91239,-0.25606 2.49428,-0.7283 3.76757,-0.91406 0.63665,-0.0929 1.19631,-0.11551 1.55664,-0.002 0.18017,0.0568 0.31168,0.14731 0.37696,0.2793 0.0653,0.13199 0.0645,0.30636 -0.0156,0.5293 -0.40341,1.12194 -0.97225,2.15825 -1.64062,3.07422 -0.66838,0.91596 -1.4359,1.71164 -2.23828,2.34961 -0.80239,0.63795 -1.63988,1.11832 -2.44532,1.40624 -0.40272,0.14397 -0.79685,0.24026 -1.17578,0.28321 -0.37893,0.043 -0.7413,0.0339 -1.08008,-0.0332 -0.27235,-0.0539 -0.66277,0.0299 -1.14843,0.22266 -0.48567,0.19278 -1.06744,0.49417 -1.72266,0.875 -1.31045,0.76165 -2.91646,1.84 -4.64258,3.00195 -1.72611,1.16195 -3.57157,2.40694 -5.36328,3.5 -0.89585,0.54653 -1.77838,1.05476 -2.625,1.4961 -0.84662,0.44133 -1.65849,0.81626 -2.41211,1.09375 -0.99425,0.36609 -2.19084,0.68291 -3.42578,1.01953 -1.23494,0.33662 -2.50823,0.69207 -3.65625,1.13672 -0.57401,0.22232 -1.11657,0.46708 -1.60742,0.74219 -0.49085,0.27511 -0.93014,0.58069 -1.29688,0.92578 -0.36673,0.34508 -0.65965,0.72986 -0.86132,1.16211 -0.20168,0.43224 -0.31098,0.52032 -0.30665,1.0569 5.5e-4,0.0633 0.0308,0.11793 0.0371,0.17969 2.88021,0.42752 6.02789,0.96523 8.86872,1.34088 0.24453,-0.28089 0.22342,-0.25783 0.4555,-0.56771 0.49367,-0.65913 0.9724,-1.35891 1.48633,-2.0039 0.51393,-0.645 1.06278,-1.23474 1.70117,-1.66797 1.66756,-1.13164 3.41692,-2.11983 5.21485,-3.02149 1.79793,-0.90166 3.64437,-1.71646 5.50976,-2.5 1.8654,-0.78353 3.74919,-1.53524 5.61914,-2.3125 1.86996,-0.77725 3.72745,-1.58006 5.53907,-2.46289 1.05289,-0.51309 2.07196,-1.13317 3.08203,-1.7832 1.01006,-0.65004 2.011,-1.32972 3.02539,-1.96094 1.01438,-0.63122 2.04158,-1.21329 3.10742,-1.66992 0.53292,-0.22832 1.07624,-0.42657 1.63086,-0.58203 0.55462,-0.15547 1.12091,-0.26889 1.70312,-0.33203 0.71556,-0.0777 1.72668,-0.16707 2.57618,-0.0586 0.42474,0.0542 0.80879,0.15804 1.0957,0.33789 0.28691,0.17986 0.47686,0.43477 0.51172,0.79297 0.0312,0.32034 -0.0627,0.57322 -0.25,0.77539 -0.18725,0.20218 -0.46856,0.35313 -0.81055,0.47071 -0.68398,0.23514 -1.61247,0.33549 -2.5332,0.43359 -0.92073,0.0981 -1.83258,0.19428 -2.48047,0.42383 -0.32395,0.11477 -0.582,0.26296 -0.74219,0.46094 -0.16019,0.19798 -0.22351,0.44697 -0.15625,0.76171 0.078,0.36505 0.21594,0.66142 0.4043,0.90039 0.18835,0.23899 0.42743,0.41905 0.71094,0.54883 0.2835,0.12979 0.61115,0.21059 0.97461,0.24805 0.36344,0.0375 0.76319,0.0321 1.1914,-0.006 0.85642,-0.076 1.8273,-0.28598 2.85156,-0.5625 1.02427,-0.27652 2.10133,-0.61885 3.17188,-0.96094 1.07054,-0.34208 2.13366,-0.68436 3.1289,-0.95703 0.99526,-0.27266 1.9223,-0.47666 2.72071,-0.54492 0.3992,-0.0341 0.76655,-0.0345 1.09375,0.008 0.32719,0.0423 0.61547,0.12811 0.85547,0.26367 0.23999,0.13557 0.43271,0.32069 0.57031,0.56641 0.13759,0.24572 0.22023,0.55108 0.24023,0.92383 0.0284,0.52892 -0.015,0.99424 -0.12109,1.40234 -0.10613,0.4081 -0.27677,0.76016 -0.50391,1.06055 -0.22713,0.30039 -0.51108,0.55007 -0.8457,0.75586 -0.33462,0.20578 -0.71985,0.36789 -1.14844,0.49219 -0.85716,0.24858 -1.88711,0.34637 -3.03906,0.34765 -1.15195,10e-4 -2.42507,-0.0952 -3.76367,-0.23633 -2.67721,-0.28228 -5.61943,-0.74411 -8.39453,-0.96679 -1.38755,-0.11134 -2.73454,-0.16245 -3.98438,-0.10156 -1.24984,0.0609 -2.40224,0.23426 -3.40625,0.57226 -1.24828,0.42024 -2.44734,0.95357 -3.61328,1.55859 -1.16594,0.60503 -2.3,1.28085 -3.41992,1.98829 -2.23983,1.41486 -4.42358,2.95296 -6.69727,4.2832 -1.52953,0.89488 -3.23647,1.58529 -4.84765,2.39062 -0.80559,0.40267 -1.58764,0.83401 -2.31055,1.33399 -0.72291,0.49997 -1.38747,1.18972 -1.95898,1.8668 l 9.20454,1.30596 c 0.92872,-0.91219 1.80363,-1.84103 3.02007,-2.89932 0.8756,-0.76178 1.8068,-1.53121 2.76757,-2.26368 0.96078,-0.73246 1.95091,-1.4277 2.94336,-2.04297 0.99246,-0.61526 1.98639,-1.15038 2.95703,-1.56054 0.97065,-0.41016 1.91717,-0.69535 2.8125,-0.8125 3.55425,-0.46509 6.94316,-0.73318 10.19141,-0.9043 3.24825,-0.17112 6.35623,-0.24464 9.35156,-0.32422 2.99534,-0.0796 5.87639,-0.16501 8.67188,-0.35547 2.79549,-0.19045 5.50557,-0.48647 8.15429,-0.99023 1.39773,-0.26583 2.16532,-0.33703 2.41993,-0.25781 0.1273,0.0396 0.12617,0.11822 0.0117,0.22656 -0.11446,0.10834 -0.34306,0.24673 -0.66993,0.41211 -1.30744,0.66152 -4.19644,1.73327 -7.72851,2.83984 -1.76604,0.55329 -3.6921,1.1144 -5.66211,1.63867 -1.97001,0.52428 -3.98462,1.01232 -5.92383,1.41407 -1.93921,0.40175 -3.80295,0.71859 -5.47656,0.90429 -1.67362,0.18571 -3.15684,0.23909 -4.33008,0.11524 -0.54861,-0.0579 -1.06017,-0.31856 -1.55273,-0.66602 -0.49257,-0.34746 -0.96597,-0.78058 -1.43555,-1.18554 -0.46958,-0.40497 -0.93636,-0.78129 -1.41602,-1.01172 -0.23982,-0.11522 -0.48192,-0.19458 -0.73047,-0.22266 -0.24854,-0.0281 -0.50228,-0.004 -0.76367,0.084 -0.55503,0.18698 -1.10872,0.46437 -1.64648,0.81445 -0.53776,0.35008 -1.06087,0.77283 -1.55469,1.25 -0.49382,0.47717 -0.95766,1.0079 -1.38086,1.57617 -0.42319,0.56827 -0.80497,1.17351 -1.13086,1.79688 -0.32589,0.62336 -0.59692,1.26573 -0.79883,1.9082 -0.15857,0.50458 -0.25236,1.44103 -0.31977,1.93757 l 5.39257,0.70856 c 0.15049,-0.21192 0.32763,-1.13429 0.47799,-1.3434 0.55204,-0.76773 1.11225,-1.49605 1.75,-2.03906 0.31887,-0.27151 0.6574,-0.49595 1.02343,-0.65625 0.36604,-0.1603 0.75909,-0.25713 1.18946,-0.26953 0.24489,-0.007 0.4712,0.0467 0.68164,0.14648 0.21043,0.0998 0.406,0.24621 0.59179,0.42188 0.3716,0.35134 0.70319,0.82392 1.03516,1.29297 0.33197,0.46905 0.66423,0.93439 1.03516,1.27343 0.18546,0.16953 0.3799,0.30787 0.58984,0.39844 0.20993,0.0906 0.43546,0.13262 0.67969,0.11328 1.65355,-0.13091 3.2847,-0.4081 4.90039,-0.79101 1.61568,-0.38291 3.21609,-0.87123 4.80468,-1.42578 3.1772,-1.10911 6.30982,-2.48143 9.44336,-3.79493 1.56678,-0.65675 3.135,-1.29745 4.70704,-1.88476 1.57203,-0.58731 3.14824,-1.12109 4.73632,-1.55859 1.58809,-0.43751 3.18783,-0.77898 4.80274,-0.98633 1.61491,-0.20735 3.24591,-0.28091 4.89844,-0.17774 0.74148,0.0463 2.26076,0.28026 3.3496,0.59961 0.54443,0.15968 0.98053,0.34079 1.15821,0.53125 0.0888,0.0952 0.11423,0.19278 0.0547,0.29102 -0.0596,0.0982 -0.20349,0.19679 -0.44922,0.29492 -2.09953,0.8384 -4.06351,1.45772 -5.98438,1.98828 -1.92087,0.53056 -3.79767,0.97303 -5.72461,1.45899 -1.92694,0.48595 -3.90375,1.01415 -6.02148,1.71874 -2.11773,0.7046 -4.37785,1.58501 -6.8711,2.77149 -0.45308,0.21561 -0.67515,0.45398 -0.71093,0.70508 -0.0358,0.25109 0.11625,0.51489 0.41211,0.77929 0.19307,0.17255 0.52981,0.34132 0.83398,0.51172 3.1974,0.0116 6.27657,-0.0216 9.20313,-0.10547 1.2606,-0.0361 2.48837,-0.011 3.6875,0.0566 0.18092,-0.3177 0.37843,-0.60742 0.55078,-0.9375 0.34038,-0.65193 0.68243,-1.29405 1.09961,-1.79297 0.20858,-0.24947 0.43616,-0.46195 0.6914,-0.62305 0.25524,-0.1611 0.53919,-0.27122 0.85938,-0.31055 2.28339,-0.28043 4.44868,-0.65104 6.51172,-1.04687 2.06303,-0.39584 4.02243,-0.81529 5.89648,-1.19141 1.87405,-0.37611 3.66246,-0.70841 5.37891,-0.92969 1.71645,-0.22127 3.36094,-0.33235 4.95117,-0.26367 0.47187,0.0204 0.72083,0.0926 0.78711,0.20703 0.0663,0.11439 -0.0501,0.27116 -0.30664,0.45703 -0.51317,0.37175 -1.58824,0.86428 -2.89649,1.38672 -2.6165,1.0449 -6.16233,2.20962 -7.98828,2.77539 -0.48917,0.15158 -1.03602,0.23373 -1.61914,0.26954 -0.58312,0.0358 -1.20236,0.0264 -1.83789,-0.008 -1.27107,-0.0684 -2.60439,-0.23252 -3.83594,-0.30664 -0.61577,-0.0371 -1.2064,-0.0516 -1.75,-0.0215 -0.54359,0.0301 -1.04081,0.10498 -1.4707,0.24804 -0.42989,0.14307 -0.79175,0.35451 -1.06641,0.65625 -0.27465,0.30175 -0.46313,0.69502 -0.54101,1.20118 -0.0308,0.19993 0.0391,0.37006 0.0488,0.55859 5.02048,0.66003 9.41855,2.02013 13.13867,3.18359 0.33064,-0.29774 0.67303,-0.56144 0.99219,-0.89453 0.57456,-0.59965 1.14257,-1.22696 1.75,-1.77344 0.60742,-0.54647 1.25396,-1.01144 1.98437,-1.28906 0.64683,-0.24585 1.31459,-0.39813 1.99609,-0.49414 0.68151,-0.096 1.37675,-0.13488 2.07618,-0.15625 1.39886,-0.0427 2.81742,-0.0116 4.1875,-0.20703 0.79148,-0.11289 1.39209,-0.30796 1.94531,-0.5293 0.55322,-0.22134 1.05831,-0.46977 1.65625,-0.6875 0.59794,-0.21772 1.28921,-0.40577 2.21484,-0.50781 0.92564,-0.10204 2.08478,-0.11788 3.6211,0.008 0.23012,0.0189 0.36471,0.0781 0.41992,0.16797 0.0552,0.0899 0.0324,0.20956 -0.0527,0.35352 -0.17025,0.28791 -0.58722,0.66735 -1.11132,1.07031 -1.04821,0.80592 -2.52838,1.70702 -3.33204,2.16211 -0.71635,0.40566 -1.54343,0.61849 -2.41211,0.75 -0.86867,0.13151 -1.7779,0.18129 -2.66015,0.26367 -0.88226,0.0824 -1.73706,0.19679 -2.49414,0.45508 -0.37854,0.12915 -0.73151,0.29445 -1.05274,0.50977 -0.32123,0.21531 -0.61084,0.48093 -0.85742,0.81054 -0.21418,0.28629 -0.39099,0.64371 -0.51953,1.03125 -0.1279,0.38563 -0.20497,0.80089 -0.22266,1.20899 1.96318,0.45513 3.96543,0.85757 6,1.21289 0.74197,-0.39786 1.51209,-0.81055 2.18164,-1.09375 0.71299,-0.30158 1.37672,-0.7155 2.01758,-1.17578 0.64087,-0.46029 1.25845,-0.96614 1.88282,-1.45508 0.62436,-0.48894 1.25447,-0.96013 1.91796,-1.34766 0.6635,-0.38753 1.3609,-0.69159 2.11914,-0.84765 0.81347,-0.16744 1.61782,-0.29501 2.42188,-0.35938 0.80406,-0.0644 1.60866,-0.0657 2.41992,0.0195 0.81127,0.0852 1.62975,0.25584 2.46485,0.53711 0.83509,0.28127 1.685,0.67343 2.56054,1.19727 0.45967,0.27501 0.63743,0.47198 0.59375,0.61328 -0.0437,0.1413 -0.30794,0.22574 -0.73242,0.27929 -0.84897,0.10711 -2.33776,0.0853 -3.97461,0.11719 -0.81842,0.016 -1.67234,0.0452 -2.50391,0.11133 -0.83156,0.0661 -1.63916,0.16978 -2.36132,0.33203 -0.72216,0.16225 -1.35942,0.38315 -1.84961,0.6875 -0.2451,0.15218 -0.45306,0.32517 -0.61719,0.52149 -0.16413,0.19631 -0.28568,0.4159 -0.35352,0.66211 -0.12429,0.45107 -0.0579,0.9035 0.13868,1.33593 0.18705,0.41152 0.50501,0.80092 0.8789,1.15625 2.5591,0.27814 5.14931,0.38334 7.76172,0.56093 0.775,-0.36892 1.55118,-0.58659 2.32422,-1.04921 1.18797,-0.71094 2.38006,-1.46365 3.59766,-2.04687 0.60879,-0.29162 1.22367,-0.5403 1.84765,-0.72071 0.62399,-0.1804 1.25603,-0.29225 1.90039,-0.30859 0.59655,-0.0151 1.20575,0.0142 1.8125,0.0898 0.60675,0.0757 1.21272,0.19871 1.80274,0.36719 0.59002,0.16848 1.16458,0.38316 1.71094,0.64649 0.54635,0.26332 1.06329,0.57533 1.53906,0.93554 0.32029,0.2425 0.64196,0.61733 0.94336,1.04492 0.30139,0.4276 0.58251,0.9066 0.82422,1.35547 0.12977,0.24101 0.11326,0.23837 0.21679,0.44922 13.22995,0.12883 26.27469,-0.24143 37.63086,0.22461 15.39133,0.63164 31.28472,-0.28267 46.27735,0.4043 0,0 -79.32208,-5.23928 -129.24219,-20.32617 -37.60691,-11.36557 -73.14812,-30.47524 -112.09961,-36.39453 -26.53513,-4.03247 -54.2467,-6.06872 -81.93164,-6.09571 z"
       transform="scale(0.26458333)"
       sodipodi:nodetypes="cccsssscsssssssssscssssssssssccsssssssssssssssssssssssssssssccsssssscsssssssssssssssssssssssssssssssccsssssssssssssssssssscssssssscssssssssssssssssccsssssscsssssssscsssssssssssssssssssssssssssscsssssssssssssssssssssssscssssssssssssssssssssssscssssssssssssssssssssscssssscsssssssssscsssssssssssssssssccssssssssssscsssssssssssscsssscssssssscsssssssssccssssssssssssssssssssscsssssccssssssssssssssssssssssssssscscssssssssssssscsssssccssssssssssssssssssssccssssssssssssssssssccsssscssssscscsscc" />
    <path
       style="fill:#8ba6b9;fill-opacity:0.607287;stroke:none;stroke-width:0.264583px;stroke-linecap:butt;stroke-linejoin:miter;stroke-opacity:1"
       d="m 55.454179,118.40063 c 8.954654,-3.23075 17.143985,-1.86956 25.201287,0.2838 -1.687374,1.45297 -4.058877,2.76138 -6.407062,3.12605 -3.058446,0.47496 -6.894921,1.76559 -8.23693,2.1526 -1.342008,0.38702 -3.746137,-0.39732 -3.746137,-0.39732 4.851044,-3.24095 -0.496016,-4.3063 -6.811158,-5.16513 z"
       id="path2599"
       sodipodi:nodetypes="ccszcc" />
    <path
       style="fill:#cfcfcf;fill-opacity:1;stroke:none;stroke-width:0.264583px;stroke-linecap:butt;stroke-linejoin:miter;stroke-opacity:1"
       d="m 47.791626,110.68132 c 0,0 3.028577,2.35946 4.200215,5.50569 1.91488,5.14208 4.043337,12.57349 0.17028,16.46029 -1.963181,1.97015 -8.343669,-0.0567 -8.343669,-0.0567 0,0 6.008037,3.20083 8.173389,1.47574 4.619294,-3.68009 2.863857,-12.08929 0.827884,-17.69867 -1.196342,-3.29609 -5.028099,-5.6863 -5.028099,-5.6863 z"
       id="path18188"
       sodipodi:nodetypes="csacascc" />
    <circle
       style="fill:#ecd187;fill-opacity:1;stroke:none;stroke-width:0.564999;stroke-linejoin:round;stroke-opacity:1;paint-order:markers fill stroke"
       id="path18898"
       cx="30.215586"
       cy="117.58853"
       r="2.9298649" />
    <circle
       style="fill:#393939;fill-opacity:1;stroke:none;stroke-width:0.296754;stroke-linejoin:round;stroke-opacity:1;paint-order:markers fill stroke"
       id="path18898-3"
       cx="30.196444"
       cy="117.51567"
       r="1.5388521" />
    <ellipse
       style="fill:#ffffff;fill-opacity:1;stroke:none;stroke-width:0.127959;stroke-linejoin:round;stroke-opacity:1;paint-order:markers fill stroke"
       id="path18898-3-9"
       cx="31.070299"
       cy="116.71742"
       rx="0.78646237"
       ry="0.55984139" />
    <path
       style="fill:#cfcfcf;fill-opacity:1;stroke:none;stroke-width:0.264583px;stroke-linecap:butt;stroke-linejoin:miter;stroke-opacity:1"
       d="m 19.298282,115.90321 c 0,0 1.550551,-0.19986 2.242006,0.0851 1.937437,0.79846 3.017746,2.91346 4.625912,4.25697 1.274843,1.06504 3.704945,2.0518 3.973175,3.00827 0.309813,1.10474 -0.737875,1.27709 -0.737875,1.27709 z"
       id="path19315"
       sodipodi:nodetypes="caascc" />
  </g>
</svg>
