<?xml version="1.0" encoding="UTF-8" standalone="no"?>
<svg
   xmlns:dc="http://purl.org/dc/elements/1.1/"
   xmlns:cc="http://creativecommons.org/ns#"
   xmlns:rdf="http://www.w3.org/1999/02/22-rdf-syntax-ns#"
   xmlns:svg="http://www.w3.org/2000/svg"
   xmlns="http://www.w3.org/2000/svg"
   id="svg8"
   version="1.1"
   viewBox="0 0 210 297"
   height="297mm"
   width="210mm">
  <defs
     id="defs2">
    <clipPath
       clipPathUnits="userSpaceOnUse"
       id="clipPath3729">
      <path
         d="M 0,389.188 H 600.078 V 0 H 0 Z"
         id="path3727" />
    </clipPath>
  </defs>
  <metadata
     id="metadata5">
    <rdf:RDF>
      <cc:Work
         rdf:about="">
        <dc:format>image/svg+xml</dc:format>
        <dc:type
           rdf:resource="http://purl.org/dc/dcmitype/StillImage" />
        <dc:title></dc:title>
      </cc:Work>
    </rdf:RDF>
  </metadata>
  <g
     id="layer1">
    <g
       id="g3721"
       transform="matrix(0.35277777,0,0,-0.35277777,-1.5256586,237.13643)">
      <g
         id="g3723">
        <g
           id="g3725"
           clip-path="url(#clipPath3729)">
          <g
             id="g3731"
             transform="translate(596.0371,272.771)">
            <path
               d="m 0,0 c -2.205,4.531 -10.632,8.983 -18.338,8.5 -9.739,-0.612 -15.8,-13 -16,-17.167 -1.008,-20.975 -14.682,-57.691 -29.034,-69.668 -5.929,-4.949 -18.71,-6.309 -30.523,-6.398 29.676,-3.047 37.853,1.494 78.304,25.651 C -1.012,-42.817 10.447,-21.463 0,0"
               style="fill:#c58b75;fill-opacity:1;fill-rule:nonzero;stroke:none"
               id="path3733" />
          </g>
          <g
             id="g3735"
             transform="translate(502.1426,188.0381)">
            <path
               d="m 0,0 c -7.224,-0.054 -14.086,0.366 -18.794,0.734 -22.388,1.751 -77.309,20.913 -86.876,25.843 -0.847,0.196 -1.306,0.077 -1.722,0.155 -8.606,1.618 -22.994,2.298 -29.834,4.166 -11.726,3.203 -42,24.5 -42,24.5 0,0 22.934,1.998 32.584,10.831 9.833,9 7.121,25.471 7.121,25.471 h 10e-4 c -0.826,0.061 -1.29,0.031 -1.29,0.031 0,0 -51.333,130.667 -230.416,106.417 -19.964,-2.703 -52.999,-24.001 -63.75,-38.834 -15.206,-20.981 -37.233,-74.749 -52,-110.166 -8.352,-20.032 -15.167,-33.54 -15.167,-33.54 0,0 7.486,-18.097 16.167,-44.46 9.586,-29.111 21.075,-67.99 35.505,-96.753 12.185,-24.287 27.723,-39.006 37.495,-42.997 175.355,-71.602 264.575,76.502 273.498,92.332 0,0 0.002,14.001 -5.665,22.168 -4.803,6.924 -27.627,17.075 -27.627,17.075 0,0 25.326,16.708 33.044,19.425 11.25,3.961 23.25,2.998 29.583,1 0.856,-0.27 1.824,-0.63 2.866,-1.053 -0.119,0.88 -0.201,1.386 -0.201,1.386 0,0 55.876,-9.138 70.868,-7.658 28.619,2.825 61.592,12.386 80.466,20.991 1.223,0.557 19.48,11.889 34.448,28.587 C 37.853,1.494 29.676,-3.047 0,0"
               style="fill:#a5745e;fill-opacity:1;fill-rule:nonzero;stroke:none"
               id="path3737" />
          </g>
          <g
             id="g3739"
             transform="translate(355.501,254.2666)">
            <path
               d="m 0,0 c -9.65,-8.833 -32.584,-10.83 -32.584,-10.83 0,0 30.273,-21.297 42,-24.5 6.84,-1.868 30.709,-4.417 31.556,-4.322 -0.104,0.054 -0.21,0.108 -0.303,0.158 -2.858,1.538 3,12.166 -0.667,26 C 30.771,21.331 12.172,25.1 7.122,25.472 H 7.121 C 7.121,25.472 9.833,9 0,0"
               style="fill:#91624d;fill-opacity:1;fill-rule:nonzero;stroke:none"
               id="path3741" />
          </g>
          <g
             id="g3743"
             transform="translate(362.417,170.4365)">
            <path
               d="m 0,0 c -7.719,-2.718 -33.044,-19.426 -33.044,-19.426 0,0 22.823,-10.151 27.627,-17.074 5.667,-8.167 5.665,-22.168 5.665,-22.168 0,0 14.376,-1.952 28.71,23.214 6.215,10.912 4.195,30.124 3.49,35.4 C 31.406,0.369 30.438,0.73 29.583,1 23.25,2.998 11.25,3.961 0,0"
               style="fill:#91624d;fill-opacity:1;fill-rule:nonzero;stroke:none"
               id="path3745" />
          </g>
          <g
             id="g3747"
             transform="translate(467.5127,178.4355)">
            <path
               d="m 0,0 c 0,0 19.662,3.662 29.833,3.667 14.319,0.006 25.983,0 35,0 C 84.048,3.667 90,1.5 90,1.5 90,1.5 47.162,-4.435 30.333,-3.434 23.846,-3.047 0,0 0,0"
               style="fill:#d1a696;fill-opacity:1;fill-rule:nonzero;stroke:none"
               id="path3749" />
          </g>
          <g
             id="g3751"
             transform="translate(132.167,104.4365)">
            <path
               d="m 0,0 c -9.665,0 -17.5,-6.38 -17.5,-14.25 0,-7.87 7.835,-14.25 17.5,-14.25 9.665,0 24.5,6.38 24.5,14.25 C 24.5,-6.38 9.665,0 0,0"
               style="fill:#91624d;fill-opacity:1;fill-rule:nonzero;stroke:none"
               id="path3753" />
          </g>
          <g
             id="g3755"
             transform="translate(318.167,274.8789)">
            <path
               d="m 0,0 c 0,-9.973 -9.626,-18.058 -21.5,-18.058 -11.874,0 -21.5,8.085 -21.5,18.058 0,9.973 9.626,18.058 21.5,18.058 C -9.626,18.058 0,9.973 0,0"
               style="fill:#91624d;fill-opacity:1;fill-rule:nonzero;stroke:none"
               id="path3757" />
          </g>
          <g
             id="g3759"
             transform="translate(276.667,294.1865)">
            <path
               d="m 0,0 c 0,-9.527 -10.186,-17.25 -22.75,-17.25 -12.564,0 -22.75,7.723 -22.75,17.25 0,9.527 10.186,17.25 22.75,17.25 C -10.186,17.25 0,9.527 0,0"
               style="fill:#91624d;fill-opacity:1;fill-rule:nonzero;stroke:none"
               id="path3761" />
          </g>
          <g
             id="g3763"
             transform="translate(233.6025,326.9741)">
            <path
               d="m 0,0 c -5.785,5.93 -17.605,3.78 -26.401,-4.801 -8.796,-8.581 -11.236,-20.345 -5.452,-26.274 5.786,-5.93 17.606,-3.78 26.401,4.801 C 3.344,-17.693 5.785,-5.93 0,0"
               style="fill:#91624d;fill-opacity:1;fill-rule:nonzero;stroke:none"
               id="path3765" />
          </g>
          <g
             id="g3767"
             transform="translate(204.167,280.1865)">
            <path
               d="m 0,0 c 0,-8.146 -11.977,-14.75 -26.75,-14.75 -14.773,0 -26.75,6.604 -26.75,14.75 0,8.146 11.977,14.75 26.75,14.75 C -11.977,14.75 0,8.146 0,0"
               style="fill:#91624d;fill-opacity:1;fill-rule:nonzero;stroke:none"
               id="path3769" />
          </g>
          <g
             id="g3771"
             transform="translate(158.167,311.8115)">
            <path
               d="m 0,0 c 0,-8.629 -9.066,-15.625 -20.25,-15.625 -11.184,0 -20.25,6.996 -20.25,15.625 0,8.629 9.066,15.625 20.25,15.625 C -9.066,15.625 0,8.629 0,0"
               style="fill:#91624d;fill-opacity:1;fill-rule:nonzero;stroke:none"
               id="path3773" />
          </g>
          <g
             id="g3775"
             transform="translate(195.167,315.5649)">
            <path
               d="m 0,0 c 0,-10.703 -7.135,-19.378 -15.937,-19.378 -8.802,0 -15.938,8.675 -15.938,19.378 0,10.702 7.136,19.378 15.938,19.378 C -7.135,19.378 0,10.702 0,0"
               style="fill:#91624d;fill-opacity:1;fill-rule:nonzero;stroke:none"
               id="path3777" />
          </g>
          <g
             id="g3779"
             transform="translate(317.167,229.9365)">
            <path
               d="m 0,0 c 0,-11.322 -12.313,-20.5 -27.5,-20.5 -15.188,0 -27.5,9.178 -27.5,20.5 0,11.322 12.312,20.5 27.5,20.5 C -12.313,20.5 0,11.322 0,0"
               style="fill:#91624d;fill-opacity:1;fill-rule:nonzero;stroke:none"
               id="path3781" />
          </g>
          <g
             id="g3783"
             transform="translate(272.167,255.7773)">
            <path
               d="m 0,0 c 0,-11.89 -13.432,-21.529 -30,-21.529 -16.568,0 -30,9.639 -30,21.529 0,11.891 13.432,21.529 30,21.529 16.568,0 30,-9.638 30,-21.529"
               style="fill:#91624d;fill-opacity:1;fill-rule:nonzero;stroke:none"
               id="path3785" />
          </g>
          <g
             id="g3787"
             transform="translate(170.667,245.5181)">
            <path
               d="m 0,0 c 0,-10.448 -9.066,-18.918 -20.25,-18.918 -11.184,0 -20.25,8.47 -20.25,18.918 0,10.448 9.066,18.918 20.25,18.918 C -9.066,18.918 0,10.448 0,0"
               style="fill:#91624d;fill-opacity:1;fill-rule:nonzero;stroke:none"
               id="path3789" />
          </g>
          <g
             id="g3791"
             transform="translate(212.167,240.5244)">
            <path
               d="M 0,0 C 0,13.206 -9.29,23.912 -20.75,23.912 -32.21,23.912 -41.5,13.206 -41.5,0 c 0,-13.207 9.29,-23.912 20.75,-23.912 C -9.29,-23.912 0,-13.207 0,0"
               style="fill:#91624d;fill-opacity:1;fill-rule:nonzero;stroke:none"
               id="path3793" />
          </g>
          <g
             id="g3795"
             transform="translate(225.167,156.771)">
            <path
               d="m 0,0 c 0,-14.544 -12.032,-26.334 -26.875,-26.334 -14.843,0 -26.875,11.79 -26.875,26.334 0,14.544 12.032,26.334 26.875,26.334 C -12.032,26.334 0,14.544 0,0"
               style="fill:#91624d;fill-opacity:1;fill-rule:nonzero;stroke:none"
               id="path3797" />
          </g>
          <g
             id="g3799"
             transform="translate(62.8394,185.2676)">
            <path
               d="M 0,0 C 0,0 13.167,3.906 21.167,4.5 26.185,4.873 42.333,3 42.333,3 42.333,3 35.784,9.613 20.75,7.333 3.167,4.667 0,0 0,0"
               style="fill:#805445;fill-opacity:1;fill-rule:nonzero;stroke:none"
               id="path3801" />
          </g>
          <g
             id="g3803"
             transform="translate(62.8394,227.5996)">
            <path
               d="m 0,0 c 0,0 13.167,-3.906 21.167,-4.5 5.018,-0.373 21.166,1.5 21.166,1.5 0,0 -6.549,-6.613 -21.583,-4.333 C 3.167,-4.667 0,0 0,0"
               style="fill:#805445;fill-opacity:1;fill-rule:nonzero;stroke:none"
               id="path3805" />
          </g>
          <g
             id="g3807"
             transform="translate(90.0059,173.2695)">
            <path
               d="m 0,0 c 0,0 2.5,-7.333 0.5,-10 -2.264,-3.019 -11,-5.167 -11,-5.167 0,0 13.048,-6.974 17.833,1 C 10.5,-8.89 0.667,0 0.667,0"
               style="fill:#774f42;fill-opacity:1;fill-rule:nonzero;stroke:none"
               id="path3809" />
          </g>
          <g
             id="g3811"
             transform="translate(77.1724,165.8525)">
            <path
               d="m 0,0 c 0,-2.715 -2.761,-4.917 -6.167,-4.917 -3.405,0 -6.166,2.202 -6.166,4.917 0,2.716 2.761,3.417 6.166,3.417 C -2.761,3.417 0,2.716 0,0"
               style="fill:#d3bbab;fill-opacity:1;fill-rule:nonzero;stroke:none"
               id="path3813" />
          </g>
          <g
             id="g3815"
             transform="translate(75.9507,247.4795)">
            <path
               d="m 0,0 c -0.254,1.95 -3.087,3.187 -6.328,2.764 -3.24,-0.423 -5.66,-2.347 -5.406,-4.296 0.255,-1.949 3.088,-3.187 6.328,-2.764 C -2.166,-3.873 0.254,-1.949 0,0"
               style="fill:#d3bbab;fill-opacity:1;fill-rule:nonzero;stroke:none"
               id="path3817" />
          </g>
          <g
             id="g3819"
             transform="translate(81.8433,256.0859)">
            <path
               d="m 0,0 c 0,0 7.199,-2.867 7.926,-6.119 0.823,-3.684 -3.222,-11.718 -3.222,-11.718 0,0 13.78,5.384 10.829,14.203 -1.952,5.836 -15.099,4.14 -15.099,4.14"
               style="fill:#774f42;fill-opacity:1;fill-rule:nonzero;stroke:none"
               id="path3821" />
          </g>
          <g
             id="g3823"
             transform="translate(257.7373,218.2412)">
            <path
               d="M 0,0 C -10.489,14.791 -28.761,19.854 -40.812,11.308 -52.863,2.762 -54.129,-16.156 -43.641,-30.947 -33.152,-45.738 -14.879,-50.801 -2.829,-42.255 9.222,-33.709 10.489,-14.791 0,0"
               style="fill:#91624d;fill-opacity:1;fill-rule:nonzero;stroke:none"
               id="path3825" />
          </g>
          <g
             id="g3827"
             transform="translate(197.417,201.5278)">
            <path
               d="m 0,0 c 0,-9.533 -10.801,-17.26 -24.125,-17.26 -13.324,0 -24.125,7.727 -24.125,17.26 0,9.533 10.801,17.26 24.125,17.26 C -10.801,17.26 0,9.533 0,0"
               style="fill:#91624d;fill-opacity:1;fill-rule:nonzero;stroke:none"
               id="path3829" />
          </g>
          <g
             id="g3831"
             transform="translate(149.667,215.7324)">
            <path
               d="m 0,0 c 0,-7.845 -8.395,-14.205 -18.75,-14.205 -10.355,0 -18.75,6.36 -18.75,14.205 0,7.845 8.395,14.204 18.75,14.204 C -8.395,14.204 0,7.845 0,0"
               style="fill:#91624d;fill-opacity:1;fill-rule:nonzero;stroke:none"
               id="path3833" />
          </g>
          <g
             id="g3835"
             transform="translate(145.667,187.2969)">
            <path
               d="m 0,0 c 0,-6.854 -7.835,-12.409 -17.5,-12.409 -9.665,0 -17.5,5.555 -17.5,12.409 0,6.853 7.835,12.408 17.5,12.408 C -7.835,12.408 0,6.853 0,0"
               style="fill:#91624d;fill-opacity:1;fill-rule:nonzero;stroke:none"
               id="path3837" />
          </g>
          <g
             id="g3839"
             transform="translate(169.667,155.853)">
            <path
               d="m 0,0 c 0,-11.828 -9.29,-21.417 -20.75,-21.417 -11.46,0 -20.75,9.589 -20.75,21.417 0,11.828 9.29,21.417 20.75,21.417 C -9.29,21.417 0,11.828 0,0"
               style="fill:#91624d;fill-opacity:1;fill-rule:nonzero;stroke:none"
               id="path3841" />
          </g>
          <g
             id="g3843"
             transform="translate(307.667,180.2085)">
            <path
               d="m 0,0 c 0,-12.944 -9.066,-23.438 -20.25,-23.438 -11.184,0 -20.25,10.494 -20.25,23.438 0,12.944 9.066,23.437 20.25,23.437 C -9.066,23.437 0,12.944 0,0"
               style="fill:#91624d;fill-opacity:1;fill-rule:nonzero;stroke:none"
               id="path3845" />
          </g>
          <g
             id="g3847"
             transform="translate(273.167,142.335)">
            <path
               d="M 0,0 C 0,15.244 -10.521,27.602 -23.5,27.602 -36.479,27.602 -47,15.244 -47,0 c 0,-15.244 10.521,-22.602 23.5,-22.602 12.979,0 23.5,7.358 23.5,22.602"
               style="fill:#91624d;fill-opacity:1;fill-rule:nonzero;stroke:none"
               id="path3849" />
          </g>
          <g
             id="g3851"
             transform="translate(251.125,69.4414)">
            <path
               d="m 0,0 c 0,-7.453 -8.497,-13.494 -18.979,-13.494 -10.482,0 -18.979,6.041 -18.979,13.494 0,7.453 8.497,13.495 18.979,13.495 C -8.497,13.495 0,7.453 0,0"
               style="fill:#91624d;fill-opacity:1;fill-rule:nonzero;stroke:none"
               id="path3853" />
          </g>
          <g
             id="g3855"
             transform="translate(209.167,89.4365)">
            <path
               d="m 0,0 c 0,-9.112 -9.514,-16.5 -21.25,-16.5 -11.736,0 -21.25,7.388 -21.25,16.5 0,9.112 9.514,16.5 21.25,16.5 C -9.514,16.5 0,9.112 0,0"
               style="fill:#91624d;fill-opacity:1;fill-rule:nonzero;stroke:none"
               id="path3857" />
          </g>
          <g
             id="g3859"
             transform="translate(157.6982,134.4365)">
            <path
               d="m 0,0 c -14.101,0 -25.531,-7.388 -25.531,-16.5 0,-9.112 11.43,-16.5 25.531,-16.5 14.101,0 25.531,7.388 25.531,16.5 C 25.531,-7.388 14.101,0 0,0"
               style="fill:#91624d;fill-opacity:1;fill-rule:nonzero;stroke:none"
               id="path3861" />
          </g>
          <g
             id="g3863"
             transform="translate(128.167,137.6084)">
            <path
               d="m 0,0 c 0,13.625 -6.716,24.671 -15,24.671 -8.284,0 -15,-11.046 -15,-24.671 0,-13.626 6.716,-24.672 15,-24.672 8.284,0 15,11.046 15,24.672"
               style="fill:#91624d;fill-opacity:1;fill-rule:nonzero;stroke:none"
               id="path3865" />
          </g>
          <g
             id="g3867"
             transform="translate(131.167,263.7305)">
            <path
               d="m 0,0 c 0,-14.473 -6.604,-26.206 -14.75,-26.206 -8.146,0 -14.75,11.733 -14.75,26.206 0,14.473 6.604,26.206 14.75,26.206 C -6.604,26.206 0,14.473 0,0"
               style="fill:#91624d;fill-opacity:1;fill-rule:nonzero;stroke:none"
               id="path3869" />
          </g>
          <g
             id="g3871"
             transform="translate(224.917,101.4365)">
            <path
               d="m 0,0 c 0,-9.389 12.157,-17 27.153,-17 14.996,0 27.153,7.611 27.153,17 0,9.389 -12.157,17 -27.153,17 C 12.157,17 0,9.389 0,0"
               style="fill:#91624d;fill-opacity:1;fill-rule:nonzero;stroke:none"
               id="path3873" />
          </g>
          <g
             id="g3875"
             transform="translate(322.917,127.1943)">
            <path
               d="m 0,0 c 0,-10.084 -7.318,-18.258 -16.347,-18.258 -9.028,0 -16.347,8.174 -16.347,18.258 0,10.084 7.319,18.258 16.347,18.258 C -7.318,18.258 0,10.084 0,0"
               style="fill:#91624d;fill-opacity:1;fill-rule:nonzero;stroke:none"
               id="path3877" />
          </g>
          <g
             id="g3879"
             transform="translate(94.7275,119.1211)">
            <path
               d="m 0,0 c 6.964,-3.666 10.68,-10.303 8.3,-14.823 -2.38,-4.52 -9.954,-5.213 -16.918,-1.546 -6.964,3.666 -10.68,10.303 -8.3,14.823 C -14.539,2.974 -6.964,3.667 0,0"
               style="fill:#91624d;fill-opacity:1;fill-rule:nonzero;stroke:none"
               id="path3881" />
          </g>
          <g
             id="g3883"
             transform="translate(103.3335,208.0957)">
            <path
               d="m 0,0 c -5.52,5.933 -25.252,-1.616 -32.328,2.333 -3.989,2.228 -4.946,15.76 -9.339,14.5 -5.065,-1.453 -1.894,-10.45 -3,-19.398 -1.031,-8.348 -4.137,-16.725 0.167,-19.102 3.776,-2.085 7.222,7.45 11.25,8.994 8.106,3.109 27.298,-4.647 33.25,1.673 0.857,0.91 1.71,3.924 1.839,5.167 C 1.993,-4.341 1.022,-1.098 0,0"
               style="fill:#91624d;fill-opacity:1;fill-rule:nonzero;stroke:none"
               id="path3885" />
          </g>
          <g
             id="g3887"
             transform="translate(43.0005,223.6938)">
            <path
               d="M 0,0 C 5.259,-0.116 9.02,-13.841 8.833,-19.098 8.637,-24.614 3.67,-38.836 -1.833,-38.426 c -5.401,0.402 -7.877,14.9 -7.543,20.304 C -9.063,-13.03 -5.1,0.113 0,0"
               style="fill:#91624d;fill-opacity:1;fill-rule:nonzero;stroke:none"
               id="path3889" />
          </g>
          <g
             id="g3891"
             transform="translate(301.667,91.1865)">
            <path
               d="m 0,0 c 0,-2.348 3.47,-4.25 7.75,-4.25 4.28,0 7.75,1.902 7.75,4.25 0,2.348 -3.47,4.25 -7.75,4.25 C 3.47,4.25 0,2.348 0,0"
               style="fill:#91624d;fill-opacity:1;fill-rule:nonzero;stroke:none"
               id="path3893" />
          </g>
          <g
             id="g3895"
             transform="translate(281.667,77.9365)">
            <path
               d="M 0,0 C 0,-2.762 2.91,-5 6.5,-5 10.09,-5 13,-2.762 13,0 13,2.762 10.09,5 6.5,5 2.91,5 0,2.762 0,0"
               style="fill:#91624d;fill-opacity:1;fill-rule:nonzero;stroke:none"
               id="path3897" />
          </g>
          <g
             id="g3899"
             transform="translate(262.167,66.6895)">
            <path
               d="M 0,0 C 0,-1.521 2.91,-2.753 6.5,-2.753 10.09,-2.753 13,-1.521 13,0 13,1.521 10.09,2.753 6.5,2.753 2.91,2.753 0,1.521 0,0"
               style="fill:#91624d;fill-opacity:1;fill-rule:nonzero;stroke:none"
               id="path3901" />
          </g>
          <g
             id="g3903"
             transform="translate(245.667,53.6924)">
            <path
               d="M 0,0 C 0,-1.246 1.847,-2.256 4.125,-2.256 6.403,-2.256 8.25,-1.246 8.25,0 8.25,1.245 6.403,2.255 4.125,2.255 1.847,2.255 0,1.245 0,0"
               style="fill:#91624d;fill-opacity:1;fill-rule:nonzero;stroke:none"
               id="path3905" />
          </g>
          <g
             id="g3907"
             transform="translate(226.167,47.1865)">
            <path
               d="M 0,0 C 0,-2.348 2.183,-4.25 4.875,-4.25 7.567,-4.25 9.75,-2.348 9.75,0 9.75,2.348 7.567,4.25 4.875,4.25 2.183,4.25 0,2.348 0,0"
               style="fill:#91624d;fill-opacity:1;fill-rule:nonzero;stroke:none"
               id="path3909" />
          </g>
          <g
             id="g3911"
             transform="translate(204.167,53.6924)">
            <path
               d="M 0,0 C 0,1.245 2.462,2.255 5.5,2.255 8.538,2.255 11,1.245 11,0 11,-1.246 8.538,-2.256 5.5,-2.256 2.462,-2.256 0,-1.246 0,0"
               style="fill:#91624d;fill-opacity:1;fill-rule:nonzero;stroke:none"
               id="path3913" />
          </g>
          <g
             id="g3915"
             transform="translate(187.917,63.3135)">
            <path
               d="M 0,0 C 0,1.864 0.784,3.376 1.75,3.376 2.716,3.376 3.5,1.864 3.5,0 3.5,-1.865 2.716,-3.377 1.75,-3.377 0.784,-3.377 0,-1.865 0,0"
               style="fill:#91624d;fill-opacity:1;fill-rule:nonzero;stroke:none"
               id="path3917" />
          </g>
          <g
             id="g3919"
             transform="translate(173.292,59.9424)">
            <path
               d="m 0,0 c 0,-2.207 -2.238,-3.995 -5,-3.995 -2.761,0 -5,1.788 -5,3.995 0,2.206 2.239,3.994 5,3.994 2.762,0 5,-1.788 5,-3.994"
               style="fill:#91624d;fill-opacity:1;fill-rule:nonzero;stroke:none"
               id="path3921" />
          </g>
          <g
             id="g3923"
             transform="translate(150.667,57.9443)">
            <path
               d="M 0,0 C 0,-1.103 -1.119,-1.997 -2.5,-1.997 -3.881,-1.997 -5,-1.103 -5,0 -5,1.104 -3.881,1.998 -2.5,1.998 -1.119,1.998 0,1.104 0,0"
               style="fill:#91624d;fill-opacity:1;fill-rule:nonzero;stroke:none"
               id="path3925" />
          </g>
          <g
             id="g3927"
             transform="translate(132.167,61.3184)">
            <path
               d="m 0,0 c 0,-2.967 -2.798,-5.371 -6.25,-5.371 -3.452,0 -6.25,2.404 -6.25,5.371 0,2.967 2.798,5.371 6.25,5.371 C -2.798,5.371 0,2.967 0,0"
               style="fill:#91624d;fill-opacity:1;fill-rule:nonzero;stroke:none"
               id="path3929" />
          </g>
          <g
             id="g3931"
             transform="translate(117.667,72.6895)">
            <path
               d="m 0,0 c 0,-1.793 -3.116,-3.247 -6.96,-3.247 -3.844,0 -6.959,1.454 -6.959,3.247 0,1.793 3.115,3.247 6.959,3.247 C -3.116,3.247 0,1.793 0,0"
               style="fill:#91624d;fill-opacity:1;fill-rule:nonzero;stroke:none"
               id="path3933" />
          </g>
          <g
             id="g3935"
             transform="translate(94.667,84.0615)">
            <path
               d="m 0,0 c 0,-3.383 -1.791,-6.125 -4,-6.125 -2.209,0 -4,2.742 -4,6.125 0,3.383 1.791,6.125 4,6.125 2.209,0 4,-2.742 4,-6.125"
               style="fill:#91624d;fill-opacity:1;fill-rule:nonzero;stroke:none"
               id="path3937" />
          </g>
          <g
             id="g3939"
             transform="translate(107.167,64.0039)">
            <path
               d="m 0,0 c 0,-1.483 -2.798,-2.686 -6.25,-2.686 -3.452,0 -6.25,1.203 -6.25,2.686 0,1.483 2.798,2.686 6.25,2.686 C -2.798,2.686 0,1.483 0,0"
               style="fill:#91624d;fill-opacity:1;fill-rule:nonzero;stroke:none"
               id="path3941" />
          </g>
          <g
             id="g3943"
             transform="translate(86.667,92.1865)">
            <path
               d="m 0,0 c 0,-2.899 -3.506,-5.25 -7.831,-5.25 -4.324,0 -7.83,2.351 -7.83,5.25 0,2.899 3.506,5.25 7.83,5.25 C -3.506,5.25 0,2.899 0,0"
               style="fill:#91624d;fill-opacity:1;fill-rule:nonzero;stroke:none"
               id="path3945" />
          </g>
          <g
             id="g3947"
             transform="translate(71.0059,110.9365)">
            <path
               d="m 0,0 c 0,-1.104 -1.38,-2 -3.083,-2 -1.703,0 -3.084,0.896 -3.084,2 0,1.104 1.381,2 3.084,2 C -1.38,2 0,1.104 0,0"
               style="fill:#91624d;fill-opacity:1;fill-rule:nonzero;stroke:none"
               id="path3949" />
          </g>
          <g
             id="g3951"
             transform="translate(71.0059,131.5225)">
            <path
               d="m 0,0 c 0,-3.361 -3.221,-6.086 -7.195,-6.086 -3.973,0 -7.195,2.725 -7.195,6.086 0,3.361 3.222,6.086 7.195,6.086 C -3.221,6.086 0,3.361 0,0"
               style="fill:#91624d;fill-opacity:1;fill-rule:nonzero;stroke:none"
               id="path3953" />
          </g>
          <g
             id="g3955"
             transform="translate(56.6162,142.4443)">
            <path
               d="m 0,0 c 0,-1.661 -2.003,-3.008 -4.475,-3.008 -2.471,0 -4.474,1.347 -4.474,3.008 0,1.661 2.003,3.008 4.474,3.008 C -2.003,3.008 0,1.661 0,0"
               style="fill:#91624d;fill-opacity:1;fill-rule:nonzero;stroke:none"
               id="path3957" />
          </g>
          <g
             id="g3959"
             transform="translate(52.1416,150.3657)">
            <path
               d="m 0,0 c 0,-2.713 -1.562,-4.914 -3.487,-4.914 -1.926,0 -3.488,2.201 -3.488,4.914 0,2.714 1.562,4.914 3.488,4.914 C -1.562,4.914 0,2.714 0,0"
               style="fill:#91624d;fill-opacity:1;fill-rule:nonzero;stroke:none"
               id="path3961" />
          </g>
          <g
             id="g3963"
             transform="translate(47.667,159.9365)">
            <path
               d="m 0,0 c 0,-0.552 -1.679,-1 -3.75,-1 -2.071,0 -3.75,0.448 -3.75,1 0,0.552 1.679,1 3.75,1 C -1.679,1 0,0.552 0,0"
               style="fill:#91624d;fill-opacity:1;fill-rule:nonzero;stroke:none"
               id="path3965" />
          </g>
          <g
             id="g3967"
             transform="translate(47.667,173.2695)">
            <path
               d="m 0,0 c 0,-2.209 -2.126,-4 -4.75,-4 -2.624,0 -4.75,1.791 -4.75,4 0,2.209 2.126,4 4.75,4 C -2.126,4 0,2.209 0,0"
               style="fill:#91624d;fill-opacity:1;fill-rule:nonzero;stroke:none"
               id="path3969" />
          </g>
          <g
             id="g3971"
             transform="translate(43.917,235.9756)">
            <path
               d="m 0,0 c 0,-1.255 -1.287,-2.272 -2.875,-2.272 -1.588,0 -2.875,1.017 -2.875,2.272 0,1.255 1.287,2.273 2.875,2.273 C -1.287,2.273 0,1.255 0,0"
               style="fill:#91624d;fill-opacity:1;fill-rule:nonzero;stroke:none"
               id="path3973" />
          </g>
          <g
             id="g3975"
             transform="translate(47.667,251.8813)">
            <path
               d="m 0,0 c 0,-0.859 -2.126,-1.555 -4.75,-1.555 -2.624,0 -4.75,0.696 -4.75,1.555 0,0.859 2.126,1.555 4.75,1.555 C -2.126,1.555 0,0.859 0,0"
               style="fill:#91624d;fill-opacity:1;fill-rule:nonzero;stroke:none"
               id="path3977" />
          </g>
          <g
             id="g3979"
             transform="translate(56.6162,263.4365)">
            <path
               d="m 0,0 c 0,-1.104 -1.782,-2 -3.981,-2 -2.199,0 -3.981,0.896 -3.981,2 0,1.104 1.782,2 3.981,2 C -1.782,2 0,1.104 0,0"
               style="fill:#91624d;fill-opacity:1;fill-rule:nonzero;stroke:none"
               id="path3981" />
          </g>
          <g
             id="g3983"
             transform="translate(51.8403,245.3174)">
            <path
               d="m 0,0 c 0,-1.225 -0.935,-2.217 -2.087,-2.217 -1.152,0 -2.086,0.992 -2.086,2.217 0,1.225 0.934,2.217 2.086,2.217 C -0.935,2.217 0,1.225 0,0"
               style="fill:#91624d;fill-opacity:1;fill-rule:nonzero;stroke:none"
               id="path3985" />
          </g>
          <g
             id="g3987"
             transform="translate(69.811,271.1865)">
            <path
               d="m 0,0 c 0,-2.071 -1.611,-3.75 -3.597,-3.75 -1.987,0 -3.598,1.679 -3.598,3.75 0,2.071 1.611,3.75 3.598,3.75 C -1.611,3.75 0,2.071 0,0"
               style="fill:#91624d;fill-opacity:1;fill-rule:nonzero;stroke:none"
               id="path3989" />
          </g>
          <g
             id="g3991"
             transform="translate(84.0059,278.0928)">
            <path
               d="m 0,0 c 0,-1.775 -1.611,-3.214 -3.598,-3.214 -1.986,0 -3.597,1.439 -3.597,3.214 0,1.775 1.611,3.214 3.597,3.214 C -1.611,3.214 0,1.775 0,0"
               style="fill:#91624d;fill-opacity:1;fill-rule:nonzero;stroke:none"
               id="path3993" />
          </g>
          <g
             id="g3995"
             transform="translate(83.9688,287.8115)">
            <path
               d="m 0,0 c 0,-2.416 -1.916,-4.375 -4.28,-4.375 -2.364,0 -4.281,1.959 -4.281,4.375 0,2.416 1.917,4.375 4.281,4.375 C -1.916,4.375 0,2.416 0,0"
               style="fill:#91624d;fill-opacity:1;fill-rule:nonzero;stroke:none"
               id="path3997" />
          </g>
          <g
             id="g3999"
             transform="translate(71.6885,265.1865)">
            <path
               d="m 0,0 c 0,-2.071 -0.958,-3.75 -2.14,-3.75 -1.182,0 -2.14,1.679 -2.14,3.75 0,2.071 0.958,3.75 2.14,3.75 C -0.958,3.75 0,2.071 0,0"
               style="fill:#91624d;fill-opacity:1;fill-rule:nonzero;stroke:none"
               id="path4001" />
          </g>
          <g
             id="g4003"
             transform="translate(86.667,299.0615)">
            <path
               d="m 0,0 c 0,-2.692 -3.353,-4.875 -7.489,-4.875 -4.136,0 -7.49,2.183 -7.49,4.875 0,2.692 3.354,4.875 7.49,4.875 C -3.353,4.875 0,2.692 0,0"
               style="fill:#91624d;fill-opacity:1;fill-rule:nonzero;stroke:none"
               id="path4005" />
          </g>
          <g
             id="g4007"
             transform="translate(79.5059,280.7466)">
            <path
               d="m 0,0 c 0,-0.309 -0.792,-0.56 -1.769,-0.56 -0.976,0 -1.768,0.251 -1.768,0.56 0,0.309 0.792,0.56 1.768,0.56 C -0.792,0.56 0,0.309 0,0"
               style="fill:#91624d;fill-opacity:1;fill-rule:nonzero;stroke:none"
               id="path4009" />
          </g>
          <g
             id="g4011"
             transform="translate(84.0059,311.624)">
            <path
               d="m 0,0 c 0,-0.104 -1.403,-0.187 -3.134,-0.187 -1.731,0 -3.135,0.083 -3.135,0.187 0,0.104 1.404,0.187 3.135,0.187 C -1.403,0.187 0,0.104 0,0"
               style="fill:#91624d;fill-opacity:1;fill-rule:nonzero;stroke:none"
               id="path4013" />
          </g>
          <g
             id="g4015"
             transform="translate(92.8169,316.9365)">
            <path
               d="m 0,0 c 0,-1.381 -1.301,-2.5 -2.905,-2.5 -1.605,0 -2.906,1.119 -2.906,2.5 0,1.381 1.301,2.5 2.906,2.5 C -1.301,2.5 0,1.381 0,0"
               style="fill:#91624d;fill-opacity:1;fill-rule:nonzero;stroke:none"
               id="path4017" />
          </g>
          <g
             id="g4019"
             transform="translate(110.667,335.6304)">
            <path
               d="m 0,0 c 0,-2.93 -2.183,-5.306 -4.875,-5.306 -2.692,0 -4.875,2.376 -4.875,5.306 0,2.931 2.183,5.306 4.875,5.306 C -2.183,5.306 0,2.931 0,0"
               style="fill:#91624d;fill-opacity:1;fill-rule:nonzero;stroke:none"
               id="path4021" />
          </g>
          <g
             id="g4023"
             transform="translate(137.917,335.6309)">
            <path
               d="m 0,0 c 0,-2.931 -3.414,-5.306 -7.625,-5.306 -4.211,0 -7.625,2.375 -7.625,5.306 0,2.93 3.414,5.306 7.625,5.306 C -3.414,5.306 0,2.93 0,0"
               style="fill:#91624d;fill-opacity:1;fill-rule:nonzero;stroke:none"
               id="path4025" />
          </g>
          <g
             id="g4027"
             transform="translate(101.667,318.1865)">
            <path
               d="m 0,0 c 0,-2.347 -0.896,-4.25 -2,-4.25 -1.104,0 -2,1.903 -2,4.25 0,2.347 0.896,4.25 2,4.25 1.104,0 2,-1.903 2,-4.25"
               style="fill:#91624d;fill-opacity:1;fill-rule:nonzero;stroke:none"
               id="path4029" />
          </g>
          <g
             id="g4031"
             transform="translate(163.2925,346.0337)">
            <path
               d="m 0,0 c 0,-2.432 -2.826,-4.403 -6.313,-4.403 -3.486,0 -6.312,1.971 -6.312,4.403 0,2.432 2.826,4.403 6.312,4.403 C -2.826,4.403 0,2.432 0,0"
               style="fill:#91624d;fill-opacity:1;fill-rule:nonzero;stroke:none"
               id="path4033" />
          </g>
          <g
             id="g4035"
             transform="translate(183.2295,346.0337)">
            <path
               d="m 0,0 c 0,-2.432 -2.225,-4.403 -4.969,-4.403 -2.744,0 -4.969,1.971 -4.969,4.403 0,2.432 2.225,4.403 4.969,4.403 C -2.225,4.403 0,2.432 0,0"
               style="fill:#91624d;fill-opacity:1;fill-rule:nonzero;stroke:none"
               id="path4037" />
          </g>
          <g
             id="g4039"
             transform="translate(148.917,341.1865)">
            <path
               d="m 0,0 c 0,-1.795 -1.847,-3.25 -4.125,-3.25 -2.278,0 -4.125,1.455 -4.125,3.25 0,1.795 1.847,3.25 4.125,3.25 C -1.847,3.25 0,1.795 0,0"
               style="fill:#91624d;fill-opacity:1;fill-rule:nonzero;stroke:none"
               id="path4041" />
          </g>
          <g
             id="g4043"
             transform="translate(191.417,346.6865)">
            <path
               d="M 0,0 V -2.25 0 2.25 Z"
               style="fill:#91624d;fill-opacity:1;fill-rule:nonzero;stroke:none"
               id="path4045" />
          </g>
          <g
             id="g4047"
             transform="translate(197.417,342.4399)">
            <path
               d="m 0,0 c 0,-0.827 -2.126,-1.497 -4.75,-1.497 -2.624,0 -4.75,0.67 -4.75,1.497 0,0.827 2.126,1.497 4.75,1.497 C -2.126,1.497 0,0.827 0,0"
               style="fill:#91624d;fill-opacity:1;fill-rule:nonzero;stroke:none"
               id="path4049" />
          </g>
          <g
             id="g4051"
             transform="translate(213.167,350.9365)">
            <path
               d="m 0,0 c 0,-2.209 -2.462,-4 -5.5,-4 -3.038,0 -5.5,1.791 -5.5,4 0,2.209 2.462,4 5.5,4 C -2.462,4 0,2.209 0,0"
               style="fill:#91624d;fill-opacity:1;fill-rule:nonzero;stroke:none"
               id="path4053" />
          </g>
          <g
             id="g4055"
             transform="translate(245.167,337.4883)">
            <path
               d="m 0,0 c 0,-1.405 -1.886,-2.545 -4.213,-2.545 -2.327,0 -4.214,1.14 -4.214,2.545 0,1.406 1.887,2.545 4.214,2.545 C -1.886,2.545 0,1.406 0,0"
               style="fill:#91624d;fill-opacity:1;fill-rule:nonzero;stroke:none"
               id="path4057" />
          </g>
          <g
             id="g4059"
             transform="translate(217.6763,337.6338)">
            <path
               d="m 0,0 c 0,-1.275 -1.905,-2.309 -4.255,-2.309 -2.349,0 -4.254,1.034 -4.254,2.309 0,1.276 1.905,2.31 4.254,2.31 C -1.905,2.31 0,1.276 0,0"
               style="fill:#91624d;fill-opacity:1;fill-rule:nonzero;stroke:none"
               id="path4061" />
          </g>
          <g
             id="g4063"
             transform="translate(231.167,342.3115)">
            <path
               d="m 0,0 c 0,-2.416 -2.239,-4.375 -5,-4.375 -2.761,0 -5,1.959 -5,4.375 0,2.416 2.239,4.375 5,4.375 2.761,0 5,-1.959 5,-4.375"
               style="fill:#91624d;fill-opacity:1;fill-rule:nonzero;stroke:none"
               id="path4065" />
          </g>
          <g
             id="g4067"
             transform="translate(267.167,331.1899)">
            <path
               d="m 0,0 c 0,-2.073 -2.966,-3.753 -6.625,-3.753 -3.659,0 -6.625,1.68 -6.625,3.753 0,2.073 2.966,3.753 6.625,3.753 C -2.966,3.753 0,2.073 0,0"
               style="fill:#91624d;fill-opacity:1;fill-rule:nonzero;stroke:none"
               id="path4069" />
          </g>
          <g
             id="g4071"
             transform="translate(262.167,318.9365)">
            <path
               d="m 0,0 h -6.25 -6.25 6.25 z"
               style="fill:#91624d;fill-opacity:1;fill-rule:nonzero;stroke:none"
               id="path4073" />
          </g>
          <g
             id="g4075"
             transform="translate(281.667,321.9365)">
            <path
               d="m 0,0 c 0,-1.657 -1.903,-3 -4.25,-3 -2.347,0 -4.25,1.343 -4.25,3 0,1.657 1.903,3 4.25,3 C -1.903,3 0,1.657 0,0"
               style="fill:#91624d;fill-opacity:1;fill-rule:nonzero;stroke:none"
               id="path4077" />
          </g>
          <g
             id="g4079"
             transform="translate(281.667,308.874)">
            <path
               d="m 0,0 c 0,-1.623 -0.951,-2.938 -2.125,-2.938 -1.174,0 -2.125,1.315 -2.125,2.938 0,1.623 0.951,2.938 2.125,2.938 C -0.951,2.938 0,1.623 0,0"
               style="fill:#91624d;fill-opacity:1;fill-rule:nonzero;stroke:none"
               id="path4081" />
          </g>
          <g
             id="g4083"
             transform="translate(294.667,317.251)">
            <path
               d="m 0,0 c 0,-0.931 -0.995,-1.686 -2.222,-1.686 -1.227,0 -2.222,0.755 -2.222,1.686 0,0.931 0.995,1.686 2.222,1.686 C -0.995,1.686 0,0.931 0,0"
               style="fill:#91624d;fill-opacity:1;fill-rule:nonzero;stroke:none"
               id="path4085" />
          </g>
          <g
             id="g4087"
             transform="translate(306.5703,298.8115)">
            <path
               d="m 0,0 c 0,-1.45 -3.659,-2.625 -8.174,-2.625 -4.514,0 -8.173,1.175 -8.173,2.625 0,1.45 3.659,2.625 8.173,2.625 C -3.659,2.625 0,1.45 0,0"
               style="fill:#91624d;fill-opacity:1;fill-rule:nonzero;stroke:none"
               id="path4089" />
          </g>
          <g
             id="g4091"
             transform="translate(317.167,306.4053)">
            <path
               d="m 0,0 c 0,-1.363 -2.372,-2.469 -5.299,-2.469 -2.926,0 -5.298,1.106 -5.298,2.469 0,1.363 2.372,2.469 5.298,2.469 C -2.372,2.469 0,1.363 0,0"
               style="fill:#91624d;fill-opacity:1;fill-rule:nonzero;stroke:none"
               id="path4093" />
          </g>
          <g
             id="g4095"
             transform="translate(298.3965,313.0625)">
            <path
               d="m 0,0 c 0,-2.313 -0.834,-4.188 -1.865,-4.188 -1.03,0 -1.864,1.875 -1.864,4.188 0,2.313 0.834,4.188 1.864,4.188 C -0.834,4.188 0,2.313 0,0"
               style="fill:#91624d;fill-opacity:1;fill-rule:nonzero;stroke:none"
               id="path4097" />
          </g>
          <g
             id="g4099"
             transform="translate(329.373,290.8115)">
            <path
               d="m 0,0 c 0,-2.969 -2.061,-5.375 -4.603,-5.375 -2.543,0 -4.603,2.406 -4.603,5.375 0,2.969 2.06,5.375 4.603,5.375 C -2.061,5.375 0,2.969 0,0"
               style="fill:#91624d;fill-opacity:1;fill-rule:nonzero;stroke:none"
               id="path4101" />
          </g>
          <g
             id="g4103"
             transform="translate(329.373,276.3374)">
            <path
               d="m 0,0 c 0,-1.878 -1.03,-3.401 -2.302,-3.401 -1.27,0 -2.301,1.523 -2.301,3.401 0,1.878 1.031,3.401 2.301,3.401 C -1.03,3.401 0,1.878 0,0"
               style="fill:#91624d;fill-opacity:1;fill-rule:nonzero;stroke:none"
               id="path4105" />
          </g>
          <g
             id="g4107"
             transform="translate(341.667,278.542)">
            <path
               d="m 0,0 c 0,-1.218 -1.455,-2.205 -3.25,-2.205 -1.795,0 -3.25,0.987 -3.25,2.205 0,1.218 1.455,2.205 3.25,2.205 C -1.455,2.205 0,1.218 0,0"
               style="fill:#91624d;fill-opacity:1;fill-rule:nonzero;stroke:none"
               id="path4109" />
          </g>
          <g
             id="g4111"
             transform="translate(338.417,261.6865)">
            <path
               d="m 0,0 c 0,-1.519 -2.024,-2.75 -4.521,-2.75 -2.499,0 -4.523,1.231 -4.523,2.75 0,1.519 2.024,2.75 4.523,2.75 C -2.024,2.75 0,1.519 0,0"
               style="fill:#91624d;fill-opacity:1;fill-rule:nonzero;stroke:none"
               id="path4113" />
          </g>
          <g
             id="g4115"
             transform="translate(329.373,253.6289)">
            <path
               d="m 0,0 c 0,-1.763 -0.516,-3.192 -1.15,-3.192 -0.636,0 -1.152,1.429 -1.152,3.192 0,1.763 0.516,3.192 1.152,3.192 C -0.516,3.192 0,1.763 0,0"
               style="fill:#91624d;fill-opacity:1;fill-rule:nonzero;stroke:none"
               id="path4117" />
          </g>
          <g
             id="g4119"
             transform="translate(105.792,32.9365)">
            <path
               d="m 0,0 c 0,-1.381 -2.49,-2.5 -5.562,-2.5 -3.073,0 -5.563,1.119 -5.563,2.5 0,1.381 2.49,2.5 5.563,2.5 C -2.49,2.5 0,1.381 0,0"
               style="fill:#91624d;fill-opacity:1;fill-rule:nonzero;stroke:none"
               id="path4121" />
          </g>
          <g
             id="g4123"
             transform="translate(122.667,25.1865)">
            <path
               d="m 0,0 c 0,-1.519 -1.791,-2.75 -4,-2.75 -2.209,0 -4,1.231 -4,2.75 0,1.519 1.791,2.75 4,2.75 2.209,0 4,-1.231 4,-2.75"
               style="fill:#91624d;fill-opacity:1;fill-rule:nonzero;stroke:none"
               id="path4125" />
          </g>
          <g
             id="g4127"
             transform="translate(148.167,18.1865)">
            <path
               d="m 0,0 c 0,-2.348 -2.294,-4.25 -5.125,-4.25 -2.831,0 -5.125,1.902 -5.125,4.25 0,2.348 2.294,4.25 5.125,4.25 C -2.294,4.25 0,2.348 0,0"
               style="fill:#91624d;fill-opacity:1;fill-rule:nonzero;stroke:none"
               id="path4129" />
          </g>
          <g
             id="g4131"
             transform="translate(173.292,16.0615)">
            <path
               d="m 0,0 c 0,-1.174 -2.826,-2.125 -6.312,-2.125 -3.487,0 -6.313,0.951 -6.313,2.125 0,1.174 2.826,2.125 6.313,2.125 C -2.826,2.125 0,1.174 0,0"
               style="fill:#91624d;fill-opacity:1;fill-rule:nonzero;stroke:none"
               id="path4133" />
          </g>
          <g
             id="g4135"
             transform="translate(158.167,23.8115)">
            <path
               d="m 0,0 c 0,-0.76 -1.679,-1.375 -3.75,-1.375 -2.071,0 -3.75,0.615 -3.75,1.375 0,0.76 1.679,1.375 3.75,1.375 C -1.679,1.375 0,0.76 0,0"
               style="fill:#91624d;fill-opacity:1;fill-rule:nonzero;stroke:none"
               id="path4137" />
          </g>
          <g
             id="g4139"
             transform="translate(189.667,17.124)">
            <path
               d="m 0,0 c 0,-0.587 -2.553,-1.062 -5.703,-1.062 -3.15,0 -5.703,0.475 -5.703,1.062 0,0.587 2.553,1.062 5.703,1.062 C -2.553,1.062 0,0.587 0,0"
               style="fill:#91624d;fill-opacity:1;fill-rule:nonzero;stroke:none"
               id="path4141" />
          </g>
          <g
             id="g4143"
             transform="translate(192.667,23.8115)">
            <path
               d="m 0,0 c 0,-0.76 -1.948,-1.375 -4.352,-1.375 -2.403,0 -4.351,0.615 -4.351,1.375 0,0.76 1.948,1.375 4.351,1.375 C -1.948,1.375 0,0.76 0,0"
               style="fill:#91624d;fill-opacity:1;fill-rule:nonzero;stroke:none"
               id="path4145" />
          </g>
          <g
             id="g4147"
             transform="translate(213.4219,9.6865)">
            <path
               d="m 0,0 c 0,-0.967 -3.315,-1.75 -7.405,-1.75 -4.09,0 -7.405,0.783 -7.405,1.75 0,0.967 3.315,1.75 7.405,1.75 C -3.315,1.75 0,0.967 0,0"
               style="fill:#91624d;fill-opacity:1;fill-rule:nonzero;stroke:none"
               id="path4149" />
          </g>
          <g
             id="g4151"
             transform="translate(213.4219,20.3115)">
            <path
               d="m 0,0 c 0,-1.174 -1.44,-2.125 -3.216,-2.125 -1.777,0 -3.217,0.951 -3.217,2.125 0,1.174 1.44,2.125 3.217,2.125 C -1.44,2.125 0,1.174 0,0"
               style="fill:#91624d;fill-opacity:1;fill-rule:nonzero;stroke:none"
               id="path4153" />
          </g>
          <g
             id="g4155"
             transform="translate(236.7402,21.374)">
            <path
               d="m 0,0 c 0,-0.587 -1.919,-1.062 -4.287,-1.062 -2.367,0 -4.286,0.475 -4.286,1.062 0,0.587 1.919,1.062 4.286,1.062 C -1.919,1.062 0,0.587 0,0"
               style="fill:#91624d;fill-opacity:1;fill-rule:nonzero;stroke:none"
               id="path4157" />
          </g>
          <g
             id="g4159"
             transform="translate(249.792,30.4365)">
            <path
               d="m 0,0 c 0,-1.381 -1.707,-2.5 -3.813,-2.5 -2.105,0 -3.812,1.119 -3.812,2.5 0,1.381 1.707,2.5 3.812,2.5 C -1.707,2.5 0,1.381 0,0"
               style="fill:#91624d;fill-opacity:1;fill-rule:nonzero;stroke:none"
               id="path4161" />
          </g>
          <g
             id="g4163"
             transform="translate(245.167,20.8428)">
            <path
               d="m 0,0 c 0,-0.293 -1.886,-0.531 -4.213,-0.531 -2.328,0 -4.214,0.238 -4.214,0.531 0,0.293 1.886,0.531 4.214,0.531 C -1.886,0.531 0,0.293 0,0"
               style="fill:#91624d;fill-opacity:1;fill-rule:nonzero;stroke:none"
               id="path4165" />
          </g>
          <g
             id="g4167"
             transform="translate(268.667,38.1865)">
            <path
               d="m 0,0 c 0,-1.519 -1.455,-2.75 -3.25,-2.75 -1.795,0 -3.25,1.231 -3.25,2.75 0,1.519 1.455,2.75 3.25,2.75 C -1.455,2.75 0,1.519 0,0"
               style="fill:#91624d;fill-opacity:1;fill-rule:nonzero;stroke:none"
               id="path4169" />
          </g>
          <g
             id="g4171"
             transform="translate(265.417,26.5615)">
            <path
               d="m 0,0 c 0,-0.76 -0.728,-1.375 -1.625,-1.375 -0.897,0 -1.625,0.615 -1.625,1.375 0,0.76 0.728,1.375 1.625,1.375 C -0.728,1.375 0,0.76 0,0"
               style="fill:#91624d;fill-opacity:1;fill-rule:nonzero;stroke:none"
               id="path4173" />
          </g>
          <g
             id="g4175"
             transform="translate(281.667,45.8115)">
            <path
               d="M 0,0 C 0,-0.76 -1.119,-1.375 -2.5,-1.375 -3.881,-1.375 -5,-0.76 -5,0 -5,0.76 -3.881,1.375 -2.5,1.375 -1.119,1.375 0,0.76 0,0"
               style="fill:#91624d;fill-opacity:1;fill-rule:nonzero;stroke:none"
               id="path4177" />
          </g>
          <g
             id="g4179"
             transform="translate(294.667,49.752)">
            <path
               d="M 0,0 C 0,-2.177 2.126,-3.94 4.75,-3.94 7.374,-3.94 9.5,-2.177 9.5,0 9.5,2.176 7.374,3.94 4.75,3.94 2.126,3.94 0,2.176 0,0"
               style="fill:#91624d;fill-opacity:1;fill-rule:nonzero;stroke:none"
               id="path4181" />
          </g>
          <g
             id="g4183"
             transform="translate(289.667,36.9365)">
            <path
               d="m 0,0 c 0,2.209 -2.742,4 -6.125,4 -3.383,0 -6.125,-1.791 -6.125,-4 0,-2.209 2.742,-4 6.125,-4 C -2.742,-4 0,-2.209 0,0"
               style="fill:#91624d;fill-opacity:1;fill-rule:nonzero;stroke:none"
               id="path4185" />
          </g>
          <g
             id="g4187"
             transform="translate(322.917,63.3135)">
            <path
               d="M 0,0 H -2.375 -4.75 -2.375 Z"
               style="fill:#91624d;fill-opacity:1;fill-rule:nonzero;stroke:none"
               id="path4189" />
          </g>
          <g
             id="g4191"
             transform="translate(335.167,80.999)">
            <path
               d="M 0,0 C 0,1.691 -0.783,3.063 -1.75,3.063 -2.717,3.063 -3.5,1.691 -3.5,0 c 0,-1.691 0.783,-3.063 1.75,-3.063 C -0.783,-3.063 0,-1.691 0,0"
               style="fill:#91624d;fill-opacity:1;fill-rule:nonzero;stroke:none"
               id="path4193" />
          </g>
          <g
             id="g4195"
             transform="translate(322.917,63.3135)">
            <path
               d="m 0,0 c 0,1.864 -3.414,3.376 -7.625,3.376 -4.211,0 -7.625,-1.512 -7.625,-3.376 0,-1.865 3.414,-3.377 7.625,-3.377 C -3.414,-3.377 0,-1.865 0,0"
               style="fill:#91624d;fill-opacity:1;fill-rule:nonzero;stroke:none"
               id="path4197" />
          </g>
          <g
             id="g4199"
             transform="translate(353.167,99.9365)">
            <path
               d="M 0,0 C 0,2.485 -1.902,4.5 -4.25,4.5 -6.598,4.5 -8.5,2.485 -8.5,0 c 0,-2.485 1.902,-4.5 4.25,-4.5 C -1.902,-4.5 0,-2.485 0,0"
               style="fill:#91624d;fill-opacity:1;fill-rule:nonzero;stroke:none"
               id="path4201" />
          </g>
          <g
             id="g4203"
             transform="translate(356.167,113.4365)">
            <path
               d="M 0,0 C 0,2.485 -0.672,4.5 -1.5,4.5 -2.328,4.5 -3,2.485 -3,0 c 0,-2.485 0.672,-4.5 1.5,-4.5 0.828,0 1.5,2.015 1.5,4.5"
               style="fill:#91624d;fill-opacity:1;fill-rule:nonzero;stroke:none"
               id="path4205" />
          </g>
          <g
             id="g4207"
             transform="translate(94.667,27.249)">
            <path
               d="m 0,0 c 0,-0.38 -1.791,-0.687 -4,-0.687 -2.209,0 -4,0.307 -4,0.687 0,0.38 1.791,0.687 4,0.687 2.209,0 4,-0.307 4,-0.687"
               style="fill:#91624d;fill-opacity:1;fill-rule:nonzero;stroke:none"
               id="path4209" />
          </g>
          <g
             id="g4211"
             transform="translate(110.667,20.4678)">
            <path
               d="m 0,0 c 0,-1.847 -2.183,-3.344 -4.875,-3.344 -2.692,0 -4.875,1.497 -4.875,3.344 0,1.847 2.183,3.344 4.875,3.344 C -2.183,3.344 0,1.847 0,0"
               style="fill:#91624d;fill-opacity:1;fill-rule:nonzero;stroke:none"
               id="path4213" />
          </g>
          <g
             id="g4215"
             transform="translate(84.0059,41.999)">
            <path
               d="m 0,0 c 0,-2.105 -0.966,-3.813 -2.159,-3.813 -1.192,0 -2.158,1.708 -2.158,3.813 0,2.105 0.966,3.813 2.158,3.813 C -0.966,3.813 0,2.105 0,0"
               style="fill:#91624d;fill-opacity:1;fill-rule:nonzero;stroke:none"
               id="path4217" />
          </g>
          <g
             id="g4219"
             transform="translate(130.167,13.0615)">
            <path
               d="m 0,0 c 0,-2.83 -2.351,-5.125 -5.25,-5.125 -2.899,0 -5.25,2.295 -5.25,5.125 0,2.83 2.351,5.125 5.25,5.125 C -2.351,5.125 0,2.83 0,0"
               style="fill:#91624d;fill-opacity:1;fill-rule:nonzero;stroke:none"
               id="path4221" />
          </g>
          <g
             id="g4223"
             transform="translate(62.6162,54.8193)">
            <path
               d="m 0,0 c 0,-0.622 2.031,-1.127 4.536,-1.127 2.506,0 4.536,0.505 4.536,1.127 0,0.623 -2.03,1.128 -4.536,1.128 C 2.031,1.128 0,0.623 0,0"
               style="fill:#91624d;fill-opacity:1;fill-rule:nonzero;stroke:none"
               id="path4225" />
          </g>
          <g
             id="g4227"
             transform="translate(49.7539,71.1895)">
            <path
               d="m 0,0 c 0,-0.965 1.536,-1.747 3.431,-1.747 1.895,0 3.431,0.782 3.431,1.747 0,0.965 -1.536,1.747 -3.431,1.747 C 1.536,1.747 0,0.965 0,0"
               style="fill:#91624d;fill-opacity:1;fill-rule:nonzero;stroke:none"
               id="path4229" />
          </g>
          <g
             id="g4231"
             transform="translate(62.6162,60.9746)">
            <path
               d="m 0,0 c 0,-1.674 -1.343,-3.03 -3,-3.03 -1.657,0 -3,1.356 -3,3.03 0,1.673 1.343,3.029 3,3.029 1.657,0 3,-1.356 3,-3.029"
               style="fill:#91624d;fill-opacity:1;fill-rule:nonzero;stroke:none"
               id="path4233" />
          </g>
          <g
             id="g4235"
             transform="translate(53.1851,83.1865)">
            <path
               d="m 0,0 c 0,-2.071 -1.235,-3.75 -2.759,-3.75 -1.524,0 -2.759,1.679 -2.759,3.75 0,2.071 1.235,3.75 2.759,3.75 C -1.235,3.75 0,2.071 0,0"
               style="fill:#91624d;fill-opacity:1;fill-rule:nonzero;stroke:none"
               id="path4237" />
          </g>
          <g
             id="g4239"
             transform="translate(40.167,99.4365)">
            <path
               d="M 0,0 C 0,-1.104 0.839,-2 1.875,-2 2.911,-2 3.75,-1.104 3.75,0 3.75,1.104 2.911,2 1.875,2 0.839,2 0,1.104 0,0"
               style="fill:#91624d;fill-opacity:1;fill-rule:nonzero;stroke:none"
               id="path4241" />
          </g>
          <g
             id="g4243"
             transform="translate(40.167,108.9365)">
            <path
               d="m 0,0 c 0,-2.485 -0.448,-4.5 -1,-4.5 -0.552,0 -1,2.015 -1,4.5 0,2.485 0.448,4.5 1,4.5 0.552,0 1,-2.015 1,-4.5"
               style="fill:#91624d;fill-opacity:1;fill-rule:nonzero;stroke:none"
               id="path4245" />
          </g>
          <g
             id="g4247"
             transform="translate(36.167,122.585)">
            <path
               d="m 0,0 c 0,-1.575 -1.343,-2.852 -3,-2.852 -1.657,0 -3,1.277 -3,2.852 0,1.575 1.343,2.852 3,2.852 1.657,0 3,-1.277 3,-2.852"
               style="fill:#91624d;fill-opacity:1;fill-rule:nonzero;stroke:none"
               id="path4249" />
          </g>
          <g
             id="g4251"
             transform="translate(30.167,138.5225)">
            <path
               d="m 0,0 c 0,-0.505 -1.007,-0.914 -2.25,-0.914 -1.243,0 -2.25,0.409 -2.25,0.914 0,0.505 1.007,0.914 2.25,0.914 C -1.007,0.914 0,0.505 0,0"
               style="fill:#91624d;fill-opacity:1;fill-rule:nonzero;stroke:none"
               id="path4253" />
          </g>
          <g
             id="g4255"
             transform="translate(30.167,146.4053)">
            <path
               d="m 0,0 c 0,-2.188 -1.455,-3.961 -3.25,-3.961 -1.795,0 -3.25,1.773 -3.25,3.961 0,2.188 1.455,3.961 3.25,3.961 C -1.455,3.961 0,2.188 0,0"
               style="fill:#91624d;fill-opacity:1;fill-rule:nonzero;stroke:none"
               id="path4257" />
          </g>
          <g
             id="g4259"
             transform="translate(25.667,161.6055)">
            <path
               d="m 0,0 c 0,-1.474 -2.058,-2.669 -4.597,-2.669 -2.539,0 -4.598,1.195 -4.598,2.669 0,1.474 2.059,2.669 4.598,2.669 C -2.058,2.669 0,1.474 0,0"
               style="fill:#91624d;fill-opacity:1;fill-rule:nonzero;stroke:none"
               id="path4261" />
          </g>
          <g
             id="g4263"
             transform="translate(19.0693,172.0786)">
            <path
               d="m 0,0 c 0,-1.551 -1.029,-2.809 -2.298,-2.809 -1.27,0 -2.299,1.258 -2.299,2.809 0,1.552 1.029,2.81 2.299,2.81 C -1.029,2.81 0,1.552 0,0"
               style="fill:#91624d;fill-opacity:1;fill-rule:nonzero;stroke:none"
               id="path4265" />
          </g>
          <g
             id="g4267"
             transform="translate(12.167,190.897)">
            <path
               d="m 0,0 c 0,-2.042 -1.007,-3.697 -2.25,-3.697 -1.243,0 -2.25,1.655 -2.25,3.697 0,2.042 1.007,3.697 2.25,3.697 C -1.007,3.697 0,2.042 0,0"
               style="fill:#91624d;fill-opacity:1;fill-rule:nonzero;stroke:none"
               id="path4269" />
          </g>
          <g
             id="g4271"
             transform="translate(16.7705,212.5845)">
            <path
               d="m 0,0 c 0,1.738 -2.038,3.148 -4.552,3.148 -2.513,0 -4.552,-1.41 -4.552,-3.148 0,-1.739 2.039,-3.148 4.552,-3.148 C -2.038,-3.148 0,-1.739 0,0"
               style="fill:#91624d;fill-opacity:1;fill-rule:nonzero;stroke:none"
               id="path4273" />
          </g>
          <g
             id="g4275"
             transform="translate(9.917,200.9565)">
            <path
               d="m 0,0 c 0,-1.944 -0.951,-3.52 -2.125,-3.52 -1.174,0 -2.125,1.576 -2.125,3.52 0,1.944 0.951,3.52 2.125,3.52 C -0.951,3.52 0,1.944 0,0"
               style="fill:#91624d;fill-opacity:1;fill-rule:nonzero;stroke:none"
               id="path4277" />
          </g>
          <g
             id="g4279"
             transform="translate(19.0693,200.9565)">
            <path
               d="m 0,0 c 0,-1.944 -0.515,-3.52 -1.149,-3.52 -0.635,0 -1.15,1.576 -1.15,3.52 0,1.944 0.515,3.52 1.15,3.52 C -0.515,3.52 0,1.944 0,0"
               style="fill:#91624d;fill-opacity:1;fill-rule:nonzero;stroke:none"
               id="path4281" />
          </g>
          <g
             id="g4283"
             transform="translate(56.6162,98.4365)">
            <path
               d="m 0,0 c 0,-1.657 -2.003,-3 -4.475,-3 -2.471,0 -4.474,1.343 -4.474,3 0,1.657 2.003,3 4.474,3 C -2.003,3 0,1.657 0,0"
               style="fill:#91624d;fill-opacity:1;fill-rule:nonzero;stroke:none"
               id="path4285" />
          </g>
          <g
             id="g4287"
             transform="translate(23.667,235.2305)">
            <path
               d="m 0,0 c 0,2.924 -1.544,5.294 -3.448,5.294 -1.905,0 -3.448,-2.37 -3.448,-5.294 0,-2.924 1.543,-5.294 3.448,-5.294 C -1.544,-5.294 0,-2.924 0,0"
               style="fill:#91624d;fill-opacity:1;fill-rule:nonzero;stroke:none"
               id="path4289" />
          </g>
          <g
             id="g4291"
             transform="translate(32.167,259.2539)">
            <path
               d="M 0,0 C 0,1.343 -1.455,2.433 -3.25,2.433 -5.045,2.433 -6.5,1.343 -6.5,0 c 0,-1.344 1.455,-2.433 3.25,-2.433 C -1.455,-2.433 0,-1.344 0,0"
               style="fill:#91624d;fill-opacity:1;fill-rule:nonzero;stroke:none"
               id="path4293" />
          </g>
          <g
             id="g4295"
             transform="translate(24.667,248.6997)">
            <path
               d="m 0,0 c 0,1.757 -0.772,3.182 -1.724,3.182 -0.952,0 -1.724,-1.425 -1.724,-3.182 0,-1.757 0.772,-3.182 1.724,-3.182 C -0.772,-3.182 0,-1.757 0,0"
               style="fill:#91624d;fill-opacity:1;fill-rule:nonzero;stroke:none"
               id="path4297" />
          </g>
          <g
             id="g4299"
             transform="translate(38.167,266.4365)">
            <path
               d="m 0,0 c 0,0.552 -1.791,1 -4,1 -2.209,0 -4,-0.448 -4,-1 0,-0.552 1.791,-1 4,-1 2.209,0 4,0.448 4,1"
               style="fill:#91624d;fill-opacity:1;fill-rule:nonzero;stroke:none"
               id="path4301" />
          </g>
          <g
             id="g4303"
             transform="translate(42.7173,282.8115)">
            <path
               d="M 0,0 C 0,1.45 -0.795,2.625 -1.775,2.625 -2.755,2.625 -3.55,1.45 -3.55,0 c 0,-1.45 0.795,-2.625 1.775,-2.625 C -0.795,-2.625 0,-1.45 0,0"
               style="fill:#91624d;fill-opacity:1;fill-rule:nonzero;stroke:none"
               id="path4305" />
          </g>
          <g
             id="g4307"
             transform="translate(51.8403,297.8115)">
            <path
               d="m 0,0 c 0,2.002 -0.935,3.625 -2.087,3.625 -1.152,0 -2.086,-1.623 -2.086,-3.625 0,-2.002 0.934,-3.625 2.086,-3.625 C -0.935,-3.625 0,-2.002 0,0"
               style="fill:#91624d;fill-opacity:1;fill-rule:nonzero;stroke:none"
               id="path4309" />
          </g>
          <g
             id="g4311"
             transform="translate(47.667,295.374)">
            <path
               d="M 0,0 C 0,1.346 -0.839,2.438 -1.875,2.438 -2.911,2.438 -3.75,1.346 -3.75,0 c 0,-1.346 0.839,-2.438 1.875,-2.438 C -0.839,-2.438 0,-1.346 0,0"
               style="fill:#91624d;fill-opacity:1;fill-rule:nonzero;stroke:none"
               id="path4313" />
          </g>
          <g
             id="g4315"
             transform="translate(56.6162,310.9854)">
            <path
               d="m 0,0 c 0,2.529 -0.891,4.58 -1.99,4.58 -1.1,0 -1.991,-2.051 -1.991,-4.58 0,-2.53 0.891,-4.58 1.991,-4.58 C -0.891,-4.58 0,-2.53 0,0"
               style="fill:#91624d;fill-opacity:1;fill-rule:nonzero;stroke:none"
               id="path4317" />
          </g>
          <g
             id="g4319"
             transform="translate(59.6162,327.6304)">
            <path
               d="M 0,0 C 0,1.488 1.026,2.694 2.291,2.694 3.557,2.694 4.582,1.488 4.582,0 4.582,-1.488 3.557,-2.694 2.291,-2.694 1.026,-2.694 0,-1.488 0,0"
               style="fill:#91624d;fill-opacity:1;fill-rule:nonzero;stroke:none"
               id="path4321" />
          </g>
          <g
             id="g4323"
             transform="translate(67.1523,340.1885)">
            <path
               d="M 0,0 C 0,1.243 1.016,2.251 2.268,2.251 3.521,2.251 4.536,1.243 4.536,0 4.536,-1.244 3.521,-2.252 2.268,-2.252 1.016,-2.252 0,-1.244 0,0"
               style="fill:#91624d;fill-opacity:1;fill-rule:nonzero;stroke:none"
               id="path4325" />
          </g>
          <g
             id="g4327"
             transform="translate(79.8364,353.1089)">
            <path
               d="m 0,0 c 0,2.303 -0.767,4.172 -1.714,4.172 -0.947,0 -1.714,-1.868 -1.714,-4.172 0,-2.304 0.767,-4.172 1.714,-4.172 C -0.768,-4.172 0,-2.304 0,0"
               style="fill:#91624d;fill-opacity:1;fill-rule:nonzero;stroke:none"
               id="path4329" />
          </g>
          <g
             id="g4331"
             transform="translate(356.167,263.3115)">
            <path
               d="M 0,0 V 1.875 0 -1.875 Z"
               style="fill:#91624d;fill-opacity:1;fill-rule:nonzero;stroke:none"
               id="path4333" />
          </g>
          <g
             id="g4335"
             transform="translate(354.667,279.5742)">
            <path
               d="M 0,0 C 0,1.788 1.157,3.237 2.584,3.237 4.011,3.237 5.168,1.788 5.168,0 5.168,-1.788 4.011,-3.237 2.584,-3.237 1.157,-3.237 0,-1.788 0,0"
               style="fill:#91624d;fill-opacity:1;fill-rule:nonzero;stroke:none"
               id="path4337" />
          </g>
          <g
             id="g4339"
             transform="translate(346.667,293.0615)">
            <path
               d="M 0,0 C 0,1.726 0.504,3.125 1.125,3.125 1.746,3.125 2.25,1.726 2.25,0 2.25,-1.726 1.746,-3.125 1.125,-3.125 0.504,-3.125 0,-1.726 0,0"
               style="fill:#91624d;fill-opacity:1;fill-rule:nonzero;stroke:none"
               id="path4341" />
          </g>
          <g
             id="g4343"
             transform="translate(335.167,309.1865)">
            <path
               d="M 0,0 C 0,2.899 0.728,5.25 1.625,5.25 2.522,5.25 3.25,2.899 3.25,0 3.25,-2.899 2.522,-5.25 1.625,-5.25 0.728,-5.25 0,-2.899 0,0"
               style="fill:#91624d;fill-opacity:1;fill-rule:nonzero;stroke:none"
               id="path4345" />
          </g>
          <g
             id="g4347"
             transform="translate(344.667,302.6865)">
            <path
               d="m 0,0 c 0,-0.69 -1.763,-1.25 -3.938,-1.25 -2.174,0 -3.937,0.56 -3.937,1.25 0,0.69 1.763,1.25 3.937,1.25 C -1.763,1.25 0,0.69 0,0"
               style="fill:#91624d;fill-opacity:1;fill-rule:nonzero;stroke:none"
               id="path4349" />
          </g>
          <g
             id="g4351"
             transform="translate(328.2217,325.0337)">
            <path
               d="m 0,0 c 0,-1.435 -1.187,-2.597 -2.652,-2.597 -1.465,0 -2.653,1.162 -2.653,2.597 0,1.434 1.188,2.597 2.653,2.597 C -1.187,2.597 0,1.434 0,0"
               style="fill:#91624d;fill-opacity:1;fill-rule:nonzero;stroke:none"
               id="path4353" />
          </g>
          <g
             id="g4355"
             transform="translate(311.8682,338.2871)">
            <path
               d="m 0,0 c 0,-1.847 -2.283,-3.344 -5.101,-3.344 -2.816,0 -5.1,1.497 -5.1,3.344 0,1.847 2.284,3.344 5.1,3.344 C -2.283,3.344 0,1.847 0,0"
               style="fill:#91624d;fill-opacity:1;fill-rule:nonzero;stroke:none"
               id="path4357" />
          </g>
          <g
             id="g4359"
             transform="translate(325.5693,315.2109)">
            <path
               d="m 0,0 c 0,-2.334 -1.881,-4.226 -4.201,-4.226 -2.32,0 -4.201,1.892 -4.201,4.226 0,2.333 1.881,4.226 4.201,4.226 C -1.881,4.226 0,2.333 0,0"
               style="fill:#91624d;fill-opacity:1;fill-rule:nonzero;stroke:none"
               id="path4361" />
          </g>
          <g
             id="g4363"
             transform="translate(299.417,344.2837)">
            <path
               d="m 0,0 c 0,-1.465 -1.561,-2.653 -3.486,-2.653 -1.925,0 -3.486,1.188 -3.486,2.653 0,1.465 1.561,2.653 3.486,2.653 C -1.561,2.653 0,1.465 0,0"
               style="fill:#91624d;fill-opacity:1;fill-rule:nonzero;stroke:none"
               id="path4365" />
          </g>
          <g
             id="g4367"
             transform="translate(289.667,355.1084)">
            <path
               d="m 0,0 c 0,-2.304 -1.791,-4.172 -4,-4.172 -2.209,0 -4,1.868 -4,4.172 0,2.305 1.791,4.172 4,4.172 2.209,0 4,-1.867 4,-4.172"
               style="fill:#91624d;fill-opacity:1;fill-rule:nonzero;stroke:none"
               id="path4369" />
          </g>
          <g
             id="g4371"
             transform="translate(281.667,354.8584)">
            <path
               d="m 0,0 c 0,-2.442 -1.455,-4.422 -3.25,-4.422 -1.795,0 -3.25,1.98 -3.25,4.422 0,2.442 1.455,4.422 3.25,4.422 C -1.455,4.422 0,2.442 0,0"
               style="fill:#91624d;fill-opacity:1;fill-rule:nonzero;stroke:none"
               id="path4373" />
          </g>
          <g
             id="g4375"
             transform="translate(272.167,361.6084)">
            <path
               d="M 0,0 C 0,-1.286 -1.119,-2.328 -2.5,-2.328 -3.881,-2.328 -5,-1.286 -5,0 -5,1.286 -3.881,2.328 -2.5,2.328 -1.119,2.328 0,1.286 0,0"
               style="fill:#91624d;fill-opacity:1;fill-rule:nonzero;stroke:none"
               id="path4377" />
          </g>
          <g
             id="g4379"
             transform="translate(255.917,365.2725)">
            <path
               d="m 0,0 c 0,-2.023 -1.073,-3.664 -2.396,-3.664 -1.323,0 -2.396,1.641 -2.396,3.664 0,2.023 1.073,3.664 2.396,3.664 C -1.073,3.664 0,2.023 0,0"
               style="fill:#91624d;fill-opacity:1;fill-rule:nonzero;stroke:none"
               id="path4381" />
          </g>
          <g
             id="g4383"
             transform="translate(249.792,374.4365)">
            <path
               d="m 0,0 c 0,-0.276 -0.923,-0.5 -2.063,-0.5 -1.139,0 -2.062,0.224 -2.062,0.5 0,0.276 0.923,0.5 2.062,0.5 C -0.923,0.5 0,0.276 0,0"
               style="fill:#91624d;fill-opacity:1;fill-rule:nonzero;stroke:none"
               id="path4385" />
          </g>
          <g
             id="g4387"
             transform="translate(264.8452,359.2808)">
            <path
               d="m 0,0 h -2.152 -2.151 2.151 z"
               style="fill:#91624d;fill-opacity:1;fill-rule:nonzero;stroke:none"
               id="path4389" />
          </g>
          <g
             id="g4391"
             transform="translate(245.167,373.9365)">
            <path
               d="m 0,0 c 0,-2.761 -1.886,-5 -4.213,-5 -2.327,0 -4.214,2.239 -4.214,5 0,2.761 1.887,5 4.214,5 C -1.886,5 0,2.761 0,0"
               style="fill:#91624d;fill-opacity:1;fill-rule:nonzero;stroke:none"
               id="path4393" />
          </g>
          <g
             id="g4395"
             transform="translate(236.7402,364.6045)">
            <path
               d="m 0,0 c 0,-0.369 -1.028,-0.668 -2.297,-0.668 -1.269,0 -2.297,0.299 -2.297,0.668 0,0.369 1.028,0.668 2.297,0.668 C -1.028,0.668 0,0.369 0,0"
               style="fill:#91624d;fill-opacity:1;fill-rule:nonzero;stroke:none"
               id="path4397" />
          </g>
          <g
             id="g4399"
             transform="translate(232.146,376.4365)">
            <path
               d="m 0,0 c 0,-1.381 -1.618,-2.5 -3.615,-2.5 -1.996,0 -3.614,1.119 -3.614,2.5 0,1.381 1.618,2.5 3.614,2.5 C -1.618,2.5 0,1.381 0,0"
               style="fill:#91624d;fill-opacity:1;fill-rule:nonzero;stroke:none"
               id="path4401" />
          </g>
          <g
             id="g4403"
             transform="translate(232.146,366.7705)">
            <path
               d="m 0,0 c 0,-1.196 -3.239,-2.166 -7.235,-2.166 -3.995,0 -7.235,0.97 -7.235,2.166 0,1.196 3.24,2.166 7.235,2.166 C -3.239,2.166 0,1.196 0,0"
               style="fill:#91624d;fill-opacity:1;fill-rule:nonzero;stroke:none"
               id="path4405" />
          </g>
          <g
             id="g4407"
             transform="translate(213.4219,381.4365)">
            <path
               d="m 0,0 c 0,-1.381 -0.841,-2.5 -1.877,-2.5 -1.038,0 -1.878,1.119 -1.878,2.5 0,1.381 0.84,2.5 1.878,2.5 C -0.841,2.5 0,1.381 0,0"
               style="fill:#91624d;fill-opacity:1;fill-rule:nonzero;stroke:none"
               id="path4409" />
          </g>
          <g
             id="g4411"
             transform="translate(217.6763,370.8535)">
            <path
               d="m 0,0 c 0,-2.255 -2.393,-4.083 -5.344,-4.083 -2.951,0 -5.344,1.828 -5.344,4.083 0,2.255 2.393,4.083 5.344,4.083 C -2.393,4.083 0,2.255 0,0"
               style="fill:#91624d;fill-opacity:1;fill-rule:nonzero;stroke:none"
               id="path4413" />
          </g>
          <g
             id="g4415"
             transform="translate(198.6123,381.4365)">
            <path
               d="m 0,0 h -0.598 -0.597 0.597 z"
               style="fill:#91624d;fill-opacity:1;fill-rule:nonzero;stroke:none"
               id="path4417" />
          </g>
          <g
             id="g4419"
             transform="translate(206.9888,373.645)">
            <path
               d="m 0,0 c 0,-1.542 -3.206,-2.792 -7.161,-2.792 -3.955,0 -7.161,1.25 -7.161,2.792 0,1.542 3.206,2.792 7.161,2.792 C -3.206,2.792 0,1.542 0,0"
               style="fill:#91624d;fill-opacity:1;fill-rule:nonzero;stroke:none"
               id="path4421" />
          </g>
          <g
             id="g4423"
             transform="translate(92.8169,359.5225)">
            <path
               d="m 0,0 c 0,2.438 -0.914,4.414 -2.04,4.414 -1.127,0 -2.04,-1.976 -2.04,-4.414 0,-2.438 0.913,-4.414 2.04,-4.414 C -0.914,-4.414 0,-2.438 0,0"
               style="fill:#91624d;fill-opacity:1;fill-rule:nonzero;stroke:none"
               id="path4425" />
          </g>
          <g
             id="g4427"
             transform="translate(105.792,366.231)">
            <path
               d="m 0,0 c 0,2.553 -1.819,4.623 -4.062,4.623 -2.244,0 -4.063,-2.07 -4.063,-4.623 0,-2.553 1.819,-4.623 4.063,-4.623 C -1.819,-4.623 0,-2.553 0,0"
               style="fill:#91624d;fill-opacity:1;fill-rule:nonzero;stroke:none"
               id="path4429" />
          </g>
          <g
             id="g4431"
             transform="translate(122.667,371.4365)">
            <path
               d="m 0,0 c 0,1.381 -1.791,2.5 -4,2.5 -2.209,0 -4,-1.119 -4,-2.5 0,-1.381 1.791,-2.5 4,-2.5 2.209,0 4,1.119 4,2.5"
               style="fill:#91624d;fill-opacity:1;fill-rule:nonzero;stroke:none"
               id="path4433" />
          </g>
          <g
             id="g4435"
             transform="translate(135.667,382.6865)">
            <path
               d="M 0,0 C 0,0.69 -1.007,1.25 -2.25,1.25 -3.493,1.25 -4.5,0.69 -4.5,0 c 0,-0.69 1.007,-1.25 2.25,-1.25 C -1.007,-1.25 0,-0.69 0,0"
               style="fill:#91624d;fill-opacity:1;fill-rule:nonzero;stroke:none"
               id="path4437" />
          </g>
          <g
             id="g4439"
             transform="translate(150.667,382.6865)">
            <path
               d="M 0,0 C 0,0.69 -0.392,1.25 -0.875,1.25 -1.358,1.25 -1.75,0.69 -1.75,0 c 0,-0.69 0.392,-1.25 0.875,-1.25 C -0.392,-1.25 0,-0.69 0,0"
               style="fill:#91624d;fill-opacity:1;fill-rule:nonzero;stroke:none"
               id="path4441" />
          </g>
          <g
             id="g4443"
             transform="translate(144.792,378.9365)">
            <path
               d="m 0,0 c 0,1.381 -2.042,2.5 -4.562,2.5 -2.521,0 -4.563,-1.119 -4.563,-2.5 0,-1.381 2.042,-2.5 4.563,-2.5 C -2.042,-2.5 0,-1.381 0,0"
               style="fill:#91624d;fill-opacity:1;fill-rule:nonzero;stroke:none"
               id="path4445" />
          </g>
          <g
             id="g4447"
             transform="translate(166.667,381.4365)">
            <path
               d="m 0,0 c 0,-1.381 -0.755,-2.5 -1.687,-2.5 -0.932,0 -1.688,1.119 -1.688,2.5 0,1.381 0.756,2.5 1.688,2.5 C -0.755,2.5 0,1.381 0,0"
               style="fill:#91624d;fill-opacity:1;fill-rule:nonzero;stroke:none"
               id="path4449" />
          </g>
          <g
             id="g4451"
             transform="translate(163.2925,370.208)">
            <path
               d="m 0,0 c 0,-1.898 -2.155,-3.438 -4.813,-3.438 -2.658,0 -4.812,1.54 -4.812,3.438 0,1.898 2.154,3.437 4.812,3.437 C -2.155,3.437 0,1.898 0,0"
               style="fill:#91624d;fill-opacity:1;fill-rule:nonzero;stroke:none"
               id="path4453" />
          </g>
          <g
             id="g4455"
             transform="translate(181.167,380.8115)">
            <path
               d="m 0,0 c 0,-1.036 -2.183,-1.875 -4.875,-1.875 -2.692,0 -4.875,0.839 -4.875,1.875 0,1.036 2.183,1.875 4.875,1.875 C -2.183,1.875 0,1.036 0,0"
               style="fill:#91624d;fill-opacity:1;fill-rule:nonzero;stroke:none"
               id="path4457" />
          </g>
          <g
             id="g4459"
             transform="translate(183.2295,370.5308)">
            <path
               d="m 0,0 c 0,0.178 -2.225,0.323 -4.969,0.323 -2.744,0 -4.969,-0.145 -4.969,-0.323 0,-0.178 2.225,-0.323 4.969,-0.323 C -2.225,-0.323 0,-0.178 0,0"
               style="fill:#91624d;fill-opacity:1;fill-rule:nonzero;stroke:none"
               id="path4461" />
          </g>
          <g
             id="g4463"
             transform="translate(195.167,383.3115)">
            <path
               d="m 0,0 c 0,-0.345 -1.623,-0.625 -3.625,-0.625 -2.002,0 -3.625,0.28 -3.625,0.625 0,0.345 1.623,0.625 3.625,0.625 C -1.623,0.625 0,0.345 0,0"
               style="fill:#91624d;fill-opacity:1;fill-rule:nonzero;stroke:none"
               id="path4465" />
          </g>
          <g
             id="g4467"
             transform="translate(135.667,366.4365)">
            <path
               d="M 0,0 C 0,1.381 0.504,2.5 1.125,2.5 1.746,2.5 2.25,1.381 2.25,0 2.25,-1.381 1.746,-2.5 1.125,-2.5 0.504,-2.5 0,-1.381 0,0"
               style="fill:#91624d;fill-opacity:1;fill-rule:nonzero;stroke:none"
               id="path4469" />
          </g>
          <g
             id="g4471"
             transform="translate(88.7368,357.2295)">
            <path
               d="M 0,0 C 0,1.267 2.895,2.293 6.465,2.293 10.036,2.293 12.93,1.267 12.93,0 12.93,-1.267 10.036,-2.293 6.465,-2.293 2.895,-2.293 0,-1.267 0,0"
               style="fill:#91624d;fill-opacity:1;fill-rule:nonzero;stroke:none"
               id="path4473" />
          </g>
          <g
             id="g4475"
             transform="translate(71.6885,345.2354)">
            <path
               d="m 0,0 c 0,0.441 2.273,0.798 5.077,0.798 2.804,0 5.078,-0.357 5.078,-0.798 0,-0.441 -2.274,-0.799 -5.078,-0.799 C 2.273,-0.799 0,-0.441 0,0"
               style="fill:#91624d;fill-opacity:1;fill-rule:nonzero;stroke:none"
               id="path4477" />
          </g>
          <g
             id="g4479"
             transform="translate(71.0059,326.1865)">
            <path
               d="m 0,0 c 0,-0.69 0.985,-1.25 2.201,-1.25 1.216,0 2.201,0.56 2.201,1.25 0,0.69 -0.985,1.25 -2.201,1.25 C 0.985,1.25 0,0.69 0,0"
               style="fill:#91624d;fill-opacity:1;fill-rule:nonzero;stroke:none"
               id="path4481" />
          </g>
          <g
             id="g4483"
             transform="translate(59.6162,306.8359)">
            <path
               d="m 0,0 c 0,-2.292 0.939,-4.149 2.098,-4.149 1.158,0 2.097,1.857 2.097,4.149 0,2.292 -0.939,4.149 -2.097,4.149 C 0.939,4.149 0,2.292 0,0"
               style="fill:#91624d;fill-opacity:1;fill-rule:nonzero;stroke:none"
               id="path4485" />
          </g>
          <g
             id="g4487"
             transform="translate(338.417,207.1587)">
            <path
               d="m 0,0 c 0,-4.117 -4.085,-7.454 -9.125,-7.454 -5.04,0 -9.125,3.337 -9.125,7.454 0,4.116 4.085,7.454 9.125,7.454 C -4.085,7.454 0,4.116 0,0"
               style="fill:#91624d;fill-opacity:1;fill-rule:nonzero;stroke:none"
               id="path4489" />
          </g>
          <g
             id="g4491"
             transform="translate(333.8955,169.438)">
            <path
               d="m 0,0 c 0,6.996 -4.165,12.667 -9.302,12.667 -5.137,0 -9.302,-5.671 -9.302,-12.667 0,-6.996 4.165,-12.667 9.302,-12.667 C -4.165,-12.667 0,-6.996 0,0"
               style="fill:#91624d;fill-opacity:1;fill-rule:nonzero;stroke:none"
               id="path4493" />
          </g>
          <g
             id="g4495"
             transform="translate(366.667,184.7412)">
            <path
               d="m 0,0 c 0,5.441 -3.47,9.853 -7.75,9.853 -4.28,0 -7.75,-4.412 -7.75,-9.853 0,-5.442 3.47,-9.853 7.75,-9.853 C -3.47,-9.853 0,-5.442 0,0"
               style="fill:#91624d;fill-opacity:1;fill-rule:nonzero;stroke:none"
               id="path4497" />
          </g>
          <g
             id="g4499"
             transform="translate(392.167,186.521)">
            <path
               d="m 0,0 c 0,2.438 -2.238,4.416 -5,4.416 -2.762,0 -5,-1.978 -5,-4.416 0,-2.439 2.238,-4.416 5,-4.416 2.762,0 5,1.977 5,4.416"
               style="fill:#91624d;fill-opacity:1;fill-rule:nonzero;stroke:none"
               id="path4501" />
          </g>
          <g
             id="g4503"
             transform="translate(372.167,199.1201)">
            <path
               d="M 0,0 C 0,2.5 0.672,4.526 1.5,4.526 2.328,4.526 3,2.5 3,0 3,-2.5 2.328,-4.526 1.5,-4.526 0.672,-4.526 0,-2.5 0,0"
               style="fill:#91624d;fill-opacity:1;fill-rule:nonzero;stroke:none"
               id="path4505" />
          </g>
          <g
             id="g4507"
             transform="translate(348.917,210.8853)">
            <path
               d="m 0,0 c 0,2.059 2.444,3.727 5.459,3.727 3.015,0 5.459,-1.668 5.459,-3.727 0,-2.058 -2.444,-3.727 -5.459,-3.727 C 2.444,-3.727 0,-2.058 0,0"
               style="fill:#91624d;fill-opacity:1;fill-rule:nonzero;stroke:none"
               id="path4509" />
          </g>
          <g
             id="g4511"
             transform="translate(408.167,181.6187)">
            <path
               d="M 0,0 C 0,1.725 2.127,3.123 4.75,3.123 7.373,3.123 9.5,1.725 9.5,0 9.5,-1.724 7.373,-3.122 4.75,-3.122 2.127,-3.122 0,-1.724 0,0"
               style="fill:#91624d;fill-opacity:1;fill-rule:nonzero;stroke:none"
               id="path4513" />
          </g>
          <g
             id="g4515"
             transform="translate(392.167,204.2783)">
            <path
               d="M 0,0 C 0,2.849 2.91,5.158 6.5,5.158 10.09,5.158 13,2.849 13,0 13,-2.849 10.09,-5.158 6.5,-5.158 2.91,-5.158 0,-2.849 0,0"
               style="fill:#91624d;fill-opacity:1;fill-rule:nonzero;stroke:none"
               id="path4517" />
          </g>
          <g
             id="g4519"
             transform="translate(443.5352,170.4775)">
            <path
               d="m 0,0 c 0,-1.853 -1.985,-3.355 -4.434,-3.355 -2.449,0 -4.434,1.502 -4.434,3.355 0,1.853 1.985,3.354 4.434,3.354 C -1.985,3.354 0,1.853 0,0"
               style="fill:#91624d;fill-opacity:1;fill-rule:nonzero;stroke:none"
               id="path4521" />
          </g>
          <g
             id="g4523"
             transform="translate(426.667,194.3208)">
            <path
               d="M 0,0 C 0,2.974 1.791,5.384 4,5.384 6.209,5.384 8,2.974 8,0 8,-2.974 6.209,-5.384 4,-5.384 1.791,-5.384 0,-2.974 0,0"
               style="fill:#91624d;fill-opacity:1;fill-rule:nonzero;stroke:none"
               id="path4525" />
          </g>
          <g
             id="g4527"
             transform="translate(454.167,168.6406)">
            <path
               d="m 0,0 c 0,2.502 2.544,4.53 5.683,4.53 3.138,0 5.682,-2.028 5.682,-4.53 0,-2.501 -2.544,-4.53 -5.682,-4.53 C 2.544,-4.53 0,-2.501 0,0"
               style="fill:#91624d;fill-opacity:1;fill-rule:nonzero;stroke:none"
               id="path4529" />
          </g>
          <g
             id="g4531"
             transform="translate(443.5352,178.4966)">
            <path
               d="M 0,0 C 0,1.993 1.933,3.608 4.315,3.608 6.699,3.608 8.632,1.993 8.632,0 8.632,-1.993 6.699,-3.608 4.315,-3.608 1.933,-3.608 0,-1.993 0,0"
               style="fill:#91624d;fill-opacity:1;fill-rule:nonzero;stroke:none"
               id="path4533" />
          </g>
          <g
             id="g4535"
             transform="translate(452.167,188.7285)">
            <path
               d="M 0,0 C 0,1.22 1.119,2.208 2.5,2.208 3.881,2.208 5,1.22 5,0 5,-1.219 3.881,-2.208 2.5,-2.208 1.119,-2.208 0,-1.219 0,0"
               style="fill:#91624d;fill-opacity:1;fill-rule:nonzero;stroke:none"
               id="path4537" />
          </g>
          <g
             id="g4539"
             transform="translate(61.6162,174.2695)">
            <path
               d="M 0,0 C 4.195,4.854 19.567,3.167 25.051,-1"
               style="fill:none;stroke:#774f42;stroke-width:4;stroke-linecap:round;stroke-linejoin:miter;stroke-miterlimit:10;stroke-dasharray:none;stroke-opacity:1"
               id="path4541" />
          </g>
          <g
             id="g4543"
             transform="translate(83.5005,238.9341)">
            <path
               d="M 0,0 C -5.169,-3.821 -16.529,-4.924 -22.013,-0.757"
               style="fill:none;stroke:#774f42;stroke-width:4;stroke-linecap:round;stroke-linejoin:miter;stroke-miterlimit:10;stroke-dasharray:none;stroke-opacity:1"
               id="path4545" />
          </g>
        </g>
      </g>
    </g>
  </g>
</svg>
