<?xml version="1.0" encoding="UTF-8" standalone="no"?>
<!-- Created with Inkscape (http://www.inkscape.org/) -->

<svg
   xmlns:dc="http://purl.org/dc/elements/1.1/"
   xmlns:cc="http://creativecommons.org/ns#"
   xmlns:rdf="http://www.w3.org/1999/02/22-rdf-syntax-ns#"
   xmlns:svg="http://www.w3.org/2000/svg"
   xmlns="http://www.w3.org/2000/svg"
   xmlns:xlink="http://www.w3.org/1999/xlink"
   xmlns:sodipodi="http://sodipodi.sourceforge.net/DTD/sodipodi-0.dtd"
   xmlns:inkscape="http://www.inkscape.org/namespaces/inkscape"
   width="529.16669mm"
   height="370.41666mm"
   viewBox="0 0 529.16669 370.41666"
   version="1.1"
   id="svg8"
   inkscape:version="0.92.2 2405546, 2018-03-11"
   sodipodi:docname="striped_bass.svg">
  <defs
     id="defs2">
    <linearGradient
       inkscape:collect="always"
       id="linearGradient987">
      <stop
         style="stop-color:#c3cbd0;stop-opacity:1;"
         offset="0"
         id="stop983" />
      <stop
         style="stop-color:#c3cbd0;stop-opacity:0;"
         offset="1"
         id="stop985" />
    </linearGradient>
    <linearGradient
       inkscape:collect="always"
       xlink:href="#linearGradient987"
       id="linearGradient989"
       x1="-37.67556"
       y1="157.71976"
       x2="-141.69383"
       y2="176.09486"
       gradientUnits="userSpaceOnUse" />
  </defs>
  <sodipodi:namedview
     id="base"
     pagecolor="#ffffff"
     bordercolor="#666666"
     borderopacity="1.0"
     inkscape:pageopacity="0.0"
     inkscape:pageshadow="2"
     inkscape:zoom="0.5"
     inkscape:cx="872.27433"
     inkscape:cy="696.52104"
     inkscape:document-units="mm"
     inkscape:current-layer="layer1"
     showgrid="false"
     fit-margin-top="0"
     fit-margin-left="0"
     fit-margin-right="0"
     fit-margin-bottom="0"
     inkscape:snap-global="true" />
  <metadata
     id="metadata5">
    <rdf:RDF>
      <cc:Work
         rdf:about="">
        <dc:format>image/svg+xml</dc:format>
        <dc:type
           rdf:resource="http://purl.org/dc/dcmitype/StillImage" />
        <dc:title></dc:title>
      </cc:Work>
    </rdf:RDF>
  </metadata>
  <g
     inkscape:label="Layer 1"
     inkscape:groupmode="layer"
     id="layer1"
     transform="translate(185.20834,28.815472)">
    <path
       style="fill:#c3cbd0;fill-opacity:1;stroke:none;stroke-width:0.26458332px;stroke-linecap:butt;stroke-linejoin:miter;stroke-opacity:1"
       d="m 257.07261,118.63159 c 1.49324,-0.74642 2.90074,-1.65843 4.40289,-2.38674 0.79858,-0.38719 1.64868,-0.66184 2.44587,-1.05188 5.65422,-2.76646 10.80715,-6.59971 16.53695,-9.1182 5.99816,-2.63644 11.9513,-5.54178 17.95386,-8.268219 7.47861,-3.396886 14.95886,-6.832236 22.67857,-9.638393 3.55851,-1.293539 7.12791,-3.904477 10.86684,-3.307291 2.58443,0.412787 5.70468,1.996147 6.42558,4.51209 0.32269,1.126183 -0.94461,2.144941 -1.37016,3.23642 -0.42523,1.090667 -0.41179,2.425011 -1.18118,3.307292 -0.58334,0.668932 -2.26625,0.346088 -2.36236,1.228423 -0.0917,0.841934 2.00991,0.84198 1.94895,1.630023 -0.0853,1.102815 -0.84271,2.347845 -1.0985,3.661645 -0.78079,4.01035 -0.3699,8.34211 -1.98438,12.09524 -0.39083,0.90856 -1.79826,1.3733 -1.79538,2.36235 10e-4,0.5166 1.02488,0.71804 0.94493,1.22842 -1.02547,6.54627 -3.84455,12.80163 -3.59076,17.85937 0.0254,0.50725 -0.69824,0.81832 -0.75594,1.32292 -0.0747,0.65344 0.71553,1.24919 0.56695,1.88988 -1.00416,4.32998 -2.68301,8.35795 -2.92931,12.6622 -0.0216,0.37737 0.0868,0.76606 0,1.13393 -0.12945,0.54838 -0.75594,1.51191 -0.75594,1.51191 0,0 0.90325,0.67756 0.68506,1.32291 -0.21188,0.62667 -1.32361,2.38528 -1.25204,2.45685 l 0.99219,2.83482 c 0,0 0.66154,1.15294 0.75594,1.79539 0.0645,0.43879 -0.16655,0.88012 -0.14174,1.32292 0.0487,0.86983 0.75336,1.70031 0.56698,2.55133 -0.1058,0.48308 -0.81886,0.69297 -0.89771,1.18118 -0.2017,1.24885 1.0093,2.34486 1.22844,3.59077 0.43708,2.48495 0.55126,6.12882 0,7.46503 -0.21531,0.52188 0.56575,1.00277 0.66146,1.55915 0.2648,1.5394 -0.50463,3.13118 -0.28348,4.67746 0.0924,0.64601 0.35324,1.26742 0.66146,1.84263 0.84108,1.56961 0.31399,2.49476 0.0472,2.97657 -0.29051,0.52465 0.75468,0.97675 0.8977,1.55915 0.18419,0.75006 -0.17215,1.54667 -0.0945,2.3151 0.27726,2.74386 1.72235,5.28664 1.98438,8.032 0.11537,1.20881 -0.50177,2.46469 -0.18897,3.63802 0.14967,0.5614 0.7911,0.90438 0.94494,1.46465 0.22533,0.82066 -0.48211,1.7937 -0.0945,2.55134 0.18104,0.35386 0.80462,0.31101 0.99218,0.66146 0.31211,0.58319 -0.16043,1.34267 0,1.98438 0.0649,0.25974 0.37146,0.44105 0.37799,0.7087 0.0153,0.62681 -0.7051,1.08161 -0.8032,1.70089 -0.39862,2.51627 0.81242,5.63085 0.99219,7.55953 0.0811,0.8697 -1.04327,1.4936 -1.13392,2.36235 -0.22041,2.11231 2.39927,4.25985 1.5119,6.18936 -0.53854,1.17102 -2.16278,1.66517 -3.44903,1.74814 -9.65329,0.62266 -18.6104,-5.55191 -27.35603,-9.68564 -18.5243,-8.75574 -35.50368,-20.75178 -52.63319,-31.75 l 12.37871,-7.70126 2.07889,-34.77381 -12.47323,-27.21429 c 0,0 4.09639,-1.7987 6.09645,-2.79847 z"
       id="path948"
       inkscape:connector-curvature="0"
       sodipodi:nodetypes="aaassaaaaaassaassassacsccaaaassaassaaaaaaaaassaaaacccca" />
    <path
       style="fill:#c3cbd0;fill-opacity:1;stroke:none;stroke-width:0.26458332px;stroke-linecap:butt;stroke-linejoin:miter;stroke-opacity:1"
       d="m 111.99536,211.24047 c 0.58763,-0.12815 1.66955,-0.33 2.55389,0.69585 2.11373,2.45196 2.31458,6.74485 4.44168,8.76691 0.39106,0.37175 0.98726,-0.81695 1.36807,-0.51328 2.59167,2.06667 3.81941,3.80232 5.15402,6.3858 2.24646,4.34861 4.7802,7.28267 8.13119,12.22688 0.62562,0.3416 1.19572,0.005 1.6893,0.29326 2.99795,1.75006 4.56183,5.61018 6.59604,8.0589 0.42315,0.50938 1.2863,0.35709 1.8709,0.66818 0.69605,0.3704 1.35462,0.83787 1.90428,1.40316 1.02078,1.04981 1.25741,2.84264 2.50566,3.60813 0.97739,0.59939 2.26999,0.60996 3.40768,0.46773 1.32354,-0.16547 2.70418,-0.62548 3.70837,-1.50339 1.28429,-1.12278 1.68499,-2.96668 2.53907,-4.44336 0.26488,-0.45797 0.73412,-0.84504 0.8018,-1.36975 0.037,-0.28674 -0.27684,-0.54931 -0.23387,-0.83521 0.0826,-0.54986 0.74536,-0.86966 0.90205,-1.40316 0.12867,-0.43809 -0.10559,-0.92556 0,-1.36978 0.37201,-1.56503 1.72452,-2.76445 2.17156,-4.30972 0.0964,-0.33317 -0.13314,-0.77908 0.10023,-1.03566 0.23659,-0.26013 0.79524,0.0562 1.03566,-0.20044 1.08986,-1.16321 0.18843,-3.20446 0.60137,-4.74405 0.2754,-1.02679 0.6167,-2.07596 1.2361,-2.93996 0.30337,-0.42317 0.91804,-0.57965 1.16933,-1.03567 0.46831,-0.84983 -0.0804,-2.07243 0.4677,-2.87315 0.49624,-0.725 1.86081,-0.55984 2.2718,-1.33635 0.31846,-0.60169 -0.43923,-1.4296 -0.13365,-2.03793 0.20244,-0.403 0.83641,-0.39781 1.13591,-0.73499 0.43659,-0.49151 0.46828,-1.24921 0.86863,-1.77066 0.42297,-0.55092 1.21608,-0.77225 1.5702,-1.36975 0.29068,-0.49046 0.0445,-1.20064 0.3675,-1.67044 0.33247,-0.48358 1.10239,-0.51139 1.46998,-0.96885 0.35107,-0.4369 0.30379,-1.09526 0.60137,-1.57021 0.52705,-0.84121 1.72894,-1.22819 2.03792,-2.17156 0.11522,-0.3518 -0.36271,-0.81169 -0.13364,-1.10249 0.29831,-0.37871 1.05122,0.12261 1.43658,-0.16705 0.78199,-0.5878 0.5934,-1.89202 1.13589,-2.7061 0.60699,-0.91087 1.33492,-1.832 2.30521,-2.33861 0.35055,-0.18303 0.92821,0.11315 1.1693,-0.20045 0.64928,-0.84456 2.2572,-3.15525 4.17607,-4.71063 1.78696,-1.44846 3.05484,-2.66309 5.14496,-4.61039 0.27751,-0.25855 -0.21312,-0.78597 -0.0668,-1.1359 0.58619,-1.40192 2.93717,-1.56746 3.42726,-3.00579 0.43936,-1.28944 1.2033,-3.40745 -0.78796,-4.01003 -3.19894,-0.96804 -12.67779,0.0239 -19.00954,-0.23387 -3.54685,-0.14439 -7.22335,-0.49467 -10.62398,-0.73499 -18.7528,-1.32522 -53.28684,18.47501 -53.28684,18.47501 0,0 0.65982,2.772 0.80175,6.11381 z"
       id="path853"
       inkscape:connector-curvature="0"
       sodipodi:nodetypes="csssscasaaaaaaaaaaaaaaaaaaaaaaaaaaaaaasssaasascc" />
    <path
       style="fill:#c3cbd0;fill-opacity:1;stroke:none;stroke-width:0.26458332px;stroke-linecap:butt;stroke-linejoin:miter;stroke-opacity:1"
       d="m -28.387947,213.67931 c 1.147276,0.10416 2.175643,0.7876 3.307461,1.00226 1.086708,0.2061 2.214788,0.0956 3.307461,0.26727 0.960641,0.15095 2.133843,0.64871 2.839737,0.66817 7.224122,0.19915 17.725912,5.0082 28.2303456,7.04923 1.6526904,0.32112 3.2735844,1.16096 4.4767634,2.33861 0.726624,0.71121 0.882217,1.84304 1.469982,2.6727 0.65651,0.92669 1.712026,1.55092 2.271792,2.53906 0.333338,0.58843 0.447503,1.27914 0.601356,1.9377 0.35403,1.5154 0.775097,3.0547 0.734991,4.61039 -0.02758,1.06988 -0.492876,2.08464 -0.668173,3.14042 -0.183712,1.10647 0.1724,2.37685 -0.400905,3.34087 -0.432759,0.72769 -1.845026,0.65416 -2.071338,1.47 -0.103973,0.37482 0.486787,0.68057 0.46772,1.06907 -0.03128,0.6374 -0.710159,1.07334 -0.935443,1.67042 -0.168862,0.44754 -0.02909,1.00941 -0.300677,1.40317 -0.256054,0.37124 -0.91123,0.34394 -1.135896,0.73498 -0.238814,0.41566 -0.05568,0.95734 -0.06682,1.43659 -0.01139,0.48986 0.325184,1.10345 0,1.46999 -0.186088,0.20975 -0.626899,-0.0875 -0.835216,0.10023 -0.55996,0.50453 -0.08799,1.57455 -0.501131,2.20496 -0.257604,0.39308 -0.909891,0.42315 -1.135896,0.83521 -0.161017,0.29357 0.07875,0.70073 -0.06682,1.00226 -0.287904,0.59635 -1.192942,0.73489 -1.4699825,1.33636 -0.1538153,0.33394 0.093943,0.75759 -0.033409,1.10249 -0.2524154,0.68361 -0.8612832,1.18184 -1.3697559,1.70384 -0.8049046,0.82633 -1.9698287,1.29896 -2.6392848,2.23838 -0.2496354,0.3503 -0.2297129,0.84441 -0.4677225,1.20271 -0.2658189,0.40017 -0.7391008,0.62433 -1.0356691,1.00227 -0.6131158,0.78135 -0.8203881,1.85141 -1.5033916,2.57247 -0.8623621,0.91041 -2.14975405,1.30251 -3.14041626,2.07134 -0.64150464,0.49786 -1.09375384,1.24353 -1.80406934,1.63703 -0.3947328,0.21868 -1.0051838,0.0284 -1.3029406,0.36748 -0.3044802,0.34673 0.1562789,1.07704 -0.200451,1.36975 -0.3361946,0.27586 -0.9118144,-0.25692 -1.302938,-0.0668 -0.208413,0.10131 -0.3233863,0.34957 -0.4009046,0.56795 -0.3647396,1.02752 0.7074811,4.04705 -0.2207196,3.26356 -1.7338383,-1.46352 -0.3380411,-1.17526 -4.0555941,-5.53535 -3.7175531,-4.36009 -6.8303251,-13.83301 -10.2898771,-19.51066 -0.326257,-0.53544 -1.209032,-0.52316 -1.570207,-1.03569 -3.734124,-10.90531 -7.726918,-29.15032 -9.721928,-36.9166 0.564055,-0.80909 1.957711,-0.42327 2.939967,-0.33409 z"
       id="path859"
       inkscape:connector-curvature="0"
       sodipodi:nodetypes="aaassaaaaaaaaaaaaaaaaaaaaaaaaaaaaaaaszscca" />
    <path
       style="fill:#c3cbd0;fill-opacity:1;stroke:none;stroke-width:0.26458332px;stroke-linecap:butt;stroke-linejoin:miter;stroke-opacity:1"
       d="m -14.079623,79.474701 c 0.541665,2.274302 1.26405,4.352824 2.863744,5.480929 l 3.9398258,-18.42661 c 0.7619624,2.768127 0.5683819,6.231194 4.0782583,7.000838 L 11.433769,40.259676 c 0,0 0.06227,2.72305 1.070523,3.269176 3.585003,1.941831 8.35148,-1.012126 11.815501,-3.162361 2.214059,-1.374341 5.162337,-5.870953 5.162337,-5.870953 0,0 -4.51032,11.717504 -0.40713,14.612565 6.220896,4.389238 14.959214,-7.903486 14.959214,-7.903486 0,0 -4.100835,10.818684 -1.462101,15.153172 2.321415,3.813247 10.361974,-0.01707 10.638504,-1.445805 0,0 -5.287401,7.331767 0.519999,12.437265 4.84955,4.263415 11.109483,0.01974 11.109483,0.01974 0,0 -6.148145,7.391998 -2.222772,12.77579 2.594952,3.559071 10.899029,1.03082 10.899029,1.03082 0,0 -5.528538,5.045532 -3.549118,8.390432 2.361236,3.990107 10.490321,1.804066 10.490321,1.804066 -1.674732,0.891827 -3.619484,1.504323 -3.541313,4.209497 l -91.406177,-2.53906 z"
       id="path848"
       inkscape:connector-curvature="0"
       sodipodi:nodetypes="cccccaacscscscscscccc" />
    <path
       style="fill:#c3cbd0;fill-opacity:1;stroke:none;stroke-width:0.26458332px;stroke-linecap:butt;stroke-linejoin:miter;stroke-opacity:1"
       d="m 90.525299,94.026787 25.607881,-27.119791 0.56695,0.188989 c 0,0 6.71323,-6.818421 10.48885,-9.732888 0.97529,-0.752839 2.14162,-1.233344 3.1183,-1.984375 1.28997,-0.991942 2.17473,-2.505543 3.59077,-3.307292 0.9714,-0.549997 2.20454,-0.465869 3.21281,-0.944938 1.20736,-0.573665 1.98874,-2.048213 3.30729,-2.267857 0.58044,-0.09669 1.11276,0.453805 1.7009,0.472469 0.61127,0.0194 1.20916,-0.552244 1.79538,-0.377976 0.64047,0.190394 0.87535,1.026723 1.4174,1.41741 0.4571,0.329459 1.20495,0.283447 1.51191,0.755954 0.21577,0.332146 -0.12093,1.724899 0.0891,2.072654 0.19484,0.322524 0.93685,-0.400981 1.12699,-0.06645 3.5113,6.177586 6.23883,14.285116 8.80022,20.01091 1.55298,3.471564 3.46281,6.632932 4.10812,9.760565 0.39544,1.916568 2.05432,3.28132 2.97895,4.980508 1.12442,2.066338 1.92055,4.306385 3.1183,6.3311 0.58727,0.992749 1.30133,1.90537 1.98438,2.83482 2.39048,3.252791 4.25642,4.775521 7.37052,9.638391 0.15287,0.23872 0.68733,-0.23185 0.85045,0 0.36955,0.52524 0.29828,2.0732 1.03944,3.1183 0.56602,0.79813 1.06304,1.64312 1.6064,2.45685 0.93149,1.39499 2.11544,2.64243 2.83482,4.15774 0.3804,0.80128 0.81568,1.66636 0.75594,2.55134 -0.0465,0.68924 -0.1704,1.76842 -0.85045,1.88988 -5.38518,0.9618 -13.27395,-1.19172 -19.93823,-1.41741 -2.45564,-0.0832 -4.95893,0.37588 -7.37053,-0.0945 C 132.57925,114.91015 90.525299,94.026787 90.525299,94.026787 Z"
       id="path869"
       inkscape:connector-curvature="0"
       sodipodi:nodetypes="cccaaaaaaaasssssaassssaaassac" />
    <path
       style="fill:#d5dbde;fill-opacity:1;stroke:none;stroke-width:0.565;stroke-linecap:butt;stroke-linejoin:round;stroke-miterlimit:4;stroke-dasharray:none;stroke-opacity:1"
       d="m 257.52363,118.69841 c -2.86945,-1.07248 -18.97372,9.87146 -30.33509,10.82441 -15.4567,1.29646 -31.10873,-1.11043 -46.37127,-3.87541 -7.42358,-1.34487 -14.6122,-3.80082 -21.78246,-6.1472 -23.10693,-7.56147 -47.36113,-18.94617 -68.327663,-25.520301 -0.970192,-0.304207 -5.976564,1.967488 -6.976369,1.822953 C 57.472119,92.006812 33.063562,90.794079 7.6266214,91.036011 -21.540355,91.31342 -48.472706,96.084333 -75.360565,103.86495 c -17.659253,5.11011 -34.149315,13.73851 -50.580755,21.98292 -7.73101,3.879 -14.73466,9.21422 -22.51746,12.89575 -6.69358,3.16629 -18.19814,7.91973 -21.38156,14.69983 -0.68913,1.46773 -3.72955,0.0206 -4.67722,1.33634 -1.77206,2.46025 -1.49392,6.72018 0.40091,9.08717 1.84215,2.30118 4.56903,4.67957 7.83876,7.09631 7.34334,5.42766 17.42479,11.04879 26.37174,16.4234 7.2918,4.38033 15.60599,7.86024 23.92062,10.42352 6.17955,1.90507 12.77707,2.03205 19.109769,3.34087 20.496657,4.23616 34.549779,12.60456 62.407434,13.49711 21.001256,0.67287 41.5355408,8.40731 62.541067,7.88445 25.192035,-0.62707 46.843041,-3.62383 77.37454,-10.95805 2.39594,-0.57555 3.24273,-4.13612 5.61266,-4.81085 16.82965,-4.7915 44.74531,-17.36904 55.72568,-19.77795 11.78771,-2.58602 39.15962,-2.42463 58.39839,-3.4745 11.65593,-0.63607 21.08051,6.85351 32.74052,13.49711 11.54632,6.57882 9.38732,-25.46509 9.35445,-38.75408 -0.0336,-13.58032 2.96552,-34.80134 -9.75535,-39.55589 z"
       id="path828"
       inkscape:connector-curvature="0"
       sodipodi:nodetypes="ssaasssaassassssssssssssas" />
    <path
       style="fill:#d5dbde;fill-opacity:1;stroke:none;stroke-width:0.26458332px;stroke-linecap:butt;stroke-linejoin:miter;stroke-opacity:1"
       d="m 69.031795,94.343472 c 3.808588,-1.311948 7.617176,-2.372711 11.425764,-2.973374 -2.694965,0.974604 -5.389929,1.73142 -8.084894,3.374276 z"
       id="path846"
       inkscape:connector-curvature="0"
       sodipodi:nodetypes="cccc" />
    <path
       style="fill:#d5dbde;fill-opacity:1;stroke:none;stroke-width:0.26458332px;stroke-linecap:butt;stroke-linejoin:miter;stroke-opacity:1"
       d="m -15.402537,92.306996 c -0.182134,-3.631432 0.08416,-8.934444 1.322917,-12.832292 -0.09787,3.839009 -0.0278,8.931296 1.181175,12.596059 z"
       id="path830"
       inkscape:connector-curvature="0"
       sodipodi:nodetypes="cccc" />
    <path
       style="fill:#d5dbde;fill-opacity:1;stroke:none;stroke-width:0.26458332px;stroke-linecap:butt;stroke-linejoin:miter;stroke-opacity:1"
       d="m -7.2760506,66.52902 c -2.0731459,8.117263 -4.2012004,17.822026 -5.0625554,25.939289 l 3.2776472,-0.12791 C -10.085029,84.276908 -8.2911946,74.592511 -7.2760506,66.52902 Z"
       id="path832"
       inkscape:connector-curvature="0"
       sodipodi:nodetypes="cccc" />
    <path
       style="fill:#d5dbde;fill-opacity:1;stroke:none;stroke-width:0.26458332px;stroke-linecap:butt;stroke-linejoin:miter;stroke-opacity:1"
       d="M -7.5909764,92.340399 C -5.3049735,75.19716 2.3672302,56.528643 11.433772,40.259676 4.9836925,56.965598 -3.0708386,75.075107 -3.6852775,92.141631 Z"
       id="path834"
       inkscape:connector-curvature="0"
       sodipodi:nodetypes="cccc" />
    <path
       style="fill:#d5dbde;fill-opacity:1;stroke:none;stroke-width:0.26458332px;stroke-linecap:butt;stroke-linejoin:miter;stroke-opacity:1"
       d="M 0.28347352,92.118009 C 5.4552128,72.27288 15.492782,52.397648 29.482133,34.495538 19.208038,52.757726 8.0461149,72.536272 5.1971639,91.834527 Z"
       id="path836"
       inkscape:connector-curvature="0"
       sodipodi:nodetypes="cccc" />
    <path
       style="fill:#d5dbde;fill-opacity:1;stroke:none;stroke-width:0.26458332px;stroke-linecap:butt;stroke-linejoin:miter;stroke-opacity:1"
       d="M 10.323466,91.050225 C 18.853375,74.568074 29.914568,53.333794 44.034216,41.204617 33.438741,56.207347 20.383564,73.913855 16.583695,91.073849 Z"
       id="path838"
       inkscape:connector-curvature="0"
       sodipodi:nodetypes="cccc" />
    <path
       style="fill:#d5dbde;fill-opacity:1;stroke:none;stroke-width:0.26458332px;stroke-linecap:butt;stroke-linejoin:miter;stroke-opacity:1"
       d="M 24.190467,90.813992 C 34.892882,73.503557 43.677734,65.372317 53.210619,54.911985 44.944657,66.327209 35.784316,76.148105 29.39812,90.914218 Z"
       id="path840"
       inkscape:connector-curvature="0"
       sodipodi:nodetypes="cccc" />
    <path
       style="fill:#d5dbde;fill-opacity:1;stroke:none;stroke-width:0.26458332px;stroke-linecap:butt;stroke-linejoin:miter;stroke-opacity:1"
       d="M 39.498504,91.097471 C 47.099431,82.889938 56.504912,71.11958 64.840102,67.368988 57.758595,73.928728 50.161962,83.240411 44.317699,91.569943 Z"
       id="path842"
       inkscape:connector-curvature="0"
       sodipodi:nodetypes="cccc" />
    <path
       style="fill:#d5dbde;fill-opacity:1;stroke:none;stroke-width:0.26458332px;stroke-linecap:butt;stroke-linejoin:miter;stroke-opacity:1"
       d="m 53.548471,92.409908 c 5.824948,-4.523847 12.726652,-8.038234 19.967887,-11.234311 -5.696746,4.131156 -11.93935,8.49885 -15.091369,11.527291 z"
       id="path844"
       inkscape:connector-curvature="0"
       sodipodi:nodetypes="cccc" />
    <path
       style="fill:#d5dbde;fill-opacity:1;stroke:none;stroke-width:0.26458332px;stroke-linecap:butt;stroke-linejoin:miter;stroke-opacity:1"
       d="m 93.60438,95.183438 c 0,0 14.43224,-17.270565 21.99913,-25.595806 3.7188,-4.091501 7.43234,-8.207425 11.4926,-11.960312 2.11517,-1.955046 6.68174,-5.479026 6.68174,-5.479026 l 3.40767,-1.202711 c 0,0 1.88542,-1.731729 3.03017,-2.256757 0.64905,-0.297679 1.3799,-0.536553 2.09058,-0.467259 0.66321,0.06466 1.31933,0.376554 1.82994,0.804684 0.22484,0.188521 0.48942,0.731652 0.48942,0.731652 0,0 -15.8304,12.188089 -23.40946,18.493379 -10.17809,8.467512 -26.952394,27.553822 -25.323786,27.662396 z"
       id="path871"
       inkscape:connector-curvature="0"
       sodipodi:nodetypes="caaccaaacscc" />
    <path
       style="fill:#d5dbde;fill-opacity:1;stroke:none;stroke-width:0.26458332px;stroke-linecap:butt;stroke-linejoin:miter;stroke-opacity:1"
       d="m 98.951739,97.185991 c 0,0 15.903641,-16.934713 23.934851,-25.326569 7.17595,-7.498192 21.66888,-22.358765 21.66888,-22.358765 l 2.31856,1.645377 0.26729,1.937705 h 0.80179 l 1.82289,3.299527 c 0,0 -14.73059,9.801229 -21.66765,15.275705 -4.49676,3.548679 -8.81619,7.337596 -12.89573,11.358954 -4.81739,4.74869 -13.63076,15.03391 -13.63076,15.03391 z"
       id="path873"
       inkscape:connector-curvature="0"
       sodipodi:nodetypes="cacccccaacc" />
    <path
       style="fill:#d5dbde;fill-opacity:1;stroke:none;stroke-width:0.26458332px;stroke-linecap:butt;stroke-linejoin:miter;stroke-opacity:1"
       d="m 104.67887,99.789089 c 0,0 10.48109,-10.928318 16.00276,-16.102991 5.41349,-5.07329 11.38606,-9.52961 16.77117,-14.633006 4.27457,-4.050949 12.3132,-12.669826 12.3132,-12.669826 l 1.0901,2.324595 1.49698,2.995321 0.20045,0.868624 0.73498,1.804069 c 0,0 -6.49445,3.404128 -9.55489,5.412208 -7.48597,4.911858 -14.75056,10.227962 -21.44837,16.169807 -5.61487,4.981135 -15.60187,16.23662 -15.60187,16.23662 z"
       id="path875"
       inkscape:connector-curvature="0"
       sodipodi:nodetypes="caacccccaacc" />
    <path
       style="fill:#d5dbde;fill-opacity:1;stroke:none;stroke-width:0.26458332px;stroke-linecap:butt;stroke-linejoin:miter;stroke-opacity:1"
       d="m 111.29378,102.39497 c 0,0 14.81098,-13.525295 22.48407,-19.978401 3.94257,-3.31572 8.3611,-6.071525 12.09394,-9.621702 2.71004,-2.57743 7.41672,-8.418994 7.41672,-8.418994 l 1.93771,4.610401 1.46163,3.783535 c 0,0 -8.79482,4.235292 -12.95423,6.773613 -7.68793,4.691637 -15.23724,9.716157 -22.08315,15.56845 -3.16071,2.701967 -8.68625,8.953528 -8.68625,8.953528 z"
       id="path877"
       inkscape:connector-curvature="0"
       sodipodi:nodetypes="caacccaacc" />
    <path
       style="fill:#d5dbde;fill-opacity:1;stroke:none;stroke-width:0.26458332px;stroke-linecap:butt;stroke-linejoin:miter;stroke-opacity:1"
       d="m 117.14031,104.63335 c 0,0 18.17421,-12.65377 26.66014,-19.744538 4.52505,-3.781096 12.8874,-12.119003 12.8874,-12.119003 l 3.66661,8.076549 c 0,0 -10.60813,4.163337 -15.61858,6.848783 -4.10581,2.200587 -7.96192,4.852964 -11.75985,7.550365 -5.05101,3.587378 -14.63301,11.459184 -14.63301,11.459184 z"
       id="path879"
       inkscape:connector-curvature="0"
       sodipodi:nodetypes="caccaacc" />
    <path
       style="fill:#d5dbde;fill-opacity:1;stroke:none;stroke-width:0.26458332px;stroke-linecap:butt;stroke-linejoin:miter;stroke-opacity:1"
       d="m 123.48796,106.60446 c 0,0 18.18518,-11.646634 26.92742,-17.973876 3.40901,-2.467286 9.93908,-7.784226 9.93908,-7.784226 0,0 0.49988,1.844634 0.72662,2.689403 0.26295,0.979643 2.91491,4.493468 2.91491,4.493468 0,0 -9.3186,2.872647 -13.71426,4.944485 -8.73471,4.116996 -24.92288,14.766636 -24.92288,14.766636 z"
       id="path881"
       inkscape:connector-curvature="0"
       sodipodi:nodetypes="cacscacc" />
    <path
       style="fill:#d5dbde;fill-opacity:1;stroke:none;stroke-width:0.26458332px;stroke-linecap:butt;stroke-linejoin:miter;stroke-opacity:1"
       d="m 163.99599,88.029226 c 0,0 -8.2105,5.278559 -12.37792,7.817635 -7.69853,4.690479 -23.31927,13.697559 -23.31927,13.697559 l 3.07361,1.33635 c 0,0 12.81984,-7.89284 19.64431,-11.024865 5.14851,-2.362858 15.96935,-5.813113 15.96935,-5.813113 z"
       id="path883"
       inkscape:connector-curvature="0"
       sodipodi:nodetypes="caccacc" />
    <path
       style="fill:#d5dbde;fill-opacity:1;stroke:none;stroke-width:0.26458332px;stroke-linecap:butt;stroke-linejoin:miter;stroke-opacity:1"
       d="m 166.98607,94.042789 c 0,0 -8.21008,4.945441 -12.42803,7.216281 -6.69174,3.60267 -20.41271,10.15624 -20.41271,10.15624 l 4.74403,0.86863 c 0,0 9.08337,-4.82193 13.86462,-6.68174 6.05291,-2.35446 18.65455,-5.624822 18.65455,-5.624822 z"
       id="path885"
       inkscape:connector-curvature="0"
       sodipodi:nodetypes="caccacc" />
    <path
       style="fill:#d5dbde;fill-opacity:1;stroke:none;stroke-width:0.26458332px;stroke-linecap:butt;stroke-linejoin:miter;stroke-opacity:1"
       d="m 171.40853,99.977378 -31.38328,14.110632 5.21176,1.67043 c 0,0 14.55043,-6.53983 22.21679,-8.61944 2.73577,-0.74212 8.39572,-1.35221 8.39572,-1.35221 0,0 -1.14969,-1.7537 -1.78079,-2.59002 -0.83853,-1.1112 -2.6602,-3.219392 -2.6602,-3.219392 z"
       id="path887"
       inkscape:connector-curvature="0"
       sodipodi:nodetypes="cccacac" />
    <path
       style="fill:#d5dbde;fill-opacity:1;stroke:none;stroke-width:0.26458332px;stroke-linecap:butt;stroke-linejoin:miter;stroke-opacity:1"
       d="m 148.51107,116.59366 c 0,0 13.05262,-3.47251 19.20999,-6.18061 2.85377,-1.25513 8.12846,-4.62626 8.12846,-4.62626 0,0 0.23712,1.40805 1.15035,0.86758 0.72735,-0.43046 0.55844,1.63857 0.93175,2.41724 0.13496,0.28152 0.30913,0.54259 0.47039,0.80991 0.48153,0.79823 1.48421,2.37035 1.48421,2.37035 0,0 -10.00472,0.91864 -14.90466,1.96977 -4.74012,1.01685 -13.93142,4.17609 -13.93142,4.17609 z"
       id="path889"
       inkscape:connector-curvature="0"
       sodipodi:nodetypes="cacsaacacc" />
    <path
       style="fill:#d5dbde;fill-opacity:1;stroke:none;stroke-width:0.26458332px;stroke-linecap:butt;stroke-linejoin:miter;stroke-opacity:1"
       d="m 153.12147,118.16387 13.33006,-1.87089 9.68852,-3.20723 3.91153,-0.59765 c 0,0 1.28333,2.17986 1.76796,3.00307 0,0 1.52181,1.78223 1.69,2.88357 0.1192,0.78052 0.22176,2.07657 -0.53315,2.30792 -2.69172,0.82489 -6.51749,0.26764 -9.90993,-0.11337 -3.80571,-0.42742 -7.5975,-1.10064 -11.42577,-1.20271 -1.7278,-0.0461 -5.17835,0.26725 -5.17835,0.26725 z"
       id="path891"
       inkscape:connector-curvature="0"
       sodipodi:nodetypes="cccccassacc" />
    <path
       style="fill:#d5dbde;fill-opacity:1;stroke:none;stroke-width:0.26458332px;stroke-linecap:butt;stroke-linejoin:miter;stroke-opacity:1"
       d="m 116.70013,67.095982 -24.993678,27.49777 -1.181153,-0.566967 c 0,0 16.195351,-18.609472 25.607881,-27.119789 0.14776,-0.1336 0.56695,0.188986 0.56695,0.188986 z"
       id="path946"
       inkscape:connector-curvature="0"
       sodipodi:nodetypes="cccsc" />
    <path
       style="fill:#d5dbde;fill-opacity:1;stroke:none;stroke-width:0.26458332px;stroke-linecap:butt;stroke-linejoin:miter;stroke-opacity:1"
       d="m 110.88874,206.47469 c 0.60763,2.04136 0.76553,3.82573 0.94496,5.6224 0.77357,-1.9653 1.54675,-3.93083 1.88987,-6.14211 z"
       id="path847"
       inkscape:connector-curvature="0"
       sodipodi:nodetypes="cccc" />
    <path
       style="fill:#d5dbde;fill-opacity:1;stroke:none;stroke-width:0.26458332px;stroke-linecap:butt;stroke-linejoin:miter;stroke-opacity:1"
       d="m 113.72357,205.95498 c 0.73281,7.32934 3.85229,13.15909 6.14212,19.08779 -0.92696,-6.69109 -2.65873,-13.36017 -3.47267,-19.93824 z"
       id="path849"
       inkscape:connector-curvature="0"
       sodipodi:nodetypes="cccc" />
    <path
       style="fill:#d5dbde;fill-opacity:1;stroke:none;stroke-width:0.26458332px;stroke-linecap:butt;stroke-linejoin:miter;stroke-opacity:1"
       d="m 116.84187,204.91554 c 3.84102,13.11445 10.98696,26.04797 17.11964,35.06875 -3.73026,-11.71327 -9.55471,-24.02488 -14.33207,-36.03732 z"
       id="path851"
       inkscape:connector-curvature="0"
       sodipodi:nodetypes="cccc" />
    <path
       style="fill:#d5dbde;fill-opacity:1;stroke:none;stroke-width:0.26458332px;stroke-linecap:butt;stroke-linejoin:miter;stroke-opacity:1"
       d="m -33.120172,214.34133 c 0,0 -0.06768,-0.86716 1.925896,-0.79566 2.400932,0.0861 3.073599,1.70384 3.073599,1.70384 0.923765,13.39848 4.572985,24.34406 7.082642,36.31524 0.02007,0.45392 -0.671628,0.52094 -0.782238,0.20215 -6.166073,-11.50257 -7.682926,-24.88972 -11.299899,-37.42557 z"
       id="path857"
       inkscape:connector-curvature="0"
       sodipodi:nodetypes="cscccc" />
    <g
       id="g931"
       transform="translate(-16.370259,-16.169806)">
      <circle
         r="9.4880686"
         cy="163.57689"
         cx="-103.16318"
         id="path861"
         style="opacity:1;vector-effect:none;fill:#947645;fill-opacity:1;fill-rule:evenodd;stroke:none;stroke-width:0.71700001;stroke-linecap:round;stroke-linejoin:round;stroke-miterlimit:4;stroke-dasharray:none;stroke-dashoffset:0;stroke-opacity:1;paint-order:markers stroke fill" />
      <circle
         r="5.5458431"
         cy="164.57915"
         cx="-103.83135"
         id="path861-3-6"
         style="opacity:1;vector-effect:none;fill:#fac667;fill-opacity:1;fill-rule:evenodd;stroke:none;stroke-width:0.41909155;stroke-linecap:round;stroke-linejoin:round;stroke-miterlimit:4;stroke-dasharray:none;stroke-dashoffset:0;stroke-opacity:1;paint-order:markers stroke fill" />
      <circle
         r="4.5769911"
         cy="164.54575"
         cx="-103.83135"
         id="path861-3"
         style="opacity:1;vector-effect:none;fill:#262626;fill-opacity:1;fill-rule:evenodd;stroke:none;stroke-width:0.34587678;stroke-linecap:round;stroke-linejoin:round;stroke-miterlimit:4;stroke-dasharray:none;stroke-dashoffset:0;stroke-opacity:1;paint-order:markers stroke fill" />
    </g>
    <path
       style="opacity:1;fill:#c3cbd0;fill-opacity:1;stroke:none;stroke-width:0.26458332px;stroke-linecap:butt;stroke-linejoin:miter;stroke-opacity:1"
       d="m -172.31259,154.71296 c -1.05732,2.20435 0.37859,5.31849 2.13816,7.01583 6.76357,6.52439 19.54678,8.54953 29.73373,15.50163 1.87791,1.28158 -2.27175,-4.00106 -3.8754,-5.61266 -3.48653,-3.50381 -7.89217,-5.99348 -12.16077,-8.4858 -3.77662,-2.20506 -8.63194,-2.69303 -11.82667,-5.67948 -0.9909,-0.92629 -0.72467,-3.09203 -2.00452,-3.54132 -0.67902,-0.23837 -1.6933,0.15293 -2.00453,0.8018 z"
       id="path878"
       inkscape:connector-curvature="0"
       sodipodi:nodetypes="assaaaaa" />
    <path
       style="opacity:1;fill:#c3cbd0;fill-opacity:1;stroke:none;stroke-width:0.26458332px;stroke-linecap:butt;stroke-linejoin:miter;stroke-opacity:1"
       d="m -130.75217,183.64489 c 3.95162,-1.5324 8.31587,-8.18165 9.18738,-12.49485 0.30273,-1.49821 -1.58728,-2.31972 -2.83974,-2.60587 -5.57148,-1.27295 -9.3792,-3.17905 -14.09846,-4.67722 -2.70636,-0.85915 -5.46238,-1.56124 -8.15172,-2.47225 -2.34306,-0.79371 -4.67859,-1.62347 -6.94901,-2.60587 -3.75887,-1.62645 -7.75658,-2.95876 -11.02081,-5.43248 -0.85171,-0.64545 -1.83436,-1.36182 -2.14221,-2.38516 -0.18273,-0.60744 0.86406,-2.25033 0.27941,-1.88235 -1.28783,0.81056 -3.16808,3.03709 -3.34827,4.94044 -0.12784,1.35038 0.66004,2.52742 1.53205,3.4232 3.05049,3.13364 8.05005,3.47442 11.82667,5.67948 4.2686,2.49232 8.67424,4.98199 12.16077,8.4858 1.60365,1.6116 2.25218,4.02077 3.8754,5.61266 2.76531,2.71192 6.07739,7.81484 9.68854,6.41447 z"
       id="path880"
       inkscape:connector-curvature="0"
       sodipodi:nodetypes="sssaaaaassaaaas" />
    <path
       style="color:#000000;font-style:normal;font-variant:normal;font-weight:normal;font-stretch:normal;font-size:medium;line-height:normal;font-family:sans-serif;font-variant-ligatures:normal;font-variant-position:normal;font-variant-caps:normal;font-variant-numeric:normal;font-variant-alternates:normal;font-feature-settings:normal;text-indent:0;text-align:start;text-decoration:none;text-decoration-line:none;text-decoration-style:solid;text-decoration-color:#000000;letter-spacing:normal;word-spacing:normal;text-transform:none;writing-mode:lr-tb;direction:ltr;text-orientation:mixed;dominant-baseline:auto;baseline-shift:baseline;text-anchor:start;white-space:normal;shape-padding:0;clip-rule:nonzero;display:inline;overflow:visible;visibility:visible;opacity:1;isolation:auto;mix-blend-mode:normal;color-interpolation:sRGB;color-interpolation-filters:linearRGB;solid-color:#000000;solid-opacity:1;vector-effect:none;fill:#3b3b3b;fill-opacity:1;fill-rule:nonzero;stroke:none;stroke-width:2.7786541;stroke-linecap:round;stroke-linejoin:round;stroke-miterlimit:4;stroke-dasharray:none;stroke-dashoffset:0;stroke-opacity:1;color-rendering:auto;image-rendering:auto;shape-rendering:auto;text-rendering:auto;enable-background:accumulate"
       d="m -10.962891,98.507812 c -13.162183,0.322662 -33.013765,3.693668 -33.013765,3.693668 -1.843752,0.1875 9.943451,0.42743 11.787203,0.23993 0,0 33.1299303,-3.350286 71.337891,0.80078 33.010845,3.58643 98.818362,14.15429 98.818362,14.15429 1.8784,0.36504 -4.5397,-1.83788 -6.43777,-2.08072 0,0 -58.882804,-11.23038 -92.081764,-14.83724 C 20.177745,98.384999 2.1992931,98.185151 -10.962891,98.507812 Z"
       id="path884"
       inkscape:connector-curvature="0"
       sodipodi:nodetypes="sccsccss" />
    <path
       style="color:#000000;font-style:normal;font-variant:normal;font-weight:normal;font-stretch:normal;font-size:medium;line-height:normal;font-family:sans-serif;font-variant-ligatures:normal;font-variant-position:normal;font-variant-caps:normal;font-variant-numeric:normal;font-variant-alternates:normal;font-feature-settings:normal;text-indent:0;text-align:start;text-decoration:none;text-decoration-line:none;text-decoration-style:solid;text-decoration-color:#000000;letter-spacing:normal;word-spacing:normal;text-transform:none;writing-mode:lr-tb;direction:ltr;text-orientation:mixed;dominant-baseline:auto;baseline-shift:baseline;text-anchor:start;white-space:normal;shape-padding:0;clip-rule:nonzero;display:inline;overflow:visible;visibility:visible;opacity:1;isolation:auto;mix-blend-mode:normal;color-interpolation:sRGB;color-interpolation-filters:linearRGB;solid-color:#000000;solid-opacity:1;vector-effect:none;fill:#3b3b3b;fill-opacity:1;fill-rule:nonzero;stroke:none;stroke-width:2.7786541;stroke-linecap:round;stroke-linejoin:round;stroke-miterlimit:4;stroke-dasharray:none;stroke-dashoffset:0;stroke-opacity:1;color-rendering:auto;image-rendering:auto;shape-rendering:auto;text-rendering:auto;enable-background:accumulate"
       d="m -7.6757812,107.98438 c -18.9322178,-0.17854 -44.4465258,3.03689 -51.3451828,4.03309 -1.873439,0.23403 6.551795,0.0912 10.826679,-0.1031 13.594612,-0.61777 21.625563,-1.32861 40.49116,-1.1507 18.865597,0.17791 40.173166,1.05921 56.466797,2.90039 47.809654,5.40249 94.849278,17.69529 143.007808,22.45313 17.37257,1.71632 51.97071,2.14453 51.97071,2.14453 1.90985,0.0842 -5.13103,-0.96103 -7.0424,-0.92526 0,0 -27.59876,-2.29984 -44.65482,-3.9849 C 144.177,128.62244 97.150249,116.33667 49.076172,110.9043 32.612811,109.04394 11.256436,108.16291 -7.6757812,107.98438 Z"
       id="path886"
       inkscape:connector-curvature="0"
       sodipodi:nodetypes="scssssccsss" />
    <path
       style="color:#000000;font-style:normal;font-variant:normal;font-weight:normal;font-stretch:normal;font-size:medium;line-height:normal;font-family:sans-serif;font-variant-ligatures:normal;font-variant-position:normal;font-variant-caps:normal;font-variant-numeric:normal;font-variant-alternates:normal;font-feature-settings:normal;text-indent:0;text-align:start;text-decoration:none;text-decoration-line:none;text-decoration-style:solid;text-decoration-color:#000000;letter-spacing:normal;word-spacing:normal;text-transform:none;writing-mode:lr-tb;direction:ltr;text-orientation:mixed;dominant-baseline:auto;baseline-shift:baseline;text-anchor:start;white-space:normal;shape-padding:0;clip-rule:nonzero;display:inline;overflow:visible;visibility:visible;opacity:1;isolation:auto;mix-blend-mode:normal;color-interpolation:sRGB;color-interpolation-filters:linearRGB;solid-color:#000000;solid-opacity:1;vector-effect:none;fill:#3b3b3b;fill-opacity:1;fill-rule:nonzero;stroke:none;stroke-width:2.7786541;stroke-linecap:round;stroke-linejoin:round;stroke-miterlimit:4;stroke-dasharray:none;stroke-dashoffset:0;stroke-opacity:1;color-rendering:auto;image-rendering:auto;shape-rendering:auto;text-rendering:auto;enable-background:accumulate"
       d="m -31.044102,119.75719 c -9.910522,0.23809 -23.750858,2.3306 -27.462268,3.20159 -1.840267,0.4001 9.517312,-0.54566 14.281461,-0.66519 3.650668,-0.0916 10.955378,-0.0397 10.955378,-0.0397 9.84589,-0.0509 22.18875,-0.17441 35.5332029,0.22265 26.6889051,0.79413 57.3929271,2.93347 80.1054691,6.67969 32.466419,5.35504 64.770309,12.45836 97.628909,16.04687 22.85557,2.49608 68.5332,3.75 68.5332,3.75 1.85429,0.0536 -6.93115,-1.27049 -8.78544,-1.32408 0,0 -36.88847,-2.72421 -59.44506,-5.18763 -32.66024,-3.56684 -64.91513,-10.6563 -97.478484,-16.02733 -22.94109,-3.78392 -53.701097,-5.91819 -80.4746098,-6.71484 -13.3867562,-0.39832 -23.4812352,-0.18011 -33.3917582,0.058 z"
       id="path888"
       inkscape:connector-curvature="0"
       sodipodi:nodetypes="ccassssccsssc" />
    <path
       style="color:#000000;font-style:normal;font-variant:normal;font-weight:normal;font-stretch:normal;font-size:medium;line-height:normal;font-family:sans-serif;font-variant-ligatures:normal;font-variant-position:normal;font-variant-caps:normal;font-variant-numeric:normal;font-variant-alternates:normal;font-feature-settings:normal;text-indent:0;text-align:start;text-decoration:none;text-decoration-line:none;text-decoration-style:solid;text-decoration-color:#000000;letter-spacing:normal;word-spacing:normal;text-transform:none;writing-mode:lr-tb;direction:ltr;text-orientation:mixed;dominant-baseline:auto;baseline-shift:baseline;text-anchor:start;white-space:normal;shape-padding:0;clip-rule:nonzero;display:inline;overflow:visible;visibility:visible;opacity:1;isolation:auto;mix-blend-mode:normal;color-interpolation:sRGB;color-interpolation-filters:linearRGB;solid-color:#000000;solid-opacity:1;vector-effect:none;fill:#3b3b3b;fill-opacity:1;fill-rule:nonzero;stroke:none;stroke-width:2.7786541;stroke-linecap:round;stroke-linejoin:round;stroke-miterlimit:4;stroke-dasharray:none;stroke-dashoffset:0;stroke-opacity:1;color-rendering:auto;image-rendering:auto;shape-rendering:auto;text-rendering:auto;enable-background:accumulate"
       d="m -18.96224,142.49544 c -6.753667,0.25455 -22.079222,2.18693 -20.164679,2.11589 0,0 54.945523,-0.18718 82.03125,2.46484 29.501743,2.88858 58.078359,9.28434 87.787929,13.01151 16.82316,2.11054 34.10899,4.86761 50.96988,5.96701 23.37013,1.52383 70.06445,3.20898 70.06445,3.20898 1.91339,0.13684 -10.08485,-1.71369 -12.00313,-1.71706 0,0 -34.61681,-2.74656 -57.87968,-4.26341 -16.86391,-1.0996 -34.09543,-3.85694 -50.80582,-5.95333 -29.43716,-3.693 -58.037231,-10.0991 -87.862145,-13.01932 -27.365461,-2.57086 -41.4312375,-2.59556 -62.138055,-1.81511 z"
       id="path890"
       inkscape:connector-curvature="0"
       sodipodi:nodetypes="acsssccssca" />
    <path
       style="color:#000000;font-style:normal;font-variant:normal;font-weight:normal;font-stretch:normal;font-size:medium;line-height:normal;font-family:sans-serif;font-variant-ligatures:normal;font-variant-position:normal;font-variant-caps:normal;font-variant-numeric:normal;font-variant-alternates:normal;font-feature-settings:normal;text-indent:0;text-align:start;text-decoration:none;text-decoration-line:none;text-decoration-style:solid;text-decoration-color:#000000;letter-spacing:normal;word-spacing:normal;text-transform:none;writing-mode:lr-tb;direction:ltr;text-orientation:mixed;dominant-baseline:auto;baseline-shift:baseline;text-anchor:start;white-space:normal;shape-padding:0;clip-rule:nonzero;display:inline;overflow:visible;visibility:visible;opacity:1;isolation:auto;mix-blend-mode:normal;color-interpolation:sRGB;color-interpolation-filters:linearRGB;solid-color:#000000;solid-opacity:1;vector-effect:none;fill:#3b3b3b;fill-opacity:1;fill-rule:nonzero;stroke:none;stroke-width:2.7786541;stroke-linecap:round;stroke-linejoin:round;stroke-miterlimit:4;stroke-dasharray:none;stroke-dashoffset:0;stroke-opacity:1;color-rendering:auto;image-rendering:auto;shape-rendering:auto;text-rendering:auto;enable-background:accumulate"
       d="m -15.818475,154.17814 c -5.36471,0.0359 -17.840612,1.12165 -16.050653,1.18709 0,0 63.882795,3.36501 95.623047,6.41016 33.524772,3.21635 100.433591,12.55469 100.433591,12.55469 1.85384,0.28211 -6.87568,-2.28094 -8.7358,-2.5181 0,0 -57.748605,-9.57063 -91.432166,-12.80221 -37.25651,-3.06808 -53.177254,-5.00999 -79.838019,-4.83163 z"
       id="path892"
       inkscape:connector-curvature="0"
       sodipodi:nodetypes="acsccca" />
    <path
       style="color:#000000;font-style:normal;font-variant:normal;font-weight:normal;font-stretch:normal;font-size:medium;line-height:normal;font-family:sans-serif;font-variant-ligatures:normal;font-variant-position:normal;font-variant-caps:normal;font-variant-numeric:normal;font-variant-alternates:normal;font-feature-settings:normal;text-indent:0;text-align:start;text-decoration:none;text-decoration-line:none;text-decoration-style:solid;text-decoration-color:#000000;letter-spacing:normal;word-spacing:normal;text-transform:none;writing-mode:lr-tb;direction:ltr;text-orientation:mixed;dominant-baseline:auto;baseline-shift:baseline;text-anchor:start;white-space:normal;shape-padding:0;clip-rule:nonzero;display:inline;overflow:visible;visibility:visible;opacity:1;isolation:auto;mix-blend-mode:normal;color-interpolation:sRGB;color-interpolation-filters:linearRGB;solid-color:#000000;solid-opacity:1;vector-effect:none;fill:#3b3b3b;fill-opacity:1;fill-rule:nonzero;stroke:none;stroke-width:2.7786541;stroke-linecap:round;stroke-linejoin:round;stroke-miterlimit:4;stroke-dasharray:none;stroke-dashoffset:0;stroke-opacity:1;color-rendering:auto;image-rendering:auto;shape-rendering:auto;text-rendering:auto;enable-background:accumulate"
       d="m 9.1269531,165.75 c -1.8087389,1.2e-4 -1.8730725,2.69078 -0.066406,2.77734 26.6998649,1.97986 64.6948569,6.21024 90.2597649,9.35938 9.692778,1.19398 14.299128,2.00933 29.605468,2.46875 1.88119,0.0864 -2.77443,-0.79129 -4.18441,-1.09063 -8.28858,-1.75972 -15.34159,-2.93618 -25.081244,-4.13593 -25.596681,-3.15306 -63.597528,-7.38599 -90.3945308,-9.37305 -0.046088,-0.004 -0.092359,-0.006 -0.1386421,-0.006 z"
       id="path894"
       inkscape:connector-curvature="0"
       sodipodi:nodetypes="ccscascc" />
    <path
       style="color:#000000;font-style:normal;font-variant:normal;font-weight:normal;font-stretch:normal;font-size:medium;line-height:normal;font-family:sans-serif;font-variant-ligatures:normal;font-variant-position:normal;font-variant-caps:normal;font-variant-numeric:normal;font-variant-alternates:normal;font-feature-settings:normal;text-indent:0;text-align:start;text-decoration:none;text-decoration-line:none;text-decoration-style:solid;text-decoration-color:#000000;letter-spacing:normal;word-spacing:normal;text-transform:none;writing-mode:lr-tb;direction:ltr;text-orientation:mixed;dominant-baseline:auto;baseline-shift:baseline;text-anchor:start;white-space:normal;shape-padding:0;clip-rule:nonzero;display:inline;overflow:visible;visibility:visible;opacity:1;isolation:auto;mix-blend-mode:normal;color-interpolation:sRGB;color-interpolation-filters:linearRGB;solid-color:#000000;solid-opacity:1;vector-effect:none;fill:#3b3b3b;fill-opacity:1;fill-rule:nonzero;stroke:none;stroke-width:2.7786541;stroke-linecap:round;stroke-linejoin:round;stroke-miterlimit:4;stroke-dasharray:none;stroke-dashoffset:0;stroke-opacity:1;color-rendering:auto;image-rendering:auto;shape-rendering:auto;text-rendering:auto;enable-background:accumulate"
       d="m -2.9191411,130.9931 c -18.6860339,-0.11406 -22.0391269,-0.0324 -33.0207349,0.75486 -5.109689,0.36628 -17.110643,1.86822 -15.257389,1.84386 0,0 59.8631018,-0.77371 89.447266,1.69531 34.437674,2.87408 68.337719,11.43661 102.958979,15.30469 37.70714,4.21285 113.2793,8.51172 113.2793,8.51172 1.85072,0.10597 -9.10358,-1.4788 -10.9543,-1.58478 0,0 -64.5096,-5.49819 -102.0164,-9.68866 -34.3694,-3.83994 -68.29538,-12.41109 -103.03711,-15.31055 -22.610389,-1.6203 -20.771462,-1.29721 -41.3996111,-1.52645 z"
       id="path896"
       inkscape:connector-curvature="0"
       sodipodi:nodetypes="cacssccscc" />
    <path
       style="fill:none;stroke:#acb4ba;stroke-width:0.76729167;stroke-linecap:round;stroke-linejoin:round;stroke-miterlimit:4;stroke-dasharray:none;stroke-opacity:1"
       d="m -141.69383,176.09486 c 0,0 -3.03192,-5.069 -5.24442,-6.94532 -5.92598,-5.02553 -14.95638,-5.52894 -20.64695,-10.81956 -1.18106,-1.09806 -2.55134,-4.1105 -2.55134,-4.1105"
       id="path933"
       inkscape:connector-curvature="0"
       sodipodi:nodetypes="caac" />
    <path
       style="fill:#c3cbd0;fill-opacity:1;stroke:none;stroke-width:0.26458332px;stroke-linecap:butt;stroke-linejoin:miter;stroke-opacity:1"
       d="m -50.103597,172.88729 c 18.15266,-6.01452 22.460294,-8.31816 34.22278,-10.05028 8.4134493,-1.23895 17.0741368,-1.23308 25.5119614,-0.17278 2.3941466,0.30085 4.9983836,0.49323 7.0015776,1.83847 0.789902,0.53046 1.162716,1.507 1.715716,2.28129 0.912296,1.27735 2.069568,2.4366 2.64166,3.89833 0.240504,0.6145 0.405349,1.30635 0.296912,1.95727 -0.209304,1.25641 -2.001986,2.13628 -1.766894,3.38812 0.0874,0.46538 1.027173,0.46378 1.069078,0.93544 0.201935,2.27286 -3.521016,3.19221 -4.276312,5.34539 -0.07372,0.21017 0.100199,0.46926 0,0.66818 -0.673342,1.33672 -2.934797,1.33597 -3.608139,2.67269 -0.180357,0.35805 0.202186,0.85653 0,1.20272 -1.005917,1.72237 -3.6567395,1.69082 -5.2117547,2.93996 -1.3526041,1.08654 -1.8902875,3.16805 -3.4745057,3.87541 -0.4880933,0.21794 -1.2072806,-0.35868 -1.6036157,0 -0.3319274,0.30039 0.2663353,1.13527 -0.1336358,1.33635 -4.6674367,2.34649 -10.4110483,4.3374 -15.7689021,5.61265 -1.778822,0.42339 -3.655544,0.13172 -5.479026,0.26728 -0.892877,0.0664 -1.781404,0.18219 -2.672694,0.26727 -1.959154,0.18701 -3.912209,0.57098 -5.87993,0.53453 -1.317593,-0.0244 -2.703528,2.4e-4 -3.921265,-0.50351 -4.750402,-1.96514 -12.838914,-8.61334 -12.21403,-9.41649 0.624885,-0.80316 2.910865,-1.97365 5.177246,-3.71074 1.758252,-1.34763 2.558198,-4.39186 1.469983,-6.48129 -2.268874,-4.35637 -8.860037,-6.31695 -13.09621,-8.68626 z"
       id="path855"
       inkscape:connector-curvature="0"
       sodipodi:nodetypes="caaaaaaaaaaaaaaassaaaazssc" />
    <path
       style="fill:none;stroke:url(#linearGradient989);stroke-width:2.16958332;stroke-linecap:round;stroke-linejoin:round;stroke-miterlimit:4;stroke-dasharray:none;stroke-opacity:1"
       d="m -96.341224,201.28468 c 0,0 18.5426,-0.54242 26.192414,-5.07812 14.313693,-8.48682 18.264251,-20.93254 32.473249,-38.48681 -2.018207,-3.168 -7.215841,-3.43264 -9.293928,-6.54302 -4.665913,-6.98373 -6.56665,-16.43247 -13.423983,-20.98574 -5.424043,-3.60157 -12.479639,-7.50693 -18.708868,-5.61267"
       id="path979"
       inkscape:connector-curvature="0"
       sodipodi:nodetypes="cscssc" />
  </g>
</svg>
