<?xml version="1.0" encoding="UTF-8" standalone="no"?>
<!-- Created with Inkscape (http://www.inkscape.org/) -->

<svg
   xmlns:dc="http://purl.org/dc/elements/1.1/"
   xmlns:cc="http://creativecommons.org/ns#"
   xmlns:rdf="http://www.w3.org/1999/02/22-rdf-syntax-ns#"
   xmlns:svg="http://www.w3.org/2000/svg"
   xmlns="http://www.w3.org/2000/svg"
   xmlns:sodipodi="http://sodipodi.sourceforge.net/DTD/sodipodi-0.dtd"
   xmlns:inkscape="http://www.inkscape.org/namespaces/inkscape"
   width="213.4201mm"
   height="80.377609mm"
   viewBox="0 0 213.4201 80.377609"
   version="1.1"
   id="svg8"
   inkscape:version="0.92.3 (2405546, 2018-03-11)"
   sodipodi:docname="bluefin tuna.svg"
   inkscape:export-filename="C:\MEGAsync\Graphics\Species\bluefin tuna.png"
   inkscape:export-xdpi="200"
   inkscape:export-ydpi="200">
  <defs
     id="defs2" />
  <sodipodi:namedview
     id="base"
     pagecolor="#ffffff"
     bordercolor="#666666"
     borderopacity="1.0"
     inkscape:pageopacity="0.0"
     inkscape:pageshadow="2"
     inkscape:zoom="1.4"
     inkscape:cx="281.09144"
     inkscape:cy="214.86186"
     inkscape:document-units="mm"
     inkscape:current-layer="layer1"
     showgrid="false"
     inkscape:window-width="1920"
     inkscape:window-height="1013"
     inkscape:window-x="-9"
     inkscape:window-y="29"
     inkscape:window-maximized="1"
     fit-margin-top="0"
     fit-margin-left="0"
     fit-margin-right="0"
     fit-margin-bottom="0" />
  <metadata
     id="metadata5">
    <rdf:RDF>
      <cc:Work
         rdf:about="">
        <dc:format>image/svg+xml</dc:format>
        <dc:type
           rdf:resource="http://purl.org/dc/dcmitype/StillImage" />
        <dc:title></dc:title>
      </cc:Work>
    </rdf:RDF>
  </metadata>
  <g
     inkscape:label="Layer 1"
     inkscape:groupmode="layer"
     id="layer1"
     transform="translate(-0.59595994,-109.76004)">
    <path
       style="fill:#a7c0c7;fill-opacity:1;stroke:none;stroke-width:0.26458332px;stroke-linecap:butt;stroke-linejoin:miter;stroke-opacity:1"
       d="m 97.152472,127.61794 c 0,0 4.254038,0.72939 6.280838,0.20045 4.52935,-1.18203 8.13015,-4.65628 12.02713,-7.24969 2.79277,-1.85856 5.24221,-3.25387 8.1183,-4.30972 2.2474,-0.82504 4.63349,-1.30024 7.01584,-1.5368 1.25243,-0.12436 3.77517,0.0668 3.77517,0.0668 0,0 -14.07908,5.6531 -15.96935,11.86009 -1.32074,4.33686 4.65733,4.78967 4.87767,4.37653 l -2.73951,2.53906 z"
       id="path832"
       inkscape:connector-curvature="0"
       sodipodi:nodetypes="casaacsccc" />
    <path
       style="fill:#a7c0c7;fill-opacity:1;stroke:none;stroke-width:0.26458332px;stroke-linecap:butt;stroke-linejoin:miter;stroke-opacity:1"
       d="m 112.28661,174.62396 c 0,0 3.98274,-0.59348 5.87993,-0.10022 5.04666,1.3121 8.82569,5.6027 13.53052,7.85104 2.66844,1.27519 5.36304,2.71908 8.28535,3.17382 1.92881,0.30014 5.84652,-0.33408 5.84652,-0.33408 0,0 -9.17212,-4.13276 -13.0628,-8.55263 -1.82767,-2.07626 -1.88587,-5.37807 4.40995,-5.94674 l -4.07586,-2.47225 z"
       id="path834"
       inkscape:connector-curvature="0"
       sodipodi:nodetypes="caaacsccc" />
    <path
       style="fill:#829ea6;fill-opacity:1;stroke:none;stroke-width:0.26458332px;stroke-linecap:butt;stroke-linejoin:miter;stroke-opacity:1"
       d="m 66.316251,185.04747 c 2.513596,0.57576 4.990405,1.43493 7.416728,0.70159 -2.71888,-0.91037 -4.865218,-1.95331 -5.646067,-4.9779 L 57.19568,178.80005 Z"
       id="path838"
       inkscape:connector-curvature="0"
       sodipodi:nodetypes="ccccc" />
    <path
       style="fill:#a7c0c7;fill-opacity:1;stroke:none;stroke-width:0.26458332px;stroke-linecap:butt;stroke-linejoin:miter;stroke-opacity:1"
       d="m 50.447122,177.79779 c 0,0 5.131497,7.05824 8.619442,9.55488 1.537433,1.10048 3.378011,1.77781 5.211757,2.23839 1.875541,0.47108 3.850621,0.63606 5.779704,0.50113 1.288127,-0.0901 3.775181,-0.86863 3.775181,-0.86863 -4.596612,-1.28964 -7.319113,-3.79964 -8.084902,-7.58377 -2.254173,0.0417 -5.005337,-1.40754 -7.583773,-2.33861 z"
       id="path836"
       inkscape:connector-curvature="0"
       sodipodi:nodetypes="caaacccc" />
    <path
       style="fill:#59718b;fill-opacity:1;stroke:none;stroke-width:0.26458332px;stroke-linecap:butt;stroke-linejoin:miter;stroke-opacity:1"
       d="m 179.20422,148.86586 c 0,0 4.7741,-1.66913 6.1472,-3.60814 2.66877,-3.76867 6.28072,-9.04887 10.28987,-12.76212 2.59711,-2.40542 5.45362,-4.73113 8.75307,-6.01356 4.90289,-1.90565 8.8199,-1.40317 8.8199,-1.40317 0,0 -2.31457,0.70373 -3.27405,1.40317 -5.73058,4.17746 -12.17402,15.02781 -15.56845,22.04974 -1.00853,2.08632 0.20045,6.949 0.20045,6.949 3.4755,8.39228 5.3526,12.9089 10.02261,17.90706 2.56003,2.73992 9.42125,6.1472 9.42125,6.1472 0,0 -6.29456,-0.18052 -9.2208,-1.20271 -3.58439,-1.25209 -7.60728,-3.20288 -9.75533,-5.87993 -8.7262,-10.87519 -11.05608,-14.57068 -15.10073,-15.90254 z"
       id="path840"
       inkscape:connector-curvature="0"
       sodipodi:nodetypes="csascsscacascc" />
    <path
       style="fill:#a7c0c7;fill-opacity:1;stroke:none;stroke-width:0.26458332px;stroke-linecap:butt;stroke-linejoin:miter;stroke-opacity:1"
       d="m 58.302826,127.76116 c 0,0 -0.04961,-2.32696 1.346541,-4.86644 2.37963,-4.32835 6.023996,-7.32329 6.023996,-7.32329 -0.129738,0.90612 -0.03927,2.30651 0.161802,2.4683 2.28076,-3.02738 5.361527,-6.19339 9.098615,-8.27969 -1.019436,1.36982 -0.549305,2.27415 -0.188989,3.2128 0.592206,-0.4554 1.180064,-0.63209 1.836902,-0.95591 -1.37693,1.16685 -0.869478,2.99256 -0.466739,3.97972 0.771701,-0.75712 1.760559,-1.144 2.53226,-1.50044 -0.528013,1.01986 -0.775953,2.03973 -0.547885,3.05959 0.676987,-0.61194 1.365063,-1.11424 2.588107,-1.64218 -0.672676,1.17405 -0.790381,2.46876 0.26915,3.86565 0.534864,-0.73166 1.085598,-1.28353 1.795388,-1.48946 -0.573563,1.094 -0.303905,2.18799 0.591775,3.28199 0.474958,-0.41693 0.735893,-0.63366 1.748139,-1.09192 -0.366816,0.86794 -0.414928,1.91963 0.147476,2.78757 0.502602,-0.86995 1.285684,-1.18574 1.956698,-1.59256 -1.16043,1.59467 -1.142654,2.16286 -0.403278,2.82622 0.339413,-0.52229 0.736535,-1.02359 1.559152,-1.37016 -0.333379,0.89743 -0.426696,1.72036 0.519718,2.22061 0.227381,-0.46059 0.62053,-0.73241 1.156365,-0.84185 -0.144218,0.95532 0.01787,1.75749 0.497281,2.401 z"
       id="path842"
       inkscape:connector-curvature="0"
       sodipodi:nodetypes="csccccccccccccccccccccc" />
    <g
       id="g1020">
      <path
         inkscape:connector-curvature="0"
         id="path908"
         d="m 134.51228,137.39955 2.07887,-1.32291 2.4096,0.47247 -1.79539,0.56696 0.0472,1.46466 z"
         style="fill:#cf9a13;fill-opacity:1;stroke:none;stroke-width:0.26458332px;stroke-linecap:butt;stroke-linejoin:miter;stroke-opacity:1" />
      <path
         inkscape:connector-curvature="0"
         id="path908-5"
         d="m 128.53553,135.29706 2.07887,-1.32291 2.4096,0.47247 -1.79539,0.56696 0.0472,1.46466 z"
         style="fill:#cf9a13;fill-opacity:1;stroke:none;stroke-width:0.26458332px;stroke-linecap:butt;stroke-linejoin:miter;stroke-opacity:1" />
      <path
         inkscape:connector-curvature="0"
         id="path908-1"
         d="m 140.72526,139.78553 2.07887,-1.32291 2.4096,0.47247 -1.79539,0.56696 0.0472,1.46466 z"
         style="fill:#cf9a13;fill-opacity:1;stroke:none;stroke-width:0.26458332px;stroke-linecap:butt;stroke-linejoin:miter;stroke-opacity:1" />
      <path
         sodipodi:nodetypes="cccccc"
         inkscape:connector-curvature="0"
         id="path908-6"
         d="m 147.43433,141.86438 2.26786,-1.32291 2.4096,0.47247 -1.79539,0.56696 0.0472,1.46466 z"
         style="fill:#cf9a13;fill-opacity:1;stroke:none;stroke-width:0.26458332px;stroke-linecap:butt;stroke-linejoin:miter;stroke-opacity:1" />
      <path
         sodipodi:nodetypes="cccccc"
         inkscape:connector-curvature="0"
         id="path908-8"
         d="m 154.3324,144.27399 2.26786,-1.84263 2.4096,0.47247 -1.79539,0.56696 0.0472,1.46466 z"
         style="fill:#cf9a13;fill-opacity:1;stroke:none;stroke-width:0.26458332px;stroke-linecap:butt;stroke-linejoin:miter;stroke-opacity:1" />
      <path
         sodipodi:nodetypes="cccccc"
         inkscape:connector-curvature="0"
         id="path908-63"
         d="m 161.27772,145.73866 2.36235,-1.55915 2.4096,0.47247 -1.79539,0.56696 0.0472,1.46466 z"
         style="fill:#cf9a13;fill-opacity:1;stroke:none;stroke-width:0.26458332px;stroke-linecap:butt;stroke-linejoin:miter;stroke-opacity:1" />
      <path
         inkscape:connector-curvature="0"
         id="path908-4"
         d="m 167.51622,147.51039 1.80773,-1.67448 2.45527,0.0324 -1.66451,0.87994 0.30926,1.43241 z"
         style="fill:#cf9a13;fill-opacity:1;stroke:none;stroke-width:0.26458332px;stroke-linecap:butt;stroke-linejoin:miter;stroke-opacity:1" />
      <path
         inkscape:connector-curvature="0"
         id="path908-64"
         d="m 173.14536,148.65911 1.64273,-1.83664 2.44748,-0.19799 -1.57465,1.03215 0.44224,1.3971 z"
         style="fill:#cf9a13;fill-opacity:1;stroke:none;stroke-width:0.26458332px;stroke-linecap:butt;stroke-linejoin:miter;stroke-opacity:1" />
      <path
         inkscape:connector-curvature="0"
         id="path908-57"
         d="m 139.57235,166.56735 2.06433,1.34548 2.41461,-0.44617 -1.78912,-0.5865 0.0632,-1.46406 z"
         style="fill:#cf9a13;fill-opacity:1;stroke:none;stroke-width:0.26458332px;stroke-linecap:butt;stroke-linejoin:miter;stroke-opacity:1" />
      <path
         inkscape:connector-curvature="0"
         id="path908-57-1"
         d="m 146.87644,163.50584 1.98485,1.4602 2.43599,-0.30875 -1.75304,-0.68686 0.14596,-1.45812 z"
         style="fill:#cf9a13;fill-opacity:1;stroke:none;stroke-width:0.26458332px;stroke-linecap:butt;stroke-linejoin:miter;stroke-opacity:1" />
      <path
         inkscape:connector-curvature="0"
         id="path908-57-9"
         d="m 153.45874,160.8769 1.90179,1.56685 2.44926,-0.17472 -1.71274,-0.78195 0.22569,-1.44793 z"
         style="fill:#cf9a13;fill-opacity:1;stroke:none;stroke-width:0.26458332px;stroke-linecap:butt;stroke-linejoin:miter;stroke-opacity:1" />
      <path
         inkscape:connector-curvature="0"
         id="path908-57-7"
         d="m 159.83109,158.55802 1.93144,1.53015 2.44546,-0.22157 -1.72739,-0.74902 0.19793,-1.45198 z"
         style="fill:#cf9a13;fill-opacity:1;stroke:none;stroke-width:0.26458332px;stroke-linecap:butt;stroke-linejoin:miter;stroke-opacity:1" />
      <path
         inkscape:connector-curvature="0"
         id="path908-57-5"
         d="m 166.56495,156.61029 1.82408,1.65667 2.45483,-0.0565 -1.67307,-0.86358 0.29521,-1.43538 z"
         style="fill:#cf9a13;fill-opacity:1;stroke:none;stroke-width:0.26458332px;stroke-linecap:butt;stroke-linejoin:miter;stroke-opacity:1" />
      <path
         inkscape:connector-curvature="0"
         id="path908-57-0"
         d="m 173.15093,155.58978 1.3985,2.02879 2.4031,0.50448 -1.43222,-1.22215 0.61457,-1.33032 z"
         style="fill:#cf9a13;fill-opacity:1;stroke:none;stroke-width:0.26458332px;stroke-linecap:butt;stroke-linejoin:miter;stroke-opacity:1" />
    </g>
    <path
       style="opacity:1;fill:#dfe2e6;fill-opacity:1;stroke:none;stroke-width:0.26458332px;stroke-linecap:butt;stroke-linejoin:miter;stroke-opacity:1"
       d="m 40.159969,138.53348 -0.377976,36.5692 c 0,0 8.205931,2.87684 12.473215,3.59077 8.492227,1.42078 17.197036,1.74639 25.796874,1.32292 10.340022,-0.50917 20.559772,-2.59633 30.710568,-4.63021 8.5654,-1.71622 17.1848,-3.26954 25.4189,-6.37835 11.24154,-4.24427 21.51047,-9.37244 32.69494,-11.9535 3.12163,-0.72038 6.30166,-0.96632 9.47708,-0.96688 2.07448,-3.6e-4 6.19151,0.62947 6.19151,0.62947 5.16171,0.44907 8.4079,-0.39389 12.02713,-1.23612 1.17231,-0.61654 0.70409,-2.28832 0.55799,-3.24567 l -57.8873,-8.84827 c -32.03863,-5.59335 -64.008021,-12.04075 -97.082931,-4.85336 z"
       id="path828"
       inkscape:connector-curvature="0"
       sodipodi:nodetypes="ccaaassaccccc" />
    <path
       style="fill:#a7c0c7;fill-opacity:1;stroke:none;stroke-width:0.26458332px;stroke-linecap:butt;stroke-linejoin:miter;stroke-opacity:1"
       d="m 50.387763,154.36885 c 1.563336,2.63252 2.261276,2.90762 3.71008,3.69771 1.295283,0.70637 2.809906,0.99735 4.25223,0.87763 2.82724,-0.23468 5.333329,-1.94559 7.937499,-3.07105 1.907516,-0.82438 3.666153,-1.99213 5.622396,-2.69308 3.038495,-1.08874 6.19503,-1.9516 9.402159,-2.31511 2.989291,-0.33882 9.024181,0.14174 9.024181,0.14174 0.356879,-1.07064 -14.49753,-3.83849 -21.922618,-3.9215 -6.622951,-0.074 -19.88061,1.61956 -18.025927,7.28366 z"
       id="path830"
       inkscape:connector-curvature="0"
       sodipodi:nodetypes="csaaaacsc" />
    <path
       style="fill:#c7c7c7;fill-opacity:1;stroke:none;stroke-width:0.26458332px;stroke-linecap:butt;stroke-linejoin:miter;stroke-opacity:1"
       d="m 41.218305,138.53348 c 0,0 4.540012,6.60868 5.609934,10.3992 1.417952,5.02351 2.214253,10.5919 0.868627,15.63527 -1.080111,4.04822 -2.991755,8.91665 -6.85654,10.53473 -3.972713,1.66327 -10.222142,-2.17412 -15.059561,-3.45209 -4.434786,-1.17161 -7.982002,-3.54217 -11.693042,-6.5481 -3.281793,-2.65824 -7.4586227,-4.83902 -10.0226075,-7.75082 -0.7947827,-0.9026 -2.3641414,-1.17807 -1.7372519,-2.40543 l 8.0849034,-0.45102 c -2.5008818,-1.2008 -4.8634445,-2.01527 -7.5837729,-2.68939 -0.1258403,-0.52399 0.044523,-0.819 0.4025237,-1.08444 11.9312522,-5.01295 24.8031302,-8.80308 37.9867872,-12.18791 z"
       id="path855-8"
       inkscape:connector-curvature="0"
       sodipodi:nodetypes="caassssccccc" />
    <path
       style="fill:#dfe2e6;fill-opacity:1;stroke:none;stroke-width:0.26458332px;stroke-linecap:butt;stroke-linejoin:miter;stroke-opacity:1"
       d="m 39.630802,138.53348 c 0,0 4.540012,6.60868 5.609936,10.3992 1.417952,5.02351 2.214253,10.5919 0.868627,15.63527 -1.080111,4.04822 -2.991755,8.91665 -6.856539,10.53473 -9.193085,0.6461 -16.315951,-3.54874 -23.612187,-7.39431 -4.938955,-2.60314 -10.5990388,-7.4449 -13.1630236,-10.3567 -0.7947827,-0.9026 -2.36414134,-1.17807 -1.73725187,-2.40543 l 8.08490317,-0.45102 c -2.5008815,-1.2008 -4.8634443,-2.01527 -7.5837727,-2.68939 -0.1258403,-0.52399 0.044523,-0.819 0.4025237,-1.08444 11.9312513,-5.01295 24.8031293,-8.80308 37.9867843,-12.18791 z"
       id="path855"
       inkscape:connector-curvature="0"
       sodipodi:nodetypes="caacasccccc" />
    <circle
       style="opacity:1;fill:#a7a7a7;fill-opacity:1;stroke:none;stroke-width:0.06349999;stroke-linecap:round;stroke-miterlimit:4;stroke-dasharray:none;stroke-opacity:1;paint-order:fill markers stroke"
       id="path857"
       cx="18.993301"
       cy="148.43173"
       r="2.3151042" />
    <circle
       style="opacity:1;fill:#c4ba2c;fill-opacity:1;stroke:none;stroke-width:0.04017346;stroke-linecap:round;stroke-miterlimit:4;stroke-dasharray:none;stroke-opacity:1;paint-order:fill markers stroke"
       id="path857-7"
       cx="19.016926"
       cy="148.44354"
       r="1.4646578" />
    <circle
       style="opacity:1;fill:#000000;fill-opacity:1;stroke:none;stroke-width:0.01291198;stroke-linecap:round;stroke-miterlimit:4;stroke-dasharray:none;stroke-opacity:1;paint-order:fill markers stroke"
       id="path857-7-0"
       cx="19.063713"
       cy="148.48738"
       r="0.47074923" />
    <path
       style="fill:#dfdfdf;fill-opacity:1;stroke:none;stroke-width:0.26458332px;stroke-linecap:butt;stroke-linejoin:miter;stroke-opacity:1"
       d="m 17.913732,148.37535 c -0.278949,-0.10625 0.292824,-0.77388 0.626413,-0.9605 0.357299,-0.19988 1.087173,-0.26015 1.227769,-0.0334 0.05451,0.0879 -0.547436,0.24668 -0.94826,0.48267 -0.425066,0.25027 -0.780155,0.55914 -0.905922,0.51123 z"
       id="path889"
       inkscape:connector-curvature="0"
       sodipodi:nodetypes="sasss" />
    <path
       style="fill:#c7c7c7;fill-opacity:1;stroke:none;stroke-width:0.26458332px;stroke-linecap:butt;stroke-linejoin:miter;stroke-opacity:1"
       d="m 17.077629,155.12431 c 0.736402,0.4051 0.629619,2.41409 -0.115948,3.15843 -0.706768,0.7056 -2.472222,0.73537 -2.99425,0.10496 -1.944821,-2.3486 -5.0243152,-4.23676 -9.8963266,-5.78533 4.8831635,0.28275 9.3148686,0.49112 13.0065246,2.52194 z"
       id="path891"
       inkscape:connector-curvature="0"
       sodipodi:nodetypes="sascs" />
    <path
       style="fill:#3a5879;fill-opacity:1;stroke:none;stroke-width:0.26458332px;stroke-linecap:butt;stroke-linejoin:miter;stroke-opacity:1"
       d="M 1.464489,150.88677 C 2.33988,150.16166 4.5332184,149.47852 5.5871937,148.67166 39.769406,122.50407 84.45083,121.23023 121.70833,132.95833 c 15.84851,4.98888 30.78159,10.95799 46.72731,14.2686 3.5539,0.73786 6.99978,1.75985 10.81957,1.22843 5.24361,-0.72951 15.08541,-1.5899 15.96949,1.60639 l -0.0945,2.17336 c 0,0 -10.29696,0.13958 -15.44446,0.0554 -4.77445,-0.0781 -9.57209,0.0264 -14.31584,-0.51977 -8.1195,-0.93477 -17.4201,-2.98451 -24.06436,-4.70178 -28.04896,-7.24952 -60.583811,-9.7166 -90.738874,-7.68593 -14.962774,1.00761 -28.590037,4.39847 -40.470174,8.71011 -2.5950201,1.00861 -6.0222328,1.832 -8.632003,2.79363 z"
       id="path826"
       inkscape:connector-curvature="0"
       sodipodi:nodetypes="cssasccaasscc" />
  </g>
</svg>
