<?xml version="1.0" encoding="UTF-8" standalone="no"?>
<!-- Created with Inkscape (http://www.inkscape.org/) -->

<svg
   xmlns:dc="http://purl.org/dc/elements/1.1/"
   xmlns:cc="http://creativecommons.org/ns#"
   xmlns:rdf="http://www.w3.org/1999/02/22-rdf-syntax-ns#"
   xmlns:svg="http://www.w3.org/2000/svg"
   xmlns="http://www.w3.org/2000/svg"
   xmlns:sodipodi="http://sodipodi.sourceforge.net/DTD/sodipodi-0.dtd"
   xmlns:inkscape="http://www.inkscape.org/namespaces/inkscape"
   version="1.1"
   id="svg2"
   xml:space="preserve"
   width="2560"
   height="1440"
   viewBox="0 0 2560 1440"
   sodipodi:docname="Blue crab.svg"
   inkscape:version="0.92.2 5c3e80d, 2017-08-06"><metadata
     id="metadata8"><rdf:RDF><cc:Work
         rdf:about=""><dc:format>image/svg+xml</dc:format><dc:type
           rdf:resource="http://purl.org/dc/dcmitype/StillImage" /><dc:title></dc:title></cc:Work></rdf:RDF></metadata><defs
     id="defs6"><clipPath
       clipPathUnits="userSpaceOnUse"
       id="clipPath18"><path
         d="M 0,1080 H 1920 V 0 H 0 Z"
         id="path16"
         inkscape:connector-curvature="0" /></clipPath></defs><sodipodi:namedview
     pagecolor="#ffffff"
     bordercolor="#666666"
     borderopacity="1"
     objecttolerance="10"
     gridtolerance="10"
     guidetolerance="10"
     inkscape:pageopacity="0"
     inkscape:pageshadow="2"
     inkscape:window-width="1920"
     inkscape:window-height="1014"
     id="namedview4"
     showgrid="false"
     inkscape:zoom="0.22816321"
     inkscape:cx="1410.9776"
     inkscape:cy="843.30887"
     inkscape:window-x="0"
     inkscape:window-y="34"
     inkscape:window-maximized="1"
     inkscape:current-layer="g10" /><g
     id="g10"
     inkscape:groupmode="layer"
     inkscape:label="Blue crab"
     transform="matrix(1.3333333,0,0,-1.3333333,0,1440)"><g
       id="g12"
       transform="matrix(2.2711345,0,0,2.2711345,-1254.584,-657.81457)"><g
         id="g14"
         clip-path="url(#clipPath18)"><g
           id="g20"
           transform="translate(1075.7314,427.1426)"><path
             d="m 0,0 c 5.487,-1.934 9.287,-6.099 13.262,-10.033 -0.062,-2.449 -0.347,-4.917 -0.137,-7.343 0.369,-4.284 -1.323,-8.779 1.232,-12.848 3.063,-0.406 1.513,1.946 1.884,3.15 l -0.038,-0.081 c 0.099,0.083 0.278,0.165 0.281,0.251 0.005,0.223 -0.068,0.448 -0.11,0.673 -0.02,1.264 0.835,1.908 1.772,2.492 2.88,-0.18 3.844,-2.009 4.284,-4.592 3.006,-17.644 -0.891,-32.983 -14.782,-45.077 -0.468,-0.408 -1.673,-0.856 -0.379,-1.735 h -7 c 0.785,1.238 -0.997,1.048 -1.022,1.836 1.634,1.064 2.375,2.709 3.005,4.466 2.752,7.68 5.621,15.319 8.278,23.029 1.403,4.071 3.251,8.073 3.198,12.75 -2.545,-2.36 -5.192,-4.605 -8.464,-4.042 -5.019,0.864 -8.383,-0.758 -10.663,-5.122 4.123,6.391 -2.167,10.671 -3.247,16.008 1.716,0.629 1.935,2.05 1.911,3.602 -0.113,7.212 -0.223,14.424 -0.33,21.634 C -4.707,-0.656 -2.354,-0.328 0,0"
             style="fill:#75adcc;fill-opacity:1;fill-rule:nonzero;stroke:none"
             id="path22"
             inkscape:connector-curvature="0" /></g><g
           id="g24"
           transform="translate(779.3262,453.0293)"><path
             d="m 0,0 c -2.981,-4.276 -3.834,-9.486 -6.167,-14.053 -1.855,-3.634 -3.543,-7.355 -5.305,-11.037 -1.951,0.022 -3.903,0.041 -5.854,0.061 v 9 c 3.047,-1.121 1.88,1.723 2.189,2.643 2.528,7.502 5.878,14.438 12.131,19.607 C -2.006,4.145 -1.003,2.072 0,0"
             style="fill:#75adcc;fill-opacity:1;fill-rule:nonzero;stroke:none"
             id="path26"
             inkscape:connector-curvature="0" /></g><g
           id="g28"
           transform="translate(1162,555)"><path
             d="m 0,0 c -1.46,1.456 -1.555,-0.225 -1.696,-0.883 -1.447,-6.734 -6.046,-11.12 -11.124,-15.171 -0.874,6.242 0.782,12.621 -1.002,18.816 0.847,1.313 2.454,2.181 2.372,4.04 1.221,0.436 2.443,0.872 3.665,1.307 C -5.217,8.943 -3.566,7.68 -2.241,5.678 -1.396,4.511 -3.073,1.809 0,2 Z"
             style="fill:#75adcc;fill-opacity:1;fill-rule:nonzero;stroke:none"
             id="path30"
             inkscape:connector-curvature="0" /></g><g
           id="g32"
           transform="translate(1150.6797,571.7622)"><path
             d="m 0,0 c -0.789,1.41 -0.816,2.957 -0.812,4.495 0.075,3.645 0.425,7.327 0.154,10.963 -0.34,4.532 1.32,6.561 5.906,5.956 C 7.377,16.388 8.314,11.052 9.43,5.753 9.576,5.056 9.703,1.514 12.07,3.238 c 0,-2.334 -0.75,-3.667 -0.75,-6 -0.574,0.534 -1.359,0.964 -1.687,1.621 C 7.442,3.24 3.646,3.717 0,0"
             style="fill:#75adcc;fill-opacity:1;fill-rule:nonzero;stroke:none"
             id="path34"
             inkscape:connector-curvature="0" /></g><g
           id="g36"
           transform="translate(1150.6797,571.7622)"><path
             d="m 0,0 c 3.646,3.717 7.442,3.24 9.633,-1.141 0.328,-0.657 1.113,-1.087 1.687,-1.621 2.583,-10.334 0,-9.896 0,-12.563 -2.812,-0.412 -2.5,0 -3.5,0.563 C 6.494,-12.76 6.104,-7.819 3.535,-8.653 2.266,-5.806 -0.515,-3.576 0,0"
             style="fill:#75adcc;fill-opacity:1;fill-rule:nonzero;stroke:none"
             id="path38"
             inkscape:connector-curvature="0" /></g><g
           id="g40"
           transform="translate(762,428)"><path
             d="M 0,0 C 1.951,-0.02 3.903,-0.039 5.854,-0.061 4.598,-2.727 4.791,-6.819 0,-6 Z"
             style="fill:#75adcc;fill-opacity:1;fill-rule:nonzero;stroke:none"
             id="path42"
             inkscape:connector-curvature="0" /></g><g
           id="g44"
           transform="translate(1091.5898,495.7979)"><path
             d="m 0,0 c 3.969,-2.818 8.327,-1.173 12.529,-1.025 3.134,0.11 6.257,0.544 9.463,0.545 -9.98,-4.434 -20.344,-7.586 -31.138,-9.34 -12.113,-1.968 -24.443,-2.826 -36.146,-6.879 -3.214,-1.113 -6.905,-1.611 -8.693,-5.19 -3.75,0.603 -5.857,-2.387 -8.619,-3.946 l -5.453,-4.274 c -6.783,-1.429 -13.047,-3.648 -16.758,-10.205 -0.613,-1.083 -1.933,-1.765 -2.925,-2.632 -6.146,-3.947 -12.714,-5.604 -20.141,-5.112 -9.246,0.613 -18.646,1.277 -27.791,0.675 -14.439,-0.95 -25.832,3.372 -34.923,14.371 -10.615,10.845 -23.113,18.108 -38.351,20.154 -14.226,4.143 -29.023,5.26 -43.473,8.207 -5.551,1.131 -11.319,1.483 -17.877,4.16 8.661,2.334 16.117,0.916 23.442,1.534 3.698,0.312 7.737,0.049 9.982,4.049 5.149,1.268 1.395,5.862 3.134,8.404 2.682,-0.783 5.134,-0.931 6.358,2.308 2.436,2.546 1.969,5.492 1.17,8.485 1.429,0.426 3.157,-0.352 4.335,1.081 4.831,2.004 5.066,8.286 9.729,10.446 1.82,4.278 1.82,4.278 7.643,8.564 1.83,3.088 3.476,6.407 8.078,5.485 0.545,-0.109 1.212,0.387 1.822,0.602 0.742,0.433 1.116,1.073 1.086,1.939 l -0.047,0.283 c 1.149,0.903 0.877,3.379 2.615,3.274 5.523,-0.335 5.241,3.587 5.624,7.123 0.543,0.295 1.353,0.987 1.592,0.827 4.394,-2.943 7.074,-0.493 9.335,3.004 1.89,-0.704 2.272,-3.111 4.357,-3.221 0.376,0.019 0.751,0.034 1.126,0.049 -0.16,0.214 -0.32,0.427 -0.48,0.641 1.499,5.133 5.201,4.391 9.005,3.377 2.3,-3.294 4.859,-5.429 9.109,-2.827 0.987,0.604 2.552,0.263 3.851,0.357 1.484,-0.051 3.218,-0.629 4.41,-0.064 6.146,2.911 12.096,1.619 18.552,1.02 6.5,-0.603 13.292,-1.075 19.805,-0.892 5.263,0.149 9.827,0.113 14.301,-2.547 2.629,-2.42 5.357,-2.158 8.081,-0.22 1.662,1.182 3.34,2.155 5.487,1.574 1.29,0.559 3.837,0.12 9.142,-1.577 4.483,-0.473 7.045,-3.487 9.266,-6.971 0.157,-0.246 0.54,-0.348 0.819,-0.516 4.934,-3.424 9.87,-6.848 14.805,-10.272 0.435,-0.657 0.741,-1.719 1.325,-1.906 3.854,-1.232 5.717,-3.571 5.503,-7.784 -0.164,-3.249 3.012,-2.023 4.651,-2.875 2.765,0.484 2.665,-1.869 3.173,-3.389 1.158,-3.466 2.977,-6.125 6.869,-6.748 -0.755,-6.796 1.734,-10.238 8.117,-9.911 3.984,0.204 0.86,-2.11 1.559,-2.944 C -13.777,5.65 -10.984,4.34 -8.599,2.842 -6.114,0.74 -3.482,-0.917 0,0"
             style="fill:#857d47;fill-opacity:1;fill-rule:nonzero;stroke:none"
             id="path46"
             inkscape:connector-curvature="0" /></g><g
           id="g48"
           transform="translate(1068.3662,684.2173)"><path
             d="m 0,0 c 13.527,-9.29 22.236,-22.609 30.51,-36.322 1.262,-2.093 1.531,-5.379 5.175,-5.284 0.268,0.006 0.709,-0.678 0.812,-1.104 1.913,-7.875 7.976,-13.739 10.674,-20.948 2.737,-7.315 2.882,-15.681 -0.46,-23.416 -0.389,-0.9 -0.897,-2.277 -1.582,-2.438 -6.308,-1.48 -6.025,-6.293 -6.004,-11.13 0.005,-1.099 -0.534,-2.28 -1.072,-3.291 -5.662,-10.656 -13.988,-18.63 -24.612,-24.259 -0.306,15.044 1.435,30.136 -1.045,45.13 4.501,1.828 9.068,1.608 13.638,0.354 1.413,-0.388 2.705,-0.894 2.521,1.416 2.346,0.715 2.065,2.673 2.094,4.466 0.109,6.747 0.155,13.492 -1.049,20.171 2.664,3.893 -0.6,3.312 -2.718,3.597 -0.304,2.004 -1.099,3.782 -2.273,5.44 C 15.831,-35.217 7.16,-22.739 -1.715,-10.407 -6.228,-4.138 -6.387,-4.252 0,0"
             style="fill:#a69e7a;fill-opacity:1;fill-rule:nonzero;stroke:none"
             id="path50"
             inkscape:connector-curvature="0" /></g><g
           id="g52"
           transform="translate(853.9253,552.5078)"><path
             d="m 0,0 c -8.032,4.84 -15.323,10.61 -21.437,17.733 -4.074,4.746 -7.498,9.919 -6.156,16.68 0.455,2.292 -1.16,2.496 -2.49,2.891 -2.233,0.662 -4.022,1.887 -4.728,4.068 -2.878,8.905 -3.389,17.344 1.601,26.191 2.784,4.937 7.147,9.224 7.986,15.354 0.422,3.079 4.432,3.354 5.953,6.344 4.223,8.301 9.663,15.915 15.88,22.906 4.206,4.729 8.645,9.218 14.12,12.53 3.193,-1.784 5.479,-3.543 2.408,-7.633 C 6.678,108.463 0.29,99.784 -5.611,90.798 -9.217,85.307 -14.259,80.67 -16.107,74.071 c -2.389,-0.225 -3.716,-1.028 -1.923,-3.53 -0.775,-5.659 -1.121,-11.337 -0.935,-17.051 0.065,-2.01 0.079,-3.965 2.155,-5.087 -0.17,-1.598 -0.876,-3.544 2.149,-2.643 5.048,1.504 10.051,0.999 14.997,-0.571 C 0.223,30.126 0.111,15.063 0,0"
             style="fill:#a69e7a;fill-opacity:1;fill-rule:nonzero;stroke:none"
             id="path54"
             inkscape:connector-curvature="0" /></g><g
           id="g56"
           transform="translate(1080.7627,601.1553)"><path
             d="m 0,0 c 2.479,-14.994 0.738,-30.086 1.045,-45.13 -9.662,-7.98 -20,-14.512 -32.977,-15.399 -4.938,3.424 -9.874,6.847 -14.809,10.272 0.013,5.241 0.027,10.482 0.042,15.723 1.552,1.109 3.104,2.218 4.656,3.326 2.313,1.237 4.41,2.756 6.175,4.712 3.203,2.506 5.381,5.691 6.393,9.644 3.577,-0.298 6.505,0.89 8.685,3.792 l -0.047,-0.037 c 0.368,0.306 0.735,0.612 1.103,0.918 2.93,2.849 4.615,6.493 6.423,10.058 2.09,-0.318 4.078,0.045 5.993,0.896 z"
             style="fill:#75adcc;fill-opacity:1;fill-rule:nonzero;stroke:none"
             id="path58"
             inkscape:connector-curvature="0" /></g><g
           id="g60"
           transform="translate(853.9253,552.5078)"><path
             d="m 0,0 c 0.111,15.063 0.223,30.126 0.336,45.189 1.501,-0.54 3.001,-1.08 4.502,-1.62 2.226,-0.054 4.452,-0.108 6.678,-0.162 1.795,-4.066 4.14,-7.762 7.314,-10.903 2.175,-2.626 5.061,-3.279 8.286,-2.994 0.698,-4.244 3.452,-7.03 6.714,-9.456 1.648,-1.852 3.468,-3.483 5.764,-4.504 1.496,-1.093 2.991,-2.186 4.487,-3.279 -2.308,-5.434 -0.011,-10.861 0.02,-16.292 0,0 0.047,-0.283 0.047,-0.286 -0.362,-0.647 -0.725,-1.291 -1.086,-1.936 -0.611,-0.215 -1.277,-0.711 -1.823,-0.602 -4.601,0.922 -6.247,-2.397 -8.077,-5.485 C 20.235,-13.258 10.201,-6.404 0,0"
             style="fill:#75adcc;fill-opacity:1;fill-rule:nonzero;stroke:none"
             id="path62"
             inkscape:connector-curvature="0" /></g><g
           id="g64"
           transform="translate(882.644,482.9395)"><path
             d="m 0,0 c 15.238,-2.046 27.736,-9.309 38.351,-20.152 -2.202,-2.649 0.85,-4.518 1.012,-6.817 -3.924,-3.405 -1.21,-7.822 -1.789,-11.738 -6.362,0.959 -11.011,-3.623 -16.61,-5.124 -2.064,-0.553 -4.177,-0.921 -6.27,-1.375 -5.122,2.918 -10.681,0.762 -16.007,1.347 -1.601,0.175 -3.385,0.262 -4.352,-1.582 -0.689,0.313 -1.38,0.628 -2.07,0.941 -0.173,0.276 -0.421,0.438 -0.744,0.488 -3.974,0.848 -4.409,3.944 -4.577,7.208 -1.057,1.127 -2.481,1.501 -3.895,1.895 -0.504,4.887 5.842,3.049 7.112,7.749 1.166,4.313 6.268,-0.712 9.702,-0.417 0.43,0.065 0.86,0.129 1.289,0.192 -0.109,0.295 -0.219,0.589 -0.328,0.883 -0.229,0.699 -0.824,1.818 0.664,1.402 1.912,-0.534 3.366,-1.861 4.266,-3.697 -3.624,-0.153 -7.263,-0.167 -10.867,-0.527 -1.435,-0.144 -3.046,-1.058 -3.014,-2.802 0.041,-2.266 2.053,-1.722 3.401,-1.752 3.965,-0.09 7.934,-0.082 11.901,-0.018 2.242,0.035 4.748,-0.579 6.213,1.974 2.961,-0.07 5.921,-0.14 8.882,-0.21 0.282,-1.041 0.864,-1.777 2.031,-1.444 0.77,0.221 0.816,0.877 0.416,1.538 -1.059,3.743 -0.929,7.429 0.535,11.05 2.397,0.91 2.355,2.599 1.079,4.276 -1.265,1.661 -2.643,4.14 -4.717,3.897 -2.342,-0.275 -1.081,-2.962 -1.272,-4.584 -0.17,-1.445 0.071,-2.938 0.131,-4.409 -4.169,-0.39 -8.371,-1.53 -12.433,0.541 1.305,1.45 2.731,2.81 3.887,4.37 1.732,2.337 3.59,4.75 1.679,7.904 C 9.071,-5.995 4.535,-2.997 0,0"
             style="fill:#a69e7a;fill-opacity:1;fill-rule:nonzero;stroke:none"
             id="path66"
             inkscape:connector-curvature="0" /></g><g
           id="g68"
           transform="translate(834.2041,543.9175)"><path
             d="m 0,0 c -5.858,2.55 -11.485,5.476 -16.187,9.915 0.049,3.617 0.065,7.233 0.159,10.848 0.057,2.209 -0.72,3.829 -2.856,4.666 -2.549,0.998 -3.56,-0.746 -4.553,-2.534 -5.472,3.861 -10.546,8.184 -15.127,13.071 0.1,7.378 0.197,14.757 0.295,22.136 2.004,-1.047 2.992,-3.03 4.288,-4.713 4.147,-5.386 9.176,-9.811 14.708,-13.704 4.98,-5.039 10.784,-9.567 10.728,-17.687 C -8.549,21.5 -7.991,20.843 -7.517,20.521 -2.527,17.133 -0.084,11.786 3.019,6.949 2.545,4.402 2.169,1.812 0,0"
             style="fill:#75adcc;fill-opacity:1;fill-rule:nonzero;stroke:none"
             id="path70"
             inkscape:connector-curvature="0" /></g><g
           id="g72"
           transform="translate(805.1465,535.9756)"><path
             d="m 0,0 c -7.406,2.419 -13.068,7.25 -18.036,13.042 1.529,1.88 0.811,4.116 0.966,6.209 0.292,3.921 -0.701,7.942 0.91,11.762 4.31,-2.784 7.721,-6.483 11.201,-10.225 3.134,-3.371 6.243,-7.091 10.917,-8.655 L 5.947,12.127 c 0.01,-0.668 0.38,-0.977 1.017,-1.02 L 6.931,11.136 C 7.351,9.474 8.7,8.685 10.01,7.86 c 2.215,-2.056 4.35,-4.134 4.076,-7.558 -0.145,-1.805 1.419,-2.471 2.503,-3.448 3.125,-2.82 5.074,-6.531 7.466,-9.902 0.219,-2.788 -1.504,-4.482 -3.421,-6.068 -5.75,1.222 -10.475,4.266 -14.666,8.26 0.017,2.985 0.067,5.97 0.04,8.956 C 5.994,-0.38 5.832,1.174 4.06,1.744 2.245,2.327 0.788,1.897 0,0"
             style="fill:#75adcc;fill-opacity:1;fill-rule:nonzero;stroke:none"
             id="path74"
             inkscape:connector-curvature="0" /></g><g
           id="g76"
           transform="translate(1050.0723,663.6035)"><path
             d="m 0,0 c -4.95,4.137 -6.904,10.445 -11.024,15.215 -2.369,2.742 -4.174,5.969 -6.233,8.976 1.834,2.328 0.418,5.639 2.397,7.923 0.333,0.11 0.669,0.218 1.004,0.325 C -7.566,25.797 -3.452,17.131 4.837,12.35 5.181,11.604 5.524,10.858 5.867,10.112 6.629,7.633 4.564,5.546 4.527,1.926 c 3.185,3.175 6.142,4.776 9.711,4.784 3.021,-6.333 3.277,-13.633 6.913,-19.75 -1.941,-3.383 -5.47,-3.149 -8.619,-3.782 -4.29,4.909 -8.029,10.114 -9.01,16.801 C 2.35,0.471 1.176,0.354 0,0"
             style="fill:#75adcc;fill-opacity:1;fill-rule:nonzero;stroke:none"
             id="path78"
             inkscape:connector-curvature="0" /></g><g
           id="g80"
           transform="translate(837.8184,626.5786)"><path
             d="m 0,0 c 1.848,6.599 6.89,11.236 10.496,16.728 5.9,8.985 12.289,17.664 18.748,26.265 3.071,4.09 0.785,5.849 -2.408,7.633 5.198,2.235 8.493,6.995 13.171,9.933 2.079,1.306 4.021,2.832 6.024,4.257 0.007,-3.39 -2.924,-5.031 -4.614,-7.308 -5.539,-7.46 -5.678,-7.357 -1.165,-15.108 l -1.279,-1.154 c -3.542,0.75 -6.52,0.22 -8.067,-3.556 C 27.695,32.357 27.583,25.941 24.873,20.434 21.382,14.454 17.966,8.417 12.406,4.009 8.563,1.767 4.581,-0.043 0,0"
             style="fill:#857d47;fill-opacity:1;fill-rule:nonzero;stroke:none"
             id="path82"
             inkscape:connector-curvature="0" /></g><g
           id="g84"
           transform="translate(830.8921,466.2881)"><path
             d="m 0,0 c -4.329,-0.694 -8.542,-1.276 -12.298,-4.163 -8.921,-6.854 -20.578,-6.416 -30.447,-10.859 1.882,5.133 0.619,10.432 0.823,15.655 6.133,2.298 12.393,3.799 19.015,3.006 7.68,-3.368 8.791,-2.872 9.132,4.08 C -8.869,10.11 -3.957,7.257 0.954,7.734 1.061,5.104 1.66,2.412 0,0"
             style="fill:#75adcc;fill-opacity:1;fill-rule:nonzero;stroke:none"
             id="path86"
             inkscape:connector-curvature="0" /></g><g
           id="g88"
           transform="translate(876.7915,667.8242)"><path
             d="m 0,0 c 0.426,0.385 0.853,0.77 1.278,1.154 5.908,4.234 10.176,9.898 13.953,15.991 0.843,-0.041 1.682,-0.073 1.989,0.977 l 0.033,0.019 c 0,0 0.38,-0.055 0.38,-0.055 l 0.383,0.023 c 1.579,-2.046 0.028,-5.517 3.128,-6.871 C 17.028,4.924 12.035,-0.785 8.403,-7.44 7.488,-9.116 6.41,-11.057 3.875,-10.6 2.447,-10.342 2.3,-11.365 1.993,-12.316 c -1.275,-3.942 -3.576,-7.305 -6.024,-10.58 -3.619,-0.573 -6.759,1.168 -10.071,2.084 2.712,5.507 2.824,11.924 6.034,17.255 C -0.33,-5.167 -0.33,-5.167 0,0"
             style="fill:#75adcc;fill-opacity:1;fill-rule:nonzero;stroke:none"
             id="path90"
             inkscape:connector-curvature="0" /></g><g
           id="g92"
           transform="translate(869.7148,521.168)"><path
             d="m 0,0 c -1.178,-1.434 -2.906,-0.655 -4.335,-1.081 -3.153,3.056 -7.451,4.048 -11.104,6.189 -3.252,1.906 -6.556,3.791 -9.269,6.494 0.39,5.002 -0.645,10.104 1.041,15.016 C -15.647,22.997 -7.628,19.376 0.39,15.755 0.259,10.504 0.129,5.252 0,0"
             style="fill:#75adcc;fill-opacity:1;fill-rule:nonzero;stroke:none"
             id="path94"
             inkscape:connector-curvature="0" /></g><g
           id="g96"
           transform="translate(892.0225,684.9692)"><path
             d="m 0,0 c -3.777,-6.093 -8.045,-11.757 -13.953,-15.991 -4.512,7.752 -4.373,7.648 1.166,15.109 1.69,2.276 4.62,3.917 4.614,7.307 7.167,5.399 14.262,10.908 22.484,14.687 2.524,1.16 4.925,2.643 7.752,3.029 -0.962,-2.968 -4.196,-4.491 -4.854,-7.649 -0.1,-0.508 -1.213,-0.872 -0.214,-1.533 l 0.068,0.079 C 13.697,15.284 12.375,12.244 10.113,10.713 9.848,10.51 9.823,10.279 10.04,10.019 L 9.955,9.954 C 9.335,9.971 9.046,9.659 9.052,9.05 L 8.958,8.956 C 8.349,8.958 8.057,8.644 8.05,8.046 L 7.962,7.958 C 7.372,7.937 7.067,7.631 7.049,7.041 L 6.968,6.96 C 6.659,6.65 6.35,6.341 6.041,6.031 L 5.984,5.968 C 4.278,5.204 2.956,4.146 3.002,2.049 L 2.968,2.002 C 2.653,1.667 2.337,1.332 2.022,0.996 L 1.989,0.977 C 1.087,1.137 0.417,0.827 0,0"
             style="fill:#a69e7a;fill-opacity:1;fill-rule:nonzero;stroke:none"
             id="path98"
             inkscape:connector-curvature="0" /></g><g
           id="g100"
           transform="translate(879.8062,462.6152)"><path
             d="m 0,0 c -1.326,0.08 -2.651,0.161 -3.973,0.241 -0.167,0.186 -0.351,0.2 -0.548,0.044 -8.111,0.154 -16.223,0.309 -24.332,0.463 0.021,4.097 0.04,8.194 0.06,12.291 7.928,0.54 15.801,-0.186 23.669,-1.024 1.966,-0.209 3.89,-0.531 5.497,-1.812 C 0.427,7.005 0.483,3.808 0.541,0.61 0.243,0.511 0.062,0.308 0,0"
             style="fill:#75adcc;fill-opacity:1;fill-rule:nonzero;stroke:none"
             id="path102"
             inkscape:connector-curvature="0" /></g><g
           id="g104"
           transform="translate(909.2314,701.4609)"><path
             d="M 0,0 C 0.658,3.158 3.892,4.682 4.854,7.649 9.326,9.926 16.409,8.543 20.72,8.565 10.904,2.683 4.133,-6.205 -3.598,-14.015 c -2.668,-2.694 -5.139,-5.584 -7.699,-8.384 -3.099,1.355 -1.548,4.825 -3.124,6.873 0.061,0.347 0.121,0.692 0.18,1.037 l 0.034,0.046 c 1.418,0.984 3.11,1.76 2.982,3.92 l 0.057,0.062 c 0.762,-0.142 1.056,0.183 0.927,0.93 0,0 0.081,0.08 0.08,0.08 0.761,-0.148 1.037,0.186 0.914,0.918 l 0.088,0.087 c 0.743,-0.136 1.029,0.184 0.908,0.91 0,0 0.094,0.095 0.094,0.095 0.729,-0.127 1.029,0.175 0.903,0.903 0,0 0.085,0.065 0.085,0.066 0.753,-0.502 1.209,-0.055 1.628,0.509 2.02,1.238 4.099,2.405 5.395,4.509 0,0 -0.068,-0.079 -0.069,-0.079 0.459,0.491 0.917,0.983 1.375,1.474 z"
             style="fill:#75adcc;fill-opacity:1;fill-rule:nonzero;stroke:none"
             id="path106"
             inkscape:connector-curvature="0" /></g><g
           id="g108"
           transform="translate(1095.251,631.1587)"><path
             d="m 0,0 c 2.115,-0.285 5.379,0.297 2.715,-3.598 -10.329,-8.739 -10.329,-8.739 -4.222,-19.583 -2.777,0.275 -5.098,1.413 -6.75,3.704 -5.031,6.984 -10.038,13.986 -15.055,20.984 3.493,0.422 6.01,2.841 8.958,4.378 C -10.024,2.813 -5.536,0.129 0,0"
             style="fill:#75adcc;fill-opacity:1;fill-rule:nonzero;stroke:none"
             id="path110"
             inkscape:connector-curvature="0" /></g><g
           id="g112"
           transform="translate(1035.2148,695.7163)"><path
             d="M 0,0 C -1.981,-2.283 -0.565,-5.594 -2.399,-7.921 -10.741,0.9 -18.005,10.125 -26.34,18.95 c -1.116,1.182 -3.13,4.235 -3.042,5.584 0.057,0.853 7.951,-1.176 11.074,-2.254 1.382,-2.599 2.764,-5.197 4.146,-7.796 -0.826,-2.022 0.619,-2.103 1.949,-2.281 l -0.086,0.075 c 1.166,-2.254 3.394,-3.287 5.34,-4.644 0.485,-0.465 0.939,-1.065 1.683,-0.376 L -5.199,7.203 C -5.383,6.417 -5.113,6.082 -4.294,6.294 L -4.218,6.206 C -4.692,4.481 -3.5,3.89 -2.264,3.328 L -2.18,3.229 C -2.156,2.644 -1.862,2.33 -1.269,2.314 L -1.185,2.229 C -1.166,1.636 -0.867,1.322 -0.267,1.307 L -0.198,1.23 C -0.133,0.82 -0.066,0.41 0,0"
             style="fill:#75adcc;fill-opacity:1;fill-rule:nonzero;stroke:none"
             id="path114"
             inkscape:connector-curvature="0" /></g><g
           id="g116"
           transform="translate(857.8516,509.2939)"><path
             d="m 0,0 c -1.739,-2.542 2.016,-7.136 -3.133,-8.404 -6.296,1.748 -12.106,4.644 -17.876,7.637 -0.042,4.419 -0.082,8.838 -0.123,13.256 C -13.986,9.909 -6.839,7.328 0.306,4.748 0.203,3.166 0.101,1.583 0,0"
             style="fill:#75adcc;fill-opacity:1;fill-rule:nonzero;stroke:none"
             id="path118"
             inkscape:connector-curvature="0" /></g><g
           id="g120"
           transform="translate(1001.2275,558.6079)"><path
             d="m 0,0 c -4.474,2.66 -9.038,2.696 -14.301,2.547 -6.512,-0.183 -13.304,0.288 -19.804,0.891 -6.457,0.6 -12.406,1.892 -18.552,-1.02 -1.193,-0.564 -2.926,0.014 -4.412,0.065 -0.535,1.684 -1.396,3.315 -0.853,5.177 15.839,-0.307 31.659,0.434 47.488,0.724 3.284,0.06 6.928,2.07 9.967,-0.967 C -0.31,4.944 -0.154,2.472 0,0"
             style="fill:#a69e7a;fill-opacity:1;fill-rule:nonzero;stroke:none"
             id="path122"
             inkscape:connector-curvature="0" /></g><g
           id="g124"
           transform="translate(837.8184,626.5786)"><path
             d="m 0,0 c 4.581,-0.043 8.563,1.767 12.401,4.003 3.129,-1.347 5.495,-4.194 9.086,-4.64 -4.245,-5.91 -8.507,-11.809 -12.727,-17.738 -1.657,-2.327 -4.004,-3.365 -6.694,-3.852 0.83,1.42 1.615,2.868 2.498,4.254 3.898,6.121 3.724,6.991 -2.171,11.126 -1.484,1.041 -2.88,2.208 -4.316,3.317 C -3.716,-1.027 -2.389,-0.225 0,0"
             style="fill:#75adcc;fill-opacity:1;fill-rule:nonzero;stroke:none"
             id="path126"
             inkscape:connector-curvature="0" /></g><g
           id="g128"
           transform="translate(859.3052,625.9419)"><path
             d="m 0,0 c -3.591,0.446 -5.957,3.293 -9.085,4.64 5.564,4.414 8.981,10.451 12.471,16.43 3.31,-0.915 6.45,-2.657 10.07,-2.083 C 8.97,12.657 4.485,6.329 0,0"
             style="fill:#75adcc;fill-opacity:1;fill-rule:nonzero;stroke:none"
             id="path130"
             inkscape:connector-curvature="0" /></g><g
           id="g132"
           transform="translate(795.9351,602.0195)"><path
             d="m 0,0 c -0.098,-7.379 -0.195,-14.758 -0.295,-22.136 -5.433,4.483 -9.487,9.915 -11.624,16.694 -0.568,1.804 -1.15,3.552 1.265,4.487 3.136,0.73 4.689,3.769 7.421,5.089 C -3.438,1.753 -0.87,1.541 0,0"
             style="fill:#75adcc;fill-opacity:1;fill-rule:nonzero;stroke:none"
             id="path134"
             inkscape:connector-curvature="0" /></g><g
           id="g136"
           transform="translate(784.9995,615.0806)"><path
             d="m 0,0 c 1.15,7.011 2.466,13.97 6.316,20.129 2.718,-0.475 5.667,0.534 8.18,-1.273 C 12.695,12.63 10.197,6.569 10.01,-0.041 6.673,-0.027 3.336,-0.014 0,0"
             style="fill:#75adcc;fill-opacity:1;fill-rule:nonzero;stroke:none"
             id="path138"
             inkscape:connector-curvature="0" /></g><g
           id="g140"
           transform="translate(851.0127,475.6543)"><path
             d="m 0,0 c -0.02,-4.097 -0.039,-8.194 -0.06,-12.291 -5.367,-0.566 -10.695,-0.973 -14.87,3.507 -0.559,2.305 -1.567,4.575 -0.517,6.999 C -10.66,1.937 -5.219,0.009 0,0"
             style="fill:#75adcc;fill-opacity:1;fill-rule:nonzero;stroke:none"
             id="path142"
             inkscape:connector-curvature="0" /></g><g
           id="g144"
           transform="translate(788.9868,566.9883)"><path
             d="m 0,0 c -1.612,-3.82 -0.619,-7.84 -0.91,-11.762 -0.155,-2.093 0.563,-4.328 -0.966,-6.209 -5.586,4.777 -11.07,9.614 -10.298,18.025 1.254,2.079 3.354,2.942 5.461,3.796 1.142,-0.251 2.284,-0.501 3.427,-0.752 0.784,-0.731 1.567,-1.462 2.35,-2.194 0.312,-0.3 0.624,-0.601 0.937,-0.902 z"
             style="fill:#75adcc;fill-opacity:1;fill-rule:nonzero;stroke:none"
             id="path146"
             inkscape:connector-curvature="0" /></g><g
           id="g148"
           transform="translate(788.9697,466.9209)"><path
             d="m 0,0 c -0.204,-5.223 1.06,-10.521 -0.822,-15.655 -3.284,-1.133 -6.426,-1.546 -8.823,1.761 -1.001,2.075 -2.004,4.147 -3.005,6.223 C -11.52,-0.018 -5.314,-0.744 0,0"
             style="fill:#75adcc;fill-opacity:1;fill-rule:nonzero;stroke:none"
             id="path150"
             inkscape:connector-curvature="0" /></g><g
           id="g152"
           transform="translate(1093.7441,607.978)"><path
             d="M 0,0 C -6.107,10.843 -6.107,10.843 4.222,19.583 5.426,12.905 5.38,6.16 5.271,-0.587 5.242,-2.38 5.523,-4.338 3.177,-5.053 2.117,-3.369 1.059,-1.685 0,0"
             style="fill:#857d47;fill-opacity:1;fill-rule:nonzero;stroke:none"
             id="path154"
             inkscape:connector-curvature="0" /></g><g
           id="g156"
           transform="translate(1080.8975,637.0439)"><path
             d="m 0,0 c -2.948,-1.538 -5.466,-3.957 -8.959,-4.378 -3.11,4.703 -6.223,9.41 -9.334,14.116 3.148,0.633 6.678,0.399 8.619,3.779 C -6.706,8.826 -3.878,4.037 0,0"
             style="fill:#75adcc;fill-opacity:1;fill-rule:nonzero;stroke:none"
             id="path158"
             inkscape:connector-curvature="0" /></g><g
           id="g160"
           transform="translate(769.9932,581.9775)"><path
             d="m 0,0 c -0.926,2.282 -1.069,4.679 -1.035,7.089 -0.012,0.326 -0.025,0.663 -0.038,1 -0.034,1.225 -0.067,2.451 -0.101,3.665 -0.006,0.56 -0.012,1.132 -0.018,1.703 -0.001,0.977 -0.001,1.953 -0.002,2.922 0.111,1.496 0.222,3 0.333,4.504 0,0 0.003,0.026 0.003,0.026 1.726,-0.298 3.894,0.57 4.822,-1.83 C 6.339,13.232 6.025,6.656 8.885,0.941 5.924,0.624 2.807,1.777 0,0"
             style="fill:#75adcc;fill-opacity:1;fill-rule:nonzero;stroke:none"
             id="path162"
             inkscape:connector-curvature="0" /></g><g
           id="g164"
           transform="translate(769.9932,581.9775)"><path
             d="m 0,0 c 2.807,1.777 5.924,0.624 8.885,0.941 1.987,-3.786 3.776,-7.627 3.395,-12.079 -2.106,-0.855 -4.206,-1.718 -5.46,-3.798 C 2.719,-10.792 0.603,-5.742 0,0"
             style="fill:#75adcc;fill-opacity:1;fill-rule:nonzero;stroke:none"
             id="path166"
             inkscape:connector-curvature="0" /></g><g
           id="g168"
           transform="translate(835.8955,623.0483)"><path
             d="m 0,0 c 1.436,-1.109 2.832,-2.276 4.315,-3.316 5.895,-4.136 6.07,-5.006 2.172,-11.126 -0.883,-1.387 -1.668,-2.835 -2.498,-4.255 -0.923,-1.146 -1.845,-2.293 -2.769,-3.44 -2.076,1.122 -2.091,3.076 -2.156,5.086 C -1.122,-11.336 -0.775,-5.658 0,0"
             style="fill:#857d47;fill-opacity:1;fill-rule:nonzero;stroke:none"
             id="path170"
             inkscape:connector-curvature="0" /></g><g
           id="g172"
           transform="translate(784.9995,615.0806)"><path
             d="M 0,0 C 3.336,-0.014 6.673,-0.027 10.01,-0.041 10.58,-3.119 10.155,-6.049 8.7,-8.827 8.368,-8.862 8.035,-8.894 7.702,-8.927 4.971,-10.247 3.417,-13.286 0.282,-14.016 -2.397,-9.396 -0.757,-4.689 0,0"
             style="fill:#75adcc;fill-opacity:1;fill-rule:nonzero;stroke:none"
             id="path174"
             inkscape:connector-curvature="0" /></g><g
           id="g176"
           transform="translate(1001.2275,558.6079)"><path
             d="M 0,0 C -0.154,2.472 -0.31,4.944 -0.467,7.417 2.322,6.898 4.74,5.642 8.04,6.78 11.766,8.064 13.764,5.286 13.568,1.354 11.421,1.935 9.743,0.962 8.081,-0.22 5.357,-2.158 2.629,-2.42 0,0"
             style="fill:#a69e7a;fill-opacity:1;fill-rule:nonzero;stroke:none"
             id="path178"
             inkscape:connector-curvature="0" /></g><g
           id="g180"
           transform="translate(898.0259,548.4868)"><path
             d="M 0,0 C -0.031,5.431 -2.328,10.858 -0.02,16.292 3.129,14.879 5.564,12.468 8.24,10.396 7.855,6.861 8.138,2.939 2.615,3.274 0.877,3.379 1.149,0.903 0,0"
             style="fill:#75adcc;fill-opacity:1;fill-rule:nonzero;stroke:none"
             id="path182"
             inkscape:connector-curvature="0" /></g><g
           id="g184"
           transform="translate(792.7017,606.1538)"><path
             d="m 0,0 c 0.333,0.033 0.666,0.065 0.998,0.1 5.022,-1.849 8.895,-4.823 11.64,-9.676 2.634,-4.658 7.677,-7.676 9.591,-12.973 -5.532,3.891 -10.561,8.316 -14.708,13.702 C 6.226,-7.165 5.238,-5.182 3.234,-4.135 2.363,-2.594 -0.205,-2.381 0,0"
             style="fill:#a69e7a;fill-opacity:1;fill-rule:nonzero;stroke:none"
             id="path186"
             inkscape:connector-curvature="0" /></g><g
           id="g188"
           transform="translate(869.7148,521.168)"><path
             d="M 0,0 C 0.129,5.252 0.259,10.504 0.39,15.755 3.969,14.808 7.497,13.773 9.727,10.448 5.066,8.286 4.831,2.004 0,0"
             style="fill:#75adcc;fill-opacity:1;fill-rule:nonzero;stroke:none"
             id="path190"
             inkscape:connector-curvature="0" /></g><g
           id="g192"
           transform="translate(880.3467,463.2256)"><path
             d="M 0,0 C -0.057,3.197 -0.114,6.395 -0.168,9.593 2.594,10.305 5.186,9.537 7.766,8.69 7.731,5.493 7.698,2.296 7.665,-0.901 6.604,-0.881 5.543,-0.861 4.484,-0.842 3.134,0.203 1.471,-0.412 0,0"
             style="fill:#a69e7a;fill-opacity:1;fill-rule:nonzero;stroke:none"
             id="path194"
             inkscape:connector-curvature="0" /></g><g
           id="g196"
           transform="translate(799.4951,633.937)"><path
             d="M 0,0 C -2.512,1.807 -5.461,0.798 -8.18,1.273 -5.634,6.013 -2.721,10.486 1.521,15.1 1.515,9.481 1.095,4.715 0,0"
             style="fill:#75adcc;fill-opacity:1;fill-rule:nonzero;stroke:none"
             id="path198"
             inkscape:connector-curvature="0" /></g><g
           id="g200"
           transform="translate(834.2041,543.9175)"><path
             d="M 0,0 C 2.169,1.812 2.545,4.402 3.019,6.949 4.321,6.922 5.75,7.522 6.783,6.178 L 6.796,-8.61 C 3.299,-6.711 -0.046,-4.694 0,0"
             style="fill:#857d47;fill-opacity:1;fill-rule:nonzero;stroke:none"
             id="path202"
             inkscape:connector-curvature="0" /></g><g
           id="g204"
           transform="translate(788.0508,567.8926)"><path
             d="m 0,0 c -0.783,0.731 -1.566,1.462 -2.35,2.194 0.454,0.86 0.565,3.16 2.005,1.622 7.581,-8.088 17.387,-13.973 23.399,-23.6 -4.674,1.564 -7.783,5.284 -10.918,8.655 -3.479,3.742 -6.89,7.441 -11.2,10.225 l 0.001,0.002 C 0.625,-0.602 0.312,-0.301 0,0"
             style="fill:#a69e7a;fill-opacity:1;fill-rule:nonzero;stroke:none"
             id="path206"
             inkscape:connector-curvature="0" /></g><g
           id="g208"
           transform="translate(810.7676,566.812)"><path
             d="M 0,0 C 0.992,1.789 2.003,3.533 4.553,2.534 6.688,1.698 7.466,0.078 7.408,-2.132 7.315,-5.746 7.298,-9.363 7.25,-12.98 3.05,-9.65 1.623,-4.771 0,0"
             style="fill:#75adcc;fill-opacity:1;fill-rule:nonzero;stroke:none"
             id="path210"
             inkscape:connector-curvature="0" /></g><g
           id="g212"
           transform="translate(1034.0635,566.6211)"><path
             d="m 0,0 c -0.015,-5.241 -0.028,-10.482 -0.042,-15.723 -0.277,0.168 -0.661,0.269 -0.817,0.515 -2.222,3.485 -4.784,6.499 -9.267,6.972 C -7.15,-4.999 -3.776,-2.252 0,0"
             style="fill:#75adcc;fill-opacity:1;fill-rule:nonzero;stroke:none"
             id="path214"
             inkscape:connector-curvature="0" /></g><g
           id="g216"
           transform="translate(943.3057,566.2676)"><path
             d="M 0,0 C -0.543,-1.862 0.318,-3.492 0.853,-5.176 -0.445,-5.271 -2.01,-4.93 -2.997,-5.534 -7.247,-8.135 -9.806,-6 -12.106,-2.707 -8.579,0.467 -4.447,0.938 0,0"
             style="fill:#a69e7a;fill-opacity:1;fill-rule:nonzero;stroke:none"
             id="path218"
             inkscape:connector-curvature="0" /></g><g
           id="g220"
           transform="translate(888.0112,462.3242)"><path
             d="M 0,0 C 0.033,3.197 0.066,6.395 0.101,9.592 2.068,10.368 3.896,9.564 5.723,9.043 8.25,8.321 8.43,9.763 8.237,11.624 10.149,8.468 8.292,6.056 6.56,3.718 5.404,2.158 3.978,0.798 2.672,-0.651 1.782,-0.435 0.891,-0.217 0,0"
             style="fill:#857d47;fill-opacity:1;fill-rule:nonzero;stroke:none"
             id="path222"
             inkscape:connector-curvature="0" /></g><g
           id="g224"
           transform="translate(841,535.3076)"><path
             d="M 0,0 -0.013,14.788 C 1.673,14.019 3.36,13.249 5.047,12.479 3.362,7.566 4.396,2.465 4.007,-2.538 2.672,-1.692 1.336,-0.846 0,0"
             style="fill:#a69e7a;fill-opacity:1;fill-rule:nonzero;stroke:none"
             id="path226"
             inkscape:connector-curvature="0" /></g><g
           id="g228"
           transform="translate(836.7197,521.7832)"><path
             d="m 0,0 c 0.041,-4.418 0.081,-8.837 0.123,-13.256 -1.329,0.539 -2.658,1.078 -3.985,1.617 -0.333,0.178 -0.668,0.357 -1.003,0.535 0,0 -0.171,0.131 -0.17,0.131 0.101,3.946 0.201,7.891 0.3,11.837 C -3.052,1.149 -1.457,0.954 0,0"
             style="fill:#a69e7a;fill-opacity:1;fill-rule:nonzero;stroke:none"
             id="path230"
             inkscape:connector-curvature="0" /></g><g
           id="g232"
           transform="translate(805.1465,535.9756)"><path
             d="M 0,0 C 0.788,1.897 2.245,2.327 4.06,1.744 5.832,1.174 5.994,-0.38 6.008,-1.9 6.035,-4.886 5.985,-7.871 5.968,-10.856 1.931,-8.364 -1.216,-5.381 0,0"
             style="fill:#75adcc;fill-opacity:1;fill-rule:nonzero;stroke:none"
             id="path234"
             inkscape:connector-curvature="0" /></g><g
           id="g236"
           transform="translate(1059.9727,588.0957)"><path
             d="m 0,0 c -2.18,-2.902 -5.108,-4.09 -8.685,-3.792 -0.469,3.757 1.522,6.817 2.36,10.527 C -3.301,4.744 -4.06,0.127 0,0"
             style="fill:#857d47;fill-opacity:1;fill-rule:nonzero;stroke:none"
             id="path238"
             inkscape:connector-curvature="0" /></g><g
           id="g240"
           transform="translate(831.9849,522.6475)"><path
             d="m 0,0 c -0.1,-3.946 -0.199,-7.892 -0.3,-11.837 -3.092,0.921 -5.282,2.72 -5.904,6.049 1.917,1.586 3.64,3.28 3.421,6.068 C -1.854,0.186 -0.927,0.093 0,0"
             style="fill:#857d47;fill-opacity:1;fill-rule:nonzero;stroke:none"
             id="path242"
             inkscape:connector-curvature="0" /></g><g
           id="g244"
           transform="translate(817.1167,474.0068)"><path
             d="M 0,0 C -0.34,-6.952 -1.451,-7.448 -9.131,-4.08 -8.506,2.691 -3.51,-0.316 0,0"
             style="fill:#a69e7a;fill-opacity:1;fill-rule:nonzero;stroke:none"
             id="path246"
             inkscape:connector-curvature="0" /></g><g
           id="g248"
           transform="translate(881.0415,582.0181)"><path
             d="m 0,0 c -3.226,-0.286 -6.111,0.368 -8.286,2.994 3.17,1.03 3.69,4.349 5.659,7.251 C -1.213,6.483 0.572,3.578 0,0"
             style="fill:#857d47;fill-opacity:1;fill-rule:nonzero;stroke:none"
             id="path250"
             inkscape:connector-curvature="0" /></g><g
           id="g252"
           transform="translate(773.957,601.0566)"><path
             d="M 0,0 C -0.928,2.399 -3.096,1.532 -4.822,1.83 -5.073,5.011 -4.365,8.075 -3.654,12.046 -2.037,7.563 1.067,4.47 0,0"
             style="fill:#75adcc;fill-opacity:1;fill-rule:nonzero;stroke:none"
             id="path254"
             inkscape:connector-curvature="0" /></g><g
           id="g256"
           transform="translate(1044.8945,574.6597)"><path
             d="m 0,0 c -1.765,-1.956 -3.862,-3.476 -6.175,-4.712 10e-4,2.4 10e-4,4.8 10e-4,8.018 C -3.718,1.782 -2.312,-0.142 0,0"
             style="fill:#a69e7a;fill-opacity:1;fill-rule:nonzero;stroke:none"
             id="path258"
             inkscape:connector-curvature="0" /></g><g
           id="g260"
           transform="translate(835.5654,473.8691)"><path
             d="m 0,0 c -1.05,-2.424 -0.042,-4.694 0.517,-6.999 -1.657,-0.843 -3.411,-0.812 -5.189,-0.582 1.659,2.412 1.06,5.103 0.953,7.734 C -2.48,0.103 -1.24,0.051 0,0"
             style="fill:#a69e7a;fill-opacity:1;fill-rule:nonzero;stroke:none"
             id="path262"
             inkscape:connector-curvature="0" /></g><g
           id="g264"
           transform="translate(893.519,568.0576)"><path
             d="m 0,0 c -2.296,1.021 -4.116,2.652 -5.764,4.504 2.041,0.104 3.223,1.829 5.263,2.91 C -0.322,4.758 -0.161,2.379 0,0"
             style="fill:#a69e7a;fill-opacity:1;fill-rule:nonzero;stroke:none"
             id="path266"
             inkscape:connector-curvature="0" /></g><g
           id="g268"
           transform="translate(865.4414,595.9146)"><path
             d="m 0,0 c -2.226,0.054 -4.452,0.108 -6.678,0.162 2.418,2.176 1.96,5.177 2.278,7.955 L -4.444,8.07 C -1.904,5.963 -1.054,2.925 0,0"
             style="fill:#857d47;fill-opacity:1;fill-rule:nonzero;stroke:none"
             id="path270"
             inkscape:connector-curvature="0" /></g><g
           id="g272"
           transform="translate(1073.4443,599.9307)"><path
             d="M 0,0 C -1.915,-0.852 -3.902,-1.214 -5.992,-0.896 -5.27,1.917 -3.996,4.435 -1.903,7.402 -0.884,4.518 -1.598,1.907 0,0"
             style="fill:#857d47;fill-opacity:1;fill-rule:nonzero;stroke:none"
             id="path274"
             inkscape:connector-curvature="0" /></g><g
           id="g276"
           transform="translate(857.8516,509.2939)"><path
             d="M 0,0 C 0.101,1.583 0.203,3.166 0.306,4.748 2.323,3.935 4.339,3.122 6.357,2.309 5.135,-0.931 2.683,-0.783 0,0"
             style="fill:#75adcc;fill-opacity:1;fill-rule:nonzero;stroke:none"
             id="path278"
             inkscape:connector-curvature="0" /></g><g
           id="g280"
           transform="translate(769.1318,602.8608)"><path
             d="M 0,0 C -0.111,-1.504 -0.222,-3.008 -0.333,-4.504 -0.9,-2.948 -0.472,-1.472 0,0"
             style="fill:#75adcc;fill-opacity:1;fill-rule:nonzero;stroke:none"
             id="path282"
             inkscape:connector-curvature="0" /></g><g
           id="g284"
           transform="translate(815.1567,543.8359)"><path
             d="M 0,0 C -1.311,0.825 -2.66,1.613 -3.079,3.275 -0.923,3.246 -0.312,1.764 0,0"
             style="fill:#a69e7a;fill-opacity:1;fill-rule:nonzero;stroke:none"
             id="path286"
             inkscape:connector-curvature="0" /></g><g
           id="g288"
           transform="translate(768.8008,595.4341)"><path
             d="M 0,0 C 0.006,-0.571 0.012,-1.142 0.019,-1.702 -0.393,-1.131 -0.393,-0.568 0,0"
             style="fill:#75adcc;fill-opacity:1;fill-rule:nonzero;stroke:none"
             id="path290"
             inkscape:connector-curvature="0" /></g><g
           id="g292"
           transform="translate(768.9199,590.0664)"><path
             d="M 0,0 C 0.013,-0.337 0.026,-0.674 0.039,-1 -0.04,-0.754 -0.14,-0.524 -0.183,-0.284 -0.197,-0.203 -0.065,-0.095 0,0"
             style="fill:#75adcc;fill-opacity:1;fill-rule:nonzero;stroke:none"
             id="path294"
             inkscape:connector-curvature="0" /></g><g
           id="g296"
           transform="translate(1050.0723,663.6035)"><path
             d="M 0,0 C 1.176,0.354 2.35,0.471 3.522,-0.021 2.349,-0.115 1.168,-0.903 0,0"
             style="fill:#75adcc;fill-opacity:1;fill-rule:nonzero;stroke:none"
             id="path298"
             inkscape:connector-curvature="0" /></g><g
           id="g300"
           transform="translate(812.1104,547.083)"><path
             d="M 0,0 C -0.637,0.042 -1.007,0.352 -1.017,1.02 -0.086,1.27 0.255,0.932 0,0"
             style="fill:#a69e7a;fill-opacity:1;fill-rule:nonzero;stroke:none"
             id="path302"
             inkscape:connector-curvature="0" /></g><g
           id="g304"
           transform="translate(861.041,604.0317)"><path
             d="m 0,0 -0.298,0.168 c 0,0 0.254,-0.215 0.254,-0.215 C -0.043,-0.047 0,0 0,0"
             style="fill:#857d47;fill-opacity:1;fill-rule:nonzero;stroke:none"
             id="path306"
             inkscape:connector-curvature="0" /></g><g
           id="g308"
           transform="translate(831.855,510.6787)"><path
             d="M 0,0 C 0.335,-0.178 0.669,-0.356 1.002,-0.534 0.667,-0.355 0.333,-0.178 0,0"
             style="fill:#857d47;fill-opacity:1;fill-rule:nonzero;stroke:none"
             id="path310"
             inkscape:connector-curvature="0" /></g><g
           id="g312"
           transform="translate(1061.0283,588.9766)"><path
             d="M 0,0 C -0.367,-0.306 -0.734,-0.612 -1.103,-0.918 -0.734,-0.612 -0.367,-0.306 0,0"
             style="fill:#857d47;fill-opacity:1;fill-rule:nonzero;stroke:none"
             id="path314"
             inkscape:connector-curvature="0" /></g><g
           id="g316"
           transform="translate(1003.8496,452.8516)"><path
             d="M 0,0 C 0.992,0.867 2.313,1.549 2.925,2.632 6.636,9.189 12.9,11.408 19.68,12.838 19.539,11.736 19.403,10.633 19.268,9.529 18.121,8.877 17.086,8.07 19.095,7.332 c 5.021,-1.848 8.34,-4.501 6.129,-10.579 -0.458,-1.262 0.935,-1.436 1.901,-1.596 2.016,-1.464 4.031,-1.449 6.05,-0.005 0.651,-0.006 1.304,-0.01 1.956,-0.015 6.13,-2.134 12.459,-0.54 18.682,-0.954 1.327,-0.088 3.479,-0.668 3.64,1.43 0.158,2.072 -1.779,2.424 -3.524,2.662 -3.242,0.443 -6.644,-0.899 -9.76,0.881 1.077,0.977 2.132,1.98 3.244,2.914 0.366,0.308 1.263,0.643 1.275,0.62 3.14,-5.829 7.869,1.054 11.307,-1.595 -1.298,-2.567 -1.293,-2.556 1.715,-3.843 2.108,-0.902 4.443,-1.561 4.977,-4.292 -0.849,-0.393 -1.781,-0.681 -2.124,-1.702 -0.994,-0.511 -3.168,0.035 -2.258,-2.234 1.323,-3.295 -1.172,-3.965 -3.227,-4.993 -0.863,0.932 -1.991,1.101 -3.177,1.101 -7.776,-0.002 -15.552,-0.005 -23.33,-0.005 -1.358,-0.001 -2.646,-0.183 -3.574,-1.335 -0.635,0.157 -1.356,0.17 -1.892,0.492 -5.541,3.339 -11.573,4.804 -17.996,4.837 0.049,1.312 0.282,2.648 0.108,3.928 C 8.838,-4.142 10.514,0.89 8.132,1.029 4.42,1.247 2.531,-3.18 1.299,-6.812 1.199,-7.106 1.285,-7.463 1.284,-7.791 0.866,-7.764 0.448,-7.736 0.031,-7.709 0.021,-5.139 0.011,-2.569 0,0"
             style="fill:#a69e7a;fill-opacity:1;fill-rule:nonzero;stroke:none"
             id="path318"
             inkscape:connector-curvature="0" /></g><g
           id="g320"
           transform="translate(840.9546,405.1611)"><path
             d="m 0,0 c 0.355,1 1.26,0.811 2.021,0.934 2.711,-4.3 3.155,-10.274 9.034,-12.235 3.514,-3.63 7.44,-1.393 11.251,-0.789 0.927,-0.111 1.476,-0.645 1.731,-1.526 2.599,-8.983 4.15,-18.151 3.56,-27.492 -0.282,-4.461 -4.524,-6.009 -7.828,-8.028 -0.249,0.095 -0.432,0.022 -0.546,-0.218 -0.705,-0.223 -1.411,-0.447 -2.117,-0.669 C 14.666,-41.1 10.968,-32.61 8.04,-23.861 5.375,-15.902 1.529,-8.338 0,0"
             style="fill:#75adcc;fill-opacity:1;fill-rule:nonzero;stroke:none"
             id="path322"
             inkscape:connector-curvature="0" /></g><g
           id="g324"
           transform="translate(863.2607,393.0713)"><path
             d="m 0,0 c -3.811,-0.604 -7.737,-2.841 -11.251,0.79 -2.002,9.581 -0.805,19.309 -1.343,28.956 2.705,2.829 5.662,5.302 9.393,6.676 2.744,-0.655 4.014,0.394 3.967,3.256 C 0.686,44.44 0.714,49.205 0.698,53.969 1.277,54.3 1.856,54.63 2.434,54.96 3.847,54.565 5.271,54.191 6.331,53.063 3.352,47.686 4.479,42.177 5.809,36.662 4.051,35.641 2.602,34.622 2.718,32.105 3.124,23.321 1.987,14.479 3.755,5.744 3.775,2.998 0.519,2.394 0,0"
             style="fill:#75adcc;fill-opacity:1;fill-rule:nonzero;stroke:none"
             id="path326"
             inkscape:connector-curvature="0" /></g><g
           id="g328"
           transform="translate(1070.332,384.917)"><path
             d="m 0,0 c 2.28,4.363 5.645,5.985 10.663,5.122 3.273,-0.563 5.919,1.682 8.464,4.042 0.054,-4.678 -1.795,-8.68 -3.197,-12.75 -2.658,-7.711 -5.527,-15.35 -8.279,-23.029 -0.63,-1.757 -1.371,-3.403 -3.005,-4.466 -5.409,2.185 -7.794,6.062 -7.334,11.995 C -2.187,-12.655 -1.625,-6.261 0,0"
             style="fill:#75adcc;fill-opacity:1;fill-rule:nonzero;stroke:none"
             id="path330"
             inkscape:connector-curvature="0" /></g><g
           id="g332"
           transform="translate(840.9546,405.1611)"><path
             d="m 0,0 c 1.529,-8.338 5.375,-15.902 8.04,-23.861 2.928,-8.749 6.626,-17.239 9.066,-26.162 -3.693,-0.822 -6.019,1.547 -8.143,3.827 C -2.484,-33.913 -5.758,-19.358 -2.673,-3.117 -2.38,-1.572 -1.885,-0.187 0,0"
             style="fill:#75adcc;fill-opacity:1;fill-rule:nonzero;stroke:none"
             id="path334"
             inkscape:connector-curvature="0" /></g><g
           id="g336"
           transform="translate(1003.8496,452.8516)"><path
             d="m 0,0 c 0.011,-2.569 0.021,-5.139 0.031,-7.709 -18.564,-1.334 -37.143,-0.995 -55.722,-0.512 -5.819,0.151 -11.558,1.021 -17.213,2.403 0.063,5.207 -4.879,5.511 -7.717,7.878 -0.421,0.371 -0.843,0.741 -1.264,1.111 l 0.043,-0.052 c -0.163,2.299 -3.214,4.168 -1.012,6.817 9.09,-11 20.483,-15.323 34.922,-14.373 9.145,0.602 18.545,-0.062 27.791,-0.674 C -12.714,-5.604 -6.146,-3.946 0,0"
             style="fill:#a69e7a;fill-opacity:1;fill-rule:nonzero;stroke:none"
             id="path338"
             inkscape:connector-curvature="0" /></g><g
           id="g340"
           transform="translate(867.0161,398.8154)"><path
             d="m 0,0 c -1.768,8.734 -0.631,17.577 -1.038,26.361 -0.116,2.517 1.334,3.535 3.091,4.557 2.929,1.154 4.875,3.561 7.117,5.59 C 12.868,31.721 12.002,26.55 10.258,21.42 7.696,13.882 3.45,7.126 0,0"
             style="fill:#75adcc;fill-opacity:1;fill-rule:nonzero;stroke:none"
             id="path342"
             inkscape:connector-curvature="0" /></g><g
           id="g344"
           transform="translate(1068.6621,426.1621)"><path
             d="m 0,0 c 0.111,-7.212 0.222,-14.424 0.334,-21.636 0.024,-1.551 -0.194,-2.972 -1.91,-3.601 -3.214,5.911 -6.645,11.748 -8.463,18.274 -1.292,4.642 -1.79,9.368 1.535,13.567 2.279,-2.427 4.686,-4.689 7.809,-6.02 C -0.483,0.366 -0.252,0.171 0,0"
             style="fill:#75adcc;fill-opacity:1;fill-rule:nonzero;stroke:none"
             id="path346"
             inkscape:connector-curvature="0" /></g><g
           id="g348"
           transform="translate(850.667,422.8174)"><path
             d="m 0,0 c 0.538,-9.647 -0.66,-19.375 1.342,-28.956 -5.879,1.96 -6.322,7.934 -9.033,12.233 C -10.373,-8.736 -5.351,-4.292 0,0"
             style="fill:#75adcc;fill-opacity:1;fill-rule:nonzero;stroke:none"
             id="path350"
             inkscape:connector-curvature="0" /></g><g
           id="g352"
           transform="translate(863.9585,447.04)"><path
             d="m 0,0 c 0.017,-4.764 -0.012,-9.528 0.068,-14.291 0.048,-2.861 -1.222,-3.911 -3.967,-3.256 0.297,0.928 -0.153,1.503 -0.804,2.131 -5.683,5.476 -5.502,8.555 0.781,13.447 C -2.757,-1.062 -1.647,0.023 0,0"
             style="fill:#a69e7a;fill-opacity:1;fill-rule:nonzero;stroke:none"
             id="path354"
             inkscape:connector-curvature="0" /></g><g
           id="g356"
           transform="translate(1032.8467,436.6436)"><path
             d="m 0,0 c 0.928,1.152 2.216,1.334 3.574,1.335 7.778,0 15.554,0.003 23.33,0.005 1.186,0 2.314,-0.169 3.178,-1.1 C 29.116,-0.528 28.149,-1.298 27.183,-2.066 17.785,-5.805 8.9,-2.801 0,0"
             style="fill:#75adcc;fill-opacity:1;fill-rule:nonzero;stroke:none"
             id="path358"
             inkscape:connector-curvature="0" /></g><g
           id="g360"
           transform="translate(896.0322,451.0176)"><path
             d="m 0,0 c -1.465,-2.553 -3.972,-1.939 -6.213,-1.975 -3.967,-0.063 -7.936,-0.071 -11.901,0.019 -1.348,0.03 -3.361,-0.514 -3.402,1.752 -0.031,1.744 1.579,2.658 3.015,2.802 3.604,0.36 7.243,0.374 10.867,0.527 1.767,-0.144 3.609,-0.358 2.582,2.674 C -3.368,3.865 -1.684,1.933 0,0"
             style="fill:#857d47;fill-opacity:1;fill-rule:nonzero;stroke:none"
             id="path362"
             inkscape:connector-curvature="0" /></g><g
           id="g364"
           transform="translate(1060.0293,434.5771)"><path
             d="M 0,0 C 0.967,0.769 1.934,1.538 2.899,2.307 4.953,3.333 7.448,4.003 6.125,7.299 5.215,9.567 7.39,9.021 8.378,9.531 9.676,3.94 8.382,-1.768 9.153,-7.381 8.748,-7.531 8.343,-7.681 7.937,-7.831 4.814,-6.5 2.408,-4.238 0.129,-1.812 0.087,-1.206 0.043,-0.604 0,0"
             style="fill:#75adcc;fill-opacity:1;fill-rule:nonzero;stroke:none"
             id="path366"
             inkscape:connector-curvature="0" /></g><g
           id="g368"
           transform="translate(923.2285,454.9111)"><path
             d="m 0,0 c 2.838,-2.366 7.78,-2.671 7.717,-7.878 -3.057,-2.935 -6.942,-2.687 -10.73,-2.8 0.582,3.915 -2.133,8.332 1.792,11.738 0,0 -0.043,0.051 -0.043,0.051 C -0.843,0.74 -0.421,0.37 0,0"
             style="fill:#a69e7a;fill-opacity:1;fill-rule:nonzero;stroke:none"
             id="path370"
             inkscape:connector-curvature="0" /></g><g
           id="g372"
           transform="translate(876.1865,435.3232)"><path
             d="m 0,0 c -2.242,-2.029 -4.188,-4.436 -7.117,-5.59 -1.33,5.515 -2.457,11.024 0.522,16.402 0.164,-3.264 0.599,-6.36 4.572,-7.207 C -1.876,3.286 -1.627,3.123 -1.278,3.116 -0.587,2.803 0.103,2.488 0.794,2.179 0.795,2.182 0.671,2.013 0.671,2.013 0.447,1.342 0.224,0.671 0,0"
             style="fill:#75adcc;fill-opacity:1;fill-rule:nonzero;stroke:none"
             id="path374"
             inkscape:connector-curvature="0" /></g><g
           id="g376"
           transform="translate(1005.1338,445.0605)"><path
             d="M 0,0 C 0.001,0.328 -0.085,0.685 0.015,0.979 1.247,4.611 3.136,9.038 6.848,8.82 9.229,8.681 7.554,3.649 7.933,0.84 8.106,-0.44 7.874,-1.776 7.825,-3.088 4.648,-3.497 1.881,-2.871 0,0"
             style="fill:#a69e7a;fill-opacity:1;fill-rule:nonzero;stroke:none"
             id="path378"
             inkscape:connector-curvature="0" /></g><g
           id="g380"
           transform="translate(876.8579,437.3359)"><path
             d="M 0,0 C 0,0 0.124,0.169 0.123,0.166 1.088,2.007 2.872,1.92 4.473,1.744 9.799,1.159 15.358,3.315 20.48,0.397 13.711,-2.657 6.89,-3.072 0,0"
             style="fill:#a69e7a;fill-opacity:1;fill-rule:nonzero;stroke:none"
             id="path382"
             inkscape:connector-curvature="0" /></g><g
           id="g384"
           transform="translate(903.1167,461.1318)"><path
             d="M 0,0 C -0.06,1.471 -0.3,2.964 -0.13,4.408 0.06,6.03 -1.2,8.718 1.142,8.992 3.216,9.235 4.593,6.757 5.858,5.096 7.135,3.419 7.177,1.729 4.78,0.819 3.187,0.547 1.593,0.273 0,0"
             style="fill:#a69e7a;fill-opacity:1;fill-rule:nonzero;stroke:none"
             id="path386"
             inkscape:connector-curvature="0" /></g><g
           id="g388"
           transform="translate(907.3613,450.9014)"><path
             d="m 0,0 c 0.399,-0.661 0.354,-1.317 -0.417,-1.538 -1.166,-0.333 -1.749,0.403 -2.03,1.444 C -1.632,-0.062 -0.816,-0.031 0,0"
             style="fill:#857d47;fill-opacity:1;fill-rule:nonzero;stroke:none"
             id="path390"
             inkscape:connector-curvature="0" /></g><g
           id="g392"
           transform="translate(880.3467,463.2256)"><path
             d="M 0,0 C 1.471,-0.412 3.134,0.203 4.484,-0.842 2.786,-1.231 1.107,-1.26 -0.541,-0.61 -0.478,-0.303 -0.298,-0.1 0,0"
             style="fill:#857d47;fill-opacity:1;fill-rule:nonzero;stroke:none"
             id="path394"
             inkscape:connector-curvature="0" /></g><g
           id="g396"
           transform="translate(875.2847,462.9004)"><path
             d="m 0,0 c 0.198,0.156 0.382,0.142 0.549,-0.044 -0.004,0 -0.294,-0.23 -0.294,-0.23 z"
             style="fill:#857d47;fill-opacity:1;fill-rule:nonzero;stroke:none"
             id="path398"
             inkscape:connector-curvature="0" /></g><g
           id="g400"
           transform="translate(860.1777,355.8076)"><path
             d="m 0,0 c 0.114,0.239 0.296,0.312 0.545,0.218 -0.001,0 -0.197,-0.322 -0.197,-0.322 z"
             style="fill:#75adcc;fill-opacity:1;fill-rule:nonzero;stroke:none"
             id="path402"
             inkscape:connector-curvature="0" /></g><g
           id="g404"
           transform="translate(1099.5146,547.9868)"><path
             d="m 0,0 c 1.131,5.122 4.178,9.138 7.631,12.857 1.109,1.195 2.598,2.019 2.399,3.955 8.375,13.564 16.983,26.96 27.934,38.663 C 38.162,48.616 38.36,41.757 38.56,34.898 35.282,29.125 31.838,23.433 25.915,19.975 23.614,18.631 23.555,16.674 23.231,14.538 21.804,5.083 10.529,-6.058 1.612,-6.914 1.358,-4.543 1.128,-2.167 0,0"
             style="fill:#75adcc;fill-opacity:1;fill-rule:nonzero;stroke:none"
             id="path406"
             inkscape:connector-curvature="0" /></g><g
           id="g408"
           transform="translate(1148.1777,557.7617)"><path
             d="m 0,0 c 1.784,-6.195 0.128,-12.573 1.002,-18.815 -4.269,-4.831 -8.83,-9.266 -15.205,-11.246 -5.192,2.175 -7.746,0.746 -7.915,-4.509 -0.074,-2.322 0.041,-4.649 0.07,-6.973 -3.972,-4.413 -8.481,-8.031 -14.313,-9.687 0.005,10e-4 -0.313,0.108 -0.313,0.108 l -0.2,-0.268 c -0.724,-0.008 -1.448,-0.017 -2.171,-0.026 0.096,2.305 0.334,4.639 -1.358,6.574 1.329,3.671 3.59,6.83 6.648,9.055 3.146,2.288 5.143,5.162 6.609,8.595 C -17.683,-18.54 -10.073,-8.04 0,0"
             style="fill:#75adcc;fill-opacity:1;fill-rule:nonzero;stroke:none"
             id="path410"
             inkscape:connector-curvature="0" /></g><g
           id="g412"
           transform="translate(1080.8975,637.0439)"><path
             d="m 0,0 c -3.878,4.037 -6.706,8.826 -9.674,13.517 -3.637,6.12 -3.892,13.42 -6.913,19.751 -1.88,3.371 -3.947,6.283 -8.371,3.404 -0.343,0.746 -0.687,1.492 -1.029,2.238 0.466,0.87 0.717,2.017 1.431,2.567 5.074,3.909 2.339,6.974 -0.687,10.461 -2.763,3.184 -6.088,6.001 -7.736,10.063 5.866,-2.508 10.208,-7.117 14.899,-11.163 1.755,-1.514 3.593,-2.603 5.548,-3.664 -6.386,-4.253 -6.227,-4.138 -1.714,-10.408 C -5.371,24.435 3.3,11.957 12.078,-0.445 13.252,-2.103 14.047,-3.881 14.351,-5.885 8.817,-5.756 4.329,-3.072 0,0"
             style="fill:#857d47;fill-opacity:1;fill-rule:nonzero;stroke:none"
             id="path414"
             inkscape:connector-curvature="0" /></g><g
           id="g416"
           transform="translate(1047.9189,699.0454)"><path
             d="m 0,0 c 1.647,-4.062 4.973,-6.88 7.735,-10.063 3.027,-3.487 5.761,-6.553 0.688,-10.462 -0.714,-0.549 -0.966,-1.697 -1.432,-2.567 -8.29,4.781 -12.404,13.447 -18.695,20.089 -0.4,0.3 -0.799,0.603 -1.198,0.904 l -0.069,0.077 c 0.03,0.641 -0.256,0.969 -0.918,0.922 l -0.084,0.085 c 0.048,0.655 -0.239,0.976 -0.911,0.914 l -0.084,0.1 c 0.353,1.641 -0.564,2.419 -1.954,2.877 0,0 -0.076,0.089 -0.076,0.089 -0.003,0.6 -0.289,0.92 -0.905,0.909 0,0 -0.077,0.055 -0.078,0.056 0.147,0.348 0.058,0.614 -0.267,0.799 -2.231,1.44 -3.389,4.598 -6.755,4.22 l 0.086,-0.075 c 0.424,1.678 -1.169,1.632 -1.949,2.281 -1.382,2.598 -2.764,5.197 -4.146,7.796 C -19.086,15.236 -9.273,8.059 0,0"
             style="fill:#a69e7a;fill-opacity:1;fill-rule:nonzero;stroke:none"
             id="path418"
             inkscape:connector-curvature="0" /></g><g
           id="g420"
           transform="translate(1070.3486,517.9238)"><path
             d="m 0,0 c -3.892,0.623 -5.711,3.282 -6.869,6.748 -0.508,1.52 -0.407,3.873 -3.173,3.389 -0.12,1.5 0.586,2.398 1.929,3.046 8.726,4.206 17.049,9.29 26.411,12.111 1.66,-1.569 1.23,-3.629 1.307,-5.569 C 19.723,16.79 19.17,13.78 20.571,10.987 14.502,5.851 7.821,1.858 0,0"
             style="fill:#75adcc;fill-opacity:1;fill-rule:nonzero;stroke:none"
             id="path422"
             inkscape:connector-curvature="0" /></g><g
           id="g424"
           transform="translate(1091.5898,495.7979)"><path
             d="m 0,0 c -3.482,-0.917 -6.114,0.74 -8.6,2.844 -0.034,2.429 -0.067,4.858 -0.1,7.287 5.865,3.387 11.956,6.142 18.826,6.722 C 10.218,12.866 10.307,8.88 10.395,4.894 7.176,2.74 3.682,1.17 0,0"
             style="fill:#75adcc;fill-opacity:1;fill-rule:nonzero;stroke:none"
             id="path426"
             inkscape:connector-curvature="0" /></g><g
           id="g428"
           transform="translate(1137.4785,603.4614)"><path
             d="m 0,0 c -10.951,-11.703 -19.559,-25.099 -27.934,-38.663 -4.074,6.504 0.777,11.257 3.872,15.65 5.722,8.118 12.011,15.82 16.494,24.766 0.977,1.949 5.68,1.202 7.756,-1.144 C 0.089,0.416 0.027,0.213 0,0"
             style="fill:#a69e7a;fill-opacity:1;fill-rule:nonzero;stroke:none"
             id="path430"
             inkscape:connector-curvature="0" /></g><g
           id="g432"
           transform="translate(1137.4785,603.4614)"><path
             d="M 0,0 C 0.027,0.213 0.089,0.416 0.188,0.609 0.997,1.25 1.802,1.889 2.607,2.527 4.71,9.693 2.904,17.039 3.611,24.269 7.874,15.954 8.375,6.67 9.992,-2.258 10.725,-6.299 7.356,-10.001 5.307,-13.598 3.921,-16.029 2.179,-18.257 0.596,-20.577 0.396,-13.718 0.198,-6.859 0,0"
             style="fill:#75adcc;fill-opacity:1;fill-rule:nonzero;stroke:none"
             id="path434"
             inkscape:connector-curvature="0" /></g><g
           id="g436"
           transform="translate(1141.0898,627.7305)"><path
             d="m 0,0 c -0.707,-7.23 1.099,-14.576 -1.004,-21.742 -0.128,1.159 -0.311,2.384 -1.468,2.923 -5.688,2.651 -6.298,7.758 -6.458,13.107 0.36,6.463 0.719,12.925 1.078,19.388 C -4.412,9.589 -1.915,4.961 0,0"
             style="fill:#75adcc;fill-opacity:1;fill-rule:nonzero;stroke:none"
             id="path438"
             inkscape:connector-curvature="0" /></g><g
           id="g440"
           transform="translate(1148.1777,557.7617)"><path
             d="m 0,0 c -10.073,-8.04 -17.683,-18.54 -27.146,-27.192 -0.405,2.845 0.78,5.026 2.543,7.208 7.188,8.892 15.661,16.601 23.07,25.276 2.656,3.109 2.93,0.16 3.904,-1.251 C 2.454,2.181 0.848,1.313 0,0"
             style="fill:#a69e7a;fill-opacity:1;fill-rule:nonzero;stroke:none"
             id="path442"
             inkscape:connector-curvature="0" /></g><g
           id="g444"
           transform="translate(1133.2383,641.4062)"><path
             d="m 0,0 c -0.359,-6.462 -0.719,-12.925 -1.078,-19.388 -1.761,7.304 -3.517,14.609 -5.289,21.91 -0.244,1.005 -1.805,2.119 -0.367,2.963 1.338,0.786 2.69,-0.333 3.168,-1.566 C -2.853,2.077 -0.673,1.753 0,0"
             style="fill:#75adcc;fill-opacity:1;fill-rule:nonzero;stroke:none"
             id="path446"
             inkscape:connector-curvature="0" /></g><g
           id="g448"
           transform="translate(1099.5146,547.9868)"><path
             d="m 0,0 c 1.128,-2.167 1.358,-4.543 1.612,-6.914 0.56,-4.73 -1.852,-7.448 -6.061,-8.95 -0.02,4.665 -0.037,9.33 -0.055,13.995 C -3.353,-0.403 -1.438,-0.774 0,0"
             style="fill:#857d47;fill-opacity:1;fill-rule:nonzero;stroke:none"
             id="path450"
             inkscape:connector-curvature="0" /></g><g
           id="g452"
           transform="translate(1095.0107,546.1177)"><path
             d="m 0,0 c 0.018,-4.665 0.035,-9.33 0.055,-13.995 -1.493,-0.923 -2.094,-3.003 -4.145,-3.211 -1.402,2.792 -0.849,5.802 -0.967,8.737 -0.077,1.94 0.353,4 -1.307,5.569 1.872,1.514 4.125,2.192 6.364,2.9"
             style="fill:#a69e7a;fill-opacity:1;fill-rule:nonzero;stroke:none"
             id="path454"
             inkscape:connector-curvature="0" /></g><g
           id="g456"
           transform="translate(1155.9277,593.1758)"><path
             d="m 0,0 c -4.586,0.605 -6.246,-1.424 -5.906,-5.956 0.271,-3.636 -0.079,-7.317 -0.155,-10.963 -0.597,9.719 0.012,19.403 0.254,29.868 3.013,-3.377 3.896,-6.967 5.106,-10.385 -0.004,10e-4 0.018,0.094 0.018,0.094 C -0.455,1.772 -0.228,0.886 0,0"
             style="fill:#75adcc;fill-opacity:1;fill-rule:nonzero;stroke:none"
             id="path458"
             inkscape:connector-curvature="0" /></g><g
           id="g460"
           transform="translate(1107.7744,512.9199)"><path
             d="m 0,0 c 1.692,-1.936 1.454,-4.27 1.358,-6.574 -1.588,-1.148 -1.976,-3.515 -4.141,-4.077 0.003,3.494 0.007,6.988 0.012,10.483 C -1.848,-0.112 -0.924,-0.057 0,0"
             style="fill:#857d47;fill-opacity:1;fill-rule:nonzero;stroke:none"
             id="path462"
             inkscape:connector-curvature="0" /></g><g
           id="g464"
           transform="translate(1105.0029,512.752)"><path
             d="m 0,0 c -0.005,-3.495 -0.009,-6.989 -0.012,-10.483 -1.001,-0.525 -2.003,-1.05 -3.005,-1.577 -0.089,3.986 -0.178,7.972 -0.27,11.958 C -2.193,-0.067 -1.097,-0.034 0,0"
             style="fill:#a69e7a;fill-opacity:1;fill-rule:nonzero;stroke:none"
             id="path466"
             inkscape:connector-curvature="0" /></g><g
           id="g468"
           transform="translate(1082.8896,505.9287)"><path
             d="M 0,0 C 0.033,-2.429 0.066,-4.857 0.101,-7.287 -2.284,-5.791 -5.077,-4.48 -2.865,-0.86 -1.91,-0.573 -0.955,-0.287 0,0"
             style="fill:#75adcc;fill-opacity:1;fill-rule:nonzero;stroke:none"
             id="path470"
             inkscape:connector-curvature="0" /></g><g
           id="g472"
           transform="translate(1155.2451,595.834)"><path
             d="M 0,0 C 0,0 -0.022,-0.093 -0.019,-0.094 -0.015,-0.096 0,0 0,0"
             style="fill:#75adcc;fill-opacity:1;fill-rule:nonzero;stroke:none"
             id="path474"
             inkscape:connector-curvature="0" /></g><g
           id="g476"
           transform="translate(1110.0039,472.8682)"><path
             d="m 0,0 c 2.405,-0.048 4.811,-0.097 7.213,-0.146 1.898,-0.773 4.076,-1.091 3.894,-4.074 -0.257,-4.224 1.973,-3.167 4.12,-1.649 1.492,1.056 2.442,2.587 3.157,4.257 5.651,-0.487 11.302,-0.974 16.947,-1.459 1.597,-5.53 0.249,-11.212 0.869,-16.792 -9.295,0.541 -17.758,3.708 -25.714,8.331 C 7.175,-9.608 3.634,-8.48 -0.054,-7.671 -0.035,-5.114 -0.018,-2.557 0,0"
             style="fill:#75adcc;fill-opacity:1;fill-rule:nonzero;stroke:none"
             id="path478"
             inkscape:connector-curvature="0" /></g><g
           id="g480"
           transform="translate(1061.1367,462.4951)"><path
             d="m 0,0 c -0.722,-0.044 -1.443,-0.088 -2.164,-0.132 -0.041,1.153 0.027,2.323 -0.146,3.456 -0.772,5.042 1.402,6.815 6.364,6.489 3.059,-0.2 6.259,-0.563 9.289,0.589 2.876,0.022 5.752,0.043 8.627,0.065 C 18.936,7.442 19.581,4.079 21.063,0.64 16.173,0.549 11.283,0.458 6.4,0.367 4.257,0.523 2.096,0.835 0,0"
             style="fill:#75adcc;fill-opacity:1;fill-rule:nonzero;stroke:none"
             id="path482"
             inkscape:connector-curvature="0" /></g><g
           id="g484"
           transform="translate(1082.2002,463.1348)"><path
             d="m 0,0 c -1.482,3.439 -2.128,6.803 0.906,9.827 5.328,0.549 10.751,3.409 15.888,-0.652 0.4,-2.046 0.8,-4.092 1.199,-6.138 C 16.68,-0.375 13.72,-0.717 10.719,-0.652 7.144,-0.574 3.573,-0.229 0,0"
             style="fill:#75adcc;fill-opacity:1;fill-rule:nonzero;stroke:none"
             id="path486"
             inkscape:connector-curvature="0" /></g><g
           id="g488"
           transform="translate(1158.0195,459.542)"><path
             d="m 0,0 c 2.253,-2.097 2.209,-4.663 1.416,-7.326 -1.97,-6.609 -5.146,-12.53 -10.084,-17.422 -2.095,0.906 -4.282,1.14 -6.536,0.868 0.407,4.502 2.162,8.504 4.378,12.386 0.843,1.476 2.43,2.808 1.734,4.876 C -4.025,-7.211 -0.956,-5.058 0,0"
             style="fill:#75adcc;fill-opacity:1;fill-rule:nonzero;stroke:none"
             id="path490"
             inkscape:connector-curvature="0" /></g><g
           id="g492"
           transform="translate(1158.0195,459.542)"><path
             d="m 0,0 c -0.956,-5.058 -4.025,-7.211 -9.092,-6.618 -0.909,0.027 -1.818,0.054 -2.725,0.081 -0.619,5.58 0.729,11.263 -0.868,16.792 2.388,0.271 4.592,-0.592 6.824,-1.158 C -1.145,7.897 1.31,5.134 0,0"
             style="fill:#75adcc;fill-opacity:1;fill-rule:nonzero;stroke:none"
             id="path494"
             inkscape:connector-curvature="0" /></g><g
           id="g496"
           transform="translate(1067.9668,426.7461)"><path
             d="M 0,0 C 0.405,0.15 0.811,0.3 1.213,0.447 4.383,0.186 3.841,2.538 4.04,4.42 4.497,8.733 2.932,13.222 5.159,17.381 7.793,16.963 9.403,15.028 11.011,13.225 14.489,9.323 14.258,6.828 10.319,3.247 9.372,2.386 8.072,1.833 7.768,0.395 5.411,0.068 3.058,-0.26 0.699,-0.586 0.443,-0.413 0.212,-0.218 0,0"
             style="fill:#a69e7a;fill-opacity:1;fill-rule:nonzero;stroke:none"
             id="path498"
             inkscape:connector-curvature="0" /></g><g
           id="g500"
           transform="translate(1028.9854,469.9629)"><path
             d="M 0,0 C 2.763,1.559 4.869,4.549 8.619,3.946 10.093,3.091 10.942,1.821 11.141,0.124 11.434,-2.843 12.867,-5.409 14.03,-8.071 9.972,-9.276 5.899,-9.113 1.822,-8.191 2.04,-5.277 2.813,-2.239 0,0"
             style="fill:#a69e7a;fill-opacity:1;fill-rule:nonzero;stroke:none"
             id="path502"
             inkscape:connector-curvature="0" /></g><g
           id="g504"
           transform="translate(1074.4795,472.8975)"><path
             d="m 0,0 c -3.03,-1.152 -6.229,-0.789 -9.289,-0.589 -4.962,0.325 -7.136,-1.447 -6.363,-6.489 0.173,-1.133 0.104,-2.303 0.145,-3.456 -2.67,-0.33 -5.339,-0.66 -8.006,-0.99 0.003,3.748 0.005,7.496 0.007,11.243 0.733,0.074 1.465,0.148 2.195,0.222 -0.002,0 0.331,-0.255 0.331,-0.255 l 0.295,0.298 C -13.79,-0.01 -6.895,-0.005 0,0"
             style="fill:#a69e7a;fill-opacity:1;fill-rule:nonzero;stroke:none"
             id="path506"
             inkscape:connector-curvature="0" /></g><g
           id="g508"
           transform="translate(1050.9736,472.6162)"><path
             d="m 0,0 c -0.002,-3.747 -0.004,-7.495 -0.007,-11.243 -2.691,-0.43 -5.333,-0.13 -7.951,0.518 -1.163,2.662 -2.597,5.229 -2.89,8.196 C -7.112,-2.195 -3.924,0.479 0,0"
             style="fill:#857d47;fill-opacity:1;fill-rule:nonzero;stroke:none"
             id="path510"
             inkscape:connector-curvature="0" /></g><g
           id="g512"
           transform="translate(1048.0186,452.0078)"><path
             d="m 0,0 c 3.116,-1.78 6.518,-0.438 9.76,-0.881 1.745,-0.238 3.682,-0.591 3.524,-2.662 -0.161,-2.099 -2.313,-1.519 -3.639,-1.431 -6.224,0.414 -12.553,-1.179 -18.683,0.954 0.954,0.871 1.987,1.67 2.849,2.625 C -4.428,0.56 -2.736,2.504 0,0"
             style="fill:#857d47;fill-opacity:1;fill-rule:nonzero;stroke:none"
             id="path514"
             inkscape:connector-curvature="0" /></g><g
           id="g516"
           transform="translate(1142.8154,435.6621)"><path
             d="M 0,0 C 2.254,0.271 4.441,0.038 6.536,-0.868 4.095,-6.81 0.655,-11.848 -5.66,-14.46 -4.25,-9.375 -1.342,-4.992 0,0"
             style="fill:#75adcc;fill-opacity:1;fill-rule:nonzero;stroke:none"
             id="path518"
             inkscape:connector-curvature="0" /></g><g
           id="g520"
           transform="translate(1100.1934,466.1719)"><path
             d="M 0,0 C -0.399,2.046 -0.799,4.092 -1.199,6.138 2.404,7.633 6.083,7.652 9.811,6.696 9.793,4.14 9.775,1.582 9.757,-0.975 6.423,-1.46 3.156,-1.28 0,0"
             style="fill:#a69e7a;fill-opacity:1;fill-rule:nonzero;stroke:none"
             id="path522"
             inkscape:connector-curvature="0" /></g><g
           id="g524"
           transform="translate(1093.8779,403.4033)"><path
             d="m 0,0 c -0.937,-0.584 -1.792,-1.228 -1.772,-2.491 -0.126,-0.296 -0.184,-0.604 -0.171,-0.925 l 0.038,0.081 c -1.274,-0.664 -1.979,-1.667 -1.884,-3.149 -2.556,4.068 -0.863,8.563 -1.232,12.847 -0.21,2.426 0.075,4.894 0.136,7.343 C -0.177,10.235 0.913,5.475 0,0"
             style="fill:#75adcc;fill-opacity:1;fill-rule:nonzero;stroke:none"
             id="path526"
             inkscape:connector-curvature="0" /></g><g
           id="g528"
           transform="translate(1126.1299,516.2187)"><path
             d="m 0,0 c -0.029,2.324 -0.145,4.651 -0.07,6.973 0.169,5.255 2.723,6.684 7.915,4.509 C 8.011,5.753 3.702,3.083 0,0"
             style="fill:#75adcc;fill-opacity:1;fill-rule:nonzero;stroke:none"
             id="path530"
             inkscape:connector-curvature="0" /></g><g
           id="g532"
           transform="translate(1073.126,444.127)"><path
             d="m 0,0 c -2.228,-4.159 -0.662,-8.647 -1.119,-12.961 -0.199,-1.882 0.343,-4.234 -2.827,-3.973 -0.769,5.617 0.525,11.325 -0.773,16.915 0.349,1.023 1.281,1.311 2.129,1.704 C -1.726,1.121 -0.862,0.561 0,0"
             style="fill:#75adcc;fill-opacity:1;fill-rule:nonzero;stroke:none"
             id="path534"
             inkscape:connector-curvature="0" /></g><g
           id="g536"
           transform="translate(1128.3877,471.2559)"><path
             d="m 0,0 c -0.715,-1.67 -1.665,-3.201 -3.157,-4.257 -2.147,-1.517 -4.377,-2.575 -4.119,1.65 0.181,2.982 -1.996,3.3 -3.895,4.074 2.421,0.361 4.834,0.761 7.259,1.071 C -1.936,2.791 -0.284,2.415 0,0"
             style="fill:#a69e7a;fill-opacity:1;fill-rule:nonzero;stroke:none"
             id="path538"
             inkscape:connector-curvature="0" /></g><g
           id="g540"
           transform="translate(1028.9854,469.9629)"><path
             d="m 0,0 c 2.813,-2.239 2.04,-5.277 1.822,-8.191 -2.598,-0.219 -5.187,-0.338 -7.69,0.609 0.136,1.103 0.271,2.207 0.412,3.309 C -3.635,-2.85 -1.817,-1.425 0,0"
             style="fill:#a69e7a;fill-opacity:1;fill-rule:nonzero;stroke:none"
             id="path542"
             inkscape:connector-curvature="0" /></g><g
           id="g544"
           transform="translate(1037.0244,448.0039)"><path
             d="M 0,0 C -2.019,-1.444 -4.034,-1.459 -6.05,0.005 -4.033,1.19 -2.016,1.37 0,0"
             style="fill:#857d47;fill-opacity:1;fill-rule:nonzero;stroke:none"
             id="path546"
             inkscape:connector-curvature="0" /></g><g
           id="g548"
           transform="translate(1061.1367,462.4951)"><path
             d="M 0,0 C 2.096,0.835 4.257,0.523 6.4,0.367 4.262,0.244 2.131,0.122 0,0"
             style="fill:#a69e7a;fill-opacity:1;fill-rule:nonzero;stroke:none"
             id="path550"
             inkscape:connector-curvature="0" /></g><g
           id="g552"
           transform="translate(1053.7949,472.8818)"><path
             d="m 0,0 -0.296,-0.299 c 0,0 -0.333,0.256 -0.33,0.256 C -0.429,0.162 -0.221,0.176 0,0"
             style="fill:#857d47;fill-opacity:1;fill-rule:nonzero;stroke:none"
             id="path554"
             inkscape:connector-curvature="0" /></g><g
           id="g556"
           transform="translate(1111.3037,506.3721)"><path
             d="m 0,0 0.2,0.268 c 0,0 0.318,-0.107 0.313,-0.109 C 0.509,0.158 0.316,-0.122 0.316,-0.122 Z"
             style="fill:#857d47;fill-opacity:1;fill-rule:nonzero;stroke:none"
             id="path558"
             inkscape:connector-curvature="0" /></g><g
           id="g560"
           transform="translate(1090.0889,396.9189)"><path
             d="M 0,0 C -0.095,1.482 0.61,2.485 1.884,3.149 1.513,1.945 3.063,-0.406 0,0"
             style="fill:#75adcc;fill-opacity:1;fill-rule:nonzero;stroke:none"
             id="path562"
             inkscape:connector-curvature="0" /></g><g
           id="g564"
           transform="translate(1091.9346,399.9873)"><path
             d="M 0,0 C -0.013,0.321 0.045,0.629 0.171,0.925 0.213,0.699 0.286,0.475 0.281,0.251 0.278,0.165 0.099,0.083 0,0"
             style="fill:#75adcc;fill-opacity:1;fill-rule:nonzero;stroke:none"
             id="path566"
             inkscape:connector-curvature="0" /></g><g
           id="g568"
           transform="translate(896.9868,546.2651)"><path
             d="M 0,0 C 0.362,0.645 0.724,1.289 1.086,1.936 1.116,1.073 0.742,0.433 0,0"
             style="fill:#75adcc;fill-opacity:1;fill-rule:nonzero;stroke:none"
             id="path570"
             inkscape:connector-curvature="0" /></g><g
           id="g572"
           transform="translate(922.1953,560.1841)"><path
             d="M 0,0 C 0.16,-0.214 0.32,-0.427 0.479,-0.641 0.105,-0.656 -0.27,-0.671 -0.646,-0.69 -0.442,-0.453 -0.227,-0.221 0,0"
             style="fill:#010101;fill-opacity:1;fill-rule:nonzero;stroke:none"
             id="path574"
             inkscape:connector-curvature="0" /></g><g
           id="g576"
           transform="translate(883.4678,456.4375)"><path
             d="M 0,0 C 0.109,-0.294 0.219,-0.588 0.329,-0.883 -0.101,-0.946 -0.531,-1.01 -0.961,-1.075 -0.641,-0.718 -0.32,-0.358 0,0"
             style="fill:#010101;fill-opacity:1;fill-rule:nonzero;stroke:none"
             id="path578"
             inkscape:connector-curvature="0" /></g><g
           id="g580"
           transform="translate(874.9087,438.4395)"><path
             d="M 0,0 C -0.35,0.007 -0.599,0.17 -0.746,0.489 -0.42,0.438 -0.173,0.276 0,0"
             style="fill:#75adcc;fill-opacity:1;fill-rule:nonzero;stroke:none"
             id="path582"
             inkscape:connector-curvature="0" /></g><g
           id="g584"
           transform="translate(1055.9395,673.7158)"><path
             d="M 0,0 C 4.424,2.879 6.491,-0.033 8.371,-3.404 4.802,-3.41 1.845,-5.011 -1.34,-8.187 -1.303,-4.566 0.762,-2.479 0,0"
             style="fill:#75adcc;fill-opacity:1;fill-rule:nonzero;stroke:none"
             id="path586"
             inkscape:connector-curvature="0" /></g><g
           id="g588"
           transform="translate(876.7915,667.8242)"><path
             d="M 0,0 C -0.33,-5.167 -0.33,-5.167 -8.068,-3.557 -6.52,0.22 -3.542,0.75 0,0"
             style="fill:#75adcc;fill-opacity:1;fill-rule:nonzero;stroke:none"
             id="path590"
             inkscape:connector-curvature="0" /></g><g
           id="g592"
           transform="translate(788.0508,567.8926)"><path
             d="M 0,0 C 0.312,-0.301 0.625,-0.602 0.937,-0.902 0.625,-0.602 0.312,-0.301 0,0"
             style="fill:#75adcc;fill-opacity:1;fill-rule:nonzero;stroke:none"
             id="path594"
             inkscape:connector-curvature="0" /></g><g
           id="g596"
           transform="translate(923.2285,454.9111)"><path
             d="M 0,0 C -0.421,0.37 -0.843,0.74 -1.264,1.111 -0.843,0.741 -0.421,0.371 0,0"
             style="fill:#a69e7a;fill-opacity:1;fill-rule:nonzero;stroke:none"
             id="path598"
             inkscape:connector-curvature="0" /></g></g></g></g></svg>