<?xml version="1.0" encoding="UTF-8" standalone="no"?>
<!-- Created with Inkscape (http://www.inkscape.org/) -->

<svg
   xmlns:dc="http://purl.org/dc/elements/1.1/"
   xmlns:cc="http://creativecommons.org/ns#"
   xmlns:rdf="http://www.w3.org/1999/02/22-rdf-syntax-ns#"
   xmlns:svg="http://www.w3.org/2000/svg"
   xmlns="http://www.w3.org/2000/svg"
   xmlns:sodipodi="http://sodipodi.sourceforge.net/DTD/sodipodi-0.dtd"
   xmlns:inkscape="http://www.inkscape.org/namespaces/inkscape"
   width="119.35954mm"
   height="189.45778mm"
   viewBox="0 0 119.35954 189.45778"
   version="1.1"
   id="svg8"
   sodipodi:docname="copepod.svg"
   inkscape:version="0.92.2 5c3e80d, 2017-08-06"
   inkscape:export-filename="/mnt/826CA0866CA07717/MEGASync/Graphics/Species/copepod.png"
   inkscape:export-xdpi="180"
   inkscape:export-ydpi="180">
  <defs
     id="defs2" />
  <sodipodi:namedview
     id="base"
     pagecolor="#ffffff"
     bordercolor="#666666"
     borderopacity="1.0"
     inkscape:pageopacity="0.0"
     inkscape:pageshadow="2"
     inkscape:zoom="0.42404602"
     inkscape:cx="194.37471"
     inkscape:cy="470.5983"
     inkscape:document-units="mm"
     inkscape:current-layer="layer1"
     showgrid="false"
     inkscape:window-width="1920"
     inkscape:window-height="1044"
     inkscape:window-x="0"
     inkscape:window-y="0"
     inkscape:window-maximized="1"
     fit-margin-top="0"
     fit-margin-left="0"
     fit-margin-right="0"
     fit-margin-bottom="0" />
  <metadata
     id="metadata5">
    <rdf:RDF>
      <cc:Work
         rdf:about="">
        <dc:format>image/svg+xml</dc:format>
        <dc:type
           rdf:resource="http://purl.org/dc/dcmitype/StillImage" />
        <dc:title></dc:title>
      </cc:Work>
    </rdf:RDF>
  </metadata>
  <g
     inkscape:label="Layer 1"
     inkscape:groupmode="layer"
     id="layer1"
     transform="translate(-50.073339,-73.598031)">
    <path
       style="opacity:1;fill:#d0b492;fill-opacity:1;stroke:none;stroke-width:0.86500001;stroke-linecap:butt;stroke-linejoin:miter;stroke-miterlimit:4;stroke-dasharray:none;stroke-opacity:1"
       d="m 97.000138,163.18485 0.88103,13.27397 4.187192,16.07949 c 0,0 1.7419,7.11161 2.46372,10.69958 0.27237,1.35386 0.66932,2.70217 0.70392,4.08273 0.0391,1.55947 -0.75184,3.09737 -0.56314,4.64587 0.15182,1.24583 1.17425,2.27521 1.33745,3.5196 0.28371,2.16331 0.13025,4.06975 -0.66872,6.51125 -0.38357,1.1721 -3.4739,0.55599 -3.27323,1.72461 0.20067,1.16862 3.45497,-0.64289 3.37882,0.49275 -0.14855,2.21533 -0.62359,3.83079 -1.12628,5.70174 -0.4698,1.74852 -3.31177,6.07105 -1.7598,5.13862 0.77565,-0.46602 2.25255,-1.90058 2.25255,-1.90058 0,0 -1.64556,5.92215 -3.66038,10.98114 -1.230138,3.08874 -3.15534,5.95999 -3.80117,9.22135 -0.113949,0.57543 -0.56222,1.92716 0,1.7598 2.02563,-0.60297 6.09605,-10.13918 6.09605,-10.13918 0,0 -0.24819,5.99913 -5.687549,14.31197 -1.045253,1.59744 -1.493737,3.5808 -0.808714,3.72961 0.752894,0.16355 2.117667,-1.1536 2.441579,-1.56712 3.202904,-4.08894 4.176584,-6.17222 5.420184,-9.6437 1.80838,-5.04804 2.16596,-10.51552 2.81568,-15.83819 0.89188,-7.30651 -0.0125,-14.81794 1.47823,-22.03269 0.0896,-0.43356 0.26405,-1.07617 0.70392,-1.12627 0.39564,-0.0451 0.75507,0.45672 0.8447,0.8447 2.05124,8.87937 3.06501,15.46501 4.22352,23.37013 0.32749,2.23465 -0.44169,4.49968 -0.49274,6.75763 -0.0769,3.4027 -0.034,6.81792 0.28157,10.20684 0.15198,1.6324 0.30076,3.28747 0.77431,4.85705 0.4246,1.40736 0.87528,3.07653 1.83019,4.01234 0.21786,0.2135 0.90915,0.30497 0.91509,0 0.0808,-4.15365 -0.55315,-5.71957 -0.70392,-8.58782 -0.15893,-3.0235 -0.21117,-9.08057 -0.21117,-9.08057 0,0 0.86753,5.08846 1.83019,7.46155 0.593,1.46181 2.39333,4.08274 2.39333,4.08274 0,0 -0.80595,-6.35778 -1.40784,-9.50292 -0.61618,-3.21982 -1.61774,-6.35711 -2.25255,-9.57331 -0.3451,-1.74845 -0.8447,-5.27939 -0.8447,-5.27939 0,0 1.24622,1.43269 3.02685,2.25254 1.08677,0.50038 -0.90141,-2.23176 -1.54862,-3.23803 -0.35591,-0.55336 -0.96523,-0.92881 -1.26706,-1.51343 -0.93467,-1.81041 -0.961,-3.29614 -1.54862,-5.91292 -0.23225,-1.03429 2.88822,0.4319 3.09725,-0.66873 0.20903,-1.10063 -2.21536,-0.70183 -2.85087,-1.58382 -1.52811,-2.12075 -1.5912,-5.09818 -1.44304,-7.70792 0.0543,-0.9559 0.81619,-1.78828 0.8447,-2.74529 0.0561,-1.88287 -1.33938,-3.60687 -1.33745,-5.49057 0.003,-2.85114 1.36125,-5.53742 2.04137,-8.30625 0.96249,-3.91837 2.88607,-11.75546 2.88607,-11.75546 l 3.66039,-20.90642 -14.35997,-7.10959 z"
       id="path7538"
       inkscape:connector-curvature="0"
       sodipodi:nodetypes="cccaaaaszsascsascsssaasassaaassacacaacsaaszaaaaacccc" />
    <path
       style="fill:#d0b492;fill-opacity:1;stroke:none;stroke-width:0.26458332px;stroke-linecap:butt;stroke-linejoin:miter;stroke-opacity:1"
       d="m 113.48618,80.380754 c 3.17623,-1.009769 5.01849,-4.669381 8.16304,-5.773856 3.13644,-1.101625 6.70612,-1.301604 9.95493,-0.597297 5.61419,1.217096 10.06099,5.559289 15.23104,8.063492 3.0353,1.470201 5.93918,3.48202 9.25809,4.08152 1.39856,0.252625 2.888,0.137172 4.25646,-0.246372 1.60105,-0.448733 4.40432,-2.341909 4.40432,-2.341909 l -2.28963,2.687831 6.96845,-2.389182 c 0,0 -8.93484,3.713167 -9.14042,4.871875 -0.18865,1.063343 2.69669,2.082479 3.76476,3.390716 0.8278,1.013942 1.99098,3.384674 1.99098,3.384674 0,0 -6.29156,-5.85393 -6.57025,-5.077013 -0.46313,1.291091 -0.59729,7.466195 -0.59729,7.466195 0,0 -0.61911,-4.556673 -1.99099,-6.265565 -1.36883,-1.705097 -5.67431,-4.463373 -5.67431,-3.291166 v 7.466197 l -0.79639,-3.583773 -1.09504,2.78738 c 0,0 1.68539,-5.629132 -0.0995,-7.2671 -3.60808,-3.310975 -8.57637,-4.67862 -13.14051,-6.371152 -2.18853,-0.811579 -4.43669,-1.708119 -6.76935,-1.791888 -2.4975,-0.08969 -5.00933,0.563879 -7.36665,1.39369 -1.06422,0.374619 -2.0699,0.934928 -2.98648,1.592789 -1.25869,0.903406 -1.94608,2.610354 -3.38467,3.185576 -5.45369,2.18066 -12.80959,3.469394 -17.620224,0.09955 -0.808068,-0.566051 -0.323235,-2.065262 -0.995495,-2.78738 -1.235124,-1.326726 -3.192302,-1.875545 -4.977463,-2.190083 -2.489026,-0.438557 -5.096957,-0.04324 -7.565745,0.497747 -3.262721,0.714963 -6.3817,2.067081 -9.357632,3.583773 -2.222285,1.132594 -4.286124,2.386692 -6.271607,4.081521 -1.438594,1.227999 0,5.67431 0,5.67431 l -0.995492,-2.687831 -1.692338,5.176562 1.095041,-8.163041 c 0,0 -3.249712,1.974091 -4.479716,3.384674 -0.62488,0.71662 -1.39369,2.488735 -1.39369,2.488735 1.1e-5,5.112027 0.597295,5.176557 0.597295,5.176557 l -1.39369,-4.081516 -3.484224,5.773856 3.484224,-7.665293 c 0,0 -0.105794,-2.337475 -0.995493,-2.588281 -2.414673,-0.680697 -5.972958,4.579268 -5.972958,4.579268 0,0 1.745314,-3.306635 2.986479,-4.678818 0.53885,-0.595731 1.891438,-1.493239 1.891438,-1.493239 l -8.362141,-4.977464 7.267099,2.090534 -2.588281,-4.479716 c 0,0 2.439035,3.648372 4.380166,4.28062 1.976706,0.643835 4.158525,-0.378668 6.172058,-0.895945 0.823799,-0.211634 1.626549,-0.519346 2.389182,-0.895943 4.210359,-2.079126 7.784615,-5.290541 11.945913,-7.466198 2.911387,-1.522165 5.792005,-3.536025 9.058987,-3.882421 1.71495,-0.181835 3.467305,0.376658 5.077013,0.995494 1.625424,0.624878 3.074362,1.659504 4.479716,2.687831 1.214271,0.888507 1.977298,2.454339 3.384678,2.986476 3.69358,1.396558 8.08317,1.196372 11.84636,-10e-7 z"
       id="path7560"
       inkscape:connector-curvature="0"
       sodipodi:nodetypes="caaaaacccsacscascccsaaaaaaaaaasccccasccccacaccccaaaaaaaaac" />
    <path
       style="fill:none;stroke:#b79a75;stroke-width:1.86500001;stroke-linecap:butt;stroke-linejoin:miter;stroke-miterlimit:4;stroke-dasharray:none;stroke-opacity:1"
       d="m 98.478464,177.30499 c 0,0 1.752756,-1.76042 2.862706,-2.25286 2.62893,-1.16635 5.6309,-1.51598 8.50609,-1.44605 3.00819,0.0732 6.40256,0.14592 8.81548,1.9438 1.09582,0.8165 1.99099,3.58377 1.99099,3.58377"
       id="path7564"
       inkscape:connector-curvature="0"
       sodipodi:nodetypes="caaac" />
    <path
       style="fill:none;stroke:#b79a75;stroke-width:1.86500001;stroke-linecap:butt;stroke-linejoin:miter;stroke-miterlimit:4;stroke-dasharray:none;stroke-opacity:1"
       d="m 100.57072,183.72974 c 0,0 4.01939,2.90632 8.98327,2.82032 4.96387,-0.086 8.76033,-2.38918 8.76033,-2.38918"
       id="path7566"
       inkscape:connector-curvature="0"
       sodipodi:nodetypes="czc" />
    <path
       style="color:#000000;font-style:normal;font-variant:normal;font-weight:normal;font-stretch:normal;font-size:medium;line-height:normal;font-family:sans-serif;font-variant-ligatures:normal;font-variant-position:normal;font-variant-caps:normal;font-variant-numeric:normal;font-variant-alternates:normal;font-feature-settings:normal;text-indent:0;text-align:start;text-decoration:none;text-decoration-line:none;text-decoration-style:solid;text-decoration-color:#000000;letter-spacing:normal;word-spacing:normal;text-transform:none;writing-mode:lr-tb;direction:ltr;text-orientation:mixed;dominant-baseline:auto;baseline-shift:baseline;text-anchor:start;white-space:normal;shape-padding:0;clip-rule:nonzero;display:inline;overflow:visible;visibility:visible;opacity:1;isolation:auto;mix-blend-mode:normal;color-interpolation:sRGB;color-interpolation-filters:linearRGB;solid-color:#000000;solid-opacity:1;vector-effect:none;fill:#b79a75;fill-opacity:1;fill-rule:nonzero;stroke:none;stroke-width:1.86500001;stroke-linecap:butt;stroke-linejoin:miter;stroke-miterlimit:4;stroke-dasharray:none;stroke-dashoffset:0;stroke-opacity:1;color-rendering:auto;image-rendering:auto;shape-rendering:auto;text-rendering:auto;enable-background:accumulate"
       d="m 102.51784,192.7306 -1.00244,0.56381 c 0,0 1.6855,1.26748 2.94905,1.81417 1.26355,0.54669 3.57235,1.09309 5.48877,1.07216 1.91643,-0.0209 4.63376,-0.16009 6.79296,-1.68845 l 0.34183,-1.25495 c 0,0 -0.9074,0.39952 -1.98059,0.81149 -1.07319,0.41196 -2.75252,0.85144 -5.12695,0.89258 -2.35277,0.0408 -3.98029,-0.41787 -5.00977,-0.86329 -1.02947,-0.44541 -2.45286,-1.34752 -2.45286,-1.34752 z"
       id="path7566-3"
       inkscape:connector-curvature="0"
       sodipodi:nodetypes="ccszcccccc" />
    <path
       style="color:#000000;font-style:normal;font-variant:normal;font-weight:normal;font-stretch:normal;font-size:medium;line-height:normal;font-family:sans-serif;font-variant-ligatures:normal;font-variant-position:normal;font-variant-caps:normal;font-variant-numeric:normal;font-variant-alternates:normal;font-feature-settings:normal;text-indent:0;text-align:start;text-decoration:none;text-decoration-line:none;text-decoration-style:solid;text-decoration-color:#000000;letter-spacing:normal;word-spacing:normal;text-transform:none;writing-mode:lr-tb;direction:ltr;text-orientation:mixed;dominant-baseline:auto;baseline-shift:baseline;text-anchor:start;white-space:normal;shape-padding:0;clip-rule:nonzero;display:inline;overflow:visible;visibility:visible;opacity:1;isolation:auto;mix-blend-mode:normal;color-interpolation:sRGB;color-interpolation-filters:linearRGB;solid-color:#000000;solid-opacity:1;vector-effect:none;fill:#b79a75;fill-opacity:1;fill-rule:nonzero;stroke:none;stroke-width:1.86500001;stroke-linecap:butt;stroke-linejoin:miter;stroke-miterlimit:4;stroke-dasharray:none;stroke-dashoffset:0;stroke-opacity:1;color-rendering:auto;image-rendering:auto;shape-rendering:auto;text-rendering:auto;enable-background:accumulate"
       d="m 104.23391,201.76758 0.23259,1.19678 c 0,0 2.38166,1.21893 5.27778,1.16 2.85502,-0.0581 4.6748,-1.43782 4.6748,-1.43782 l 0.21675,-0.94757 c 0,0 -2.63191,1.25494 -4.85263,1.30009 -2.1796,0.0443 -5.54929,-1.27148 -5.54929,-1.27148 z"
       id="path7583"
       inkscape:connector-curvature="0"
       sodipodi:nodetypes="ccccccc" />
    <path
       style="opacity:1;fill:#cda97d;fill-opacity:1;stroke:none;stroke-width:0.96499997;stroke-linecap:butt;stroke-linejoin:miter;stroke-miterlimit:4;stroke-dasharray:none;stroke-opacity:1"
       d="m 108.11052,77.593374 c 8.11914,0.544553 17.20303,11.209656 21.10445,20.108958 3.02855,6.908238 3.00947,15.640268 2.28779,23.466228 -0.19751,2.14182 -1.41624,3.8824 -1.79005,6.19946 -0.23669,1.46715 2.99074,13.32317 2.33574,14.70289 -1.51435,3.18983 -5.35274,-8.47999 -7.21365,-0.76599 -0.54361,2.25343 2.31276,4.10219 2.78738,6.37115 0.73377,3.50785 1.25255,7.39356 0,10.75132 -0.46042,1.23425 -2.23519,1.71735 -2.58828,2.98648 -0.93876,3.37419 1.79189,10.35313 1.79189,10.35313 l -1.19459,0.59729 1.19459,6.17206 c 0,0 -1.84249,-2.02928 -2.58828,-1.39369 -1.23002,1.04828 1.59278,4.57927 1.59278,4.57927 0,0 -1.26232,-2.03027 -1.99098,-1.59279 -1.85249,1.1122 1.19459,6.37115 1.19459,6.37115 0,0 -1.6402,-1.34506 -2.19009,-0.79639 -1.79818,1.79418 2.58829,7.16754 2.58829,7.16754 l -1.79189,-0.99549 0.5973,4.38017 c 0,0 -1.09473,-2.3442 -2.19009,-2.78738 -0.80721,-0.3266 0.1991,8.36214 0.1991,8.36214 0,0 -2.24547,-12.31237 -2.58828,-9.15853 l -0.9955,9.15853 c 0,0 0.41963,-14.84226 0,-11.14952 l -0.99549,8.76034 c 0,0 -1.05805,-6.19129 -0.94571,-9.30786 0.20448,-5.67271 3.08255,-11.09953 2.9367,-16.77405 -0.0612,-2.38194 -0.003,-5.19352 -1.59279,-6.96845 -2.15641,-2.40775 -5.93136,-3.36666 -9.15853,-3.18558 -3.52686,0.1979 -7.52789,1.68761 -9.556737,4.57927 -1.14922,1.63797 -0.77577,3.98001 -0.59729,5.97295 0.21547,2.40614 1.990987,6.96845 1.990987,6.96845 0,0 1.17491,4.75312 1.56193,7.16755 0.72867,4.54579 1.42454,13.7378 1.42454,13.7378 0,0 -1.93052,-9.64646 -1.99098,-7.16755 l -0.1991,8.16305 c 0,0 -0.31782,-9.40264 -0.99549,-9.15854 -0.735727,0.26501 -0.846177,7.4662 -0.846177,7.4662 -0.79665,-0.39565 -1.51847,-8.16161 -1.74211,-8.26259 -0.65371,-0.2211 -1.19459,4.57926 -1.19459,4.57926 0,0 0.10901,-4.25164 0.79639,-6.37115 0.30711,-0.94694 -2.38918,1.79189 -2.38918,1.79189 0,0 2.42689,-4.00493 0.99549,-4.77837 -0.66058,-0.35694 -1.592787,1.59279 -1.592787,1.59279 0,0 0.687667,-3.77894 1.194597,-5.97296 0.28543,-1.23538 -2.588287,2.78738 -2.588287,2.78738 0,0 2.200487,-3.96453 2.190087,-6.96845 -0.005,-1.31732 -2.588277,2.98648 -2.588277,2.98648 0,0 1.86841,-4.61976 1.59278,-5.57476 -0.43119,-1.49403 -3.58377,2.98648 -3.58377,2.98648 0,0 2.07591,-3.92921 1.99099,-5.77386 -0.0635,-1.37953 -3.384679,2.38919 -3.384679,2.38919 0,0 3.295729,-4.37072 3.782869,-6.96845 0.67821,-3.61655 0.3892,-7.73163 -1.39369,-10.95043 -0.45703,-0.82512 -1.82193,-0.92345 -2.19008,-1.79188 -1.559576,-3.67885 0.0921,-8.05361 0.99549,-11.94592 0.3706,-1.59668 2.01907,-2.95596 1.79189,-4.57927 -0.12142,-0.8676 -0.71891,-2.02877 -1.59279,-2.09054 -2.285633,-0.16157 -4.893692,4.8274 -4.893692,4.8274 -3.74251,0.25921 1.809565,-10.69477 1.377029,-16.04547 -0.127697,-1.57967 -0.908783,-3.04582 -1.162153,-4.61026 -0.787314,-4.8613 -1.828051,-9.8635 -1.095043,-14.73329 0.9759,-6.48346 3.156785,-13.130411 7.167549,-18.317067 4.011587,-5.187719 7.808737,-12.092272 15.927884,-11.547719 z"
       inkscape:connector-curvature="0"
       id="path59"
       sodipodi:nodetypes="zsasssaaacccscscscccscscscaaaaaacacscscccscscscscscscaaaaaasaaaaz" />
    <path
       style="color:#000000;font-style:normal;font-variant:normal;font-weight:normal;font-stretch:normal;font-size:medium;line-height:normal;font-family:sans-serif;font-variant-ligatures:normal;font-variant-position:normal;font-variant-caps:normal;font-variant-numeric:normal;font-variant-alternates:normal;font-feature-settings:normal;text-indent:0;text-align:start;text-decoration:none;text-decoration-line:none;text-decoration-style:solid;text-decoration-color:#000000;letter-spacing:normal;word-spacing:normal;text-transform:none;writing-mode:lr-tb;direction:ltr;text-orientation:mixed;dominant-baseline:auto;baseline-shift:baseline;text-anchor:start;white-space:normal;shape-padding:0;clip-rule:nonzero;display:inline;overflow:visible;visibility:visible;opacity:1;isolation:auto;mix-blend-mode:normal;color-interpolation:sRGB;color-interpolation-filters:linearRGB;solid-color:#000000;solid-opacity:1;vector-effect:none;fill:#b79a75;fill-opacity:1;fill-rule:nonzero;stroke:none;stroke-width:1.86500001;stroke-linecap:butt;stroke-linejoin:bevel;stroke-miterlimit:4;stroke-dasharray:none;stroke-dashoffset:0;stroke-opacity:1;color-rendering:auto;image-rendering:auto;shape-rendering:auto;text-rendering:auto;enable-background:accumulate"
       d="m 108.51367,131.51172 c -6.02963,-0.0293 -14.081885,1.55868 -16.752493,3.30313 -2.670608,1.74446 -4.375972,5.74032 -4.375972,5.74032 2.076768,-2.49415 1.781827,-1.82981 4.06961,-3.30039 4.727782,-3.0882 11.052095,-3.90701 17.049095,-3.87783 6.03813,0.0294 11.83374,0.19903 16.59555,3.21104 0.70449,0.44561 1.0203,1.45457 1.48124,2.0149 0.73482,0.0287 1.45805,0.83739 1.96141,1.3286 0.0634,-0.89176 -0.43238,-1.91379 -0.95041,-2.72402 -0.53123,-0.83087 -1.27778,-1.50051 -2.1265,-2.05691 -5.36515,-3.51731 -10.87238,-3.60924 -16.95153,-3.63884 z"
       id="path7562"
       inkscape:connector-curvature="0"
       sodipodi:nodetypes="czcccaccacc" />
  </g>
</svg>
