<?xml version="1.0" encoding="UTF-8" standalone="no"?>
<!-- Created with Inkscape (http://www.inkscape.org/) -->

<svg
   xmlns:dc="http://purl.org/dc/elements/1.1/"
   xmlns:cc="http://creativecommons.org/ns#"
   xmlns:rdf="http://www.w3.org/1999/02/22-rdf-syntax-ns#"
   xmlns:svg="http://www.w3.org/2000/svg"
   xmlns="http://www.w3.org/2000/svg"
   xmlns:sodipodi="http://sodipodi.sourceforge.net/DTD/sodipodi-0.dtd"
   xmlns:inkscape="http://www.inkscape.org/namespaces/inkscape"
   width="210mm"
   height="297mm"
   viewBox="0 0 210 297"
   version="1.1"
   id="svg8"
   inkscape:version="0.92.4 (5da689c313, 2019-01-14)"
   sodipodi:docname="gecko_generic.svg">
  <defs
     id="defs2" />
  <sodipodi:namedview
     id="base"
     pagecolor="#ffffff"
     bordercolor="#666666"
     borderopacity="1.0"
     inkscape:pageopacity="0.0"
     inkscape:pageshadow="2"
     inkscape:zoom="0.49497475"
     inkscape:cx="178.06001"
     inkscape:cy="1035.1184"
     inkscape:document-units="mm"
     inkscape:current-layer="layer1"
     showgrid="false"
     showguides="false"
     inkscape:window-width="1920"
     inkscape:window-height="1013"
     inkscape:window-x="-9"
     inkscape:window-y="29"
     inkscape:window-maximized="1" />
  <metadata
     id="metadata5">
    <rdf:RDF>
      <cc:Work
         rdf:about="">
        <dc:format>image/svg+xml</dc:format>
        <dc:type
           rdf:resource="http://purl.org/dc/dcmitype/StillImage" />
        <dc:title></dc:title>
      </cc:Work>
    </rdf:RDF>
  </metadata>
  <g
     inkscape:label="Layer 1"
     inkscape:groupmode="layer"
     id="layer1">
    <path
       style="fill:#5d9481;fill-opacity:1;stroke-width:0.3596963"
       d="m 90.00286,3.4611914 c -0.945289,0.020678 -1.632507,0.4842311 -2.20595,1.4247357 -0.926641,1.5197676 -0.875192,3.2271735 0.170711,5.6518679 0.947368,2.196269 0.746613,3.241008 -0.623146,3.241482 -0.43816,1.51e-4 -2.116755,-0.26151 -3.72974,-0.581698 0,0 -1.943796,-0.456555 -2.932366,-0.582398 -0.846686,-0.107777 -1.728852,-0.351377 -2.556373,-0.146314 -2.267453,0.561878 -3.013897,4.47759 -0.323305,7.088731 0.818395,0.79421 2.675734,2.015668 4.127373,2.713884 1.451642,0.698202 2.639413,1.335913 2.639413,1.417006 0,0.08116 -0.643115,0.475159 -1.428952,0.876058 -2.197833,1.121245 -3.860917,2.762072 -4.502522,4.442108 -1.044289,2.734419 1.152072,4.006869 2.695531,5.204808 0.584989,0.454034 1.426206,0.557538 2.164501,0.500205 1.031673,-0.08012 2.880463,-1.157527 2.880463,-1.157527 0.772307,-0.611686 1.965495,-1.203728 2.652061,-1.31514 2.723422,-0.441952 5.195369,2.477271 5.519782,6.518793 0.328858,4.096854 -0.951625,5.486487 -5.975725,6.485772 -3.242274,0.644885 -7.659052,2.764111 -11.019216,5.287256 -3.436675,2.580594 -12.818355,12.041321 -15.551945,15.683317 -4.792868,6.385622 -7.317978,13.344923 -7.962497,21.943578 -0.618004,8.244837 -1.53782,9.012495 -8.495715,7.087849 -5.875559,-1.625274 -7.967744,-1.121178 -11.4885,2.769374 -2.296928,2.538211 -5.584246,8.859461 -7.211489,13.867281 -0.529667,1.63005 -1.100524,3.04897 -1.268772,3.15296 -0.168266,0.10402 -2.071322,-0.71536 -4.229243,-1.82096 -2.157918,-1.10559 -4.60607,-2.10188 -5.4397,-2.21369 -1.312554,-0.17605 -1.654144,-0.0703 -2.550193,0.78824 -0.569105,0.54524 -1.387414,1.81026 -1.818149,2.81153 -0.675596,1.57046 -0.726548,2.00846 -0.37375,3.18599 0.471918,1.57514 1.516382,2.44814 5.601286,4.68448 2.049093,1.12182 2.910066,1.80003 2.989976,2.35418 0.134589,0.93333 -1.138277,1.6802 -3.472616,2.03804 -5.947502,0.91173 -7.9535566,5.96534 -3.327892,8.38403 1.298197,0.67881 2.145009,0.82852 4.676052,0.82687 1.699924,-0.001 3.713294,-0.17523 4.473722,-0.38639 1.643477,-0.45635 2.006803,-0.22145 1.32357,0.85429 -2.535692,3.99239 -3.109898,6.77107 -1.821666,8.81746 0.794888,1.26273 2.60484,2.22633 4.180767,2.22633 1.778323,0 3.624828,-1.3967 4.826393,-3.65105 1.655984,-3.10697 2.461865,-2.92586 4.430167,0.99477 1.345843,2.68075 2.609549,3.99479 5.028719,5.22894 3.734104,1.90499 6.702738,-0.9107 6.719716,-6.37406 0.0096,-3.22415 -0.761405,-5.87069 -2.509443,-8.60812 -2.019314,-3.16227 -3.624394,-4.84473 -3.899813,-10.17172 -0.16884,-3.26558 -0.04259,-12.90147 1.915329,-15.04616 2.036955,-2.23126 7.115636,0.61325 8.796128,2.47253 3.508542,3.88177 4.351566,19.77109 6.30322,23.72119 1.687451,3.41536 2.188729,5.31546 4.298089,16.30717 1.571628,8.18967 3.900079,13.74946 8.022914,19.15382 3.98328,5.2214 8.930829,9.16508 19.543033,15.57934 12.348102,7.46349 15.974862,7.84233 18.154952,15.49363 2.50928,8.80664 -2.96069,20.91508 -8.358852,26.16892 -8.197322,7.6554 -19.112041,12.67854 -30.060835,15.10063 -9.499747,2.10151 -20.318425,3.14949 -29.175042,-0.87818 -12.136152,-5.51902 -23.861548,-14.11284 -27.183261,-29.33913 -0.994556,-5.52332 -1.369402,-6.75572 -2.356291,-7.74261 -1.1633613,-1.16334 -2.2483665,-1.1112 -2.7328451,0.13133 -0.631875,1.62049 -0.8224635,8.06251 -0.3294896,11.13935 1.4445978,9.0165 6.7529307,19.57361 14.0288557,26.37021 8.557077,7.99336 20.429124,13.03108 32.064252,14.35062 17.869547,2.02661 37.633403,-0.99512 52.930148,-10.45226 12.65214,-7.82213 22.58403,-21.19203 27.30038,-35.29941 2.91577,-8.72153 2.79523,-18.94777 -0.35955,-27.58572 -2.81547,-7.70888 -9.27227,-13.82998 -15.62094,-19.03076 -3.57252,-2.92659 -7.04038,-3.96256 -12.22967,-6.51037 -10.397403,-5.10485 -12.769101,-6.76829 -14.563481,-10.21622 -1.14187,-3.19841 -1.567809,-5.90943 -0.373749,-9.39987 0.464726,-1.27874 0.87809,-1.62825 3.712881,-3.14313 5.216265,-2.78749 10.539259,-6.53704 15.457799,-10.88923 2.91349,-2.57803 4.36871,-3.41289 5.95256,-3.41289 1.51115,0 3.04359,1.6613 3.76487,4.081 0.72768,2.44113 1.3705,8.44697 1.18236,11.048 -0.14511,2.00614 -0.22038,2.13741 -2.49962,4.35079 -2.89035,2.80682 -3.70605,4.66158 -3.4719,7.89856 0.14086,1.94731 0.30378,2.35191 1.30881,3.24991 2.05182,1.8333 4.61417,1.09211 8.44092,-2.4413 3.0592,-2.82472 3.62728,-2.62203 5.25353,1.87296 1.36512,3.7732 3.32897,5.1903 7.19042,5.1903 3.47556,0 5.57729,-1.19749 5.99329,-3.41501 0.1968,-1.04906 -0.50736,-3.66763 -2.04225,-7.59225 -0.24004,-0.61378 -0.3366,-1.37648 -0.21427,-1.69523 0.18778,-0.48935 0.40702,-0.51709 1.40787,-0.17633 0.6519,0.22197 1.71556,0.86234 2.36401,1.42333 2.77975,2.40479 5.79036,3.20079 8.79922,2.32609 1.99689,-0.58052 3.58561,-1.9049 4.15126,-3.45998 0.90279,-2.48199 -1.75349,-5.40622 -6.52302,-7.18127 -5.26981,-1.96124 -6.58432,-2.92642 -5.77622,-4.23909 0.21315,-0.34621 1.73324,-1.53803 3.37779,-2.64924 3.62543,-2.44967 4.30586,-3.27136 4.31636,-5.21278 0.011,-2.0455 -2.12885,-4.51577 -4.48287,-5.17485 -3.39687,-0.95106 -7.80573,0.19974 -11.69293,3.05321 -0.94484,0.69357 -1.89719,1.26104 -2.11673,1.26104 -0.56619,0 -1.89182,-1.92744 -5.7994,-8.4353 -3.6521,-6.08237 -6.89415,-10.00084 -9.57411,-11.5714 -1.0188,-0.59706 -2.49556,-1.03669 -4.18357,-1.2463 -3.33004,-0.4135 -4.49283,-0.90186 -5.14324,-2.15957 -0.82948,-1.604084 -0.62333,-3.267233 0.74539,-6.003137 1.55124,-3.10076 5.49172,-7.516819 6.39727,-7.169336 0.37473,0.143806 0.60768,0.628638 0.60768,1.264549 0,2.271531 2.32885,7.927995 4.15969,10.103819 1.35318,1.608175 2.50115,2.106935 6.33473,2.751115 5.06288,0.85072 8.59857,1.59361 9.24671,1.9432 0.9366,0.50519 2.08101,1.86317 4.27701,5.0765 1.19251,1.74493 2.52103,2.64795 3.61945,4.1042 1.22307,1.62148 1.59974,3.37053 4.76698,3.37053 3.93072,0 4.68335,-2.58585 4.00132,-4.26345 -0.24017,-0.59075 -0.63137,-1.55329 -0.86974,-2.13922 -0.581,-1.42826 -0.12425,-1.76514 1.26597,-0.93367 5.5414,3.31419 7.54111,3.85678 8.96571,2.43217 0.62642,-0.62642 1.81974,-1.58671 2.24971,-2.66752 0.31507,-0.79199 0.49531,-1.77607 0.14472,-2.553 -0.50084,-1.10985 -2.87145,-2.25793 -2.87145,-2.25793 -0.92503,-0.94255 -1.41607,-1.70444 -1.21187,-1.88068 0.18876,-0.16291 1.49292,-0.73527 2.89794,-1.27158 3.5412,-1.351748 5.82172,-2.861221 6.12046,-4.051503 0.66649,-2.655516 -3.22681,-4.442731 -9.69424,-4.450536 -2.68901,-0.0027 -3.49145,-0.1127 -3.34826,-0.454542 0.98902,-2.360863 1.3365,-4.315621 0.96669,-5.436188 -0.68246,-2.067839 -1.881,-2.873645 -4.5243,-3.041963 -3.65753,-0.232892 -6.39713,1.38065 -9.36475,5.515582 l -0.74398,1.036931 -2.40547,-0.651246 c -2.80815,-0.76014 -5.08711,-2.273978 -5.42004,-3.600479 -0.31275,-1.246074 0.9332,-4.104304 2.41321,-5.536654 2.53507,-2.453483 6.04379,-2.878975 13.91433,-1.68607 8.46086,1.282372 9.65796,1.100053 20.143,-3.069357 14.01434,-5.572846 21.43478,-9.269754 24.24365,-12.078632 4.59657,-4.596545 5.67084,-10.867449 2.8558,-16.671081 -2.11886,-4.368352 -8.20485,-8.959357 -18.6466,-14.066089 -6.65669,-3.25558 -12.35933,-6.83676 -19.1735,-8.228754 -2.21199,-0.451864 -4.56679,-0.463131 -6.77301,0.01616 -3.52012,0.764739 -5.6514,1.594988 -9.84327,4.460367 -10.31765,3.686621 -22.51085,7.581637 -32.28149,7.038276 -6.22164,-0.499856 -5.50255,-5.016129 -6.19004,-8.435311 -0.63322,-3.149266 -1.95721,-5.316905 2.25532,-9.369263 4.28966,-4.126545 4.74148,-5.013867 3.5794,-7.021101 -1.28054,-2.2118927 -3.05457,-3.3678873 -5.43478,-3.5400562 -2.74735,-0.1987249 -4.64761,0.745665 -6.39374,3.1761422 -0.705886,0.982554 -1.41714,1.785839 -1.580699,1.785839 -0.163545,0 -0.408606,-0.526056 -0.544459,-1.169013 C 97.728551,8.3149034 94.973778,5.0255894 92.014213,3.8953189 91.230472,3.5960044 90.570036,3.4487521 90.00286,3.4611505 Z"
       id="path830"
       inkscape:connector-curvature="0"
       sodipodi:nodetypes="cccccasccsccaaccscscssccccccsccsscccccscccccssssccsacaaccccaaaaaasccccscscsccsssccscssscccccsccscccscccsssccccaacccccccccccccsscssaaccaccscscccc" />
  </g>
</svg>
