<?xml version="1.0" encoding="UTF-8" standalone="no"?>
<!-- Created with Inkscape (http://www.inkscape.org/) -->

<svg
   width="148.03871mm"
   height="63.004211mm"
   viewBox="0 0 148.03871 63.004211"
   version="1.1"
   id="svg5"
   sodipodi:docname="grouper.svg"
   inkscape:version="1.1 (c68e22c387, 2021-05-23)"
   xmlns:inkscape="http://www.inkscape.org/namespaces/inkscape"
   xmlns:sodipodi="http://sodipodi.sourceforge.net/DTD/sodipodi-0.dtd"
   xmlns="http://www.w3.org/2000/svg"
   xmlns:svg="http://www.w3.org/2000/svg">
  <sodipodi:namedview
     id="namedview7"
     pagecolor="#ffffff"
     bordercolor="#666666"
     borderopacity="1.0"
     inkscape:pageshadow="2"
     inkscape:pageopacity="0.0"
     inkscape:pagecheckerboard="0"
     inkscape:document-units="mm"
     showgrid="false"
     inkscape:zoom="0.70710678"
     inkscape:cx="661.14484"
     inkscape:cy="249.60869"
     inkscape:window-width="1920"
     inkscape:window-height="1009"
     inkscape:window-x="-8"
     inkscape:window-y="-8"
     inkscape:window-maximized="1"
     inkscape:current-layer="layer1"
     fit-margin-top="0"
     fit-margin-left="0"
     fit-margin-right="0"
     fit-margin-bottom="0" />
  <defs
     id="defs2" />
  <g
     inkscape:label="Layer 1"
     inkscape:groupmode="layer"
     id="layer1"
     transform="translate(-27.609107,-106.60796)">
    <path
       id="path21"
       style="fill:#7f685b;fill-opacity:1;stroke:#7f685b;stroke-width:0.999999;stroke-opacity:1"
       d="m 585.37305,455.32422 c 0.6916,1.57428 1.39318,3.14233 2.05273,4.74219 0.99575,2.41539 1.94999,4.86015 2.85156,7.33398 0.90158,2.47383 1.74926,4.9754 2.53125,7.50781 0.782,2.53241 1.49774,5.09441 2.13477,7.68555 0.63703,2.59114 1.19545,5.21132 1.66211,7.86133 0.46666,2.65001 0.84239,5.33003 1.11328,8.03906 0.27089,2.70903 0.4366,5.44861 0.48633,8.2168 0.0497,2.76819 -0.0161,5.56508 -0.21289,8.39258 -0.19683,2.82749 -0.52341,5.68531 -0.99219,8.57226 -0.46878,2.88695 -1.07958,5.80345 -1.8457,8.75 -0.76613,2.94655 -1.68847,5.9234 -2.77735,8.92969 -1.08887,3.00629 -2.34423,6.04124 -3.78125,9.10742 -1.43701,3.06618 -3.05468,6.16285 -4.86523,9.28906 -0.0781,0.13479 -0.18099,0.27331 -0.25977,0.40821 30.11414,15.99243 33.73304,17.52996 38.72461,17.42968 6.65825,-0.13364 12.9559,-3.57919 20.53907,-11.23632 20.15798,-20.35442 26.48669,-58.57868 14.74218,-89.03321 -7.57436,-19.64095 -26.90182,-37.89258 -40.12695,-37.89258 -5.91817,0 -9.4595,1.72937 -29.86328,14.57618 -0.72963,0.45939 -1.40899,0.8805 -2.11328,1.32031 z"
       transform="scale(0.26458333)" />
    <path
       id="path2840"
       style="fill:#7f685b;fill-opacity:1;stroke:#7f685b;stroke-width:0.264583;stroke-opacity:1"
       d="m 130.27112,146.2567 c -0.64539,0.33062 -1.29093,0.65627 -1.93632,0.96739 -0.76425,0.36841 -1.52863,0.72422 -2.29288,1.06866 -1.52852,0.68889 -3.05726,1.33319 -4.58577,1.94821 -1.52851,0.61501 -3.05674,1.20047 -4.58525,1.77095 -1.50508,0.56173 -3.01041,1.10894 -4.51549,1.65571 0.19849,0.0314 0.31569,0.15072 0.49248,0.36639 0.22785,0.27796 0.96623,0.94555 1.64073,1.48363 l 1.22628,0.97823 0.16795,-0.66817 c 0.0923,-0.36762 0.26605,-0.6687 0.38602,-0.6687 0.11997,0 0.71972,0.59531 1.33325,1.32292 1.09473,1.29832 1.14347,1.32291 2.60294,1.32291 1.28737,0 1.70465,0.14206 3.10782,1.05627 3.53069,2.30032 6.75691,3.07577 11.77758,2.83084 4.60499,-0.22464 6.97655,-1.14455 8.22379,-3.18999 0.62518,-1.02527 0.67394,-3.29235 0.10645,-4.94957 -0.84762,-2.47525 -4.18285,-6.03731 -6.165,-6.58461 -0.53273,-0.14709 -2.36889,-0.34668 -4.08037,-0.44338 -1.32798,-0.0751 -2.45968,-0.18244 -2.90421,-0.26769 z" />
    <path
       style="fill:#957d5d;fill-opacity:0.991968;stroke:none;stroke-width:0.264583px;stroke-linecap:butt;stroke-linejoin:miter;stroke-opacity:1"
       d="m 53.320269,127.40738 25.069882,-5.42557 1.683798,10.85114 -11.599497,17.39925 -14.592917,2.05797 -4.303037,-2.05797 z"
       id="path59905" />
    <path
       id="path3182"
       style="fill:#7f685b;fill-opacity:1;stroke:none;stroke-width:0.999999;stroke-opacity:1"
       d="m 275.83203,430.81641 c -0.3092,0.46166 -0.69909,0.61132 -1.23047,0.61132 -3.52732,0 -25.59294,6.19459 -37.96484,10.65821 -26.90823,9.70805 -51.04121,20.81342 -84.7832,39.01562 -21.47528,11.58482 -24.39877,13.48178 -32.12696,20.85352 -9.66614,9.22031 -9.77346,9.8527 -2.48242,14.47656 3.26575,2.07108 27.29688,18.7135 28.26034,20.69284 0.61191,1.25711 -20.08816,-11.15662 -22.76815,-12.06979 -5.88944,-2.00675 -16.66474,-8.14751 -17.625,-3.77539 -1.05748,4.81462 1.12433,10.55044 6.13281,16.12109 6.29934,7.00638 14.6272,12.46824 28.42188,18.64063 24.48472,10.9556 58.8449,20.38671 74.27539,20.38671 5.93113,0 13.7188,0.88309 21.25,2.40821 6.53813,1.324 18.18675,3.1336 25.88671,4.02148 12.51695,1.44335 17.66776,1.94859 20.14454,2.92383 3.5628,0.37939 7.15397,0.6854 10.77539,0.91406 3.87871,0.24491 7.78447,0.42113 11.70117,0.56836 6.80542,0.25582 13.63464,0.44797 20.42969,0.73047 -2.32654,-0.86998 4.74269,-1.06641 35.09961,-1.06641 40.56913,0 45.69689,-0.4221 62.2832,-5.12304 2.83934,-0.80468 4.22014,-1.15883 5.13867,-1.01367 5.68849,-2.06654 11.37792,-4.13475 17.06641,-6.25782 5.77705,-2.15612 11.55302,-4.36889 17.33008,-6.69336 5.77704,-2.32446 11.55497,-4.7596 17.33203,-7.36328 2.88852,-1.30184 5.77749,-2.64663 8.66601,-4.03906 2.43927,-1.17587 4.87909,-2.40666 7.31836,-3.65625 -0.48519,-0.093 -0.78521,-0.17997 -0.78516,-0.25391 3.1e-4,-0.32999 6.41281,-2.81481 14.25,-5.52148 11.47854,-3.96423 15.87123,-4.99805 22.58594,-5.32422 15.48745,-0.7519 19.10386,0.41045 46.25977,14.86914 2.54153,1.3532 4.56267,2.42288 6.79687,3.60938 0.0788,-0.1349 0.18171,-0.27342 0.25977,-0.40821 1.81055,-3.12621 3.42822,-6.22288 4.86523,-9.28906 1.43702,-3.06618 2.69238,-6.10113 3.78125,-9.10742 1.08888,-3.00629 2.01122,-5.98314 2.77735,-8.92969 0.76612,-2.94655 1.37692,-5.86305 1.8457,-8.75 0.46878,-2.88695 0.79536,-5.74477 0.99219,-8.57226 0.19682,-2.8275 0.26262,-5.62439 0.21289,-8.39258 -0.0497,-2.76819 -0.21544,-5.50777 -0.48633,-8.2168 -0.27089,-2.70903 -0.64662,-5.38905 -1.11328,-8.03906 -0.46666,-2.65001 -1.02508,-5.27019 -1.66211,-7.86133 -0.63703,-2.59114 -1.35277,-5.15314 -2.13477,-7.68555 -0.78199,-2.53241 -1.62967,-5.03398 -2.53125,-7.50781 -0.90157,-2.47383 -1.85581,-4.91859 -2.85156,-7.33398 -0.65955,-1.59986 -1.36113,-3.16791 -2.05273,-4.74219 -21.71792,13.56224 -31.61574,17.92702 -41.34571,18.3457 -8.97993,0.38646 -22.44921,-0.22747 -22.44922,-1.02344 0,-0.0415 0.0697,-0.11384 0.17383,-0.20117 -4.44358,-1.3658 -8.895,-2.72017 -13.36133,-4.05664 -4.6321,-1.38608 -9.27867,-2.75453 -13.94726,-4.10156 -4.66859,-1.34703 -9.3589,-2.6723 -14.07617,-3.97266 -4.71727,-1.30035 -9.46206,-2.57621 -14.24024,-3.82226 -4.77817,-1.24606 -9.59011,-2.46236 -14.4414,-3.64649 -4.8513,-1.18412 -9.7411,-2.33465 -14.67774,-3.44922 -4.93663,-1.11456 -9.91893,-2.19308 -14.95312,-3.23046 -5.0342,-1.03739 -10.12165,-2.03376 -15.26563,-2.98633 -2.57199,-0.47629 -5.15804,-0.94283 -7.75976,-1.39649 -2.60173,-0.45365 -5.21857,-0.89415 -7.85157,-1.32422 -2.63299,-0.43006 -5.28148,-0.84837 -7.94726,-1.2539 -2.66578,-0.40553 -5.34873,-0.79965 -8.04883,-1.17969 -2.7001,-0.38004 -5.41835,-0.74602 -8.1543,-1.09961 -2.73595,-0.35359 -5.49034,-0.69334 -8.26367,-1.01953 -2.77332,-0.32619 -5.56472,-0.63966 -8.37695,-0.9375 -2.81223,-0.29784 -5.64539,-0.58108 -8.49805,-0.84961 -2.85265,-0.26853 -5.72453,-0.52152 -8.61914,-0.75976 -2.89461,-0.23828 -5.8119,-0.46091 -8.75,-0.66797 -2.9381,-0.20706 -5.89775,-0.39933 -8.88086,-0.57422 -2.98311,-0.1749 -5.98988,-0.33284 -9.01953,-0.47461 -3.02965,-0.14178 -6.08244,-0.2673 -9.16016,-0.375 -3.07771,-0.1077 -6.17932,-0.19686 -9.30664,-0.26953 -3.12731,-0.0727 -6.28054,-0.12932 -9.45898,-0.16602 -0.94604,-0.0109 -1.91067,-0.008 -2.86133,-0.0156 z m -7.34375,41.6875 c 0.0208,6.6e-4 0.0425,0.003 0.0645,0.006 0.70231,0.0915 1.89208,1.3219 3.38282,3.66796 2.96216,4.66175 4.50139,5.96919 12.64257,10.7461 11.74058,6.88879 13.29972,9.87743 8.67188,16.61523 -1.28047,1.86425 -4.87427,7.11045 -7.98633,11.65821 -3.11202,4.54775 -7.84014,12.87277 -10.50781,18.5 -2.86787,6.04951 -6.70301,12.27535 -9.38281,15.23242 -3.89171,4.29433 -5.71766,5.39894 -12.91407,7.82226 -4.60955,1.55222 -8.94336,3.05159 -9.63086,3.33203 -2.39218,0.97584 -1.2282,-1.46688 2.08399,-4.375 1.83356,-1.60992 5.42945,-3.51544 7.99023,-4.23242 6.53775,-1.83046 11.30675,-7.43123 18.00196,-21.14453 3.06206,-6.27182 8.7561,-15.89102 12.65234,-21.375 3.89628,-5.48402 6.95729,-10.60183 6.80274,-11.37305 -0.15444,-0.77121 -4.3079,-3.93454 -9.23047,-7.02929 -9.0985,-5.72009 -11.75169,-8.74834 -13.03125,-14.87696 -0.43298,-2.07376 -0.27049,-3.12408 0.33007,-3.17187 0.02,-0.002 0.0398,-0.003 0.0605,-0.002 z m -112.88086,12.37304 c 1.24149,0.008 2.55087,0.31614 3.88086,1.00391 5.66861,2.93136 6.69954,8.48218 2.50195,13.4707 -3.10643,3.69181 -7.8007,4.13073 -11.66406,1.0918 -6.79198,-5.34256 -2.06399,-15.37859 5.03321,-15.56445 0.0821,-0.002 0.16528,-0.002 0.24804,-0.002 z m 60.37891,4.22461 c 1.28857,0.0218 8.82684,8.81983 10.84961,12.82617 0.83304,1.64999 2.72185,6.82499 4.19726,11.5 2.4017,7.60948 2.61416,9.44288 2.02735,17.5 -0.6265,8.60168 -0.51836,9.3034 2.43164,15.84375 3.50422,7.76916 3.76099,10.43179 1.47461,15.25 -1.38297,2.9144 -2.5515,3.68524 -8.25,5.44922 -8.52465,2.63879 -13.11452,3.03963 -21.10157,1.83789 -10.88076,-1.63714 -9.93681,-2.52645 4.0293,-3.79297 11.1354,-1.00978 19.73239,-3.16558 21.07813,-5.2871 1.49654,-2.3593 0.89405,-5.75926 -2.22852,-12.57227 -2.9709,-6.48212 -3.05999,-7.07514 -2.4375,-16.22852 0.5805,-8.53647 0.37742,-10.3632 -2.00391,-18 -1.45768,-4.67467 -4.43746,-11.7911 -6.62304,-15.81445 -2.18555,-4.02338 -3.81328,-7.80234 -3.61524,-8.39648 0.0269,-0.0806 0.086,-0.11669 0.17188,-0.11524 z"
       transform="scale(0.26458333)"
       sodipodi:nodetypes="sssssssssssssscsscsscsssscsscscssssssssssssscsscssssssssssssssssssssssscssssssssssssssssssssscssssscssssssssssssssss" />
    <circle
       style="fill:#e7e7e7;fill-opacity:1;stroke:none;stroke-width:0;stroke-linecap:round;stroke-linejoin:round;stroke-opacity:1;paint-order:stroke fill markers"
       id="path67798"
       cx="41.076561"
       cy="130.70416"
       r="2.5135417" />
    <circle
       style="fill:#be662e;fill-opacity:1;stroke:none;stroke-width:0;stroke-linecap:round;stroke-linejoin:round;stroke-opacity:1;paint-order:stroke fill markers"
       id="path67798-8"
       cx="41.142708"
       cy="130.65457"
       r="2.3151042" />
    <circle
       style="fill:#261d18;fill-opacity:1;stroke:none;stroke-width:0;stroke-linecap:round;stroke-linejoin:round;stroke-opacity:1;paint-order:stroke fill markers"
       id="path67798-8-1"
       cx="41.126171"
       cy="130.65456"
       r="1.4552084" />
    <ellipse
       style="fill:#e3e3e3;fill-opacity:1;stroke:none;stroke-width:0;stroke-linecap:round;stroke-linejoin:round;stroke-opacity:1;paint-order:stroke fill markers"
       id="path67798-8-1-9"
       cx="40.216667"
       cy="129.91869"
       rx="0.92604178"
       ry="0.55397147" />
    <path
       id="path1869"
       style="fill:#7f685b;fill-opacity:1;stroke:#7f685b;stroke-width:0.264583;stroke-opacity:1"
       d="m 85.759106,155.57345 c -1.797857,-0.0747 -3.604754,-0.12558 -5.405355,-0.19327 -1.036294,-0.0389 -2.069693,-0.0856 -3.095935,-0.15038 -0.958167,-0.0605 -1.908331,-0.14146 -2.850988,-0.24184 0.542118,0.21346 0.601636,0.51176 0.865579,1.10846 0.28135,0.63603 1.480624,2.58618 2.664955,4.33358 2.706116,3.9927 4.946565,6.11731 8.209317,7.78506 h 5.16e-4 c 2.967048,1.51646 4.385902,1.65172 5.296833,0.50384 0.526206,-0.66309 0.566251,-0.95049 0.451136,-3.24115 -0.147198,-2.92904 -0.802627,-5.02426 -2.2133,-7.0745 -1.041286,-1.51338 -2.119564,-2.30278 -3.815789,-2.79363 -0.04361,-0.0126 -0.07572,-0.0245 -0.106969,-0.0362 z" />
    <path
       id="path85253"
       style="fill:#ae916c;fill-opacity:1;stroke:none;stroke-width:0.999999;stroke-opacity:1"
       d="m 526.99414,541.94922 c 0.0778,-0.57816 0.15305,-1.15605 0.19336,-1.73828 0.053,-0.7654 0.0787,-1.53481 0.0879,-2.30469 0.0185,-1.53976 -0.0258,-3.08466 -0.0391,-4.625 -0.007,-0.77017 -0.006,-1.53871 0.0156,-2.30469 0.0213,-0.76597 0.0618,-1.53018 0.13477,-2.28906 0.073,-0.75888 0.1775,-1.51283 0.32617,-2.26172 0.14868,-0.74889 0.34163,-1.4925 0.58984,-2.22851 0.20162,-0.40549 0.37799,-0.81325 0.53125,-1.22461 0.15327,-0.41136 0.28382,-0.82563 0.39454,-1.24219 0.11071,-0.41656 0.20142,-0.83673 0.27539,-1.25781 0.074,-0.42109 0.13079,-0.8446 0.17382,-1.26954 0.0861,-0.84986 0.11614,-1.7052 0.11329,-2.5664 -0.003,-0.8612 -0.0387,-1.72662 -0.084,-2.59375 -0.0453,-0.86713 -0.10123,-1.73587 -0.14258,-2.60352 -0.0413,-0.86764 -0.0677,-1.7349 -0.0586,-2.59765 0.009,-0.86275 0.0542,-1.72178 0.16016,-2.57422 0.053,-0.42622 0.12113,-0.85081 0.20703,-1.27344 0.0859,-0.42263 0.18982,-0.84335 0.31445,-1.26172 0.29733,-0.57259 0.55684,-1.15149 0.78125,-1.73437 0.22441,-0.58288 0.41365,-1.16979 0.57422,-1.76172 0.16056,-0.59193 0.2907,-1.18738 0.39648,-1.78711 0.10579,-0.59974 0.18798,-1.20425 0.24805,-1.81055 0.0601,-0.6063 0.0996,-1.21455 0.12305,-1.82617 0.0234,-0.61162 0.0295,-1.22609 0.0254,-1.8418 -0.008,-1.2314 -0.0627,-2.47066 -0.12696,-3.71093 -0.0642,-1.24028 -0.13797,-2.48149 -0.18554,-3.72071 -0.0476,-1.23921 -0.069,-2.4749 -0.0274,-3.70312 0.0208,-0.61411 0.0585,-1.22644 0.11524,-1.83594 0.0567,-0.6095 0.13271,-1.21667 0.23437,-1.82031 0.10166,-0.60365 0.22908,-1.20423 0.38477,-1.80078 0.15569,-0.59655 0.3398,-1.18914 0.55859,-1.77735 0.62819,-0.27984 1.2566,-0.55974 1.88477,-0.83984 -7.019,-0.0998 -13.5957,-0.55959 -13.59571,-1.11524 0,-0.0416 0.0695,-0.11386 0.17383,-0.20117 -4.44359,-1.36577 -8.89498,-2.72016 -13.36133,-4.05664 -4.63204,-1.38606 -9.27867,-2.75454 -13.94726,-4.10156 -4.66859,-1.34702 -9.35891,-2.67231 -14.07617,-3.97266 -4.35166,-1.19955 -8.7336,-2.37166 -13.13672,-3.52539 0.0327,0.17236 0.0784,0.33225 0.10156,0.51563 0.11694,0.91075 0.3882,1.77234 0.54883,2.67187 0.0678,0.59564 0.0789,1.19734 0.10742,1.79688 0.0285,0.59953 0.0746,1.19691 0.21289,1.78515 0.1338,0.48607 0.33485,0.94166 0.54883,1.39258 0.21398,0.45092 0.44087,0.89717 0.62891,1.36328 0.0646,0.22205 0.14989,0.43887 0.19336,0.66602 0.11867,0.61861 0.12023,1.24927 0.0976,1.88086 -0.0226,0.63158 -0.0693,1.2641 -0.0449,1.88672 -0.0265,2.10247 -0.0758,4.20683 0.004,6.30859 0.0435,0.97174 0.0805,1.94431 0.15429,2.91406 0.0738,0.96976 0.18439,1.93669 0.3711,2.89453 0.0756,0.4037 0.27344,1.42072 0.32031,1.82422 0.0865,0.74557 0.0974,1.49773 0.0566,2.24805 -0.0408,0.75032 -0.13328,1.49879 -0.25195,2.23633 -0.13315,0.7196 -0.29226,1.43294 -0.48242,2.13476 -0.19018,0.70183 -0.41099,1.39171 -0.67188,2.06641 -0.26089,0.6747 -0.56095,1.33445 -0.90625,1.97266 -0.3453,0.6382 -0.73629,1.2553 -1.17969,1.84765 -0.38832,0.63863 -0.78333,1.28116 -1.13086,1.94727 -0.17376,0.33305 -0.33531,0.67275 -0.47851,1.01953 -0.1432,0.34678 -0.26813,0.70133 -0.36719,1.06641 -0.0702,0.25903 -0.12621,0.51988 -0.17578,0.7832 0.0582,0.6534 0.0996,1.30771 0.10937,1.9668 0.0825,3.47286 0.17952,6.9454 0.26953,10.41796 0.15098,1.4679 0.31083,2.93459 0.48047,4.40235 0.14098,1.77469 0.25915,3.55706 0.42969,5.33203 0.0853,0.88748 0.18343,1.77176 0.30469,2.6543 0.12126,0.88253 0.26509,1.76247 0.44141,2.63672 0.27502,1.42282 0.49937,2.85426 0.67578,4.29101 0.1764,1.43675 0.30489,2.87882 0.38672,4.32617 0.033,0.75509 0.044,1.50914 0.0293,2.26172 -0.0147,0.75258 -0.0548,1.50339 -0.12109,2.25195 -0.0663,0.74857 -0.15953,1.49525 -0.28125,2.23829 -0.12172,0.74303 -0.27211,1.48274 -0.45313,2.21875 -0.37245,1.99636 -0.72148,3.99359 -1.02343,6 -0.009,0.49646 -0.0268,0.9923 -0.0625,1.48828 -0.10015,1.19389 -0.25086,2.38014 -0.46485,3.55468 -0.21399,1.17454 -0.49126,2.33737 -0.84375,3.48243 -0.10925,0.61458 -0.22147,1.22883 -0.33984,1.84179 -0.18176,0.7394 -0.42153,1.45488 -0.70508,2.15235 -0.20798,0.51158 -0.45996,1.00516 -0.70898,1.5 5.12286,-2.08409 10.24638,-4.24396 15.36914,-6.55274 2.8885,-1.30182 5.77747,-2.64664 8.66601,-4.03906 2.43927,-1.17589 4.87909,-2.40666 7.31836,-3.65625 -0.48518,-0.093 -0.78517,-0.17983 -0.78516,-0.25391 3.1e-4,-0.32995 6.41284,-2.81481 14.25,-5.52148 9.43021,-3.25682 14.08426,-4.52303 19.16602,-5.05664 z"
       transform="scale(0.26458333)" />
    <path
       id="path90616"
       style="fill:#7f685b;fill-opacity:1;stroke:none;stroke-width:0.999999;stroke-opacity:1"
       d="m 548.1875,543.125 c 0.44301,-0.23746 0.88809,-0.47141 1.32812,-0.71289 0.63136,-0.34648 1.2585,-0.69783 1.87696,-1.06055 0.61846,-0.36271 1.22858,-0.73666 1.82617,-1.125 0.59759,-0.38833 1.18319,-0.7915 1.75195,-1.21484 0.56877,-0.42334 1.12038,-0.86625 1.65235,-1.33399 0.18319,-0.25528 0.34379,-0.51447 0.48437,-0.77734 0.14058,-0.26287 0.26126,-0.52919 0.36328,-0.79883 0.10202,-0.26964 0.1864,-0.54276 0.25391,-0.81836 0.0675,-0.2756 0.11726,-0.55323 0.1543,-0.83398 0.0741,-0.5615 0.0919,-1.1337 0.0684,-1.71094 -0.0235,-0.57723 -0.0871,-1.15961 -0.17579,-1.74609 -0.17742,-1.17296 -0.45332,-2.35831 -0.69726,-3.5293 -0.12197,-0.5855 -0.23615,-1.16691 -0.32617,-1.74219 -0.09,-0.57527 -0.15594,-1.14456 -0.18164,-1.70312 -0.0669,-0.6999 -0.0863,-1.39483 -0.0664,-2.08594 0.0199,-0.6911 0.0783,-1.37868 0.16797,-2.0625 0.0897,-0.68382 0.21106,-1.36492 0.35351,-2.04297 0.14246,-0.67804 0.30612,-1.35356 0.48438,-2.02734 0.35651,-1.34757 0.76817,-2.68775 1.16602,-4.02735 0.39784,-1.33959 0.7826,-2.67777 1.08593,-4.02148 0.39043,-1.62962 0.88337,-3.28537 1.35742,-4.95703 0.23703,-0.83583 0.46918,-1.67567 0.68165,-2.51758 0.21246,-0.84191 0.40491,-1.68621 0.5625,-2.53125 0.15758,-0.84503 0.28112,-1.6919 0.35351,-2.53711 0.0362,-0.4226 0.0591,-0.84548 0.0684,-1.26758 0.009,-0.42209 0.004,-0.84246 -0.0176,-1.26367 -0.0216,-0.42121 -0.0591,-0.84175 -0.11523,-1.26172 -0.0561,-0.41996 -0.13014,-0.83947 -0.22461,-1.25781 -0.0945,-0.41834 -0.20909,-0.8356 -0.34571,-1.25195 -0.13661,-0.41636 -0.29596,-0.8321 -0.47851,-1.2461 -0.41428,-0.77414 -0.79572,-1.55806 -1.14258,-2.34961 -0.34686,-0.79154 -0.65915,-1.5907 -0.9375,-2.39843 0.11659,-0.29883 0.20734,-0.6105 0.27344,-0.92774 0.0661,-0.31723 0.10657,-0.64002 0.125,-0.96484 0.0184,-0.32482 0.0147,-0.65108 -0.0117,-0.97266 -0.0264,-0.32158 -0.0741,-0.6378 -0.14258,-0.94531 -0.0685,-0.30751 -0.15794,-0.60605 -0.26562,-0.88867 -0.10769,-0.28262 -0.23482,-0.54997 -0.37891,-0.79688 -0.14409,-0.2469 -0.30475,-0.47346 -0.48242,-0.67383 -0.17767,-0.20036 -0.37164,-0.37458 -0.58008,-0.51757 -0.0762,-0.77957 -0.12145,-1.56502 -0.13476,-2.35743 -0.0133,-0.7924 0.005,-1.59176 0.0586,-2.39648 0.0202,-0.38465 -0.003,-0.74016 -0.0449,-1.08203 -5.32651,2.15188 -9.63414,3.0993 -13.90821,3.2832 -2.71068,0.11667 -5.81865,0.13495 -8.85351,0.0918 -0.62817,0.2801 -1.25658,0.56 -1.88477,0.83984 -0.21879,0.58821 -0.4029,1.1808 -0.55859,1.77735 -0.15569,0.59655 -0.28311,1.19713 -0.38477,1.80078 -0.10166,0.60364 -0.17768,1.21081 -0.23437,1.82031 -0.0567,0.6095 -0.0944,1.22183 -0.11524,1.83594 -0.0416,1.22822 -0.0202,2.46391 0.0274,3.70312 0.0476,1.23922 0.12133,2.48043 0.18554,3.72071 0.0642,1.24027 0.11865,2.47953 0.12696,3.71093 0.004,0.61571 -0.002,1.23018 -0.0254,1.8418 -0.0234,0.61162 -0.063,1.21987 -0.12305,1.82617 -0.0601,0.6063 -0.14226,1.21081 -0.24805,1.81055 -0.10578,0.59973 -0.23592,1.19518 -0.39648,1.78711 -0.16057,0.59193 -0.34981,1.17884 -0.57422,1.76172 -0.22441,0.58288 -0.48392,1.16178 -0.78125,1.73437 -0.12463,0.41837 -0.22855,0.83909 -0.31445,1.26172 -0.0859,0.42263 -0.15406,0.84722 -0.20703,1.27344 -0.10595,0.85244 -0.15109,1.71147 -0.16016,2.57422 -0.009,0.86275 0.0172,1.73001 0.0586,2.59765 0.0414,0.86765 0.0973,1.73639 0.14258,2.60352 0.0453,0.86713 0.0811,1.73255 0.084,2.59375 0.003,0.8612 -0.0272,1.71654 -0.11329,2.5664 -0.043,0.42494 -0.0999,0.84845 -0.17382,1.26954 -0.074,0.42108 -0.16468,0.84125 -0.27539,1.25781 -0.11072,0.41656 -0.24127,0.83083 -0.39454,1.24219 -0.15326,0.41136 -0.32963,0.81912 -0.53125,1.22461 -0.24821,0.73601 -0.44116,1.47962 -0.58984,2.22851 -0.14867,0.74889 -0.25315,1.50284 -0.32617,2.26172 -0.073,0.75888 -0.11352,1.52309 -0.13477,2.28906 -0.0213,0.76598 -0.0223,1.53452 -0.0156,2.30469 0.0133,1.54034 0.0575,3.08524 0.0391,4.625 -0.009,0.76988 -0.0349,1.53929 -0.0879,2.30469 -0.0403,0.58223 -0.11556,1.16012 -0.19336,1.73828 1.10381,-0.11591 2.22169,-0.20937 3.41992,-0.26758 7.32685,-0.35571 12.011,-0.2629 17.77344,1.44336 z"
       transform="scale(0.26458333)" />
    <path
       id="path90614"
       style="fill:#ae916c;fill-opacity:1;stroke:none;stroke-width:0.999999;stroke-opacity:1"
       d="m 585.37305,455.32422 c -12.1779,7.60475 -20.63818,12.3156 -27.4375,15.0625 0.0421,0.34187 0.0651,0.69738 0.0449,1.08203 -0.0533,0.80472 -0.0719,1.60408 -0.0586,2.39648 0.0133,0.79241 0.0585,1.57786 0.13476,2.35743 0.20844,0.14299 0.40241,0.31721 0.58008,0.51757 0.17767,0.20037 0.33833,0.42693 0.48242,0.67383 0.14409,0.24691 0.27122,0.51426 0.37891,0.79688 0.10768,0.28262 0.19715,0.58116 0.26562,0.88867 0.0685,0.30751 0.11615,0.62373 0.14258,0.94531 0.0264,0.32158 0.0301,0.64784 0.0117,0.97266 -0.0184,0.32482 -0.0589,0.64761 -0.125,0.96484 -0.0661,0.31724 -0.15685,0.62891 -0.27344,0.92774 0.27835,0.80773 0.59064,1.60689 0.9375,2.39843 0.34686,0.79155 0.7283,1.57547 1.14258,2.34961 0.18255,0.414 0.3419,0.82974 0.47851,1.2461 0.13662,0.41635 0.25123,0.83361 0.34571,1.25195 0.0945,0.41834 0.16848,0.83785 0.22461,1.25781 0.0561,0.41997 0.0937,0.84051 0.11523,1.26172 0.0216,0.42121 0.0268,0.84158 0.0176,1.26367 -0.009,0.4221 -0.0322,0.84498 -0.0684,1.26758 -0.0724,0.84521 -0.19593,1.69208 -0.35351,2.53711 -0.15759,0.84504 -0.35004,1.68934 -0.5625,2.53125 -0.21247,0.84191 -0.44462,1.68175 -0.68165,2.51758 -0.47405,1.67166 -0.96699,3.32741 -1.35742,4.95703 -0.30333,1.34371 -0.68809,2.68189 -1.08593,4.02148 -0.39785,1.3396 -0.80951,2.67978 -1.16602,4.02735 -0.17826,0.67378 -0.34192,1.3493 -0.48438,2.02734 -0.14245,0.67805 -0.26384,1.35915 -0.35351,2.04297 -0.0897,0.68382 -0.14807,1.3714 -0.16797,2.0625 -0.0199,0.69111 -4.4e-4,1.38604 0.0664,2.08594 0.0257,0.55856 0.0916,1.12785 0.18164,1.70312 0.09,0.57528 0.2042,1.15669 0.32617,1.74219 0.24394,1.17099 0.51984,2.35634 0.69726,3.5293 0.0887,0.58648 0.15228,1.16886 0.17579,1.74609 0.0235,0.57724 0.006,1.14944 -0.0684,1.71094 -0.037,0.28075 -0.0868,0.55838 -0.1543,0.83398 -0.0675,0.2756 -0.15189,0.54872 -0.25391,0.81836 -0.10202,0.26964 -0.2227,0.53596 -0.36328,0.79883 -0.14058,0.26287 -0.30118,0.52206 -0.48437,0.77734 -0.53197,0.46774 -1.08358,0.91065 -1.65235,1.33399 -0.56876,0.42334 -1.15436,0.82651 -1.75195,1.21484 -0.59759,0.38834 -1.20771,0.76229 -1.82617,1.125 -0.61846,0.36272 -1.2456,0.71407 -1.87696,1.06055 -0.44003,0.24148 -0.88511,0.47543 -1.32812,0.71289 6.41818,1.90043 14.17741,5.80725 28.48633,13.42578 2.54154,1.35319 4.56268,2.42287 6.79687,3.60938 0.0786,-0.13493 0.18191,-0.27324 0.25977,-0.40821 1.81054,-3.1262 3.42822,-6.22288 4.86523,-9.28906 1.43702,-3.06618 2.69237,-6.10111 3.78125,-9.10742 1.08889,-3.00628 2.0112,-5.98317 2.77735,-8.92969 0.76611,-2.94656 1.37693,-5.86304 1.8457,-8.75 0.46877,-2.88695 0.79539,-5.74476 0.99219,-8.57226 0.19691,-2.82747 0.26278,-5.62442 0.21289,-8.39258 -0.0495,-2.7682 -0.21545,-5.50779 -0.48633,-8.2168 -0.27099,-2.70901 -0.64662,-5.38905 -1.11328,-8.03906 -0.46666,-2.65002 -1.02511,-5.2702 -1.66211,-7.86133 -0.63704,-2.59113 -1.35278,-5.15311 -2.13477,-7.68555 -0.78198,-2.53239 -1.62964,-5.03396 -2.53125,-7.50781 -0.90156,-2.47381 -1.8558,-4.9186 -2.85156,-7.33398 -0.65956,-1.59984 -1.36112,-3.1679 -2.05273,-4.74219 z"
       transform="scale(0.26458333)" />
    <path
       id="path85561"
       style="fill:#ae916c;fill-opacity:1;stroke:#ae916c;stroke-width:0.999999;stroke-opacity:1"
       d="m 420.50195,445.85352 c -4.52916,-0.92373 -9.09495,-1.8187 -13.71289,-2.67383 -2.57197,-0.4763 -5.15805,-0.94283 -7.75976,-1.39649 -2.60172,-0.45365 -5.2186,-0.89414 -7.85157,-1.32422 -2.633,-0.43003 -5.28148,-0.84836 -7.94726,-1.2539 -0.67923,-0.10332 -1.36932,-0.19898 -2.05078,-0.30078 0.0411,1.52147 0.0294,3.04459 0.1289,4.56445 0.18376,2.80623 0.44427,5.60915 0.69727,8.41406 0.25299,2.80491 0.49885,5.61092 0.65234,8.41992 0.1535,2.80901 0.21435,5.62093 0.0996,8.43946 -0.14992,2.06634 -0.34994,4.16468 -0.50195,6.26758 -0.15201,2.10289 -0.25408,4.21215 -0.21094,6.30273 0.0216,1.04529 0.0782,2.08414 0.18555,3.11719 0.10734,1.03304 0.26466,2.05952 0.48242,3.07422 0.21777,1.01469 0.49677,2.01758 0.84961,3.00781 0.35284,0.99023 0.77844,1.96807 1.29102,2.92773 0.99729,1.98441 1.93356,4.00542 2.78125,6.06055 0.84768,2.05513 1.6077,4.14412 2.25195,6.26562 0.64425,2.12152 1.17357,4.27543 1.56055,6.45899 0.38697,2.18355 0.63115,4.39741 0.70703,6.63867 0.12557,2.20716 0.1695,4.41308 0.15625,6.6211 -0.0133,2.208 -0.0834,4.41657 -0.1875,6.625 -0.20821,4.41683 -0.55024,8.83423 -0.83399,13.25 -0.14187,2.20787 -0.26863,4.4161 -0.35742,6.62304 -0.0888,2.20694 -0.13921,4.4136 -0.12695,6.61914 0.0123,2.20555 0.0867,4.40958 0.24804,6.61328 0.1613,2.2037 0.40928,4.40602 0.76758,6.60743 0.21168,0.78966 0.3509,1.58505 0.41992,2.37695 0.069,0.7919 0.0673,1.58123 -0.002,2.35547 -0.0693,0.77424 -0.20692,1.53481 -0.41016,2.27148 -0.20322,0.73667 -0.47185,1.44971 -0.80468,2.12891 -0.33283,0.6792 -0.72942,1.32395 -1.1875,1.92578 -0.45808,0.60183 -0.97767,1.15951 -1.55664,1.66406 -0.57898,0.50455 -1.2166,0.95639 -1.91211,1.34375 -0.64314,0.3582 -1.34673,0.64705 -2.08594,0.88867 16.99526,-0.31591 23.61356,-1.27954 33.73633,-4.00976 0.001,-0.26569 0.0137,-0.53462 0.008,-0.79102 0.007,-0.83236 0.006,-1.66384 0.008,-2.49609 0.0174,-1.05577 0.0466,-2.11193 0.0391,-3.16797 0.004,-1.4541 0.0648,-2.90723 0.0762,-4.36133 0.0378,-2.17398 0.0791,-4.34956 0.0137,-6.52344 -0.028,-1.75079 -0.1025,-3.5007 -0.0488,-5.25195 0.0495,-2.33688 0.10662,-4.67326 0.17578,-7.00976 0.0498,-0.6309 0.1206,-1.25607 0.22266,-1.8711 0.10206,-0.61502 0.23593,-1.21961 0.4082,-1.8125 0.17227,-0.59288 0.38409,-1.17381 0.64453,-1.73828 0.26044,-0.56447 0.56897,-1.11278 0.93555,-1.64258 0.8846,-1.43922 1.8706,-2.8199 2.79297,-4.23633 0.46118,-0.70821 0.90517,-1.42612 1.31445,-2.16406 0.40928,-0.73794 0.78314,-1.49583 1.09961,-2.28711 0.31353,-0.81939 0.6,-1.64882 0.85547,-2.48633 0.25547,-0.8375 0.4808,-1.68324 0.66797,-2.53711 0.18716,-0.85386 0.33669,-1.7155 0.44531,-2.58398 0.10862,-0.86848 0.17547,-1.74364 0.19531,-2.625 0.0741,-1.96618 0.0802,-3.93341 0.0801,-5.90039 -1.2e-4,-1.96698 -0.006,-3.93372 0.0449,-5.90039 0.0769,-1.46542 0.22942,-2.90141 0.45508,-4.32617 0.22567,-1.42476 0.52447,-2.83829 0.89063,-4.25977 0.1668,-0.77918 0.31842,-1.56061 0.44336,-2.34375 0.12494,-0.78314 0.22331,-1.56816 0.28711,-2.35547 0.0638,-0.7873 0.0928,-1.57748 0.0762,-2.36914 -0.0166,-0.79166 -0.079,-1.58464 -0.19532,-2.38086 -0.2328,-1.91675 -0.24937,-2.29858 -0.61523,-4.25195 -0.34792,-1.85688 -0.77239,-3.69692 -1.2168,-5.5332 -0.4444,-1.83628 -0.90875,-3.66879 -1.33593,-5.50782 -0.41025,-1.74724 -0.83531,-3.49496 -1.24414,-5.24804 -0.40884,-1.75308 -0.80159,-3.51245 -1.14649,-5.27735 -0.3449,-1.76489 -0.64288,-3.53567 -0.86133,-5.31836 -0.10922,-0.89134 -0.19778,-1.78668 -0.26367,-2.68359 -0.0659,-0.89691 -0.1083,-1.79599 -0.12305,-2.69922 0.12643,-0.84019 0.20959,-1.68698 0.37891,-2.51953 0.0436,-0.21437 0.0964,-0.42562 0.14844,-0.63672 -0.055,-0.15517 -0.11096,-0.30974 -0.16602,-0.46484 -0.0209,-0.0596 -0.0449,-0.1184 -0.0664,-0.17774 -0.12604,-0.28773 -0.30856,-0.55749 -0.36914,-0.86523 -0.0115,-0.0585 -0.026,-0.12585 -0.0391,-0.19336 -0.23392,-0.57772 -0.47393,-1.15175 -0.69531,-1.73437 -0.40191,-1.15979 -0.76822,-2.3328 -1.16016,-3.4961 -0.15671,-0.40172 -0.28385,-0.81115 -0.38476,-1.22656 -0.10091,-0.41541 -0.1756,-0.8368 -0.22852,-1.26367 -0.0805,-0.79454 -0.0587,-1.5951 -0.0625,-2.39258 0,-6.5e-4 1e-5,-0.001 0,-0.002 z"
       transform="scale(0.26458333)" />
    <path
       id="path85418"
       style="fill:#ae916c;fill-opacity:1;stroke:#ae916c;stroke-width:0.999999;stroke-opacity:1"
       d="m 342.50781,434.17969 c -0.20693,-0.0197 -0.412,-0.041 -0.61914,-0.0605 -2.85265,-0.26835 -5.72453,-0.52155 -8.61914,-0.75976 -2.89461,-0.23849 -5.8119,-0.46089 -8.75,-0.66797 -2.9381,-0.20712 -5.89775,-0.39934 -8.88086,-0.57422 -2.98311,-0.17499 -5.98988,-0.33296 -9.01953,-0.47461 -3.02965,-0.14173 -6.08243,-0.26729 -9.16016,-0.375 -1.31117,-0.0459 -2.64484,-0.0759 -3.96484,-0.11524 0.79422,1.68432 1.59047,3.36742 2.375,5.05664 1.16845,2.51588 2.32623,5.03792 3.47266,7.56446 1.14642,2.52654 2.28249,5.0568 3.40625,7.59375 1.12375,2.53695 2.23549,5.07985 3.33593,7.62695 0.45001,1.06987 0.92872,2.14307 1.41797,3.2207 0.48926,1.07764 0.98955,2.15987 1.48243,3.24805 0.49286,1.08819 0.97859,2.18168 1.43945,3.2832 0.46086,1.10153 0.89586,2.21048 1.28906,3.32813 0.1966,0.55882 0.38363,1.12021 0.55664,1.68359 0.17301,0.56338 0.33161,1.12899 0.47656,1.69727 0.14496,0.56828 0.27622,1.13936 0.38868,1.71289 0.11245,0.57353 0.2077,1.14938 0.2832,1.72851 0.0755,0.57914 0.12998,1.16102 0.16406,1.7461 0.0341,0.58508 0.0469,1.17425 0.0352,1.76562 -0.0118,0.59138 -0.0473,1.18519 -0.10938,1.78321 -0.0621,0.59801 -0.1507,1.19967 -0.26758,1.80468 -0.10868,0.34354 -0.1993,0.68368 -0.27343,1.01953 -0.0741,0.33587 -0.13138,0.66712 -0.17383,0.9961 -0.0425,0.32898 -0.0703,0.65563 -0.084,0.97851 -0.0136,0.32289 -0.0142,0.6414 -0.002,0.95899 0.0123,0.31759 0.037,0.63418 0.0723,0.94726 0.0353,0.31309 0.0812,0.62423 0.13672,0.9336 0.11096,0.61874 0.2592,1.23119 0.43359,1.83984 0.17439,0.60865 0.37503,1.21346 0.58984,1.81836 0.21481,0.60491 0.44552,1.2089 0.67774,1.81641 0.23222,0.6075 0.46673,1.21753 0.69336,1.83398 0.22662,0.61645 0.44456,1.23936 0.64257,1.8711 0.10414,0.97658 0.20242,1.96376 0.28907,2.95898 0.0867,0.99522 0.16089,1.99806 0.21484,3.00391 0.054,1.00584 0.0877,2.01496 0.0937,3.02343 0.006,1.00848 -0.0152,2.01644 -0.0723,3.01953 -0.057,1.00311 -0.14983,2.00246 -0.28516,2.99219 -0.0677,0.49487 -0.14428,0.98654 -0.23438,1.47657 -0.0901,0.49001 -0.19222,0.9787 -0.30664,1.46289 -0.11441,0.48418 -0.24217,0.96406 -0.38281,1.4414 -0.14064,0.47734 -0.29412,0.95043 -0.46289,1.41992 -0.16877,0.4695 -0.35198,0.93583 -0.55078,1.39649 -0.1988,0.46065 -0.41381,0.91638 -0.64453,1.36719 -0.2605,0.31332 -0.54647,0.6025 -0.85352,0.87109 -0.30704,0.26858 -0.63526,0.5165 -0.97851,0.75 -0.34326,0.2335 -0.70119,0.45209 -1.07032,0.66016 -0.36912,0.20806 -0.7501,0.40537 -1.13476,0.59765 -0.76933,0.38456 -1.55868,0.74763 -2.32813,1.12695 -0.38472,0.18967 -0.76357,0.38311 -1.13281,0.58594 -0.36924,0.20284 -0.72884,0.41497 -1.07226,0.64063 0.0856,0.43596 0.14774,0.85111 0.18359,1.24609 0.0359,0.39498 0.0458,0.77065 0.0273,1.12695 -0.0185,0.35631 -0.0651,0.69375 -0.14257,1.01368 -0.0774,0.31993 -0.18711,0.62234 -0.32813,0.9082 -0.14102,0.28585 -0.31424,0.55451 -0.52344,0.80859 -0.2092,0.25409 -0.45433,0.49219 -0.73633,0.7168 -0.28199,0.22461 -0.60153,0.43537 -0.96093,0.63281 -0.35941,0.19744 -0.7578,0.38212 -1.19922,0.55469 -0.22119,0.0725 -0.45091,0.17154 -0.6875,0.29102 -0.23659,0.11947 -0.47954,0.25952 -0.72852,0.41601 -0.49796,0.31298 -1.0174,0.6906 -1.54687,1.0918 -0.52948,0.4012 -1.06855,0.82668 -1.60547,1.23633 -0.53692,0.40964 -1.07344,0.80231 -1.59375,1.14062 -0.26015,0.16916 -0.51609,0.32457 -0.76758,0.46094 -0.25149,0.13636 -0.49847,0.25405 -0.73828,0.34766 -0.23981,0.0936 -0.47213,0.16421 -0.69727,0.20507 -0.22513,0.0409 -0.44294,0.0511 -0.65039,0.0293 -0.20744,-0.0218 -0.40505,-0.0774 -0.59179,-0.17187 -0.18675,-0.0945 -0.36236,-0.22712 -0.52539,-0.4043 -0.16304,-0.17718 -0.3129,-0.39817 -0.44922,-0.66797 -0.13633,-0.2698 -0.25863,-0.58854 -0.36524,-0.96094 -0.27935,-0.76079 -0.52028,-1.52992 -0.73242,-2.30664 -0.21214,-0.77672 -0.39467,-1.56089 -0.55664,-2.34961 -0.16197,-0.78871 -0.30476,-1.58212 -0.43359,-2.3789 -0.12884,-0.79679 -0.24467,-1.59752 -0.35743,-2.39844 -0.2255,-1.60185 -0.43579,-3.20791 -0.69921,-4.80274 -0.13172,-0.79741 -0.2766,-1.59109 -0.44336,-2.38086 -0.16676,-0.78976 -0.35537,-1.57533 -0.57422,-2.35351 -0.40717,-1.90129 -0.85954,-3.78987 -1.34571,-5.66797 -0.003,0.005 -0.005,0.007 -0.008,0.0117 -3.11202,4.54775 -7.84014,12.87277 -10.50781,18.5 -2.86787,6.04951 -6.70301,12.27536 -9.38281,15.23242 -3.89171,4.29434 -5.71766,5.39895 -12.91407,7.82227 -4.60955,1.55221 -8.94336,3.05159 -9.63086,3.33203 -2.39217,0.97583 -1.2282,-1.46688 2.08399,-4.375 1.83356,-1.60993 5.42945,-3.51545 7.99023,-4.23242 6.53775,-1.83047 11.30675,-7.43124 18.00196,-21.14454 3.05495,-6.25726 8.72755,-15.84362 12.62304,-21.33398 -0.55815,-1.83737 -1.14392,-3.66601 -1.76172,-5.48438 -0.64355,-1.89419 -1.31668,-3.77876 -2.01562,-5.65429 -0.69894,-1.87553 -1.4232,-3.74271 -2.16797,-5.60156 -0.74477,-1.85886 -1.50994,-3.71051 -2.29101,-5.55469 -0.0316,-0.0747 -0.066,-0.14803 -0.0977,-0.22266 -4.44741,-3.45888 -6.15438,-6.2941 -7.0957,-10.80273 -0.43298,-2.07375 -0.27049,-3.12407 0.33007,-3.17188 0.02,-0.002 0.0398,-0.003 0.0605,-0.002 v -0.002 c 0.0208,6.4e-4 0.0425,0.003 0.0645,0.008 0.20945,0.0273 0.47442,0.18872 0.76563,0.41797 -0.10702,-0.28579 -0.21984,-0.56969 -0.32227,-0.85742 -0.43915,-1.23366 -0.83673,-2.48284 -1.21484,-3.74219 -0.75621,-2.51871 -1.42906,-5.07302 -2.16797,-7.5957 -0.36945,-1.26135 -0.75588,-2.51431 -1.17773,-3.75196 -0.21093,-0.61882 -0.431,-1.23393 -0.66211,-1.84375 -0.23112,-0.60981 -0.47249,-1.2157 -0.72852,-1.81445 -0.25603,-0.59875 -0.52682,-1.19173 -0.8125,-1.77734 -0.28567,-0.58563 -0.5862,-1.16394 -0.90625,-1.73438 -0.32005,-0.57044 -0.65843,-1.13235 -1.01758,-1.68555 -0.35914,-0.55319 -0.7396,-1.09696 -1.14257,-1.63086 -0.21902,-0.25482 -0.41779,-0.51628 -0.59766,-0.7832 -0.17987,-0.26692 -0.34118,-0.53874 -0.48633,-0.81641 -0.14514,-0.27767 -0.27381,-0.56058 -0.38867,-0.84765 -0.11486,-0.28708 -0.21568,-0.57986 -0.30469,-0.875 -0.178,-0.59028 -0.30897,-1.19414 -0.41015,-1.8086 -0.10119,-0.61445 -0.17261,-1.2393 -0.23243,-1.86718 -0.0598,-0.62788 -0.10819,-1.25813 -0.16211,-1.88867 -0.0513,-0.60046 -0.11012,-1.19962 -0.1875,-1.79297 -6.85786,1.97367 -14.25329,4.28286 -19.75976,6.26953 -26.90823,9.70805 -51.04122,20.81342 -84.7832,39.01562 -21.47528,11.58482 -24.39877,13.48178 -32.12696,20.85352 -9.66614,9.22031 -9.77346,9.85272 -2.48242,14.47656 3.26575,2.07111 27.2963,18.71402 28.25977,20.69336 0.61191,1.25711 -20.08759,-11.15714 -22.76758,-12.07031 -5.88944,-2.00674 -16.66474,-8.14751 -17.625,-3.77539 -1.05748,4.81462 1.12433,10.55044 6.13281,16.12109 6.29934,7.00641 14.62719,12.46824 28.42188,18.64063 24.48471,10.9556 58.84489,20.38671 74.27539,20.38671 5.93113,0 13.7188,0.88309 21.25,2.40821 6.53813,1.324 18.18677,3.1336 25.88671,4.02148 12.51696,1.44333 17.66776,1.9486 20.14454,2.92383 3.56279,0.37939 7.15397,0.6854 10.77539,0.91406 3.87871,0.24492 7.78447,0.42111 11.70117,0.56836 6.80542,0.25588 13.63464,0.44795 20.42969,0.73047 -2.32654,-0.86997 4.74269,-1.06641 35.09961,-1.06641 1.52439,0 2.67476,-0.006 4.10156,-0.008 -0.24044,-6.03858 -0.49254,-12.08187 -0.94922,-18.10742 -0.23467,-3.09628 -0.52125,-6.18807 -0.88672,-9.27148 -0.36547,-3.08342 -0.80916,-6.15851 -1.35547,-9.22266 -0.14484,-1.38938 -0.34238,-2.7692 -0.57812,-4.14258 -0.23575,-1.37338 -0.51101,-2.74092 -0.80664,-4.10351 -0.59127,-2.72519 -1.27127,-5.43311 -1.91602,-8.14649 -0.64475,-2.71338 -1.25301,-5.43245 -1.70312,-8.17578 -0.22506,-1.37167 -0.41114,-2.74973 -0.54102,-4.13672 -0.12988,-1.38698 -0.20335,-2.78193 -0.20703,-4.18945 -0.0327,-2.70068 -0.20457,-5.39051 -0.50391,-8.0625 -0.29934,-2.67199 -0.72604,-5.32553 -1.26953,-7.95703 -0.54349,-2.63151 -1.20357,-5.2411 -1.96875,-7.82032 -0.76517,-2.57921 -1.63522,-5.12939 -2.59961,-7.64453 -0.50591,-1.37561 -0.92551,-2.76366 -1.27148,-4.16211 -0.34598,-1.39844 -0.61875,-2.806 -0.83203,-4.22265 -0.21329,-1.41665 -0.36678,-2.84125 -0.47461,-4.27149 -0.10783,-1.43023 -0.1696,-2.86745 -0.19922,-4.30664 -0.0592,-2.87838 0.009,-5.76979 0.0996,-8.65625 0.0902,-2.88646 0.20102,-5.76745 0.22265,-8.625 -0.61799,-3.0367 -1.27604,-6.06108 -1.84765,-9.09961 -0.28581,-1.51926 -0.55111,-3.04279 -0.77735,-4.57226 -0.18858,-1.27487 -0.3302,-2.55764 -0.45703,-3.84375 z m -186.90039,50.69726 c 1.24149,0.008 2.55087,0.31596 3.88086,1.00391 5.66861,2.93133 6.69955,8.48218 2.50195,13.4707 -3.10642,3.69181 -7.8007,4.13073 -11.66406,1.0918 -6.79198,-5.34255 -2.064,-15.37861 5.03321,-15.56445 0.0821,-0.002 0.16527,-0.002 0.24804,-0.002 z m 60.37891,4.22461 c 1.28857,0.0227 8.82684,8.81984 10.84961,12.82617 0.83304,1.64999 2.72186,6.82499 4.19726,11.5 2.4017,7.60948 2.61416,9.44288 2.02735,17.5 -0.6265,8.60168 -0.51836,9.3034 2.43164,15.84375 3.50422,7.76916 3.76099,10.43182 1.47461,15.25 -1.38297,2.91444 -2.5515,3.68524 -8.25,5.44922 -8.52466,2.63879 -13.11452,3.03963 -21.10157,1.83789 -10.88076,-1.63714 -9.93681,-2.52645 4.0293,-3.79297 11.1354,-1.0098 19.73239,-3.16558 21.07813,-5.2871 1.49654,-2.3593 0.89405,-5.75926 -2.22852,-12.57227 -2.9709,-6.48212 -3.05999,-7.07514 -2.4375,-16.22852 0.5805,-8.53647 0.37743,-10.3632 -2.00391,-18 -1.45768,-4.67467 -4.43746,-11.7911 -6.62304,-15.81445 -2.18555,-4.02338 -3.81328,-7.80234 -3.61524,-8.39648 0.0268,-0.0805 0.086,-0.11675 0.17188,-0.11524 z m 88.1914,43.90039 c -0.2427,0.0354 -0.36492,0.088 -0.41211,0.13867 -0.0236,0.0253 -0.0281,0.0506 -0.0195,0.0723 0.009,0.0217 0.0289,0.0396 0.0586,0.0527 0.0593,0.0264 0.14971,0.0316 0.22656,-0.006 0.0384,-0.0187 0.0735,-0.0477 0.0996,-0.0898 0.0261,-0.0421 0.0442,-0.0975 0.0469,-0.16797 z m 84.53321,47.92383 c -0.70953,0.323 -0.76465,0.4023 -0.61524,0.36133 0.14942,-0.041 0.50336,-0.20221 0.61524,-0.36133 z"
       transform="scale(0.26458333)" />
    <path
       id="path85416"
       style="fill:#7f685b;fill-opacity:1;stroke:#ae916c;stroke-width:0.999999;stroke-opacity:1"
       d="m 342.50781,432.17969 c 0.12683,1.28611 0.26845,2.56888 0.45703,3.84375 0.22624,1.52947 0.49154,5.053 0.77735,6.57226 0.57161,3.03853 1.22966,6.06291 1.84765,9.09961 -0.0216,2.85755 -0.13249,5.73854 -0.22265,8.625 -0.0902,2.88646 -0.15885,5.77787 -0.0996,8.65625 0.0296,1.43919 0.0914,2.87641 0.19922,4.30664 0.10783,1.43024 0.26132,2.85484 0.47461,4.27149 0.21328,1.41665 0.48605,2.82421 0.83203,4.22265 0.34597,1.39845 0.76557,2.7865 1.27148,4.16211 0.96439,2.51514 1.83444,5.06532 2.59961,7.64453 0.76518,2.57922 1.42526,5.18881 1.96875,7.82032 0.54349,2.6315 0.97019,5.28504 1.26953,7.95703 0.29934,2.67199 0.4712,5.36182 0.50391,8.0625 0.004,1.40752 0.0771,2.80247 0.20703,4.18945 0.12988,1.38699 0.31596,2.76505 0.54102,4.13672 0.45011,2.74333 1.05837,5.4624 1.70312,8.17578 0.64475,2.71338 1.32475,5.4213 1.91602,8.14649 0.29563,1.36259 0.57089,2.73013 0.80664,4.10351 0.23574,1.37338 0.43328,2.7532 0.57812,4.14258 0.54631,3.06415 0.99,6.13924 1.35547,9.22266 0.36547,3.08341 0.65205,6.1752 0.88672,9.27148 0.45668,6.02555 0.70878,12.06884 0.94922,18.10742 8.34621,-0.008 15.36113,-0.0387 20.95117,-0.14258 0.73921,-0.24162 1.4428,-0.53047 2.08594,-0.88867 0.69551,-0.38736 1.33313,-0.8392 1.91211,-1.34375 0.57897,-0.50455 1.09856,-1.06223 1.55664,-1.66406 0.45808,-0.60183 0.85467,-1.24658 1.1875,-1.92578 0.33283,-0.6792 0.60145,-1.39224 0.80468,-2.12891 0.20324,-0.73667 0.34088,-1.49724 0.41016,-2.27148 0.0693,-0.77424 0.071,-1.56357 0.002,-2.35547 -0.069,-0.7919 -0.20824,-1.58729 -0.41992,-2.37695 -0.3583,-2.20141 -0.60628,-4.40373 -0.76758,-6.60743 -0.16129,-2.2037 -0.23578,-4.40773 -0.24804,-6.61328 -0.0123,-2.20554 0.0382,-4.4122 0.12695,-6.61914 0.0888,-2.20694 0.21555,-4.41516 0.35742,-6.62304 0.28375,-4.41577 0.62578,-8.83316 0.83399,-13.25 0.1041,-2.20843 0.17424,-4.41699 0.1875,-6.625 0.0133,-2.20802 -0.0307,-4.41394 -0.15625,-6.6211 -0.0759,-2.24126 -0.32006,-4.45512 -0.70703,-6.63867 -0.38698,-2.18356 -0.9163,-4.33747 -1.56055,-6.45899 -0.64425,-2.12151 -1.40427,-4.21049 -2.25195,-6.26562 -0.84769,-2.05513 -1.78396,-4.07614 -2.78125,-6.06055 -0.51258,-0.95966 -0.93818,-1.9375 -1.29102,-2.92773 -0.35284,-0.99023 -0.63184,-1.99312 -0.84961,-3.00781 -0.21776,-1.0147 -0.37508,-2.04118 -0.48242,-3.07422 -0.10734,-1.03305 -0.16398,-2.0719 -0.18555,-3.11719 -0.0431,-2.09058 0.0589,-4.19984 0.21094,-6.30273 0.15201,-2.1029 0.35203,-4.20124 0.50195,-6.26758 0.11474,-2.81853 0.0539,-5.63045 -0.0996,-8.43946 -0.15349,-2.809 -0.39935,-5.61501 -0.65234,-8.41992 -0.253,-2.80491 -0.51351,-5.60783 -0.69727,-8.41406 -0.0995,-1.51986 -0.0878,-5.04298 -0.1289,-6.56445 -1.99307,-0.29774 -3.98592,-0.59571 -5.99805,-0.87891 -2.7001,-0.38007 -5.41835,-0.74603 -8.1543,-1.09961 -2.73595,-0.35376 -5.49034,-0.69336 -8.26367,-1.01953 -2.77332,-0.32617 -5.56472,-0.63967 -8.37695,-0.9375 -2.60803,-0.2762 -5.23602,-0.53804 -7.87891,-0.78906 z m 15.55469,2.14258 c -0.73778,0.23743 -0.89983,0.38689 -0.79688,0.40234 0.10296,0.0155 0.47091,-0.1031 0.79688,-0.40234 z"
       transform="scale(0.26458333)"
       sodipodi:nodetypes="csscssssscssscssssscssccssssssscsssssscssscssssscssscscssccsc" />
    <path
       id="path2838"
       style="fill:#705c51;fill-opacity:1;stroke-width:0.999999"
       d="m 292.99414,520.26367 c -0.66719,3.284 -1.34183,6.54978 -1.91406,9.79102 -0.32773,1.85632 -0.62643,3.70959 -0.87891,5.55859 -0.25247,1.849 -0.45841,3.69446 -0.60351,5.54102 -0.14511,1.84655 -0.22877,3.69397 -0.23438,5.54297 -0.006,1.84899 0.0664,3.70031 0.23242,5.55664 0.16601,1.85632 0.42519,3.7174 0.79492,5.58593 0.33163,1.67594 0.78466,3.35935 1.30469,5.04883 1.08293,-0.11628 5.12247,1.44991 11.09375,4.44531 9.5266,4.77888 11.06037,5.2317 20.70313,6.11914 21.1997,1.95111 34.11031,-1.71764 43.79297,-12.44726 7.7156,-8.54963 10.07284,-17.01558 7.7832,-27.95898 -3.33252,-15.9278 -14.71176,-30.88281 -25.99219,-34.16211 -4.86667,-1.41479 -6.69128,-1.50732 -10.93945,-0.55665 -5.74233,1.28508 -25.0703,10.42593 -36.89063,17.44727 -5.51544,3.2762 -7.52227,4.45392 -8.25195,4.48828 z"
       transform="scale(0.26458333)" />
    <path
       id="path1584"
       style="fill:#7f685b;fill-opacity:1;stroke:#7f685b;stroke-width:0.999999;stroke-opacity:1"
       d="m 319.02344,403.42773 c -0.72529,0 -2.58345,2.36252 -4.13086,5.25 -3.58394,6.68784 -5.47612,6.77617 -6.8457,0.32032 -0.57521,-2.71129 -1.56938,-5.10324 -2.20899,-5.31641 -0.63961,-0.2132 -2.52518,2.30855 -4.18945,5.60547 -1.66428,3.29692 -3.4336,6.24747 -3.9336,6.55664 -1.16916,0.72257 -2.61428,-1.12836 -3.83593,-4.91602 -0.53216,-1.65002 -1.52327,-3 -2.20313,-3 -0.67986,0 -2.59894,3.26249 -4.26367,7.25 -1.66473,3.98748 -3.42422,7.25 -3.91016,7.25 -0.48589,0 -1.86255,-1.91251 -3.06054,-4.25 -2.49427,-4.86674 -2.4929,-4.87068 -3.375,5.5 -0.3644,4.28434 -0.65321,6.27095 -1.23438,7.13868 0.95066,0.008 1.91529,0.005 2.86133,0.0156 3.17844,0.0367 6.33167,0.0933 9.45898,0.16602 3.12732,0.0727 6.22893,0.16183 9.30664,0.26953 3.07772,0.1077 6.13051,0.23322 9.16016,0.375 3.02965,0.14177 6.03642,0.29971 9.01953,0.47461 2.98311,0.17489 5.94276,0.36716 8.88086,0.57422 2.9381,0.20706 5.85539,0.42969 8.75,0.66797 2.89461,0.23827 5.76649,0.49123 8.61914,0.75976 2.85266,0.26853 5.68582,0.55177 8.49805,0.84961 2.81223,0.29784 5.60363,0.61131 8.37695,0.9375 2.77333,0.32619 5.52772,0.66594 8.26367,1.01953 2.73595,0.35359 5.4542,0.71957 8.1543,1.09961 2.7001,0.38004 5.38305,0.77416 8.04883,1.17969 2.66578,0.40553 5.31427,0.82384 7.94726,1.2539 2.633,0.43007 5.24984,0.87057 7.85157,1.32422 2.60172,0.45366 5.18777,0.9202 7.75976,1.39649 5.14398,0.95257 10.23143,1.94894 15.26563,2.98633 5.03419,1.03738 10.01649,2.1159 14.95312,3.23046 4.93664,1.11457 9.82644,2.2651 14.67774,3.44922 4.85129,1.18413 9.66323,2.40043 14.4414,3.64649 4.77818,1.24605 9.52297,2.52191 14.24024,3.82226 4.71727,1.30036 9.40758,2.62563 14.07617,3.97266 4.66859,1.34703 9.31513,2.71548 13.94726,4.10156 4.46633,1.33647 8.91775,2.69084 13.36133,4.05664 0.97553,-0.81812 6.32802,-3.55006 12.75,-6.48242 14.35559,-6.55495 15.07617,-7.31551 15.07617,-15.88672 10e-6,-6.98895 -3.87046,-13.08364 -12.21093,-19.22851 -11.14133,-8.20842 -23.41561,-13.45635 -43.30469,-18.51563 -11.26156,-2.86465 -14.64337,-3.30299 -25.48438,-3.31055 -11.19681,-0.007 -13.17763,0.26771 -19,2.625 -3.57497,1.44745 -9.08054,2.92245 -12.23437,3.27735 -3.15383,0.35482 -5.97838,1.03958 -6.27734,1.52344 -0.29904,0.48389 -5.47109,3.32318 -11.49414,6.30859 -11.37188,5.63656 -11.98147,5.67769 -13.43946,0.92187 -0.8702,-2.83853 -1.50523,-2.81481 -7.59961,0.27344 l -4.97656,2.52149 -0.86719,-2.27149 c -0.47618,-1.24989 -1.25809,-3.58631 -1.73828,-5.1914 -1.27479,-4.26112 -2.75492,-4.19336 -7.68555,0.35156 -2.42649,2.23665 -4.75675,4.0664 -5.17968,4.0664 -0.42293,0 -0.50889,-1.59994 -0.19141,-3.55664 1.15105,-7.09311 -0.81434,-8.03885 -7.1582,-3.44336 -2.27777,1.64999 -4.29496,3 -4.48242,3 -0.18747,0 -0.13573,-2.47501 0.11523,-5.5 0.58439,-7.04685 -1.00223,-7.25326 -7.6875,-1 -2.64597,2.47503 -5.29972,4.5 -5.89648,4.5 -0.59676,0 -1.39466,-2.13751 -1.77344,-4.75 -0.37878,-2.61252 -0.9288,-5.16212 -1.22266,-5.66601 -0.29385,-0.50385 -2.63714,1.48192 -5.20703,4.41211 -2.66307,3.03639 -5.1478,5.03285 -5.7793,4.64258 -0.6094,-0.37663 -1.40028,-2.6249 -1.75585,-4.9961 -1.2433,-8.29092 -3.38477,-8.44945 -7.81055,-0.57617 -1.55863,2.77274 -3.35702,4.87723 -3.9961,4.67578 -0.63909,-0.20133 -2.00201,-2.92633 -3.02929,-6.05469 -1.02732,-3.12835 -2.46221,-5.6875 -3.1875,-5.6875 z"
       transform="scale(0.26458333)" />
    <g
       id="g97427"
       transform="translate(1.8613861,85.170512)">
      <path
         style="fill:#9c8261;fill-opacity:1;stroke:none;stroke-width:0.999999;stroke-opacity:1"
         d="m 208.95117,167.19531 c -0.0859,-0.001 -0.14504,0.0366 -0.17187,0.11719 -0.19804,0.59414 1.42968,4.37115 3.61523,8.39453 2.18558,4.02335 5.16537,11.13978 6.62305,15.81445 2.38133,7.6368 2.5844,9.46354 2.0039,18 -0.62249,9.15339 -0.5334,9.7464 2.4375,16.22852 3.12257,6.81301 3.72506,10.21492 2.22852,12.57422 -1.34574,2.12152 -9.94273,4.27537 -21.07812,5.28516 -13.96612,1.26651 -14.91006,2.15582 -4.0293,3.79296 7.98705,1.20174 12.57691,0.8009 21.10156,-1.83789 5.6985,-1.76397 6.86703,-2.53482 8.25,-5.44922 2.28638,-4.81821 2.02961,-7.48084 -1.47461,-15.25 -2.95,-6.54035 -3.05814,-7.24207 -2.43164,-15.84375 0.58681,-8.05712 0.37436,-9.89052 -2.02734,-17.5 -1.47541,-4.67501 -3.36423,-9.85001 -4.19727,-11.5 -2.02277,-4.00634 -9.56104,-12.80425 -10.84961,-12.82617 z"
         transform="scale(0.26458333)"
         id="path97366" />
      <path
         id="path97362"
         style="fill:#9c8261;fill-opacity:1;stroke:none;stroke-width:0.999999;stroke-opacity:1"
         d="m 285.42773,514.95898 -1.74218,-6.18359 c -0.0429,0.0606 -0.0858,0.12097 -0.12891,0.18164 -3.89623,5.48399 -9.59028,15.10318 -12.65234,21.375 -6.69521,13.7133 -11.46421,19.31407 -18.00196,21.14453 -2.56078,0.71698 -6.15666,2.6225 -7.99023,4.23242 -3.31219,2.90812 -4.47616,5.35084 -2.08399,4.375 0.6875,-0.28044 5.02131,-1.77982 9.63086,-3.33203 7.19641,-2.42332 9.02236,-3.52793 12.91407,-7.82226 2.6798,-2.95707 6.51495,-9.18291 9.38281,-15.23242 2.66767,-5.62723 7.39579,-13.95225 10.50781,-18.5 0.0543,-0.0794 0.10945,-0.15847 0.16406,-0.23829 z"
         transform="matrix(0.26458333,0,0,0.26458333,-1.8613861,-85.170512)" />
      <path
         id="path98878"
         style="fill:#735e52;fill-opacity:1;stroke:none;stroke-width:0.999999;stroke-opacity:1"
         d="m 268.45703,472.50391 c -0.01,3.6e-4 -0.0193,9.2e-4 -0.0293,0.002 -0.60057,0.0478 -0.76305,1.09811 -0.33007,3.17187 1.27956,6.12862 3.93275,9.15687 13.03125,14.87696 4.92257,3.09475 9.07604,6.25808 9.23047,7.02929 0.15284,0.76269 -2.83921,5.77657 -6.67383,11.19141 l 1.74218,6.18359 c 3.07342,-4.49109 6.56416,-9.58822 7.82227,-11.41992 4.62785,-6.7378 3.0687,-9.72644 -8.67188,-16.61523 -8.14117,-4.77691 -9.68041,-6.08435 -12.64257,-10.7461 -1.49074,-2.34606 -2.68051,-3.57646 -3.38282,-3.66796 -0.022,-0.003 -0.0437,-0.005 -0.0645,-0.006 -0.0103,-5e-4 -0.0212,-3.7e-4 -0.0312,0 z"
         transform="matrix(0.26458333,0,0,0.26458333,-1.8613861,-85.170512)" />
    </g>
    <path
       style="fill:#9c8261;fill-opacity:1;stroke:none;stroke-width:0.127596px;stroke-linecap:butt;stroke-linejoin:miter;stroke-opacity:1"
       d="m 37.867195,142.96323 c 0.152864,0.61327 2.713504,0.28241 3.293177,-0.67668 0.420964,-0.69649 -0.174064,-1.70576 -0.676678,-2.34583 -1.027508,-1.30851 -2.843583,-1.73533 -4.33076,-2.48116 -0.776602,-0.38947 -1.616523,-0.64378 -2.39094,-1.03758 -1.150569,-0.58507 -2.105204,-2.34398 -3.338287,-1.96237 -0.523742,0.16208 -1.196697,1.17956 -0.699243,1.4887 1.875714,1.16565 7.669973,5.11825 8.142731,7.01492 z"
       id="path70897-8"
       sodipodi:nodetypes="saaaaass" />
    <path
       style="fill:#9c8261;fill-opacity:1;stroke:none;stroke-width:0.136068px;stroke-linecap:butt;stroke-linejoin:miter;stroke-opacity:1"
       d="m 29.250239,136.73823 c -0.265087,-0.08 -0.958398,0.0524 -1.319979,0.71289 -0.389987,0.71236 -0.244662,1.58997 0.121825,1.61131 2.246479,0.13082 8.112269,3.71765 9.519291,3.75239 2.581099,0.0638 -4.197384,-3.84577 -5.869126,-4.7386 -1.10363,-0.58941 -1.464191,-1.03984 -2.452011,-1.33799 z"
       id="path74790-2"
       sodipodi:nodetypes="ssssss" />
  </g>
</svg>
