<?xml version="1.0" encoding="UTF-8" standalone="no"?>
<!-- Created with Inkscape (http://www.inkscape.org/) -->

<svg
   xmlns:dc="http://purl.org/dc/elements/1.1/"
   xmlns:cc="http://creativecommons.org/ns#"
   xmlns:rdf="http://www.w3.org/1999/02/22-rdf-syntax-ns#"
   xmlns:svg="http://www.w3.org/2000/svg"
   xmlns="http://www.w3.org/2000/svg"
   xmlns:sodipodi="http://sodipodi.sourceforge.net/DTD/sodipodi-0.dtd"
   xmlns:inkscape="http://www.inkscape.org/namespaces/inkscape"
   width="236.38651mm"
   height="68.841904mm"
   viewBox="0 0 236.38651 68.841904"
   version="1.1"
   id="svg8"
   inkscape:version="0.92.1 r"
   sodipodi:docname="masked goby.svg"
   inkscape:export-filename="/home/pdimens/MEGASync/Graphics/Species/masked goby.png"
   inkscape:export-xdpi="200"
   inkscape:export-ydpi="200">
  <defs
     id="defs2" />
  <sodipodi:namedview
     id="base"
     pagecolor="#ffffff"
     bordercolor="#666666"
     borderopacity="1.0"
     inkscape:pageopacity="0.0"
     inkscape:pageshadow="2"
     inkscape:zoom="1.1452094"
     inkscape:cx="537.86947"
     inkscape:cy="44.112363"
     inkscape:document-units="mm"
     inkscape:current-layer="layer1"
     showgrid="false"
     fit-margin-top="0"
     fit-margin-left="0"
     fit-margin-right="0"
     fit-margin-bottom="0" />
  <metadata
     id="metadata5">
    <rdf:RDF>
      <cc:Work
         rdf:about="">
        <dc:format>image/svg+xml</dc:format>
        <dc:type
           rdf:resource="http://purl.org/dc/dcmitype/StillImage" />
        <dc:title></dc:title>
      </cc:Work>
    </rdf:RDF>
  </metadata>
  <g
     inkscape:label="Layer 1"
     inkscape:groupmode="layer"
     id="layer1"
     transform="translate(77.262933,-99.83839)">
    <path
       style="fill:#e2e2e2;fill-opacity:1;stroke:none;stroke-width:0.59215558px;stroke-linecap:butt;stroke-linejoin:miter;stroke-opacity:1"
       d="m 60.386307,121.67896 c 0,0 -3.928213,-4.7153 -6.175458,-6.79209 -2.593004,-2.3963 -5.354735,-4.6557 -8.373666,-6.48657 -3.388413,-2.05493 -10.800203,-4.96927 -10.800203,-4.96927 l 1.469785,1.99315 c 0,0 -8.652038,-4.76142 -12.280683,-3.22606 -9.757451,4.12852 -15.2828009,11.61412 -27.0213608,16.91286 l -11.7385532,5.29874 1.251909,7.65433 c 129.489573,8.46869 41.745248,-12.30828 73.66823,-10.38509 z"
       id="path8034"
       inkscape:connector-curvature="0"
       sodipodi:nodetypes="caaccssccc" />
    <path
       style="fill:#e2e2e2;fill-opacity:1;stroke:none;stroke-width:0.59215558px;stroke-linecap:butt;stroke-linejoin:miter;stroke-opacity:1"
       d="m 48.737653,154.08787 c 0,0 -5.019071,5.62839 -8.329554,7.22532 -4.782909,2.30722 -10.360736,3.24929 -15.660889,2.9209 -6.876927,-0.42606 -13.320521,-3.65808 -19.696747,-6.2691 -7.7361458,-3.16792 -22.368824,-11.33969 -22.368824,-11.33969 l 46.026867,1.15695 z"
       id="path8038"
       inkscape:connector-curvature="0"
       sodipodi:nodetypes="caaaccc" />
    <path
       style="fill:#e2e2e2;fill-opacity:1;stroke:none;stroke-width:0.59215558px;stroke-linecap:butt;stroke-linejoin:miter;stroke-opacity:1"
       d="m -28.745596,138.57396 1.789888,8.50583 c 0,0 -2.985229,2.35852 -4.701432,3.13466 -9.089976,1.57231 -30.626077,12.64423 -37.261254,10.14935 -2.942232,-1.22564 -4.484939,-4.74939 -5.644118,-7.71843 -2.269074,-4.64892 1.976609,-10.14704 1.82444,-12.31354 -0.300445,-2.71229 -3.372574,-4.46718 -4.06294,-7.1073 -0.694444,-2.65569 -0.550518,-5.55945 0.06414,-8.23475 0.623575,-2.71404 1.325418,-5.9209 3.587785,-7.54466 1.645215,-1.18083 4.010106,-0.81121 6.032987,-0.71612 8.260274,0.38833 16.102898,3.81857 24.252256,5.22242 5.603124,0.96522 11.076023,1.43866 16.915047,2.19566 1.747744,0.22658 4.80309,2.20994 4.80309,2.20994 z"
       id="path8040"
       inkscape:connector-curvature="0"
       sodipodi:nodetypes="ccccccaaaaascc" />
    <path
       style="fill:#e2e2e2;fill-opacity:1;stroke:none;stroke-width:0.59215558px;stroke-linecap:butt;stroke-linejoin:miter;stroke-opacity:1"
       d="m 93.388373,119.07123 c 0,0 -4.244631,-6.65492 -7.128852,-9.28176 -3.98186,-3.62657 -13.675539,-8.60484 -13.675539,-8.60484 0,0 -0.402159,1.18725 -0.757922,0.97844 -2.537231,-1.48883 -7.249843,-2.32468 -7.249843,-2.32468 0,0 2.310627,3.0049 1.858403,4.59355 -0.393587,1.38337 -2.868018,1.24736 -3.482077,2.54792 -1.04793,2.21977 0.822065,4.9309 0.418631,7.35222 -0.226604,1.35994 -1.915361,2.49764 -1.561254,3.83014 0.443898,1.67058 2.426872,2.70164 4.082953,3.19699 8.811142,2.63546 27.495545,-2.28796 27.495545,-2.28796 z"
       id="path8042"
       inkscape:connector-curvature="0"
       sodipodi:nodetypes="cacscaaaaac" />
    <path
       style="fill:#e8e8e8;fill-opacity:1;stroke:none;stroke-width:0.59308815;stroke-linecap:butt;stroke-linejoin:miter;stroke-miterlimit:4;stroke-dasharray:none;stroke-opacity:1"
       d="m 156.78419,143.23073 c -0.14211,-4.19125 -3.32852,-6.82924 -5.68827,-9.13483 -2.26119,-2.20924 -4.67974,-4.76138 -6.90196,-5.74188 -2.22218,-0.98056 -4.58119,-0.41946 -5.79165,-0.94003 -1.40654,-0.60479 -7.40485,-3.60734 -11.34913,-4.71272 -11.14558,-3.12365 -22.78175,-4.36596 -34.319889,-5.28928 -13.952634,-1.11652 -28.018246,-1.11681 -41.990754,-0.28513 -15.34102,0.91314 -30.45905,4.15198 -45.7407453,5.77986 -12.7462972,1.35777 -25.9935277,1.24269 -38.3112927,3.32425 -3.678729,0.62167 -1.044153,7.49263 -0.489018,11.18199 0.630488,4.19016 0.031,11.9275 4.26807,11.97403 8.197864,0.09 15.193361,-0.58479 22.790664,-0.45522 5.98921014,0.10205 11.986211,0.3499 17.943967,0.97134 15.816887,1.64979 31.489119,4.51732 47.145102,7.30772 8.418092,1.5004 16.618935,4.43619 25.146133,5.07068 10.470982,0.77914 31.459723,-1.588 31.459723,-1.588 0,0 19.16993,-2.52953 28.62031,-4.52403 4.11545,-0.86855 8.55168,-1.13562 12.19676,-3.23439 1.16082,-0.66836 2.36199,-1.59111 2.84082,-2.84208 0.5178,-1.35293 0.91792,-3.39611 -0.23486,-4.33957 -1.51316,-0.0483 -5.9216,1.23297 -5.9216,1.23297 z"
       id="path7998"
       inkscape:connector-curvature="0"
       sodipodi:nodetypes="cszsaaaasasaaaacaaaccsc" />
    <path
       style="fill:#fe8857;fill-opacity:1;stroke:none;stroke-width:0.59215558px;stroke-linecap:butt;stroke-linejoin:miter;stroke-opacity:1"
       d="m 102.39812,129.65078 c 0,0 -19.857799,-2.15579 -29.822262,-2.07487 -24.147641,0.19606 -38.070262,2.86966 -56.247333,5.73011 -13.5966921,2.13964 -29.22989,2.60531 -36.90753,3.3543 -5.191397,0.50646 -1.745796,4.40233 -1.745796,4.40233 0,0 21.51532017,-1.69411 42.665247,0.1072 12.139742,1.0339 23.362739,4.95016 32.355678,6.59154 1.908357,0.34831 3.452669,1.95567 5.37179,2.23881 1.234922,0.18218 2.480854,-0.28504 3.725467,-0.38103 1.4972,-0.11549 2.065267,-0.28918 3.892672,-0.40326 0.59235,-0.0369 2.196732,-1.35998 2.811753,-1.39649 0.460594,-0.0273 1.738979,1.23889 2.200156,1.33555 2.42441,0.50813 3.157332,-1.19717 4.664806,-1.40309 1.079152,-0.14749 2.626396,0.57838 3.648902,0.26114 2.298116,-0.71299 5.553297,-0.87858 8.881439,-0.71178 0.592977,0.0298 1.654828,-0.87381 2.192166,-0.83656 1.137319,0.0788 1.339797,0.75046 2.103068,1.09378 0.77482,0.3491 1.287763,-1.4034 1.287763,-1.4034 l 2.282718,1.08135 9.555146,-8.08923 z"
       id="path8017"
       inkscape:connector-curvature="0"
       sodipodi:nodetypes="cssscssassssssssscccc" />
    <path
       style="fill:#ffe37b;fill-opacity:1;stroke:none;stroke-width:0.59215558px;stroke-linecap:butt;stroke-linejoin:miter;stroke-opacity:1"
       d="m 137.34059,130.09005 c -3.70154,-0.45762 -9.23541,-2.59856 -15.18323,-1.883 -17.32435,2.08418 -19.78068,1.52918 -19.75924,1.44373 0,0 -2.20517,8.01679 -4.117195,11.67292 -3.379662,6.46262 -12.794254,17.74819 -12.794254,17.74819 0,0 7.552877,-0.77461 11.257261,-1.56949 5.423938,-1.16386 10.584838,-3.35334 15.974548,-4.66661 4.71792,-1.14959 9.49597,-2.06529 14.29517,-2.80554 8.08339,-1.24678 19.75445,-1.79963 24.38244,-2.74917 1.88882,-0.38752 4.84909,-1.94782 5.34717,-3.20492 0.24126,-0.60895 0.12578,-1.71257 -0.16517,-2.67404 -0.30964,-1.02331 -0.80405,-1.8875 -0.80405,-1.8875 0,0 -2.68725,2.59914 -4.32979,2.49681 -1.13929,-0.0709 -1.50911,-1.89354 -2.10282,-2.94283 -0.86486,-1.52854 -0.7519,-3.70436 -2.09718,-4.83331 -2.67194,-2.24237 -5.99151,-3.66159 -9.90366,-4.14524 z"
       id="path7994"
       inkscape:connector-curvature="0"
       sodipodi:nodetypes="sscacaaassscsass" />
    <circle
       style="opacity:1;fill:#444444;fill-opacity:1;fill-rule:evenodd;stroke:none;stroke-width:0.59308815;stroke-linecap:round;stroke-linejoin:round;stroke-miterlimit:4;stroke-dasharray:none;stroke-opacity:1;paint-order:markers stroke fill"
       id="path7996"
       cx="184.65781"
       cy="67.335114"
       r="7.9817982"
       transform="rotate(24.707604)" />
    <path
       style="fill:#f7f9fc;fill-opacity:1;stroke:none;stroke-width:0.59215558px;stroke-linecap:butt;stroke-linejoin:miter;stroke-opacity:1"
       d="m 117.87698,135.82512 c 0.034,-1.65666 -2.57642,-2.57208 -4.23308,-2.60612 -1.35571,-0.028 -2.20855,1.7824 -3.54877,1.98862 -3.74075,0.57561 -7.33086,-2.31916 -11.115659,-2.316 -1.924112,0.002 -3.746325,0.90062 -5.649041,1.18687 -3.356611,0.505 -6.859994,1.80292 -10.140465,0.93108 -1.615863,-0.42944 -2.460376,-2.59412 -4.108064,-2.87784 -2.893353,-0.49824 -5.577916,1.96538 -8.488614,2.34957 -2.764775,0.36494 -5.64414,0.54371 -8.366079,-0.0631 -2.48128,-0.55329 -4.386503,-3.22678 -6.928434,-3.18786 -2.623173,0.0403 -5.700965,1.25466 -7.045865,3.50721 -0.571401,0.95702 -0.55043,2.44301 0.108323,3.34211 1.272364,1.73641 3.938956,2.14729 6.091664,2.14436 2.714263,-0.004 5.004971,-2.22806 7.673464,-2.72462 3.879222,-0.72185 8.283473,-2.03987 11.833206,-0.31682 1.123801,0.54541 1.048334,2.62646 2.23865,3.00536 2.521028,0.80253 5.249569,-1.14343 7.548468,-2.4529 0.426599,-0.24298 0.650607,-0.78914 1.105964,-0.97264 3.329172,-1.34168 7.267322,-1.32174 10.757232,-0.48268 1.702521,0.40934 2.820548,2.71804 4.56729,2.59528 1.17879,-0.0828 1.6948,-1.76592 2.80699,-2.16531 2.93733,-1.05471 6.36912,-1.20213 9.35788,-0.30348 0.77712,0.23363 1.17581,1.36475 1.98613,1.40766 1.35407,0.0716 3.5209,-0.63291 3.54877,-1.98862 z"
       id="path8044"
       inkscape:connector-curvature="0"
       sodipodi:nodetypes="aaaaaaaaaaaaaaaaaaaaaaaa" />
    <path
       style="fill:#f7f9fc;fill-opacity:1;stroke:none;stroke-width:0.59215558px;stroke-linecap:butt;stroke-linejoin:miter;stroke-opacity:1"
       d="m 42.109545,129.48094 c -3.856594,0.36825 -7.170368,0.91165 -10.745795,1.43701 -2.060455,0.30277 -4.286035,0.6405 -6.169079,0.98829 -0.643147,0.87036 0.976328,3.83332 1.744955,4.50749 1.48695,1.30426 2.267074,3.24288 -0.624405,5.4993 8.910719,1.84007 11.28766,2.28457 17.184411,3.75198 1.832755,-1.58952 -3.083633,-4.03915 -3.206727,-6.92411 -0.147936,-3.46905 4.109049,-7.41725 1.81664,-9.25996 z"
       id="path8046"
       inkscape:connector-curvature="0"
       sodipodi:nodetypes="cacsccsc" />
    <path
       style="fill:#f7f9fc;fill-opacity:1;stroke:none;stroke-width:0.48852572px;stroke-linecap:butt;stroke-linejoin:miter;stroke-opacity:1"
       d="m 11.404407,133.97728 c -2.4090036,0.36837 -5.2992609,0.6056 -7.7635937,0.88755 -0.2856626,0.0327 -0.2529555,1.24683 0.3249026,2.28077 0.3694872,0.66111 1.6328702,1.36722 1.719282,1.79686 0.1308823,0.65079 -0.174905,0.91609 -1.1413993,1.43223 2.4482322,0.0667 4.5156793,0.14167 6.9402304,0.22578 2.070189,0.0718 4.692355,0.32738 9.680759,0.65759 -1.126586,-0.92849 -2.218434,-1.31897 -2.518512,-2.94738 -0.341715,-1.85442 1.366911,-4.88651 -0.08207,-5.29995 -0.53258,-0.0528 -4.452765,0.46478 -7.159651,0.96653 z"
       id="path8046-6"
       inkscape:connector-curvature="0"
       sodipodi:nodetypes="cssscscsccc"
       inkscape:transform-center-x="0.70312909"
       inkscape:transform-center-y="-0.53361265" />
    <path
       style="fill:#f7f9fc;fill-opacity:1;stroke:none;stroke-width:0.37534538px;stroke-linecap:butt;stroke-linejoin:miter;stroke-opacity:1"
       d="m -0.56189897,135.21939 c -2.33712993,0.11459 -3.26278163,0.25711 -4.43187483,0.32931 -1.1789182,0.0727 -1.8884173,0.10474 -4.5228612,0.2928 -0.3907914,0.028 0.04635,1.81707 0.3056888,2.91084 0.4435226,1.87057 -2.2281698,1.74517 -0.4204659,1.71069 2.1229826,-0.0405 7.0444729,-0.0987 9.37688499,-0.13205 -0.83155659,-0.40478 -1.52009619,-0.67724 -1.22713749,-1.49695 0.3127925,-0.87516 2.21407424,-2.77315 0.91976563,-3.61457 z"
       id="path8046-6-7"
       inkscape:connector-curvature="0"
       sodipodi:nodetypes="csssscsc"
       inkscape:transform-center-x="0.50126297"
       inkscape:transform-center-y="-0.55452991" />
    <path
       style="fill:#f7f9fc;fill-opacity:1;stroke:none;stroke-width:0.32623938px;stroke-linecap:butt;stroke-linejoin:miter;stroke-opacity:1"
       d="m -14.061937,136.14029 c -1.538612,0.0889 -5.858872,0.43138 -7.121094,0.59993 -0.621296,0.89013 -0.821894,3.45914 -0.312653,4.24929 0.737784,-0.0226 1.787514,-0.0893 2.68121,-0.13496 1.748834,-0.0895 2.612175,-0.18106 5.246266,-0.2732 -3.412965,-1.22039 -0.152099,-3.92808 -0.493729,-4.44095 z"
       id="path8046-6-7-5"
       inkscape:connector-curvature="0"
       sodipodi:nodetypes="cccacc"
       inkscape:transform-center-x="0.4823425"
       inkscape:transform-center-y="-0.38205753" />
    <circle
       style="opacity:1;fill:#393939;fill-opacity:1;fill-rule:evenodd;stroke:none;stroke-width:0.25292879;stroke-linecap:round;stroke-linejoin:round;stroke-miterlimit:4;stroke-dasharray:none;stroke-opacity:1;paint-order:markers stroke fill"
       id="path7996-3"
       cx="184.67529"
       cy="67.279106"
       r="3.403923"
       transform="rotate(24.707604)" />
    <path
       style="opacity:0.89099995;fill:#f7f9fc;fill-opacity:1;fill-rule:evenodd;stroke:none;stroke-width:0.62525898;stroke-linecap:round;stroke-linejoin:round;stroke-miterlimit:4;stroke-dasharray:none;stroke-opacity:1;paint-order:markers stroke fill"
       d="m 145.16372,133.98371 c -0.0933,0.28484 -1.19412,-0.89158 -3.09879,-1.53147 -2.13422,-0.71688 -3.67873,-0.675 -3.58632,-0.96022 0.0933,-0.28482 1.72919,-0.8474 3.92105,-0.0725 2.08923,0.73856 2.85656,2.27895 2.7641,2.56415 z"
       id="path8144"
       inkscape:connector-curvature="0"
       sodipodi:nodetypes="cscsc" />
    <path
       style="opacity:0.89099995;fill:#dddddd;fill-opacity:1;fill-rule:evenodd;stroke:none;stroke-width:0.62525898;stroke-linecap:round;stroke-linejoin:round;stroke-miterlimit:4;stroke-dasharray:none;stroke-opacity:1;paint-order:markers stroke fill"
       d="m 143.54163,129.11564 c -2.13422,-0.71688 -4.04434,-0.74356 -3.95194,-1.02877 0.0933,-0.28482 1.88916,-0.41322 4.08101,0.36167 2.08924,0.73856 4.09054,2.53031 3.99809,2.81551 -1.53236,-0.7504 -2.83633,-1.69198 -4.12716,-2.14841 z"
       id="path8144-1"
       inkscape:connector-curvature="0"
       sodipodi:nodetypes="ccscc" />
    <path
       style="fill:#d1d1d1;fill-opacity:1;stroke:none;stroke-width:0.59215558px;stroke-linecap:butt;stroke-linejoin:miter;stroke-opacity:1"
       d="m 101.58282,145.2104 c 0,0 -3.999815,3.7875 -3.504888,6.07127 0.436687,2.01523 5.033068,3.59642 5.033068,3.59642 0,0 -1.7151,3.70662 -4.739174,7.25878 -4.192068,0.0737 -8.55963,0.89957 -11.436934,1.66878 -6.583479,1.76 -11.599971,-8.02742 -18.338337,-8.89907 -3.696822,-0.47821 -7.475325,3.45324 -10.971984,2.16151 -1.712288,-0.63255 -5.213778,-7.74385 -2.8515,-8.28671 1.270535,-0.29198 17.077604,-2.8644 25.701338,-3.46485 7.019232,-0.48873 21.108411,-0.10609 21.108411,-0.10609 z"
       id="path8093-2"
       inkscape:connector-curvature="0"
       sodipodi:nodetypes="caccsassacc" />
    <path
       style="fill:#e2e2e2;fill-opacity:1;stroke:none;stroke-width:0.59215558px;stroke-linecap:butt;stroke-linejoin:miter;stroke-opacity:1"
       d="m 101.6171,144.77619 c 0,0 -3.999829,3.7875 -3.504903,6.07127 0.436692,2.01523 5.033083,3.59642 5.033083,3.59642 0,0 -7.484171,12.18306 -13.779141,13.86593 -6.58348,1.76 -13.265055,-3.20444 -19.724546,-5.37579 -3.353141,-1.12716 -7.260518,-1.54619 -9.845689,-3.96091 -2.773929,-2.59102 -6.397832,-7.62833 -4.959694,-10.25051 0.626928,-1.14301 17.04522,-3.17676 25.672459,-3.84028 7.015517,-0.53956 21.108431,-0.10609 21.108431,-0.10609 z"
       id="path8093"
       inkscape:connector-curvature="0"
       sodipodi:nodetypes="cacaaasac" />
  </g>
</svg>
