<?xml version="1.0" encoding="UTF-8" standalone="no"?>
<!-- Created with Inkscape (http://www.inkscape.org/) -->

<svg
   width="198.27283mm"
   height="86.672997mm"
   viewBox="0 0 198.27283 86.672997"
   version="1.1"
   id="svg858"
   inkscape:version="1.1 (c68e22c387, 2021-05-23)"
   sodipodi:docname="Pacific Bluefin tuna.svg"
   xmlns:inkscape="http://www.inkscape.org/namespaces/inkscape"
   xmlns:sodipodi="http://sodipodi.sourceforge.net/DTD/sodipodi-0.dtd"
   xmlns="http://www.w3.org/2000/svg"
   xmlns:svg="http://www.w3.org/2000/svg"
   xmlns:rdf="http://www.w3.org/1999/02/22-rdf-syntax-ns#"
   xmlns:cc="http://creativecommons.org/ns#"
   xmlns:dc="http://purl.org/dc/elements/1.1/">
  <defs
     id="defs852" />
  <sodipodi:namedview
     id="base"
     pagecolor="#ffffff"
     bordercolor="#666666"
     borderopacity="1.0"
     inkscape:pageopacity="0.0"
     inkscape:pageshadow="2"
     inkscape:zoom="1.4338275"
     inkscape:cx="57.887021"
     inkscape:cy="187.26103"
     inkscape:document-units="mm"
     inkscape:current-layer="layer1"
     showgrid="false"
     inkscape:window-width="1047"
     inkscape:window-height="1033"
     inkscape:window-x="855"
     inkscape:window-y="0"
     inkscape:window-maximized="0"
     inkscape:pagecheckerboard="0"
     fit-margin-top="0"
     fit-margin-left="0"
     fit-margin-right="0"
     fit-margin-bottom="0" />
  <metadata
     id="metadata855">
    <rdf:RDF>
      <cc:Work
         rdf:about="">
        <dc:format>image/svg+xml</dc:format>
        <dc:type
           rdf:resource="http://purl.org/dc/dcmitype/StillImage" />
      </cc:Work>
    </rdf:RDF>
  </metadata>
  <g
     inkscape:label="Layer 1"
     inkscape:groupmode="layer"
     id="layer1"
     transform="translate(-2.4949475,-79.25563)">
    <g
       id="g186864"
       transform="matrix(1,0,0,0.99999518,-2.5834122,-10.702268)">
      <g
         id="g88484"
         style="fill:#beb68c;fill-opacity:1">
        <path
           style="fill:#beb68c;fill-opacity:1;stroke:none;stroke-width:0.264583px;stroke-linecap:butt;stroke-linejoin:miter;stroke-opacity:1"
           d="m 123.87942,117.96609 c 1.90061,-1.88501 4.27632,-2.37188 4.27632,-2.37188 -0.99892,1.20227 -2.00925,2.28761 -2.4807,3.48988 z"
           id="path2576"
           sodipodi:nodetypes="cccc" />
        <path
           style="fill:#beb68c;fill-opacity:1;stroke:none;stroke-width:0.264583px;stroke-linecap:butt;stroke-linejoin:miter;stroke-opacity:1"
           d="m 128.89225,119.34916 c 1.90061,-1.88501 4.27632,-2.37188 4.27632,-2.37188 -0.99892,1.20227 -2.00925,2.28761 -2.4807,3.48988 z"
           id="path2576-0"
           sodipodi:nodetypes="cccc" />
        <path
           style="fill:#beb68c;fill-opacity:1;stroke:none;stroke-width:0.264583px;stroke-linecap:butt;stroke-linejoin:miter;stroke-opacity:1"
           d="m 134.23764,120.60198 c 1.90061,-1.88501 4.27632,-2.37188 4.27632,-2.37188 -0.99892,1.20227 -2.00925,2.28761 -2.4807,3.48988 z"
           id="path2576-8"
           sodipodi:nodetypes="cccc" />
        <path
           style="fill:#beb68c;fill-opacity:1;stroke:none;stroke-width:0.264583px;stroke-linecap:butt;stroke-linejoin:miter;stroke-opacity:1"
           d="m 139.13202,122.04392 c 1.90061,-1.88501 4.27632,-2.37188 4.27632,-2.37188 -0.99892,1.20227 -2.00925,2.28761 -2.4807,3.48988 z"
           id="path2576-85"
           sodipodi:nodetypes="cccc" />
        <path
           style="fill:#beb68c;fill-opacity:1;stroke:none;stroke-width:0.264583px;stroke-linecap:butt;stroke-linejoin:miter;stroke-opacity:1"
           d="m 145.78035,124.31035 c 1.90061,-1.88501 4.27632,-2.37188 4.27632,-2.37188 -0.99892,1.20227 -2.00925,2.28761 -2.4807,3.48988 z"
           id="path2576-2"
           sodipodi:nodetypes="cccc" />
        <path
           style="fill:#beb68c;fill-opacity:1;stroke:none;stroke-width:0.265;stroke-linecap:butt;stroke-linejoin:miter;stroke-miterlimit:4;stroke-dasharray:none;stroke-opacity:1"
           d="m 150.75824,125.91397 c 1.90061,-1.88501 4.27632,-2.37188 4.27632,-2.37188 -0.99892,1.20227 -2.00925,2.28761 -2.4807,3.48988 z"
           id="path2576-1"
           sodipodi:nodetypes="cccc" />
        <path
           style="fill:#beb68c;fill-opacity:1;stroke:none;stroke-width:0.265;stroke-linecap:butt;stroke-linejoin:miter;stroke-miterlimit:4;stroke-dasharray:none;stroke-opacity:1"
           d="m 156.02011,127.36724 c 1.90061,-1.88501 4.27632,-2.37188 4.27632,-2.37188 -0.99892,1.20227 -2.00925,2.28761 -2.4807,3.48988 z"
           id="path2576-15"
           sodipodi:nodetypes="cccc" />
        <path
           style="fill:#beb68c;fill-opacity:1;stroke:none;stroke-width:0.265;stroke-linecap:butt;stroke-linejoin:miter;stroke-miterlimit:4;stroke-dasharray:none;stroke-opacity:1"
           d="m 160.79756,129.05438 c 1.90061,-1.88501 4.27632,-2.37188 4.27632,-2.37188 -0.99892,1.20227 -2.00925,2.28761 -2.4807,3.48988 z"
           id="path2576-3"
           sodipodi:nodetypes="cccc" />
        <path
           style="fill:#beb68c;fill-opacity:1;stroke:none;stroke-width:0.265;stroke-linecap:butt;stroke-linejoin:miter;stroke-miterlimit:4;stroke-dasharray:none;stroke-opacity:1"
           d="m 167.07839,131.0589 c 1.90061,-1.88501 4.27632,-2.37188 4.27632,-2.37188 -0.99892,1.20227 -2.00925,2.28761 -2.4807,3.48988 z"
           id="path2576-27"
           sodipodi:nodetypes="cccc" />
        <path
           style="fill:#beb68c;fill-opacity:1;stroke:none;stroke-width:0.264583px;stroke-linecap:butt;stroke-linejoin:miter;stroke-opacity:1"
           d="m 129.24021,150.55522 c 2.05054,1.72071 4.45847,2.00867 4.45847,2.00867 -1.09528,-1.11519 -2.19223,-2.1129 -2.76187,-3.27188 z"
           id="path2576-4"
           sodipodi:nodetypes="cccc" />
        <path
           style="fill:#beb68c;fill-opacity:1;stroke:none;stroke-width:0.264583px;stroke-linecap:butt;stroke-linejoin:miter;stroke-opacity:1"
           d="m 134.62369,149.2606 c 2.05054,1.72071 4.45847,2.00867 4.45847,2.00867 -1.09528,-1.11519 -2.19223,-2.1129 -2.76187,-3.27188 z"
           id="path2576-4-7"
           sodipodi:nodetypes="cccc" />
        <path
           style="fill:#beb68c;fill-opacity:1;stroke:none;stroke-width:0.264583px;stroke-linecap:butt;stroke-linejoin:miter;stroke-opacity:1"
           d="m 139.50136,147.7739 c 2.05054,1.72071 4.45847,2.00867 4.45847,2.00867 -1.09528,-1.11519 -2.19223,-2.1129 -2.76187,-3.27188 z"
           id="path2576-4-5"
           sodipodi:nodetypes="cccc" />
        <path
           style="fill:#beb68c;fill-opacity:1;stroke:none;stroke-width:0.264583px;stroke-linecap:butt;stroke-linejoin:miter;stroke-opacity:1"
           d="m 146.30003,145.28496 c 2.05054,1.72071 4.45847,2.00867 4.45847,2.00867 -1.09528,-1.11519 -2.19223,-2.1129 -2.76187,-3.27188 z"
           id="path2576-4-4"
           sodipodi:nodetypes="cccc" />
        <path
           style="fill:#beb68c;fill-opacity:1;stroke:none;stroke-width:0.265;stroke-linecap:butt;stroke-linejoin:miter;stroke-miterlimit:4;stroke-dasharray:none;stroke-opacity:1"
           d="m 151.24452,143.68134 c 2.05054,1.72071 4.45847,2.00867 4.45847,2.00867 -1.09528,-1.11519 -2.19223,-2.1129 -2.76187,-3.27188 z"
           id="path2576-4-1"
           sodipodi:nodetypes="cccc" />
        <path
           style="fill:#beb68c;fill-opacity:1;stroke:none;stroke-width:0.265;stroke-linecap:butt;stroke-linejoin:miter;stroke-miterlimit:4;stroke-dasharray:none;stroke-opacity:1"
           d="m 156.189,141.92739 c 2.05054,1.72071 4.45847,2.00867 4.45847,2.00867 -1.09528,-1.11519 -2.19223,-2.1129 -2.76187,-3.27188 z"
           id="path2576-4-47"
           sodipodi:nodetypes="cccc" />
        <path
           style="fill:#beb68c;fill-opacity:1;stroke:none;stroke-width:0.265;stroke-linecap:butt;stroke-linejoin:miter;stroke-miterlimit:4;stroke-dasharray:none;stroke-opacity:1"
           d="m 160.86622,140.02309 c 2.05054,1.72071 4.45847,2.00867 4.45847,2.00867 -1.09528,-1.11519 -2.19223,-2.1129 -2.76187,-3.27188 z"
           id="path2576-4-9"
           sodipodi:nodetypes="cccc" />
        <path
           style="fill:#beb68c;fill-opacity:1;stroke:none;stroke-width:0.265;stroke-linecap:butt;stroke-linejoin:miter;stroke-miterlimit:4;stroke-dasharray:none;stroke-opacity:1"
           d="m 167.54796,138.11879 c 2.05054,1.72071 4.45847,2.00867 4.45847,2.00867 -1.09528,-1.11519 -2.19223,-2.1129 -2.76187,-3.27188 z"
           id="path2576-4-49"
           sodipodi:nodetypes="cccc" />
      </g>
      <path
         style="fill:#758694;fill-opacity:1;stroke:none;stroke-width:0.264583px;stroke-linecap:butt;stroke-linejoin:miter;stroke-opacity:1"
         d="m 175.06154,132.83295 c 0,0 2.38932,-1.7656 3.15423,-2.99813 3.79641,-6.11731 7.21939,-10.5677 11.33929,-15.44978 4.30483,-5.10122 13.79613,-8.59895 13.79613,-8.59895 -2.30336,0.90131 -14.51973,18.12817 -14.41035,28.72619 1.19405,11.95576 6.18386,20.53226 13.70164,29.76562 -1.12918,1.24209 -11.34385,-6.45127 -15.73326,-11.1503 -3.80044,-4.06852 -6.17395,-9.59537 -8.83519,-14.17411 -0.61566,-1.05927 -2.55134,-2.64583 -2.55134,-2.64583 z"
         id="path5205"
         sodipodi:nodetypes="csscccsscc" />
      <path
         style="fill:#dbdddd;fill-opacity:1;stroke:none;stroke-width:0.465;stroke-linecap:butt;stroke-linejoin:miter;stroke-miterlimit:4;stroke-dasharray:none;stroke-opacity:1"
         d="m 16.169806,145.39462 c 0,0 -11.1883922,-2.16218 -11.0592599,1.76828 0.012781,0.38902 1.3502771,0.82264 2.8681666,1.8648 11.0568433,7.59152 49.0357573,19.19519 81.7226393,13.77047 14.506338,-2.40747 33.192908,-9.11567 49.640488,-14.17551 12.11334,-3.72649 24.16394,-8.72758 36.10578,-11.9143 1.59324,-0.42516 3.3184,0.51803 4.94171,0.22813 2.18724,-0.3906 6.14048,-2.59302 6.14048,-2.59302 0,0 -4.39002,-2.18028 -6.77484,-2.36629 -1.58545,-0.12366 -4.69343,0.85577 -4.69343,0.85577 0,0 -75.68505,-16.18003 -107.26352,-12.407 -19.568309,2.33805 -75.9026519,12.47378 -58.1541431,19.81188 9.5937711,3.96652 9.0270091,3.63059 6.5259291,5.15679 z"
         id="path1379"
         sodipodi:nodetypes="csssasacacscc" />
      <path
         style="fill:#c9c8af;fill-opacity:0.992157;stroke:none;stroke-width:0.264583px;stroke-linecap:butt;stroke-linejoin:miter;stroke-opacity:1"
         d="m 62.980283,112.44792 c 1.622423,-8.22071 4.258675,-17.081234 7.039806,-22.489588 0.239157,2.109215 0.901616,3.139011 2.031622,2.976563 0.106565,1.944217 0.121312,3.950173 2.740326,4.204985 0.4174,1.200179 1.141053,2.113864 2.929316,2.031622 0.59414,0.66513 0.486382,1.642218 2.55134,1.653648 0.606594,0.9236 1.430346,1.55765 2.83482,1.41741 0.617805,1.28071 0.900506,1.01705 1.861224,0.84471 0.43094,1.10768 1.242125,0.94787 2.065521,0.74735 0.505582,1.01475 1.623504,1.19156 2.971321,1.05377 0.774423,0.95661 1.867578,1.43512 3.354538,1.32292 0.827047,1.15233 1.787319,1.20504 2.790442,1.12484 0.744741,0.52203 1.531291,0.84312 2.364726,0.4782 0.676687,0.68324 1.535205,1.1604 2.876825,1.09004 0.94641,0.77146 2.04055,1.2105 3.34308,1.18069 0.84763,0.76109 1.59734,1.59562 3.12976,1.84312 v 2.64583 z"
         id="path6240"
         sodipodi:nodetypes="cccccccccccccccccc" />
      <path
         style="fill:#beb68c;fill-opacity:1;stroke:#dce433;stroke-width:0.264583px;stroke-linecap:butt;stroke-linejoin:miter;stroke-opacity:1"
         d="m 105.90555,114.9259 c 4.41844,-6.78107 12.0486,-13.63225 19.07636,-19.343635 1.65284,-1.343244 5.24421,-2.859501 6.5147,-2.906556 -10.4115,7.226986 -13.0801,12.611091 -11.54557,17.197371 0.20808,0.79453 0.64768,1.3746 1.42273,1.44468 -0.042,0.72191 0.26136,1.17514 1.06908,1.23612 0.0145,0.66953 0.53591,1.0755 1.33635,1.33635 -0.18084,0.52407 -0.17925,1.00252 0.26727,1.36975 l -1.80407,2.70611 z"
         id="path7911"
         sodipodi:nodetypes="cscccccccc" />
      <path
         style="fill:#1d5d94;fill-opacity:1;stroke:none;stroke-width:0.465;stroke-linecap:butt;stroke-linejoin:miter;stroke-miterlimit:4;stroke-dasharray:none;stroke-opacity:1"
         d="m 175.06154,132.83295 c 0,0 -13.07952,-3.63336 -30.36343,-8.85403 -20.42782,-6.1703 -39.16915,-13.4659 -64.249982,-13.1957 -26.112165,0.28131 -37.866735,2.35278 -74.2536818,24.97418 -1.0862599,0.67532 -1.5346934,3.00829 0.4204747,3.69047 21.3694011,-9.5977 47.6791121,-15.62675 70.1140301,-17.80336 29.270159,-2.69805 98.332589,11.18844 98.332589,11.18844 z"
         id="path2777"
         sodipodi:nodetypes="csssccc" />
      <ellipse
         style="fill:#c0c2c2;fill-opacity:1;stroke:none;stroke-width:0.463246;stroke-linejoin:round;stroke-miterlimit:4;stroke-dasharray:none;stroke-opacity:1;paint-order:markers fill stroke"
         id="circle849-6"
         cx="26.869379"
         cy="135.65094"
         rx="3.4518218"
         ry="3.4045749" />
      <path
         style="fill:#c9c8af;fill-opacity:0.992157;stroke:none;stroke-width:0.264583px;stroke-linecap:butt;stroke-linejoin:miter;stroke-opacity:1"
         d="m 56.601933,135.40997 c 0,0 20.700573,-10.88995 42.06875,-2.45685 -14.298735,6.81067 -19.191779,6.83661 -26.429983,10.72508 -0.721434,0.38756 -1.626218,-0.44085 -2.220612,-0.99219 -1.141763,-1.05907 0.931839,-1.95553 -2.220609,-4.11048 -0.859666,-0.58765 -2.125996,-0.8956 -3.488929,-1.12517 -1.301421,-0.21921 -2.690922,-0.36696 -3.898557,-0.61854 -2.238551,-0.46633 -3.81006,-1.42185 -3.81006,-1.42185 z"
         id="path3560"
         sodipodi:nodetypes="ccsasssc" />
      <path
         style="fill:#cac9b0;fill-opacity:1;stroke:none;stroke-width:0.264583px;stroke-linecap:butt;stroke-linejoin:miter;stroke-opacity:1"
         d="m 61.405174,163.16804 c 0,0 0.893694,0.47462 1.23612,0.83522 1.871418,1.97074 2.581322,4.8064 4.209497,6.98242 1.529923,2.04471 5.178346,5.64607 5.178346,5.64607 0,0 0.177567,-1.71935 -0.03341,-2.53906 -0.229737,-0.8926 -1.141364,-1.53142 -1.302938,-2.43884 -0.226665,-1.27298 0.879909,-2.59598 0.534537,-3.842 -0.41659,-1.50296 -0.08452,-3.40839 -1.135892,-4.57699 -1.133345,-1.25971 -3.083586,-1.78392 -4.777445,-1.73725 -1.416391,0.039 -3.908815,1.67043 -3.908815,1.67043 z"
         id="path4554"
         sodipodi:nodetypes="caacaasaac" />
      <path
         style="fill:#beb68c;fill-opacity:1;stroke:none;stroke-width:0.264583px;stroke-linecap:butt;stroke-linejoin:miter;stroke-opacity:1"
         d="m 115.95619,155.04973 c 8.14975,8.87555 14.45691,12.78927 21.01944,15.66868 0,0 -7.44639,-4.86818 -9.28761,-8.68626 -0.60659,-1.25786 -0.64241,-2.81407 -0.33409,-4.17609 0.41201,-1.82009 2.80633,-4.84426 2.80633,-4.84426 -0.51084,-0.29955 -1.01343,-0.65686 -1.43658,-1.5702 z"
         id="path4836"
         sodipodi:nodetypes="ccaaccc" />
      <path
         style="fill:#c0c2c2;fill-opacity:1;stroke:none;stroke-width:0.264583px;stroke-linecap:butt;stroke-linejoin:miter;stroke-opacity:1"
         d="m 16.500535,145.18201 c 1.578567,1.98548 5.086162,4.66314 6.792248,2.89016 1.279842,-1.33002 -0.11424,-3.89721 -2.362352,-5.00818 -1.900903,-0.93939 -3.960056,-0.42781 -5.858631,-0.99219 -3.407481,-1.01292 -5.469035,-3.29848 -9.7801334,-4.25223 -0.639818,-0.14155 0.3149363,1.26389 0.8291972,1.54506 3.7017168,2.02391 8.2240292,3.10608 10.3796712,5.81738 z"
         id="path8587"
         sodipodi:nodetypes="sasasss" />
      <circle
         style="fill:#ad891e;fill-opacity:1;stroke:none;stroke-width:0.405796;stroke-linejoin:round;stroke-miterlimit:4;stroke-dasharray:none;stroke-opacity:1;paint-order:markers fill stroke"
         id="circle849"
         cx="26.760361"
         cy="135.7395"
         r="3.0029752" />
      <circle
         style="fill:#000000;stroke:#e5e5e5;stroke-width:0.32000077;stroke-linejoin:round;stroke-miterlimit:4;stroke-dasharray:none;stroke-opacity:1;paint-order:markers fill stroke"
         id="circle849-0"
         cx="26.726954"
         cy="135.63928"
         r="1.6260273" />
      <ellipse
         style="fill:#e5e5e5;fill-opacity:1;stroke:#e5e5e5;stroke-width:0.149377;stroke-linejoin:round;stroke-miterlimit:4;stroke-dasharray:none;stroke-opacity:1;paint-order:markers fill stroke"
         id="circle849-0-9"
         cx="27.831268"
         cy="134.49126"
         rx="0.91830432"
         ry="0.62738001" />
      <path
         id="path1060"
         style="fill:#c0c2c2;fill-opacity:1;stroke:none;stroke-width:0.999999px;stroke-linecap:butt;stroke-linejoin:miter;stroke-opacity:1"
         d="m 216.14648,517.08203 -4.73828,0.79688 c 0.65377,7.54385 0.35816,18.6581 0.006,26.08789 -0.87233,18.397 -12.46664,36.02614 -25.54687,48.99218 -6.24684,6.19231 -19.55983,12.13561 -28.29492,15.59766 l 2.31445,-0.14844 c 8.91064,-2.98167 21.12612,-7.75423 27.24414,-13.17578 14.91611,-13.2181 29.71592,-30.80821 30.19922,-51.60351 0.118,-5.07711 -0.14346,-17.70483 -1.1836,-26.54688 z"
         transform="scale(0.26458333)"
         sodipodi:nodetypes="ccssccssc" />
      <path
         id="path72155"
         style="fill:#c0c2c2;fill-opacity:1;stroke:none;stroke-width:0.999999px;stroke-linecap:butt;stroke-linejoin:miter;stroke-opacity:1"
         d="m 179.30273,464.92188 c 6.37815,5.66944 23.40299,23.63163 27.23243,34.55859 2.87758,8.21093 4.27388,11.48473 4.87304,18.39844 l 4.73828,-0.79688 c -1.00873,-8.57511 -2.75119,-13.35182 -5.5957,-19.28906 -6.73284,-14.05319 -14.54421,-21.47351 -31.24805,-32.87109 z"
         transform="scale(0.26458333)"
         sodipodi:nodetypes="csccsc" />
    </g>
    <path
       style="fill:none;stroke:#bd677d;stroke-width:0.264583px;stroke-linecap:butt;stroke-linejoin:miter;stroke-opacity:1"
       d="m 120.27129,-44.36675 c 0,0 2.38932,-1.7656 3.15423,-2.99813 3.79641,-6.11731 7.21939,-10.5677 11.33929,-15.44978 4.30483,-5.10122 13.79613,-8.59895 13.79613,-8.59895 -2.30336,0.90131 -14.51973,18.12817 -14.41035,28.72619 1.19405,11.95576 6.18386,20.53226 13.70164,29.76562 -1.12918,1.24209 -11.34385,-6.45127 -15.73326,-11.1503 -3.80044,-4.06852 -6.17395,-9.59537 -8.83519,-14.17411 -0.61566,-1.05927 -2.55134,-2.64583 -2.55134,-2.64583 z"
       id="path5205-6"
       sodipodi:nodetypes="csscccsscc" />
  </g>
</svg>
