<?xml version="1.0" encoding="UTF-8" standalone="no"?>
<!-- Created with Inkscape (http://www.inkscape.org/) -->

<svg
   xmlns:dc="http://purl.org/dc/elements/1.1/"
   xmlns:cc="http://creativecommons.org/ns#"
   xmlns:rdf="http://www.w3.org/1999/02/22-rdf-syntax-ns#"
   xmlns:svg="http://www.w3.org/2000/svg"
   xmlns="http://www.w3.org/2000/svg"
   xmlns:sodipodi="http://sodipodi.sourceforge.net/DTD/sodipodi-0.dtd"
   xmlns:inkscape="http://www.inkscape.org/namespaces/inkscape"
   width="276.13422mm"
   height="129.95506mm"
   viewBox="0 0 276.13422 129.95506"
   version="1.1"
   id="svg13758"
   sodipodi:docname="red snapper.svg"
   inkscape:version="0.92.2 5c3e80d, 2017-08-06"
   inkscape:export-filename="/home/pdimens/Omega/Graphics/Species/red snapper.png"
   inkscape:export-xdpi="96"
   inkscape:export-ydpi="96">
  <defs
     id="defs13752" />
  <sodipodi:namedview
     id="base"
     pagecolor="#ffffff"
     bordercolor="#666666"
     borderopacity="1.0"
     inkscape:pageopacity="0.0"
     inkscape:pageshadow="2"
     inkscape:zoom="1.290625"
     inkscape:cx="548.99275"
     inkscape:cy="249.72885"
     inkscape:document-units="mm"
     inkscape:current-layer="layer1"
     showgrid="false"
     inkscape:window-width="1920"
     inkscape:window-height="1018"
     inkscape:window-x="0"
     inkscape:window-y="34"
     inkscape:window-maximized="1"
     fit-margin-top="0"
     fit-margin-left="0"
     fit-margin-right="0"
     fit-margin-bottom="0"
     inkscape:pagecheckerboard="true" />
  <metadata
     id="metadata13755">
    <rdf:RDF>
      <cc:Work
         rdf:about="">
        <dc:format>image/svg+xml</dc:format>
        <dc:type
           rdf:resource="http://purl.org/dc/dcmitype/StillImage" />
        <dc:title></dc:title>
      </cc:Work>
    </rdf:RDF>
  </metadata>
  <g
     inkscape:label="Layer 1"
     inkscape:groupmode="layer"
     id="layer1"
     transform="translate(116.23109,-39.532421)">
    <path
       style="fill:#dd5b53;fill-opacity:1;stroke:none;stroke-width:0.59919417px;stroke-linecap:butt;stroke-linejoin:miter;stroke-opacity:1"
       d="m -35.947945,61.363443 c 0,0 0.007,-4.190548 3.282858,-8.535455 0.571125,2.101003 1.307517,4.293432 3.206624,5.146488 0.919264,-5.07925 1.455548,-6.526827 2.191892,-8.537153 0.690813,-1.886018 3.136927,-5.144767 3.136927,-5.144767 0,0 -0.264009,4.033402 0.3482,5.909161 0.403829,1.237303 2.113944,3.282845 2.113944,3.282845 0,0 2.337715,-5.101489 3.939431,-7.386429 1.69011,-2.411059 5.909152,-6.565712 5.909152,-6.565712 0,0 1.288494,4.294474 2.9545781,5.580852 0.756339,0.583968 2.1290852,1.346279 2.7904303,0.656573 2.4318241,-2.536091 4.9242917,-5.909138 4.9242917,-5.909138 0,0 -0.2509754,2.867459 0,4.267705 0.1389602,0.775333 0.061893,2.004709 0.82071675,2.215935 2.49428375,0.694348 6.07329515,-4.842229 6.07329515,-4.842229 0,0 0.064702,3.223397 0.4924278,4.760158 0.2756445,0.99034 1.3131401,2.790437 1.3131401,2.790437 l 3.9394341,-3.447011 c 0,0 1.195402,3.72638 2.790435,3.939441 1.194351,0.159433 2.79043,-2.298007 2.79043,-2.298007 0,0 1.717642,4.467811 3.693223,4.678063 0.811554,0.08628 1.887642,-1.55934 1.887642,-1.55934 0,0 1.740914,4.755017 3.857362,5.334637 0.661737,0.181174 1.887649,-0.820717 1.887649,-0.820717 0,0 1.686206,3.891792 3.446988,4.021512 1.373138,0.101231 3.118723,-2.708365 3.118723,-2.708365 v 1.641434 c 0,0 7.198257,-0.897693 10.75139,-0.410359 7.799958,1.069808 15.133755,4.410764 22.487595,7.222308 5.70799,2.182305 10.823678,5.948543 16.742577,7.4685 1.59537,0.409679 4.924301,0.410358 4.924301,0.410358 0,0 -2.951229,6.682728 -4.760157,9.848579 -1.02764,1.798511 -1.809405,3.902051 -3.446988,5.170516 -1.511623,1.170903 -3.553156,1.459694 -5.416731,1.887649 -6.442559,1.479509 -13.120281,2.961442 -19.697158,2.297984 -32.286736,-3.25705 -92.494623,-30.366453 -92.494623,-30.366453 z"
       id="path13794"
       inkscape:connector-curvature="0"
       sodipodi:nodetypes="cccscacacascaacaccacacacaccaaacaaaac" />
    <path
       style="fill:#ed6f68;fill-opacity:1;stroke:none;stroke-width:0.59919417px;stroke-linecap:butt;stroke-linejoin:miter;stroke-opacity:1"
       d="m 64.844546,125.03394 c 3.86867,-0.83043 8.049389,-1.34935 11.870387,0 5.008999,1.76892 4.277012,9.90395 7.74488,13.928 0.828485,0.96136 2.457123,1.1828 3.017743,2.32134 0.205179,0.41651 -0.21605,0.98191 0,1.39281 0.34971,0.66482 1.857052,1.27674 1.857052,1.27674 0,0 -11.071138,2.63798 -16.713589,3.24987 -4.809301,0.52153 -14.508343,0.34819 -14.508343,0.34819 l 1.276731,2.4374 c 0,0 -6.889107,-0.75233 -10.329935,-1.16067 -2.168219,-0.25731 -4.542432,0.15513 -6.499719,-0.81247 -3.762434,-1.86014 -8.826918,-8.97938 -8.826918,-8.97938 0,0 19.992561,-11.61502 31.111711,-14.00183 z"
       id="path13798"
       inkscape:connector-curvature="0"
       sodipodi:nodetypes="asaaacaccaaca" />
    <path
       style="fill:#ed6f68;fill-opacity:1;stroke:none;stroke-width:0.59919417px;stroke-linecap:butt;stroke-linejoin:miter;stroke-opacity:1"
       d="m -35.669196,143.48855 c 0,0 8.859896,1.7747 13.115534,3.24987 4.171921,1.44612 8.875907,2.40752 12.070937,5.45514 4.6825925,4.46656 8.8210659,17.29393 8.8210659,17.29393 0,0 -6.9819401,-0.26791 -10.3299349,-1.16067 -2.492639,-0.66468 -4.873137,-1.77749 -7.099977,-3.07988 -1.627818,-0.95205 -4.506688,-3.41986 -4.506688,-3.41986 -0.88329,-0.23138 -1.624931,2.20527 -1.624931,2.20527 0,0 -5.159,-5.67998 -7.276049,-8.86227 -2.076336,-3.12112 -5.259155,-9.94052 -5.259155,-9.94052 z"
       id="path13802"
       inkscape:connector-curvature="0"
       sodipodi:nodetypes="caacaascacc" />
    <path
       style="fill:#e0dadc;fill-opacity:1;stroke:none;stroke-width:0.59919417px;stroke-linecap:butt;stroke-linejoin:miter;stroke-opacity:1"
       d="m -114.32626,116.84378 c -0.70387,0.11618 -1.57851,0.47271 -1.80557,1.14901 -0.3995,1.18988 0.4816,2.58888 1.31314,3.52908 1.61314,1.82392 4.2769,2.33576 6.48365,3.36494 7.81372,3.64415 15.744424,7.0845 23.882821,9.93065 7.225521,2.5269 14.610067,4.63585 22.077238,6.31952 8.114446,1.82963 16.338866,3.27338 24.616587,4.09258 9.317222,0.92206 18.711113,0.81609 28.0733406,0.91377 7.0308887,0.0734 14.0846143,0.32826 21.0923784,-0.24622 8.468101,-0.69419 16.970741,-1.72746 25.195958,-3.85737 6.326494,-1.63824 12.667324,-3.64528 18.384033,-6.81192 2.508192,-1.38936 4.645497,-3.37432 6.811927,-5.25259 2.134136,-1.85028 3.723595,-4.34167 6.073304,-5.90914 2.079852,-1.38745 4.491092,-2.26413 6.893999,-2.95458 2.900613,-0.83346 5.929316,-1.30053 8.945813,-1.39522 4.133477,-0.12976 8.05471,0.71861 12.35412,1.13925 2.615287,0.25586 6.686461,-4.1759 6.686461,-4.1759 l 6.48367,-8.12507 -21.502762,-2.79044 -101.276268,-3.44699 -59.994291,7.30436 -19.86131,3.03665 -13.541799,5.99121 c 0,0 -4.8856,-2.21813 -7.38644,-1.80558 z"
       id="path14552"
       inkscape:connector-curvature="0"
       sodipodi:nodetypes="aaaaaaaaaaaaaaasccccccca" />
    <path
       style="fill:#ed6f68;fill-opacity:1;stroke:none;stroke-width:0.59919417px;stroke-linecap:butt;stroke-linejoin:miter;stroke-opacity:1"
       d="m -115.46503,117.08339 c -0.57167,1.71062 1.80973,3.32472 3.36593,4.23643 1.77537,1.04011 4.11492,0.42175 6.0935,0.98655 3.42695,0.97827 6.625722,2.63588 9.865671,4.12037 1.651623,0.75674 4.874798,2.43742 4.874798,2.43742 0,0 -3.909547,-6.22644 -6.731869,-8.47288 -1.827865,-1.45489 -4.08407,-2.35952 -6.32563,-3.01772 -2.65673,-0.78011 -5.47754,-1.22209 -8.24074,-1.0446 -0.99732,0.0641 -2.5849,-0.19341 -2.90166,0.75443 z"
       id="path14556"
       inkscape:connector-curvature="0"
       sodipodi:nodetypes="aaaacaaaa" />
    <path
       style="fill:#dd5b53;fill-opacity:1;stroke:none;stroke-width:0.59919417px;stroke-linecap:butt;stroke-linejoin:miter;stroke-opacity:1"
       d="m -112.8652,108.70838 c 0,0 -1.09763,1.71475 -1.149,2.68774 -0.0416,0.78824 0.19911,1.65029 0.6964,2.26329 1.28196,1.58024 3.56043,1.97124 5.33907,2.9597 2.70983,1.50598 5.57458,2.7636 8.124666,4.5266 1.208157,0.83525 2.339768,1.79278 3.365931,2.84363 1.422612,1.45684 2.204037,3.53325 3.8302,4.75873 0.63697,0.48002 1.454641,1.1982 2.205268,0.92854 0.863171,-0.31008 1.275846,-1.41598 1.276734,-2.4374 0.002,-2.25774 0.191455,-4.8446 -0.464269,-5.97744 -0.884404,-1.5279 -7.544333,-3.77215 -7.544333,-3.77215 l -4.990867,-7.77647 z"
       id="path14554"
       inkscape:connector-curvature="0"
       sodipodi:nodetypes="caaaaaaassccc" />
    <path
       style="fill:#e7625a;fill-opacity:1;stroke:none;stroke-width:0.59919417px;stroke-linecap:butt;stroke-linejoin:miter;stroke-opacity:1"
       d="m 95.137941,94.508421 c -1.188001,0.354149 -7.324331,0.605845 -10.910256,0 C 76.795917,93.252819 69.535676,90.600844 62.871406,87.080141 51.288022,80.960706 40.233958,73.874822 28.051409,69.205885 18.41243,65.511777 8.3393706,62.669343 -1.8937924,61.313348 -15.164371,59.554854 -28.883897,58.677271 -42.05286,61.081219 c -9.867219,1.801229 -19.366883,5.839772 -28.088138,10.794193 -7.510344,4.266504 -13.808344,10.399641 -20.369701,16.017203 -7.734355,6.62183 -22.354501,20.815765 -22.354501,20.815765 5.46925,6.03026 22.236283,13.10878 22.236283,13.10878 0,0 40.906404,3.06188 74.687959,-1.05411 72.530552,-8.83723 112.007437,0.0924 112.007437,0.0924 l 5.050741,-4.40936 7.70903,-15.6884 c 0,0 3.32053,-8.487579 0.50525,-10.664743 -3.91954,-3.031104 -14.193559,4.415474 -14.193559,4.415474 z"
       id="path13792"
       inkscape:connector-curvature="0"
       sodipodi:nodetypes="casaaaaascscccac" />
    <circle
       id="path24"
       cx="-81.582275"
       cy="95.428253"
       r="6.9349837"
       style="opacity:1;fill:#c4464a;fill-opacity:1;stroke:none;stroke-width:0.59919417" />
    <circle
       id="path24-3"
       cx="-81.755333"
       cy="95.371307"
       r="3.8399072"
       style="opacity:1;fill:#533432;fill-opacity:1;stroke:none;stroke-width:0.33177435" />
    <path
       style="fill:#ed6f68;fill-opacity:1;stroke:none;stroke-width:0.59919417px;stroke-linecap:butt;stroke-linejoin:miter;stroke-opacity:1"
       d="m 95.137941,94.508421 c 10.201639,-6.556653 15.875549,-8.231015 24.141869,-11.606666 8.2458,-3.367294 16.53762,-7.005148 25.30254,-8.588946 5.02784,-0.908518 9.90628,-1.626962 15.32079,-0.464257 -4.84182,10.208593 -15.25088,20.792126 -15.78505,32.962918 -0.4785,10.90254 4.89148,21.21809 11.49884,30.65328 -10.6074,2.90931 -19.66715,-2.56089 -29.14097,-5.35074 -7.10579,-2.09251 -13.54368,-6.05023 -20.5438,-8.47286 -3.22922,-1.11757 -4.06892,-2.11504 -9.865681,-2.78561 5.189151,-6.11953 6.798631,-8.15624 6.686461,-13.03962 -0.11731,-5.10939 -1.49126,-9.723566 -7.614999,-13.307499 z"
       id="path13796"
       inkscape:connector-curvature="0"
       sodipodi:nodetypes="caacacaacac" />
    <path
       style="fill:none;stroke:none;stroke-width:0.59919417px;stroke-linecap:butt;stroke-linejoin:miter;stroke-opacity:1"
       d="m -37.758394,145.22956 8.3568,13.81193 4.178404,4.99086 -10.446006,-20.5438 z"
       id="path13800"
       inkscape:connector-curvature="0" />
    <path
       style="opacity:0.34800002;fill:#a30700;fill-opacity:1;stroke:none;stroke-width:0.59919417px;stroke-linecap:butt;stroke-linejoin:miter;stroke-opacity:1"
       d="m -39.23009,115.60734 c 0,0 4.235331,4.11903 5.170507,6.81193 0.466769,1.3441 0.08207,4.26773 0.08207,4.26773 v 0 c 0,0 1.012503,2.54413 2.103696,2.5102 7.825496,-0.24327 12.35865,-0.0593 17.949923,-2.32615 5.0520716,-2.04829 9.0291646,-6.16421 13.10327841,-9.78644 3.80349009,-3.38163 6.51762139,-7.91715 10.50515679,-11.07965 3.2276998,-2.5599 10.6692998,-6.237429 10.6692998,-6.237429 0,0 -8.130805,-0.123878 -12.1465877,0.410359 -5.0977859,0.67829 -10.1161407,1.9771 -15.0190901,3.52906 -5.3130632,1.68177 -10.3757472,4.07392 -15.5115222,6.23745 -3.251003,1.36953 -6.317395,3.21526 -9.68444,4.26772 -2.34028,0.73151 -7.222292,1.39522 -7.222292,1.39522 z"
       id="path22-6"
       inkscape:connector-curvature="0"
       sodipodi:nodetypes="caccsaaacaaaac" />
    <path
       style="fill:#ed6f68;fill-opacity:1;stroke:none;stroke-width:0.59919417px;stroke-linecap:butt;stroke-linejoin:miter;stroke-opacity:1"
       d="m -40.708096,115.61273 c 0,0 4.235331,4.11903 5.170507,6.81193 0.466769,1.3441 0.584251,2.93646 0.08207,4.26773 -0.457896,1.21388 -2.626291,2.87248 -2.626291,2.87248 0,0 7.359003,0.20767 10.997587,-0.24621 4.12238,-0.51422 8.376733,-1.04497 12.14659,-2.79042 4.771442,-2.20921 8.7093385,-5.94469 12.6390116,-9.43824 3.8036146,-3.38147 6.5176213,-7.91715 10.5051568,-11.07965 3.2276996,-2.5599 10.6693006,-6.237429 10.6693006,-6.237429 0,0 -8.130806,-0.123878 -12.1465886,0.410359 -5.0977859,0.67829 -10.1161407,1.9771 -15.0190901,3.52906 -5.3130633,1.68177 -10.3757463,4.07392 -15.5115223,6.23745 -3.251003,1.36953 -6.317395,3.21526 -9.68444,4.26772 -2.340279,0.73151 -7.222292,1.39522 -7.222292,1.39522 z"
       id="path22"
       inkscape:connector-curvature="0"
       sodipodi:nodetypes="caacaaaacaaaac" />
    <ellipse
       id="path24-3-7"
       cx="-99.641708"
       cy="73.559517"
       style="opacity:1;fill:#dbdbdb;fill-opacity:1;stroke:none;stroke-width:0.0988613"
       rx="2.116405"
       ry="0.61859947"
       transform="rotate(-12.060729)" />
  </g>
</svg>
