<?xml version="1.0" encoding="UTF-8" standalone="no"?>
<svg
   xmlns:dc="http://purl.org/dc/elements/1.1/"
   xmlns:cc="http://creativecommons.org/ns#"
   xmlns:rdf="http://www.w3.org/1999/02/22-rdf-syntax-ns#"
   xmlns:svg="http://www.w3.org/2000/svg"
   xmlns="http://www.w3.org/2000/svg"
   id="svg8"
   version="1.1"
   viewBox="0 0 210 297"
   height="297mm"
   width="210mm">
  <defs
     id="defs2">
    <clipPath
       clipPathUnits="userSpaceOnUse"
       id="clipPath3729">
      <path
         d="M 0,389.188 H 600.078 V 0 H 0 Z"
         id="path3727" />
    </clipPath>
    <clipPath
       clipPathUnits="userSpaceOnUse"
       id="clipPath5397">
      <path
         d="M 0,389.188 H 600.078 V 0 H 0 Z"
         id="path5395" />
    </clipPath>
  </defs>
  <metadata
     id="metadata5">
    <rdf:RDF>
      <cc:Work
         rdf:about="">
        <dc:format>image/svg+xml</dc:format>
        <dc:type
           rdf:resource="http://purl.org/dc/dcmitype/StillImage" />
        <dc:title></dc:title>
      </cc:Work>
    </rdf:RDF>
  </metadata>
  <g
     id="layer1">
    <g
       id="g5389"
       transform="matrix(0.35277777,0,0,-0.35277777,-0.013756,217.48167)">
      <g
         id="g5391">
        <g
           id="g5393"
           clip-path="url(#clipPath5397)">
          <g
             id="g5399"
             transform="translate(596.0371,272.771)">
            <path
               d="m 0,0 c -2.205,4.531 -10.632,8.983 -18.338,8.5 -9.739,-0.612 -15.8,-12.999 -16,-17.168 -1.008,-20.974 -14.682,-57.69 -29.034,-69.667 -5.929,-4.949 -18.71,-6.309 -30.523,-6.398 29.676,-3.047 37.853,1.494 78.304,25.651 C -1.012,-42.817 10.447,-21.463 0,0"
               style="fill:#897b77;fill-opacity:1;fill-rule:nonzero;stroke:none"
               id="path5401" />
          </g>
          <g
             id="g5403"
             transform="translate(502.1426,188.0381)">
            <path
               d="m 0,0 c -7.224,-0.054 -14.086,0.366 -18.794,0.734 -22.388,1.751 -77.309,20.913 -86.876,25.843 -0.847,0.196 -1.306,0.077 -1.722,0.155 -8.606,1.618 -22.994,2.298 -29.834,4.166 -11.726,3.203 -42,24.5 -42,24.5 0,0 22.934,1.998 32.584,10.831 9.833,9 7.122,25.471 7.122,25.471 v 0 c -0.826,0.061 -1.29,0.031 -1.29,0.031 0,0 -51.333,130.667 -230.416,106.417 -19.964,-2.703 -52.999,-24.001 -63.75,-38.834 -15.206,-20.981 -37.233,-74.749 -52,-110.166 -8.352,-20.032 -15.167,-33.54 -15.167,-33.54 0,0 7.486,-18.097 16.167,-44.46 9.586,-29.111 21.075,-67.99 35.505,-96.753 12.185,-24.287 27.723,-39.006 37.495,-42.997 175.355,-71.602 264.575,76.502 273.498,92.332 0,0 0.002,14.001 -5.665,22.168 -4.803,6.924 -27.627,17.075 -27.627,17.075 0,0 25.326,16.708 33.044,19.425 11.25,3.961 23.25,2.998 29.583,1 0.856,-0.27 1.824,-0.63 2.866,-1.053 -0.118,0.88 -0.201,1.386 -0.201,1.386 0,0 55.876,-9.138 70.868,-7.658 28.619,2.825 61.592,12.386 80.466,20.991 1.223,0.557 19.48,11.889 34.448,28.587 C 37.852,1.494 29.676,-3.047 0,0"
               style="fill:#998882;fill-opacity:1;fill-rule:nonzero;stroke:none"
               id="path5405" />
          </g>
          <g
             id="g5407"
             transform="translate(355.501,254.2666)">
            <path
               d="m 0,0 c -9.65,-8.833 -32.584,-10.83 -32.584,-10.83 0,0 30.273,-21.298 42,-24.5 6.84,-1.868 30.709,-4.417 31.556,-4.322 -0.104,0.054 -0.21,0.108 -0.303,0.158 -2.859,1.538 3,12.166 -0.667,26 C 30.77,21.331 12.172,25.1 7.122,25.472 H 7.121 C 7.121,25.472 9.833,9 0,0"
               style="fill:#897b77;fill-opacity:1;fill-rule:nonzero;stroke:none"
               id="path5409" />
          </g>
          <g
             id="g5411"
             transform="translate(362.417,170.4365)">
            <path
               d="m 0,0 c -7.719,-2.718 -33.044,-19.426 -33.044,-19.426 0,0 22.823,-10.151 27.627,-17.074 5.667,-8.167 5.665,-22.168 5.665,-22.168 0,0 14.376,-1.952 28.71,23.214 6.215,10.912 4.195,30.124 3.49,35.4 C 31.406,0.369 30.439,0.73 29.583,1 23.25,2.998 11.25,3.961 0,0"
               style="fill:#897b77;fill-opacity:1;fill-rule:nonzero;stroke:none"
               id="path5413" />
          </g>
          <g
             id="g5415"
             transform="translate(467.5127,178.4355)">
            <path
               d="m 0,0 c 0,0 19.662,3.662 29.833,3.667 14.319,0.006 25.983,0 35,0 C 84.048,3.667 90,1.501 90,1.501 90,1.501 47.162,-4.435 30.333,-3.434 23.846,-3.047 0,0 0,0"
               style="fill:#c6aea8;fill-opacity:1;fill-rule:nonzero;stroke:none"
               id="path5417" />
          </g>
          <g
             id="g5419"
             transform="translate(77.1724,165.8525)">
            <path
               d="m 0,0 c 0,-2.715 -2.761,-4.916 -6.167,-4.916 -3.405,0 -6.166,2.201 -6.166,4.916 0,2.716 2.761,3.417 6.166,3.417 C -2.761,3.417 0,2.716 0,0"
               style="fill:#d3bbab;fill-opacity:1;fill-rule:nonzero;stroke:none"
               id="path5421" />
          </g>
          <g
             id="g5423"
             transform="translate(75.9507,247.4795)">
            <path
               d="m 0,0 c -0.254,1.95 -3.087,3.187 -6.328,2.764 -3.24,-0.423 -5.66,-2.347 -5.406,-4.296 0.255,-1.95 3.088,-3.187 6.328,-2.764 C -2.165,-3.873 0.254,-1.949 0,0"
               style="fill:#d3bbab;fill-opacity:1;fill-rule:nonzero;stroke:none"
               id="path5425" />
          </g>
          <g
             id="g5427"
             transform="translate(83.5005,238.9341)">
            <path
               d="M 0,0 C -5.169,-3.821 -16.529,-4.924 -22.013,-0.757"
               style="fill:none;stroke:#685d5b;stroke-width:4;stroke-linecap:round;stroke-linejoin:miter;stroke-miterlimit:10;stroke-dasharray:none;stroke-opacity:1"
               id="path5429" />
          </g>
          <g
             id="g5431"
             transform="translate(83.5005,174.5197)">
            <path
               d="M 0,0 C -5.169,3.821 -16.529,4.924 -22.013,0.757"
               style="fill:none;stroke:#685d5b;stroke-width:4;stroke-linecap:round;stroke-linejoin:miter;stroke-miterlimit:10;stroke-dasharray:none;stroke-opacity:1"
               id="path5433" />
          </g>
        </g>
      </g>
    </g>
  </g>
</svg>
