<?xml version="1.0" encoding="UTF-8" standalone="no"?>
<!-- Created with Inkscape (http://www.inkscape.org/) -->

<svg
   xmlns:dc="http://purl.org/dc/elements/1.1/"
   xmlns:cc="http://creativecommons.org/ns#"
   xmlns:rdf="http://www.w3.org/1999/02/22-rdf-syntax-ns#"
   xmlns:svg="http://www.w3.org/2000/svg"
   xmlns="http://www.w3.org/2000/svg"
   xmlns:sodipodi="http://sodipodi.sourceforge.net/DTD/sodipodi-0.dtd"
   xmlns:inkscape="http://www.inkscape.org/namespaces/inkscape"
   width="352.88043mm"
   height="97.347542mm"
   viewBox="0 0 352.88043 97.347542"
   version="1.1"
   id="svg8"
   inkscape:version="0.92.4 (5da689c313, 2019-01-14)"
   sodipodi:docname="sandtiger shark.svg">
  <defs
     id="defs2" />
  <sodipodi:namedview
     id="base"
     pagecolor="#ffffff"
     bordercolor="#666666"
     borderopacity="1.0"
     inkscape:pageopacity="0.0"
     inkscape:pageshadow="2"
     inkscape:zoom="0.70710678"
     inkscape:cx="512.11394"
     inkscape:cy="186.13378"
     inkscape:document-units="mm"
     inkscape:current-layer="layer1"
     showgrid="false"
     inkscape:window-width="1920"
     inkscape:window-height="1013"
     inkscape:window-x="-9"
     inkscape:window-y="29"
     inkscape:window-maximized="1"
     inkscape:snap-nodes="false"
     inkscape:snap-global="false"
     fit-margin-top="0"
     fit-margin-left="0"
     fit-margin-right="0"
     fit-margin-bottom="0" />
  <metadata
     id="metadata5">
    <rdf:RDF>
      <cc:Work
         rdf:about="">
        <dc:format>image/svg+xml</dc:format>
        <dc:type
           rdf:resource="http://purl.org/dc/dcmitype/StillImage" />
        <dc:title></dc:title>
      </cc:Work>
    </rdf:RDF>
  </metadata>
  <g
     inkscape:label="Layer 1"
     inkscape:groupmode="layer"
     id="layer1"
     transform="translate(55.606657,-93.381458)">
    <path
       style="fill:#b4a989;fill-opacity:1;stroke:none;stroke-width:1.26608384px;stroke-linecap:butt;stroke-linejoin:miter;stroke-opacity:1"
       d="m 111.15475,93.389651 c -1.9748,0.1493 -6.01339,2.7904 -10.51195,5.82349 -4.498523,3.033099 -9.639596,10.559919 -16.446722,13.224639 -4.287024,1.67803 -21.693095,0.97285 -39.800045,1.93128 -10.644576,0.56345 -21.479822,2.38258 -30.175832,3.77847 -10.0374801,1.61122 -17.7611501,5.21972 -30.59326,8.55199 -5.99327,1.55636 -10.83031,2.57836 -15.16493,3.43252 -8.10211,1.59656 -16.73801,4.58501 -23.31015,5.42415 -0.67448,0.0861 -1.03889,1.06808 -0.49573,2.65414 0.0957,0.27935 0.35436,0.50248 0.50958,0.8177 0.80231,0.0708 13.83526,3.6084 20.76503,4.46882 4.32856,0.53745 8.69695,1.13846 13.02455,1.71749 4.3276,0.57903 8.63543,-0.69991 12.8833899,0.29 6.18579,1.44146 14.2566,2.55753 21.2810901,4.21121 3.51224,0.82684 6.7612,1.78699 9.38435,2.98964 1.31159,0.60133 2.46796,1.2649 3.41992,2.00052 0.95196,0.7356 1.70003,1.54386 2.20081,2.44066 0.17379,0.31122 0.52862,0.50601 1.00396,0.61821 0.0829,0.009 0.16442,0.0165 0.24729,0.0247 0.46433,0.0781 0.99333,0.1128 1.634525,0.0667 1.45511,-0.10433 3.292793,-0.48874 5.175612,-0.9644 3.765663,-0.95134 7.714351,-2.27395 9.166752,-2.48024 0.367582,-0.0522 0.613354,-0.18711 0.764094,-0.38576 0.150753,-0.19866 0.207081,-0.46012 0.202776,-0.76411 -0.0089,-0.60796 -0.26622,-1.38598 -0.524235,-2.16866 -0.258028,-0.78268 -0.516094,-1.56977 -0.529185,-2.19834 -0.0063,-0.31428 0.04798,-0.58956 0.195357,-0.80366 0.147372,-0.21411 0.388637,-0.36734 0.751737,-0.44017 4.984927,-0.99971 11.12903,-1.78645 18.068892,-2.39863 6.939862,-0.61218 14.673229,-1.04899 22.834027,-1.34768 8.160784,-0.2987 16.750647,-0.46002 25.398327,-0.5193 8.6477,-0.0592 17.35386,-0.0171 25.75443,0.089 16.80113,0.21218 32.37521,0.68101 43.78375,1.1103 8.2311,0.30972 10.76795,0.47329 13.56095,0.63056 0,0 3.49401,0.38596 5.23495,0.24234 1.53065,-0.12623 2.0085,-0.40657 4.50549,-0.9644 4.37314,-0.97696 9.60143,-2.22033 13.02186,-3.28637 6.85096,-2.13523 13.60924,-4.56586 20.29197,-7.19839 6.68272,-2.63253 13.29098,-5.46555 19.83944,-8.40016 4.07275,-1.82517 8.97133,-3.84957 13.45461,-5.30914 2.24165,-0.7298 4.37987,-1.31876 6.25871,-1.67164 1.87883,-0.35287 3.49759,-0.46907 4.70331,-0.2547 0.67934,0.12079 0.95447,1.2704 1.68593,1.78056 0.73145,0.51014 0.47806,0.32505 1.52344,0.7329 0.0843,0.0823 1.09621,0.34785 1.17741,0.4292 1.32575,0.52109 2.62707,0.96489 3.63999,0.45005 2.1496,-1.09255 0.62225,-4.10146 2.03513,-5.20034 l 4.07027,-3.1652 c 3.62809,-2.82184 -38.96955,-0.14148 -67.35468,5.29924 -17.63494,3.38022 -23.43618,7.61061 -29.80738,9.79237 -1.95452,0.66922 -20.33204,-0.13366 -21.53331,0.0545 -1.20129,0.18796 2.39833,-1.79245 4.91596,-2.43078 -0.0823,-1.42964 -5.10847,-3.82594 -6.49857,-7.06485 -1.39011,-3.23891 0.48505,-9.92865 -1.47133,-12.20832 -1.95639,-2.27967 -5.34039,0.16807 -7.12172,1.52573 -1.78134,1.35766 -11.14344,11.55882 -20.0076,14.75284 -3.21794,1.15956 -22.16711,-3.60616 -24.81227,-4.01338 -0.61944,-0.0955 -2.18042,-0.24548 -2.7745,-0.74185 -0.37287,-0.31152 1.40488,-0.80503 1.03116,-1.24383 -1.57271,-1.84776 -3.75445,-3.19362 -5.71964,-6.20925 -3.17564,-4.8732 -2.02656,-9.15121 -1.87438,-12.458069 0.15215,-3.30685 -0.89862,-5.21363 -2.87343,-5.06433 z"
       id="path3724"
       inkscape:connector-curvature="0"
       sodipodi:nodetypes="ccccccsssccscscccccccccccsccssssscaccscscccccccccccccccccccccsc" />
    <path
       style="fill:#d8d3c3;fill-opacity:1;stroke:none;stroke-width:1.26608384px;stroke-linecap:butt;stroke-linejoin:miter;stroke-opacity:1"
       d="m 29.128831,157.76458 c -0.47534,-0.11218 -0.83017,-0.30699 -1.00395,-0.61821 -0.50079,-0.8968 -1.24885,-1.70506 -2.20081,-2.44066 -0.95197,-0.73562 -2.10833,-1.39919 -3.41992,-2.00052 -2.62315,-1.20265 -5.87211,-2.1628 -9.38435,-2.98964 -7.0244901,-1.65368 -15.0953101,-2.76975 -21.2810901,-4.21121 -4.2479699,-0.98991 -8.5557899,-1.6836 -12.8833899,-2.26263 -4.3276,-0.57903 -8.67602,-1.04515 -13.00457,-1.58261 -6.92977,-0.86042 -17.7318,-3.80277 -21.4317,-3.90352 0.0676,0.32449 0.42694,1.45135 0.96916,1.92062 3.54626,3.06919 9.14715,3.97319 13.34082,4.47055 4.19367,0.49959 7.16886,-0.15227 11.07823,0.45254 3.6392,0.56298 10.37324,2.85099 11.35767,3.18746 -0.35115,-0.0746 -0.81713,-0.11902 -1.38231,0.0371 -4.6839,1.14312 -16.42152,-1.26445 -14.21376,0.10876 3.01087,1.99623 4.68665,2.78842 8.08364,3.4471 2.2504,0.43637 29.9350099,3.85458 55.37633,6.38483 z"
       id="path4545"
       inkscape:connector-curvature="0"
       sodipodi:nodetypes="ccccscsccacccccccc" />
    <path
       style="fill:#ffffff;fill-opacity:1;stroke:none;stroke-width:1.12182832px;stroke-linecap:butt;stroke-linejoin:miter;stroke-opacity:1"
       d="m -34.511659,135.94818 c 0,0 1.02001,-1.057 2.12663,-1.057 1.10661,0 2.12662,1.057 2.12662,1.057 0,0 -1.01004,1.03997 -2.12662,1.03997 -1.11658,0 -2.12663,-1.03997 -2.12663,-1.03997 z"
       id="path4683"
       inkscape:connector-curvature="0"
       sodipodi:nodetypes="czczc" />
    <ellipse
       style="fill:#4a4a4a;fill-opacity:1;stroke:none;stroke-width:0.70911634;stroke-opacity:1"
       id="path4531-6"
       cx="-32.377365"
       cy="135.94122"
       rx="0.88066393"
       ry="0.83640403" />
    <path
       style="fill:#8d8670;fill-opacity:1;stroke:none;stroke-width:0.3253282;stroke-linecap:butt;stroke-linejoin:miter;stroke-miterlimit:4;stroke-dasharray:none;stroke-opacity:1"
       d="m -51.473319,140.71314 c 0.81422,-0.24165 1.35507,-0.63504 1.18916,-1.48207 -0.14676,-0.74936 -2.7146,-2.51769 -2.19496,-1.83197 0.50117,0.66141 1.80438,1.2554 1.36593,1.88963 -0.51436,0.74405 -0.81161,1.02944 -0.36028,1.42436 z"
       id="path4577"
       inkscape:connector-curvature="0"
       sodipodi:nodetypes="asssaa" />
    <path
       style="fill:none;stroke:#9d947b;stroke-width:1.26608396;stroke-linecap:round;stroke-linejoin:miter;stroke-miterlimit:4;stroke-dasharray:none;stroke-opacity:1"
       d="m 11.056071,136.91183 c 0.57322,5.86962 0.7018,11.3836 -0.22634,16.05214"
       id="path4893"
       inkscape:connector-curvature="0"
       sodipodi:nodetypes="cc" />
    <path
       style="fill:none;stroke:#9d947b;stroke-width:1.26608396;stroke-linecap:round;stroke-linejoin:miter;stroke-miterlimit:4;stroke-dasharray:none;stroke-opacity:1"
       d="m 13.752101,135.93129 c 0.57322,5.86962 0.7018,11.38361 -0.22634,16.05214"
       id="path4893-7"
       inkscape:connector-curvature="0"
       sodipodi:nodetypes="cc" />
    <path
       style="fill:none;stroke:#9d947b;stroke-width:1.26608396;stroke-linecap:round;stroke-linejoin:miter;stroke-miterlimit:4;stroke-dasharray:none;stroke-opacity:1"
       d="m 17.053031,136.13471 c 0.57322,5.86962 0.70179,11.38361 -0.22634,16.05214"
       id="path4893-7-6"
       inkscape:connector-curvature="0"
       sodipodi:nodetypes="cc" />
    <path
       style="fill:none;stroke:#9d947b;stroke-width:1.26608396;stroke-linecap:round;stroke-linejoin:miter;stroke-miterlimit:4;stroke-dasharray:none;stroke-opacity:1"
       d="m 20.206901,136.0669 c 0.57322,5.86963 0.7018,11.38361 -0.22634,16.05215"
       id="path4893-7-2"
       inkscape:connector-curvature="0"
       sodipodi:nodetypes="cc" />
    <path
       style="fill:none;stroke:#9d947b;stroke-width:1.26608396;stroke-linecap:round;stroke-linejoin:miter;stroke-miterlimit:4;stroke-dasharray:none;stroke-opacity:1"
       d="m 23.247801,137.25387 c 0.57322,5.86962 0.7018,11.38361 -0.22634,16.05215"
       id="path4893-7-60"
       inkscape:connector-curvature="0"
       sodipodi:nodetypes="cc" />
    <ellipse
       style="fill:#ffffff;fill-opacity:1;stroke:#4a4a4a;stroke-width:0.12660839;stroke-miterlimit:4;stroke-dasharray:none;stroke-opacity:1"
       id="path4531-6-8-4"
       cx="-31.93988"
       cy="135.55417"
       rx="0.42477682"
       ry="0.41714141" />
    <g
       id="g4623"
       transform="matrix(4.7851992,0,0,4.7851992,-500.35143,-528.93759)">
      <path
         inkscape:connector-curvature="0"
         transform="scale(0.26458333)"
         id="path4538"
         d="m 622.125,513.59375 c -0.0641,-0.0643 -0.0486,-0.062 -0.11523,-0.12695 -0.50202,-0.48954 -1.07071,-0.9916 -1.64844,-1.39453 -0.57773,-0.40294 -1.1646,-0.70733 -1.70117,-0.80274 -0.95232,-0.16932 -2.23088,-0.0775 -3.71485,0.20117 -1.48397,0.27872 -3.17282,0.7439 -4.94336,1.32032 -3.54106,1.15283 -7.41014,2.75177 -10.62695,4.19336 -5.17221,2.31787 -10.39166,4.55549 -15.66992,6.63476 -5.27827,2.07927 -10.61621,3.99907 -16.02735,5.68555 -2.70158,0.842 -6.83108,1.82406 -10.28515,2.5957 -1.97221,0.44059 -2.4183,0.52365 -3.5586,0.76172 0.0607,0.0245 0.17226,0.0106 0.22852,0.0371 1.54772,0.72812 13.06535,14.6808 17.09766,13.25781 2.52548,-0.89121 3.07807,-5.11703 3.59961,-9.60351 0.27072,-2.32902 1.81749,-3.92133 3.09765,-4.99414 2.10917,-1.76746 11.00675,-5.14103 19.8457,-9.13282 7.09864,-3.20583 14.8683,-5.22641 17.6543,-6.84961 2.40454,-1.40095 1.63191,-1.95446 3.4375,-2.5 0.95476,-0.28846 2.15506,0.25495 3.33008,0.7168 z"
         style="fill:#d8d3c3;fill-opacity:1;stroke:none;stroke-width:0.99999994px;stroke-linecap:butt;stroke-linejoin:miter;stroke-opacity:1" />
      <path
         transform="scale(0.26458333)"
         inkscape:connector-curvature="0"
         id="path4543"
         d="m 549.69922,532.4707 c -2.20601,-0.12422 -4.20971,-0.25341 -10.71094,-0.49804 -9.01089,-0.33907 -21.31187,-0.70937 -34.58203,-0.87696 -6.63508,-0.0838 -13.51153,-0.11713 -20.3418,-0.0703 -6.83026,0.0468 -13.61485,0.17424 -20.06054,0.41016 -6.4457,0.23592 -12.5538,0.58093 -18.03516,1.06445 -5.48136,0.48352 -10.3342,1.10492 -14.27148,1.89453 -0.28679,0.0575 -0.47735,0.17855 -0.59375,0.34766 -0.11641,0.1691 -0.15947,0.38653 -0.1543,0.63476 0.0103,0.49647 0.21417,1.11814 0.41797,1.73633 0.20379,0.61819 0.40727,1.2327 0.41406,1.71289 0.003,0.2401 -0.0411,0.44661 -0.16016,0.60352 -0.11906,0.1569 -0.31318,0.26344 -0.60351,0.30469 -1.14716,0.16293 -4.26598,1.20758 -7.24024,1.95898 -1.48712,0.3757 -2.93859,0.67933 -4.08789,0.76172 -0.50644,0.0363 -0.92426,0.009 -1.29101,-0.0527 10.16667,1.00921 19.93704,1.88179 26.24414,2.08204 18.80602,0.59704 38.2917,-1.83458 42.32226,-1.60743 4.03057,0.22723 10.94008,9.62448 13.39258,8.39258 2.45246,-1.23194 3.15124,-3.76563 6.02735,-6.60742 2.8761,-2.84183 4.66102,-4.05898 5.53515,-5.89258 2.39199,-0.1372 9.79141,-1.65552 11.38281,-0.98242 1.59137,0.6731 14.43267,10.97098 17.54493,9.95508 3.11229,-1.0159 2.00921,-2.90124 2.54492,-5.22266 0.53571,-2.32142 3.43921,-8.76637 4.64258,-9.64258 0.35332,-0.2572 1.05641,-0.29777 1.66406,-0.40625 z"
         style="fill:#d8d3c3;fill-opacity:1;stroke:none;stroke-width:0.99999994px;stroke-linecap:butt;stroke-linejoin:miter;stroke-opacity:1" />
      <path
         sodipodi:nodetypes="cssscscc"
         inkscape:connector-curvature="0"
         id="path4533"
         d="m 110.20368,142.83296 c 0,0 1.36899,2.85735 2.07887,4.08687 1.07152,1.85588 3.13409,3.81073 3.75614,3.42541 0.571,-0.3537 0.24612,-2.89935 0.61421,-4.29948 0.22569,-0.85845 0.58617,-1.83504 0.87407,-2.64583 -0.66126,-0.58683 -2.09718,-0.78045 -3.00019,-1.53553 -0.32643,-0.27296 -0.80319,-0.99219 -0.80319,-0.99219 z"
         style="fill:#b4a989;fill-opacity:1;stroke:none;stroke-width:0.26458332px;stroke-linecap:butt;stroke-linejoin:miter;stroke-opacity:1" />
      <path
         sodipodi:nodetypes="csacscc"
         inkscape:connector-curvature="0"
         id="path4954"
         d="m 135.38204,142.5583 c 0,0 -3.10104,0.80159 -4.78825,1.20438 -0.23206,0.0554 -0.32456,0.25298 -0.32156,0.43264 0.006,0.35498 0.66353,0.83314 0.66353,0.83314 0,0 -1.19734,-1.0582 -1.76805,-1.30692 -0.0802,-0.0349 -0.24732,-0.0875 -0.24732,-0.0875 z"
         style="fill:#cbc4b0;fill-opacity:1;stroke:none;stroke-width:0.26458332px;stroke-linecap:butt;stroke-linejoin:miter;stroke-opacity:1" />
      <path
         sodipodi:nodetypes="ccscasc"
         inkscape:connector-curvature="0"
         id="path4956"
         d="m 145.02474,140.96198 -6.80475,1.28984 c 0,0 0.21067,0.0135 0.29765,0.0661 0.26063,0.15752 1.00824,0.68903 1.00824,0.68903 0,0 -0.18923,-0.26282 -0.17768,-0.4119 0.008,-0.0976 0.0773,-0.2275 0.15646,-0.24855 1.85546,-0.4931 5.52008,-1.38452 5.52008,-1.38452 z"
         style="fill:#cbc4b0;fill-opacity:1;stroke:none;stroke-width:0.26458332px;stroke-linecap:butt;stroke-linejoin:miter;stroke-opacity:1" />
      <path
         sodipodi:nodetypes="cacscssac"
         inkscape:connector-curvature="0"
         id="path4958"
         d="m 129.69544,135.20729 c 0,0 -2.89891,-0.57622 -4.36218,-0.7766 -1.12724,-0.15437 -3.39755,-0.3272 -3.39755,-0.3272 0.25738,-0.11507 1.0174,-0.4156 1.62179,-1.00003 0.85077,-0.82267 1.46473,-1.34834 1.70617,-1.55899 0,0 -1.11605,1.08762 -1.81901,2.05465 -0.1229,0.16907 -0.0245,0.38943 0.1571,0.42582 0.57723,0.11568 1.44907,0.19188 2.16759,0.32397 1.31753,0.24221 3.92609,0.85838 3.92609,0.85838 z"
         style="fill:#8d8670;fill-opacity:1;stroke:none;stroke-width:0.26458332px;stroke-linecap:butt;stroke-linejoin:miter;stroke-opacity:1" />
      <path
         sodipodi:nodetypes="cscsscc"
         inkscape:connector-curvature="0"
         id="path4960"
         d="m 135.43637,136.29355 c 10e-4,0.006 1.18138,-0.51854 1.70931,-0.9253 0.67875,-0.52295 1.10416,-0.84307 1.10416,-0.84307 0,0 -0.54946,0.43837 -1.43323,1.41001 -0.1088,0.11962 -0.15548,0.29482 0.0583,0.3437 1.40788,0.32185 4.86809,1.09939 4.86809,1.09939 -2.08266,-0.37599 -4.03703,-0.84652 -6.30668,-1.08473 z"
         style="fill:#8d8670;fill-opacity:1;stroke:none;stroke-width:0.26458332px;stroke-linecap:butt;stroke-linejoin:miter;stroke-opacity:1" />
    </g>
    <ellipse
       style="fill:#8d8670;fill-opacity:1;stroke:none;stroke-width:1.26608396;stroke-linecap:round;stroke-miterlimit:4;stroke-dasharray:none;stroke-opacity:1"
       id="path4962"
       cx="31.783302"
       cy="120.97126"
       rx="2.0143273"
       ry="1.90242" />
    <ellipse
       style="fill:#8d8670;fill-opacity:1;stroke:none;stroke-width:0.66821092;stroke-linecap:round;stroke-miterlimit:4;stroke-dasharray:none;stroke-opacity:1"
       id="path4962-0"
       cx="50.536346"
       cy="133.17062"
       rx="1.0631173"
       ry="1.004055" />
    <ellipse
       style="fill:#8d8670;fill-opacity:1;stroke:none;stroke-width:0.84405595;stroke-linecap:round;stroke-miterlimit:4;stroke-dasharray:none;stroke-opacity:1"
       id="path4962-07"
       cx="98.463295"
       cy="125.44205"
       rx="1.3428848"
       ry="1.2682801" />
    <ellipse
       style="fill:#8d8670;fill-opacity:1;stroke:none;stroke-width:0.93094403;stroke-linecap:round;stroke-miterlimit:4;stroke-dasharray:none;stroke-opacity:1"
       id="path4962-8"
       cx="75.884415"
       cy="135.38316"
       rx="1.481123"
       ry="1.3988383" />
    <ellipse
       style="fill:#8d8670;fill-opacity:1;stroke:none;stroke-width:1.26608396;stroke-linecap:round;stroke-miterlimit:4;stroke-dasharray:none;stroke-opacity:1"
       id="path4962-1"
       cx="118.8304"
       cy="132.6414"
       rx="2.0143273"
       ry="1.90242" />
    <ellipse
       style="fill:#8d8670;fill-opacity:1;stroke:none;stroke-width:0.84405595;stroke-linecap:round;stroke-miterlimit:4;stroke-dasharray:none;stroke-opacity:1"
       id="path4962-07-3"
       cx="188.88419"
       cy="138.34865"
       rx="1.3428848"
       ry="1.2682801" />
    <ellipse
       style="fill:#8d8670;fill-opacity:1;stroke:none;stroke-width:0.386859;stroke-linecap:round;stroke-miterlimit:4;stroke-dasharray:none;stroke-opacity:1"
       id="path4962-0-4"
       cx="147.87024"
       cy="138.04402"
       rx="0.61548901"
       ry="0.58129513" />
    <ellipse
       style="fill:#8d8670;fill-opacity:1;stroke:none;stroke-width:0.386859;stroke-linecap:round;stroke-miterlimit:4;stroke-dasharray:none;stroke-opacity:1"
       id="path4962-0-4-7"
       cx="78.82489"
       cy="118.85357"
       rx="0.61548901"
       ry="0.58129513" />
    <ellipse
       style="fill:#8d8670;fill-opacity:1;stroke:none;stroke-width:0.93094403;stroke-linecap:round;stroke-miterlimit:4;stroke-dasharray:none;stroke-opacity:1"
       id="path4962-8-3"
       cx="155.75974"
       cy="129.84378"
       rx="1.481123"
       ry="1.3988383" />
    <ellipse
       style="fill:#8d8670;fill-opacity:1;stroke:none;stroke-width:0.66821092;stroke-linecap:round;stroke-miterlimit:4;stroke-dasharray:none;stroke-opacity:1"
       id="path4962-0-3"
       cx="205.34149"
       cy="141.4893"
       rx="1.0631173"
       ry="1.004055" />
    <ellipse
       style="fill:#8d8670;fill-opacity:1;stroke:none;stroke-width:0.66821092;stroke-linecap:round;stroke-miterlimit:4;stroke-dasharray:none;stroke-opacity:1"
       id="path4962-0-3-1"
       cx="216.88515"
       cy="126.20667"
       rx="1.0631174"
       ry="1.004055" />
    <ellipse
       style="fill:#8d8670;fill-opacity:1;stroke:none;stroke-width:0.66821092;stroke-linecap:round;stroke-miterlimit:4;stroke-dasharray:none;stroke-opacity:1"
       id="path4962-0-3-6"
       cx="236.66776"
       cy="120.58843"
       rx="1.0631174"
       ry="1.004055" />
    <ellipse
       style="fill:#8d8670;fill-opacity:1;stroke:none;stroke-width:0.66821092;stroke-linecap:round;stroke-miterlimit:4;stroke-dasharray:none;stroke-opacity:1"
       id="path4962-0-3-10"
       cx="261.48376"
       cy="118.10398"
       rx="1.0631174"
       ry="1.004055" />
    <ellipse
       style="fill:#8d8670;fill-opacity:1;stroke:none;stroke-width:0.386859;stroke-linecap:round;stroke-miterlimit:4;stroke-dasharray:none;stroke-opacity:1"
       id="path4962-0-4-4"
       cx="227.01382"
       cy="134.04054"
       rx="0.61548901"
       ry="0.58129513" />
    <ellipse
       style="fill:#8d8670;fill-opacity:1;stroke:none;stroke-width:0.386859;stroke-linecap:round;stroke-miterlimit:4;stroke-dasharray:none;stroke-opacity:1"
       id="path4962-0-4-6"
       cx="239.43735"
       cy="119.40148"
       rx="0.61548901"
       ry="0.58129513" />
    <ellipse
       style="fill:#8d8670;fill-opacity:1;stroke:none;stroke-width:0.386859;stroke-linecap:round;stroke-miterlimit:4;stroke-dasharray:none;stroke-opacity:1"
       id="path4962-0-4-9"
       cx="290.0806"
       cy="114.49537"
       rx="0.61548901"
       ry="0.58129513" />
    <ellipse
       style="fill:#8d8670;fill-opacity:1;stroke:none;stroke-width:0.386859;stroke-linecap:round;stroke-miterlimit:4;stroke-dasharray:none;stroke-opacity:1"
       id="path4962-0-4-8"
       cx="278.29022"
       cy="115.04928"
       rx="0.61548901"
       ry="0.58129513" />
    <ellipse
       style="fill:#8d8670;fill-opacity:1;stroke:none;stroke-width:0.386859;stroke-linecap:round;stroke-miterlimit:4;stroke-dasharray:none;stroke-opacity:1"
       id="path4962-0-4-2"
       cx="286.83627"
       cy="119.24319"
       rx="0.61548901"
       ry="0.58129513" />
    <ellipse
       style="fill:#8d8670;fill-opacity:1;stroke:none;stroke-width:0.93094403;stroke-linecap:round;stroke-miterlimit:4;stroke-dasharray:none;stroke-opacity:1"
       id="path4962-8-1"
       cx="245.28537"
       cy="125.47936"
       rx="1.481123"
       ry="1.3988383" />
    <ellipse
       style="fill:#a49d89;fill-opacity:1;stroke:none;stroke-width:0.66821092;stroke-linecap:round;stroke-miterlimit:4;stroke-dasharray:none;stroke-opacity:1"
       id="path4962-0-3-2"
       cx="220.442"
       cy="155.2466"
       rx="1.0631174"
       ry="1.004055" />
    <ellipse
       style="fill:#a49d89;fill-opacity:1;stroke:none;stroke-width:0.66821092;stroke-linecap:round;stroke-miterlimit:4;stroke-dasharray:none;stroke-opacity:1"
       id="path4962-0-3-0"
       cx="226.26118"
       cy="142.48918"
       rx="1.0631174"
       ry="1.004055" />
    <ellipse
       style="fill:#a49d89;fill-opacity:1;stroke:none;stroke-width:0.386859;stroke-linecap:round;stroke-miterlimit:4;stroke-dasharray:none;stroke-opacity:1"
       id="path4962-0-4-8-3"
       cx="216.30145"
       cy="151.88939"
       rx="0.61548901"
       ry="0.58129513" />
    <ellipse
       style="fill:#a49d89;fill-opacity:1;stroke:none;stroke-width:0.386859;stroke-linecap:round;stroke-miterlimit:4;stroke-dasharray:none;stroke-opacity:1"
       id="path4962-0-4-8-1"
       cx="260.84048"
       cy="128.50085"
       rx="0.61548901"
       ry="0.58129513" />
    <ellipse
       style="fill:#a49d89;fill-opacity:1;stroke:none;stroke-width:0.66821092;stroke-linecap:round;stroke-miterlimit:4;stroke-dasharray:none;stroke-opacity:1"
       id="path4962-0-3-0-7"
       cx="135.84036"
       cy="144.67143"
       rx="1.0631174"
       ry="1.004055" />
    <ellipse
       style="fill:#a49d89;fill-opacity:1;stroke:none;stroke-width:0.386859;stroke-linecap:round;stroke-miterlimit:4;stroke-dasharray:none;stroke-opacity:1"
       id="path4962-0-4-8-3-5"
       cx="157.60617"
       cy="148.75603"
       rx="0.61548901"
       ry="0.58129513" />
    <ellipse
       style="fill:#a49d89;fill-opacity:1;stroke:none;stroke-width:0.66821092;stroke-linecap:round;stroke-miterlimit:4;stroke-dasharray:none;stroke-opacity:1"
       id="path4962-0-3-0-7-6"
       cx="116.36844"
       cy="148.0845"
       rx="1.0631174"
       ry="1.004055" />
    <ellipse
       style="fill:#a49d89;fill-opacity:1;stroke:none;stroke-width:0.66821092;stroke-linecap:round;stroke-miterlimit:4;stroke-dasharray:none;stroke-opacity:1"
       id="path4962-0-3-0-7-3"
       cx="82.796326"
       cy="154.07162"
       rx="1.0631174"
       ry="1.004055" />
    <ellipse
       style="fill:#a49d89;fill-opacity:1;stroke:none;stroke-width:0.84405589;stroke-linecap:round;stroke-miterlimit:4;stroke-dasharray:none;stroke-opacity:1"
       id="path4962-0-3-0-7-8"
       cx="64.096474"
       cy="148.42863"
       rx="1.342885"
       ry="1.2682799" />
    <ellipse
       style="fill:#a49d89;fill-opacity:1;stroke:none;stroke-width:0.386859;stroke-linecap:round;stroke-miterlimit:4;stroke-dasharray:none;stroke-opacity:1"
       id="path4962-0-4-8-3-5-8"
       cx="98.68705"
       cy="147.58098"
       rx="0.61548901"
       ry="0.58129513" />
    <ellipse
       style="fill:#8d8670;fill-opacity:1;stroke:none;stroke-width:0.386859;stroke-linecap:round;stroke-miterlimit:4;stroke-dasharray:none;stroke-opacity:1"
       id="path4962-0-4-7-0"
       cx="179.61513"
       cy="130.70062"
       rx="0.61548901"
       ry="0.58129513" />
    <g
       id="g5018"
       style="fill:#f2f2f2;fill-opacity:1"
       transform="matrix(4.7851992,0,0,4.7851992,-500.35143,-528.93759)">
      <path
         sodipodi:nodetypes="ccccc"
         inkscape:connector-curvature="0"
         id="path4703"
         d="m 97.384446,141.43812 c -0.0367,-0.15852 -0.06223,-0.31647 -0.0636,-0.52382 0.05385,0.18681 0.179406,0.43759 0.304075,0.45754 -0.03703,0.13326 -0.185868,0.0741 -0.240471,0.0663 z"
         style="fill:#f2f2f2;fill-opacity:1;stroke:none;stroke-width:0.07628462px;stroke-linecap:butt;stroke-linejoin:miter;stroke-opacity:1" />
      <path
         sodipodi:nodetypes="ccccc"
         inkscape:connector-curvature="0"
         id="path4703-5"
         d="m 97.647912,141.43413 c -0.0367,-0.18691 -0.0457,-0.28055 -0.04707,-0.52503 0.05385,0.22026 0.147985,0.43112 0.272654,0.45465 -0.02876,0.15224 -0.160647,0.0942 -0.225586,0.0704 z"
         style="fill:#f2f2f2;fill-opacity:1;stroke:none;stroke-width:0.08283462px;stroke-linecap:butt;stroke-linejoin:miter;stroke-opacity:1" />
      <path
         sodipodi:nodetypes="cccc"
         inkscape:connector-curvature="0"
         id="path4703-6"
         d="m 97.867485,140.95784 c 0.05385,0.22027 0.150052,0.42138 0.274721,0.4449 -0.04545,0.11331 -0.160647,0.10447 -0.22972,0.0782 -0.0275,-0.0309 -0.04444,-0.44069 -0.045,-0.52307 z"
         style="fill:#f2f2f2;fill-opacity:1;stroke:none;stroke-width:0.08283462px;stroke-linecap:butt;stroke-linejoin:miter;stroke-opacity:1" />
      <path
         sodipodi:nodetypes="ccccc"
         inkscape:connector-curvature="0"
         id="path4703-55"
         d="m 98.146551,140.97736 c 0.05385,0.22026 0.160387,0.41649 0.285056,0.44001 -0.03581,0.13569 -0.169062,0.0995 -0.236423,0.0782 -0.0097,-0.0237 -0.04797,-0.44135 -0.04863,-0.51821 z"
         style="fill:#f2f2f2;fill-opacity:1;stroke:none;stroke-width:0.08283462px;stroke-linecap:butt;stroke-linejoin:miter;stroke-opacity:1" />
      <path
         sodipodi:nodetypes="ccccc"
         inkscape:connector-curvature="0"
         id="path4703-2"
         d="m 98.485069,141.52674 c -0.0367,-0.18691 -0.0085,-0.2854 -0.0098,-0.52988 0.05385,0.22026 0.106636,0.45791 0.249916,0.4595 -0.0458,0.13862 -0.187312,0.0858 -0.240056,0.0704 z"
         style="fill:#f2f2f2;fill-opacity:1;stroke:none;stroke-width:0.08283462px;stroke-linecap:butt;stroke-linejoin:miter;stroke-opacity:1" />
      <path
         sodipodi:nodetypes="ccccc"
         inkscape:connector-curvature="0"
         id="path4703-1"
         d="m 98.780659,141.55112 c -0.0367,-0.18691 -0.0302,-0.27932 -0.03157,-0.52381 0.05385,0.22027 0.139034,0.42405 0.263707,0.44758 -0.04736,0.14493 -0.158935,0.083 -0.232142,0.0763 z"
         style="fill:#f2f2f2;fill-opacity:1;stroke:none;stroke-width:0.08283462px;stroke-linecap:butt;stroke-linejoin:miter;stroke-opacity:1" />
      <path
         sodipodi:nodetypes="ccccc"
         inkscape:connector-curvature="0"
         id="path4703-8"
         d="m 99.086938,141.58674 c -0.0367,-0.18691 -0.01711,-0.33194 -0.01848,-0.57643 0.05385,0.22027 0.113202,0.45933 0.237868,0.48285 -0.02876,0.18637 -0.146178,0.10034 -0.219385,0.0936 z"
         style="fill:#f2f2f2;fill-opacity:1;stroke:none;stroke-width:0.08283462px;stroke-linecap:butt;stroke-linejoin:miter;stroke-opacity:1" />
      <path
         sodipodi:nodetypes="ccccc"
         inkscape:connector-curvature="0"
         id="path4703-8-9"
         d="m 99.396996,141.6048 c -0.0367,-0.18691 -0.01711,-0.30436 -0.01848,-0.54885 0.05385,0.22027 0.113202,0.42466 0.237868,0.44818 -0.02876,0.18637 -0.146178,0.10741 -0.219385,0.10069 z"
         style="fill:#f2f2f2;fill-opacity:1;stroke:none;stroke-width:0.08283462px;stroke-linecap:butt;stroke-linejoin:miter;stroke-opacity:1" />
      <path
         sodipodi:nodetypes="ccccc"
         inkscape:connector-curvature="0"
         id="path4703-8-7"
         d="m 99.67909,141.03445 c 0.05385,0.22026 0.110282,0.44129 0.234945,0.46481 -0.02876,0.18637 -0.142722,0.095 -0.215929,0.0883 -0.03542,-0.18148 -0.02109,-0.36666 -0.01902,-0.55308 z"
         style="fill:#f2f2f2;fill-opacity:1;stroke:none;stroke-width:0.08283462px;stroke-linecap:butt;stroke-linejoin:miter;stroke-opacity:1" />
      <path
         sodipodi:nodetypes="ccccc"
         inkscape:connector-curvature="0"
         id="path4703-8-0"
         d="m 99.97988,141.04513 c 0.05385,0.22027 0.12782,0.39648 0.25248,0.42001 -0.0288,0.18636 -0.1316,0.0942 -0.20476,0.0875 -0.04623,-0.10471 -0.045,-0.39803 -0.04772,-0.50749 z"
         style="fill:#f2f2f2;fill-opacity:1;stroke:none;stroke-width:0.08283462px;stroke-linecap:butt;stroke-linejoin:miter;stroke-opacity:1" />
      <path
         sodipodi:nodetypes="cccc"
         inkscape:connector-curvature="0"
         id="path4703-5-4"
         d="m 97.485555,141.18169 c 0.01451,-0.22488 0.05938,-0.44695 0.193641,-0.48417 -0.121931,-0.0923 -0.178375,-0.0448 -0.24027,-0.0139 -0.02014,0.0201 -0.01033,0.36081 0.04663,0.49807 z"
         style="fill:#f2f2f2;fill-opacity:1;stroke:none;stroke-width:0.08283462px;stroke-linecap:butt;stroke-linejoin:miter;stroke-opacity:1" />
      <path
         sodipodi:nodetypes="ccccc"
         inkscape:connector-curvature="0"
         id="path4703-6-2"
         d="m 97.772738,141.18523 c 0.02687,-0.26824 0.09599,-0.43995 0.219276,-0.46989 -0.05126,-0.11081 -0.169968,-0.0486 -0.237587,-0.0187 -0.05679,0.22303 -0.0016,0.33832 0.01833,0.48855 z"
         style="fill:#f2f2f2;fill-opacity:1;stroke:none;stroke-width:0.08283462px;stroke-linecap:butt;stroke-linejoin:miter;stroke-opacity:1" />
      <path
         sodipodi:nodetypes="ccccc"
         inkscape:connector-curvature="0"
         id="path4703-55-2"
         d="m 98.042241,141.20495 c 0.02859,-0.22763 0.120117,-0.43393 0.250103,-0.45337 -0.123801,-0.0972 -0.175129,-0.0763 -0.242937,-0.0316 -0.07454,0.16523 -0.04184,0.44113 -0.0072,0.48499 z"
         style="fill:#f2f2f2;fill-opacity:1;stroke:none;stroke-width:0.08283462px;stroke-linecap:butt;stroke-linejoin:miter;stroke-opacity:1" />
      <path
         sodipodi:nodetypes="cccc"
         inkscape:connector-curvature="0"
         id="path4703-2-5"
         d="m 98.338038,141.27209 c 0.05384,-0.21151 0.107222,-0.4755 0.249059,-0.45515 -0.07986,-0.10885 -0.19678,-0.0659 -0.224394,-0.0505 -0.0496,0.0679 -0.06648,0.37008 -0.02466,0.50563 z"
         style="fill:#f2f2f2;fill-opacity:1;stroke:none;stroke-width:0.08283462px;stroke-linecap:butt;stroke-linejoin:miter;stroke-opacity:1" />
      <path
         sodipodi:nodetypes="cccc"
         inkscape:connector-curvature="0"
         id="path4703-1-6"
         d="m 98.644017,140.82481 c -0.06486,0.1791 -0.03291,0.20733 -0.003,0.4575 0.05475,-0.27375 0.06703,-0.40449 0.193835,-0.40866 -0.04914,-0.0818 -0.154198,-0.0898 -0.190876,-0.0488 z"
         style="fill:#f2f2f2;fill-opacity:1;stroke:none;stroke-width:0.08283462px;stroke-linecap:butt;stroke-linejoin:miter;stroke-opacity:1" />
      <path
         sodipodi:nodetypes="cccc"
         inkscape:connector-curvature="0"
         id="path4703-8-6"
         d="m 98.919067,140.88608 c -0.06486,0.17909 -0.04167,0.21017 0.01019,0.45157 0.03283,-0.24452 0.05517,-0.39579 0.181965,-0.39996 -0.04634,-0.079 -0.153879,-0.0946 -0.192154,-0.0516 z"
         style="fill:#f2f2f2;fill-opacity:1;stroke:none;stroke-width:0.08283462px;stroke-linecap:butt;stroke-linejoin:miter;stroke-opacity:1" />
      <path
         sodipodi:nodetypes="cccc"
         inkscape:connector-curvature="0"
         id="path4703-8-9-9"
         d="m 99.201368,140.96113 c -0.02765,0.14602 -0.01301,0.15332 0.01986,0.3918 0.04306,-0.21382 0.05475,-0.32279 0.154674,-0.33109 -0.03792,-0.0906 -0.131678,-0.0769 -0.174536,-0.0607 z"
         style="fill:#f2f2f2;fill-opacity:1;stroke:none;stroke-width:0.08283462px;stroke-linecap:butt;stroke-linejoin:miter;stroke-opacity:1" />
      <path
         sodipodi:nodetypes="ccccc"
         inkscape:connector-curvature="0"
         id="path4703-8-7-3"
         d="m 99.552974,141.3693 c -0.012,-0.20399 -1.26e-4,-0.27434 0.08739,-0.27438 -0.113598,-0.1245 -0.132704,-0.062 -0.175072,-0.0562 -0.0072,0.19011 0.01526,0.18171 0.08765,0.33061 z"
         style="fill:#f2f2f2;fill-opacity:1;stroke:none;stroke-width:0.08283462px;stroke-linecap:butt;stroke-linejoin:miter;stroke-opacity:1" />
      <path
         sodipodi:nodetypes="ccccc"
         inkscape:connector-curvature="0"
         id="path4703-8-0-3"
         d="m 99.872066,141.42216 c -0.01136,-0.15332 -0.04914,-0.2402 0.06332,-0.23986 -0.09118,-0.0977 -0.09147,-0.0603 -0.164687,-0.0542 0.0102,0.15194 0.02178,0.12524 0.101366,0.29402 z"
         style="fill:#f2f2f2;fill-opacity:1;stroke:none;stroke-width:0.08283462px;stroke-linecap:butt;stroke-linejoin:miter;stroke-opacity:1" />
    </g>
  </g>
</svg>
