<?xml version="1.0" encoding="UTF-8" standalone="no"?>
<!-- Created with Inkscape (http://www.inkscape.org/) -->

<svg
   xmlns:dc="http://purl.org/dc/elements/1.1/"
   xmlns:cc="http://creativecommons.org/ns#"
   xmlns:rdf="http://www.w3.org/1999/02/22-rdf-syntax-ns#"
   xmlns:svg="http://www.w3.org/2000/svg"
   xmlns="http://www.w3.org/2000/svg"
   xmlns:sodipodi="http://sodipodi.sourceforge.net/DTD/sodipodi-0.dtd"
   xmlns:inkscape="http://www.inkscape.org/namespaces/inkscape"
   width="156.32291mm"
   height="298.10211mm"
   viewBox="0 0 156.32291 298.10211"
   version="1.1"
   id="svg8"
   inkscape:version="0.92.2 5c3e80d, 2017-08-06"
   sodipodi:docname="wall lizard.svg">
  <defs
     id="defs2" />
  <sodipodi:namedview
     id="base"
     pagecolor="#ffffff"
     bordercolor="#666666"
     borderopacity="1.0"
     inkscape:pageopacity="0.0"
     inkscape:pageshadow="2"
     inkscape:zoom="0.47273955"
     inkscape:cx="559.60996"
     inkscape:cy="713.91223"
     inkscape:document-units="mm"
     inkscape:current-layer="layer1"
     showgrid="false"
     inkscape:window-width="1920"
     inkscape:window-height="1052"
     inkscape:window-x="0"
     inkscape:window-y="0"
     inkscape:window-maximized="1"
     fit-margin-top="0"
     fit-margin-left="0"
     fit-margin-right="0"
     fit-margin-bottom="0" />
  <metadata
     id="metadata5">
    <rdf:RDF>
      <cc:Work
         rdf:about="">
        <dc:format>image/svg+xml</dc:format>
        <dc:type
           rdf:resource="http://purl.org/dc/dcmitype/StillImage" />
        <dc:title></dc:title>
      </cc:Work>
    </rdf:RDF>
  </metadata>
  <g
     inkscape:label="Layer 1"
     inkscape:groupmode="layer"
     id="layer1"
     transform="translate(-17.413187,-19.576066)">
    <path
       style="fill:#9a8674;fill-opacity:1;stroke:none;stroke-width:0.26458332px;stroke-linecap:butt;stroke-linejoin:miter;stroke-opacity:1"
       d="m 26.911286,302.54056 c 0,0 3.282017,-1.12501 4.407311,-2.35259 1.965178,-2.1438 4.564317,-4.84944 5.288668,-5.26569 0.724351,-0.41625 0.723391,-0.25858 0.989386,-0.19788 0.265995,0.0607 0.486724,0.51297 0.507058,1.73144 0.02033,1.21847 -2.260602,9.03859 -3.1784,13.60405 -0.507572,2.52485 -1.2862,7.61828 -1.2862,7.61828 2.582585,-3.06236 1.966489,-3.97279 2.770277,-6.03526 1.711785,-4.39234 3.347114,-13.49305 4.353298,-13.45565 1.006184,0.0374 2.648019,8.0504 4.452234,11.87263 0.42257,0.89522 1.218657,1.61872 1.484079,2.57241 0.451054,1.62068 0.09894,5.04587 0.09894,5.04587 0,0 2.130907,-2.81539 2.077709,-4.45225 -0.03788,-1.16539 -1.208741,-2.00145 -1.681956,-3.06711 -1.020121,-2.29728 -2.055396,-4.64498 -2.473463,-7.12356 -0.20844,-1.23577 -1.000924,-3.31041 0,-3.75967 1.000924,-0.44926 2.262736,2.69671 3.713711,3.64872 0.817042,0.53607 1.894545,0.57306 2.717294,1.10033 1.296443,0.83085 3.36391,3.16604 3.36391,3.16604 0,0 -0.730949,-3.13139 -1.780892,-4.25437 -0.705094,-0.75414 -1.950136,-0.75802 -2.77028,-1.38512 -0.983412,-0.75194 -1.802955,-1.87021 -2.473465,-2.7703 -0.67051,-0.90009 -1.796901,-1.80709 -1.583016,-2.57238 0.213885,-0.76529 3.462849,-0.79153 3.462849,-0.79153 l 4.05648,0.98938 -3.067095,-2.47345 c 0,0 -2.725176,0.12793 -3.660725,-0.39574 -0.935549,-0.52367 -1.256884,-0.10968 -1.681956,-2.17667 -0.425072,-2.06699 1.849961,-6.35285 2.473463,-9.59702 0.489482,-2.54685 -0.622307,-5.68535 0.989385,-7.71721 1.465641,-1.84774 4.312533,-2.02989 6.628884,-2.47346 4.568161,-0.87478 10.230373,2.49516 13.950336,-0.29683 5.280688,-3.96338 2.940436,-13.01349 5.936314,-18.89726 1.005615,-1.97498 2.613189,-3.58071 3.957542,-5.34268 1.068532,-1.40046 1.508633,-4.02 3.264971,-4.15542 2.024043,-0.15606 2.749281,3.05041 4.452237,4.15542 1.562069,1.01359 3.731054,0.96474 5.144804,2.17665 1.619025,1.38788 2.691395,3.41796 3.36391,5.44162 0.354997,1.06822 0.296815,3.36391 0.296815,3.36391 l 0.494694,2.37452 c 0,0 1.048972,-2.92496 1.088324,-4.45223 0.03632,-1.40958 -2.062642,-3.54514 -0.791509,-4.15542 1.392515,-0.66856 3.822898,3.23523 5.738438,4.84799 1.08512,0.9136 2.29522,1.69541 3.26,2.7353 0.88394,0.95276 2.27558,3.16603 2.27558,3.16603 0,0 -0.6648,-2.89067 -1.42115,-4.13741 -1.52956,-2.52126 -6.950164,-4.83941 -6.0932,-6.41403 0.85696,-1.57462 6.81847,2.70789 10.09173,4.35329 2.82522,1.42018 8.2119,4.74905 8.2119,4.74905 0,0 -8.10994,-5.90579 -11.97157,-9.10234 -1.70894,-1.41461 -5.54664,-3.2517 -4.94693,-4.45224 0.59971,-1.20054 9.14841,1.25426 13.75246,1.2862 2.9113,0.0202 8.7066,-0.69257 8.7066,-0.69257 0,0 -19.2296,-2.78136 -21.0319,-3.25297 -1.8023,-0.47161 -3.467792,-0.31696 -3.586827,-1.624 -0.124344,-1.36533 4.392997,-2.70313 6.642777,-3.96251 1.26918,-0.71046 3.86477,-2.02575 3.86477,-2.02575 0,0 -4.72063,0.60652 -11.810722,3.64272 -0.951963,0.40766 -2.059791,0.73502 -3.067095,0.49469 -5.075499,-1.21095 -7.305818,-6.40155 -12.664136,-9.20128 -1.08151,-0.56509 -2.521483,-0.43717 -3.660727,0 -1.242724,0.47688 -2.104213,1.65872 -2.968157,2.67133 -2.677744,3.13852 -4.100752,7.20749 -6.727819,10.38855 -5.792538,7.01406 -11.670055,14.60185 -19.688773,18.89727 -2.412214,1.29216 -5.934117,0.003 -8.014023,1.78089 -2.397219,2.04963 -2.772632,5.728 -3.462848,8.80554 -0.976485,4.35396 -0.428282,10.41383 -0.890447,13.3567 -0.462165,2.94287 0.291018,1.71163 -1.088324,4.35329 -0.801037,1.53411 -4.086569,4.34454 -6.022256,6.6117 -0.964493,1.12965 -2.783277,3.48004 -2.783277,3.48004 z"
       id="path847"
       inkscape:connector-curvature="0"
       sodipodi:nodetypes="cszzzacazaacaaazaacaazzccczzaaaaaaaaaaccasaacazacazaczsacsasaaaaaazsac" />
    <path
       style="fill:#9a8674;fill-opacity:1;stroke:none;stroke-width:0.26458332px;stroke-linecap:butt;stroke-linejoin:miter;stroke-opacity:1"
       d="m 76.677379,190.54211 c 1.749606,1.55759 2.258498,4.23696 4.05648,5.73844 2.876525,2.40217 6.982783,2.81146 10.190671,4.74905 2.376998,1.43573 3.9143,4.46065 6.628881,5.04587 2.877939,0.62044 5.672699,-1.74748 8.607659,-1.97877 6.22854,-0.49084 12.4621,1.64954 18.69938,1.2862 6.7996,-0.3961 19.69636,-4.36982 20.08453,-3.75967 0.38817,0.61015 -17.89287,4.98243 -18.10576,5.73844 -0.21289,0.75601 7.60377,4.86143 11.87263,6.13419 6.07455,1.81112 12.00742,2.50681 17.80894,4.45223 5.91228,1.98256 17.21531,7.32146 17.21531,7.32146 0,0 -12.39661,-4.13063 -18.69939,-5.83738 -4.96524,-1.34455 -9.89498,-3.39969 -15.03866,-3.46285 -1.48103,-0.0182 -4.1665,-0.11692 -4.3533,0.89045 -0.1868,1.00737 8.38244,5.25195 12.16945,8.40978 3.15222,2.6285 8.70659,8.70659 8.70659,8.70659 0,0 -17.74851,-13.97873 -18.82306,-13.03516 -1.07455,0.94357 7.6912,6.09935 7.44513,6.60415 -0.0387,0.0793 -13.05989,-7.71721 -13.05989,-7.71721 0,0 2.99139,3.80471 2.67134,4.3533 -0.26591,0.45578 -8.23903,-8.74669 -13.75246,-10.28961 -7.24315,-2.02698 -14.98433,3.01355 -22.459053,2.17665 -9.700986,-1.08616 -19.126577,-4.72573 -27.801731,-9.20128 -7.233853,-3.73198 -19.688773,-14.44503 -19.688773,-14.44503 0,0 -0.578624,-1.79326 -1.088324,-2.5724 -3.780253,-5.7786 -10.943845,-8.97478 -14.247151,-15.03866 -0.665804,-1.22222 -1.280753,-2.69553 -0.989385,-4.05649 0.236158,-1.10308 1.178519,-1.99016 2.077709,-2.67134 1.532844,-1.1612 4.209205,-0.62318 5.342681,-2.17664 0.253455,-0.34737 0.36528,-0.94862 0.09894,-1.28621 -1.427277,-1.80908 -4.547502,-1.42726 -6.82676,-1.08832 -1.415156,0.21044 -3.858602,1.87983 -3.858602,1.87983 0,0 2.623078,-2.69086 4.353296,-3.16603 1.373392,-0.37717 4.254357,0.39575 4.254357,0.39575 0,0 -2.11978,-1.66779 -3.264972,-2.37452 -2.811731,-1.7352 -5.681041,-3.4768 -8.805531,-4.55118 -1.523074,-0.52372 -4.749051,-0.89044 -4.749051,-0.89044 0,0 3.448637,-0.56849 5.144804,-0.29682 2.310011,0.36999 6.529945,2.5724 6.529945,2.5724 0,0 -0.62037,-1.20555 -1.088323,-1.68195 -1.53194,-1.55958 -3.639137,-2.42373 -5.441622,-3.66073 -2.987288,-2.05011 -6.180095,-3.8447 -8.904469,-6.23313 -0.80739,-0.70783 -2.176648,-2.37452 -2.176648,-2.37452 0,0 10.061488,5.74356 15.038659,8.70659 2.225931,1.32515 6.628884,4.05648 6.628884,4.05648 0,0 -0.298478,-4.32819 -0.791509,-6.43101 -1.836863,-9.5834 -10.829443,-26.63917 -9.4981,-26.91128 1.331343,-0.27211 8.452759,17.98492 11.674748,27.2081 0.869364,2.48862 3.43168,4.03282 5.441621,5.73844 1.883088,1.59797 5.056153,6.37744 6.13419,4.15542 2.495269,-5.14318 5.540558,-16.02805 5.540558,-16.02805 0.541935,-0.0951 -1.958131,10.98859 -2.869216,16.91849 -0.360632,2.34721 2.140085,4.84942 1.187262,7.02464 -1.255945,2.86723 -7.809851,2.70564 -7.867072,5.12783 -0.05722,2.42219 9.252526,4.7302 13.209753,8.031 0.914888,0.76313 2.374527,2.67134 2.374527,2.67134 0,0 9.356148,3.82632 13.059887,7.12357 z"
       id="path849"
       inkscape:connector-curvature="0"
       sodipodi:nodetypes="aaaaaazzsacaazaczscsaaacaaaaaaacacaacacaaacacczsasssazaca" />
    <path
       style="fill:#9a8674;fill-opacity:1;stroke:none;stroke-width:0.99999994px;stroke-linecap:butt;stroke-linejoin:miter;stroke-opacity:1"
       d="m 423.93945,1020.0293 c 0.0366,0.4504 0.11274,1.5197 0.42969,3.9785 0.37407,2.9018 0.99013,6.9115 1.95313,11.3457 0.48149,2.2171 1.04973,4.5394 1.71875,6.8828 0.66902,2.3435 1.43886,4.7073 2.32226,7.0059 0.8834,2.2986 1.87927,4.5326 3.00391,6.6152 1.12463,2.0826 2.3768,4.0136 3.76953,5.709 1.44221,1.7556 2.99831,3.4144 4.61523,4.9727 1.61693,1.5582 3.29416,3.0165 4.98438,4.3711 3.38044,2.7091 6.80604,5.0046 9.87109,6.8613 3.06505,1.8566 5.77075,3.2749 7.70899,4.2285 1.83596,0.9033 2.82923,1.3183 2.94531,1.3672 -3.54374,-15.1508 -4.02984,-31.6869 -13.29688,-43.8633 -6.24143,-8.2009 -17.80605,-10.44 -26.17578,-16.4531 -1.32504,-0.952 -2.55579,-2.0285 -3.84961,-3.0215 z"
       id="path894"
       transform="scale(0.26458333)"
       inkscape:connector-curvature="0" />
    <path
       style="fill:#a69585;fill-opacity:1;stroke:none;stroke-width:0.99999994px;stroke-linecap:butt;stroke-linejoin:miter;stroke-opacity:1"
       d="m 505.56836,73.988281 c 0,0 -38.08751,20.231938 -52.72656,46.744139 -15.7115,28.45446 -25.1942,61.66636 -9.34766,93.85938 21.46159,43.60025 53.28123,69.17378 84.50977,99.46679 30.39942,29.48874 54.68877,57.22147 67.31054,93.48633 8.94131,25.69009 11.21638,55.36603 3.73828,81.51953 -6.40637,22.40542 -22.08085,42.26158 -39.63671,57.58594 -22.92964,20.01506 -53.61264,28.98477 -81.51954,41.13281 -27.04743,11.77391 -55.55656,19.88493 -83.01562,30.66407 -37.45008,14.70111 -111.43359,46.36914 -111.43359,46.36914 0,0 -32.34434,16.70009 -47.86524,26.17578 -15.16682,9.2595 -29.48475,19.8426 -44.125,29.91406 -18.66005,12.83679 -41.30745,21.41632 -55.7168,38.89063 -15.44323,18.72808 -25.39392,42.64519 -29.54101,66.5625 -4.01458,23.15304 -2.19443,48.00742 5.23437,70.30078 8.04535,24.14354 24.86381,44.74869 41.13477,64.3164 10.26174,12.34092 22.5072,23.02126 35.15039,32.90821 16.61345,12.99163 34.14661,25.15173 53.09961,34.40233 6.16397,3.0085 14.26069,2.2399 19.44531,6.7305 3.28689,2.8469 3.18217,8.2651 5.98242,11.5918 21.94601,26.0718 52.56976,43.7213 81.51953,61.7011 18.46811,11.47 38.23095,20.8896 58.33399,29.1661 16.98523,6.9928 33.98321,17.1514 52.35156,17.2011 8.12024,0.023 17.32732,-1.8554 23.18555,-7.4785 3.64169,-3.4955 5.34311,-9.1623 5.23437,-14.209 -0.32012,-14.8583 -12.1922,-27.1406 -17.20117,-41.1328 -0.98321,-2.7465 -1.7326,-5.6018 -2.4082,-8.4902 -0.11608,-0.049 -1.10935,-0.4639 -2.94531,-1.3672 -1.93824,-0.9536 -4.64394,-2.3719 -7.70899,-4.2285 -3.06505,-1.8567 -6.49065,-4.1522 -9.87109,-6.8613 -1.69022,-1.3546 -3.36745,-2.8129 -4.98438,-4.3711 -1.61692,-1.5583 -3.17302,-3.2171 -4.61523,-4.9727 -1.39273,-1.6954 -2.6449,-3.6264 -3.76953,-5.709 -1.12464,-2.0826 -2.12051,-4.3166 -3.00391,-6.6152 -0.8834,-2.2986 -1.65324,-4.6624 -2.32226,-7.0059 -0.66902,-2.3434 -1.23726,-4.6657 -1.71875,-6.8828 -0.963,-4.4342 -1.57906,-8.4439 -1.95313,-11.3457 -0.31695,-2.4588 -0.39307,-3.5281 -0.42969,-3.9785 -14.02042,-10.7609 -26.46257,-23.59637 -41.02343,-33.625 -11.12848,-7.66462 -22.99557,-14.28805 -35.1504,-20.19141 -18.00988,-8.74704 -38.36292,-12.45199 -55.71679,-22.4375 -22.86461,-13.15638 -49.05248,-25.88669 -62.44922,-48.61133 -5.7031,-9.67404 -7.14552,-22.21506 -5.23438,-33.28125 5.23972,-30.3397 26.94694,-55.5933 44.125,-81.14453 13.8378,-20.58278 28.58224,-41.10567 47.11524,-57.58789 21.44514,-19.07214 47.31132,-32.69776 72.54492,-46.36914 54.83841,-29.71102 120.2169,-40.15527 170.51758,-77.03125 20.50348,-15.03133 38.84689,-34.42968 50.85547,-56.83789 12.65234,-23.60954 20.6859,-50.99971 20.19336,-77.78125 -0.65556,-35.64389 -12.11445,-72.01512 -30.66407,-102.45898 -26.91239,-44.16899 -73.44303,-68.63965 -111.70507,-107.69532 -20.82883,-21.26082 -41.82414,-48.08513 -43.85352,-77.77929 -1.75499,-25.67903 13.9209,-50.53023 28.41992,-71.79688 8.64416,-12.678935 33.6543,-31.412109 33.6543,-31.412109 z"
       id="path826"
       transform="scale(0.26458333)"
       inkscape:connector-curvature="0" />
    <ellipse
       style="opacity:1;fill:#eaeaea;fill-opacity:1;stroke:none;stroke-width:0.80000001;stroke-linecap:butt;stroke-linejoin:round;stroke-miterlimit:4;stroke-dasharray:none;stroke-opacity:1"
       id="path855"
       cx="221.56325"
       cy="219.57204"
       rx="4.0688481"
       ry="3.0299931"
       transform="rotate(25.774031)" />
    <ellipse
       style="opacity:1;fill:#3b3b3b;fill-opacity:1;stroke:none;stroke-width:0.44973484;stroke-linecap:butt;stroke-linejoin:round;stroke-miterlimit:4;stroke-dasharray:none;stroke-opacity:1"
       id="path855-6"
       cx="221.17203"
       cy="219.67801"
       rx="2.2873783"
       ry="1.7033668"
       transform="rotate(25.774032)" />
    <ellipse
       style="opacity:1;fill:#eaeaea;fill-opacity:1;stroke:none;stroke-width:0.11133085;stroke-linecap:butt;stroke-linejoin:round;stroke-miterlimit:4;stroke-dasharray:none;stroke-opacity:1"
       id="path855-6-7"
       cx="408.53647"
       cy="254.13684"
       rx="0.72524744"
       ry="0.3292138"
       transform="matrix(0.84693726,0.53169285,-0.95422784,0.29908065,0,0)" />
    <path
       style="fill:#9a8674;fill-opacity:1;stroke:none;stroke-width:0.26458332px;stroke-linecap:butt;stroke-linejoin:miter;stroke-opacity:1"
       d="m 96.415618,286.80934 c 3.730272,-3.21535 6.526592,-6.3231 12.960952,-3.16604 5.67991,2.78688 7.0741,13.90087 7.0741,13.90087 0,0 -4.52135,1.21708 -6.59655,0.47321 -2.19835,-0.78802 -3.30107,-3.31141 -5.07819,-4.82651 -2.66787,-2.27452 -4.82372,0.46344 -8.360312,-6.38153 z"
       id="path851"
       inkscape:connector-curvature="0"
       sodipodi:nodetypes="cscaac" />
  </g>
</svg>
