<?xml version="1.0" encoding="UTF-8" standalone="no"?>
<!-- Created with Inkscape (http://www.inkscape.org/) -->

<svg
   xmlns:dc="http://purl.org/dc/elements/1.1/"
   xmlns:cc="http://creativecommons.org/ns#"
   xmlns:rdf="http://www.w3.org/1999/02/22-rdf-syntax-ns#"
   xmlns:svg="http://www.w3.org/2000/svg"
   xmlns="http://www.w3.org/2000/svg"
   xmlns:sodipodi="http://sodipodi.sourceforge.net/DTD/sodipodi-0.dtd"
   xmlns:inkscape="http://www.inkscape.org/namespaces/inkscape"
   width="174.89699mm"
   height="55.692009mm"
   viewBox="0 0 174.89699 55.692009"
   version="1.1"
   id="svg8"
   inkscape:version="0.92.1 r"
   sodipodi:docname="whiteshark.svg"
   inkscape:export-filename="/run/media/pdimens/OS/Users/pdime/Documents/MEGA/Graphics/whiteshark.png"
   inkscape:export-xdpi="200"
   inkscape:export-ydpi="200">
  <defs
     id="defs2" />
  <sodipodi:namedview
     id="base"
     pagecolor="#ffffff"
     bordercolor="#666666"
     borderopacity="1.0"
     inkscape:pageopacity="0.0"
     inkscape:pageshadow="2"
     inkscape:zoom="1.5892817"
     inkscape:cx="282.43822"
     inkscape:cy="50.926994"
     inkscape:document-units="mm"
     inkscape:current-layer="layer1"
     showgrid="false"
     inkscape:window-width="1920"
     inkscape:window-height="1016"
     inkscape:window-x="0"
     inkscape:window-y="30"
     inkscape:window-maximized="1"
     fit-margin-top="0"
     fit-margin-left="0"
     fit-margin-right="0"
     fit-margin-bottom="0" />
  <metadata
     id="metadata5">
    <rdf:RDF>
      <cc:Work
         rdf:about="">
        <dc:format>image/svg+xml</dc:format>
        <dc:type
           rdf:resource="http://purl.org/dc/dcmitype/StillImage" />
        <dc:title></dc:title>
      </cc:Work>
    </rdf:RDF>
  </metadata>
  <path
     style="display:inline;fill:#feffff;fill-opacity:1;stroke:#000000;stroke-width:0;stroke-linecap:butt;stroke-linejoin:miter;stroke-miterlimit:4;stroke-dasharray:none;stroke-opacity:1"
     d="m 13.677598,36.397941 1.748036,0.769969 c 0,0 -0.249719,-1.872898 -0.166478,-1.976948 0.08324,-0.10405 1.269407,1.602367 1.269407,1.602367 v -2.185046 l 0.85321,1.539936 0.353769,-2.143426 0.978069,1.623179 0.145669,-2.060189 0.998881,1.415079 0.35377,-1.852089 0.728347,0.97807 0.457819,-1.06131 h 1.123741 l 1.510583,0.793485 -1.905971,0.767265 -0.686729,-0.95726 -0.249719,1.456698 -0.707541,-1.082119 -0.395388,1.60237 -0.85321,-1.06131 -0.2081,1.914519 -1.102929,-1.68561 -0.18729,2.330717 -0.97807,-1.768848 0.06243,2.12262 -1.248597,-1.6648 0.08324,1.872898 c 0,0 -1.560748,-0.998879 -1.519127,-0.915639 0.04162,0.08324 0.811588,1.37346 0.811588,1.37346 l 7.658071,-2.726108 0.894829,-2.455576 -1.498317,-1.29022 c 0,0 -3.808227,1.581558 -3.912275,1.623179 -0.10405,0.04162 -4.411715,2.642868 -4.411715,2.642868 z"
     id="path8132"
     inkscape:connector-curvature="0"
     sodipodi:nodetypes="cccccccccccccccccccccccccccccccccccc" />
  <path
     style="fill:#dddddd;fill-opacity:1;stroke:#000000;stroke-width:0;stroke-linecap:butt;stroke-linejoin:miter;stroke-miterlimit:4;stroke-dasharray:none;stroke-opacity:1"
     d="m 97.271159,42.389422 c 0.23454,0.562238 1.24819,0.603051 1.83142,0.974624 1.046641,0.66681 1.979001,1.35122 2.974041,2.239613 0.71159,0.635318 1.67817,1.77577 2.25677,1.625713 0.3671,-0.09521 0.33179,-0.67477 0.5116,-1.104503 0.24796,-0.592629 0.32203,-0.943693 0.54845,-1.385936 0.26842,-0.524272 0.55882,-1.05027 0.95288,-1.488028 0.37679,-0.418576 0.96181,-0.620203 1.31951,-1.055205 0.27992,-0.340418 0.75824,-0.757395 0.6107,-1.17269 -0.29427,-0.828273 -1.55849,-0.884563 -2.42059,-1.046135 -1.07857,-0.159577 -2.17904,-0.236791 -3.26691,-0.149704 -1.47121,0.205688 -2.978161,0.466019 -4.302301,1.17326 -0.50721,0.289167 -1.05842,0.744326 -1.01557,1.388991 z"
     id="path8021"
     inkscape:connector-curvature="0"
     sodipodi:nodetypes="casssaaaacccc" />
  <g
     inkscape:label="Layer 1"
     inkscape:groupmode="layer"
     id="layer1"
     transform="translate(-15.768521,-21.703516)">
    <g
       id="g8039">
      <path
         inkscape:connector-curvature="0"
         id="path8006"
         d="m 65.039752,66.06473 c 1.005701,2.355751 1.969018,4.747397 3.296132,6.945423 0.929797,1.461724 2.007933,2.891555 3.462382,3.865686 0.798304,0.472021 1.763611,0.434016 2.659007,0.460486 0.26676,-0.721639 0.115776,-1.525803 0.151974,-2.281107 0.01348,-1.151599 0.03991,-2.308011 0.163669,-3.45362 0.208574,-1.396794 1.099484,-2.727891 2.378306,-3.352527 0.742436,-0.263785 1.503189,-0.513788 2.117736,-1.029837 0.395048,-0.255093 0.828528,-0.53921 0.14188,-0.472283 -4.731502,-0.247027 -9.463005,-0.494053 -14.194507,-0.74108 -0.05886,0.01962 -0.117719,0.03924 -0.176579,0.05886 z"
         style="fill:#dddddd;fill-opacity:1;stroke:#e8ba00;stroke-width:0;stroke-linecap:butt;stroke-linejoin:miter;stroke-miterlimit:4;stroke-dasharray:none;stroke-opacity:1" />
      <path
         sodipodi:nodetypes="cccccsscsscccsc"
         inkscape:connector-curvature="0"
         id="path8008"
         d="m 79.268958,67.219234 c -1.234306,0.243523 -2.426329,0.540553 -3.45342,1.311067 -0.866673,0.624944 -1.536427,1.558609 -1.711423,2.625777 -0.165476,0.763749 -0.166665,1.548121 -0.161864,2.324949 -0.04083,0.65469 -0.02902,1.723294 -0.610289,2.129038 -0.443335,0.163833 -0.928127,0.369915 -1.31734,0.67256 -0.190346,0.148009 -0.413403,0.33982 -0.434267,0.408435 -0.0221,0.07267 0.119455,0.09594 0.388165,0.271603 0.704485,0.378311 2.134142,0.49505 2.445697,0.402937 0.173094,-0.05118 0.267426,-0.350147 0.259513,-0.952549 -0.01619,-1.23244 -0.11369,-2.330706 -0.0026,-3.4922 0.05345,-0.822012 0.07111,-1.672398 0.442746,-2.428017 0.341126,-0.850966 0.979081,-1.572495 1.800012,-1.987008 0.598956,-0.296274 1.379905,-0.651025 1.87546,-0.930922 0.258211,-0.145842 0.412408,-0.286522 0.47961,-0.35567 z"
         style="fill:#585858;fill-opacity:1;stroke:#000000;stroke-width:0;stroke-linecap:butt;stroke-linejoin:miter;stroke-miterlimit:4;stroke-dasharray:none;stroke-opacity:1" />
      <path
         style="fill:#a6aaaf;fill-opacity:1;stroke:#d42e2e;stroke-width:0;stroke-linecap:butt;stroke-linejoin:miter;stroke-miterlimit:4;stroke-dasharray:none;stroke-opacity:1"
         d="m 84.488508,37.790919 c 1.429175,-0.840286 2.307913,-2.307619 3.308614,-3.582599 1.548415,-2.274873 2.731678,-4.836355 4.77061,-6.742088 2.143535,-2.149565 4.547356,-4.217924 7.471098,-5.193469 0.88571,-0.272565 1.6207,-0.636897 3.14787,-0.558406 -0.61647,1.262621 -0.66474,1.825963 -0.83358,2.777845 -0.26346,1.485302 -0.23897,3.014143 -0.26943,4.517433 0.11941,1.951632 0.0546,3.920988 0.34511,5.858021 0.27578,1.543948 1.29517,2.887045 2.40673,3.959356 0.9389,0.905745 1.77062,1.313839 3.41523,1.911385 -5.2817,-1.484434 -12.248989,-2.435233 -17.695229,-1.196939 -1.253233,0.530477 -2.579811,0.501494 -3.855736,0.05515 -0.875142,-0.245472 -2.602658,-0.44397 -2.953409,-0.696265 0.324426,-0.313119 0.501041,-0.736342 0.742122,-1.109424 z"
         id="path8017"
         inkscape:connector-curvature="0"
         sodipodi:nodetypes="cccccaccacccccc" />
    </g>
    <path
       style="opacity:1;fill:#a6aaaf;fill-opacity:1;stroke:#4ca33b;stroke-width:0;stroke-linecap:butt;stroke-linejoin:miter;stroke-miterlimit:4;stroke-dasharray:none;stroke-opacity:1"
       d="m 15.768903,52.916105 c 0.04294,-1.166338 1.60381,-1.740238 2.605877,-2.33861 3.357829,-2.005088 7.30254,-2.820415 11.040545,-3.97051 3.467756,-1.066945 7.019787,-1.838616 10.54147,-2.711229 3.355914,-0.831538 6.696253,-1.742087 10.089422,-2.405425 5.771729,-1.128328 11.589814,-2.065205 17.439338,-2.672694 6.056977,-0.629033 12.167851,-0.55756 18.241145,-1.002263 3.167435,-0.231928 6.314555,-0.992146 9.488067,-0.868624 1.851366,0.07206 3.689896,0.454011 5.479023,0.935442 2.34105,0.629946 4.48284,1.878281 6.81537,2.539061 6.61912,1.875121 13.47469,2.791383 20.24567,4.009042 4.52998,0.814648 10.42726,2.695489 13.63075,2.204973 1.2374,-0.306014 2.40082,-1.166085 3.20723,-1.804067 1.18117,0.208389 0.72017,2.735307 1.87089,3.073599 5.26554,1.54799 9.85726,1.377008 14.9671,2.271792 0.45174,0.0791 0.7441,0.671881 1.2027,0.668172 0.66852,-0.0054 1.37212,-0.466216 1.73726,-1.002259 2.65438,-3.896849 4.59464,-8.1503 8.41898,-13.497111 1.57125,-2.196765 3.08155,-3.986698 4.81086,-5.813113 1.64715,-1.739641 3.3132,-3.507722 5.27857,-4.877669 2.33745,-1.443328 6.49632,-3.526703 7.78634,-2.33475 -0.78624,0.685834 -1.61015,1.616769 -2.20135,2.460278 -0.62482,0.891461 -1.43477,1.842765 -1.57594,2.948072 -0.0842,0.659097 0.73087,1.528676 0.46772,1.937703 -0.37918,0.589385 -1.33629,-0.155452 -2.13816,0.53454 -1.80605,1.554071 -1.85549,4.476317 -2.60993,6.776231 -0.33522,1.021911 -0.53146,2.085216 -0.84906,3.11274 -0.66817,2.161736 -1.50102,4.269262 -2.22049,6.414468 -0.57335,1.709521 -1.46407,3.35368 -1.67043,5.14494 -0.15093,1.31012 0.0915,2.645944 0.33409,3.942225 0.39282,2.099045 1.02416,4.15922 1.80406,6.1472 0.78853,2.009989 1.76876,3.951613 2.88867,5.797594 0.67275,1.108915 1.41105,2.044175 2.2873,3.147829 0.44748,0.56361 1.43341,1.900022 0.91993,1.886403 -1.33269,-0.03535 -2.27558,-0.258887 -3.4232,-0.675584 -1.47974,-0.537291 -2.8053,-1.369057 -4.11095,-2.217135 -1.56579,-1.017053 -3.07462,-2.142825 -4.43357,-3.423203 -1.36249,-1.283719 -2.74756,-2.61595 -3.69047,-4.233118 -1.08967,-1.868872 -0.81895,-4.431941 -2.15656,-6.121265 -2.63695,-3.613988 -7.57034,-3.558079 -11.33314,-1.310981 l -9.37875,-0.73847 -26.00595,2.565075 c 0.94917,2.926979 2.43319,2.34292 4.20776,2.738546 1.0402,0.231903 6.64034,-0.04856 6.64034,-0.04856 0,0 -0.88514,1.273437 -0.99975,2.153421 -0.0582,0.777252 0.65804,2.243776 0.65804,2.243776 l -7.78774,-1.344135 c -1.09528,-0.863561 -3.74126,-0.975108 -4.97814,-1.866988 -1.23139,-0.887921 -1.07513,-2.497193 -2.4424,-3.41229 l -18.779526,1.852303 c 0,0 -25.256968,0.668174 -24.856064,0.467723 0.400905,-0.200451 -24.187893,-1.536801 -23.853806,-1.737252 0.21105,-0.12663 -4.90362,-3.809528 -11.389895,-4.404728 -3.781354,-0.346989 -10.515608,2.298184 -10.392571,2.199754 0.334087,-0.267269 -10.156241,-1.603618 -10.156241,-1.603618 0,0 -1.699993,-0.93444 -1.670434,-1.737249 z"
       id="path7993"
       inkscape:connector-curvature="0"
       sodipodi:nodetypes="caaaaaaaaaaccssassaccsassaaaaaaasssaaaccccsccccsccscsccac" />
    <path
       style="fill:#a6aaaf;fill-opacity:1;stroke:#000000;stroke-width:0;stroke-linecap:butt;stroke-linejoin:miter;stroke-miterlimit:4;stroke-dasharray:none;stroke-opacity:1"
       d="m 29.446119,58.101457 0.486927,0.214193 1.107302,-0.787603 c 0,0 -0.04274,-0.595982 -0.01267,-0.633569 0.02684,-0.03355 0.168316,0.121094 0.347725,0.346064 l 0.921682,-0.54183 v -0.386913 l 0.175655,0.317035 0.947919,-0.415189 0.0834,-0.505336 0.235914,0.391516 0.848518,-0.272626 0.03931,-0.5559 0.32455,0.459779 0.901761,-0.23536 0.12634,-0.661429 0.389016,0.522395 0.62263,-0.201064 0.17452,-0.404571 h 1.123741 l 1.201571,0.793485 -1.596959,0.767265 -0.408331,-0.567629 -0.40051,0.322691 -0.127607,0.744376 -0.297403,-0.46329 -0.6709,0.418587 -0.134622,0.564954 -0.24886,-0.310185 -0.725593,0.41582 -0.08685,0.747574 -0.357156,-0.552506 -0.866618,0.376049 -0.147379,0.622913 -0.276301,-0.445685 -0.576712,0.276418 0.01834,0.72169 c -0.05834,-0.07815 -0.389826,-0.513396 -0.435772,-0.571561 l -0.753449,0.283449 c 0.0064,0.05529 0.0083,0.374512 0.02387,0.49621 0,0 -0.329759,-0.220905 -0.475995,-0.313606 l -0.502772,0.310379 c 0.135625,0.227955 0.271228,0.461048 0.271228,0.461048 l 7.658071,-2.726108 1.211199,-2.223817 -1.814687,-1.521979 c 0,0 -3.808227,1.581558 -3.912275,1.623179 -0.10405,0.04162 -4.411715,2.642868 -4.411715,2.642868 z"
       id="path8132-6"
       inkscape:connector-curvature="0"
       sodipodi:nodetypes="ccccccccccccccccccccccccccccccccccccccccccccccccc" />
    <path
       style="opacity:1;fill:#eaeaea;fill-opacity:1;stroke:#a0b4e9;stroke-width:0;stroke-linecap:butt;stroke-linejoin:miter;stroke-miterlimit:4;stroke-dasharray:none;stroke-opacity:1"
       d="m 17.439337,54.653356 c 0,0 2.856077,-2.300353 4.535999,-2.212212 0.784205,0.04115 1.226513,1.100773 1.997758,1.248597 0.914013,0.175188 1.316512,-0.649198 2.746917,-0.49944 1.505123,0.15758 1.674322,1.250495 2.663677,1.331838 1.461799,0.120186 1.350057,-2.516523 6.212697,-2.507296 5.861071,0.01112 4.403042,2.41803 5.52413,2.340818 1.323638,-0.09116 2.174917,-2.233425 4.827915,-1.997758 1.035957,0.09202 1.246219,1.882887 2.247477,2.164236 0.73882,0.207606 1.639362,-0.0313 2.247479,-0.499438 0.717851,-0.552609 0.346706,-2.328645 1.248598,-2.413958 0.983639,-0.09304 0.870926,2.0985 1.831279,2.330717 1.810166,0.437705 3.219078,-2.212128 5.077632,-2.330717 0.92835,-0.05923 1.733905,0.803037 2.663679,0.832401 1.284721,0.04057 2.503209,-1.244476 3.745796,-0.915641 1.891996,0.500693 2.741565,2.807009 4.267267,4.032805 1.497494,1.203133 4.767619,3.237275 4.767619,3.237275 0,0 11.092132,1.913889 13.890845,-1.824646 1.20627,-1.611342 2.748556,-2.169676 4.414461,-2.530959 5.06918,-1.099349 5.29124,0.550299 7.592877,0.294299 0.992951,-0.110441 1.688001,-0.709592 2.530961,-0.529736 1.37405,0.29317 2.03924,2.181582 3.41385,2.4721 1.47208,0.311117 2.91001,-0.962765 4.41446,-0.941754 2.07931,0.02904 4.07318,0.865793 6.06253,1.47149 0.76009,0.231425 1.84257,0.134108 2.23666,0.824031 0.2176,0.380947 -0.31978,0.86438 -0.23544,1.294911 0.0983,0.502081 0.4477,0.948316 0.82404,1.294908 0.30987,0.285373 0.72821,0.429656 1.11833,0.588594 1.59242,0.648763 3.41059,0.69383 4.9442,1.471488 0.37623,0.190777 0.72507,0.401361 1.00797,0.765173 0.099,0.127325 -0.36884,-0.002 -0.55204,-0.0206 -1.6177,-0.164556 -3.18553,-0.815834 -4.81154,-0.80344 -2.07418,0.01581 -4.09219,0.688422 -6.12139,1.11833 -2.29042,0.485252 -4.51888,1.259672 -6.8277,1.648066 -2.41036,0.405474 -4.8618,0.515729 -7.29858,0.706313 -3.93858,0.308041 -7.882545,0.568802 -11.830759,0.706316 -3.921785,0.136593 -7.847743,0.110517 -11.771899,0.117719 -3.099991,0.0057 -6.200008,-0.0235 -9.299803,-0.05886 -3.571062,-0.04073 -7.147366,0.03431 -10.712428,-0.176577 -2.894034,-0.171195 -5.786464,-0.445351 -8.652349,-0.882894 -2.909846,-0.444255 -5.776426,-1.13837 -8.652346,-1.765784 -1.94827,-0.425036 -3.923471,-0.759939 -5.827092,-1.35377 -0.866033,-0.270158 -1.772596,-0.502732 -2.530958,-1.000611 -0.324726,-0.213189 -0.627039,-0.489238 -0.824034,-0.824035 -0.181088,-0.307762 -0.26461,-0.712035 -0.294296,-1.030039 -0.05827,-0.624148 1.803511,-1.012131 2.722251,-1.486203 0.916245,-0.472784 1.786084,-0.692214 2.781112,-1.353767 0.714055,-0.474745 1.211485,-0.74738 1.948638,-1.373521 0.168945,-0.143503 0.556762,-0.215612 0.750067,-0.202072 0.309737,0.02176 0.609669,0.03242 0.609669,0.03242 0.09932,0.0054 -0.133262,-0.111755 -0.470382,-0.218663 -0.307593,-0.09754 -0.702218,-0.186527 -1.011184,-0.165984 -0.431741,0.02871 -1.072095,0.238223 -1.67966,0.382709 -0.216225,0.05142 -0.448956,0.107408 -0.693359,0.169723 -0.344678,0.08788 -0.712573,0.188347 -1.090134,0.306338 -0.689112,0.215353 -1.410423,0.489086 -2.081542,0.851236 -1.309025,0.706378 -1.801824,1.411739 -2.580079,1.645107 -1.043399,0.312874 -2.186115,0.04919 -3.266704,-0.08829 -0.998555,-0.12704 -1.984483,-0.369399 -2.942975,-0.676884 -1.0929,-0.350603 -2.163766,-0.79396 -3.178414,-1.324338 -0.9357,-0.48911 -3.042685,-2.006058 -2.631753,-1.670125 z"
       id="path7995"
       inkscape:connector-curvature="0"
       sodipodi:nodetypes="caasssssaaaaaaaacsssaaaaaaaaasaaaaaaaaaaaaaasasssssssssssaascc" />
    <path
       style="fill:#eaeaea;fill-opacity:1;stroke:#000000;stroke-width:0;stroke-linecap:butt;stroke-linejoin:miter;stroke-miterlimit:4;stroke-dasharray:none;stroke-opacity:1"
       d="m 131.31096,61.222953 c 0.58803,-0.247693 0.88546,-0.797972 1.10647,-1.117565 0,0 -1.88234,-0.0293 -2.82285,-0.06546 -1.44052,-0.05539 -2.29546,0.09757 -4.31852,-0.23205 4.12775,-0.561414 8.30302,-0.674047 12.43122,-1.252956 2.18232,-0.166459 4.33392,-0.726575 6.52159,-0.746108 1.60727,0.09347 2.23266,1.697551 4.13884,0.155628 0.35562,-0.28766 -1.21952,-1.25327 0.36976,-1.321427 4.64932,-0.683639 9.36952,-0.742379 14.03406,-1.270434 1.84508,-1.268928 3.30278,0.948327 4.20333,2.394872 1.98623,2.965724 3.83517,6.039811 6.28901,8.657997 1.51126,-0.933315 0.48367,-2.785266 -0.85855,-3.060826 -0.80768,-1.483047 -1.20533,-4.419566 1.19151,-4.222666 -0.65597,-1.10731 1.51883,-3.343997 -0.47883,-3.712396 -1.13305,0.452661 -0.88145,2.774002 -2.52083,1.553508 -0.20514,0.879717 -1.96103,1.04405 -1.78083,-0.08329 2.39501,-1.273526 -1.35675,-2.903836 -2.79952,-2.690287 -2.01259,0.194582 -3.73695,-0.891765 -5.66837,-1.09576 -3.79149,-0.03249 -7.59855,-0.20053 -11.33708,-0.862437 -1.22487,-0.195423 -2.16794,1.687191 -3.09181,0.06499 -4.12227,-0.704639 -3.0395,1.185311 -4.63012,1.157383 -0.62582,-0.01099 -1.01543,-1.706769 -5.00165,-0.05241 -1.84623,0.188908 -3.98822,-0.09971 -5.6345,0.735469 -0.5016,1.555295 -2.20091,-0.383741 -2.95931,0.908772 -1.38679,0.424035 -3.43176,-1.040391 -3.15444,1.295335 -1.18928,1.164495 -3.45386,-1.503503 -4.00815,0.450411 0.41104,1.213608 -0.30798,1.634596 0.12486,2.247477 1.02716,1.454425 3.2814,1.517367 4.92728,2.062928 1.41923,1.254888 1.54476,-1.361161 2.99468,-0.36683 1.10516,0.777373 1.43161,0.418098 2.73275,0.468137 z"
       id="path8012"
       inkscape:connector-curvature="0"
       sodipodi:nodetypes="csacccscccccccccccccscccccacccc" />
    <circle
       style="opacity:1;fill:#2b2b2b;fill-opacity:1;stroke:#e8ba00;stroke-width:0;stroke-linecap:round;stroke-linejoin:miter;stroke-miterlimit:4;stroke-dasharray:none;stroke-opacity:1;paint-order:markers fill stroke"
       id="path8024"
       cx="30.562798"
       cy="49.716507"
       r="1.074186" />
    <path
       style="fill:#93969b;fill-opacity:1;stroke:#000000;stroke-width:0;stroke-linecap:butt;stroke-linejoin:miter;stroke-miterlimit:4;stroke-dasharray:none;stroke-opacity:1"
       d="m 63.098446,42.163147 c 0,0 1.116121,5.382202 1.165359,8.82343 0.02585,1.807069 0.229842,2.091147 -0.790781,7.033772 0,0 0.448132,-4.780127 0.261614,-7.033772 0.07759,-4.747018 -0.979065,-7.80912 -0.636192,-8.82343 z"
       id="path8049-3"
       inkscape:connector-curvature="0"
       sodipodi:nodetypes="csccc" />
    <path
       style="fill:#93969b;fill-opacity:1;stroke:#000000;stroke-width:0;stroke-linecap:butt;stroke-linejoin:miter;stroke-miterlimit:4;stroke-dasharray:none;stroke-opacity:1"
       d="m 60.801585,42.170606 c 0,0 1.116121,5.382202 1.165359,8.82343 0.02585,1.807069 0.229842,2.091147 -0.790781,7.033772 0,0 0.448132,-4.780127 0.261614,-7.033772 0.07759,-4.747018 -0.979065,-7.80912 -0.636192,-8.82343 z"
       id="path8049-3-6"
       inkscape:connector-curvature="0"
       sodipodi:nodetypes="csccc" />
    <path
       style="fill:#93969b;fill-opacity:1;stroke:#000000;stroke-width:0;stroke-linecap:butt;stroke-linejoin:miter;stroke-miterlimit:4;stroke-dasharray:none;stroke-opacity:1"
       d="m 65.46302,41.712786 c 0,0 1.116121,5.382202 1.165359,8.82343 0.02585,1.80707 0.229842,2.091148 -0.790781,7.033773 0,0 0.448132,-4.780127 0.261614,-7.033773 0.07759,-4.747018 -0.979065,-7.80912 -0.636192,-8.82343 z"
       id="path8049-3-7"
       inkscape:connector-curvature="0"
       sodipodi:nodetypes="csccc" />
    <path
       style="fill:#93969b;fill-opacity:1;stroke:#000000;stroke-width:0;stroke-linecap:butt;stroke-linejoin:miter;stroke-miterlimit:4;stroke-dasharray:none;stroke-opacity:1"
       d="m 70.857269,41.920886 c 0,0 -0.8446,5.382202 -0.88186,8.82343 -0.01956,1.807069 -0.173928,2.091147 0.598406,7.033772 0,0 -0.109648,-5.154705 0.0315,-7.40835 -0.05871,-4.747018 0.511421,-7.434542 0.251959,-8.448852 z"
       id="path8049-3-3"
       inkscape:connector-curvature="0"
       sodipodi:nodetypes="csccc" />
    <path
       style="fill:#a6aaaf;fill-opacity:1;stroke:#0000a3;stroke-width:0;stroke-linecap:butt;stroke-linejoin:miter;stroke-miterlimit:4;stroke-dasharray:none;stroke-opacity:1"
       d="m 71.170122,56.925693 c -1.388398,-0.914969 4.203615,-3.610533 4.203615,-3.610533 0,0 3.745796,-0.249719 3.912277,-0.249719 0.166479,0 5.341678,3.106808 8.24075,4.120378 1.325352,0.463368 3.191998,-0.179255 4.120377,0.874016 0.331389,0.37597 -0.03433,1.023102 0.124858,1.49832 0.198051,0.591238 0.612723,1.091997 0.99888,1.581557 0.467844,0.593121 0.98743,1.156614 1.581558,1.623179 1.26686,0.994857 2.718799,1.740136 4.161996,2.455577 2.335907,1.15799 4.814127,2.004484 7.241867,2.955017 2.88688,1.1303 5.02172,2.59448 4.53658,2.788536 -0.84603,0.857435 -4.29509,-0.193918 -5.95165,-0.624297 -3.33975,-0.782465 -6.614272,-1.496158 -9.863933,-2.455579 -2.995905,-0.884503 -5.960004,-1.889999 -8.865051,-3.038257 -2.956702,-1.168675 -5.935604,-2.339408 -8.69857,-3.912275 -2.229765,-1.269333 -3.694179,-2.655361 -5.743554,-4.00592 z"
       id="path8015"
       inkscape:connector-curvature="0"
       sodipodi:nodetypes="scsaaaaaasccaass" />
    <path
       style="fill:#93969b;fill-opacity:1;stroke:#000000;stroke-width:0;stroke-linecap:butt;stroke-linejoin:miter;stroke-miterlimit:4;stroke-dasharray:none;stroke-opacity:1"
       d="m 68.807741,41.597658 c 0,0 -0.8446,5.382202 -0.88186,8.82343 -0.01956,1.807069 -0.173928,2.091147 0.598406,7.033772 0,0 -0.109648,-5.154705 0.0315,-7.40835 -0.05871,-4.747018 0.511421,-7.434542 0.251959,-8.448852 z"
       id="path8049-3-3-5"
       inkscape:connector-curvature="0"
       sodipodi:nodetypes="csccc" />
  </g>
</svg>
