<?xml version="1.0" encoding="UTF-8" standalone="no"?>
<!-- Created with Inkscape (http://www.inkscape.org/) -->

<svg
   width="160.58035mm"
   height="62.527493mm"
   viewBox="0 0 160.58035 62.527493"
   version="1.1"
   id="svg1005"
   inkscape:version="1.1 (c68e22c387, 2021-05-23)"
   sodipodi:docname="albacore.svg"
   xmlns:inkscape="http://www.inkscape.org/namespaces/inkscape"
   xmlns:sodipodi="http://sodipodi.sourceforge.net/DTD/sodipodi-0.dtd"
   xmlns="http://www.w3.org/2000/svg"
   xmlns:svg="http://www.w3.org/2000/svg">
  <sodipodi:namedview
     id="namedview1007"
     pagecolor="#ffffff"
     bordercolor="#666666"
     borderopacity="1.0"
     inkscape:pageshadow="2"
     inkscape:pageopacity="0.0"
     inkscape:pagecheckerboard="0"
     inkscape:document-units="mm"
     showgrid="false"
     inkscape:zoom="1.1653671"
     inkscape:cx="223.53471"
     inkscape:cy="75.083635"
     inkscape:window-width="1920"
     inkscape:window-height="1051"
     inkscape:window-x="-9"
     inkscape:window-y="-9"
     inkscape:window-maximized="1"
     inkscape:current-layer="layer1"
     fit-margin-top="0"
     fit-margin-left="0"
     fit-margin-right="0"
     fit-margin-bottom="0" />
  <defs
     id="defs1002" />
  <g
     inkscape:label="Layer 1"
     inkscape:groupmode="layer"
     id="layer1"
     transform="translate(3.29206,-60.83926)">
    <path
       style="fill:#d4cdb0;fill-opacity:1;stroke:none;stroke-width:0.264583px;stroke-linecap:butt;stroke-linejoin:miter;stroke-opacity:1"
       d="m 109.82993,111.58947 c -3.16288,5.4783 -7.00888,9.28676 -11.422159,11.70851 -0.561507,0.14988 -0.576155,0.0886 -0.490363,-0.52632 0.731183,-3.22967 0.803644,-6.49162 0.44707,-9.99023 z"
       id="path2291"
       sodipodi:nodetypes="ccccc" />
    <path
       style="fill:#c7c4b6;fill-opacity:1;stroke:none;stroke-width:0.264583px;stroke-linecap:butt;stroke-linejoin:miter;stroke-opacity:1"
       d="M 22.874139,94.087403 C 21.652855,93.883856 18.32374,89.64314 16.460299,87.920702 11.395252,83.238919 7.8401811,77.595978 1.475751,73.333471 0.3255045,72.563106 -3.29206,72.577264 -3.29206,72.577264 c 0.9757789,0 10.5650114,11.808143 13.792595,19.543651 0.343654,0.823631 0.0946,1.740013 0.11352,2.610944 0.02261,1.040348 0.426987,2.277631 0,3.12178 -2.919732,5.772281 -5.4893308,10.499891 -8.5707075,15.268351 -1.17713582,1.82163 -4.0299353,5.10836 -4.0299353,5.10836 0,0 4.1197076,-0.74127 5.5624459,-2.1001 C 10.988153,109.14906 19.793981,96.243513 22.874139,94.087403 Z"
       id="path5561"
       sodipodi:nodetypes="csscsasscsc" />
    <g
       id="g71878"
       style="fill:#d4cdb0;fill-opacity:1">
      <path
         style="fill:#d4cdb0;fill-opacity:1;stroke:none;stroke-width:0.264583px;stroke-linecap:butt;stroke-linejoin:miter;stroke-opacity:1"
         d="m 56.688704,82.674573 c 0.569383,-0.849293 1.038021,-1.761551 1.30547,-2.799553 0.851395,0.540483 1.702789,0.892474 2.554184,1.248714 z"
         id="path21541"
         sodipodi:nodetypes="cccc" />
      <path
         style="fill:#d4cdb0;fill-opacity:1;stroke:none;stroke-width:0.264583px;stroke-linecap:butt;stroke-linejoin:miter;stroke-opacity:1"
         d="m 52.218882,84.467528 c 0.569383,-0.849293 1.038021,-1.761551 1.30547,-2.799553 0.851395,0.540483 1.702789,0.892474 2.554184,1.248714 z"
         id="path21541-3"
         sodipodi:nodetypes="cccc" />
      <path
         style="fill:#d4cdb0;fill-opacity:1;stroke:none;stroke-width:0.264583px;stroke-linecap:butt;stroke-linejoin:miter;stroke-opacity:1"
         d="m 47.66392,86.113558 c 0.569383,-0.849293 1.038021,-1.761551 1.30547,-2.799553 0.851395,0.540483 1.702789,0.892474 2.554184,1.248714 z"
         id="path21541-9"
         sodipodi:nodetypes="cccc" />
      <path
         style="fill:#d4cdb0;fill-opacity:1;stroke:none;stroke-width:0.264583px;stroke-linecap:butt;stroke-linejoin:miter;stroke-opacity:1"
         d="m 42.811515,87.588864 c 0.640146,-0.797313 1.18532,-1.666003 1.540835,-2.677233 0.801887,0.611533 1.619944,1.035269 2.437638,1.463238 z"
         id="path21541-0"
         sodipodi:nodetypes="cccc" />
      <path
         style="fill:#d4cdb0;fill-opacity:1;stroke:none;stroke-width:0.264583px;stroke-linecap:butt;stroke-linejoin:miter;stroke-opacity:1"
         d="m 33.818485,89.978491 c 0.725078,-0.720942 1.363739,-1.523407 1.82982,-2.488676 0.728678,0.697154 1.494371,1.209486 2.25923,1.725985 z"
         id="path21541-4"
         sodipodi:nodetypes="cccc" />
      <path
         style="fill:#d4cdb0;fill-opacity:1;stroke:none;stroke-width:0.264583px;stroke-linecap:butt;stroke-linejoin:miter;stroke-opacity:1"
         d="m 28.829934,91.597096 c 0.710383,-0.735425 1.332722,-1.550613 1.779232,-2.52509 0.742596,0.682309 1.518471,1.179087 2.293596,1.680047 z"
         id="path21541-5"
         sodipodi:nodetypes="cccc" />
      <path
         style="fill:#d4cdb0;fill-opacity:1;stroke:none;stroke-width:0.264583px;stroke-linecap:butt;stroke-linejoin:miter;stroke-opacity:1"
         d="m 24.135814,92.417237 c 0.78332,-0.657195 1.487408,-1.402913 2.03327,-2.325417 0.66726,0.756148 1.386996,1.331256 2.10555,1.910446 z"
         id="path21541-93"
         sodipodi:nodetypes="cccc" />
      <path
         style="fill:#d4cdb0;fill-opacity:1;stroke:none;stroke-width:0.264583px;stroke-linecap:butt;stroke-linejoin:miter;stroke-opacity:1"
         d="m 38.136574,88.964987 c 0.672537,-0.770188 1.253132,-1.615614 1.650117,-2.611295 0.77594,0.644137 1.575794,1.101305 2.37511,1.562688 z"
         id="path21541-6"
         sodipodi:nodetypes="cccc" />
      <path
         style="fill:#d4cdb0;fill-opacity:1;stroke:none;stroke-width:0.264583px;stroke-linecap:butt;stroke-linejoin:miter;stroke-opacity:1"
         d="m 22.926818,95.380586 c 0.812773,0.6204 1.550477,1.33288 2.138269,2.229249 0.631706,-0.786093 1.324176,-1.393757 2.015276,-2.005443 z"
         id="path21541-1"
         sodipodi:nodetypes="cccc" />
      <path
         style="fill:#d4cdb0;fill-opacity:1;stroke:none;stroke-width:0.264583px;stroke-linecap:butt;stroke-linejoin:miter;stroke-opacity:1"
         d="m 27.080363,95.604392 c 0.759276,0.684832 1.4362,1.455293 1.948667,2.396757 0.693917,-0.731761 1.433792,-1.280718 2.172631,-1.833797 z"
         id="path21541-1-8"
         sodipodi:nodetypes="cccc" />
      <path
         style="fill:#d4cdb0;fill-opacity:1;stroke:none;stroke-width:0.264583px;stroke-linecap:butt;stroke-linejoin:miter;stroke-opacity:1"
         d="m 31.821203,96.579259 c 0.662115,0.779166 1.231284,1.632325 1.614839,2.633256 0.784535,-0.63364 1.590467,-1.080007 2.395917,-1.530595 z"
         id="path21541-1-6"
         sodipodi:nodetypes="cccc" />
      <path
         style="fill:#d4cdb0;fill-opacity:1;stroke:none;stroke-width:0.264583px;stroke-linecap:butt;stroke-linejoin:miter;stroke-opacity:1"
         d="m 36.86257,98.230491 c 0.609353,0.821088 1.121088,1.709887 1.437877,2.733909 0.82457,-0.58059 1.658154,-0.972897 2.491535,-1.369451 z"
         id="path21541-1-9"
         sodipodi:nodetypes="cccc" />
      <path
         style="fill:#d4cdb0;fill-opacity:1;stroke:none;stroke-width:0.264583px;stroke-linecap:butt;stroke-linejoin:miter;stroke-opacity:1"
         d="m 41.507542,99.958408 c 0.558638,0.856392 1.015745,1.774482 1.270094,2.815782 0.858137,-0.52972 1.713899,-0.87096 2.569714,-1.21645 z"
         id="path21541-1-9-6"
         sodipodi:nodetypes="cccc" />
      <path
         style="fill:#d4cdb0;fill-opacity:1;stroke:none;stroke-width:0.264583px;stroke-linecap:butt;stroke-linejoin:miter;stroke-opacity:1"
         d="m 46.618875,102.34224 c 0.609353,0.82108 1.121088,1.70988 1.437877,2.73391 0.82457,-0.58059 1.658154,-0.9729 2.491535,-1.36946 z"
         id="path21541-1-9-5"
         sodipodi:nodetypes="cccc" />
      <path
         style="fill:#d4cdb0;fill-opacity:1;stroke:none;stroke-width:0.264583px;stroke-linecap:butt;stroke-linejoin:miter;stroke-opacity:1"
         d="m 51.419158,104.1949 c 0.559656,0.85573 1.017856,1.77328 1.273442,2.81427 0.857507,-0.53074 1.712862,-0.87299 2.568266,-1.2195 z"
         id="path21541-1-9-5-0"
         sodipodi:nodetypes="cccc" />
    </g>
    <path
       style="fill:#d4cdb0;fill-opacity:1;stroke:none;stroke-width:0.264583px;stroke-linecap:butt;stroke-linejoin:miter;stroke-opacity:1"
       d="m 69.019735,110.17048 c -10.103342,6.15687 -11.806077,7.64536 -19.241519,9.08155 -4.085357,0.7891 6.993272,-4.29656 8.740986,-8.91127 0.606802,-1.60221 -2.914878,-1.67969 -3.008262,-3.12178 -0.04108,-0.63439 1.135193,-1.5325 1.135193,-1.5325 z"
       id="path5039"
       sodipodi:nodetypes="cssacc" />
    <path
       style="fill:#ebebeb;fill-opacity:1;stroke:none;stroke-width:0.264583px;stroke-linecap:butt;stroke-linejoin:miter;stroke-opacity:1"
       d="m 155.12413,90.020808 c 0,0 -12.54795,-2.769806 -18.90097,-3.689379 -11.68043,-1.690694 -35.24774,-3.348818 -35.24774,-3.348818 l -47.961906,4.086696 c 0,0 -13.779367,3.732808 -20.830791,4.711049 -4.222584,0.585796 -8.609381,-0.243517 -12.770922,0.681116 -1.972089,0.438169 -5.619206,2.270387 -5.619206,2.270387 0,0 3.515202,1.585011 6.073283,1.47575 4.027839,-0.172038 8.435286,0.123555 12.430364,1.305473 15.850782,4.689348 30.141647,12.800668 46.145598,15.438628 9.65142,1.59086 19.626619,1.22656 29.34474,0.11352 10.13995,-1.16135 20.31383,-3.2696 29.79882,-7.0382 6.98765,-2.77635 12.49709,-5.29829 19.52532,-11.29517 0.52784,-0.450383 -0.22425,-1.990219 -0.90816,-1.87307 -3.02912,0.518867 -9.25182,3.292059 -9.25182,3.292059 0,0 1.78418,-2.426123 2.9515,-3.348818 1.54715,-1.222936 5.22189,-2.781223 5.22189,-2.781223 z"
       id="path40"
       sodipodi:nodetypes="caccaacssaaasscac" />
    <path
       style="fill:#c7c4b6;fill-opacity:1;stroke:none;stroke-width:0.264583px;stroke-linecap:butt;stroke-linejoin:miter;stroke-opacity:1"
       d="m 114.99505,92.177676 c 0,0 -21.922858,-2.628012 -36.155892,-1.418993 -12.059266,1.024369 -26.506758,5.732725 -26.506758,5.732725 0,0 30.937771,0.389664 46.202356,2.610945 1.462289,0.21279 2.977394,0.390996 4.313734,1.021677 1.19198,0.90777 2.43159,1.31848 5.35374,1.27708 0.17684,-0.74739 -1.34935,-1.07729 -1.38057,-1.844681 -0.0636,-1.563006 1.29923,-2.967516 2.49743,-3.973174 1.05628,-0.88654 2.68244,-0.798094 3.83127,-1.56089 0.72445,-0.481014 1.84469,-1.844689 1.84469,-1.844689 z"
       id="path1263"
       sodipodi:nodetypes="cscaccaaac" />
    <path
       style="fill:#d4cdb0;fill-opacity:1;stroke:none;stroke-width:0.264583px;stroke-linecap:butt;stroke-linejoin:miter;stroke-opacity:1"
       d="m 110.53114,77.987762 c 0,0 -1.55074,-10.937437 -6.63259,-17.084656 -0.24089,-0.291384 -0.42825,0.481311 -0.84804,0.971882 -0.44162,0.516075 -1.11018,0.759287 -1.11018,0.759287 -0.33338,1.298232 -0.89903,2.340964 -1.986582,2.809605 -0.152899,1.050867 -0.300868,2.105185 -1.191953,2.639322 -0.46675,1.258031 -1.170389,1.947528 -2.014969,2.298766 -0.542743,0.438335 -0.540913,1.049943 -2.639322,0.993293 -0.542305,0.784846 -1.426425,0.934893 -2.497426,0.737875 -1.099811,0.537546 -1.915575,0.393381 -2.639324,0.02838 -0.974374,0.640458 -1.948748,0.653793 -2.923122,0.312177 -0.770751,0.407402 -1.613846,0.621886 -2.610943,0.425699 -0.565137,0.627191 -1.24258,0.692856 -1.958208,0.567594 -0.619482,0.739981 -1.426281,0.793134 -2.270386,0.709496 -0.454689,0.660974 -1.177006,0.78669 -1.929829,0.851395 -0.290904,1.120197 -0.891933,1.723518 -1.39061,2.497426 z"
       id="path3038"
       sodipodi:nodetypes="csscccccccccccccc" />
    <path
       style="fill:#d4cdb0;fill-opacity:1;stroke:none;stroke-width:0.264583px;stroke-linecap:butt;stroke-linejoin:miter;stroke-opacity:1"
       d="m 75.358489,77.68591 c 0,0 -7.917701,-8.184849 -14.674164,-12.406114 -0.501283,-0.313188 -2.079867,-0.518068 -1.765946,-0.02007 2.124121,3.369693 6.812349,6.42698 6.421622,10.515405 -0.173884,1.819463 -3.092612,2.327121 -3.692433,4.053648 -0.25087,0.722106 0.16054,2.287701 0.16054,2.287701 l 13.550381,-4.611182"
       id="path4442"
       sodipodi:nodetypes="cssaacc" />
    <g
       id="g20599"
       transform="matrix(0.84085152,0,0,0.84085152,22.053379,8.4751358)"
       style="stroke:none">
      <ellipse
         style="fill:#c7aa77;fill-opacity:1;stroke:none;stroke-width:0.265;stroke-linejoin:round;stroke-miterlimit:4;stroke-dasharray:none;stroke-opacity:1;paint-order:markers fill stroke"
         id="path7213"
         cx="140.2531"
         cy="98.903687"
         rx="3.6893773"
         ry="3.433959" />
      <ellipse
         style="fill:#2a3034;fill-opacity:1;stroke:none;stroke-width:0.363;stroke-linejoin:round;stroke-miterlimit:4;stroke-dasharray:none;stroke-opacity:1;paint-order:markers fill stroke"
         id="path7213-5"
         cx="140.36662"
         cy="98.973549"
         rx="2.270386"
         ry="2.1132054" />
      <ellipse
         style="fill:#e1e1e1;fill-opacity:1;stroke:none;stroke-width:0.150548;stroke-linejoin:round;stroke-miterlimit:4;stroke-dasharray:none;stroke-opacity:1;paint-order:markers fill stroke"
         id="path7213-5-6"
         cx="142.0694"
         cy="98.421242"
         rx="1.0216737"
         ry="0.80773342" />
    </g>
    <path
       style="fill:#d4d4d4;fill-opacity:1;stroke:none;stroke-width:0.264583px;stroke-linecap:butt;stroke-linejoin:miter;stroke-opacity:1"
       d="m 121.77,85.487837 c 0,0 -0.12218,3.275954 -1.3646,3.612163 -4.33176,1.172208 -6.07336,6.691296 -5.57877,10.675948 0.51237,4.127962 4.55137,7.525102 8.30796,9.311352 1.06432,0.50608 3.5319,0.16054 3.5319,0.16054 0,0 -3.08138,-0.41409 -4.3346,-1.24419 -2.96455,-1.96365 -6.38875,-4.75179 -6.70998,-8.293152 -0.34829,-3.839741 1.61144,-9.195251 5.53865,-10.154193 1.06604,-0.260302 0.60947,-4.068468 0.60947,-4.068468 z"
       id="path29933"
       sodipodi:nodetypes="csaacaascc" />
    <path
       style="fill:#5b6984;fill-opacity:1;stroke:none;stroke-width:0.264583px;stroke-linecap:butt;stroke-linejoin:miter;stroke-opacity:1"
       d="m 155.12413,90.020806 c 0,0 -26.10551,-11.34017 -40.01556,-13.508794 -13.79804,-2.15116 -28.128067,-1.698084 -41.888618,0.681114 -10.706369,1.85113 -20.430548,7.457244 -30.877253,10.443776 -6.203889,1.773585 -18.844203,4.427254 -18.844203,4.427254 0,0 4.839925,0.756294 13.355555,-0.139989 10.509139,-1.106103 25.797746,-3.952426 34.663111,-4.514304 13.865609,-0.878789 27.77478,-1.677909 41.661578,-1.248712 14.03416,0.433752 41.94539,3.859655 41.94539,3.859655 z"
       id="path1202"
       sodipodi:nodetypes="caaacssac" />
    <path
       style="fill:#d4d4d4;fill-opacity:1;stroke:none;stroke-width:0.264583px;stroke-linecap:butt;stroke-linejoin:miter;stroke-opacity:1"
       d="m 155.12413,90.020806 c 0,0 -8.7173,5.287668 -10.10203,8.806304 -0.72385,1.83933 -2.80398,0.857687 -3.25429,-0.130143 -0.57783,-1.267554 1.54976,-2.793212 2.61281,-3.261664 4.52084,-1.992191 5.95423,-4.476447 9.70865,-5.800894 0.34724,-0.122497 1.03486,0.386397 1.03486,0.386397 z"
       id="path20634"
       sodipodi:nodetypes="csassc" />
  </g>
</svg>
