<?xml version="1.0" encoding="UTF-8" standalone="no"?>
<!-- Created with Inkscape (http://www.inkscape.org/) -->

<svg
   xmlns:dc="http://purl.org/dc/elements/1.1/"
   xmlns:cc="http://creativecommons.org/ns#"
   xmlns:rdf="http://www.w3.org/1999/02/22-rdf-syntax-ns#"
   xmlns:svg="http://www.w3.org/2000/svg"
   xmlns="http://www.w3.org/2000/svg"
   xmlns:sodipodi="http://sodipodi.sourceforge.net/DTD/sodipodi-0.dtd"
   xmlns:inkscape="http://www.inkscape.org/namespaces/inkscape"
   width="268.39529mm"
   height="115.19479mm"
   viewBox="0 0 268.39529 115.19479"
   version="1.1"
   id="svg8"
   inkscape:version="0.92.2 5c3e80d, 2017-08-06"
   sodipodi:docname="Atlantic Croaker.svg"
   inkscape:export-filename="/mnt/826CA0866CA07717/MEGASync/Graphics/Species/Atlantic Croaker.png"
   inkscape:export-xdpi="200"
   inkscape:export-ydpi="200">
  <defs
     id="defs2" />
  <sodipodi:namedview
     id="base"
     pagecolor="#ffffff"
     bordercolor="#666666"
     borderopacity="1.0"
     inkscape:pageopacity="0.0"
     inkscape:pageshadow="2"
     inkscape:zoom="0.82314815"
     inkscape:cx="430.37408"
     inkscape:cy="186.18379"
     inkscape:document-units="mm"
     inkscape:current-layer="layer1"
     showgrid="false"
     inkscape:window-width="1920"
     inkscape:window-height="1018"
     inkscape:window-x="0"
     inkscape:window-y="34"
     inkscape:window-maximized="1"
     inkscape:snap-global="false"
     fit-margin-top="0"
     fit-margin-left="0"
     fit-margin-right="0"
     fit-margin-bottom="0" />
  <metadata
     id="metadata5">
    <rdf:RDF>
      <cc:Work
         rdf:about="">
        <dc:format>image/svg+xml</dc:format>
        <dc:type
           rdf:resource="http://purl.org/dc/dcmitype/StillImage" />
        <dc:title></dc:title>
      </cc:Work>
    </rdf:RDF>
  </metadata>
  <g
     inkscape:label="Layer 1"
     inkscape:groupmode="layer"
     id="layer1"
     transform="translate(-16.924834,-50.423475)">
    <path
       style="fill:#d4c095;fill-opacity:1;stroke:none;stroke-width:0.45840564px;stroke-linecap:butt;stroke-linejoin:miter;stroke-opacity:1"
       d="m 83.792428,78.929114 c 0,0 0.786177,-2.163236 1.381333,-3.139393 0.588735,-0.965624 2.13478,-2.637073 2.13478,-2.637073 0,0 0.986076,3.448221 1.492981,2.473415 4.522786,-8.697643 16.715468,-18.798242 16.715468,-18.798242 0,0 -0.70068,3.360242 0,2.762666 4.56055,-3.889469 16.19924,-9.167012 16.19924,-9.167012 0,0 -1.42066,1.711577 -1.00461,2.511516 0.67463,1.297114 4.26957,1.004606 4.26957,1.004606 0,0 -1.25304,2.927623 -0.37673,3.89283 0.42206,0.464862 1.88364,0 1.88364,0 0,0 -2.04409,2.897597 -1.13018,3.892847 0.72181,0.786044 2.51782,-0.361498 2.51782,-0.361498 0,0 -1.08065,2.088026 -0.63419,3.249723 0.44342,1.153796 2.68779,1.003306 2.68779,1.003306 0,0 -0.73788,2.251267 -0.42743,3.015117 0.33949,0.8353 2.51151,1.004606 2.51151,1.004606 0,0 -0.56763,1.581443 -0.22199,2.105628 0.35097,0.532276 1.98005,0.531462 1.98005,0.531462 0,0 -1.21043,1.640956 -0.62788,2.385921 0.58254,0.744965 3.20663,-0.04435 3.20663,-0.04435 0,0 0.13128,1.733925 2.69542,2.179192 1.56933,0.272514 3.92831,0.237222 3.92831,0.237222 0,0 5.76422,-4.119934 8.614,-5.584949 1.36285,-0.0087 2.11846,-0.209865 3.29594,-0.753593 1.90048,-0.877575 3.45946,-2.274189 5.50958,-2.563387 11.23513,-1.584908 23.00546,-0.137565 33.90539,3.013817 11.88752,3.436943 23.8658,8.325404 33.02635,16.952688 1.1422,1.07571 1.16204,3.13144 0.75345,4.646302 -0.39499,1.464426 -1.58851,2.734252 -2.88822,3.516102 -2.70827,1.629158 -6.13294,1.809154 -9.29259,1.883636 -31.33199,0.738641 -92.92588,-14.315615 -92.92588,-14.315615 z"
       id="path845"
       inkscape:connector-curvature="0"
       sodipodi:nodetypes="cacscscscscscscscsczcsccssasaaacc" />
    <path
       style="fill:#d4c095;fill-opacity:1;stroke:none;stroke-width:0.45840564px;stroke-linecap:butt;stroke-linejoin:miter;stroke-opacity:1"
       d="m 244.15234,94.500468 c 0,0 10.73905,-7.024946 16.45039,-9.920464 5.90748,-2.99495 17.72523,-8.680457 18.33402,-7.660102 0.60879,1.020355 -0.24852,9.534503 1.00461,14.064464 1.03814,3.752787 4.70706,6.570531 5.27418,10.422754 0.7307,4.96341 -2.60537,9.8011 -2.63709,14.81791 -0.026,4.11507 2.63546,11.32665 2.00921,12.18083 -0.46639,0.63614 -13.06556,-0.74396 -19.4642,-2.00921 -6.08072,-1.20238 -17.83174,-5.27416 -17.83174,-5.27416 0,0 -5.83558,-8.86151 -6.29467,-13.93889 -0.39231,-4.33888 3.15529,-12.683132 3.15529,-12.683132 z"
       id="path847"
       inkscape:connector-curvature="0"
       sodipodi:nodetypes="cazaaasacac" />
    <path
       style="fill:#d4c095;fill-opacity:1;stroke:none;stroke-width:0.45840564px;stroke-linecap:butt;stroke-linejoin:miter;stroke-opacity:1"
       d="m 172.44873,139.95881 c 1.17142,0.68625 2.33892,1.38618 3.56361,1.97208 1.33017,0.63637 4.09649,1.6696 4.09649,1.6696 l -0.87903,-2.26036 c 0,0 4.08949,3.03914 6.28185,4.32699 3.13933,1.84413 9.79183,4.84003 9.79183,4.84003 l -2.38594,-3.13939 c 0,0 8.37022,5.86356 13.18543,5.90204 2.5502,0.0204 6.3268,-0.56303 7.03222,-3.0138 0.71255,-2.47551 0.26153,-11.76624 -1.0046,-17.45501 -0.29383,-1.32019 -0.54449,-2.81699 -1.50691,-3.76725 -1.68328,-1.66201 -12.43198,-1.88364 -12.43198,-1.88364 l -19.84093,1.50691 -11.57362,7.78987 c 0,0 3.75295,2.38793 5.67158,3.51193 z"
       id="path849"
       inkscape:connector-curvature="0"
       sodipodi:nodetypes="aaccaccasasccca" />
    <g
       id="g1147"
       transform="matrix(1.7325569,0,0,1.7325569,-12.398403,-121.3248)">
      <path
         style="fill:#e0e0e0;fill-opacity:1;stroke:none;stroke-width:0.99999994px;stroke-linecap:butt;stroke-linejoin:miter;stroke-opacity:1"
         d="m 67.388672,533.54883 10.410156,4.6582 9.587891,6.02539 -13.148438,4.38281 c 0,0 -1.45328,4.50021 9.056641,5.26954 5.651214,0.41366 11.379079,0.0906 16.966798,1.03125 15.70863,2.6443 30.50649,9.26411 46.02148,12.875 6.78544,1.5792 13.64491,2.88406 20.54688,3.83593 43.50305,5.99963 87.3095,12.59157 131.2168,11.7793 26.04492,-0.48182 51.96605,-4.81982 77.52343,-9.86133 19.29762,-3.8067 38.88254,-7.63764 56.98047,-15.3418 9.61074,-4.09122 16.80293,-13.29046 26.8457,-16.1621 26.60656,-7.60793 49.55512,-16.68792 75.33399,-17.80469 10.69546,-0.46333 31.77734,4.65625 31.77734,4.65625 0,0 16.79355,-19.07544 15.61328,-30.4082 -0.6156,-5.91105 -6.23444,-12.83009 -11.69921,-18.27149 -0.0869,0.0344 -5.18306,2.0538 -11.73633,4.19531 -3.30441,1.07984 -6.95513,2.18229 -10.46875,3.0586 -3.51362,0.8763 -6.89151,1.52792 -9.65235,1.70508 -4.53631,0.29108 -9.05841,0.32073 -13.57226,0.14257 -4.51386,-0.17815 -9.01838,-0.56467 -13.51563,-1.10547 -4.49724,-0.54079 -8.98812,-1.23636 -13.47461,-2.0332 -4.48648,-0.79684 -8.96959,-1.69434 -13.45117,-2.64062 -8.96316,-1.89256 -17.92178,-3.97738 -26.90039,-5.82813 -4.48931,-0.92537 -8.98243,-1.7938 -13.48437,-2.54883 -4.50195,-0.75502 -9.01277,-1.39691 -13.53321,-1.875 -14.42294,-1.52537 -28.87381,-3.27177 -43.34179,-4.96289 -14.46799,-1.69112 -28.95231,-3.32849 -43.44141,-4.63281 -7.24455,-0.65216 -14.49099,-1.22001 -21.73633,-1.67188 -7.24534,-0.45186 -14.48928,-0.78626 -21.73242,-0.96874 -7.24314,-0.18249 -14.48471,-0.21259 -21.72266,-0.0566 -7.23795,0.15595 -14.47336,0.49709 -21.70312,1.06055 -11.77766,0.91791 -23.64698,2.0417 -35.49219,3.52734 -5.9226,0.74283 -11.83814,1.57558 -17.73437,2.51954 -5.89624,0.94395 -11.77225,1.99903 -17.61329,3.18359 -5.84103,1.18456 -11.64729,2.49827 -17.40429,3.96289 -5.75701,1.46462 -11.46524,3.07913 -17.10938,4.86328 -5.64413,1.78416 -11.22412,3.73771 -16.72656,5.88086 -5.50244,2.14315 -10.92787,4.47597 -16.25977,7.01758 -2.45716,1.17128 -5.09925,2.68445 -7.84375,4.43359 -2.74449,1.74915 -5.59115,3.7354 -8.45312,5.85547 -5.723944,4.24015 -11.512744,9.01385 -16.687501,13.4961 -5.174756,4.48224 -10.848978,7.17016 -14.115754,10.23902 -3.266775,3.06886 -4.126433,6.51879 -4.126433,6.51879 z"
         id="path1150"
         transform="scale(0.26458333)"
         inkscape:connector-curvature="0"
         sodipodi:nodetypes="cccccccaassssccccccccsscccsscccsccsscsscscscc" />
      <path
         style="fill:#d7d3c5;fill-opacity:1;stroke:none;stroke-width:0.26458332px;stroke-linecap:butt;stroke-linejoin:miter;stroke-opacity:1"
         d="m 17.829919,141.16813 c 2.431819,-3.75815 6.073261,-5.43269 9.241813,-8.00468 7.663561,-5.45834 17.587132,-3.84805 26.536599,-4.28894 15.833171,-0.78002 31.669305,1.61351 47.466369,2.93658 9.40729,0.7879 18.74593,3.62796 28.16372,2.97753 8.00475,-0.55284 23.63253,-5.15184 23.36285,-5.79759 -0.26968,-0.64575 -1.2815,-1.52726 -1.2815,-1.52726 -1.1779,-1.4038 -3.88965,-2.24457 -5.06847,-0.50164 -7.84449,2.85681 -16.28673,-3.14336 -23.78928,-5.06274 -17.96596,-4.12408 -36.228873,-7.05803 -54.618748,-8.39449 -7.673377,-0.61176 -15.259685,1.45444 -21.940789,5.15564 -8.849035,4.5269 -18.937981,7.45659 -25.682506,15.20347 -1.470223,1.72934 -4.153448,5.38273 -2.390058,7.30412 z"
         id="path855"
         inkscape:connector-curvature="0"
         sodipodi:nodetypes="ccaaazscccccc" />
    </g>
    <ellipse
       style="opacity:1;fill:#a7acad;fill-opacity:1;stroke:none;stroke-width:0.63238329;stroke-linecap:round;stroke-miterlimit:4;stroke-dasharray:none;stroke-opacity:1"
       id="path859"
       cx="-55.766666"
       cy="101.6049"
       rx="1.7093092"
       ry="1.0433446"
       transform="rotate(-42.595233)" />
    <ellipse
       style="opacity:1;fill:#a7acad;fill-opacity:1;stroke:none;stroke-width:0.39966974;stroke-linecap:round;stroke-miterlimit:4;stroke-dasharray:none;stroke-opacity:1"
       id="path859-3"
       cx="111.62554"
       cy="-35.787064"
       rx="1.0911483"
       ry="0.65283966"
       transform="matrix(-0.09937041,0.99505051,-0.99463273,-0.10346848,0,0)" />
    <path
       style="fill:#d5d5d5;fill-opacity:1;stroke:none;stroke-width:0.45840564px;stroke-linecap:butt;stroke-linejoin:miter;stroke-opacity:1"
       d="m 31.510866,130.32174 c -1.995659,0.98342 -4.438725,0.57547 -6.659647,0.44398 -1.089572,-0.0644 -3.218662,-0.6018 -3.218662,-0.6018 0,0 1.486752,-1.19103 2.365515,-1.51366 1.156355,-0.42455 3.662109,-0.49555 3.662109,-0.49555 l 4.827433,1.05708 c 0,0 -0.53467,0.8921 -0.976748,1.10995 z"
       id="path895"
       inkscape:connector-curvature="0"
       sodipodi:nodetypes="aacacca" />
    <path
       style="fill:#cac9c9;fill-opacity:1;stroke:none;stroke-width:0.45840564px;stroke-linecap:butt;stroke-linejoin:miter;stroke-opacity:1"
       d="m 37.142484,129.15164 c -2.223734,-2.11431 -5.266455,-2.91061 -8.169169,-3.50741 -0.623327,-0.1282 -1.291399,0.15299 -1.909097,0 -6.652722,-2.54698 -13.552523,-5.88125 -3.450883,-1.22249 1.86828,0.92864 2.968828,2.94282 4.594932,4.24998 0.804136,0.64642 1.54575,1.49534 2.540955,1.76745 1.545943,0.42271 3.264311,0.12007 4.794943,-0.35517 0.589063,-0.18287 2.045316,-0.50736 1.598319,-0.93236 z"
       id="path893"
       inkscape:connector-curvature="0"
       sodipodi:nodetypes="saccaaas" />
    <path
       style="fill:#d4c095;fill-opacity:1;stroke:none;stroke-width:0.45840564px;stroke-linecap:butt;stroke-linejoin:miter;stroke-opacity:1"
       d="m 84.922609,140.96342 c 0,0 5.572109,5.7442 8.162408,8.79028 2.164229,2.54503 3.687334,5.65723 6.153197,7.91125 3.599456,3.29023 11.833476,8.47244 12.306396,7.91126 0.47293,-0.56119 -1.32629,-5.25463 -1.13018,-7.91126 0.27008,-3.65858 3.52747,-9.86441 3.13939,-10.54834 -0.38808,-0.68393 -9.14144,-2.36216 -13.62494,-3.83006 -1.699431,-0.5564 -3.490721,-0.99224 -5.023021,-1.88362 -3.263658,-0.66627 -9.98325,-0.43951 -9.98325,-0.43951 z"
       id="path851"
       inkscape:connector-curvature="0"
       sodipodi:nodetypes="caazazscc" />
    <path
       style="fill:#c5b289;fill-opacity:1;stroke:none;stroke-width:0.45840564px;stroke-linecap:butt;stroke-linejoin:miter;stroke-opacity:1"
       d="m 254.9198,102.26243 c 4.43088,-1.8549 7.8317,-2.905743 11.80977,-4.173386 3.81176,-1.214644 11.5434,-3.285413 11.5434,-3.285413 0,0 -7.46103,3.337858 -11.277,4.794938 -3.82561,1.460751 -7.46753,2.844391 -11.6322,3.951391 -0.21263,0.0565 -0.36463,-0.28317 -0.44397,-0.48837 -0.096,-0.24847 -0.24571,-0.6963 0,-0.79916 z"
       id="path897"
       inkscape:connector-curvature="0"
       sodipodi:nodetypes="sacasas" />
    <path
       style="fill:#c5b289;fill-opacity:1;stroke:none;stroke-width:0.45840564px;stroke-linecap:butt;stroke-linejoin:miter;stroke-opacity:1"
       d="m 253.15767,99.69107 c 4.17183,-2.381001 7.42943,-3.816424 11.2132,-5.58138 4.26443,-1.989166 12.94066,-5.640789 12.94066,-5.640789 0,0 -8.25053,4.879798 -12.49229,7.106602 -3.62576,1.903404 -7.06528,3.733157 -11.06403,5.339397 -0.20416,0.0819 -0.3964,-0.23662 -0.50015,-0.43063 -0.12561,-0.23492 -0.32874,-0.661162 -0.0974,-0.7932 z"
       id="path897-7"
       inkscape:connector-curvature="0"
       sodipodi:nodetypes="cacasasc" />
    <path
       style="fill:#c5b289;fill-opacity:1;stroke:none;stroke-width:0.45840564px;stroke-linecap:butt;stroke-linejoin:miter;stroke-opacity:1"
       d="m 251.41493,96.891068 c 4.06867,-2.553269 7.26929,-4.112345 10.97013,-6.045151 4.56333,-2.383271 13.84639,-6.842023 13.84639,-6.842023 0,0 -8.80456,5.670173 -13.33714,8.287807 -3.54614,2.047934 -6.90309,4.02518 -10.83121,5.797153 -0.20055,0.09044 -0.40594,-0.219845 -0.51771,-0.409352 -0.13531,-0.229442 -0.35609,-0.64685 -0.13046,-0.788434 z"
       id="path897-7-5"
       inkscape:connector-curvature="0"
       sodipodi:nodetypes="cacasasc" />
    <path
       style="fill:#c5b289;fill-opacity:1;stroke:none;stroke-width:0.45840564px;stroke-linecap:butt;stroke-linejoin:miter;stroke-opacity:1"
       d="m 249.50631,93.925571 c 4.08249,-2.531109 7.29153,-4.072756 11.00283,-5.985429 4.57622,-2.358426 13.88337,-6.766657 13.88337,-6.766657 0,0 -8.83524,5.622234 -13.38199,8.215196 -3.55721,2.028633 -6.92486,3.987601 -10.86256,5.738193 -0.20104,0.08923 -0.40474,-0.222044 -0.51547,-0.412158 -0.13393,-0.230187 -0.35257,-0.648773 -0.1263,-0.789145 z"
       id="path897-7-5-5"
       inkscape:connector-curvature="0"
       sodipodi:nodetypes="cacasasc" />
    <path
       style="fill:#c5b289;fill-opacity:1;stroke:none;stroke-width:0.45840564px;stroke-linecap:butt;stroke-linejoin:miter;stroke-opacity:1"
       d="m 255.43101,110.03346 c 4.73127,0.82974 8.28024,1.10298 12.44009,1.46006 3.98596,0.34215 11.98406,0.65292 11.98406,0.65292 0,0 -8.01424,-1.60632 -12.05787,-2.18399 -4.05385,-0.57911 -7.91151,-1.12362 -12.21785,-1.28281 -0.21986,-0.009 -0.29303,0.35677 -0.32506,0.57443 -0.0386,0.26354 -0.0858,0.73338 0.17663,0.77939 z"
       id="path897-6"
       inkscape:connector-curvature="0"
       sodipodi:nodetypes="sacasas" />
    <path
       style="fill:#c5b289;fill-opacity:1;stroke:none;stroke-width:0.45840564px;stroke-linecap:butt;stroke-linejoin:miter;stroke-opacity:1"
       d="m 254.28077,112.9307 c 4.59488,1.40008 8.08918,2.08004 12.16946,2.96508 4.5986,0.99747 13.86733,2.64123 13.86733,2.64123 0,0 -9.12499,-2.93564 -13.75402,-4.1699 -3.95678,-1.05499 -7.71565,-2.07931 -11.9705,-2.76204 -0.21722,-0.0348 -0.33431,0.31837 -0.39261,0.53052 -0.0705,0.25687 -0.17447,0.71745 0.0804,0.79509 z"
       id="path897-7-2"
       inkscape:connector-curvature="0"
       sodipodi:nodetypes="cacasasc" />
    <path
       style="fill:#c5b289;fill-opacity:1;stroke:none;stroke-width:0.45840564px;stroke-linecap:butt;stroke-linejoin:miter;stroke-opacity:1"
       d="m 253.19995,116.04661 c 4.53237,1.59091 7.99842,2.40405 12.03491,3.47111 4.97722,1.31578 15.01616,3.61259 15.01616,3.61259 0,0 -9.84001,-3.58403 -14.83904,-5.13516 -3.91108,-1.21355 -7.622,-2.39997 -11.84461,-3.25994 -0.21558,-0.0438 -0.34731,0.30411 -0.41443,0.51365 -0.0813,0.25366 -0.20433,0.70955 0.047,0.79775 z"
       id="path897-7-5-9"
       inkscape:connector-curvature="0"
       sodipodi:nodetypes="cacasasc" />
    <path
       style="fill:#c5b289;fill-opacity:1;stroke:none;stroke-width:0.45840564px;stroke-linecap:butt;stroke-linejoin:miter;stroke-opacity:1"
       d="m 251.63877,119.36061 c 4.54095,1.56624 8.01137,2.36051 12.05361,3.40564 4.98429,1.28869 15.03556,3.5309 15.03556,3.5309 0,0 -9.85934,-3.53048 -14.86672,-5.05442 -3.91761,-1.19228 -7.63493,-2.35852 -11.86216,-3.19553 -0.21579,-0.0426 -0.34566,0.30602 -0.41164,0.5159 -0.0797,0.2541 -0.20045,0.71064 0.0513,0.79755 z"
       id="path897-7-5-5-1"
       inkscape:connector-curvature="0"
       sodipodi:nodetypes="cacasasc" />
    <path
       style="fill:#c5b289;fill-opacity:1;stroke:none;stroke-width:0.34114775px;stroke-linecap:butt;stroke-linejoin:miter;stroke-opacity:1"
       d="m 256.29383,107.84485 c 4.73126,0.45954 8.28023,0.61088 12.44008,0.80865 3.98596,0.18949 11.98406,0.3616 11.98406,0.3616 0,0 -8.01423,-0.88965 -12.05786,-1.20958 -4.05386,-0.32073 -7.91152,-0.6223 -12.21786,-0.71047 -0.21986,-0.005 -0.29302,0.1976 -0.32506,0.31815 -0.0386,0.14588 -0.0858,0.40616 0.17664,0.43165 z"
       id="path897-6-2"
       inkscape:connector-curvature="0"
       sodipodi:nodetypes="sacasas" />
    <path
       style="fill:#c5b289;fill-opacity:1;stroke:none;stroke-width:0.34114775px;stroke-linecap:butt;stroke-linejoin:miter;stroke-opacity:1"
       d="m 256.10836,104.3803 c 4.70805,-0.65594 8.24764,-0.95477 12.39568,-1.3254 3.97462,-0.35512 11.95864,-0.85978 11.95864,-0.85978 0,0 -7.9703,1.22223 -11.99712,1.7101 -4.037,0.48907 -7.87877,0.95084 -12.17773,1.21806 -0.21944,0.0139 -0.30098,-0.18523 -0.338,-0.30434 -0.0447,-0.14415 -0.10257,-0.40225 0.15853,-0.43864 z"
       id="path897-6-2-7"
       inkscape:connector-curvature="0"
       sodipodi:nodetypes="sacasas" />
    <path
       style="fill:#c5c5c5;fill-opacity:1;stroke:none;stroke-width:0.39736825px;stroke-linecap:butt;stroke-linejoin:miter;stroke-opacity:1"
       d="m 29.800351,132.21553 c 0.164368,0.27513 0.07299,0.74526 0.01559,1.11123 -0.07777,0.49584 -0.365481,1.86147 -0.481088,1.42676 -0.12833,-0.48252 0.01715,-0.91008 -0.08957,-1.21527 -0.224096,-0.64063 -0.337013,-0.98661 -0.07147,-1.44093 0.139229,-0.23823 0.485527,-0.11764 0.626474,0.11816 z"
       id="path1013"
       inkscape:connector-curvature="0"
       sodipodi:nodetypes="casssac" />
    <path
       style="fill:#c5c5c5;fill-opacity:1;stroke:none;stroke-width:0.36819094px;stroke-linecap:butt;stroke-linejoin:miter;stroke-opacity:1"
       d="m 28.121571,132.34703 c 0.156173,0.2486 0.0718,0.67421 0.0149,1.00407 -0.07828,0.45375 -0.372196,1.68732 -0.482042,1.29453 -0.139003,-0.49704 0.0061,-0.91985 -0.101303,-1.2158 -0.184519,-0.50863 -0.262269,-0.80646 -0.02679,-1.18961 0.132298,-0.21526 0.461329,-0.10638 0.595251,0.1069 z"
       id="path1013-0"
       inkscape:connector-curvature="0"
       sodipodi:nodetypes="casssac" />
    <path
       style="fill:#c5c5c5;fill-opacity:1;stroke:none;stroke-width:0.33982393px;stroke-linecap:butt;stroke-linejoin:miter;stroke-opacity:1"
       d="m 26.328562,132.23363 c 0.149156,0.22174 0.05068,0.59923 0.01421,0.89554 -0.05548,0.45063 -0.246346,1.66636 -0.351257,1.31602 -0.08696,-0.29039 -0.0094,-0.74204 -0.08904,-0.94778 -0.251216,-0.64808 -0.412475,-0.94871 -0.142434,-1.35903 0.126356,-0.19199 0.440605,-0.095 0.568511,0.0953 z"
       id="path1013-9"
       inkscape:connector-curvature="0"
       sodipodi:nodetypes="casssac" />
    <path
       style="fill:#c5c5c5;fill-opacity:1;stroke:none;stroke-width:0.35093126px;stroke-linecap:butt;stroke-linejoin:miter;stroke-opacity:1"
       d="m 24.830051,131.91839 c 0.163692,0.21548 0.106015,0.5946 0.01559,0.8703 -0.162081,0.4942 -0.831296,1.58091 -0.94642,1.24046 -0.178538,-0.528 0.379456,-1.0536 0.265147,-1.33694 -0.139245,-0.34518 -0.172614,-0.57788 0.04181,-0.86639 0.138657,-0.18657 0.483513,-0.0922 0.623875,0.0927 z"
       id="path1013-3"
       inkscape:connector-curvature="0"
       sodipodi:nodetypes="casssac" />
    <path
       style="fill:#d5d5d5;fill-opacity:1;stroke:none;stroke-width:0.45840564px;stroke-linecap:butt;stroke-linejoin:miter;stroke-opacity:1"
       d="m 37.904128,129.03421 c -2.223734,-2.11431 -5.266455,-2.91061 -8.169169,-3.50741 -0.623327,-0.12821 -1.291403,0.15299 -1.909097,0 -3.322109,-0.85515 -4.70948,-2.99774 -7.458805,-3.79605 -0.366015,-0.0951 -2.290883,-0.54527 -2.849799,0.22653 -0.133217,0.18395 0.02112,0.48292 0.160608,0.66215 1.273098,1.63602 3.687444,1.89698 5.49839,2.90585 1.513648,0.84325 2.981557,1.7663 4.483939,2.62946 1.277088,0.73372 2.41311,1.84658 3.850685,2.16703 1.5643,0.3487 3.264311,0.12007 4.794943,-0.35517 0.589063,-0.18287 2.045316,-0.50736 1.598319,-0.93236 z"
       id="path893-9"
       inkscape:connector-curvature="0"
       sodipodi:nodetypes="caccaaaaaasc" />
    <path
       style="fill:#d0cdd2;fill-opacity:1;stroke:none;stroke-width:0.45840564px;stroke-linecap:butt;stroke-linejoin:miter;stroke-opacity:1"
       d="m 20.906198,120.29096 c 1.863562,-1.71187 3.576933,-2.66113 5.94907,-4.71583 2.372137,-2.05469 5.025756,-4.24298 7.649645,-6.18668 1.311943,-0.97186 2.616868,-1.88237 3.874959,-2.68418 1.258093,-0.80183 2.469242,-1.49547 3.595619,-2.03239 2.444173,-1.16508 4.93122,-2.23446 7.45357,-3.21689 2.52235,-0.98243 5.080249,-1.877957 7.66755,-2.695828 2.587307,-0.81787 5.203991,-1.557967 7.843037,-2.22935 2.639041,-0.6714 5.300664,-1.273602 7.978225,-1.81662 2.677567,-0.543001 5.371162,-1.026662 8.074032,-1.459368 2.702865,-0.432723 5.414584,-0.814457 8.129537,-1.154974 5.429911,-0.681033 10.870874,-1.196175 16.269818,-1.616961 3.31417,-0.258289 6.63092,-0.41467 9.94884,-0.486155 3.31791,-0.07156 6.63749,-0.05769 9.95779,0.02599 3.32029,0.08368 6.64096,0.236927 9.96226,0.444072 3.32131,0.207144 6.64311,0.467444 9.96406,0.766396 6.64188,0.597906 13.28158,1.348484 19.91379,2.123699 6.63221,0.775233 13.25655,1.575795 19.86811,2.275021 2.07221,0.219168 4.13998,0.513408 6.20372,0.859521 2.0637,0.346096 4.12338,0.744203 6.18131,1.168385 4.11584,0.848398 8.22252,1.804094 12.33128,2.671652 2.05438,0.43378 4.10947,0.84519 6.1661,1.21047 2.05663,0.36527 4.11527,0.68413 6.17683,0.93204 2.06157,0.2479 4.12646,0.42509 6.19564,0.50674 2.06917,0.0816 4.14214,0.0681 6.22161,-0.0653 1.26558,-0.0813 2.81402,-0.37992 4.42469,-0.78161 1.61065,-0.40171 3.28416,-0.90708 4.79894,-1.40209 3.00404,-0.981667 5.34017,-1.907389 5.37999,-1.923138 -0.45293,-0.451002 -0.79863,-0.71837 -1.23286,-1.118261 l -3.70128,-3.189152 c 0,0 -7.46387,3.20516 -11.427,3.293001 -12.91315,0.286132 -25.02102,-6.466699 -37.67253,-9.068722 -20.42364,-4.20055 -40.92238,-8.350942 -61.65736,-10.548707 -14.95653,-1.58529 -30.26773,-4.480237 -45.082225,-1.883775 -10.826817,1.897566 -20.50554,7.956144 -30.514421,12.499618 -7.797772,3.539735 -15.970187,6.566477 -22.98027,11.485206 -5.768333,4.04744 -11.638023,8.55919 -15.320775,14.56692 -1.876089,3.06049 -3.352527,6.33581 -2.119858,7.08042 0.488995,0.29539 1.041483,0.17309 1.962055,0.0314 0.7106,-0.10949 1.005399,-1.14908 1.566502,-1.66452 z"
       id="path855-2"
       inkscape:connector-curvature="0"
       sodipodi:nodetypes="acscsscssccscccsscccsscccccccccssscssssa" />
    <circle
       style="opacity:1;fill:#e8e8e8;fill-opacity:1;stroke:none;stroke-width:0.63238329;stroke-linecap:round;stroke-miterlimit:4;stroke-dasharray:none;stroke-opacity:1"
       id="path876"
       cx="39.369255"
       cy="109.72124"
       r="5.1501265" />
    <circle
       style="opacity:1;fill:#494949;fill-opacity:1;stroke:none;stroke-width:0.38841182;stroke-linecap:round;stroke-miterlimit:4;stroke-dasharray:none;stroke-opacity:1"
       id="path876-6"
       cx="39.315975"
       cy="109.62578"
       r="3.1632242" />
    <ellipse
       style="opacity:1;fill:#e8e8e8;fill-opacity:1;stroke:none;stroke-width:0.07785473;stroke-linecap:round;stroke-miterlimit:4;stroke-dasharray:none;stroke-opacity:1"
       id="path876-6-2"
       cx="39.150341"
       cy="107.32486"
       rx="1.2481978"
       ry="0.32207847" />
    <g
       id="g1233"
       style="opacity:0.41100003;fill:#c4c4c4;fill-opacity:1"
       transform="matrix(1.7325569,0,0,1.7325569,-12.398403,-121.3248)">
      <path
         sodipodi:nodetypes="ccscssc"
         inkscape:connector-curvature="0"
         id="path1042"
         d="m 119.21515,125.07774 c 0,0 -1.33761,3.4145 -1.52311,5.29103 -0.0921,1.43142 -0.0434,3.44408 0.21966,4.80063 0.14174,0.73105 0.40261,0.83439 0.6087,1.54136 0,0 1.47301,-4.21634 1.54983,-6.48695 0.0332,-0.97966 0.0573,-2.64847 -0.18787,-3.77271 -0.19439,-0.89154 -0.66721,-1.37336 -0.66721,-1.37336 z"
         style="fill:#c4c4c4;fill-opacity:1;stroke:none;stroke-width:0.22719392px;stroke-linecap:butt;stroke-linejoin:miter;stroke-opacity:1" />
      <path
         sodipodi:nodetypes="ccscssc"
         inkscape:connector-curvature="0"
         id="path1042-6"
         d="m 113.24267,124.30983 c 0,0 -1.46774,3.19656 -1.77441,5.03451 -0.18896,1.40931 -0.29258,3.41719 -0.15303,4.80452 0.0752,0.74765 0.30491,0.8889 0.44042,1.62212 0,0 1.64983,-3.97363 1.88661,-6.21938 0.10219,-0.96893 0.24678,-2.62425 0.1064,-3.77802 -0.1113,-0.91495 -0.50599,-1.46375 -0.50599,-1.46375 z"
         style="fill:#c4c4c4;fill-opacity:1;stroke:none;stroke-width:0.21733606px;stroke-linecap:butt;stroke-linejoin:miter;stroke-opacity:1" />
      <path
         sodipodi:nodetypes="ccscssc"
         inkscape:connector-curvature="0"
         id="path1042-6-0"
         d="m 107.1696,123.61018 c 0,0 -1.50935,3.19656 -1.82472,5.03451 -0.19432,1.40931 -0.30088,3.41719 -0.15737,4.80452 0.0773,0.74765 0.31355,0.8889 0.45291,1.62212 0,0 1.69661,-3.97363 1.9401,-6.21938 0.10506,-0.96893 0.25378,-2.62425 0.1094,-3.77802 -0.11448,-0.91495 -0.52033,-1.46375 -0.52033,-1.46375 z"
         style="fill:#c4c4c4;fill-opacity:1;stroke:none;stroke-width:0.22039601px;stroke-linecap:butt;stroke-linejoin:miter;stroke-opacity:1" />
      <path
         sodipodi:nodetypes="ccscssc"
         inkscape:connector-curvature="0"
         id="path1042-6-6"
         d="m 100.82229,122.66427 c 0,0 -1.634218,3.53517 -1.975672,5.5678 -0.210388,1.5586 -0.32576,3.77917 -0.17039,5.31345 0.08374,0.82685 0.339494,0.98306 0.490372,1.79395 0,0 1.83697,-4.39455 2.10059,-6.87818 0.11378,-1.07157 0.27479,-2.90223 0.11843,-4.17822 -0.12395,-1.01186 -0.56337,-1.6188 -0.56337,-1.6188 z"
         style="fill:#c4c4c4;fill-opacity:1;stroke:none;stroke-width:0.24117106px;stroke-linecap:butt;stroke-linejoin:miter;stroke-opacity:1" />
      <path
         sodipodi:nodetypes="ccscssc"
         inkscape:connector-curvature="0"
         id="path1042-6-6-2"
         d="m 94.712813,120.48692 c 0,0 -2.402166,3.57402 -3.149505,5.85372 -0.518549,1.76738 -1.061972,4.35466 -1.188342,6.23065 -0.06809,1.011 0.173284,1.29215 0.17936,2.30946 0,0 2.780007,-4.51593 3.530418,-7.35916 0.323807,-1.2267 0.841624,-3.33493 0.918007,-4.90528 0.06061,-1.24527 -0.289938,-2.12939 -0.289938,-2.12939 z"
         style="fill:#c4c4c4;fill-opacity:1;stroke:none;stroke-width:0.27777252px;stroke-linecap:butt;stroke-linejoin:miter;stroke-opacity:1" />
      <path
         sodipodi:nodetypes="ccscssc"
         inkscape:connector-curvature="0"
         id="path1042-6-6-2-6"
         d="m 87.701145,121.01524 c 0,0 -2.664216,2.89837 -3.641007,4.94753 -0.701264,1.60419 -1.529287,4.00764 -1.883259,5.8187 -0.190758,0.976 -0.0042,1.3139 -0.12742,2.31504 0,0 3.131377,-3.72738 4.18238,-6.32948 0.453492,-1.12265 1.19726,-3.06194 1.466497,-4.58544 0.213539,-1.2081 0.0028,-2.16635 0.0028,-2.16635 z"
         style="fill:#c4c4c4;fill-opacity:1;stroke:none;stroke-width:0.26887164px;stroke-linecap:butt;stroke-linejoin:miter;stroke-opacity:1" />
      <path
         sodipodi:nodetypes="ccscssc"
         inkscape:connector-curvature="0"
         id="path1042-6-6-2-6-1"
         d="m 80.155057,119.0507 c 0,0 -2.765061,2.89837 -3.778825,4.94753 -0.727809,1.60419 -1.587174,4.00764 -1.954544,5.8187 -0.197978,0.976 -0.0043,1.3139 -0.132243,2.31504 0,0 3.249906,-3.72738 4.340691,-6.32948 0.470657,-1.12265 1.242577,-3.06194 1.522006,-4.58544 0.221622,-1.2081 0.0029,-2.16635 0.0029,-2.16635 z"
         style="fill:#c4c4c4;fill-opacity:1;stroke:none;stroke-width:0.273913px;stroke-linecap:butt;stroke-linejoin:miter;stroke-opacity:1" />
      <path
         sodipodi:nodetypes="ccscssc"
         inkscape:connector-curvature="0"
         id="path1042-6-6-2-6-1-8"
         d="m 71.555101,119.03759 c 0,0 -2.548167,2.66604 -3.48241,4.55093 -0.670718,1.4756 -1.462673,3.68638 -1.801226,5.35227 -0.18245,0.89776 -0.004,1.20857 -0.121871,2.12947 0,0 2.99498,-3.4286 4.000202,-5.82211 0.433739,-1.03265 1.145107,-2.81649 1.402618,-4.21786 0.204238,-1.11127 0.0027,-1.9927 0.0027,-1.9927 z"
         style="fill:#c4c4c4;fill-opacity:1;stroke:none;stroke-width:0.25219128px;stroke-linecap:butt;stroke-linejoin:miter;stroke-opacity:1" />
      <path
         sodipodi:nodetypes="ccscssc"
         inkscape:connector-curvature="0"
         id="path1042-6-6-2-6-1-7"
         d="m 64.089757,121.96278 c 0,0 -1.624057,1.87891 -2.21949,3.20732 -0.427478,1.03994 -0.932225,2.59801 -1.148001,3.77206 -0.116282,0.6327 -0.0025,0.85175 -0.07767,1.50075 0,0 1.90883,-2.41632 2.549503,-4.10318 0.27644,-0.72777 0.729827,-1.98495 0.893949,-2.97259 0.13017,-0.78316 0.0017,-1.40436 0.0017,-1.40436 z"
         style="fill:#c4c4c4;fill-opacity:1;stroke:none;stroke-width:0.16901977px;stroke-linecap:butt;stroke-linejoin:miter;stroke-opacity:1" />
    </g>
    <path
       style="opacity:0.70200004;fill:#494949;fill-opacity:1;stroke:none;stroke-width:0.45912755;stroke-linecap:butt;stroke-linejoin:round;stroke-miterlimit:4;stroke-dasharray:none;stroke-opacity:1"
       d="m 90.808356,123.94404 c -2e-6,3.75159 -2.504567,6.79284 -5.594102,6.79284 -3.089537,0 -8.344536,-1.20763 -8.344538,-4.9592 -7e-6,-3.7516 -0.896298,-4.18894 1.926858,-5.87606 2.652068,-1.58487 12.011787,0.29085 12.011782,4.04242 z"
       id="path1235"
       inkscape:connector-curvature="0"
       sodipodi:nodetypes="cscsc" />
    <path
       style="fill:#d4c095;fill-opacity:1;stroke:none;stroke-width:0.45840564px;stroke-linecap:butt;stroke-linejoin:miter;stroke-opacity:1"
       d="m 85.424912,129.41047 c 0.479936,0.71825 7.755709,1.79815 11.42737,0.75345 5.195008,-1.47815 8.603918,-6.55761 13.185428,-9.41816 3.43161,-2.1426 7.36616,-3.44723 10.67391,-5.77648 1.05731,-0.74454 1.80583,-1.88244 2.88824,-2.58999 1.38569,-0.90578 4.52072,-2.0563 4.52072,-2.0563 0,0 -6.7334,0.36412 -13.97756,1.62065 -4.8069,0.83378 -11.36246,2.57171 -14.996213,3.24001 -6.499468,1.19534 -10.364182,1.77048 -17.865887,3.67847 -1.350944,0.3436 -3.147044,1.66827 -2.903937,2.77835 0.243106,1.11008 4.594585,1.15546 5.964837,2.88824 1.033889,1.30742 0.603156,4.16351 1.083092,4.88176 z"
       id="path853"
       inkscape:connector-curvature="0"
       sodipodi:nodetypes="zaaaacssszaz" />
  </g>
</svg>
