<?xml version="1.0" encoding="UTF-8" standalone="no"?>
<!-- Created with Inkscape (http://www.inkscape.org/) -->

<svg
   width="432.28476mm"
   height="183.33368mm"
   viewBox="0 0 432.28476 183.33368"
   version="1.1"
   id="svg1086"
   inkscape:version="1.1 (c68e22c387, 2021-05-23)"
   sodipodi:docname="bigeye.svg"
   xmlns:inkscape="http://www.inkscape.org/namespaces/inkscape"
   xmlns:sodipodi="http://sodipodi.sourceforge.net/DTD/sodipodi-0.dtd"
   xmlns="http://www.w3.org/2000/svg"
   xmlns:svg="http://www.w3.org/2000/svg">
  <sodipodi:namedview
     id="namedview1088"
     pagecolor="#ffffff"
     bordercolor="#666666"
     borderopacity="1.0"
     inkscape:pageshadow="2"
     inkscape:pageopacity="0.0"
     inkscape:pagecheckerboard="0"
     inkscape:document-units="mm"
     showgrid="false"
     inkscape:zoom="0.58268356"
     inkscape:cx="231.68664"
     inkscape:cy="405.88068"
     inkscape:window-width="1920"
     inkscape:window-height="1051"
     inkscape:window-x="-9"
     inkscape:window-y="-9"
     inkscape:window-maximized="1"
     inkscape:current-layer="layer1"
     fit-margin-top="0"
     fit-margin-left="0"
     fit-margin-right="0"
     fit-margin-bottom="0" />
  <defs
     id="defs1083" />
  <g
     inkscape:label="Layer 1"
     inkscape:groupmode="layer"
     id="layer1"
     transform="translate(63.574053,-32.239481)">
    <path
       style="fill:#415d70;fill-opacity:1;stroke:none;stroke-width:0.565;stroke-linecap:butt;stroke-linejoin:miter;stroke-miterlimit:4;stroke-dasharray:none;stroke-opacity:1"
       d="m 302.41367,133.38518 c 0,0 22.87129,-29.08558 36.44146,-42.342699 15.01759,-14.671141 29.85557,-12.941199 29.85557,-12.941199 0,0 -13.89482,11.209022 -18.73069,18.276606 -32.26108,47.149272 -9.47883,85.587402 12.60065,112.724672 -15.66569,-5.54772 -30.4337,-7.81698 -59.59764,-62.66266 z"
       id="path7067"
       sodipodi:nodetypes="cscsccc" />
    <path
       style="fill:#d7d49a;fill-opacity:1;stroke:none;stroke-width:0.264583px;stroke-linecap:butt;stroke-linejoin:miter;stroke-opacity:1"
       d="m 56.759652,181.63089 10.330256,8.28691 c 6.485187,9.6989 16.75743,18.07233 29.28798,25.65536 l -6.924677,-26.10944 -19.411802,-7.49228 z"
       id="path4040"
       sodipodi:nodetypes="cccccc" />
    <path
       style="fill:#deddc3;fill-opacity:1;stroke:none;stroke-width:0.264583px;stroke-linecap:butt;stroke-linejoin:miter;stroke-opacity:1"
       d="m 167.78153,174.81973 c 0,0 34.31689,31.3782 50.74313,34.05579 13.82833,2.25412 -21.05473,-21.14059 -19.52532,-34.16931 0.67105,-5.7165 11.80601,-12.60064 11.80601,-12.60064 z"
       id="path4170"
       sodipodi:nodetypes="csacc" />
    <path
       style="fill:#d7d49a;fill-opacity:1;stroke:none;stroke-width:0.565;stroke-linecap:butt;stroke-linejoin:miter;stroke-miterlimit:4;stroke-dasharray:none;stroke-opacity:1"
       d="m 47.930328,78.027897 c 3.404738,-15.904283 9.453754,-31.03472 17.202208,-45.788416 0.830062,2.852337 1.990951,6.236029 5.203594,5.462699 0.842377,4.301939 2.505587,6.169567 5.026915,5.353704 1.470374,2.613279 1.661747,7.187693 6.096794,5.255138 0.986868,3.568082 2.206394,5.641497 4.755219,4.199032 0.999878,4.575322 3.090947,5.937693 6.016525,4.8429 1.023792,3.424897 3.152031,4.84171 6.530212,3.985899 1.426265,2.608037 3.643325,2.843712 6.243565,1.929829 1.77821,3.129057 4.0988,2.926369 6.62254,1.47575 2.06688,3.915816 4.9659,3.301042 7.98302,2.043348 1.6147,2.164948 3.98021,2.302703 6.66097,1.58927 2.44678,2.539664 4.89355,2.456501 7.34033,1.929829 1.78089,1.710549 3.6999,3.103412 6.5371,2.38443 0.30737,2.823039 1.69238,5.132913 4.24723,6.885723 l -3.85965,2.724462 z"
       id="path4414"
       sodipodi:nodetypes="ccccccccccccccccc" />
    <path
       style="fill:#d7d49a;fill-opacity:1;stroke:none;stroke-width:0.264583px;stroke-linecap:butt;stroke-linejoin:miter;stroke-opacity:1"
       d="m 149.985,81.353918 c 14.06787,-12.36541 33.03484,-22.631493 44.38945,-24.723243 12.47453,-2.298062 -21.20374,15.491846 -17.45878,26.445969 l 1.56528,4.57849 z"
       id="path6525"
       sodipodi:nodetypes="csscc" />
    <g
       id="g32561"
       style="fill:#d7d49a;fill-opacity:1">
      <path
         style="fill:#d7d49a;fill-opacity:1;stroke:none;stroke-width:0.264583px;stroke-linecap:butt;stroke-linejoin:miter;stroke-opacity:1"
         d="m 186.22842,88.885616 8.05987,-4.711052 0.79463,8.230148 z"
         id="path30210" />
      <path
         style="fill:#d7d49a;fill-opacity:1;stroke:none;stroke-width:0.264583px;stroke-linecap:butt;stroke-linejoin:miter;stroke-opacity:1"
         d="m 201.09945,94.987281 8.05987,-4.711052 0.79463,8.230148 z"
         id="path30210-1" />
      <path
         style="fill:#d7d49a;fill-opacity:1;stroke:none;stroke-width:0.264583px;stroke-linecap:butt;stroke-linejoin:miter;stroke-opacity:1"
         d="m 215.51641,100.60649 8.05987,-4.711056 0.79463,8.230146 z"
         id="path30210-0" />
      <path
         style="fill:#d7d49a;fill-opacity:1;stroke:none;stroke-width:0.264583px;stroke-linecap:butt;stroke-linejoin:miter;stroke-opacity:1"
         d="m 229.93336,106.90681 8.05987,-4.71106 0.79463,8.23015 z"
         id="path30210-7" />
      <path
         style="fill:#d7d49a;fill-opacity:1;stroke:none;stroke-width:0.264583px;stroke-linecap:butt;stroke-linejoin:miter;stroke-opacity:1"
         d="m 241.00149,112.18545 8.05987,-4.71105 0.79463,8.23015 z"
         id="path30210-8" />
      <path
         style="fill:#d7d49a;fill-opacity:1;stroke:none;stroke-width:0.264583px;stroke-linecap:butt;stroke-linejoin:miter;stroke-opacity:1"
         d="m 252.12638,117.35058 8.05987,-4.71105 0.79463,8.23015 z"
         id="path30210-3" />
      <path
         style="fill:#d7d49a;fill-opacity:1;stroke:none;stroke-width:0.264583px;stroke-linecap:butt;stroke-linejoin:miter;stroke-opacity:1"
         d="m 263.98915,122.45895 8.05987,-4.71105 0.79463,8.23015 z"
         id="path30210-2" />
      <path
         style="fill:#d7d49a;fill-opacity:1;stroke:none;stroke-width:0.264583px;stroke-linecap:butt;stroke-linejoin:miter;stroke-opacity:1"
         d="m 275.38683,127.35254 7.44135,-5.63753 1.76927,8.0769 z"
         id="path30210-06" />
      <path
         style="fill:#d7d49a;fill-opacity:1;stroke:none;stroke-width:0.264583px;stroke-linecap:butt;stroke-linejoin:miter;stroke-opacity:1"
         d="m 214.63505,162.11837 -2.33085,9.04005 -6.40304,-5.23144 z"
         id="path30210-25" />
      <path
         style="fill:#d7d49a;fill-opacity:1;stroke:none;stroke-width:0.264583px;stroke-linecap:butt;stroke-linejoin:miter;stroke-opacity:1"
         d="m 224.93495,158.09638 -2.33085,9.04005 -6.40304,-5.23144 z"
         id="path30210-25-8" />
      <path
         style="fill:#d7d49a;fill-opacity:1;stroke:none;stroke-width:0.264583px;stroke-linecap:butt;stroke-linejoin:miter;stroke-opacity:1"
         d="m 235.8328,155.08812 -2.33085,9.04005 -6.40304,-5.23144 z"
         id="path30210-25-1" />
      <path
         style="fill:#d7d49a;fill-opacity:1;stroke:none;stroke-width:0.264583px;stroke-linecap:butt;stroke-linejoin:miter;stroke-opacity:1"
         d="m 246.50362,151.85282 -2.33085,9.04005 -6.40304,-5.23144 z"
         id="path30210-25-7" />
      <path
         style="fill:#d7d49a;fill-opacity:1;stroke:none;stroke-width:0.264583px;stroke-linecap:butt;stroke-linejoin:miter;stroke-opacity:1"
         d="m 257.67439,148.41126 -3.25143,8.7512 -5.8289,-5.86437 z"
         id="path30210-25-5" />
      <path
         style="fill:#d7d49a;fill-opacity:1;stroke:none;stroke-width:0.264583px;stroke-linecap:butt;stroke-linejoin:miter;stroke-opacity:1"
         d="m 269.34283,145.50902 -3.91109,8.47695 -5.36341,-6.29291 z"
         id="path30210-25-5-8" />
      <path
         style="fill:#d7d49a;fill-opacity:1;stroke:none;stroke-width:0.264583px;stroke-linecap:butt;stroke-linejoin:miter;stroke-opacity:1"
         d="m 279.46749,142.42847 -3.91109,8.47695 -5.36341,-6.29291 z"
         id="path30210-25-5-8-5" />
      <path
         style="fill:#d7d49a;fill-opacity:1;stroke:none;stroke-width:0.264583px;stroke-linecap:butt;stroke-linejoin:miter;stroke-opacity:1"
         d="m 297.23325,139.47697 -3.91109,8.47695 -5.3634,-6.29291 z"
         id="path30210-25-5-8-9" />
      <path
         style="fill:#d7d49a;fill-opacity:1;stroke:none;stroke-width:0.264583px;stroke-linecap:butt;stroke-linejoin:miter;stroke-opacity:1"
         d="m 288.74199,140.24443 -3.91109,8.47695 -5.36341,-6.29291 z"
         id="path30210-25-5-8-50" />
      <path
         style="fill:#d7d49a;fill-opacity:1;stroke:none;stroke-width:0.264583px;stroke-linecap:butt;stroke-linejoin:miter;stroke-opacity:1"
         d="m 287.43808,131.58331 7.08952,-6.07406 2.25093,7.95613 z"
         id="path30210-6" />
    </g>
    <path
       style="fill:#ebefef;fill-opacity:1;stroke:none;stroke-width:0.765;stroke-linecap:butt;stroke-linejoin:miter;stroke-miterlimit:4;stroke-dasharray:none;stroke-opacity:1"
       d="m -63.574053,131.64324 c 59.8052298,60.79871 166.944053,60.7747 249.555303,42.05403 28.66941,-6.49682 96.75408,-38.60987 119.36686,-27.60538 5.14504,2.50383 19.1782,0.26819 28.24032,-1.15651 1.82352,-1.54418 2.59017,-5.91883 1.6266,-8.21862 l -134.86044,-14.70595 -136.780537,-6.10054 -75.132972,-12.20108 -45.994864,20.95054 16.346276,7.47674 z"
       id="path855"
       sodipodi:nodetypes="csscccccccc" />
    <path
       style="fill:#d7d49a;fill-opacity:1;stroke:none;stroke-width:0.465;stroke-linecap:butt;stroke-linejoin:miter;stroke-miterlimit:4;stroke-dasharray:none;stroke-opacity:1"
       d="m -8.17339,109.77317 c -0.0028,1.78181 1.7403619,5.01666 3.7461372,4.76781 14.2487139,-1.76781 -31.9410432,-0.67286 -15.8969812,7.26523 l 2.100107,6.58413 c 7.893858,-1.65228 6.895112,-6.7634 12.4636656,-6.24287 41.7767994,3.90513 150.0408414,1.54905 204.5214614,7.54726 34.04022,3.74776 76.98343,7.23852 121.59046,8.6853 L 152.34291,97.399564 22.249784,98.648275 Z"
       id="path2181"
       sodipodi:nodetypes="csccsscccc" />
    <path
       style="fill:#98c1c3;fill-opacity:1;stroke:none;stroke-width:0.264583px;stroke-linecap:butt;stroke-linejoin:miter;stroke-opacity:1"
       d="m -15.132957,113.17874 v 0 c 0.950277,-0.0711 1.415846,5.1564 2.366123,5.08687 C 79.598777,111.5076 175.09493,107.0201 267.46054,132.92757 220.63519,112.10966 172.27494,92.542421 102.74594,90.223783 62.755251,97.085602 -14.793359,86.491376 -15.132957,113.17874 Z"
       id="path49695"
       sodipodi:nodetypes="ccsccc" />
    <path
       style="fill:#526e82;fill-opacity:1;stroke:none;stroke-width:0.465;stroke-linecap:butt;stroke-linejoin:miter;stroke-miterlimit:4;stroke-dasharray:none;stroke-opacity:1"
       d="m -57.553783,124.65973 c -1.840059,-0.19651 -5.108871,-2.1724 -5.108871,-2.1724 0,0 14.015991,-9.29323 22.251551,-13.05472 8.506027,-3.88502 16.360992,-10.096902 25.232215,-13.679257 20.5270117,-8.289167 40.649071,-15.751214 63.992189,-17.765591 45.160474,-3.897089 92.115329,-3.063336 135.655569,9.458761 30.5,8.771747 59.68888,24.558067 84.91244,35.040807 11.34226,4.71377 23.36095,7.95812 35.53153,9.23349 2.48639,0.26056 5.00177,-0.55813 7.49229,-0.34056 7.72493,0.67486 16.13231,1.99952 22.70387,5.06994 0.72617,0.33929 0.90724,2.36091 0.10603,2.38323 -11.27283,0.31399 -25.60737,-1.36732 -39.96673,-2.68926 -9.62366,-0.88597 -19.58232,-0.99151 -28.59146,-2.53195 -28.34597,-4.84677 -51.21845,-17.98151 -77.86478,-22.3633 -54.8714,-9.02318 -85.50839,-15.462438 -166.646345,-7.71932 -9.838147,0.93888 -34.632839,9.64914 -34.632839,9.64914 l -16.064253,10.06928 c -3.430162,-4.59973 -9.290496,-3.19874 -14.699478,-1.32829 -4.587776,1.58648 -9.476038,3.25549 -14.302928,2.74 z"
       id="path2970"
       sodipodi:nodetypes="acsasssaascssasccsa" />
    <path
       style="fill:#deddc3;fill-opacity:1;stroke:none;stroke-width:0.264583px;stroke-linecap:butt;stroke-linejoin:miter;stroke-opacity:1"
       d="m 49.834974,128.27681 c 36.10472,-11.72262 72.088246,-12.11187 89.226176,-7.03819 0,0 -22.7484,10.6233 -34.73691,14.18991 -5.171193,1.53844 -10.79817,1.28913 -15.892702,3.06502 -4.794495,1.6713 -8.636863,5.60827 -13.508796,7.0382 -2.005186,0.58853 -6.243564,0.56759 -6.243564,0.56759 1.692687,-8.19439 -6.67915,-13.54446 -18.844204,-17.82253 z"
       id="path3749"
       sodipodi:nodetypes="ccaaacc" />
    <path
       style="fill:#d8dbdb;fill-opacity:1;stroke:none;stroke-width:0.264583px;stroke-linecap:butt;stroke-linejoin:miter;stroke-opacity:1"
       d="m -33.374676,144.62359 c 3.754289,1.26749 6.840287,-8.55089 3.632618,-10.21673 -4.585363,-2.38132 -11.365466,-5.27154 -16.914376,-8.17339 -3.708786,-1.93954 -6.753024,-6.29991 -10.936282,-6.16847 -1.804348,0.0567 -6.213144,2.27175 -4.540771,2.9515 18.737252,7.61585 28.102584,21.38554 28.758811,21.60709 z"
       id="path27218"
       sodipodi:nodetypes="ssaass" />
    <circle
       style="fill:#526e82;fill-opacity:1;stroke:none;stroke-width:0.564999;stroke-linejoin:round;stroke-miterlimit:4;stroke-dasharray:none;stroke-opacity:1;paint-order:markers fill stroke"
       id="path27466"
       cx="-20.358383"
       cy="120.29379"
       r="8.7409868" />
    <circle
       style="fill:#d7d385;fill-opacity:1;stroke:none;stroke-width:0.429252;stroke-linejoin:round;stroke-miterlimit:4;stroke-dasharray:none;stroke-opacity:1;paint-order:markers fill stroke"
       id="circle27548"
       cx="-20.869221"
       cy="119.89647"
       r="6.6408801" />
    <circle
       style="fill:#6c6b7b;fill-opacity:1;stroke:none;stroke-width:0.304404;stroke-linejoin:round;stroke-miterlimit:4;stroke-dasharray:none;stroke-opacity:1;paint-order:markers fill stroke"
       id="circle27550"
       cx="-21.266539"
       cy="120.18026"
       r="4.7093811" />
    <ellipse
       style="fill:#f7f7ef;fill-opacity:1;stroke:none;stroke-width:0.117495;stroke-linejoin:round;stroke-miterlimit:4;stroke-dasharray:none;stroke-opacity:1;paint-order:markers fill stroke"
       id="circle27552"
       cx="-24.27018"
       cy="117.74419"
       rx="2.0972557"
       ry="1.5754989" />
    <path
       style="fill:#d8dbdb;fill-opacity:1;stroke:none;stroke-width:0.264583px;stroke-linecap:butt;stroke-linejoin:miter;stroke-opacity:1"
       d="m 18.503647,175.72788 c 0,0 15.944864,-2.51114 20.546992,-8.28691 7.187416,-9.02036 5.942242,-22.64618 5.448927,-34.16931 -0.308534,-7.20691 -1.329968,-14.92754 -5.221888,-21.00107 -3.921739,-6.12006 -17.027894,-13.622317 -17.027894,-13.622317 0,0 16.425357,6.522397 20.206434,13.735837 4.308122,8.21893 4.476882,18.50427 4.635656,28.49094 0.157835,9.92758 -1.254674,20.58035 -6.679001,28.04167 -4.855032,6.67825 -21.909226,6.81116 -21.909226,6.81116 z"
       id="path29510"
       sodipodi:nodetypes="caaacsssc" />
  </g>
</svg>
