<?xml version="1.0" encoding="UTF-8" standalone="no"?>
<!-- Created with Inkscape (http://www.inkscape.org/) -->

<svg
   width="752.04297"
   height="305.79004"
   viewBox="0 0 198.97804 80.906944"
   version="1.1"
   id="svg8"
   inkscape:version="1.2 (dc2aedaf03, 2022-05-15)"
   sodipodi:docname="blackfin.svg"
   inkscape:export-filename="blackfin.png"
   inkscape:export-xdpi="200"
   inkscape:export-ydpi="200"
   xml:space="preserve"
   xmlns:inkscape="http://www.inkscape.org/namespaces/inkscape"
   xmlns:sodipodi="http://sodipodi.sourceforge.net/DTD/sodipodi-0.dtd"
   xmlns:xlink="http://www.w3.org/1999/xlink"
   xmlns="http://www.w3.org/2000/svg"
   xmlns:svg="http://www.w3.org/2000/svg"
   xmlns:rdf="http://www.w3.org/1999/02/22-rdf-syntax-ns#"
   xmlns:cc="http://creativecommons.org/ns#"
   xmlns:dc="http://purl.org/dc/elements/1.1/"><defs
     id="defs2"><pattern
       inkscape:collect="always"
       xlink:href="#Strips1_1"
       id="pattern2321"
       patternTransform="matrix(12.376036,0.36537977,-0.36537977,12.376036,-0.41309984,64.660225)" /><pattern
       inkscape:stockid="Stripes 1:1"
       id="Strips1_1"
       patternTransform="translate(0,0) scale(10,10)"
       height="1"
       width="2"
       patternUnits="userSpaceOnUse"
       inkscape:collect="always"><rect
         id="rect1561"
         height="2"
         width="1"
         y="-0.5"
         x="0"
         style="fill:black;stroke:none" /></pattern></defs><sodipodi:namedview
     id="base"
     pagecolor="#ffffff"
     bordercolor="#666666"
     borderopacity="1.0"
     inkscape:pageopacity="0.0"
     inkscape:pageshadow="2"
     inkscape:zoom="5.6568542"
     inkscape:cx="10.606602"
     inkscape:cy="126.57211"
     inkscape:document-units="mm"
     inkscape:current-layer="layer2"
     showgrid="false"
     showguides="true"
     inkscape:guide-bbox="true"
     inkscape:measure-start="0,0"
     inkscape:measure-end="0,0"
     inkscape:window-width="1920"
     inkscape:window-height="1009"
     inkscape:window-x="1912"
     inkscape:window-y="-8"
     inkscape:window-maximized="1"
     units="px"
     fit-margin-top="0"
     fit-margin-left="0"
     fit-margin-right="0"
     fit-margin-bottom="0"
     inkscape:showpageshadow="2"
     inkscape:pagecheckerboard="0"
     inkscape:deskcolor="#d1d1d1"><sodipodi:guide
       position="-39.591473,45.937326"
       orientation="1,0"
       id="guide4485"
       inkscape:locked="false" /></sodipodi:namedview><metadata
     id="metadata5"><rdf:RDF><cc:Work
         rdf:about=""><dc:format>image/svg+xml</dc:format><dc:type
           rdf:resource="http://purl.org/dc/dcmitype/StillImage" /></cc:Work></rdf:RDF></metadata><g
     inkscape:groupmode="layer"
     id="layer2"
     inkscape:label="Layer 2"
     style="display:inline"
     transform="translate(-5.9328707,-27.842357)"><path
       style="display:inline;fill:#9ba1a7;fill-opacity:1;stroke:#000000;stroke-width:0;stroke-linecap:butt;stroke-linejoin:miter;stroke-miterlimit:4;stroke-dasharray:none;stroke-opacity:1"
       d="m 113.27665,91.334047 2.97073,0.814955 c 3.28537,3.531491 7.23107,6.538624 11.77375,8.246578 2.78205,1.07354 5.3602,2.2722 8.39461,2.35359 -1.71169,-2.00905 -3.98349,-4.686777 -4.27056,-7.084001 -0.32403,-1.986974 0.44519,-4.067714 1.5398,-5.705443 0.92377,-1.382108 3.04293,-3.139772 4.84632,-4.178491 2.10211,-1.231252 2.95773,-1.655889 4.59916,-2.579622 0.64335,-0.484643 0.0683,-0.48156 -0.44545,-0.502992 -1.64296,-0.102959 -3.28362,-0.420547 -4.91091,-0.54268 -8.16581,3.059369 -16.33164,6.118738 -24.49745,9.178106 z"
       id="path4360"
       inkscape:connector-curvature="0"
       sodipodi:nodetypes="cccccsccccc" /><path
       style="display:inline;fill:#686f76;fill-opacity:1;stroke:#000000;stroke-width:0;stroke-linecap:butt;stroke-linejoin:miter;stroke-miterlimit:4;stroke-dasharray:none;stroke-opacity:1"
       d="m 179.12282,67.32114 c 2.41973,-4.360561 5.04735,-8.591924 7.81419,-12.73209 5.02078,-6.689892 10.09429,-16.789656 17.97389,-19.652305 -5.15915,5.584688 -7.34574,15.00279 -9.26944,22.520491 -1.27663,4.895777 -2.05681,9.977316 -2.06899,15.036791 -0.0213,8.854243 0.90537,17.864597 3.49402,26.332 1.00387,3.283643 2.95547,6.204953 4.58666,9.223483 -4.32987,-0.8168 -10.37894,-9.050633 -12.32929,-12.011079 -2.54204,-3.831174 -4.33718,-8.109138 -6.42974,-12.203169 -1.72339,-3.371794 -3.09023,-7.627914 -5.04415,-10.178821 -0.41896,-1.776433 -2.34579,-2.277677 -0.59584,-3.894503 z"
       id="path9547"
       inkscape:connector-curvature="0"
       sodipodi:nodetypes="ccccaaccaccc" /><path
       style="display:inline;fill:#9ba1a7;fill-opacity:1;stroke:#000000;stroke-width:0;stroke-linecap:butt;stroke-linejoin:miter;stroke-miterlimit:4;stroke-dasharray:none;stroke-opacity:1"
       d="m 60.960284,91.624619 c 1.632221,3.057369 2.570633,4.856006 4.030043,7.180584 0.885812,1.410957 1.813582,2.802637 2.862343,4.097067 1.213255,1.49745 2.509505,3.01868 3.949828,4.22231 0.755722,0.67589 1.520831,1.68735 2.641687,1.62168 1.042506,-0.16318 1.270435,-1.38396 1.203407,-2.26253 -0.08044,-1.15382 -0.154784,-2.30691 -0.06725,-3.46271 -0.02641,-1.66414 -0.141607,-3.326527 -0.09863,-4.991214 -0.08638,-1.030482 -0.07843,-2.526453 1.18604,-2.808618 0.743724,-0.169786 1.869376,-0.598398 1.308781,-1.547328 -0.66011,-1.585939 -2.421315,-2.266858 -3.946888,-2.738711 -3.14858,-0.870526 -6.447326,-1.028649 -9.698413,-0.975716 -1.128378,0.231938 -2.404772,0.451591 -3.213496,1.344185 -0.07062,0.09664 -0.126832,0.204886 -0.157459,0.321001 z"
       id="path9628"
       inkscape:connector-curvature="0"
       sodipodi:nodetypes="caaccccccccccc" /><path
       style="display:inline;fill:#e8e9f1;fill-opacity:1;stroke:#000000;stroke-width:0;stroke-linecap:butt;stroke-linejoin:miter;stroke-miterlimit:4;stroke-dasharray:none;stroke-opacity:1"
       d="m 143.06349,84.376562 c 0.12831,-0.0613 3.64251,1.409273 3.80034,1.47572 0.67111,-0.178766 2.72708,-1.318547 2.72708,-1.318547 l -2.29432,0.244981 -1.2331,-0.403825 3.55487,-1.36727 2.14312,1.08808 3.01493,-1.408783 -1.91277,0.251844 -2.11648,-0.801365 3.13182,-0.8342 2.52351,1.158527 3.36183,-1.243522 -2.29375,0.213192 -1.13488,-0.561082 2.81789,-1.06248 1.88993,1.019921 3.1699,-1.183364 -1.59142,0.0668 -1.70658,-0.603167 3.20397,-1.309969 1.72523,1.335001 3.77287,-1.108915 -2.44814,-0.04402 -0.88338,-0.397536 3.32202,-0.798981 1.89336,0.829154 2.74628,-0.618504 -2.0944,-0.260292 c -0.59939,-0.320963 -1.56222,-0.869307 -2.11248,-1.023924 0.12546,0.09767 -25.70763,7.616009 -25.70763,7.616009 z"
       id="path9543"
       inkscape:connector-curvature="0"
       sodipodi:nodetypes="cccccccccccccccccccccccccccccccc" /><path
       style="display:inline;opacity:1;fill:#e8e9f1;fill-opacity:1;stroke:#c728d1;stroke-width:0;stroke-linecap:butt;stroke-linejoin:miter;stroke-miterlimit:4;stroke-dasharray:none;stroke-opacity:1"
       d="M 5.9744609,74.422249 C 18.647111,64.034022 32.680419,55.222358 48.120064,49.583314 68.49742,41.80799 90.897126,42.071938 112.28176,44.324363 c 16.05765,1.896687 29.3557,11.924628 44.21401,17.411978 7.4983,2.744969 14.73895,7.008797 22.71545,7.958523 4.17829,1.778542 6.29234,-0.133553 8.75766,0.999438 0,0 -4.56935,1.398677 -6.85481,2.095459 -2.94451,0.897713 -5.89461,1.777165 -8.83553,2.68655 -11.08555,3.427844 -21.9561,7.604906 -33.20781,10.440133 -13.39563,3.375457 -26.90495,7.148844 -40.704454,7.789551 C 75.626127,94.761814 52.599746,92.129959 30.388689,87.140157 22.102167,85.278556 14.173627,81.964231 6.416737,78.506868 7.0220879,76.931997 12.673646,77.477327 13.70119,77.379454 12.303891,75.846364 7.6108469,75.747099 5.9744609,74.422249 Z"
       id="path4502"
       inkscape:connector-curvature="0"
       sodipodi:nodetypes="ccccccaaaaaccc" /><path
       style="display:inline;fill:#9ba1a7;fill-opacity:1;stroke:url(#pattern2321);stroke-width:0;stroke-linecap:butt;stroke-linejoin:miter;stroke-miterlimit:4;stroke-dasharray:none;stroke-opacity:1"
       d="m 64.468644,44.695354 c 3.057932,-5.262149 4.595365,-10.661582 8.274907,-14.11247 -0.07655,0.757532 0.06722,1.334481 0.193777,1.446515 0.244978,-0.505891 1.833068,-3.838366 2.136404,-4.187041 9.477728,12.617665 24.696029,10.545149 35.293018,17.047707 -15.299965,0.217508 -30.598137,-0.386838 -45.898106,-0.194711 z"
       id="path26"
       inkscape:connector-curvature="0"
       sodipodi:nodetypes="cccccc" /><path
       style="display:inline;fill:#e5cb8a;fill-opacity:1;stroke:#000000;stroke-width:0;stroke-linecap:butt;stroke-linejoin:miter;stroke-miterlimit:4;stroke-dasharray:none;stroke-opacity:1"
       d="m 164.69255,68.710796 c 6.11762,0.832332 12.46622,2.37298 18.77874,2.462043 1.48625,0.02097 4.43597,-0.454711 4.43597,-0.454711 -3.37967,-0.395302 -3.0879,-0.09066 -5.8935,-0.622727 -2.05686,-0.379202 -4.75475,-0.614166 -7.07772,-1.185001 -13.94489,-3.426749 -41.07855,-13.202011 -40.94579,-13.388971 0.13277,-0.186956 -40.256401,-7.10572 -40.256401,-7.10572 l -24.35156,1.571602 c 0,0 -20.827504,5.047828 -22.751515,5.563659 -1.924012,0.515831 -17.924855,8.346976 -17.924855,8.346976 50.951709,-7.898334 91.043431,-1.301889 135.986631,4.81285 z"
       id="path9586"
       inkscape:connector-curvature="0"
       sodipodi:nodetypes="saccacccscs" /><path
       style="display:inline;fill:#c3c5cf;fill-opacity:0.601036;stroke:none;stroke-width:0.577531px;stroke-linecap:butt;stroke-linejoin:miter;stroke-opacity:1"
       d="m 43.841776,61.267166 c 6.165184,4.52545 8.374717,12.717571 8.402435,19.600502 0.02297,5.703398 -8.234593,8.172442 -8.234593,8.172442 0,0 9.092627,-0.232399 9.516555,-8.618946 C 53.844767,74.118443 50.27912,65.086501 45.12285,61.065579 Z"
       id="path3953-9"
       sodipodi:nodetypes="cscscc" /><path
       sodipodi:nodetypes="cccccaccccccc"
       inkscape:connector-curvature="0"
       id="path4340"
       d="m 106.95425,44.095312 c 3.2295,-2.098409 7.89778,-4.781977 11.67023,-6.112642 4.47718,-1.431148 8.47637,-2.755349 13.15318,-2.659656 0.59626,0.03075 2.00469,-0.177964 0.81269,0.42144 -1.62128,1.173273 -3.11925,1.62049 -5.02403,3.134075 -1.37509,0.890587 -2.52616,2.380742 -2.75658,3.977247 -0.1562,1.082248 0.11108,2.368538 1.03005,3.114467 1.04168,0.861697 1.61432,1.07309 2.84757,1.563229 0.68311,0.280892 1.62638,1.616572 2.81809,1.921403 -1.96294,0.05316 -3.7302,-1.138645 -5.58104,-0.388958 -2.07674,0.446447 -4.1575,-1.449206 -6.23967,-1.347085 -1.25696,0.04738 -2.49985,0.261387 -3.56661,0.961476 -3.41225,2.682849 -7.53211,-2.079224 -9.16388,-4.584996 z"
       style="display:inline;fill:#9ba1a7;fill-opacity:1;stroke:#000000;stroke-width:0;stroke-linecap:butt;stroke-linejoin:miter;stroke-miterlimit:4;stroke-dasharray:none;stroke-opacity:1" /><path
       style="display:inline;fill:#d3d5e4;fill-opacity:1;stroke:#000000;stroke-width:0;stroke-linecap:butt;stroke-linejoin:miter;stroke-miterlimit:4;stroke-dasharray:none;stroke-opacity:1"
       d="m 9.5535356,73.894322 c 1.5055704,0.675726 3.5506334,1.656523 4.4185074,1.750976 0.999653,0.106257 1.937099,-0.688014 2.976998,-0.482541 0.610167,0.796019 -0.05361,4.116271 -3.428232,2.151209 C 12.020126,76.723754 10.641283,76.462325 9.2469469,75.910857 8.1136407,75.462627 7.1639376,75.62147 5.9328715,74.366661 8.3411372,72.640247 8.4431317,73.395954 9.5535356,73.894322 Z"
       id="path9550"
       inkscape:connector-curvature="0"
       sodipodi:nodetypes="scccacs" /><a
       style="display:inline"
       id="a2364"
       transform="translate(-0.10273193)"
       inkscape:groupmode="layer" /><path
       style="display:inline;fill:#3c4b63;fill-opacity:1;stroke:#163864;stroke-width:0;stroke-linecap:butt;stroke-linejoin:miter;stroke-miterlimit:4;stroke-dasharray:none;stroke-opacity:1"
       d="M 5.9553975,74.368246 C 39.529356,57.821976 73.748622,46.989335 109.60105,51.244217 c 13.60699,1.703927 29.07179,8.644839 42.22751,12.518536 5.18416,1.35462 13.37828,3.817059 23.97902,5.949511 1.26261,0.253988 10.49381,1.232191 12.15714,1.000664 -0.81379,-0.743349 -7.15353,-1.022389 -9.00829,-1.394913 -2.61714,-0.582966 -3.42979,-0.688818 -7.42549,-1.876493 l 2.79666,-0.05544 -3.35831,-1.375379 -1.01084,0.317311 -3.31679,-1.098595 2.59767,-0.01419 -3.16083,-1.389521 -0.85746,0.373735 -3.94852,-1.184716 3.16953,-0.271869 -2.64756,-0.988339 -2.00767,0.166189 -3.59342,-1.283618 3.28744,-0.05877 -3.87495,-1.319406 -2.25004,0.04528 -3.62971,-1.500143 3.04457,0.140618 -3.53392,-1.341825 -1.68401,-0.0084 -4.72647,-1.833575 4.00287,0.444508 -4.54426,-1.891492 -1.7734,0.05854 -3.73518,-1.651479 3.07665,0.357344 -3.25498,-1.60534 -1.57503,-0.01975 c 0,0 -8.76513,-3.55824 -13.36269,-4.569549 -11.34904,-2.496411 -23.054309,-3.682901 -34.6744,-3.603058 -9.866416,0.06779 -20.005503,0.43737 -29.396605,3.46358 C 38.85868,51.779945 20.734983,62.286967 5.9553975,74.368246 Z"
       id="path4344"
       inkscape:connector-curvature="0"
       sodipodi:nodetypes="cccsccccccccccccccccccccccccccccccaaac" /><path
       style="display:inline;fill:#9ba1a7;fill-opacity:1;stroke:#000000;stroke-width:0;stroke-linecap:butt;stroke-linejoin:miter;stroke-miterlimit:4;stroke-dasharray:none;stroke-opacity:1"
       d="m 53.827437,71.683308 c 1.546663,-1.68179 29.626906,-11.379754 44.747702,-9.442597 0.301492,0.03862 0.827045,0.03102 0.815942,0.40711 -0.01111,0.376129 -0.559173,0.402039 -0.890265,0.472122 C 88.170429,65.30661 77.722494,71.666959 70.446694,77.832242 67.056639,80.704867 68.142236,75.2445 65.925672,74.022486 63.012488,71.577552 56.975507,71.809547 53.827437,71.683304 Z"
       id="path2293"
       inkscape:connector-curvature="0"
       sodipodi:nodetypes="cazssccc" /><g
       id="g2543"
       transform="rotate(1.6910617,132.89856,1037.4815)"
       style="display:inline"><circle
         style="fill:#3c4b63;fill-opacity:1;stroke:none;stroke-width:0.250952;stroke-linejoin:round;stroke-dasharray:none;stroke-opacity:1;paint-order:markers fill stroke"
         id="path5971-4-7"
         cx="-3.7241943"
         cy="71.182961"
         r="3.6103411" /><circle
         style="fill:#dbd094;fill-opacity:1;stroke:none;stroke-width:0.218;stroke-linejoin:round;stroke-dasharray:none;stroke-opacity:1;paint-order:markers fill stroke"
         id="path5971-4"
         cx="-3.8811162"
         cy="71.18721"
         r="3.1362762" /><circle
         style="fill:#3c4b63;fill-opacity:1;stroke:none;stroke-width:1.8076;stroke-linejoin:round;paint-order:markers fill stroke"
         id="path5967-7"
         cx="-3.9460013"
         cy="71.223946"
         r="2.231025" /><ellipse
         style="fill:#f1f7fd;fill-opacity:1;stroke:none;stroke-width:0.459;stroke-linejoin:round;stroke-dasharray:none;stroke-opacity:1;paint-order:markers fill stroke"
         id="path5969-6"
         cx="-5.386723"
         cy="70.256035"
         rx="1.1151403"
         ry="0.94242424" /></g></g></svg>
