<?xml version="1.0" encoding="UTF-8" standalone="no"?>
<!-- Created with Inkscape (http://www.inkscape.org/) -->

<svg
   xmlns:dc="http://purl.org/dc/elements/1.1/"
   xmlns:cc="http://creativecommons.org/ns#"
   xmlns:rdf="http://www.w3.org/1999/02/22-rdf-syntax-ns#"
   xmlns:svg="http://www.w3.org/2000/svg"
   xmlns="http://www.w3.org/2000/svg"
   xmlns:sodipodi="http://sodipodi.sourceforge.net/DTD/sodipodi-0.dtd"
   xmlns:inkscape="http://www.inkscape.org/namespaces/inkscape"
   width="297mm"
   height="210mm"
   viewBox="0 0 297 210"
   version="1.1"
   id="svg8"
   inkscape:version="0.92.2 5c3e80d, 2017-08-06"
   sodipodi:docname="gray triggerfish haffey.svg">
  <defs
     id="defs2" />
  <sodipodi:namedview
     id="base"
     pagecolor="#ffffff"
     bordercolor="#666666"
     borderopacity="1.0"
     inkscape:pageopacity="0.0"
     inkscape:pageshadow="2"
     inkscape:zoom="1.1994444"
     inkscape:cx="561.25984"
     inkscape:cy="396.85039"
     inkscape:document-units="mm"
     inkscape:current-layer="layer1"
     showgrid="false"
     inkscape:window-width="1920"
     inkscape:window-height="1044"
     inkscape:window-x="0"
     inkscape:window-y="0"
     inkscape:window-maximized="1" />
  <metadata
     id="metadata5">
    <rdf:RDF>
      <cc:Work
         rdf:about="">
        <dc:format>image/svg+xml</dc:format>
        <dc:type
           rdf:resource="http://purl.org/dc/dcmitype/StillImage" />
        <dc:title></dc:title>
      </cc:Work>
    </rdf:RDF>
  </metadata>
  <g
     inkscape:label="Layer 1"
     inkscape:groupmode="layer"
     id="layer1"
     transform="translate(0,-87)">
    <path
       style="fill:#8c8c8c;fill-opacity:1;stroke:none;stroke-width:0.26458332px;stroke-linecap:butt;stroke-linejoin:miter;stroke-opacity:1"
       d="m 145.20136,153.37834 c 0,0 7.11921,-18.77033 12.37437,-27.24994 6.3856,-10.30366 12.37437,-13.29587 12.37437,-13.29587 0,0 1.37148,10.43739 3.55434,15.13886 4.43882,9.56038 15.10257,21.08378 23.59872,31.88629 10.84423,13.78799 18.46281,21.45953 18.39515,24.71986 -0.0249,1.20105 -2.31069,1.31741 -4.77527,2.11311 -3.32035,1.072 -7.07253,2.62601 -7.07253,2.62601 z"
       id="path887"
       inkscape:connector-curvature="0"
       sodipodi:nodetypes="cscsssscc" />
    <path
       style="fill:#8c8c8c;fill-opacity:1;stroke:none;stroke-width:0.26458332px;stroke-linecap:butt;stroke-linejoin:miter;stroke-opacity:1"
       d="m 200.35946,210.90599 c 0,0 7.59866,3.25141 10.66302,5.9239 0.49606,0.43262 1.45317,0.9787 1.18478,1.5797 -6.27487,14.05113 -19.44763,23.85981 -25.93352,37.64968 -2.32936,4.95252 -4.47584,15.79706 -4.47584,15.79706 0,0 -11.43105,-4.94447 -15.92871,-9.08331 -3.36758,-3.09892 -5.61603,-7.28172 -7.76689,-11.32123 -1.17571,-2.20809 -1.35034,-4.91351 -2.76448,-6.97704 -1.35162,-1.9723 -5.26569,-4.87076 -5.26569,-4.87076 z"
       id="path889"
       inkscape:connector-curvature="0"
       sodipodi:nodetypes="casacaaacc" />
    <path
       style="fill:#7a9298;fill-opacity:1;stroke:none;stroke-width:0.26458332px;stroke-linecap:butt;stroke-linejoin:miter;stroke-opacity:1"
       d="m 95.598402,152.625 10.576688,-25.03215 c 0,0 0.51221,0.30923 0.44732,0.82332 -0.21914,1.73607 -1.20879,5.80845 -0.78465,8.19819 0.24424,1.37615 4.18883,0.18617 4.18883,0.18617 0,0 0.008,7.17674 2.23405,9.58777 1.52439,1.65103 4.18883,2.29025 6.42287,2.04787 2.70895,-0.29391 7.07447,-4.09574 7.07447,-4.09574 0,0 -0.52417,2.11029 0.79123,3.25798 4.5483,3.9684 11.496,5.39893 11.496,5.39893 l -44.215423,7.44681 z"
       id="path964"
       inkscape:connector-curvature="0"
       sodipodi:nodetypes="ccsscaacsccc" />
    <g
       transform="rotate(-3.9269638,-3748.209,-120.95028)"
       id="g2814"
       inkscape:label="upperbody">
      <path
         style="opacity:1;fill:#a3a3a3;fill-opacity:1;stroke:none;stroke-width:0.99999994px;stroke-linecap:butt;stroke-linejoin:miter;stroke-opacity:1"
         d="m 917.73242,441.82617 c -4.69938,-0.71974 -9.42496,-1.43147 -14.36719,-2.02148 -6.28394,-0.75019 -12.75394,-1.38392 -19.38476,-1.86914 -6.63082,-0.48523 -13.4231,-0.82201 -20.34961,-0.98047 -6.92651,-0.15846 -13.98719,-0.13833 -21.1582,0.0918 -7.17102,0.23012 -14.45208,0.66908 -21.81641,1.3496 -7.36433,0.68053 -14.81189,1.6022 -22.31836,2.79493 -7.50647,1.19273 -15.07251,2.65707 -22.66992,4.42382 -13.66696,3.17821 -27.59738,6.61553 -41.68359,10.19532 -14.08622,3.57978 -28.32818,7.30257 -42.61719,11.04883 -14.28902,3.74625 -28.62505,7.51572 -42.90039,11.19335 -14.27535,3.67764 -28.48995,7.26281 -42.53516,10.63672 -14.04521,3.37392 -27.92092,6.53796 -41.51953,9.37305 -6.79931,1.41754 -13.52871,2.75343 -20.17578,3.99219 -6.64707,1.23876 -13.21192,2.37957 -19.67969,3.41015 -6.46777,1.03059 -12.83819,1.94917 -19.09961,2.74219 -6.26142,0.79302 -12.4134,1.46026 -18.44141,1.98633 -6.028,0.52607 -11.93168,0.91284 -17.69921,1.14258 -5.76754,0.22974 -11.3989,0.30301 -16.87891,0.20703 -6.69472,-0.11726 -13.77513,-0.50291 -21.16797,-1.12305 -7.39283,-0.62014 -15.09893,-1.47431 -23.04101,-2.5293 -7.94209,-1.05498 -16.12044,-2.31061 -24.4629,-3.73242 -8.34245,-1.42181 -16.84744,-3.00986 -25.4414,-4.73047 -8.59396,-1.7206 -17.27802,-3.57401 -25.97461,-5.52539 -8.69659,-1.95137 -17.40629,-4.00112 -26.05664,-6.11523 -17.30069,-4.22823 -34.35953,-8.71453 -50.58203,-13.18555 -16.2225,-4.47102 -31.60917,-8.9261 -45.5625,-13.0957 -13.95334,-4.1696 -26.4736,-8.053 -36.9668,-11.37695 -10.01214,-3.17157 -10.35173,-3.35978 -16.1543,-5.27735 -3.75786,3.96042 -14.48685,4.9513 -19.87109,8.21875 1.4795,25.381 30.86961,45.5933 51.75586,62.97266 48.54442,40.39363 104.63831,75.92951 165.79297,91.6875 62.24067,16.0378 130.21804,14.40376 192.82226,-0.15039 57.84183,-13.44701 111.41203,-45.07665 159.94336,-78.46289 36.21934,-20.61573 63.53052,-57.66807 106.95703,-64.19531 18.30119,-9.75257 36.95247,19.39521 40.65392,19.94904 3.91334,0.58553 9.4858,-3.18452 14.07851,-8.26936 17.65106,-10.16553 35.30206,-20.33056 52.95312,-30.49609 -1.46043,-1.42631 -2.92042,-2.85299 -4.38086,-4.2793 z"
         id="path970"
         transform="matrix(0.26396213,0.01811994,-0.01811994,0.26396213,-23.041629,343.20711)"
         inkscape:connector-curvature="0"
         sodipodi:nodetypes="cscsccsssssssscssssscsccssssccsssccsccc" />
      <path
         style="opacity:1;fill:#717171;fill-opacity:1;stroke:none;stroke-width:0.99999994px;stroke-linecap:butt;stroke-linejoin:miter;stroke-opacity:1"
         d="m 401.29102,153.42188 c -23.46305,28.32769 -36.16328,67.85987 -49.70508,101.40039 -29.54149,31.50781 -72.26611,47.34716 -106.75977,73.30078 -29.10927,21.9023 -60.02161,42.06267 -84.39648,69.43164 -23.11338,7.38694 -11.519,23.10317 -5.04102,37.8457 3.77341,4.52557 3.61025,11.37333 1.63867,13.45117 5.80257,1.91757 6.14216,2.10578 16.1543,5.27735 10.4932,3.32395 23.01346,7.20735 36.9668,11.37695 13.95333,4.1696 29.34,8.62468 45.5625,13.0957 16.2225,4.47102 33.28134,8.95732 50.58203,13.18555 8.65035,2.11411 17.36005,4.16386 26.05664,6.11523 8.69659,1.95138 17.38065,3.80479 25.97461,5.52539 8.59396,1.72061 17.09895,3.30866 25.4414,4.73047 8.34246,1.42181 16.52081,2.67744 24.4629,3.73242 7.94208,1.05499 15.64818,1.90916 23.04101,2.5293 7.39284,0.62014 14.47325,1.00579 21.16797,1.12305 5.48001,0.096 11.11137,0.0227 16.87891,-0.20703 5.76753,-0.22974 11.67121,-0.61651 17.69921,-1.14258 6.02801,-0.52607 12.17999,-1.19331 18.44141,-1.98633 6.26142,-0.79302 12.63184,-1.7116 19.09961,-2.74219 6.46777,-1.03058 13.03262,-2.17139 19.67969,-3.41015 6.64707,-1.23876 13.37647,-2.57465 20.17578,-3.99219 13.59861,-2.83509 27.47432,-5.99913 41.51953,-9.37305 14.04521,-3.37391 28.25981,-6.95908 42.53516,-10.63672 14.27534,-3.67763 28.61137,-7.4471 42.90039,-11.19335 14.28901,-3.74626 28.53097,-7.46905 42.61719,-11.04883 14.08621,-3.57979 28.01663,-7.01711 41.68359,-10.19532 7.59741,-1.76675 15.16345,-3.23109 22.66992,-4.42382 7.50647,-1.19273 14.95403,-2.1144 22.31836,-2.79493 7.36433,-0.68052 14.64539,-1.11948 21.81641,-1.3496 7.17101,-0.23013 14.23169,-0.25026 21.1582,-0.0918 6.92651,0.15846 13.71879,0.49524 20.34961,0.98047 6.63082,0.48522 13.10082,1.11895 19.38476,1.86914 4.94223,0.59001 9.66781,1.30174 14.36719,2.02148 -19.47444,-19.01936 -38.94743,-42.03923 -58.42187,-61.05859 -23.14366,32.07241 -57.72853,2.52687 -83.82227,-7.79492 -52.2218,-20.65719 -83.24419,-77.39654 -133.03125,-103.37891 -34.38478,-17.94439 -66.48859,-29.90037 -111.11328,-34.53711 -20.82564,-2.16387 -51.03266,6.413 -60.36719,-8.06445 -2.69853,-4.18531 5.50304,-14.24015 4.44922,-14.26172 -4.17737,-0.0856 -31.45899,23.90752 -41.67187,26.48242 -12.79705,3.22642 -45.99677,7.1165 -30.11719,-21.44922 1.71297,-8.80755 12.72969,-30.31155 12.25781,-33.2539 -0.23214,-1.44742 -5.24563,3.86408 -11.60742,12.96093 -7.47144,10.96799 -34.8247,61.15994 -27.69922,21.25 2.90388,-17.97647 33.96024,-68.02693 24.70313,-69.29882 z"
         id="path902"
         transform="matrix(0.26396213,0.01811994,-0.01811994,0.26396213,-23.041629,343.20711)"
         inkscape:connector-curvature="0"
         sodipodi:nodetypes="ccscccssssccscsccsscssssssssccscsccsscscsccccc" />
    </g>
    <path
       style="fill:#8c8c8c;fill-opacity:1;stroke:none;stroke-width:0.26458332px;stroke-linecap:butt;stroke-linejoin:miter;stroke-opacity:1"
       d="m 270.69147,160.35106 c 0,0 -18.16734,5.87972 -26.24998,10.79787 -4.09993,2.49473 -7.71473,5.79503 -10.98405,9.30852 -2.3471,2.52239 -6.09844,8.34571 -6.09844,8.34571 0,0 6.36903,7.97151 6.28461,12.69152 -0.0933,5.21931 -7.4468,13.77659 -7.4468,13.77659 0,0 9.87622,11.91344 16.19681,16.19681 7.54812,5.11525 25.13296,10.79788 25.13296,10.79788 0,0 -9.0235,-3.13203 -12.10105,-16.75532 -1.77418,-7.85371 6.24387,-11.79939 6.32979,-23.31073 0.0859,-11.51135 -6.79816,-14.14049 -6.8883,-21.74246 -0.0421,-3.55436 0.97326,-7.30451 2.97872,-10.23936 3.04621,-4.45791 12.84573,-9.86703 12.84573,-9.86703 z"
       id="path885"
       inkscape:connector-curvature="0"
       sodipodi:nodetypes="caacacacszaac" />
    <path
       style="fill:#8c8c8c;fill-opacity:1;stroke:none;stroke-width:0.26458332px;stroke-linecap:butt;stroke-linejoin:miter;stroke-opacity:1"
       d="m 102.39361,201.4016 c 2.31321,-2.18444 3.81474,-5.044 5.88872,-7.43606 1.54169,-1.86746 3.32086,-3.84315 5.76197,-4.44048 1.98652,-0.40739 3.56773,1.33343 4.21278,3.03175 0.9553,2.43879 1.33891,5.05603 1.80796,7.61949 0.69428,4.63856 0.47314,9.75222 -2.28217,13.73126 -1.26922,1.85721 -3.08809,3.83743 -5.52223,3.78392 -2.33778,-0.0604 -4.61349,-0.81791 -6.67834,-1.85426 -1.84554,-0.92628 -4.13731,-1.87511 -4.89576,-3.79572 -1.319339,-3.34092 -1.045047,-7.99938 1.70707,-10.6399 z"
       id="path904"
       inkscape:connector-curvature="0"
       sodipodi:nodetypes="cccccccaac" />
    <circle
       style="opacity:1;fill:#c2c2c2;fill-opacity:1;stroke:none;stroke-width:0.80000001;stroke-linecap:butt;stroke-linejoin:round;stroke-miterlimit:4;stroke-dasharray:none;stroke-opacity:1"
       id="path907"
       cx="82.904282"
       cy="172.82848"
       r="4.0809088" />
    <circle
       style="opacity:1;fill:#2a2a2a;fill-opacity:1;stroke:none;stroke-width:0.42258066;stroke-linecap:butt;stroke-linejoin:round;stroke-miterlimit:4;stroke-dasharray:none;stroke-opacity:1"
       id="path907-3"
       cx="82.893021"
       cy="173.63737"
       r="2.1556413" />
    <ellipse
       style="opacity:1;fill:#e6e6e6;fill-opacity:1;stroke:none;stroke-width:0.14870442;stroke-linecap:butt;stroke-linejoin:round;stroke-miterlimit:4;stroke-dasharray:none;stroke-opacity:1"
       id="path907-3-6"
       cx="82.72937"
       cy="171.48898"
       inkscape:transform-center-y="0.17053118"
       rx="1.18478"
       ry="0.48567286"
       inkscape:transform-center-x="1.9694404e-06" />
    <path
       style="fill:#696b6b;fill-opacity:1;stroke:none;stroke-width:0.26458332px;stroke-linecap:butt;stroke-linejoin:miter;stroke-opacity:1"
       d="m 102.39361,201.4016 c 0.85166,-0.80425 1.5933,-1.70002 2.29399,-2.63027 5.561,5.70739 5.50675,11.9607 4.75059,18.52597 -1.33857,-0.33131 -2.63414,-0.84688 -3.85589,-1.46008 1.35478,-4.73388 0.83782,-9.93571 -3.18869,-14.43562 z"
       id="path904-5"
       inkscape:connector-curvature="0"
       sodipodi:nodetypes="ccccc" />
    <path
       style="fill:#8e7d77;fill-opacity:1;stroke:none;stroke-width:0.26458332px;stroke-linecap:butt;stroke-linejoin:miter;stroke-opacity:1"
       d="m 36.093751,205.92463 c -0.276782,0.68344 -0.350542,1.49213 -0.165441,2.20588 0.113269,0.43676 0.313579,0.99669 0.744486,1.13052 0.86226,0.2678 1.668091,-0.69195 2.509191,-1.02022 1.343854,-0.52448 2.994645,-0.53662 4.053308,-1.51655 0.412734,-0.38204 0.87474,-0.99177 0.711369,-1.52993 -0.336797,-1.10943 -1.869026,-2.16263 -2.972398,-1.80647 -0.246935,0.0797 -0.125246,0.52818 -0.30331,0.71692 -0.541582,0.57406 -1.368359,0.81729 -2.12316,1.04779 -0.656406,0.20045 -1.439849,-0.0564 -2.040443,0.27573 -0.188455,0.10423 -0.332763,0.29672 -0.413602,0.49633 z"
       id="path855"
       inkscape:connector-curvature="0"
       sodipodi:nodetypes="aaaaaaaaaaa" />
    <path
       style="fill:#908480;fill-opacity:1;stroke:none;stroke-width:0.26458332px;stroke-linecap:butt;stroke-linejoin:miter;stroke-opacity:1"
       d="m 37.665443,196.90808 c -0.07617,-0.62177 0.111385,-1.30537 0.468749,-1.81985 0.42183,-0.60729 1.410368,-1.72472 1.819853,-1.26838 2.667534,2.97277 6.00114,7.40452 3.915443,10.50551 -0.569487,0.84671 -2.416408,0.88334 -3.059852,0.0914 -0.493124,-0.60695 -0.03729,-1.46212 -0.745296,-2.93145 -0.471084,-0.97764 -0.982599,-1.93538 -1.488972,-2.89522 -0.297438,-0.5638 -0.832413,-1.04927 -0.909925,-1.68199 z"
       id="path853"
       inkscape:connector-curvature="0"
       sodipodi:nodetypes="aasassaa" />
  </g>
</svg>
