<?xml version="1.0" encoding="UTF-8" standalone="no"?>
<!-- Created with Inkscape (http://www.inkscape.org/) -->

<svg
   width="95.713005mm"
   height="36.121616mm"
   viewBox="0 0 95.713005 36.121616"
   version="1.1"
   id="svg924"
   inkscape:version="1.1 (c68e22c387, 2021-05-23)"
   sodipodi:docname="longtail.svg"
   xmlns:inkscape="http://www.inkscape.org/namespaces/inkscape"
   xmlns:sodipodi="http://sodipodi.sourceforge.net/DTD/sodipodi-0.dtd"
   xmlns="http://www.w3.org/2000/svg"
   xmlns:svg="http://www.w3.org/2000/svg">
  <sodipodi:namedview
     id="namedview926"
     pagecolor="#ffffff"
     bordercolor="#666666"
     borderopacity="1.0"
     inkscape:pageshadow="2"
     inkscape:pageopacity="0.0"
     inkscape:pagecheckerboard="0"
     inkscape:document-units="mm"
     showgrid="false"
     inkscape:zoom="3.296156"
     inkscape:cx="96.324325"
     inkscape:cy="64.469036"
     inkscape:window-width="1920"
     inkscape:window-height="1051"
     inkscape:window-x="-9"
     inkscape:window-y="-9"
     inkscape:window-maximized="1"
     inkscape:current-layer="layer1"
     inkscape:snap-others="false"
     inkscape:object-nodes="false"
     inkscape:snap-nodes="false"
     fit-margin-top="0"
     fit-margin-left="0"
     fit-margin-right="0"
     fit-margin-bottom="0" />
  <defs
     id="defs921" />
  <g
     inkscape:label="Layer 1"
     inkscape:groupmode="layer"
     id="layer1"
     transform="translate(-28.323065,-79.836714)">
    <path
       style="fill:#c1c2a5;fill-opacity:1;stroke:none;stroke-width:0.264583px;stroke-linecap:butt;stroke-linejoin:miter;stroke-opacity:1"
       d="m 80.128227,108.33266 c 2.829435,0.71022 4.128216,2.02223 5.810644,2.99692 1.707239,0.98907 3.689787,1.38108 5.70814,1.59855 -2.934491,-2.47666 -4.924415,-4.88982 -1.56527,-6.94338 l -1.705745,-1.52513 z"
       id="path3544"
       sodipodi:nodetypes="cscccc" />
    <path
       style="fill:#c1c2a5;fill-opacity:1;stroke:none;stroke-width:0.264583px;stroke-linecap:butt;stroke-linejoin:miter;stroke-opacity:1"
       d="m 54.883228,109.37617 c 1.848716,4.09444 6.118987,4.83595 9.953511,6.18081 0,0 -1.330637,-1.35879 -1.826146,-2.92986 -0.307191,-0.97399 -2.287704,-3.37135 -2.287704,-3.37135 z"
       id="path3224"
       sodipodi:nodetypes="ccscc" />
    <g
       id="g52371"
       transform="translate(-2.9515019,-43.137336)"
       style="fill:#c1c2a5;fill-opacity:1">
      <path
         style="fill:#c1c2a5;fill-opacity:1;stroke:none;stroke-width:0.264583px;stroke-linecap:butt;stroke-linejoin:miter;stroke-opacity:1"
         d="m 87.735404,135.95777 c 0,0 1.685943,-0.90304 2.187366,-0.90304 l 0.762566,1.5051 z"
         id="path17575"
         sodipodi:nodetypes="cccc" />
      <path
         style="fill:#c1c2a5;fill-opacity:1;stroke:none;stroke-width:0.264583px;stroke-linecap:butt;stroke-linejoin:miter;stroke-opacity:1"
         d="m 90.685336,136.55983 c 0,0 1.685943,-0.90304 2.187366,-0.90304 l 0.762566,1.5051 z"
         id="path17575-8"
         sodipodi:nodetypes="cccc" />
      <path
         style="fill:#c1c2a5;fill-opacity:1;stroke:none;stroke-width:0.264583px;stroke-linecap:butt;stroke-linejoin:miter;stroke-opacity:1"
         d="m 93.785778,137.55313 c 0,0 1.685943,-0.90304 2.187366,-0.90304 l 0.762566,1.5051 z"
         id="path17575-2"
         sodipodi:nodetypes="cccc" />
      <path
         style="fill:#c1c2a5;fill-opacity:1;stroke:none;stroke-width:0.264583px;stroke-linecap:butt;stroke-linejoin:miter;stroke-opacity:1"
         d="m 96.755778,138.19533 c 0,0 1.685943,-0.90304 2.187366,-0.90304 l 0.762566,1.5051 z"
         id="path17575-7"
         sodipodi:nodetypes="cccc" />
      <path
         style="fill:#c1c2a5;fill-opacity:1;stroke:none;stroke-width:0.264583px;stroke-linecap:butt;stroke-linejoin:miter;stroke-opacity:1"
         d="m 99.685642,138.97799 c 0,0 1.685938,-0.90304 2.187358,-0.90304 l 0.76257,1.5051 z"
         id="path17575-9"
         sodipodi:nodetypes="cccc" />
      <path
         style="fill:#c1c2a5;fill-opacity:1;stroke:none;stroke-width:0.264583px;stroke-linecap:butt;stroke-linejoin:miter;stroke-opacity:1"
         d="m 102.87639,139.90103 c 0,0 1.68594,-0.90304 2.18736,-0.90304 l 0.76257,1.5051 z"
         id="path17575-9-3"
         sodipodi:nodetypes="cccc" />
      <path
         style="fill:#c1c2a5;fill-opacity:1;stroke:none;stroke-width:0.264583px;stroke-linecap:butt;stroke-linejoin:miter;stroke-opacity:1"
         d="m 105.56544,140.62346 c 0,0 1.68594,-0.90304 2.18736,-0.90304 l 0.76257,1.5051 z"
         id="path17575-9-5"
         sodipodi:nodetypes="cccc" />
      <path
         style="fill:#c1c2a5;fill-opacity:1;stroke:none;stroke-width:0.264583px;stroke-linecap:butt;stroke-linejoin:miter;stroke-opacity:1"
         d="m 108.59565,141.3459 c 0,0 1.68594,-0.90304 2.18736,-0.90304 l 0.76257,1.5051 z"
         id="path17575-9-9"
         sodipodi:nodetypes="cccc" />
      <path
         style="fill:#c1c2a5;fill-opacity:1;stroke:none;stroke-width:0.264583px;stroke-linecap:butt;stroke-linejoin:miter;stroke-opacity:1"
         d="m 110.74288,141.70712 c 0,0 1.68593,-0.90304 2.18735,-0.90304 l 0.76257,1.5051 z"
         id="path17575-9-0"
         sodipodi:nodetypes="cccc" />
      <path
         style="fill:#c1c2a5;fill-opacity:1;stroke:none;stroke-width:0.264583px;stroke-linecap:butt;stroke-linejoin:miter;stroke-opacity:1"
         d="m 91.831373,148.3807 c 0,0 1.863852,0.42887 2.347692,0.29726 l 0.340792,-1.65248 z"
         id="path17575-9-1"
         sodipodi:nodetypes="cccc" />
      <path
         style="fill:#c1c2a5;fill-opacity:1;stroke:none;stroke-width:0.264583px;stroke-linecap:butt;stroke-linejoin:miter;stroke-opacity:1"
         d="m 94.031573,147.31207 c 0,0 1.810704,0.61581 2.305403,0.53399 l 0.506736,-1.60937 z"
         id="path17575-9-1-5"
         sodipodi:nodetypes="cccc" />
      <path
         style="fill:#c1c2a5;fill-opacity:1;stroke:none;stroke-width:0.264583px;stroke-linecap:butt;stroke-linejoin:miter;stroke-opacity:1"
         d="m 96.583863,146.57959 c 0,0 1.810704,0.61581 2.305403,0.53399 l 0.506736,-1.60937 z"
         id="path17575-9-1-5-0"
         sodipodi:nodetypes="cccc" />
      <path
         style="fill:#c1c2a5;fill-opacity:1;stroke:none;stroke-width:0.264583px;stroke-linecap:butt;stroke-linejoin:miter;stroke-opacity:1"
         d="m 99.052174,145.73675 c 0,0 1.810706,0.61581 2.305406,0.53399 l 0.50674,-1.60937 z"
         id="path17575-9-1-5-1"
         sodipodi:nodetypes="cccc" />
      <path
         style="fill:#c1c2a5;fill-opacity:1;stroke:none;stroke-width:0.264583px;stroke-linecap:butt;stroke-linejoin:miter;stroke-opacity:1"
         d="m 101.61751,144.69748 c 0,0 1.70849,0.8596 2.20975,0.84678 l 0.72381,-1.52413 z"
         id="path17575-9-1-5-04"
         sodipodi:nodetypes="cccc" />
      <path
         style="fill:#c1c2a5;fill-opacity:1;stroke:none;stroke-width:0.264583px;stroke-linecap:butt;stroke-linejoin:miter;stroke-opacity:1"
         d="m 104.48613,143.98899 c 0,0 1.69246,0.89076 2.19386,0.88712 l 0.75162,-1.51061 z"
         id="path17575-9-1-5-6"
         sodipodi:nodetypes="cccc" />
      <path
         style="fill:#c1c2a5;fill-opacity:1;stroke:none;stroke-width:0.264583px;stroke-linecap:butt;stroke-linejoin:miter;stroke-opacity:1"
         d="m 107.21872,143.29462 c 0,0 1.58801,1.06587 2.08695,1.11563 l 0.90816,-1.42201 z"
         id="path17575-9-1-5-8"
         sodipodi:nodetypes="cccc" />
      <path
         style="fill:#c1c2a5;fill-opacity:1;stroke:none;stroke-width:0.264583px;stroke-linecap:butt;stroke-linejoin:miter;stroke-opacity:1"
         d="m 110.26682,142.79164 c 0,0 1.47382,1.21892 1.96532,1.31818 l 1.04542,-1.32436 z"
         id="path17575-9-1-5-03"
         sodipodi:nodetypes="cccc" />
    </g>
    <path
       style="fill:#3d507a;fill-opacity:1;stroke:none;stroke-width:0.264583px;stroke-linecap:butt;stroke-linejoin:miter;stroke-opacity:1"
       d="m 110.12053,98.708834 c 0,0 2.7906,-1.70772 7.57418,-8.35671 1.68612,-2.343649 6.34136,-5.89987 6.34136,-5.89987 0,0 -6.32291,9.9064 -6.18081,15.45203 0.29575,11.541786 5.73932,16.054046 5.73932,16.054046 0,0 -4.26641,-0.61103 -7.74608,-7.26445 -4.24363,-8.11417 -5.45838,-8.22771 -5.45838,-8.22771 z"
       id="path1977"
       sodipodi:nodetypes="cscscscc" />
    <path
       style="fill:#e6e8f4;fill-opacity:1;stroke:none;stroke-width:0.264583px;stroke-linecap:butt;stroke-linejoin:miter;stroke-opacity:1"
       d="m 29.912335,99.159114 c 10.374217,-4.6226 22.819239,-6.60984 33.29795,-7.78414 l 36.970505,5.75912 9.93974,1.57474 c 2.1021,-1.11846 4.06331,0.29884 6.06648,0.96111 0,0 -2.57743,1.016006 -3.93652,1.078436 -1.19009,0.0547 -2.32856,-0.66837 -3.5191,-0.62436 -5.43668,0.20098 -10.625542,2.39939 -15.81584,4.02994 -4.106912,1.2902 -7.836876,3.8745 -12.089807,4.54077 -8.637115,1.3531 -17.889659,1.84703 -25.829184,1.54913 -10.963267,-0.41135 -26.563045,-7.31256 -26.673494,-8.41705 l 4.786141,-0.11352 z"
       id="path40"
       sodipodi:nodetypes="cccccaaassccc" />
    <path
       style="fill:#c1c2a5;fill-opacity:1;stroke:none;stroke-width:0.264583px;stroke-linecap:butt;stroke-linejoin:miter;stroke-opacity:1"
       d="m 73.987552,91.114694 c 0,0 3.030071,-0.89629 6.060406,-3.13055 2.167018,-1.59774 7.224323,-3.61216 7.224323,-3.61216 -4.250958,3.24221 -6.27726,5.99326 -2.327838,7.425 -1.486504,0.16973 -2.459677,0.52612 -2.769325,1.12379 z"
       id="path2335"
       sodipodi:nodetypes="cscccc" />
    <path
       style="fill:#c1c2a5;fill-opacity:1;stroke:none;stroke-width:0.264583px;stroke-linecap:butt;stroke-linejoin:miter;stroke-opacity:1"
       d="m 52.475118,90.954154 c 0.895461,-3.51376 2.161456,-7.15103 4.414866,-11.11744 0.142489,0.59239 0.361799,1.04651 0.770726,1.15931 -0.106226,0.75696 -0.09229,1.4251 0.411509,1.73117 -0.07171,0.57908 0.01404,1.0322 0.475361,1.18486 -0.02096,0.58157 0.147937,1.08353 0.950725,1.31966 0.0068,0.66652 0.382991,1.12892 1.404803,1.23452 0.200243,0.62855 0.67347,0.89312 1.355135,0.87977 0.458476,0.37793 1.053265,0.40751 1.752454,0.17028 1.046022,0.63479 1.376361,0.26763 1.929829,0.21285 0.493367,0.40569 1.141029,0.6756 2.298766,0.49665 0.613275,0.39023 1.36441,0.40627 2.163961,0.29089 0.615483,0.46238 1.271322,0.68263 1.993683,0.50374 0.0625,0.43609 -0.07512,0.9075 0.404413,1.27 l 0.198659,0.75916 z"
       id="path2589"
       sodipodi:nodetypes="cccccccccccccccc" />
    <path
       style="fill:#4b6397;fill-opacity:1;stroke:none;stroke-width:0.264583px;stroke-linecap:butt;stroke-linejoin:miter;stroke-opacity:1"
       d="m 29.912335,99.159114 c 28.39586,-17.12527 54.051419,-6.22475 80.208195,-0.45028 0,0 -32.379494,-6.01097 -48.695276,-5.34658 -16.412848,0.66835 -31.512919,5.79686 -31.512919,5.79686 z"
       id="path1576"
       sodipodi:nodetypes="ccsc" />
    <path
       style="fill:#c1c2a5;fill-opacity:0.562753;stroke:none;stroke-width:0.264583px;stroke-linecap:butt;stroke-linejoin:miter;stroke-opacity:1"
       d="m 51.913228,100.18523 c 9.822628,-2.812276 16.957684,-3.848036 20.468917,-2.488376 0,0 -6.491176,2.109188 -9.672566,3.339276 -1.670238,0.64581 -4.936622,2.1191 -4.936622,2.1191 0.725225,-2.10058 -2.249163,-2.66718 -5.859729,-2.97 z"
       id="path1744"
       sodipodi:nodetypes="ccacc" />
    <path
       style="fill:#c3c5cf;fill-opacity:1;stroke:none;stroke-width:0.264583px;stroke-linecap:butt;stroke-linejoin:miter;stroke-opacity:1"
       d="m 45.890179,95.242694 c 4.271909,1.46343 5.835419,6.191816 5.959764,10.074836 0.0856,2.67315 -3.575858,3.94479 -3.575858,3.94479 0,0 4.064574,-0.23477 4.143454,-4.17183 0.07889,-3.93742 -2.983203,-10.045176 -6.52736,-9.847796 z"
       id="path3953"
       sodipodi:nodetypes="cscsc" />
    <circle
       style="fill:#cbbc88;fill-opacity:1;stroke:none;stroke-width:0.564999;stroke-linejoin:round;paint-order:markers fill stroke"
       id="path5971"
       cx="37.028111"
       cy="99.046394"
       r="1.2492061" />
    <path
       style="fill:#c3c5cf;fill-opacity:1;stroke:none;stroke-width:0.264583px;stroke-linecap:butt;stroke-linejoin:miter;stroke-opacity:1"
       d="m 29.912335,99.159114 v 0 c 0,0 0.08021,-0.32312 0.629121,0.0233 1.457022,0.919646 4.869506,3.511566 5.955001,3.722776 0.484469,0.0943 0.676807,1.11475 0.312177,1.44738 -0.417454,0.38081 -1.187635,-0.0741 -1.617354,-0.50769 -1.081617,-1.09156 -5.278945,-4.685816 -5.278945,-4.685816 z"
       id="path4805"
       sodipodi:nodetypes="ccssasc" />
    <circle
       style="fill:#3c4b63;fill-opacity:1;stroke:none;stroke-width:0.564999;stroke-linejoin:round;paint-order:markers fill stroke"
       id="path5967"
       cx="37.038143"
       cy="99.086525"
       r="0.69734794" />
    <ellipse
       style="fill:#f1f7fd;fill-opacity:1;stroke:none;stroke-width:0.564999;stroke-linejoin:round;paint-order:markers fill stroke"
       id="path5969"
       cx="36.576588"
       cy="98.725319"
       rx="0.33613175"
       ry="0.19565879" />
  </g>
</svg>
