<?xml version="1.0" encoding="UTF-8" standalone="no"?>
<!-- Created with Inkscape (http://www.inkscape.org/) -->

<svg
   xmlns:dc="http://purl.org/dc/elements/1.1/"
   xmlns:cc="http://creativecommons.org/ns#"
   xmlns:rdf="http://www.w3.org/1999/02/22-rdf-syntax-ns#"
   xmlns:svg="http://www.w3.org/2000/svg"
   xmlns="http://www.w3.org/2000/svg"
   xmlns:sodipodi="http://sodipodi.sourceforge.net/DTD/sodipodi-0.dtd"
   xmlns:inkscape="http://www.inkscape.org/namespaces/inkscape"
   width="210mm"
   height="297mm"
   viewBox="0 0 210 297"
   version="1.1"
   id="svg8"
   inkscape:version="0.92.2 5c3e80d, 2017-08-06"
   sodipodi:docname="robin.svg">
  <defs
     id="defs2" />
  <sodipodi:namedview
     id="base"
     pagecolor="#ffffff"
     bordercolor="#666666"
     borderopacity="1.0"
     inkscape:pageopacity="0.0"
     inkscape:pageshadow="2"
     inkscape:zoom="0.82314815"
     inkscape:cx="415.40386"
     inkscape:cy="740.54473"
     inkscape:document-units="mm"
     inkscape:current-layer="layer1"
     showgrid="false"
     inkscape:window-width="1920"
     inkscape:window-height="1018"
     inkscape:window-x="0"
     inkscape:window-y="34"
     inkscape:window-maximized="1" />
  <metadata
     id="metadata5">
    <rdf:RDF>
      <cc:Work
         rdf:about="">
        <dc:format>image/svg+xml</dc:format>
        <dc:type
           rdf:resource="http://purl.org/dc/dcmitype/StillImage" />
        <dc:title></dc:title>
      </cc:Work>
    </rdf:RDF>
  </metadata>
  <g
     inkscape:label="Layer 1"
     inkscape:groupmode="layer"
     id="layer1">
    <path
       style="fill:#3f3f41;fill-opacity:1;stroke:none;stroke-width:0.21473962px;stroke-linecap:butt;stroke-linejoin:miter;stroke-opacity:1"
       d="m 86.741,175.41473 -0.222504,-0.75208 0.06518,-0.50719 c -0.519182,0.39698 -0.692364,0.70721 -0.928839,1.29205 -0.190244,0.47051 0.146454,1.50213 0.146454,1.50213 0,0 0.256823,-1.1133 0.939703,-1.53491 z"
       id="path1784-6"
       inkscape:connector-curvature="0"
       sodipodi:nodetypes="ccccccc" />
    <path
       style="fill:#feb131;fill-opacity:1;stroke:none;stroke-width:0.26458332px;stroke-linecap:butt;stroke-linejoin:miter;stroke-opacity:1"
       d="m 114.49395,97.779659 c 3.57308,-6.697721 5.94071,-6.277748 9.54479,-7.801456 3.34788,-1.415392 10.41647,-3.09443 10.41647,-3.09443 0,0 -5.7681,-2.246777 -8.80388,-2.702179 -0.74709,-0.112072 -1.54824,0.234604 -2.26634,0 -1.84785,-0.603699 -2.74966,-2.800796 -4.70702,-3.443099 -5.55752,-1.823689 -6.93711,22.201825 -4.18402,17.041164 z"
       id="path1749"
       inkscape:connector-curvature="0"
       sodipodi:nodetypes="sscaass" />
    <path
       style="fill:#3f3f41;fill-opacity:1;stroke:none;stroke-width:0.99999994px;stroke-linecap:butt;stroke-linejoin:miter;stroke-opacity:1"
       d="m 307.71875,697.69922 -1,-3.62891 0.29297,-2.44726 c -2.33337,1.9155 -5.48995,3.41245 -6.55274,6.23437 -0.85502,2.27025 0.65821,7.24805 0.65821,7.24805 0,0 3.53249,-5.37191 6.60156,-7.40625 z"
       id="path1784"
       transform="scale(0.26458333)"
       inkscape:connector-curvature="0" />
    <path
       style="fill:#3f3f41;fill-opacity:1;stroke:none;stroke-width:0.99999994px;stroke-linecap:butt;stroke-linejoin:miter;stroke-opacity:1"
       d="m 356.55078,704.97461 -0.58008,3.0957 -1.58398,2.55274 c 0.4708,0.12088 0.96372,0.35757 1.41992,0.41406 1.93504,0.23962 3.64185,1.6753 4.94141,3.12891 1.50579,1.6843 2.96484,6.0957 2.96484,6.0957 0,0 0.69692,-10.17201 -2.96484,-12.19141 -1.73156,-0.95494 -3.05751,-2.04241 -4.19727,-3.0957 z"
       id="path1793"
       transform="scale(0.26458333)"
       inkscape:connector-curvature="0" />
    <path
       style="fill:#3f3f41;fill-opacity:1;stroke:none;stroke-width:0.99999994px;stroke-linecap:butt;stroke-linejoin:miter;stroke-opacity:1"
       d="m 387.43359,693.46484 v 3.73438 l 2.10352,3.12109 c 0.14871,-0.21346 0.29051,-0.43789 0.53125,-0.48633 5.11808,-1.02965 14.49609,5.93165 14.49609,5.93164 0,0 -4.27401,-7.7384 -7.90625,-9.88476 -2.76209,-1.63219 -5.95092,-2.15207 -9.22461,-2.41602 z"
       id="path1791"
       transform="scale(0.26458333)"
       inkscape:connector-curvature="0" />
    <path
       style="fill:#ca9558;fill-opacity:1;stroke:none;stroke-width:0.99999994px;stroke-linecap:butt;stroke-linejoin:miter;stroke-opacity:1"
       d="m 317.01758,591.58398 c -3.99999,0.28612 -15.24024,4.14454 -15.24024,4.14454 0,0 3.17061,8.80319 2.30469,13.17773 -0.61821,3.12314 -4.88625,2.34534 -5.10547,8.07227 -0.21921,5.72689 6.64779,4.75292 7.74219,8.40039 6.43713,21.45407 20.42578,55.01757 20.42578,55.01757 0,0 -6.08315,5.75193 -9.88476,7.24805 -1.74918,0.68837 -3.84617,-0.0177 -5.59961,0.66016 -1.76241,0.68088 -3.15614,2.09032 -4.61328,3.29297 -0.0108,0.009 -0.0243,0.0165 -0.0352,0.0254 l -0.29297,2.44726 1,3.62891 c 0.21413,-0.14194 0.43835,-0.39485 0.64648,-0.5 2.76023,-1.39446 6.33534,0.11421 9.22461,-0.98828 5.80854,-2.21639 11.59199,-11.65342 15.1543,-10.8711 3.56231,0.78233 4.38516,11.9099 8.56641,16.47266 3.50437,3.82414 8.55692,7.65024 13.07617,8.81055 l 1.58398,-2.55274 0.58008,-3.0957 c -2.17603,-2.01094 -3.38086,-3.82227 -3.38086,-3.82227 h 17.46094 c 6.03992,0 12.54092,2.31134 18.12109,0 0.34705,-0.14375 0.55768,-0.50549 0.78516,-0.83203 l -2.10352,-3.12109 v -3.73438 c -2.63979,-0.21283 -5.33466,-0.26615 -7.90625,-0.54882 -6.88482,-0.75678 -20.75586,-0.98829 -20.75586,-0.98829 l -1.64648,-1.97656 c 0,0 5.84159,-4.96241 9.75977,-6.07422 l -1.2168,-4.66015 c -0.18457,-0.03 -0.46431,-0.11049 -0.63672,-0.13672 -5.77042,-0.8781 -11.32923,4.26322 -17.13086,3.62304 -3.02142,-0.33334 -6.25736,-2.16747 -9.24414,-3.58007 -2.04581,-0.96756 -4.87035,-1.05064 -5.91211,-3.33789 -7.91225,-17.372 -16.87718,-38.60414 -20.75391,-59.63086 -0.69812,-3.78649 2.44217,-9.30773 4.01758,-14.03516 1.71578,-5.14866 -1.95447,-5.43512 1.91211,-9.35547 0.96045,-0.9738 0.43099,-1.27506 -0.90234,-1.17969 z"
       id="path1755"
       transform="scale(0.26458333)"
       inkscape:connector-curvature="0" />
    <path
       style="fill:#a4a6a8;fill-opacity:1;stroke:none;stroke-width:0.26458332px;stroke-linecap:butt;stroke-linejoin:miter;stroke-opacity:1"
       d="m 85.598062,155.17917 c -0.527152,0.76645 -1.435427,1.30138 -1.743342,2.17918 -0.240441,0.68545 0.447032,1.60663 0,2.17918 -0.58981,0.75541 -1.897929,1.04932 -2.789346,0.69733 -2.091433,-0.82585 -1.880319,-4.29282 -3.661015,-5.66586 -1.404351,-1.08285 -3.284752,-1.74861 -5.05569,-1.65617 -3.337997,0.17424 -6.182033,2.56432 -9.152544,4.09685 -2.546422,1.31374 -4.876526,3.0183 -7.409201,4.35835 -3.124815,1.65335 -8.622167,5.11889 -9.588378,4.53269 -0.966211,-0.5862 4.883004,-5.2794 6.973366,-8.1937 2.703937,-3.76972 7.1477,-11.94189 7.1477,-11.94189 l 22.314771,-9.32688 11.854722,3.57385 c 0,0 -5.570079,10.33855 -8.891043,15.16707 z"
       id="path1753"
       inkscape:connector-curvature="0"
       sodipodi:nodetypes="aaaaaaaazaccca" />
    <path
       style="fill:#3f3f41;fill-opacity:1;stroke:none;stroke-width:0.99999994px;stroke-linecap:butt;stroke-linejoin:miter;stroke-opacity:1"
       d="m 365.66797,679.2168 1.2168,4.66015 c 0.14175,-0.0402 0.31687,-0.15604 0.45312,-0.18554 3.06944,-0.66475 6.42463,0.0164 9.34961,1.16015 1.83983,0.71932 4.81641,3.45313 4.81641,3.45313 0,0 -2.78798,-4.12375 -4.81641,-5.45313 -3.22504,-2.11358 -7.89574,-3.12661 -11.01953,-3.63476 z"
       id="path1789"
       transform="scale(0.26458333)"
       inkscape:connector-curvature="0" />
    <path
       style="fill:#3f3f41;fill-opacity:1;stroke:none;stroke-width:0.21473962px;stroke-linecap:butt;stroke-linejoin:miter;stroke-opacity:1"
       d="m 97.606284,176.92253 -0.129071,0.64158 -0.352437,0.52904 c 0.104749,0.0251 0.214427,0.074 0.315939,0.0858 0.430554,0.0496 0.810323,0.34722 1.099477,0.64846 0.335046,0.34908 0.659689,1.26332 0.659689,1.26332 0,0 0.155063,-2.10811 -0.659689,-2.52662 -0.385277,-0.1979 -0.680309,-0.42329 -0.933908,-0.64158 z"
       id="path1793-7"
       inkscape:connector-curvature="0"
       sodipodi:nodetypes="cccccccc" />
    <path
       style="fill:#3f3f41;fill-opacity:1;stroke:none;stroke-width:0.21473962px;stroke-linecap:butt;stroke-linejoin:miter;stroke-opacity:1"
       d="m 104.47782,174.53715 v 0.77395 l 0.46805,0.64683 c 0.033,-0.0443 0.0646,-0.0907 0.11817,-0.10082 1.13878,-0.21339 3.22542,1.22932 3.22542,1.22931 0,0 -0.95099,-1.60374 -1.75918,-2.04858 -0.61455,-0.33826 -1.3241,-0.446 -2.0525,-0.50072 z"
       id="path1791-5"
       inkscape:connector-curvature="0"
       sodipodi:nodetypes="cccccccc" />
    <path
       style="fill:#ca9558;fill-opacity:1;stroke:none;stroke-width:0.21473962px;stroke-linecap:butt;stroke-linejoin:miter;stroke-opacity:1"
       d="m 88.81002,153.42267 c -0.890012,0.0593 -3.391003,0.85895 -3.391003,0.85895 0,0 0.705471,1.82442 0.5128,2.73104 -0.137553,0.64726 -1.087204,0.48606 -1.135983,1.67295 -0.04877,1.18688 1.479155,0.98502 1.722662,1.74095 1.432284,4.4463 4.544803,11.40222 4.544803,11.40222 0,0 -1.35352,1.19208 -2.199391,1.50215 -0.389197,0.14265 -0.855785,-0.003 -1.245932,0.1368 -0.392142,0.14112 -0.702249,0.43322 -1.02647,0.68247 -0.0022,10e-4 -0.0054,0.003 -0.0079,0.006 l -0.06519,0.50719 0.222502,0.75207 c 0.04765,-0.0294 0.09754,-0.0818 0.143846,-0.10361 0.61416,-0.289 1.409634,0.0237 2.052505,-0.20482 1.29242,-0.45934 2.579256,-2.41513 3.371881,-2.253 0.792627,0.16214 0.975713,2.46829 1.906056,3.41391 0.779733,0.79254 1.903942,1.58548 2.90949,1.82596 l 0.352443,-0.52905 0.129071,-0.64157 c -0.484178,-0.41676 -0.752257,-0.79216 -0.752257,-0.79216 h 3.885117 c 1.3439,0 2.7904,0.47902 4.03203,0 0.0772,-0.0298 0.12408,-0.10479 0.17468,-0.17244 l -0.46804,-0.64683 v -0.77394 c -0.58735,-0.0442 -1.18698,-0.0551 -1.75916,-0.11369 -1.53192,-0.15684 -4.618257,-0.20484 -4.618257,-0.20484 l -0.366356,-0.40962 c 0,0 1.299775,-1.02843 2.171586,-1.25887 l -0.270744,-0.96581 c -0.04104,-0.006 -0.103314,-0.0229 -0.141669,-0.0284 -1.283938,-0.18199 -2.520792,0.88353 -3.811674,0.75086 -0.672276,-0.0692 -1.392284,-0.44921 -2.056852,-0.74195 -0.455197,-0.20053 -1.083669,-0.21775 -1.315464,-0.69176 -1.760503,-3.60028 -3.755229,-8.00057 -4.617815,-12.35831 -0.155334,-0.78473 0.543392,-1.929 0.893924,-2.90873 0.381769,-1.06706 -0.434875,-1.12643 0.425451,-1.93889 0.213704,-0.20183 0.09589,-0.26426 -0.200773,-0.24449 z"
       id="path1755-5"
       inkscape:connector-curvature="0"
       sodipodi:nodetypes="ccscscccccccccccccccscccccccccccccccccc" />
    <path
       style="fill:#eb802d;fill-opacity:1;stroke:none;stroke-width:0.26458332px;stroke-linecap:butt;stroke-linejoin:miter;stroke-opacity:1"
       d="m 115.84657,101.03974 c 2.26327,4.24808 4.47546,8.03455 5.48718,12.45794 1.1226,4.90815 1.89206,10.28081 0.52581,15.09554 -3.19743,11.26784 -13.7996,20.31099 -24.406775,25.27845 -5.062804,2.37097 -13.205404,2.68995 -20.048426,0.69733 0,0 -1.177818,-4.74762 0.261502,-8.1937 1.84552,-4.41863 8.716704,-11.41889 8.716704,-11.41889 L 98.15012,99.740917 113.92736,94.946728 c 0,0 0.91797,4.213715 1.91921,6.093012 z"
       id="path1751"
       inkscape:connector-curvature="0"
       sodipodi:nodetypes="sasssscccs" />
    <path
       style="fill:#3f3f41;fill-opacity:1;stroke:none;stroke-width:0.21473962px;stroke-linecap:butt;stroke-linejoin:miter;stroke-opacity:1"
       d="m 99.634891,171.58431 0.270737,0.9658 c 0.03153,-0.008 0.07047,-0.0324 0.100822,-0.0385 0.68296,-0.13775 1.4295,0.003 2.08032,0.24044 0.40936,0.14909 1.07167,0.71566 1.07167,0.71566 0,0 -0.62035,-0.85463 -1.07167,-1.13015 -0.71757,-0.43803 -1.75683,-0.64798 -2.451882,-0.75328 z"
       id="path1789-3"
       inkscape:connector-curvature="0"
       sodipodi:nodetypes="cccccccc" />
    <path
       style="fill:#3f3f41;fill-opacity:1;stroke:none;stroke-width:0.26458332px;stroke-linecap:butt;stroke-linejoin:miter;stroke-opacity:1"
       d="m 122.07494,83.932162 c -3.14127,-6.142283 -11.25521,-6.062581 -16.95952,-4.695475 -4.53167,1.086067 -7.814208,5.502361 -10.318597,9.432188 -2.430562,3.813979 -1.737662,9.067619 -4.068003,12.943645 -1.387138,2.30721 -9.368836,7.82907 -13.313468,12.45056 -7.147359,8.37378 -11.143022,19.16822 -18.490927,27.36658 -6.401595,7.14253 -14.34849,12.75536 -21.942571,18.6142 -7.148293,5.51492 -10.036271,7.06499 -22.189112,15.53238 -2.066512,1.43983 3.978778,-0.19761 5.917097,-0.61637 2.159183,-0.46647 4.384216,-0.97341 6.286916,-2.09564 12.697525,-7.48913 24.038585,-14.34669 35.872401,-21.81929 2.409125,-1.52127 4.617688,-3.37807 7.149825,-4.68437 6.822093,-3.51945 14.766931,-4.60485 21.449476,-8.38255 5.509174,-3.11439 11.541013,-6.31389 15.039283,-11.58765 2.21622,-3.34103 4.95734,-9.08342 3.05811,-11.63251 -0.79305,-1.06441 -3.52927,0.90649 -4.00819,-0.34611 -0.3219,-0.84192 3.00885,-2.23456 2.39326,-3.58239 -2.24644,-4.91851 -7.8976,-2.83112 -7.73009,-4.28592 0.18755,-1.62884 5.57401,-3.81884 8.75237,-4.80764 2.19889,-0.68408 4.54069,-0.90897 6.87337,-0.69606 -0.41185,-1.823645 -0.56952,-4.307234 0.0299,-6.330494 0.58281,-1.967152 2.48276,-3.308157 3.32837,-5.177462 0.36988,-0.817669 0.35166,-1.779483 0.73963,-2.588728 0.53151,-1.108646 2.68074,-1.934918 2.13046,-3.010894 z"
       id="path1747"
       inkscape:connector-curvature="0"
       sodipodi:nodetypes="saasaaasasaaaassssacaaas" />
    <path
       style="fill:#ececec;fill-opacity:1;stroke:none;stroke-width:0.26458332px;stroke-linecap:butt;stroke-linejoin:miter;stroke-opacity:1"
       d="m 115.78069,86.640138 c 0,0 1.31476,-0.827633 1.10431,-0.918049 -2.19787,-0.944265 -3.47821,-1.264003 -4.64519,-0.243091 -1.40877,1.232436 -2.32331,5.490355 -0.45457,5.596877 5.51069,0.31412 4.8878,-3.109067 4.8878,-3.109067 0,0 -1.73059,1.756319 -2.62234,1.34441 -0.9265,-0.427954 -1.38552,-2.221256 -0.70288,-2.979903 0.54679,-0.607673 2.43287,0.308823 2.43287,0.308823 z"
       id="path1852"
       inkscape:connector-curvature="0"
       sodipodi:nodetypes="csascaac" />
    <circle
       style="opacity:1;fill:#2a2a2a;fill-opacity:1;stroke:none;stroke-width:0.80000001;stroke-linecap:butt;stroke-linejoin:round;stroke-miterlimit:4;stroke-dasharray:none;stroke-opacity:1"
       id="path1835"
       cx="114.31961"
       cy="87.886192"
       r="2.6150122" />
    <ellipse
       style="opacity:1;fill:#ececec;fill-opacity:1;stroke:none;stroke-width:0.23721544;stroke-linecap:butt;stroke-linejoin:round;stroke-miterlimit:4;stroke-dasharray:none;stroke-opacity:1"
       id="path1835-6"
       cx="132.06918"
       cy="56.274754"
       rx="1.0701802"
       ry="0.56181902"
       transform="rotate(13.921284)" />
    <ellipse
       style="opacity:1;fill:#eb802d;fill-opacity:1;stroke:none;stroke-width:0.80000001;stroke-linecap:butt;stroke-linejoin:round;stroke-miterlimit:4;stroke-dasharray:none;stroke-opacity:1"
       id="path1872"
       cx="123.53905"
       cy="87.016739"
       rx="0.8136161"
       ry="0.25111607" />
  </g>
</svg>
