<?xml version="1.0" encoding="UTF-8" standalone="no"?>
<svg
   width="203.61864mm"
   height="59.265316mm"
   viewBox="0 0 203.61864 59.265316"
   version="1.1"
   id="svg8"
   inkscape:version="1.2.1 (9c6d41e410, 2022-07-14)"
   sodipodi:docname="silverside.svg"
   xmlns:inkscape="http://www.inkscape.org/namespaces/inkscape"
   xmlns:sodipodi="http://sodipodi.sourceforge.net/DTD/sodipodi-0.dtd"
   xmlns="http://www.w3.org/2000/svg"
   xmlns:svg="http://www.w3.org/2000/svg"
   xmlns:rdf="http://www.w3.org/1999/02/22-rdf-syntax-ns#"
   xmlns:cc="http://creativecommons.org/ns#"
   xmlns:dc="http://purl.org/dc/elements/1.1/">
  <defs
     id="defs2" />
  <sodipodi:namedview
     id="base"
     pagecolor="#ffffff"
     bordercolor="#666666"
     borderopacity="1.0"
     inkscape:pageopacity="0.0"
     inkscape:pageshadow="2"
     inkscape:zoom="0.58898286"
     inkscape:cx="70.460454"
     inkscape:cy="50.935268"
     inkscape:document-units="mm"
     inkscape:current-layer="layer1"
     inkscape:document-rotation="0"
     showgrid="false"
     inkscape:window-width="1920"
     inkscape:window-height="1052"
     inkscape:window-x="0"
     inkscape:window-y="0"
     inkscape:window-maximized="1"
     inkscape:showpageshadow="2"
     inkscape:pagecheckerboard="0"
     inkscape:deskcolor="#d1d1d1" />
  <metadata
     id="metadata5">
    <rdf:RDF>
      <cc:Work
         rdf:about="">
        <dc:format>image/svg+xml</dc:format>
        <dc:type
           rdf:resource="http://purl.org/dc/dcmitype/StillImage" />
      </cc:Work>
    </rdf:RDF>
  </metadata>
  <g
     inkscape:label="Layer 1"
     inkscape:groupmode="layer"
     id="layer1"
     transform="translate(-3.0363819,-121.45366)">
    <path
       style="fill:#d4d4d4;fill-opacity:1;stroke:none;stroke-width:0.264583px;stroke-linecap:butt;stroke-linejoin:miter;stroke-opacity:1"
       d="m 92.072146,136.77576 c 0.121917,-3.79783 2.450179,-7.98378 5.117569,-12.14899 0.739823,0.28398 1.092745,0.0604 1.526127,-0.0577 0.495434,0.71693 1.034816,1.34779 1.936298,1.26961 0.18705,1.24362 0.11568,2.57313 1.53774,3.40627 -0.25085,1.35948 -0.72842,2.71895 -0.24222,4.07843 0,0 -0.19569,1.15969 -0.0477,1.71057 0.17602,0.65524 1.06868,1.7323 1.06868,1.7323 z"
       id="path42"
       sodipodi:nodetypes="ccccccacc" />
    <path
       style="fill:#d4d4d4;fill-opacity:1;stroke:none;stroke-width:0.264583px;stroke-linecap:butt;stroke-linejoin:miter;stroke-opacity:1"
       d="m 117.8408,138.25363 c 4.54774,-5.86431 9.20103,-12.49594 14.87274,-16.49869 0.47552,-0.3356 1.33972,-0.44216 1.77115,-0.0515 2.15063,1.94739 2.80773,5.08213 4.53563,7.40402 1.81596,2.44022 3.39078,5.31835 6.08473,6.80056 -3.8471,1.27306 -6.60765,3.63756 -9.43185,5.93812 z"
       id="path44"
       sodipodi:nodetypes="cssaccc" />
    <path
       style="fill:#d4d4d4;fill-opacity:1;stroke:none;stroke-width:0.264583px;stroke-linecap:butt;stroke-linejoin:miter;stroke-opacity:1"
       d="m 176.39699,140.09006 c 0,0 9.00833,-4.28016 13.99938,-6.21848 5.14468,-1.99798 15.2869,-5.13657 16.15268,-3.637 1.1532,1.9974 -7.43031,7.93983 -9.98008,12.67416 -1.11311,2.06679 -2.53435,4.35604 -2.22212,6.68266 0.41595,3.09948 3.46502,5.20701 5.20271,7.80705 1.98104,2.96416 6.84816,7.33743 5.95492,8.88457 -0.55455,0.96051 -7.98017,-1.20548 -11.79734,-2.45587 -3.91465,-1.28232 -7.39346,-3.66391 -11.24392,-5.12773 -2.54389,-0.9671 -4.97853,-2.20727 -7.83171,-2.30268 z"
       id="path50"
       sodipodi:nodetypes="cssaaasascc" />
    <path
       style="fill:#d4d4d4;fill-opacity:1;stroke:none;stroke-width:0.264583px;stroke-linecap:butt;stroke-linejoin:miter;stroke-opacity:1"
       d="m 70.366183,162.73578 c 0,0 -0.147053,8.12392 1.316984,11.80145 0.899421,2.25927 2.789825,5.9427 3.608581,6.16251 2.100793,0.564 12.937377,-11.4445 12.213471,-13.81566 -0.432432,-1.41643 -13.233368,-5.84336 -13.233368,-6.43938 z"
       id="path54"
       sodipodi:nodetypes="cssscc" />
    <path
       style="fill:#d4d4d4;fill-opacity:1;stroke:none;stroke-width:0.264583px;stroke-linecap:butt;stroke-linejoin:miter;stroke-opacity:1"
       d="m 97.843146,160.93092 c 3.477184,7.06302 7.628294,13.05338 12.190414,17.85249 0.50558,0.53184 1.77607,0.47781 2.20113,0.0348 3.92918,-4.09508 10.18389,-10.1174 17.81536,-13.07892 7.36333,-2.85747 17.86192,-6.59117 23.02605,-6.65673 -3.0966,-1.38395 -5.44674,-2.79707 -8.31182,-4.56802 z"
       id="path56"
       sodipodi:nodetypes="csssccc" />
    <path
       style="fill:none;stroke:#f2f2f2;stroke-width:0.264583px;stroke-linecap:butt;stroke-linejoin:miter;stroke-opacity:1"
       d="m 94.008328,133.40697 c 1.276635,-2.94597 2.813787,-5.89193 4.707514,-8.8379"
       id="path931"
       sodipodi:nodetypes="cc" />
    <path
       style="fill:none;stroke:#f2f2f2;stroke-width:0.264583px;stroke-linecap:butt;stroke-linejoin:miter;stroke-opacity:1"
       d="m 94.831248,135.26961 c 1.630438,-3.34222 3.505935,-6.5274 5.820892,-9.43093"
       id="path933"
       sodipodi:nodetypes="cc" />
    <path
       style="fill:none;stroke:#f2f2f2;stroke-width:0.264583px;stroke-linecap:butt;stroke-linejoin:miter;stroke-opacity:1"
       d="m 96.037526,135.38353 c 1.977277,-2.13883 3.85957,-4.39736 6.152354,-6.13858"
       id="path935"
       sodipodi:nodetypes="cc" />
    <path
       style="fill:none;stroke:#f2f2f2;stroke-width:0.264583px;stroke-linecap:butt;stroke-linejoin:miter;stroke-opacity:1"
       d="m 97.655344,135.41014 c 1.372323,-0.82484 2.627066,-1.90969 4.292316,-2.08676"
       id="path937"
       sodipodi:nodetypes="cc" />
    <path
       style="fill:#f2f2f2;fill-opacity:1;stroke:none;stroke-width:0.264583px;stroke-linecap:butt;stroke-linejoin:miter;stroke-opacity:1"
       d="m 120.30646,137.76789 c 4.1816,-5.29486 9.02333,-10.029 14.24882,-14.43716 -3.96251,5.15968 -8.89188,9.87345 -12.08747,14.80809 z"
       id="path939"
       sodipodi:nodetypes="cccc" />
    <path
       style="fill:#f2f2f2;fill-opacity:1;stroke:none;stroke-width:0.264583px;stroke-linecap:butt;stroke-linejoin:miter;stroke-opacity:1"
       d="m 123.51139,138.49071 c 3.257,-5.01504 7.51818,-8.40898 11.80099,-11.76801 -3.57478,4.00512 -7.14858,7.94218 -10.72928,12.36116 z"
       id="path941"
       sodipodi:nodetypes="cccc" />
    <path
       style="fill:#f2f2f2;fill-opacity:1;stroke:none;stroke-width:0.264583px;stroke-linecap:butt;stroke-linejoin:miter;stroke-opacity:1"
       d="m 125.91657,139.00076 c 3.21503,-4.24529 6.76609,-7.40469 10.28891,-10.65536 l -9.26902,10.99448 z"
       id="path943"
       sodipodi:nodetypes="cccc" />
    <path
       style="fill:#f2f2f2;fill-opacity:1;stroke:none;stroke-width:0.264583px;stroke-linecap:butt;stroke-linejoin:miter;stroke-opacity:1"
       d="m 128.27976,139.29271 c 2.69651,-3.7513 6.36526,-6.47886 9.55987,-9.4723 l -8.46352,9.84956 z"
       id="path945"
       sodipodi:nodetypes="cccc" />
    <path
       style="fill:#f2f2f2;fill-opacity:1;stroke:none;stroke-width:0.264583px;stroke-linecap:butt;stroke-linejoin:miter;stroke-opacity:1"
       d="m 130.00979,139.74166 c 3.11593,-3.35466 5.67642,-5.3258 8.96708,-7.83681 -2.18812,2.29887 -4.66561,5.20761 -7.45634,8.20709 z"
       id="path947"
       sodipodi:nodetypes="cccc" />
    <path
       style="fill:#f2f2f2;fill-opacity:1;stroke:none;stroke-width:0.264583px;stroke-linecap:butt;stroke-linejoin:miter;stroke-opacity:1"
       d="m 132.62931,140.14146 c 2.86214,-3.15706 4.62975,-4.2125 7.48852,-6.07967 l -6.38768,6.30435 z"
       id="path949"
       sodipodi:nodetypes="cccc" />
    <path
       style="fill:#f2f2f2;fill-opacity:1;stroke:none;stroke-width:0.264583px;stroke-linecap:butt;stroke-linejoin:miter;stroke-opacity:1"
       d="m 134.3327,140.56587 c 2.48007,-2.86179 5.26838,-3.99642 7.96198,-5.66175 -2.55176,1.89598 -5.04446,3.81593 -7.08352,5.91998 z"
       id="path951"
       sodipodi:nodetypes="cccc" />
    <path
       style="fill:#f2f2f2;fill-opacity:1;stroke:none;stroke-width:0.264583px;stroke-linecap:butt;stroke-linejoin:miter;stroke-opacity:1"
       d="m 177.01064,143.79966 c -0.0452,4.49424 0.43554,8.91528 -0.35292,12.82647 0,0 -7.75985,-2.11728 -11.74615,-2.38058 -6.13007,-0.4049 -12.28166,0.57578 -18.38762,1.25321 -9.99997,1.10945 -19.83906,3.42443 -29.83168,4.5983 -6.26063,0.73546 -12.55641,1.15738 -18.849124,1.52893 -5.740011,0.33892 -11.493582,0.38963 -17.238208,0.63836 -4.768949,0.20648 -9.529276,0.70598 -14.302692,0.70894 -7.812425,0.005 -15.62399,-0.48889 -23.40996,-1.13128 -4.275649,-0.35277 -8.529717,-0.93659 -12.78351,-1.49415 -4.499459,-0.58976 -9.009362,-1.13626 -13.472331,-1.95776 -1.557103,-0.28662 -3.280163,-0.21711 -4.635554,-1.03542 -3.1782139,-1.91883 -6.4119723,-4.73325 -8.7964318,-8.36221 -0.308876,-0.47008 -0.086255,-1.13481 -0.086255,-1.13481 l 1.7797902,-1.70963 c 4.5967436,-1.79587 9.4338766,-3.06901 14.2444886,-4.39983 l 39.358876,-1.49031 55.223991,0.45319 31.80366,4.02611 28.56626,-0.6044 z"
       id="path955"
       sodipodi:nodetypes="ccaaaaaaaaasscccccccc" />
    <path
       style="fill:#d4d4d4;fill-opacity:1;stroke:none;stroke-width:0.264583px;stroke-linecap:butt;stroke-linejoin:miter;stroke-opacity:1"
       d="m 4.8979944,146.14803 c 4.4037109,1.10314 4.3814116,4.69502 5.8818786,7.68871 -2.7301549,-2.41449 -5.6739728,-5.28807 -7.6880665,-5.99735 -0.2995151,-0.10548 0.7066724,-0.17371 0.8309155,-0.46594 0.091703,-0.21569 -0.276998,-0.46789 -0.1778619,-0.68027 0.1798345,-0.38526 1.1531343,-0.54515 1.1531343,-0.54515 z"
       id="path923"
       sodipodi:nodetypes="ccsaac" />
    <path
       style="fill:none;stroke:#c7c7c7;stroke-width:0.264583px;stroke-linecap:butt;stroke-linejoin:miter;stroke-opacity:1"
       d="m 3.9494743,147.39374 c 1.7727136,0.11275 3.272339,1.14992 4.3006189,2.78199"
       id="path925"
       sodipodi:nodetypes="cc" />
    <circle
       style="opacity:1;fill:#fffcf4;fill-opacity:1;stroke:none;stroke-width:2.45308;stroke-linecap:round;stroke-linejoin:round"
       id="path58"
       cx="18.488943"
       cy="147.85442"
       r="4.2952018" />
    <circle
       style="opacity:1;fill:#2a2936;fill-opacity:1;stroke:none;stroke-width:1.38405;stroke-linecap:round;stroke-linejoin:round"
       id="path58-3-6"
       cx="18.542744"
       cy="147.8535"
       r="2.4233868" />
    <path
       style="fill:#e8e8e8;fill-opacity:1;stroke:none;stroke-width:0.264583px;stroke-linecap:butt;stroke-linejoin:miter;stroke-opacity:1"
       d="m 97.843146,161.46009 1.648081,-15.93236 -80.348744,-3.77953 c 0.704318,2.26017 3.815627,3.78298 3.704691,6.24594 -0.04781,1.06137 -0.431352,2.29734 -2.297878,3.84215 0,0 -2.157231,1.86487 -2.430625,3.1673 -0.280964,1.3385 0.978249,3.98469 0.978249,3.98469 13.140478,1.48664 24.122461,3.31239 37.894004,3.8098 13.531008,0.48872 27.234777,-0.70577 40.852222,-1.33799 z"
       id="path971"
       sodipodi:nodetypes="cccscacsc" />
    <path
       style="fill:#fcfcf5;fill-opacity:1;stroke:none;stroke-width:0.264583px;stroke-linecap:butt;stroke-linejoin:miter;stroke-opacity:1"
       d="m 44.544625,142.84116 c 0,0 26.859291,0.86483 40.284554,1.41276 8.752813,0.35723 17.499171,0.86214 26.251861,1.22229 13.74773,0.56568 27.49373,1.66658 41.25175,1.47422 3.84204,-0.0537 10.15312,0.46213 15.0249,0.10821 5.32905,-0.38713 9.72566,-1.64426 9.72566,-1.64426 l 0.2022,5.25137 c 0,0 -31.49313,-1.46242 -47.24994,-1.8874 -10.81569,-0.29171 -21.64324,-0.0608 -32.455701,-0.45458 -17.404851,-0.63387 -52.158868,-3.07053 -52.158868,-3.07053 z"
       id="path48"
       sodipodi:nodetypes="caassccaacc" />
    <path
       style="fill:#d4d4d4;fill-opacity:1;stroke:none;stroke-width:0.264583px;stroke-linecap:butt;stroke-linejoin:miter;stroke-opacity:1"
       d="m 19.142483,141.7482 c 5.1385,1.29752 14.969473,1.89935 22.498328,2.03659 16.583728,0.3023 25.218527,-3.97022 49.687396,-2.67685 16.858703,0.89111 33.648863,2.79353 50.480223,4.10311 6.65657,0.51792 13.30906,1.86433 19.97495,1.48478 5.15839,-0.29372 13.59932,-1.71496 15.22726,-2.89617 0.13875,-1.13246 0.55115,-2.84619 -0.0509,-3.62186 -0.747,-0.96247 -5.85686,1.96818 -8.90315,2.32882 -7.07479,0.83755 -14.27781,0.26176 -21.36824,-0.43099 -6.598,-0.64464 -13.07503,-1.93322 -19.58397,-3.22949 -2.89466,-0.57648 -5.78065,-1.44776 -8.71205,-1.7624 -4.06477,-0.43629 -8.16865,-0.35805 -12.25492,-0.48101 -10.119776,-0.30452 -20.242268,-0.70096 -30.366415,-0.63581 -9.186837,0.0591 -18.390032,0.1687 -27.545334,0.93153 -7.352436,0.61261 -14.706031,1.47219 -21.93987,2.92311 -2.418043,0.485 -3.87384,0.82686 -7.143348,1.92664 z"
       id="path953"
       sodipodi:nodetypes="casaacsasssaaaacc" />
    <path
       style="opacity:0.4;mix-blend-mode:multiply;fill:#c7c7c7;fill-opacity:1;stroke:none;stroke-width:0.264583px;stroke-linecap:butt;stroke-linejoin:miter;stroke-opacity:1"
       d="m 41.411278,143.99599 c 14.944263,-6.62052 24.475736,-5.98934 30.33245,-3.98126 0,0 -2.510282,2.26264 -3.684246,3.47615 -1.4732,1.52283 -2.506727,3.50056 -4.206667,4.76528 -2.152629,1.60152 -4.748507,2.57156 -7.310651,3.36785 -1.412519,0.439 -4.372806,0.75494 -4.372806,0.75494 -1.039058,-0.77757 -2.359497,-0.96496 -3.712866,-1.08329 -0.843629,-4.12508 -3.326361,-6.40727 -7.045214,-7.29967 z"
       id="path46"
       sodipodi:nodetypes="ccaaaccc" />
    <path
       style="fill:#c7c7c7;fill-opacity:1;stroke:none;stroke-width:0.264583px;stroke-linecap:butt;stroke-linejoin:miter;stroke-opacity:1"
       d="m 35.956126,141.77201 c 0.205206,0.0912 1.45533,0.82347 1.711575,2.25695 0.811706,4.54083 -0.756975,12.70664 -3.132065,14.05774 4.563963,-1.49189 5.202476,-11.58462 3.782876,-15.28478 -0.391375,-1.02011 -2.119031,-1.03483 -2.362386,-1.02991 z"
       id="path927"
       sodipodi:nodetypes="cscsc" />
  </g>
</svg>
