<?xml version="1.0" encoding="UTF-8" standalone="no"?>
<!-- Created with Inkscape (http://www.inkscape.org/) -->

<svg
   xmlns:dc="http://purl.org/dc/elements/1.1/"
   xmlns:cc="http://creativecommons.org/ns#"
   xmlns:rdf="http://www.w3.org/1999/02/22-rdf-syntax-ns#"
   xmlns:svg="http://www.w3.org/2000/svg"
   xmlns="http://www.w3.org/2000/svg"
   xmlns:sodipodi="http://sodipodi.sourceforge.net/DTD/sodipodi-0.dtd"
   xmlns:inkscape="http://www.inkscape.org/namespaces/inkscape"
   width="553.99268mm"
   height="234.72104mm"
   viewBox="0 0 553.99268 234.72104"
   version="1.1"
   id="svg8"
   inkscape:version="0.92.4 (5da689c313, 2019-01-14)"
   sodipodi:docname="Southern bluefin tuna.svg"
   inkscape:export-filename="C:\Omega\Graphics\Species\Southern bluefin tuna.png"
   inkscape:export-xdpi="96"
   inkscape:export-ydpi="96">
  <defs
     id="defs2" />
  <sodipodi:namedview
     id="base"
     pagecolor="#ffffff"
     bordercolor="#666666"
     borderopacity="1.0"
     inkscape:pageopacity="0.0"
     inkscape:pageshadow="2"
     inkscape:zoom="0.5"
     inkscape:cx="970.38363"
     inkscape:cy="452.16412"
     inkscape:document-units="mm"
     inkscape:current-layer="layer1"
     showgrid="false"
     inkscape:window-width="1920"
     inkscape:window-height="1013"
     inkscape:window-x="-9"
     inkscape:window-y="1379"
     inkscape:window-maximized="1"
     fit-margin-top="0"
     fit-margin-left="0"
     fit-margin-right="0"
     fit-margin-bottom="0" />
  <metadata
     id="metadata5">
    <rdf:RDF>
      <cc:Work
         rdf:about="">
        <dc:format>image/svg+xml</dc:format>
        <dc:type
           rdf:resource="http://purl.org/dc/dcmitype/StillImage" />
        <dc:title></dc:title>
      </cc:Work>
    </rdf:RDF>
  </metadata>
  <g
     inkscape:label="Layer 1"
     inkscape:groupmode="layer"
     id="layer1"
     transform="translate(166.88672,-18.642525)">
    <g
       id="g4700"
       transform="matrix(3.3456829,0,0,3.3456829,-258.28224,-319.02002)">
      <path
         sodipodi:nodetypes="ccccccccccccccccccccccccccccacc"
         inkscape:connector-curvature="0"
         id="path4620"
         d="m 69.736607,119.1622 c 2.980246,-6.31697 6.249116,-12.42403 9.921875,-18.23735 0.02035,0.55976 0.01726,1.07226 0.188989,1.93713 0.379672,0.007 0.669489,-0.75069 0.992187,-1.22843 -0.0077,0.78058 -0.01826,1.56284 0.188987,2.22061 0.461367,-0.0954 0.627693,-0.63336 0.921317,-0.98037 -0.05213,0.77031 -0.134015,1.54658 0.118114,2.25604 0.66955,0.0793 1.045543,-0.59625 1.511906,-1.03943 0.285886,0.70647 0.29563,1.39169 0.944941,2.12611 0.483095,-0.004 0.663311,-0.48305 0.944941,-0.80319 0.201386,0.70569 0.25273,1.5114 0.803198,1.98437 0.566718,0.009 1.006721,-0.31184 1.41741,-0.7087 0.183028,0.72842 0.100957,1.63358 0.708705,2.07886 0.589577,0.0682 0.973763,-0.39753 1.417412,-0.7087 0.199173,0.61322 0.09929,1.43347 0.661459,1.79539 0.679109,0.22975 1.059643,-0.17082 1.464656,-0.51972 0.272231,0.57236 0.2067,1.21228 0.897694,1.70089 0.731964,0.18128 1.007403,-0.47882 1.441035,-0.86226 0.216617,0.72526 0.278121,1.68916 0.87407,1.83083 0.694924,0.12944 1.099487,-0.38428 1.488279,-0.8032 0.20708,0.58377 0.149533,1.34397 0.874071,1.58277 0.673945,0.188 1.039226,-0.22903 1.441034,-0.68508 0.273301,0.53249 0.352901,1.14569 0.968564,1.53553 0.533209,0.0405 0.893829,-0.43681 1.275669,-0.85045 0.15071,0.56537 0.10658,1.21424 0.66146,1.6064 0.69915,0.18466 1.19441,-0.52111 1.6064,-0.96856 0.0661,0.57867 0.0492,1.22369 0.56697,1.44103 0.5447,-0.0117 1.09011,-0.0212 1.51191,-0.40159 -0.0226,0.73741 -0.32282,1.52586 -0.0473,2.20879 0.35288,0.87456 2.00657,1.99449 2.00657,1.99449 z"
         style="fill:#cfcdd7;fill-opacity:1;stroke:none;stroke-width:0.26458332px;stroke-linecap:butt;stroke-linejoin:miter;stroke-opacity:1" />
      <path
         inkscape:connector-curvature="0"
         id="path4616"
         d="m 124.18317,121.34689 4.67745,-1.84263 2.92932,3.26004 3.68527,-1.74813 3.44903,3.26004 4.016,-1.74814 2.40959,3.44903 3.11831,-1.84263 2.74033,3.07106 4.06324,-1.7009 2.03162,2.88207 2.83482,-1.37016 1.88989,2.45684 2.26785,-1.46466 1.93713,2.03163 -1.55915,0.51971 -39.782,-7.08705 z"
         style="fill:#d7bf9c;fill-opacity:1;stroke:none;stroke-width:0.26458332px;stroke-linecap:butt;stroke-linejoin:miter;stroke-opacity:1" />
      <path
         sodipodi:nodetypes="cscsaacscc"
         inkscape:connector-curvature="0"
         id="path4526"
         d="m 167.9789,130.75836 c 0,0 9.7342,-11.65295 15.43481,-16.90481 2.76268,-2.54521 9.48807,-6.08038 9.48807,-6.08038 -0.7443,0.31013 -10.8446,16.15167 -11.55941,24.32153 -0.0852,0.9738 -0.24191,1.97076 -0.0635,2.93186 1.14705,6.17917 4.24685,11.87143 7.14615,17.44744 1.12297,2.15972 3.94222,6.1472 3.94222,6.1472 0,0 -3.4344,-0.79226 -4.98294,-2.0315 -6.7059,-5.36652 -18.65141,-21.1382 -19.40541,-20.88687 z"
         style="fill:#6d8199;fill-opacity:1;stroke:none;stroke-width:0.26458332px;stroke-linecap:butt;stroke-linejoin:miter;stroke-opacity:1" />
      <path
         sodipodi:nodetypes="ccasacc"
         inkscape:connector-curvature="0"
         id="path4518"
         d="m 107.50917,118.66441 1.33635,-1.00227 c 0,0 5.25599,-4.91499 8.28535,-6.81537 2.81537,-1.76614 6.99097,-4.61999 9.05376,-4.17609 0.80822,0.17393 -6.67627,6.34487 -6.34765,10.39011 0.15345,1.88896 3.70836,4.30972 3.70836,4.30972 z"
         style="fill:#d7bf9c;fill-opacity:1;stroke:none;stroke-width:0.26458332px;stroke-linecap:butt;stroke-linejoin:miter;stroke-opacity:1" />
      <path
         sodipodi:nodetypes="ccccccccccccccccccc"
         inkscape:connector-curvature="0"
         id="path4618"
         d="m 124.81487,151.07083 c 1.1827,0.84964 2.50917,1.54523 4.31125,1.73125 -0.013,-1.2586 0.50589,-2.33603 1.22842,-3.48482 l 3.54352,1.21696 1.07522,-2.94266 4.40544,0.62756 0.75309,-2.8286 5.01105,0.37175 0.47247,-2.69308 5.76413,0.61422 1.32292,-3.3073 5.5279,0.66146 1.51191,-3.1183 4.06324,0.85045 0.61421,-2.31511 3.30729,1.32292 0.25196,-2.0747 -20.14295,4.29531 z"
         style="fill:#d7bf9c;fill-opacity:1;stroke:none;stroke-width:0.26458332px;stroke-linecap:butt;stroke-linejoin:miter;stroke-opacity:1" />
      <path
         sodipodi:nodetypes="cscc"
         inkscape:connector-curvature="0"
         id="path4520"
         d="m 113.79,155.34715 c 8.16121,7.97995 19.75232,12.67777 18.07579,10.92632 -3.49972,-3.65611 -7.54358,-7.84233 -7.05092,-15.20264 z"
         style="fill:#cfcdd7;fill-opacity:1;stroke:none;stroke-width:0.26499999;stroke-linecap:butt;stroke-linejoin:miter;stroke-miterlimit:4;stroke-dasharray:none;stroke-opacity:1" />
      <path
         sodipodi:nodetypes="csssaccassaaasscc"
         inkscape:connector-curvature="0"
         id="path4516"
         d="m 28.244877,135.28509 c -0.331784,-0.21309 -0.401638,-0.51038 -0.162279,-0.66739 5.667035,-3.71744 18.619259,-12.32356 45.809321,-17.12022 4.971036,-0.87695 19.779045,-1.39247 29.541391,-0.10261 22.38761,2.95799 43.03447,9.76622 64.81147,13.21433 4.33979,0.68715 9.41196,1.66689 13.09759,1.4855 l -0.0635,2.93186 c 0,0 -2.44976,-0.29739 -3.67831,-0.25916 -3.36881,0.10482 -6.73779,0.58149 -10.02261,1.33634 -14.81663,3.40484 -28.10589,10.40522 -41.82768,15.23437 -9.18443,3.2323 -18.25635,7.44422 -27.929665,8.55262 -12.199232,1.39783 -24.884568,0.62278 -36.749558,-2.53906 -8.181532,-2.18025 -15.597885,-6.72415 -22.851546,-11.09169 -3.750225,-2.25807 -7.292823,-4.82817 -10.595591,-7.75892 0,0 -0.588621,-1.6267 -0.134329,-1.61242 1.728128,0.0543 5.967707,0.7006 5.967707,0.7006 z"
         style="fill:#e2dfea;fill-opacity:1;stroke:none;stroke-width:0.26458332px;stroke-linecap:butt;stroke-linejoin:miter;stroke-opacity:1" />
      <path
         sodipodi:nodetypes="cassaacc"
         inkscape:connector-curvature="0"
         id="path4524"
         d="m 67.941221,158.37723 c 0,0 2.943105,4.42345 4.771948,6.3311 2.299774,2.39888 5.609326,5.28451 7.701264,6.3311 0.222698,0.11141 0.685601,0.0102 0.614212,-0.42522 -0.281967,-1.71969 -0.657911,-3.19714 -0.803198,-4.8192 -0.10398,-1.16089 0.223733,-2.36269 -0.04725,-3.49628 -0.207971,-0.87 -1.181177,-2.40959 -1.181177,-2.40959 z"
         style="fill:#cfcdd7;fill-opacity:1;stroke:none;stroke-width:0.26499999;stroke-linecap:butt;stroke-linejoin:miter;stroke-miterlimit:4;stroke-dasharray:none;stroke-opacity:1" />
      <path
         sodipodi:nodetypes="ssascss"
         inkscape:connector-curvature="0"
         id="path4614"
         d="m 41.36477,140.13988 c 0.735383,0.41198 -2.082661,3.13653 -2.645833,2.45684 -0.761782,-0.9194 -2.119853,-2.78249 -3.496281,-3.827 -2.142584,-1.62591 -4.692806,-2.18627 -7.202204,-3.63818 -0.380496,-0.22015 1.606966,-2.05221 3.611429,-1.08653 0,0 1.610095,2.41278 4.228611,3.80339 1.755238,0.93215 4.269441,1.59969 5.504278,2.29148 z"
         style="fill:#cfcdd7;fill-opacity:1;stroke:none;stroke-width:0.26458332px;stroke-linecap:butt;stroke-linejoin:miter;stroke-opacity:1" />
      <path
         sodipodi:nodetypes="csssaccsssscc"
         inkscape:connector-curvature="0"
         id="path4516-4"
         d="m 28.244878,135.28509 c -0.331784,-0.21309 -0.401638,-0.51038 -0.162279,-0.66739 5.667035,-3.71744 18.619259,-12.32356 45.809321,-17.12022 4.971037,-0.87695 19.779047,-1.39247 29.54139,-0.10261 22.38761,2.95799 43.03447,9.76622 64.81147,13.21433 4.33979,0.68715 9.41196,1.66689 13.09759,1.4855 l -0.004,1.40397 c -6.10229,0.0468 -14.65526,0.49059 -24.67653,-0.22612 -22.40877,-1.60266 -50.82632,-5.28968 -65.788562,-5.03461 -23.328558,0.3977 -41.087993,2.58465 -58.809929,6.34617 -0.296642,0.063 -0.472805,-0.36624 -2.281959,-0.0782 -0.670894,0.10683 -1.002772,0.54646 -1.672273,0.66984 z"
         style="fill:#416c92;fill-opacity:1;stroke:none;stroke-width:0.26458332px;stroke-linecap:butt;stroke-linejoin:miter;stroke-opacity:1" />
      <path
         sodipodi:nodetypes="csssaccsssscc"
         inkscape:connector-curvature="0"
         id="path4516-0"
         d="m 28.109043,135.17579 c -0.163467,-0.12155 -0.265803,-0.40108 -0.02644,-0.55809 5.667035,-3.71744 18.619259,-12.32356 45.809321,-17.12022 4.971037,-0.87695 19.779047,-1.39247 29.541386,-0.10261 22.38761,2.95799 43.03447,9.76622 64.81147,13.21433 4.33979,0.68715 9.41196,1.66689 13.09759,1.4855 l -0.0326,1.37697 c -2.64634,0.11888 -16.31713,0.30908 -29.6702,-1.7814 -16.594,-2.59786 -41.38308,-5.97536 -61.716928,-5.91253 -21.26268,0.0657 -42.040322,2.64018 -58.010342,8.15787 -0.627077,0.21665 -1.461302,0.36973 -2.067896,0.59279 -0.616529,0.22672 -1.140917,0.41422 -1.735317,0.64739 z"
         style="fill:#405373;fill-opacity:1;stroke:none;stroke-width:0.26458332px;stroke-linecap:butt;stroke-linejoin:miter;stroke-opacity:1" />
      <circle
         r="2.7639508"
         cy="134.56473"
         cx="42.85305"
         id="path4530"
         style="fill:#d3d7bd;fill-opacity:1;stroke-width:0.36419117" />
      <circle
         r="1.8737614"
         cy="134.56473"
         cx="42.85305"
         id="path4530-5"
         style="fill:#39392d;fill-opacity:1;stroke-width:0.24689563" />
      <path
         sodipodi:nodetypes="cscsc"
         inkscape:connector-curvature="0"
         id="path4530-57"
         d="m 43.542718,133.39991 c -3e-6,0.39509 -0.286878,0.21424 -0.681967,0.21424 -0.395089,0 -0.748781,0.18085 -0.748784,-0.21424 -2e-6,-0.39509 0.336987,-0.53163 0.732079,-0.53163 0.395093,0 0.698674,0.13654 0.698672,0.53163 z"
         style="fill:#fff9f9;fill-opacity:1;stroke-width:0.09426123" />
      <path
         sodipodi:nodetypes="csssssc"
         inkscape:connector-curvature="0"
         id="path4654"
         d="m 65.295388,138.10826 c 2.395867,-0.17335 4.179842,2.96738 6.210429,5.51555 0.432391,0.54261 1.601389,1.27945 2.214909,0.95545 3.804671,-2.00924 7.46532,-3.21563 11.074541,-3.90866 4.474884,-0.85925 6.653422,-1.4469 11.378548,-2.12804 1.58924,-0.22911 -9.673721,-3.92353 -14.809484,-4.21267 -6.874283,-0.38703 -16.068943,3.77837 -16.068943,3.77837 z"
         style="fill:#cfcdd7;fill-opacity:1;stroke:none;stroke-width:0.17197235px;stroke-linecap:butt;stroke-linejoin:miter;stroke-opacity:1" />
      <path
         sodipodi:nodetypes="caaacaaac"
         inkscape:connector-curvature="0"
         id="path4528"
         d="m 162.29353,133.66704 c 0,0 2.65839,-0.0786 3.96875,-0.28349 1.24916,-0.19534 2.4217,-0.85323 3.68526,-0.89769 1.50077,-0.0528 2.95144,0.56716 4.44122,0.75595 1.36267,0.17269 4.10636,0.34373 4.10636,0.34373 0,0 -2.77536,0.0718 -4.1536,0.22324 -1.42837,0.15692 -2.8153,0.69972 -4.25224,0.7087 -1.24285,0.008 -2.45,-0.42959 -3.68526,-0.56696 -1.365,-0.1518 -4.11049,-0.28348 -4.11049,-0.28348 z"
         style="opacity:0.74800002;fill:#cfcdd7;fill-opacity:1;stroke:none;stroke-width:0.26458332px;stroke-linecap:butt;stroke-linejoin:miter;stroke-opacity:1" />
      <path
         sodipodi:nodetypes="ccc"
         inkscape:connector-curvature="0"
         id="path4642"
         d="m 167.15804,133.62384 c 1.95552,-0.30086 4.72119,-0.3347 6.49296,-0.12217 -1.7348,0.34053 -4.47006,0.35686 -6.49296,0.12217 z"
         style="fill:#aba9b1;fill-opacity:1;stroke:none;stroke-width:0.26458332px;stroke-linecap:butt;stroke-linejoin:miter;stroke-opacity:1" />
    </g>
  </g>
</svg>
