<?xml version="1.0" encoding="UTF-8" standalone="no"?>
<!-- Created with Inkscape (http://www.inkscape.org/) -->

<svg
   xmlns:dc="http://purl.org/dc/elements/1.1/"
   xmlns:cc="http://creativecommons.org/ns#"
   xmlns:rdf="http://www.w3.org/1999/02/22-rdf-syntax-ns#"
   xmlns:svg="http://www.w3.org/2000/svg"
   xmlns="http://www.w3.org/2000/svg"
   xmlns:sodipodi="http://sodipodi.sourceforge.net/DTD/sodipodi-0.dtd"
   xmlns:inkscape="http://www.inkscape.org/namespaces/inkscape"
   width="210mm"
   height="297mm"
   viewBox="0 0 210 297"
   version="1.1"
   id="svg8740"
   inkscape:version="0.92.1 r"
   sodipodi:docname="thresher curved.svg">
  <defs
     id="defs8734" />
  <sodipodi:namedview
     id="base"
     pagecolor="#ffffff"
     bordercolor="#666666"
     borderopacity="1.0"
     inkscape:pageopacity="0.0"
     inkscape:pageshadow="2"
     inkscape:zoom="1.1149729"
     inkscape:cx="504.47633"
     inkscape:cy="597.13515"
     inkscape:document-units="mm"
     inkscape:current-layer="layer1"
     showgrid="false"
     inkscape:window-width="1920"
     inkscape:window-height="1016"
     inkscape:window-x="0"
     inkscape:window-y="30"
     inkscape:window-maximized="1" />
  <metadata
     id="metadata8737">
    <rdf:RDF>
      <cc:Work
         rdf:about="">
        <dc:format>image/svg+xml</dc:format>
        <dc:type
           rdf:resource="http://purl.org/dc/dcmitype/StillImage" />
        <dc:title></dc:title>
      </cc:Work>
    </rdf:RDF>
  </metadata>
  <g
     inkscape:label="Layer 1"
     inkscape:groupmode="layer"
     id="layer1">
    <path
       style="fill:#a29d9d;fill-opacity:1;stroke:#ff7401;stroke-width:0;stroke-linecap:butt;stroke-linejoin:miter;stroke-miterlimit:4;stroke-dasharray:none;stroke-opacity:1"
       d="m 26.127604,97.57031 c 0,0 -6.172992,2.258129 -9.496652,3.16556 -4.364502,1.19159 -7.2285447,2.16951 -11.1502974,4.20498 -1.5424429,0.80056 -4.81246434,2.10372 -4.204985,3.9215 0.4266718,1.27674 2.7176065,0.57712 4.015997,0.42522 1.8638013,-0.21805 3.7721112,-0.59613 5.6223954,-0.28348 1.859969,0.31428 5.24442,2.12612 5.24442,2.12612 z"
       id="path9358"
       inkscape:connector-curvature="0"
       sodipodi:nodetypes="cssasacc" />
    <path
       style="opacity:1;fill:#e0e2e2;fill-opacity:1;stroke:#fb7100;stroke-width:0;stroke-linecap:butt;stroke-linejoin:miter;stroke-miterlimit:4;stroke-dasharray:none;stroke-opacity:1"
       d="m 475.77344,396.41016 c -4.25624,1.46469 -6.97348,2.47542 -15.76563,5.2207 -6.76945,2.11371 -14.23864,4.33166 -21.41601,6.22852 -3.58869,0.94842 -7.10331,1.81577 -10.42188,2.55078 -3.31856,0.735 -6.44181,1.33651 -9.24219,1.75195 -3.32721,0.4936 -6.67109,0.77752 -10.02734,0.92773 -3.35625,0.15022 -6.72373,0.16656 -10.0957,0.125 -6.74394,-0.0831 -13.50545,-0.39741 -20.23242,-0.33789 -6.13072,0.0542 -12.30611,-0.46088 -18.45899,-0.73242 -3.07644,-0.13577 -6.14776,-0.21131 -9.20508,-0.12305 -3.05731,0.0883 -6.1013,0.33951 -9.12304,0.85547 -3.09439,0.52838 -6.16437,1.16109 -9.21289,1.88477 -3.04853,0.72368 -6.07551,1.5377 -9.08399,2.42578 -6.01695,1.77615 -11.95994,3.85139 -17.85156,6.09961 -5.89163,2.24822 -11.73214,4.66962 -17.54492,7.14258 -5.81279,2.47296 -11.59652,4.9969 -17.37696,7.44726 -5.88209,2.49345 -11.73518,5.10171 -17.47656,7.92578 -5.74138,2.82408 -11.37244,5.8637 -16.81055,9.2168 -4.86906,3.00225 -9.77225,6.01907 -14.63085,9.11719 -4.85861,3.09812 -9.67208,6.27821 -14.36133,9.60937 -4.68926,3.33117 -9.25421,6.81228 -13.61524,10.51368 -2.18051,1.85069 -4.31024,3.75563 -6.3789,5.72461 -2.06867,1.96897 -4.07672,4.00301 -6.01368,6.10742 -2.47191,2.68561 -4.88091,5.47982 -7.17382,8.3789 -2.29292,2.89909 -4.46833,5.90174 -6.47461,9.00391 -2.00629,3.10217 -3.84307,6.30475 -5.45508,9.59961 -1.61201,3.29485 -2.99928,6.68301 -4.10938,10.16016 -0.76167,2.38578 -1.34492,4.83303 -1.76757,7.31835 -0.42266,2.48533 -0.68586,5.00903 -0.8086,7.54297 -0.12274,2.53394 -0.10487,5.07968 0.0332,7.61133 0.13807,2.53165 0.39607,5.0489 0.75585,7.52735 0.36383,2.50628 0.88039,4.99396 1.52735,7.45507 0.64696,2.46112 1.42456,4.89607 2.31445,7.29102 0.8899,2.39494 1.89175,4.75081 2.98438,7.05859 1.09263,2.30779 2.27608,4.56599 3.53125,6.76563 1.73941,3.04827 3.64701,6.0024 5.6875,8.86719 2.04048,2.86478 4.21432,5.64037 6.49023,8.33789 2.27591,2.69752 4.65393,5.3168 7.09961,7.86328 2.44568,2.54647 4.95996,5.01999 7.50977,7.43164 2.62941,2.48695 5.33309,4.91296 8.10937,7.25781 2.77628,2.34485 5.62371,4.60858 8.54297,6.77539 2.91926,2.16682 5.9104,4.23661 8.96875,6.18945 3.05835,1.95285 6.18535,3.78926 9.37891,5.49219 3.4059,1.81617 7.83125,3.70579 12.55468,5.51953 2.57796,0.98991 5.18867,1.8438 7.82617,2.76367 -20.38803,-14.65349 -35.67276,-36.94524 -52.13281,-55.83007 -51.40253,-58.97484 -23.73826,-54.25154 -1.50976,-75.76563 27.58987,-26.70315 64.9035,-40.68228 100.09179,-55.36133 45.38336,-18.93195 126.79203,-24.54528 141.5625,-41.5039 7.56021,-8.68021 37.10988,-23.57353 38.8086,-33.43164 z"
       id="path9382"
       transform="scale(0.26458333)"
       inkscape:connector-curvature="0" />
    <path
       style="fill:#afa9a8;fill-opacity:1;stroke:#fb7100;stroke-width:0;stroke-linecap:butt;stroke-linejoin:miter;stroke-miterlimit:4;stroke-dasharray:none;stroke-opacity:1"
       d="M 272.46875,319.80078 C 226.93618,319.39694 181.21564,325.86984 138,340.25 c -30.69199,16.49413 -60.93225,41.11552 -76.941406,72.58398 -24.830502,61.19755 -35.724554,139.48413 7.761718,195.1543 6.466277,7.24782 13.626751,30.93186 21.236877,38.06568 7.205123,6.75417 5.527597,-9.815 22.617021,3.39704 37.80212,29.2253 78.13795,55.86154 101.84337,64.87322 25.66635,9.75713 -10.64282,47.86158 13.24609,104.10937 8.23081,19.37991 46.97771,-30.91023 62.06836,-49.49609 27.45875,-37.62395 77.34779,-47.63037 119.65625,-59.88477 46.55263,-14.08115 94.23763,-22.9988 142.0293,-31.58789 86.62205,-21.59671 177.02871,-17.85309 264.33984,-34.66601 56.28764,-14.62866 117.13296,-41.30992 144.92969,-95.52539 -28.97023,2.51565 -60.40933,37.15619 -90.62109,52.58789 -82.7291,31.6896 -172.93332,22.46825 -259.64649,27.56445 -71.60375,2.86889 -143.73735,0.3276 -214.89062,9.60547 -40.73779,6.68923 -80.29966,20.10713 -118.48633,34.77344 -10.61675,-2.59745 -19.79239,-7.46673 -28.18946,-13.50196 -2.6375,-0.91987 -5.24821,-1.77376 -7.82617,-2.76367 -4.72343,-1.81374 -9.14878,-3.70336 -12.55468,-5.51953 -3.19356,-1.70293 -6.32056,-3.53934 -9.37891,-5.49219 -3.05835,-1.95284 -6.04949,-4.02263 -8.96875,-6.18945 -2.91926,-2.16681 -5.76669,-4.43054 -8.54297,-6.77539 -2.77628,-2.34485 -5.47996,-4.77086 -8.10937,-7.25781 -2.54981,-2.41165 -5.06409,-4.88517 -7.50977,-7.43164 -2.44568,-2.54648 -4.8237,-5.16576 -7.09961,-7.86328 -2.27591,-2.69752 -4.44975,-5.47311 -6.49023,-8.33789 -2.04049,-2.86479 -3.94809,-5.81892 -5.6875,-8.86719 -1.25517,-2.19964 -2.43862,-4.45784 -3.53125,-6.76563 -1.09263,-2.30778 -2.09448,-4.66365 -2.98438,-7.05859 -0.88989,-2.39495 -1.66749,-4.8299 -2.31445,-7.29102 -0.64696,-2.46111 -1.16352,-4.94879 -1.52735,-7.45507 -0.35978,-2.47845 -0.61778,-4.9957 -0.75585,-7.52735 -0.13808,-2.53165 -0.15595,-5.07739 -0.0332,-7.61133 0.12274,-2.53394 0.38594,-5.05764 0.8086,-7.54297 0.42265,-2.48532 1.0059,-4.93257 1.76757,-7.31835 1.1101,-3.47715 2.49737,-6.86531 4.10938,-10.16016 1.61201,-3.29486 3.44879,-6.49744 5.45508,-9.59961 2.00628,-3.10217 4.18169,-6.10482 6.47461,-9.00391 2.29291,-2.89908 4.70191,-5.69329 7.17382,-8.3789 1.93696,-2.10441 3.94501,-4.13845 6.01368,-6.10742 2.06866,-1.96898 4.19839,-3.87392 6.3789,-5.72461 4.36103,-3.7014 8.92598,-7.18251 13.61524,-10.51368 4.68925,-3.33116 9.50272,-6.51125 14.36133,-9.60937 4.8586,-3.09812 9.76179,-6.11494 14.63085,-9.11719 5.43811,-3.3531 11.06917,-6.39272 16.81055,-9.2168 5.74138,-2.82407 11.59447,-5.43233 17.47656,-7.92578 5.78044,-2.45036 11.56417,-4.9743 17.37696,-7.44726 5.81278,-2.47296 11.65329,-4.89436 17.54492,-7.14258 5.89162,-2.24822 11.83461,-4.32346 17.85156,-6.09961 3.00848,-0.88808 6.03546,-1.7021 9.08399,-2.42578 3.04852,-0.72368 6.1185,-1.35639 9.21289,-1.88477 3.02174,-0.51596 6.06573,-0.7672 9.12304,-0.85547 3.05732,-0.0883 6.12864,-0.0127 9.20508,0.12305 6.15288,0.27154 12.32827,0.78666 18.45899,0.73242 6.72697,-0.0595 13.48848,0.25479 20.23242,0.33789 3.37197,0.0416 6.73945,0.0252 10.0957,-0.125 3.35625,-0.15021 6.70013,-0.43413 10.02734,-0.92773 2.80038,-0.41544 5.92363,-1.01695 9.24219,-1.75195 3.31857,-0.73501 6.83319,-1.60236 10.42188,-2.55078 7.17737,-1.89686 14.64656,-4.11481 21.41601,-6.22852 8.79215,-2.74528 11.50939,-3.75601 15.76563,-5.2207 0.0811,-0.47098 0.1709,-0.94393 0.11914,-1.39063 -2.17346,-18.75537 -60.46676,-53.07515 -98.78711,-62.28125 -33.92146,-8.14931 -69.2225,-12.6234 -104.63672,-12.9375 z"
       id="path9363"
       transform="scale(0.26458333)"
       inkscape:connector-curvature="0"
       sodipodi:nodetypes="ccccssssccccccccccccccsccsscccscccccccssccssccssscscccccccccsccscc" />
    <circle
       style="opacity:1;fill:#404043;fill-opacity:1;fill-rule:evenodd;stroke:#fb7100;stroke-width:0;stroke-linecap:round;stroke-linejoin:round;stroke-miterlimit:4;stroke-dasharray:none;stroke-opacity:1;paint-order:markers stroke fill"
       id="path9377"
       cx="113.94093"
       cy="107.76622"
       r="1.5119048" />
    <path
       style="fill:#a29d9d;fill-opacity:1;stroke:#ff7300;stroke-width:0;stroke-linecap:butt;stroke-linejoin:miter;stroke-miterlimit:4;stroke-dasharray:none;stroke-opacity:1"
       d="m 33.67596,61.268276 c 1.18806,-0.474487 7.138111,3.294858 10.022607,5.87993 7.443992,6.671271 17.907058,24.054255 17.907058,24.054255 0,0 -8.055974,2.720745 -11.952781,4.408558 -4.723519,2.045884 -9.93182,3.526777 -13.809085,6.912641 -3.34777,4.04265 -4.959686,4.65481 -8.916354,12.26534 1.669047,-7.92025 3.854264,-10.28785 5.946746,-15.835721 1.321986,-3.623296 2.335077,-7.397287 2.806329,-11.225321 0.217706,-1.768447 0.08456,-3.565601 0,-5.34539 -0.222976,-4.693087 -0.892981,-9.354235 -1.336347,-14.03165 -0.223776,-2.360781 -2.870399,-6.203117 -0.668173,-7.082642 z"
       id="path9337"
       inkscape:connector-curvature="0"
       sodipodi:nodetypes="sacacccaaas" />
    <path
       style="fill:#afa9a8;fill-opacity:1;stroke:none;stroke-width:0.21155721;stroke-linecap:butt;stroke-linejoin:miter;stroke-miterlimit:4;stroke-dasharray:none;stroke-opacity:1"
       d="m 118.08089,111.68595 c 0,0 -1.98808,0.73513 -3.02216,0.94819 -1.0482,0.21597 -2.14576,0.11164 -3.19385,0.32813 -0.6777,0.13998 -1.41849,0.21925 -1.98019,0.62343 -0.27933,0.201 -0.86908,0.9297 -0.60683,0.83522 0.81058,-0.29203 1.53205,-0.56693 2.32087,-0.77377 1.23769,-0.32455 2.49442,-0.23672 3.76874,-0.72904 1.9287,-0.74513 2.61799,-1.12373 2.64968,-1.16104 0.0626,-0.0737 0.0637,-0.0711 0.0637,-0.0711 z"
       id="path9384"
       inkscape:connector-curvature="0"
       sodipodi:nodetypes="caaasasscc" />
    <ellipse
       style="opacity:1;fill:#e0e2e2;fill-opacity:1;fill-rule:evenodd;stroke:none;stroke-width:0.31783673;stroke-linecap:round;stroke-linejoin:round;stroke-miterlimit:4;stroke-dasharray:none;stroke-opacity:1;paint-order:markers stroke fill"
       id="path9386"
       cx="141.2363"
       cy="54.00388"
       rx="0.49170667"
       ry="0.22653341"
       transform="matrix(0.92042791,0.39091236,-0.29123396,0.95665186,0,0)" />
    <path
       style="fill:#a29d9d;fill-opacity:1;stroke:#ff7300;stroke-width:0;stroke-linecap:butt;stroke-linejoin:miter;stroke-miterlimit:4;stroke-dasharray:none;stroke-opacity:1"
       d="m 87.898264,121.17006 c -13.536152,-0.10173 -18.30702,3.33629 -25.123333,9.42125 -1.012285,0.90367 5.075925,1.72709 14.42651,10.41207 7.467425,6.93588 18.429938,21.38866 24.773219,17.91945 0.98284,-0.61835 0.3473,-2.34127 0.12633,-3.48123 -0.82325,-4.24697 -3.324412,-7.99685 -5.282605,-11.85431 -1.115432,-2.1973 -2.43671,-4.28397 -3.674956,-6.41447 -1.822338,-3.13548 -3.473872,-6.40178 -5.52535,-9.3723 -0.868185,-1.25712 -1.876447,-4.64546 -0.664132,-5.59195 0.304375,-0.1807 1.099769,-0.53814 0.944321,-1.03851 z"
       id="path9360"
       inkscape:connector-curvature="0"
       sodipodi:nodetypes="csscaaasccc" />
  </g>
</svg>
