<?xml version="1.0" encoding="UTF-8" standalone="no"?>
<!-- Created with Inkscape (http://www.inkscape.org/) -->

<svg
   xmlns:dc="http://purl.org/dc/elements/1.1/"
   xmlns:cc="http://creativecommons.org/ns#"
   xmlns:rdf="http://www.w3.org/1999/02/22-rdf-syntax-ns#"
   xmlns:svg="http://www.w3.org/2000/svg"
   xmlns="http://www.w3.org/2000/svg"
   xmlns:sodipodi="http://sodipodi.sourceforge.net/DTD/sodipodi-0.dtd"
   xmlns:inkscape="http://www.inkscape.org/namespaces/inkscape"
   version="1.1"
   id="svg2"
   xml:space="preserve"
   width="1477.3959"
   height="597.94666"
   viewBox="0 0 1477.3958 597.94666"
   sodipodi:docname="thresher_material.ai.svg"
   inkscape:version="0.92.1 r"><metadata
     id="metadata8"><rdf:RDF><cc:Work
         rdf:about=""><dc:format>image/svg+xml</dc:format><dc:type
           rdf:resource="http://purl.org/dc/dcmitype/StillImage" /><dc:title></dc:title></cc:Work></rdf:RDF></metadata><defs
     id="defs6"><clipPath
       clipPathUnits="userSpaceOnUse"
       id="clipPath18"><path
         d="M 0,448.46 H 1108.047 V 0 H 0 Z"
         id="path16"
         inkscape:connector-curvature="0" /></clipPath></defs><sodipodi:namedview
     pagecolor="#ffffff"
     bordercolor="#666666"
     borderopacity="1"
     objecttolerance="10"
     gridtolerance="10"
     guidetolerance="10"
     inkscape:pageopacity="0"
     inkscape:pageshadow="2"
     inkscape:window-width="1920"
     inkscape:window-height="1016"
     id="namedview4"
     showgrid="false"
     inkscape:zoom="0.83087678"
     inkscape:cx="657.80427"
     inkscape:cy="411.32489"
     inkscape:window-x="0"
     inkscape:window-y="30"
     inkscape:window-maximized="1"
     inkscape:current-layer="g10"
     fit-margin-top="0"
     fit-margin-left="0"
     fit-margin-right="0"
     fit-margin-bottom="0" /><g
     id="g10"
     inkscape:groupmode="layer"
     inkscape:label="thresher_material"
     transform="matrix(1.3333333,0,0,-1.3333333,-1.0082494,598.11772)"><g
       id="g12"
       transform="translate(0.75613026,0.12830078)"><g
         id="g14"
         clip-path="url(#clipPath18)"><g
           id="g20"
           transform="translate(200.1298,232.4324)"><path
             d="m 0,0 c -2.736,-0.14 -6.104,-0.912 -7.788,-0.912 -1.683,0 -2.209,2.631 -3.893,2.42 -1.684,-0.21 -4.841,-3.367 -7.051,-3.367 -2.213,0 -5.262,4.735 -8.209,2.841 -7.562,-4.861 -12.726,1.932 -14.838,-1.368 -3.367,-5.262 -7.109,0.809 -8.945,-0.737 -2.089,-1.758 -62.439,12.376 -82.926,11.366 -4.763,-0.235 -7.162,-4.874 -11.927,-4.701 -3.692,0.135 -12.891,4.486 -16.487,5.332 -8.246,1.942 -25.855,0.983 -37.522,0.812 2.585,-5.386 13.802,-10.421 18.649,-13.44 10.325,-6.429 38.026,-14.102 46.585,-14.031 2.142,0.017 -7.476,-2.356 -7.296,-4.491 0.724,-8.594 23.246,-11.427 31.571,-13.68 17.506,-4.739 53.788,-8.394 72.463,-9.822 L 0.308,0.007 C 0.204,0.006 0.098,0.005 0,0"
             style="fill:#e0e1e0;fill-opacity:1;fill-rule:nonzero;stroke:none"
             id="path22"
             inkscape:connector-curvature="0" /></g><g
           id="g24"
           transform="translate(1024.5525,428.9439)"><path
             d="m 0,0 c -39.392,-9.292 -117.265,-32.514 -154.487,-48.409 -193.214,-82.505 -157.919,-87.88 -216.086,-101.027 -18.887,-4.269 -58.097,-1.078 -77.454,-0.561 -50.869,1.36 -152.289,12.078 -203.176,12.348 -34.666,0.183 -104.031,-3.179 -138.492,-6.946 -27.586,-3.015 -109.446,-18.522 -109.446,-18.522 l -31.571,3.368 58.512,-14.733 c 0,0 41.415,-14.556 49.803,-23.021 17.282,-1.419 125.804,-5.718 174,-4.13 56.069,1.847 214.47,7.895 266.599,28.624 95.976,38.166 378.009,162.485 378.009,162.485 l -0.633,-0.509 C 3.897,-6.587 13.192,-1.445 23.713,4.63 25.172,5.472 5.879,1.387 0,0"
             style="fill:#afa9a8;fill-opacity:1;fill-rule:nonzero;stroke:#afa9a8;stroke-opacity:1"
             id="path26"
             inkscape:connector-curvature="0" /></g><g
           id="g28"
           transform="translate(947.8356,381.3195)" /><g
           id="g32"
           transform="translate(524.8896,222.8208)"><path
             d="M 0,0 C -0.565,2.182 8.77,5.644 15.984,7.592 5.057,8.048 -7.602,8.22 -13.751,7.016 -23.162,5.173 -42.155,-1.255 -49.11,-7.858 c -2.175,-2.064 -4.9,-8.391 -6.581,-12.675 2.231,-0.205 4.716,-0.922 7.493,-3.391 9.247,-8.22 20.307,-25.286 25.748,-31.641 9.611,-11.225 29.537,-34.832 43.147,-32.343 4.422,0.809 4.292,9.754 2.876,16.628 -2.445,11.867 -11.272,34.942 -7.682,46.514 2.354,7.591 20.796,18.434 19.574,22.942 C 33.781,4.385 1.263,-4.876 0,0"
             style="fill:#afa9a8;fill-opacity:1;fill-rule:nonzero;stroke:none"
             id="path34"
             inkscape:connector-curvature="0" /></g><g
           id="g36"
           transform="translate(65.7077,217.138)"><path
             d="m 0,0 c 0,0 10.122,-0.585 13.049,-2.035 2.075,-1.027 4.946,-3.893 4.561,-4.279 -0.842,-0.842 -6.13,2.457 -9.121,3.087 -2.589,0.545 -12.348,0.631 -12.348,0.631 z"
             style="fill:#afafb0;fill-opacity:1;fill-rule:nonzero;stroke:none"
             id="path38"
             inkscape:connector-curvature="0" /></g><g
           id="g40"
           transform="translate(642.7545,255.9352)"><path
             d="m 0,0 c -18.422,-7.955 -50.594,-12.204 -86.897,-16.316 -65.191,-7.384 -143.688,-11.122 -179.702,-12.308 -48.196,-1.588 -174.153,4.251 -176.657,4.209 l -36.982,-42.866 c 0.307,-0.023 0.623,-0.048 0.921,-0.07 31.903,-2.39 95.984,-1.296 127.967,-0.562 19.524,0.449 59.123,0.967 78.577,2.666 25.609,2.238 87.378,11.581 96.502,11.682 0.857,0.009 1.765,0.005 2.715,-0.082 1.681,4.283 4.407,10.611 6.581,12.675 6.955,6.602 25.948,13.03 35.359,14.873 6.149,1.204 18.808,1.033 29.735,0.576 2.321,0.627 4.424,1.099 5.905,1.319 10.629,1.578 31.782,2.841 42.937,2.315 3.226,-0.152 7.307,-5.035 10.523,-4.736 2.767,0.257 5.272,5.664 7.718,6.981 4.919,2.648 21.195,3.048 25.853,-0.035 7.472,-4.946 23.889,-33.43 29.501,-39.955 6.325,-7.352 25.538,-24.766 31.641,-20.626 9.26,6.279 -10.075,41.086 -4.946,53.846 6.973,17.344 40.398,36.354 56.021,46.619 35.002,22.999 109.215,62.301 147.051,80.261 13.26,6.294 33.149,15.41 54.758,24.918 25.83777,11.45566 27.5705,12.80497 69.26318,29.09224 L 378.009,162.485 C 378.009,162.485 98.782,42.656 0,0"
             style="fill:#e0e1e0;fill-opacity:1;fill-rule:nonzero;stroke:none"
             id="path42"
             inkscape:connector-curvature="0"
             sodipodi:nodetypes="ccccccccccccccccccccccccccc" /></g><g
           id="g44"
           transform="translate(1076.0482,448.4478)"><path
             d="m 0,0 c -53.668,-0.017 -157.141,-35.757 -208.228,-52.197 -58.04,-18.679 -168.659,-59.634 -227.732,-92.889 -3.683,-2.073 -1.105,-8.947 -4.595,-11.331 -3.746,-2.558 -13.51,-0.994 -17.995,-0.315 -12.292,1.859 -37.255,5.878 -48.409,11.365 -3.289,1.618 -8.238,8.235 -11.892,8.524 -3.032,0.241 -7,-5.881 -9.997,-5.367 -45.357,7.788 -90.504,10.805 -113.445,13.26 -1.499,0.161 6.066,1.53 6.314,3.017 0.701,4.209 -5.964,-1.684 -8.068,21.398 -0.836,9.168 -0.811,26.645 -0.772,35.851 0.07,16.697 -4.139,31.921 -10.734,31.921 -12.353,0 -28.312,-22.984 -35.781,-32.833 -9.157,-12.077 -28.203,-53.671 -33.044,-53.671 -15.363,0 -90.857,-1.781 -122.074,-6.946 -36.971,-6.116 -110.103,-16.415 -151.751,-39.99 -11.155,-6.314 -73.034,-15.575 -77.665,-30.729 -0.347,-1.137 -0.175,-2.275 0.364,-3.397 11.666,0.171 29.275,1.129 37.521,-0.812 3.597,-0.847 10.41,-4.496 14.102,-4.63 4.765,-0.174 9.55,3.764 14.312,3.999 20.488,1.01 58.745,-13.357 78.928,-15.365 15.741,-1.566 40.528,-7.911 53.53,0.491 5.566,3.596 9.567,6.077 6.798,7.725 -8.388,8.464 -53.383,18.935 -53.383,18.935 l -58.511,14.733 31.571,-3.367 c 0,0 81.859,15.506 109.446,18.521 34.461,3.767 103.825,7.129 138.491,6.946 50.887,-0.27 152.307,-10.988 203.176,-12.348 19.358,-0.517 58.567,-3.708 77.455,0.561 58.166,13.148 22.871,18.522 216.085,101.027 37.222,15.895 115.095,39.117 154.487,48.409 5.879,1.387 25.172,5.473 23.714,4.63 -10.522,-6.075 -117.39014,-51.830336 -133.94492,-60.676808 L -71.716,-43.253 c 26.317,10.539 48.693,18.4 57.404,18.768 5.961,0.252 13.047,-14.017 18.732,-12.208 3.437,1.095 3.23,11.381 5.332,14.313 4.445,6.201 22.661,8.699 22.24,14.382 C 31.351,0.656 8.678,0.003 0,0"
             style="fill:#afa9a8;fill-opacity:1;fill-rule:nonzero;stroke:none"
             id="path46"
             inkscape:connector-curvature="0"
             sodipodi:nodetypes="ccccccccccccscsccccccccccccccccccccccccccc" /></g><g
           id="g48"
           transform="translate(63.9538,242.5701)"><path
             d="m 0,0 c 0,-5.289 -3.581,-9.577 -7.998,-9.577 -4.417,0 -7.998,4.288 -7.998,9.577 0,5.289 3.581,9.577 7.998,9.577 C -3.581,9.577 0,5.289 0,0"
             style="fill:#2c2c30;fill-opacity:1;fill-rule:nonzero;stroke:none"
             id="path50"
             inkscape:connector-curvature="0" /></g><g
           id="g52"
           transform="translate(55.2192,246.4639)"><path
             d="m 0,0 c 0,-1.162 -0.66,-2.105 -1.473,-2.105 -0.814,0 -1.474,0.943 -1.474,2.105 0,1.162 0.66,2.105 1.474,2.105 C -0.66,2.105 0,1.162 0,0"
             style="fill:#e5e5e5;fill-opacity:1;fill-rule:nonzero;stroke:none"
             id="path54"
             inkscape:connector-curvature="0" /></g><g
           id="g56"
           transform="translate(152.33,224.2524)"><path
             d="m 0,0 c 0,0 -0.917,-3.199 -1.617,-9.067 -0.644,-5.393 -0.43,-11.007 -0.43,-11.007"
             style="fill:none;stroke:#afafb0;stroke-width:1;stroke-linecap:round;stroke-linejoin:miter;stroke-miterlimit:10;stroke-dasharray:none;stroke-opacity:1"
             id="path58"
             inkscape:connector-curvature="0" /></g><g
           id="g60"
           transform="translate(163.375,223.5714)"><path
             d="m 0,0 c 0,0 -1.831,-5.737 -2.223,-9.717 -0.494,-5.021 -0.429,-11.008 -0.429,-11.008"
             style="fill:none;stroke:#afafb0;stroke-width:1;stroke-linecap:round;stroke-linejoin:miter;stroke-miterlimit:10;stroke-dasharray:none;stroke-opacity:1"
             id="path62"
             inkscape:connector-curvature="0" /></g><g
           id="g64"
           transform="translate(173.9949,222.8797)"><path
             d="m 0,0 c 0,0 -2.467,-5.303 -3.031,-9.684 -0.539,-4.189 -0.43,-11.007 -0.43,-11.007"
             style="fill:none;stroke:#afafb0;stroke-width:1;stroke-linecap:round;stroke-linejoin:miter;stroke-miterlimit:10;stroke-dasharray:none;stroke-opacity:1"
             id="path66"
             inkscape:connector-curvature="0" /></g><g
           id="g68"
           transform="translate(185.3967,222.4699)"><path
             d="m 0,0 c 0,0 -4.158,-4.629 -5.289,-10.816 -1.161,-6.355 -0.43,-11.007 -0.43,-11.007"
             style="fill:none;stroke:#afafb0;stroke-width:1;stroke-linecap:round;stroke-linejoin:miter;stroke-miterlimit:10;stroke-dasharray:none;stroke-opacity:1"
             id="path70"
             inkscape:connector-curvature="0" /></g><g
           id="g72"
           transform="translate(193.1255,221.4964)"><path
             d="m 0,0 c 0,0 -4.415,-3.866 -5.546,-10.053 -1.161,-6.355 -0.43,-11.007 -0.43,-11.007"
             style="fill:none;stroke:#afafb0;stroke-width:1;stroke-linecap:round;stroke-linejoin:miter;stroke-miterlimit:10;stroke-dasharray:none;stroke-opacity:1"
             id="path74"
             inkscape:connector-curvature="0" /></g><g
           id="g76"
           transform="translate(179.1527,195.3189)"><path
             d="m 0,0 c -0.539,-3.665 22.295,-77.125 28.063,-99.343 7.577,-29.186 27.782,-95.976 45.462,-95.976 19.364,0 6.174,127.968 16.978,170.624 2.04,8.052 20.486,13.61 20.346,17.96 -0.233,7.211 -39.52,17.452 -57.95,17.452 C 37.481,10.717 0.702,4.771 0,0"
             style="fill:#afa9a8;fill-opacity:1;fill-rule:nonzero;stroke:none"
             id="path78"
             inkscape:connector-curvature="0" /></g></g></g></g></svg>