<?xml version="1.0" encoding="UTF-8" standalone="no"?>
<!-- Created with Inkscape (http://www.inkscape.org/) -->

<svg
   xmlns:dc="http://purl.org/dc/elements/1.1/"
   xmlns:cc="http://creativecommons.org/ns#"
   xmlns:rdf="http://www.w3.org/1999/02/22-rdf-syntax-ns#"
   xmlns:svg="http://www.w3.org/2000/svg"
   xmlns="http://www.w3.org/2000/svg"
   xmlns:sodipodi="http://sodipodi.sourceforge.net/DTD/sodipodi-0.dtd"
   xmlns:inkscape="http://www.inkscape.org/namespaces/inkscape"
   width="297mm"
   height="210mm"
   viewBox="0 0 297 210"
   version="1.1"
   id="svg3784"
   inkscape:version="0.92.2 5c3e80d, 2017-08-06"
   sodipodi:docname="tripletail_Eric-Haffey.svg"
   inkscape:export-filename="/mnt/826CA0866CA07717/MEGASync/Graphics/Species/tripletail_Eric-Haffey.svg.png"
   inkscape:export-xdpi="200"
   inkscape:export-ydpi="200">
  <defs
     id="defs3778" />
  <sodipodi:namedview
     id="base"
     pagecolor="#ffffff"
     bordercolor="#666666"
     borderopacity="1.0"
     inkscape:pageopacity="0.0"
     inkscape:pageshadow="2"
     inkscape:zoom="0.82319014"
     inkscape:cx="305.13103"
     inkscape:cy="452.68352"
     inkscape:document-units="mm"
     inkscape:current-layer="layer1"
     showgrid="false"
     inkscape:window-width="1920"
     inkscape:window-height="1018"
     inkscape:window-x="0"
     inkscape:window-y="34"
     inkscape:window-maximized="1" />
  <metadata
     id="metadata3781">
    <rdf:RDF>
      <cc:Work
         rdf:about="">
        <dc:format>image/svg+xml</dc:format>
        <dc:type
           rdf:resource="http://purl.org/dc/dcmitype/StillImage" />
        <dc:title></dc:title>
      </cc:Work>
    </rdf:RDF>
  </metadata>
  <g
     inkscape:label="Layer 1"
     inkscape:groupmode="layer"
     id="layer1"
     transform="translate(0,-87)"
     style="display:inline">
    <g
       id="g5845"
       inkscape:label="tripletail"
       transform="matrix(1.8151512,0,0,1.8151512,-131.27993,-150.10399)">
      <path
         sodipodi:nodetypes="ccscscscscscscscscscscsccccccccccccaaaaaaaccccccc"
         inkscape:label="dorsalfin"
         inkscape:connector-curvature="0"
         id="path3812"
         d="m 114.04442,155.98429 -1.45308,-8.36433 c 0.77055,0.82995 2.70063,3.55913 2.61804,2.19281 l -0.47988,-7.93911 c 1.03465,2.25721 3.54709,6.8178 3.6709,4.78724 l 0.66817,-10.95806 c 0.85848,3.77829 3.59647,9.09014 4.27632,7.08265 l 3.03445,-8.96024 c 0.64656,3.62844 2.33303,8.87746 3.45158,6.72759 l 4.01577,-7.71839 c -0.14314,2.69431 1.11353,8.36461 2.49991,6.47653 l 4.08061,-5.5573 c -0.28758,2.92244 0.54459,9.31685 2.16108,7.16092 l 3.4583,-4.61236 c -0.27136,3.57309 0.31984,8.27704 1.83175,6.46704 l 3.34086,-3.99955 c -0.35504,2.60523 0.16041,7.59633 1.3917,6.02028 l 3.34087,-4.27631 c -0.50489,3.12224 0.31984,8.33689 1.60362,6.81537 l 3.60813,-4.27631 c 0.14576,2.27588 0.81434,5.84594 2.13816,4.27631 l 4.07111,-4.82706 c 0.0548,1.11438 0.40399,2.86668 1.06908,2.53906 l 7.02057,-3.4583 c 0.19055,0.46755 0.4517,0.72924 1.06908,0.53454 l 4.27631,-1.33635 c 0.57352,0.80738 1.84861,0.74613 3.0736,0.66818 l 2.53906,-0.93544 c 0.35636,0.5234 0.91318,0.81294 1.46999,0.66817 l 4.14267,0.26727 c 0.4079,0.75409 1.80753,0.81565 2.95331,0.6768 0.8171,0.81746 2.30395,0.94352 3.46116,0.79318 0.683,1.22503 2.14557,1.22163 3.60814,1.33635 0.67018,1.06977 1.74196,1.76157 3.0736,2.00452 0.23468,1.08537 1.47937,1.9256 2.67269,2.27179 0.53655,1.16357 2.02204,1.97709 2.6727,3.20724 0.45487,0.85999 0.77676,1.83378 0.80181,2.80633 0.0306,1.18821 -0.41472,2.35069 -0.80181,3.4745 -0.48026,1.39431 -1.14211,2.727 -1.87089,4.00904 -0.66553,1.17076 -1.41323,2.30334 -2.27179,3.34087 -0.64259,0.77654 -1.34369,1.51786 -2.13815,2.13816 -0.81891,0.63939 -1.6896,1.26753 -2.6727,1.60361 -1.49058,0.50956 -4.69273,0.55816 -4.69273,0.55816 -0.89901,0.23419 -1.63265,0.61012 -2.27179,1.26953 l -24.03874,-15.99297 -15.30118,-2.00452 -18.97614,-1.46999 -11.89349,0.735 z"
         style="fill:#504727;fill-opacity:1;stroke:none;stroke-width:0.26458332px;stroke-linecap:butt;stroke-linejoin:miter;stroke-opacity:0.90196078" />
      <path
         inkscape:label="caudalfin"
         sodipodi:nodetypes="ccaaaaaaaaaaaaaacccccccc"
         inkscape:connector-curvature="0"
         id="path3815"
         d="m 203.49293,170 9.49665,-6.2366 c 0,0 3.0804,-1.94145 4.8192,-2.36236 1.59221,-0.38543 3.38092,-0.67269 4.91369,-0.0945 1.39762,0.5272 2.40092,1.83647 3.30729,3.02381 0.83767,1.09735 1.32078,2.4275 1.88988,3.68527 0.53046,1.17237 0.99164,2.37645 1.41741,3.59077 0.42526,1.21287 0.86877,2.42766 1.13393,3.68527 0.3337,1.58268 0.51851,3.20245 0.56697,4.8192 0.0419,1.39679 -0.0843,2.79664 -0.23959,4.18541 -0.13733,1.22843 -0.32922,2.45402 -0.61085,3.65759 -0.24746,1.05755 -0.59956,2.08857 -0.94494,3.11831 -0.40562,1.20936 -0.75296,2.44962 -1.32292,3.59077 -0.8042,1.61014 -1.58876,3.3348 -2.92932,4.53571 -0.83937,0.75192 -1.9423,1.19527 -3.02381,1.51191 -1.42878,0.41831 -2.97481,0.72954 -4.44121,0.47247 -2.62248,-0.45973 -7.18155,-3.49628 -7.18155,-3.49628 l -6.75633,-4.29949 3.87426,-1.84263 c 1.30717,-1.70089 1.95288,-3.07105 2.64584,-5.38616 0.81528,-2.37438 0.8617,-4.45792 0.0945,-7.41777 -0.22048,-2.11037 -0.91344,-4.12625 -2.4096,-6.09488 -0.6995,-1.82521 -2.01507,-2.43988 -4.29949,-2.64582 z"
         style="fill:#504727;fill-opacity:1;stroke:none;stroke-width:0.26458332px;stroke-linecap:butt;stroke-linejoin:miter;stroke-opacity:0.90196078" />
      <path
         inkscape:label="dorsalfin"
         sodipodi:nodetypes="cccccccccacaacccccccccccaaaaaaaccccccc"
         inkscape:connector-curvature="0"
         id="path3817"
         d="m 158.6933,210.91593 1.98437,0.28348 1.70089,4.34672 c -0.15274,-1.58544 0.3627,-1.96816 0.94495,-2.55134 l 4.7247,6.4256 c -0.041,-1.02322 0.0682,-1.62884 0.37797,-2.26786 0.43715,-0.43764 0.97453,-0.64142 1.51191,-0.66145 l 3.40178,1.79538 c -0.17086,-0.67292 -0.0577,-1.11198 0.18899,-1.41741 0.67764,-0.48412 1.10381,-0.59242 1.7009,-0.56696 1.98756,0.0848 5.48065,2.36235 5.48065,2.36235 -0.0243,-0.38753 0.14609,-0.55793 0.37798,-0.66146 0.684,-0.30538 1.45646,0.35962 2.19698,0.47248 0.77386,0.11794 2.33873,0.21261 2.33873,0.21261 -0.58532,-0.52976 -0.55062,-1.03386 -0.0709,-1.22843 l 4.79557,0.54334 c -0.42858,-0.493 -0.47296,-0.81895 -0.28348,-1.22842 l 3.68527,0.28348 c -0.0654,-0.86452 0.35103,-1.11077 0.94494,-1.32292 l 2.45684,-0.0945 c -0.0157,-0.64571 0.22836,-1.00793 0.66146,-1.22842 l 2.83482,-1.32292 c 0.27561,-1.03943 0.9292,-1.41741 1.88989,-1.70089 l 1.39378,-0.37798 c 0,0 0.36213,-1.06264 0.68508,-1.5119 0.72848,-1.01338 2.14953,-1.45198 2.74033,-2.55134 0.36279,-0.67507 0.40033,-1.5018 0.37798,-2.26786 -0.0207,-0.71033 -0.1961,-1.42419 -0.47247,-2.07887 -0.54025,-1.27977 -1.48346,-2.34981 -2.26786,-3.49628 -0.94282,-1.37803 -1.79928,-2.83406 -2.92932,-4.06324 -0.9827,-1.06891 -1.95328,-2.31049 -3.30729,-2.83482 -1.93948,-0.75105 -6.2366,-0.18899 -6.2366,-0.18899 l -1.51191,-0.56697 -2.07887,5.38616 -4.7247,4.72471 -6.3311,4.81919 -7.18155,2.64583 z"
         style="fill:#504727;fill-opacity:1;stroke:none;stroke-width:0.26458332px;stroke-linecap:butt;stroke-linejoin:miter;stroke-opacity:0.90196078" />
      <path
         sodipodi:nodetypes="cccccccaccccc"
         inkscape:connector-curvature="0"
         id="path3819"
         d="m 117.17262,211.19941 c 0.72445,0.53547 1.44891,1.07093 2.17336,1.6064 0.39984,2.4703 0.74237,4.954 1.17794,7.41595 1.21375,3.85912 2.42751,7.71823 3.64126,11.57735 1.42855,-0.51905 1.92728,1.43506 2.78187,2.18185 1.59621,2.03934 3.20215,4.28119 5.68379,5.30294 1.20763,0.35431 2.6251,1.73954 3.67849,1.02499 1.1468,-6.15278 1.1606,-12.70008 1.26178,-19.06977 0.0248,-1.56347 0.86857,-3.27806 -0.16089,-4.68824 -1.52649,-2.67062 -4.87557,-2.71952 -6.72494,-2.51665 -0.69018,-0.3649 -0.90318,-1.01861 -1.12554,-1.72528 -0.84486,-0.77725 -2.10187,-1.28742 -3.23082,-1.4758 -3.0521,0.12209 -6.1042,0.24417 -9.1563,0.36626 z"
         style="fill:#504727;fill-opacity:1;stroke:#4c3f0d;stroke-width:0.26499999;stroke-linecap:butt;stroke-linejoin:miter;stroke-miterlimit:4;stroke-dasharray:none;stroke-opacity:0.90196078" />
      <path
         inkscape:label="body"
         sodipodi:nodetypes="aaaaaaaaaaaaaaaaaaaaaaaaaaaaaaaaacacaaaaaaaaaaaaaaaaaaaaaaaa"
         inkscape:connector-curvature="0"
         id="path3808"
         d="m 76.572718,180.87139 c 2.658721,-2.24225 5.601026,-4.15203 8.619442,-5.87993 0.769542,-0.44053 1.573934,-0.82787 2.405427,-1.13589 0.866432,-0.32097 1.848414,-0.31752 2.672694,-0.73499 1.69741,-0.85969 3.099116,-2.22894 4.476766,-3.54132 2.868728,-2.73282 4.821173,-6.3614 7.817633,-8.95353 2.54641,-2.2028 5.49224,-3.9379 8.48581,-5.47903 1.23555,-0.63608 2.54232,-1.14429 3.8754,-1.5368 1.873,-0.55148 3.82325,-0.79805 5.7463,-1.13589 2.59677,-0.4562 5.1949,-0.93324 7.81763,-1.20272 2.55138,-0.26215 5.1192,-0.41129 7.684,-0.4009 4.44023,0.018 8.87185,0.43156 13.29666,0.80181 3.75008,0.31379 7.49254,0.7253 11.22532,1.20271 2.70261,0.34566 5.43813,0.55602 8.0849,1.20271 0.96269,0.23522 1.92378,0.5265 2.81108,0.96787 1.05537,0.52499 1.95731,1.31399 2.93522,1.9721 3.00832,2.02452 6.02035,4.04356 9.02035,6.08038 3.03595,2.06122 6.03515,4.17665 9.08716,6.21402 1.45919,0.97408 2.71101,2.43536 4.40995,2.87315 0.88665,0.22848 1.84798,0.008 2.73951,-0.20046 2.18545,-0.51135 4.01226,-2.84074 6.23637,-2.53906 1.06137,0.14396 1.81159,1.18076 2.54577,1.96063 0.88359,0.93857 1.623,2.03356 2.17059,3.20052 0.57891,1.23372 0.95916,2.57613 1.13589,3.92741 0.19043,1.45615 0.10393,2.94954 -0.0945,4.40462 -0.17498,1.28316 -0.55288,2.53523 -0.95973,3.76469 -0.34021,1.0281 -0.73568,2.04381 -1.23375,3.0054 -0.44801,0.86495 -0.87946,1.77689 -1.56783,2.4661 -0.80565,0.80663 -1.74437,1.80827 -2.88403,1.83847 -1.43355,0.038 -2.4792,-1.44346 -3.74513,-2.1172 -0.57153,-0.30418 -1.12487,-0.6585 -1.73726,-0.86862 -1.0742,-0.36857 -2.20533,-0.64987 -3.34086,-0.66818 -1.08369,-0.0175 -2.4946,-0.28206 -3.20724,0.53454 -0.49813,0.5708 0.0368,1.52132 -0.0668,2.27179 -1.38067,5.46853 -5.39342,8.75366 -9.55488,11.49259 -6.76984,4.45567 -14.3059,6.09584 -23.31927,6.88223 -0.95226,0.0918 -1.85863,0.47062 -2.80633,0.60136 -4.20042,0.57945 -8.45807,0.64318 -12.6953,0.80181 -3.78393,0.14166 -7.57543,0.28559 -11.35896,0.13363 -1.45269,-0.0583 -2.89293,-0.29776 -4.34313,-0.4009 -3.55906,-0.25313 -7.14793,-0.1113 -10.69078,-0.53454 -2.72385,-0.3254 -5.44397,-0.79466 -8.0849,-1.5368 -1.94744,-0.54726 -3.82207,-1.33686 -5.67947,-2.13816 -4.00601,-1.72823 -7.939398,-3.63941 -11.759866,-5.74629 -3.599306,-1.98492 -7.1909,-4.03003 -10.490327,-6.48129 -2.077131,-1.54317 -4.055864,-3.24548 -5.813113,-5.14494 -0.928686,-1.00384 -1.785839,-2.09125 -2.472242,-3.27405 -0.425689,-0.73354 -1.063679,-1.49273 -1.002261,-2.33861 0.05864,-0.80769 0.485548,-1.86844 1.26953,-2.07134 0.569664,-0.14743 1.055722,0.52978 1.5368,0.86863 0.251583,0.1772 0.472629,0.39463 0.698397,0.60373 1.009045,0.93455 2.003407,1.88872 2.929316,2.9057 0.576282,0.63296 1.097867,1.31388 1.630021,1.98437 0.185056,0.23316 0.264634,0.81327 0.54334,0.70871 0.347226,-0.13027 0.004,-0.7471 -0.07087,-1.11031 -0.118225,-0.57325 -0.340752,-1.12433 -0.59059,-1.65364 -0.399474,-0.84633 -0.925115,-1.62878 -1.441035,-2.4096 -0.649481,-0.98296 -1.344947,-1.93681 -2.078868,-2.85844 -0.351171,-0.44099 -1.124962,-0.71213 -1.110305,-1.27567 0.0036,-0.1402 0.18514,-0.21216 0.292351,-0.30258 z"
         style="fill:#5b531c;fill-opacity:1;stroke:none;stroke-width:0.26458332px;stroke-linecap:butt;stroke-linejoin:miter;stroke-opacity:1" />
      <path
         inkscape:label="bodymottled"
         sodipodi:nodetypes="acacsasasasaaaaaaaacsasaaaaaa"
         inkscape:connector-curvature="0"
         id="path5612"
         d="m 186.95597,170.29257 c -1.72125,-1.61281 -3.96875,-5.85863 -3.96875,-5.85863 0,0 -0.0333,10.80808 -3.92682,11.01897 -6.42896,0.34821 -8.41113,-17.38758 -8.41113,-17.38758 -4.59499,1.92067 -0.49424,15.85898 -5.05682,12.23904 -5.53162,-4.38878 0.0224,7.86743 -2.83482,8.12649 -5.84413,0.52988 -0.37798,-20.03274 -8.69345,-15.30804 -8.31548,4.7247 -4.1666,10.62036 -8.13206,9.41074 -4.82005,-1.4703 1.01767,-14.81935 -1.81715,-15.00834 -2.83482,-0.18899 -5.36439,23.40877 -12.91835,20.52766 -6.91238,-2.63641 5.45565,-22.37229 3.69036,-21.88531 -5.48066,1.51191 -17.38784,9.03594 -14.70146,15.6772 0.75444,1.86513 4.72349,-1.23704 6.02863,0.29412 8.44562,9.90827 -16.94908,35.74099 -4.29924,38.82057 10.44747,2.54342 4.84935,-21.7238 11.58396,-30.10615 3.00633,-3.74189 8.40941,-11.11949 12.00976,-7.94503 3.38478,2.98438 -5.57689,7.64415 -5.99653,12.13716 -0.75155,8.04672 -1.55197,23.49697 6.52843,23.34973 11.69688,-0.21313 3.15526,-23.57286 8.21264,-34.12205 0.75716,-1.57936 2.26786,-7.37053 3.2128,-4.15774 0.94493,3.2128 -0.31761,18.78215 2.91867,14.89371 3.20734,-3.85368 0.49167,17.94762 6.76164,17.58606 4.99141,-0.28784 -1.05756,-15.94051 3.73784,-14.5259 0,0 -1.25589,-7.00575 0.18899,-10.01637 0.63865,-1.33072 2.00135,-3.30118 3.40178,-2.83482 8.22655,2.73953 -2.59335,26.39002 6.00963,25.30839 7.87448,-0.99004 -6.53638,-18.76697 -0.40483,-23.80599 7.42315,-6.10048 24.69442,15.01892 28.17956,6.06499 2.98595,-7.67144 -15.29618,-6.86424 -21.30328,-12.49288 z"
         style="fill:#4a401d;fill-opacity:0.99607843;stroke:none;stroke-width:0.26458332px;stroke-linecap:butt;stroke-linejoin:miter;stroke-opacity:0.99607843" />
      <path
         inkscape:label="headmottled"
         sodipodi:nodetypes="ssssss"
         inkscape:connector-curvature="0"
         id="path5552"
         d="m 91.659227,185.02456 c -0.44892,2.38905 -5.065676,-4.17372 -3.779764,-6.23661 6.164812,-9.88976 17.678147,-16.16725 39.593007,-24.85193 0.89203,-0.35351 2.43446,0.17669 1.60639,0.66145 -17.31597,10.13693 -28.75953,10.47445 -37.419633,23.43453 -3.614598,5.40934 0,6.99256 0,6.99256 z"
         style="fill:#4a401d;fill-opacity:0.99607843;stroke:none;stroke-width:0.26458332px;stroke-linecap:butt;stroke-linejoin:miter;stroke-opacity:0.99607843" />
      <path
         style="opacity:1;fill:#504727;fill-opacity:1;stroke:none;stroke-width:0.26458332px;stroke-linecap:butt;stroke-linejoin:miter;stroke-opacity:0.90196078"
         d="m 118.59003,197.59227 c 0.37883,-0.99209 1.97682,-0.58679 2.51915,-1.37483 0.71232,-1.03504 0.98841,-2.57581 0.50474,-3.73545 -0.49587,-1.1889 -1.71834,-2.15175 -3.08535,-2.32703 -0.77295,0.002 -1.1871,-0.55847 -0.27258,-0.86814 2.23514,-1.34432 4.54248,-2.60352 6.99399,-3.48264 4.12351,-1.47871 8.45214,-3.43817 12.80582,-2.95299 1.67421,0.18658 3.54291,0.84419 4.55367,2.19183 0.88981,1.18638 1.03574,2.93753 0.73005,4.38867 -0.41946,1.9912 -2.00692,3.57382 -3.34594,5.10609 -1.34774,1.54224 -2.8191,3.09165 -4.6417,4.02602 -1.84552,0.94611 -3.98272,1.32511 -6.05364,1.4363 -2.43467,0.13072 -4.88333,-0.35901 -7.25684,-0.91682 -1.16136,-0.27294 -2.52128,-0.29597 -3.37888,-1.17997 l -0.054,-0.14511 z"
         id="path3810"
         inkscape:connector-curvature="0"
         sodipodi:nodetypes="caaccaaaaaaaaccc" />
      <ellipse
         inkscape:label="eye"
         ry="2.7420733"
         rx="2.9467056"
         cy="180.49564"
         cx="87.594963"
         id="path5782"
         style="opacity:1;fill:#9d9177;fill-opacity:1;stroke:none;stroke-width:0.23302361;stroke-miterlimit:4;stroke-dasharray:none;stroke-opacity:0.90196078" />
      <ellipse
         inkscape:label="pupil"
         cy="191.66023"
         cx="59.264172"
         id="path5623"
         style="opacity:1;fill:#3b3721;fill-opacity:1;stroke:none;stroke-width:0.30241674;stroke-miterlimit:4;stroke-dasharray:none;stroke-opacity:0.90196078"
         transform="rotate(-8.6999871)"
         ry="1.9949689"
         rx="1.994969" />
      <path
         inkscape:label="lowermaxilla"
         sodipodi:nodetypes="aaaaaaacaaaaasaaasaacccaaaa"
         inkscape:connector-curvature="0"
         id="path3845"
         d="m 84.9029,192.67857 c 0.230992,0.1566 0.260983,0.52523 0.236234,0.8032 -0.02186,0.24554 -0.164888,0.47907 -0.330729,0.66146 -0.199909,0.21985 -0.474525,0.37709 -0.755952,0.47247 -0.314645,0.10664 -0.673411,0.18807 -0.992188,0.0945 -0.538105,-0.15795 -0.915612,-0.65394 -1.322916,-1.03944 -0.502501,-0.4756 -0.934261,-1.02185 -1.370164,-1.55915 -0.18904,-0.23301 -0.316063,-0.46428 -0.539156,-0.72082 -0.255244,-0.29351 -0.500203,-0.49223 -0.78376,-0.69659 -0.486517,-0.35064 -1.063106,-0.56067 -1.559153,-0.89769 -0.565581,-0.38426 -1.093883,-0.82305 -1.606399,-1.27567 -0.608183,-0.53711 -1.252015,-1.05459 -1.73786,-1.70446 -0.261091,-0.34923 -0.485417,-0.73836 -0.614295,-1.15492 -0.07411,-0.23955 -0.141851,-0.46539 -0.08352,-0.74761 0,0 0.04662,-0.44014 0.120988,-0.64631 0.08648,-0.23975 0.191639,-0.48769 0.371451,-0.66832 0.122462,-0.12302 0.28044,-0.25332 0.454012,-0.25504 0.337999,-0.003 0.670134,0.2785 0.893767,0.47903 0.317579,0.28478 0.534996,0.4565 0.794544,0.69365 1.114521,1.01834 2.254895,2.01569 3.273573,3.12991 0.638954,0.69888 1.771761,2.22061 1.771761,2.22061 l 0.286949,0.49701 0.280016,0.0227 c 0,0 0.412561,1.16913 0.757174,1.67621 0.139441,0.20518 0.306178,0.40514 0.517835,0.53454 0.195307,0.1194 0.429104,0.17725 0.656841,0.20045 0.426636,0.0434 0.925988,-0.36037 1.280947,-0.11972 z"
         style="fill:#9f8926;fill-opacity:1;stroke:none;stroke-width:0.26458332px;stroke-linecap:butt;stroke-linejoin:miter;stroke-opacity:1" />
      <path
         inkscape:label="uppermaxilla"
         sodipodi:nodetypes="ccaaaasacaassaac"
         inkscape:connector-curvature="0"
         id="path3839"
         d="m 76.808953,181.0462 0.519718,-0.33073 c 0,0 0.483003,-0.25643 0.747034,-0.26443 0.76978,-0.0233 1.578124,0.2132 2.220611,0.63783 1.02432,0.677 1.663053,1.82319 2.323204,2.85845 0.470837,0.73837 0.786583,1.56535 1.149453,2.36235 0.688715,1.51268 3.037867,-0.0919 1.949312,4.58943 -0.787977,3.3887 -1.912261,2.66589 -3.15614,2.28924 -0.944601,-0.28602 -1.029811,-2.776 -1.029811,-2.776 0,0 0.89371,-0.10605 1.017705,-0.45657 0.505239,-1.42828 -1.326362,-2.72561 -2.054637,-4.05408 -0.474477,-0.86551 -0.969321,-1.85794 -1.506755,-2.54909 -0.351861,-0.4525 -0.07176,0.26368 -0.681432,-0.30297 -0.297984,-0.27696 -0.71149,-0.46513 -0.897692,-0.82683 -0.08717,-0.16934 0.0068,-0.39304 -0.07087,-0.56696 -0.109735,-0.24582 -0.529701,-0.60964 -0.5297,-0.60964 z"
         style="fill:#817336;fill-opacity:1;stroke:none;stroke-width:0.26458332px;stroke-linecap:butt;stroke-linejoin:miter;stroke-opacity:1" />
      <path
         sodipodi:nodetypes="saazaaasaaasss"
         inkscape:label="operculum"
         inkscape:connector-curvature="0"
         id="path3841"
         d="m 108.67694,169.33092 c -1.87129,-1.16395 3.73946,1.67239 5.52891,2.66376 2.81265,1.55824 5.64166,3.14585 8.15821,5.14737 0.68653,0.54603 1.47736,1.05501 1.8691,1.85247 0.39174,0.79746 -4.00836,5.47458 -6.08914,8.15353 -3.43536,4.42294 -5.95498,9.87751 -10.5553,13.07143 -2.36065,1.63896 -5.32381,2.39207 -8.177626,2.73055 -1.289905,0.15299 -4.343091,-0.28345 -3.882386,-0.33531 0,0 1.248673,-0.20899 1.859999,-0.36987 3.563233,-0.93769 7.445043,-1.3973 10.498223,-3.45982 2.98541,-2.01673 4.78099,-5.39911 6.97051,-8.26021 2.33344,-3.04915 3.99496,-6.08481 6.556,-9.47095 2.49613,-3.3003 -4.47448,-6.65734 -8.80122,-9.0552 -1.30796,-0.72487 -1.61508,-1.22458 -3.93528,-2.66775 z"
         style="fill:#4b3e0d;fill-opacity:1;stroke:none;stroke-width:0.26458332px;stroke-linecap:butt;stroke-linejoin:miter;stroke-opacity:1" />
      <path
         inkscape:label="uppermottled"
         sodipodi:nodetypes="aaasaaa"
         inkscape:connector-curvature="0"
         id="path5608"
         d="m 99.9747,164.89732 c -1.004726,-0.99182 1.6026,-2.35606 2.64583,-3.30729 2.36915,-2.16022 5.08716,-4.02385 8.032,-5.29166 2.91226,-1.25379 6.11773,-2.57514 9.26042,-2.17337 2.90483,0.37136 -5.67814,1.56189 -8.31548,2.83483 -3.20255,1.54574 -6.10194,3.67128 -8.97694,5.76413 -0.92275,0.67171 -1.83358,2.97517 -2.64583,2.17336 z"
         style="fill:#4a401d;fill-opacity:0.99607843;stroke:none;stroke-width:0.26458332px;stroke-linecap:butt;stroke-linejoin:miter;stroke-opacity:0.99607843" />
      <path
         inkscape:label="cheekmottled"
         sodipodi:nodetypes="cccscssssasc"
         inkscape:connector-curvature="0"
         id="path5610"
         d="m 90.337099,189.02312 3.741775,-0.66818 -1.569202,-2.2437 c 0,0 2.272101,-15.25423 3.212799,0.14174 0.204281,3.34337 6.425599,-3.82701 6.425599,-3.82701 0,0 -4.877324,-1.82771 -4.819203,-3.26004 0.400742,-9.87589 13.075633,4.08781 9.638393,3.77976 -2.85422,-0.2558 -0.77349,5.93572 -6.23661,2.92931 0,0 0.65002,3.72001 2.92931,6.42559 0.89224,1.05911 -6.113241,-2.73666 -7.559514,-0.66145 -1.055369,1.51431 2.362351,5.00818 2.362351,5.00818 -1.750369,6.69764 -8.125698,-7.6242 -8.125698,-7.6242 z"
         style="fill:#4a401d;fill-opacity:0.99607843;stroke:none;stroke-width:0.26458332px;stroke-linecap:butt;stroke-linejoin:miter;stroke-opacity:0.99607843" />
      <ellipse
         ry="0.38978791"
         rx="0.93312877"
         cy="179.21202"
         cx="87.560585"
         id="path5623-9"
         style="opacity:1;fill:#e3dbdb;fill-opacity:1;stroke:none;stroke-width:0.09142282;stroke-miterlimit:4;stroke-dasharray:none;stroke-opacity:0.99607843" />
    </g>
    <path
       inkscape:label="uppermaxilla"
       sodipodi:nodetypes="ccaaaasacaassaac"
       inkscape:connector-curvature="0"
       id="path3839-5"
       d="m 8.1399261,177.5617 0.9433667,-0.60033 c 0,0 0.8767235,-0.46545 1.3559792,-0.47997 1.397268,-0.0423 2.864534,0.38699 4.030747,1.15775 1.859294,1.22886 3.018691,3.30937 4.216965,5.18852 0.854642,1.34025 1.409201,2.84995 2.086433,4.28802 1.345503,2.85714 5.902987,0.12489 3.927095,8.62212 -1.430295,6.151 -3.606372,5.0897 -5.971871,4.38212 -1.582067,-0.47323 -1.728685,-4.64258 -1.728685,-4.64258 0,0 -0.179464,-1.32141 -0.37529,-1.95565 -0.443074,-1.43502 -1.087846,-2.80745 -1.793276,-4.13335 -1.040275,-1.95525 -2.601868,-4.34443 -3.577392,-5.59898 -0.638681,-0.82135 -1.208895,-1.56258 -2.3155343,-2.59114 -0.540886,-0.50272 -1.2914637,-0.84427 -1.6294467,-1.50082 -0.1582266,-0.30737 -0.2291501,-0.69833 -0.1286399,-1.02912 0.1419448,-0.46713 0.959547,-1.10659 0.959549,-1.10659 z"
       style="display:inline;fill:#9f8926;fill-opacity:1;stroke:none;stroke-width:0.48025873px;stroke-linecap:butt;stroke-linejoin:miter;stroke-opacity:1" />
  </g>
</svg>
